<svg xmlns="http://www.w3.org/2000/svg" xmlns:xlink="http://www.w3.org/1999/xlink" width="147" height="147" viewBox="0 0 147 147">
  <defs>
    <clipPath id="clip-path">
      <rect id="Rectangle_401492" data-name="Rectangle 401492" width="98.671" height="98.672" transform="translate(0 0)" fill="#fff" stroke="#707070" stroke-width="1"/>
    </clipPath>
    <clipPath id="clip-path-2">
      <rect id="Rectangle_401491" data-name="Rectangle 401491" width="78.376" height="90.537" fill="#fff"/>
    </clipPath>
    <clipPath id="clip-path-3">
      <rect id="Rectangle_406251" data-name="Rectangle 406251" width="147" height="147" fill="#1e2ad5"/>
    </clipPath>
    <clipPath id="clip-path-4">
      <rect id="Rectangle_401492-2" data-name="Rectangle 401492" width="97.31" height="97.311" transform="translate(0 0.334)" fill="#fff" stroke="#707070" stroke-width="1"/>
    </clipPath>
    <clipPath id="clip-path-5">
      <rect id="Rectangle_408412" data-name="Rectangle 408412" width="82.625" height="89.614" fill="#fff"/>
    </clipPath>
  </defs>
  <g id="Group_1115377" data-name="Group 1115377" transform="translate(-313 -7638)">
    <g id="Group_1115376" data-name="Group 1115376" transform="translate(333.92 7661.471)">
      <rect id="Rectangle_401104" data-name="Rectangle 401104" width="91.934" height="93.418" transform="translate(3.368 0)" fill="none"/>
      <g id="Mask_Group_1098697" data-name="Mask Group 1098697" transform="translate(0 0.001)" clip-path="url(#clip-path)">
        <g id="Group_1100236" data-name="Group 1100236" transform="translate(13.419 4.025)">
          <g id="Group_1100235" data-name="Group 1100235" clip-path="url(#clip-path-2)">
            <path id="Path_873786" data-name="Path 873786" d="M69.727,72.82c.224,0,.448,0,.671,0,1.365-.008,2.73-.035,4.094-.013a2.755,2.755,0,0,1,1.17.247,1.7,1.7,0,0,1,.917,1.672,15.265,15.265,0,0,1-3.1,9.247A15.708,15.708,0,0,1,63.418,90.25a16.3,16.3,0,0,1-2.98.273q-25.05.024-50.1,0a9.768,9.768,0,0,1-9.32-5.792A9.991,9.991,0,0,1,.091,80.9C.03,80.04,0,79.175,0,78.311Q0,42.314.02,6.316A8.176,8.176,0,0,1,.5,3.423,5.231,5.231,0,0,1,5.654,0c.068,0,.135,0,.2,0Q33.036,0,60.214,0A5.6,5.6,0,0,1,64.127,1.39,5.293,5.293,0,0,1,65.9,5.214c.018.351.016.7.016,1.054q0,18.5,0,36.991a.807.807,0,0,0,.293.555,23.944,23.944,0,0,0,10.09,4.454,4.01,4.01,0,0,1,.892.256,1.523,1.523,0,0,1,.941,1.235,27.545,27.545,0,0,1,.235,3.11,25.9,25.9,0,0,1-6.743,17.879c-.61.681-1.284,1.3-1.928,1.954.007.04.015.079.022.119M49.939,55.029c0-1.087-.03-2.113.01-3.137a14,14,0,0,1,.245-2.209,1.6,1.6,0,0,1,1.411-1.324c.479-.08.955-.174,1.433-.261a19.736,19.736,0,0,0,9.1-4.256.917.917,0,0,0,.265-.617c.023-.716-.016-1.432-.016-2.149q.011-17.724.034-35.448A1.869,1.869,0,0,0,60.37,3.556c-3.35.05-6.7.016-10.052.016H5.447A1.644,1.644,0,0,0,3.616,5.119a5.3,5.3,0,0,0-.043.848q0,37.071.005,74.141a10.708,10.708,0,0,0,.163,1.812A6.252,6.252,0,0,0,9.02,86.93a6.136,6.136,0,0,0,6.754-4.068,9.362,9.362,0,0,0,.341-3.248c-.007-1.635-.01-3.271.015-4.906a1.765,1.765,0,0,1,1.753-1.891,5.057,5.057,0,0,1,.566-.027q19.74.01,39.479.021c.231,0,.462-.032.793-.057A26.374,26.374,0,0,1,50.54,58.572c-.136-.007-.255-.02-.374-.02q-11.309,0-22.617,0a8.357,8.357,0,0,1-.89-.037,1.8,1.8,0,0,1-1.667-1.727,1.844,1.844,0,0,1,1.662-1.708,10.354,10.354,0,0,1,1.092-.052q10.437,0,20.875,0h1.319M72.963,76.285h-.778q-11.064,0-22.128-.006-15,0-29.991,0c-.356,0-.464.1-.458.458.021,1.365.028,2.731.006,4.1A9.462,9.462,0,0,1,17.5,86.785a.745.745,0,0,0-.066.178h.477q21.581,0,43.162,0a8.74,8.74,0,0,0,1.534-.1,12.381,12.381,0,0,0,9.325-7.022,10.726,10.726,0,0,0,1.034-3.548M53.535,51.561a23.945,23.945,0,0,0,.426,6.347,22.683,22.683,0,0,0,9.655,14.262c.539.37.549.377,1.093,0C71.785,67.265,75.1,60.478,74.848,51.9c-.009-.306-.112-.408-.4-.477a27.1,27.1,0,0,1-8.017-3.281c-.765-.472-1.508-.982-2.259-1.474a24,24,0,0,1-10.638,4.895" transform="translate(0 0)" fill="#fff"/>
            <path id="Path_873787" data-name="Path 873787" d="M51.616,50.288H30.057a5.643,5.643,0,0,1-.647-.023A1.8,1.8,0,0,1,27.63,48.3q-.011-9.57,0-19.14A1.821,1.821,0,0,1,29.538,27.2c.391-.023.783-.006,1.175-.006q21.276,0,42.552,0a4.368,4.368,0,0,1,.964.094A1.907,1.907,0,0,1,75.7,29.061c.009.134.005.27.005.405q0,9.266,0,18.532a1.985,1.985,0,0,1-2.247,2.283c-4.269.016-8.537.008-12.806.008H51.616m20.5-19.6H69.826q-19.111,0-38.221-.005c-.393,0-.494.1-.493.495q.021,7.6,0,15.209c0,.31.085.383.385.382,2.445-.014,4.891-.012,7.336-.013l32.831-.008c.144,0,.288-.012.451-.02Z" transform="translate(-18.632 -18.335)" fill="#fff"/>
            <path id="Path_873788" data-name="Path 873788" d="M40.024,175.228c0,1.338-.057,2.678.015,4.012a2.036,2.036,0,0,1-2.275,2.261c-1.62,0-3.24.008-4.86,0-1.188-.008-2.376-.019-3.561-.076a1.727,1.727,0,0,1-1.717-1.792q-.03-4.4-.009-8.794a1.687,1.687,0,0,1,1.676-1.776c.416-.038.836-.026,1.255-.027,2.362,0,4.725-.007,7.088,0a4.263,4.263,0,0,1,1.119.131,1.745,1.745,0,0,1,1.27,1.725q0,2.168,0,4.336m-3.581-2.668c-1.693,0-3.341.006-4.988-.005-.3,0-.357.111-.354.384.017,1.555.014,3.11.021,4.664a2.724,2.724,0,0,0,.032.3h5.29Z" transform="translate(-18.62 -114.004)" fill="#fff"/>
            <path id="Path_873789" data-name="Path 873789" d="M40.036,120.769c0,1.446,0,2.892,0,4.338a1.742,1.742,0,0,1-1.822,1.843q-4.335,0-8.67,0a1.739,1.739,0,0,1-1.909-1.877q-.021-4.3,0-8.594a1.757,1.757,0,0,1,1.9-1.859c2.836,0,5.672,0,8.508-.007a1.842,1.842,0,0,1,1.795,1.013,1.588,1.588,0,0,1,.185.684c.016,1.486.008,2.973.008,4.459m-3.586-2.556a1.463,1.463,0,0,0-.17-.022c-1.619-.008-3.238-.008-4.857-.028-.313,0-.306.162-.3.383.008,1.431.01,2.862.014,4.293,0,.17,0,.341,0,.512H36.45Z" transform="translate(-18.632 -77.302)" fill="#fff"/>
            <path id="Path_873790" data-name="Path 873790" d="M91.834,114.622q6.524,0,13.048,0a3.457,3.457,0,0,1,.761.08,1.708,1.708,0,0,1,.138,3.27,4.613,4.613,0,0,1-1.27.211q-12.42.018-24.839,0a7.062,7.062,0,0,1-1.446-.14,1.723,1.723,0,0,1,.4-3.423c2.4-.005,4.808,0,7.212,0h6Z" transform="translate(-51.747 -77.309)" fill="#fff"/>
            <path id="Path_873791" data-name="Path 873791" d="M86.526,196.366q3.931,0,7.862,0a1.77,1.77,0,0,1,1.871,1.957,1.706,1.706,0,0,1-1.228,1.457,3.76,3.76,0,0,1-1,.149q-7.112.014-14.224,0c-.472,0-.945-.03-1.415-.077a1.9,1.9,0,0,1-1.675-1.79,1.922,1.922,0,0,1,1.862-1.7q3.971-.006,7.943,0" transform="translate(-51.746 -132.442)" fill="#fff"/>
            <path id="Path_873792" data-name="Path 873792" d="M86.552,145.111q-3.97,0-7.94,0a1.746,1.746,0,0,1-1.582-.878,1.535,1.535,0,0,1,.485-2.2,3.193,3.193,0,0,1,1.511-.478c5-.035,9.992-.025,14.989-.012a3.463,3.463,0,0,1,1.065.209,1.71,1.71,0,0,1,1.192,2,1.735,1.735,0,0,1-1.74,1.355c-2.417.007-4.834,0-7.251,0h-.729" transform="translate(-51.772 -95.461)" fill="#fff"/>
            <path id="Path_873793" data-name="Path 873793" d="M182.479,173.268c.832-.838,1.641-1.649,2.447-2.463.845-.854,1.672-1.727,2.537-2.56a1.749,1.749,0,0,1,2.975.749,1.72,1.72,0,0,1-.567,1.791c-.6.623-1.218,1.226-1.83,1.836q-2.065,2.059-4.133,4.116a1.958,1.958,0,0,1-1.446.705,1.532,1.532,0,0,1-1.1-.422c-.885-.87-1.784-1.729-2.644-2.624a1.709,1.709,0,0,1-.154-2.289,1.8,1.8,0,0,1,2.567-.175c.449.406.863.851,1.349,1.335" transform="translate(-120.187 -113.101)" fill="#fff"/>
          </g>
        </g>
      </g>
    </g>
    <g id="Group_1115379" data-name="Group 1115379" transform="translate(313 7638)">
      <g id="Group_1115374" data-name="Group 1115374" transform="translate(0)">
        <g id="Group_1113673" data-name="Group 1113673">
          <g id="Group_1113672" data-name="Group 1113672" clip-path="url(#clip-path-3)">
            <path id="Path_886855" data-name="Path 886855" d="M108.136,128.124C182.064,120.724,140.5-7.334,67.106.33,35.979,3.581,10.437,27.905,2.641,59.249-3.971,85.833,1.9,116.017,19.483,136.3c23.232,26.806,54.826-4.791,88.654-8.176" transform="translate(0 0)" fill="#1e2ad5"/>
          </g>
        </g>
      </g>
      <g id="Group_1115378" data-name="Group 1115378" transform="translate(105.166 103.253)">
        <path id="Path_886575" data-name="Path 886575" d="M2.29.08A1.986,1.986,0,0,0,.007,1.712,1.953,1.953,0,0,0,1.926,3.733,1.95,1.95,0,0,0,3.813,1.685C3.695.653,3.3-.283,2.29.08" transform="translate(23.932 0) rotate(19)" fill="#ffc811"/>
        <path id="Path_886576" data-name="Path 886576" d="M3.32.074C-.962-.86-.08,7.316.468,9.37a3.168,3.168,0,0,0,.461,1.1,2.273,2.273,0,0,0,2.435.665A3.75,3.75,0,0,0,5.37,9.471C6.922,6.992,7.279.939,3.32.074" transform="translate(14.127 7.011) rotate(19)" fill="#ffc811"/>
        <path id="Path_886577" data-name="Path 886577" d="M2.753,4.476c2.91-1.358.3-6.125-1.963-3.887A2.865,2.865,0,0,0,0,2.7,2.266,2.266,0,0,0,.25,3.734a2,2,0,0,0,2.5.742" transform="translate(27.809 7.122) rotate(19)" fill="#ffc811"/>
        <path id="Path_886578" data-name="Path 886578" d="M3.908,7.242C5.284,5.988,7.017,2.471,5.515.829,4.107-.71,1.821.079.974,1.685a10.409,10.409,0,0,0-.9,3.435A2.41,2.41,0,0,0,.248,6.83a2.535,2.535,0,0,0,.634.582,2.853,2.853,0,0,0,1.106.575,2.355,2.355,0,0,0,1.92-.745" transform="translate(20.552 17.202) rotate(19)" fill="#ffc811"/>
        <path id="Path_886579" data-name="Path 886579" d="M1.041,4.468a1.9,1.9,0,0,0,2.373-.212C5.467,2.205,1.868-1.761.3.875a2.874,2.874,0,0,0,0,2.556,2.443,2.443,0,0,0,.738,1.036" transform="translate(35.943 16.433) rotate(19)" fill="#ffc811"/>
        <path id="Path_886580" data-name="Path 886580" d="M.027.844A1.71,1.71,0,0,0,.468,2.233a1.905,1.905,0,0,0,.742.591,1.389,1.389,0,0,0,1.447-.28C4.335.9.475-1.2.027.844" transform="translate(35.168 24.584) rotate(19)" fill="#ffc811"/>
        <path id="Path_886581" data-name="Path 886581" d="M1,.782A3.84,3.84,0,0,0,.114,2.909,5.418,5.418,0,0,0,.274,5.766,2.672,2.672,0,0,0,2.47,7.5,2.826,2.826,0,0,0,5.1,5.529C5.837,3.492,3.729-2.03,1,.782" transform="translate(27.623 28.206) rotate(19)" fill="#ffc811"/>
        <path id="Path_886582" data-name="Path 886582" d="M.616,2.981a1.846,1.846,0,0,0,2.142.042C5.14,1.311,1.479-1.491.174.967A1.649,1.649,0,0,0,.616,2.981" transform="translate(9.058 20.647) rotate(19)" fill="#ffc811"/>
        <path id="Path_886583" data-name="Path 886583" d="M1.869.186A2.413,2.413,0,0,0,.693.945a3.126,3.126,0,0,0-.52,1.547A19.8,19.8,0,0,0,0,4.636,4.785,4.785,0,0,0,.351,6.861,2.074,2.074,0,0,0,2.174,8.089a2.438,2.438,0,0,0,1.78-1.118C5.3,5.132,6.036-1.155,1.869.186" transform="translate(2.634 25.84) rotate(19)" fill="#ffc811"/>
        <path id="Path_886584" data-name="Path 886584" d="M4.858.793C3.84.1,2.1-.416,1.136.471.278,1.259.084,2.967.019,4.031A5.608,5.608,0,0,0,.579,7.185,2.888,2.888,0,0,0,3.326,8.7a3.134,3.134,0,0,0,1.565-.759C7.063,6.108,7.328,2.478,4.858.793" transform="translate(13.396 33.351) rotate(19)" fill="#ffc811"/>
      </g>
    </g>
    <g id="Group_1115380" data-name="Group 1115380" transform="translate(337 7663)">
      <rect id="Rectangle_401104-2" data-name="Rectangle 401104" width="90.666" height="92.129" transform="translate(3.322 0)" fill="none"/>
      <g id="Mask_Group_1098697-2" data-name="Mask Group 1098697" transform="translate(0 0.001)" clip-path="url(#clip-path-4)">
        <g id="Group_1118059" data-name="Group 1118059" transform="translate(7 4.334)">
          <g id="Group_1118058" data-name="Group 1118058" clip-path="url(#clip-path-5)">
            <path id="Path_919195" data-name="Path 919195" d="M16.995,180.932c21.5-2.424,30.864,25.373,13.032,36.312-15.7,9.633-34.626-5.486-29.02-23.064,2.149-6.737,8.9-12.448,15.988-13.248M6.5,211.446V201.024a4.519,4.519,0,0,1,.677-.677H15.3l.406.406V206.3a1.145,1.145,0,0,0,.961-.257c1.008-.655,3.693-3.848,4.816-3.748l7.406,5.846,6.318-.07c2.041-4,1.93-8.565,1.071-12.868-1.219.471-1.638,1.66-2.962,2.315-1.118.552-2.808.529-3.262.8-.237.14-.531.879-.942,1.224A5.129,5.129,0,0,1,22.061,199c-1.638-1.928-.611-1.314-2.928-2.757a5.342,5.342,0,0,1,3.448-9.943,21.043,21.043,0,0,1,2.691,1.016l2.61-2.12c-16.845-8.371-33.37,11.53-21.384,26.254M33.2,194.571c1.936-1.943,1.109-3.725-.457-5.45-1.316-1.449-2.12-2.038-4.247-1.286-1.532.541-2.024,2.516-2.7,2.723-1.431.436-1.742-1.059-2.687-1.546-3.851-1.984-6.112,3.969-2.272,5.249.586.2,1.724.073,2.109.463.59.6.053,2.923,2.149,3.4,2.758.627,2.662-1.795,3.6-2.245,1.174-.566,2.874.335,4.512-1.308M13.536,216.319V203.19l-.406-.406h-4.2v11.369c.726.242,4.117,2.674,4.6,2.166m2.436-6.767v7.85c6.653,1.247,13.707-1.175,17.595-6.764-1.845-.319-4.087.209-5.944-.42-1.246-.422-5.421-4.852-6.137-4.979Z" transform="translate(0 -131.846)" fill="#fff"/>
            <path id="Path_919196" data-name="Path 919196" d="M215.348,203.357a2.445,2.445,0,0,1,.351,1.41c.464,5.364-.379,11.372,0,16.808.031.916-.885,1.256-1.555,1.693a140.216,140.216,0,0,1-12.895,7.408,4.5,4.5,0,0,1-1.919.763l-15.872-9.118a2.877,2.877,0,0,1-.266-1.289,115.331,115.331,0,0,1,0-16.259,2.156,2.156,0,0,1,.308-1.046l16.079-9.258Zm-2.153,1.612-13.662-7.863-13.848,7.851c.368,2.375-.685,14.7.089,15.93a2.854,2.854,0,0,0,.944.54c1.059-3.062,4.288-4.985,7.313-5.688.173-.23-1.265-1.924-1.489-2.432a7.625,7.625,0,0,1,10.214-9.943c4.875,2.286,5.551,8.49,2.1,12.376,3.482.69,5.82,2.812,7.714,5.683l.69-1.2Zm-17.444,1.663c-4.828,5.187,3.32,12.03,7.629,6.953,4.4-5.182-3.3-11.6-7.629-6.953m13.074,13.808a8.4,8.4,0,0,0-4.4-2.232c-2.23-.266-9.779-.284-11.664.457-1.119.44-4.93,3.222-3.43,4.351l10.253,5.7,10.691-5.942a11.073,11.073,0,0,0-1.45-2.336" transform="translate(-133.396 -141.826)" fill="#fff"/>
            <path id="Path_919197" data-name="Path 919197" d="M210.485,8.6c1.13,1.581,2.974,2.657,4.126,4.941,6.17,12.238-4.345,26.327-17.8,23.759a16.506,16.506,0,0,1-9.675-26.582A31.451,31.451,0,0,0,189.4,8.387c.541-.917.8-2.34,1.455-3.418a10.781,10.781,0,0,1,17.52-.9c1.126,1.446,1.471,3.64,2.105,4.528m-10.9,18.215c.462.316,1.546-1.418,1.839-1.808,2.262-3,6.7-10.378,6.825-14.041a8.364,8.364,0,0,0-13.519-6.728c-7.648,6.028,1.327,16.751,4.854,22.577m-1.9,1.355c-3.34-4.823-7-9.856-8.252-15.7-.333-.447-.4-.126-.677.144a14.368,14.368,0,0,0-2.178,4.048A14.023,14.023,0,0,0,204.118,34.47c9.335-2.758,13.142-15.2,6.288-22.273a25.312,25.312,0,0,1-2.84,7.585l-5.284,8.386h3.925c.457,0,1.139,1.5.613,2.1l-.668.269c-3.772-.166-8.173.455-11.871.084-2.445-.245-1.327-2.452-.525-2.452Z" transform="translate(-133.796 0)" fill="#fff"/>
            <path id="Path_919198" data-name="Path 919198" d="M26.592,10.25l1.625.159,15.094,9,.006,18.405c-4.6,2.629-9.064,5.712-13.761,8.166-1,.523-2,1.431-3.146.886-4.1-2.538-8.43-4.713-12.547-7.212-1-.608-2.761-1.3-2.91-2.5l.153-17.74Zm5.489,5.1c-1.509-.268-3.779-2.634-5.208-2.4l-13.48,7.715.145,15.792L27.093,44.3l13.371-7.453.545-.808.017-15.378L34.8,17.085,21.645,24.8c-.927.9.016,3.379-.532,4.61-.379.85-1.72,1.132-2.115.215-.318-.738-.335-5.483.072-6.048l12.842-7.673Z" transform="translate(-7.989 -7.475)" fill="#fff"/>
            <path id="Path_919199" data-name="Path 919199" d="M131.225,138.9c5.891-1,10.216,3.3,9.21,9.21-.138.811-1.128,2.152-.983,2.715.306,1.186,6.341,4.7,3.476,6.012a1.037,1.037,0,0,1-1.07,0c-.949-.444-3.432-3.949-4.258-4.162-3.212,1.335-5.953,2-8.993-.19-5.3-3.822-3.543-12.541,2.618-13.587m.268,2.434a6.088,6.088,0,0,0-3.056,2.628,5.1,5.1,0,0,0,4.618,7.442c7.258,0,6.591-11.74-1.562-10.071" transform="translate(-91.503 -101.198)" fill="#fff"/>
            <path id="Path_919200" data-name="Path 919200" d="M240,144.089l1.385-.545a1.507,1.507,0,0,1,.993,1.145,63.132,63.132,0,0,1,.071,9.7c-.256,2.837-2.449,1.567-2.449,1.07Z" transform="translate(-175.036 -104.687)" fill="#fff"/>
            <path id="Path_919201" data-name="Path 919201" d="M145.325,75.243h-11.1c-.26-.974-.684-1.915.528-2.314a65.971,65.971,0,0,1,9.834-.062c1.4.3,1.056,1.31.737,2.376" transform="translate(-97.682 -53.031)" fill="#fff"/>
            <path id="Path_919202" data-name="Path 919202" d="M152.277,258.208c.555-.554,6.1-.585,6.57.2a1.388,1.388,0,0,1-.25,1.655c-.427.337-4.946.381-5.7.237a1.239,1.239,0,0,1-.618-2.093" transform="translate(-110.793 -188.018)" fill="#fff"/>
            <path id="Path_919203" data-name="Path 919203" d="M66.7,151.642a1.6,1.6,0,0,1,.962-.69c.346-.143,1.2.492,1.2.69v5.414c-.32.681-2.166.475-2.166,0,.258-1.435-.35-4.174,0-5.414" transform="translate(-48.565 -110.075)" fill="#fff"/>
            <path id="Path_919204" data-name="Path 919204" d="M36.518,220.156c3.9-.527,5.785,5.094,2.2,6.821-5.231,2.52-7.6-6.093-2.2-6.821m1.348,2.722c-1.108-1.109-2.868.651-1.759,1.759s2.868-.651,1.759-1.759" transform="translate(-24.398 -160.536)" fill="#fff"/>
            <path id="Path_919205" data-name="Path 919205" d="M66,284.494c.268-.883,4.924-.835,5.813-.67a1.568,1.568,0,0,1,1.239,1.468c.13,1,.316,5.563-.961,5.563H66.681a4.517,4.517,0,0,1-.677-.677Zm4.6,1.758H68.439v2.168h2.168Z" transform="translate(-48.137 -206.925)" fill="#fff"/>
            <path id="Path_919206" data-name="Path 919206" d="M222.435,17.52a6.594,6.594,0,0,1,10.2,1.383,6.452,6.452,0,0,1-9.756,8.132,6.569,6.569,0,0,1-.442-9.515m1.619,7.391c3.415,3.393,9.059-.827,6.251-5.033a4.139,4.139,0,0,0-6.346-.428,4.519,4.519,0,0,0,.094,5.461" transform="translate(-160.889 -11.453)" fill="#fff"/>
            <path id="Path_919207" data-name="Path 919207" d="M25.756,95.151c1.308-.233,7.086,2.764,4.346,4.1-.841.411-3.447-1.239-4.239-1.854-.977-.76-1.165-1.382-.107-2.247" transform="translate(-18.264 -69.385)" fill="#fff"/>
          </g>
        </g>
      </g>
    </g>
  </g>
</svg>
