<svg xmlns="http://www.w3.org/2000/svg" xmlns:xlink="http://www.w3.org/1999/xlink" width="147" height="147" viewBox="0 0 147 147">
  <defs>
    <clipPath id="clip-path">
      <rect id="Rectangle_401492" data-name="Rectangle 401492" width="98.671" height="98.672" transform="translate(0 0)" fill="#fff" stroke="#707070" stroke-width="1"/>
    </clipPath>
    <clipPath id="clip-path-2">
      <rect id="Rectangle_401491" data-name="Rectangle 401491" width="78.376" height="90.537" fill="#fff"/>
    </clipPath>
    <clipPath id="clip-path-3">
      <rect id="Rectangle_406251" data-name="Rectangle 406251" width="147" height="147" fill="#1e2ad5"/>
    </clipPath>
    <clipPath id="clip-path-4">
      <rect id="Rectangle_401492-2" data-name="Rectangle 401492" width="97.31" height="97.311" transform="translate(0 0)" fill="#fff" stroke="#707070" stroke-width="1"/>
    </clipPath>
    <clipPath id="clip-path-5">
      <rect id="Rectangle_408414" data-name="Rectangle 408414" width="92.85" height="92.639" fill="#fff"/>
    </clipPath>
  </defs>
  <g id="Group_1116344" data-name="Group 1116344" transform="translate(-313 -7638)">
    <g id="Group_1115376" data-name="Group 1115376" transform="translate(333.92 7661.471)">
      <rect id="Rectangle_401104" data-name="Rectangle 401104" width="91.934" height="93.418" transform="translate(3.368 0)" fill="none"/>
      <g id="Mask_Group_1098697" data-name="Mask Group 1098697" transform="translate(0 0.001)" clip-path="url(#clip-path)">
        <g id="Group_1100236" data-name="Group 1100236" transform="translate(13.419 4.025)">
          <g id="Group_1100235" data-name="Group 1100235" clip-path="url(#clip-path-2)">
            <path id="Path_873786" data-name="Path 873786" d="M69.727,72.82c.224,0,.448,0,.671,0,1.365-.008,2.73-.035,4.094-.013a2.755,2.755,0,0,1,1.17.247,1.7,1.7,0,0,1,.917,1.672,15.265,15.265,0,0,1-3.1,9.247A15.708,15.708,0,0,1,63.418,90.25a16.3,16.3,0,0,1-2.98.273q-25.05.024-50.1,0a9.768,9.768,0,0,1-9.32-5.792A9.991,9.991,0,0,1,.091,80.9C.03,80.04,0,79.175,0,78.311Q0,42.314.02,6.316A8.176,8.176,0,0,1,.5,3.423,5.231,5.231,0,0,1,5.654,0c.068,0,.135,0,.2,0Q33.036,0,60.214,0A5.6,5.6,0,0,1,64.127,1.39,5.293,5.293,0,0,1,65.9,5.214c.018.351.016.7.016,1.054q0,18.5,0,36.991a.807.807,0,0,0,.293.555,23.944,23.944,0,0,0,10.09,4.454,4.01,4.01,0,0,1,.892.256,1.523,1.523,0,0,1,.941,1.235,27.545,27.545,0,0,1,.235,3.11,25.9,25.9,0,0,1-6.743,17.879c-.61.681-1.284,1.3-1.928,1.954.007.04.015.079.022.119M49.939,55.029c0-1.087-.03-2.113.01-3.137a14,14,0,0,1,.245-2.209,1.6,1.6,0,0,1,1.411-1.324c.479-.08.955-.174,1.433-.261a19.736,19.736,0,0,0,9.1-4.256.917.917,0,0,0,.265-.617c.023-.716-.016-1.432-.016-2.149q.011-17.724.034-35.448A1.869,1.869,0,0,0,60.37,3.556c-3.35.05-6.7.016-10.052.016H5.447A1.644,1.644,0,0,0,3.616,5.119a5.3,5.3,0,0,0-.043.848q0,37.071.005,74.141a10.708,10.708,0,0,0,.163,1.812A6.252,6.252,0,0,0,9.02,86.93a6.136,6.136,0,0,0,6.754-4.068,9.362,9.362,0,0,0,.341-3.248c-.007-1.635-.01-3.271.015-4.906a1.765,1.765,0,0,1,1.753-1.891,5.057,5.057,0,0,1,.566-.027q19.74.01,39.479.021c.231,0,.462-.032.793-.057A26.374,26.374,0,0,1,50.54,58.572c-.136-.007-.255-.02-.374-.02q-11.309,0-22.617,0a8.357,8.357,0,0,1-.89-.037,1.8,1.8,0,0,1-1.667-1.727,1.844,1.844,0,0,1,1.662-1.708,10.354,10.354,0,0,1,1.092-.052q10.437,0,20.875,0h1.319M72.963,76.285h-.778q-11.064,0-22.128-.006-15,0-29.991,0c-.356,0-.464.1-.458.458.021,1.365.028,2.731.006,4.1A9.462,9.462,0,0,1,17.5,86.785a.745.745,0,0,0-.066.178h.477q21.581,0,43.162,0a8.74,8.74,0,0,0,1.534-.1,12.381,12.381,0,0,0,9.325-7.022,10.726,10.726,0,0,0,1.034-3.548M53.535,51.561a23.945,23.945,0,0,0,.426,6.347,22.683,22.683,0,0,0,9.655,14.262c.539.37.549.377,1.093,0C71.785,67.265,75.1,60.478,74.848,51.9c-.009-.306-.112-.408-.4-.477a27.1,27.1,0,0,1-8.017-3.281c-.765-.472-1.508-.982-2.259-1.474a24,24,0,0,1-10.638,4.895" transform="translate(0 0)" fill="#fff"/>
            <path id="Path_873787" data-name="Path 873787" d="M51.616,50.288H30.057a5.643,5.643,0,0,1-.647-.023A1.8,1.8,0,0,1,27.63,48.3q-.011-9.57,0-19.14A1.821,1.821,0,0,1,29.538,27.2c.391-.023.783-.006,1.175-.006q21.276,0,42.552,0a4.368,4.368,0,0,1,.964.094A1.907,1.907,0,0,1,75.7,29.061c.009.134.005.27.005.405q0,9.266,0,18.532a1.985,1.985,0,0,1-2.247,2.283c-4.269.016-8.537.008-12.806.008H51.616m20.5-19.6H69.826q-19.111,0-38.221-.005c-.393,0-.494.1-.493.495q.021,7.6,0,15.209c0,.31.085.383.385.382,2.445-.014,4.891-.012,7.336-.013l32.831-.008c.144,0,.288-.012.451-.02Z" transform="translate(-18.632 -18.335)" fill="#fff"/>
            <path id="Path_873788" data-name="Path 873788" d="M40.024,175.228c0,1.338-.057,2.678.015,4.012a2.036,2.036,0,0,1-2.275,2.261c-1.62,0-3.24.008-4.86,0-1.188-.008-2.376-.019-3.561-.076a1.727,1.727,0,0,1-1.717-1.792q-.03-4.4-.009-8.794a1.687,1.687,0,0,1,1.676-1.776c.416-.038.836-.026,1.255-.027,2.362,0,4.725-.007,7.088,0a4.263,4.263,0,0,1,1.119.131,1.745,1.745,0,0,1,1.27,1.725q0,2.168,0,4.336m-3.581-2.668c-1.693,0-3.341.006-4.988-.005-.3,0-.357.111-.354.384.017,1.555.014,3.11.021,4.664a2.724,2.724,0,0,0,.032.3h5.29Z" transform="translate(-18.62 -114.004)" fill="#fff"/>
            <path id="Path_873789" data-name="Path 873789" d="M40.036,120.769c0,1.446,0,2.892,0,4.338a1.742,1.742,0,0,1-1.822,1.843q-4.335,0-8.67,0a1.739,1.739,0,0,1-1.909-1.877q-.021-4.3,0-8.594a1.757,1.757,0,0,1,1.9-1.859c2.836,0,5.672,0,8.508-.007a1.842,1.842,0,0,1,1.795,1.013,1.588,1.588,0,0,1,.185.684c.016,1.486.008,2.973.008,4.459m-3.586-2.556a1.463,1.463,0,0,0-.17-.022c-1.619-.008-3.238-.008-4.857-.028-.313,0-.306.162-.3.383.008,1.431.01,2.862.014,4.293,0,.17,0,.341,0,.512H36.45Z" transform="translate(-18.632 -77.302)" fill="#fff"/>
            <path id="Path_873790" data-name="Path 873790" d="M91.834,114.622q6.524,0,13.048,0a3.457,3.457,0,0,1,.761.08,1.708,1.708,0,0,1,.138,3.27,4.613,4.613,0,0,1-1.27.211q-12.42.018-24.839,0a7.062,7.062,0,0,1-1.446-.14,1.723,1.723,0,0,1,.4-3.423c2.4-.005,4.808,0,7.212,0h6Z" transform="translate(-51.747 -77.309)" fill="#fff"/>
            <path id="Path_873791" data-name="Path 873791" d="M86.526,196.366q3.931,0,7.862,0a1.77,1.77,0,0,1,1.871,1.957,1.706,1.706,0,0,1-1.228,1.457,3.76,3.76,0,0,1-1,.149q-7.112.014-14.224,0c-.472,0-.945-.03-1.415-.077a1.9,1.9,0,0,1-1.675-1.79,1.922,1.922,0,0,1,1.862-1.7q3.971-.006,7.943,0" transform="translate(-51.746 -132.442)" fill="#fff"/>
            <path id="Path_873792" data-name="Path 873792" d="M86.552,145.111q-3.97,0-7.94,0a1.746,1.746,0,0,1-1.582-.878,1.535,1.535,0,0,1,.485-2.2,3.193,3.193,0,0,1,1.511-.478c5-.035,9.992-.025,14.989-.012a3.463,3.463,0,0,1,1.065.209,1.71,1.71,0,0,1,1.192,2,1.735,1.735,0,0,1-1.74,1.355c-2.417.007-4.834,0-7.251,0h-.729" transform="translate(-51.772 -95.461)" fill="#fff"/>
            <path id="Path_873793" data-name="Path 873793" d="M182.479,173.268c.832-.838,1.641-1.649,2.447-2.463.845-.854,1.672-1.727,2.537-2.56a1.749,1.749,0,0,1,2.975.749,1.72,1.72,0,0,1-.567,1.791c-.6.623-1.218,1.226-1.83,1.836q-2.065,2.059-4.133,4.116a1.958,1.958,0,0,1-1.446.705,1.532,1.532,0,0,1-1.1-.422c-.885-.87-1.784-1.729-2.644-2.624a1.709,1.709,0,0,1-.154-2.289,1.8,1.8,0,0,1,2.567-.175c.449.406.863.851,1.349,1.335" transform="translate(-120.187 -113.101)" fill="#fff"/>
          </g>
        </g>
      </g>
    </g>
    <g id="Group_1115379" data-name="Group 1115379" transform="translate(313 7638)">
      <g id="Group_1115374" data-name="Group 1115374" transform="translate(0)">
        <g id="Group_1113673" data-name="Group 1113673">
          <g id="Group_1113672" data-name="Group 1113672" clip-path="url(#clip-path-3)">
            <path id="Path_886855" data-name="Path 886855" d="M108.136,128.124C182.064,120.724,140.5-7.334,67.106.33,35.979,3.581,10.437,27.905,2.641,59.249-3.971,85.833,1.9,116.017,19.483,136.3c23.232,26.806,54.826-4.791,88.654-8.176" transform="translate(0 0)" fill="#1e2ad5"/>
          </g>
        </g>
      </g>
      <g id="Group_1115378" data-name="Group 1115378" transform="translate(105.166 103.253)">
        <path id="Path_886575" data-name="Path 886575" d="M2.29.08A1.986,1.986,0,0,0,.007,1.712,1.953,1.953,0,0,0,1.926,3.733,1.95,1.95,0,0,0,3.813,1.685C3.695.653,3.3-.283,2.29.08" transform="translate(23.932 0) rotate(19)" fill="#ffc811"/>
        <path id="Path_886576" data-name="Path 886576" d="M3.32.074C-.962-.86-.08,7.316.468,9.37a3.168,3.168,0,0,0,.461,1.1,2.273,2.273,0,0,0,2.435.665A3.75,3.75,0,0,0,5.37,9.471C6.922,6.992,7.279.939,3.32.074" transform="translate(14.127 7.011) rotate(19)" fill="#ffc811"/>
        <path id="Path_886577" data-name="Path 886577" d="M2.753,4.476c2.91-1.358.3-6.125-1.963-3.887A2.865,2.865,0,0,0,0,2.7,2.266,2.266,0,0,0,.25,3.734a2,2,0,0,0,2.5.742" transform="translate(27.809 7.122) rotate(19)" fill="#ffc811"/>
        <path id="Path_886578" data-name="Path 886578" d="M3.908,7.242C5.284,5.988,7.017,2.471,5.515.829,4.107-.71,1.821.079.974,1.685a10.409,10.409,0,0,0-.9,3.435A2.41,2.41,0,0,0,.248,6.83a2.535,2.535,0,0,0,.634.582,2.853,2.853,0,0,0,1.106.575,2.355,2.355,0,0,0,1.92-.745" transform="translate(20.552 17.202) rotate(19)" fill="#ffc811"/>
        <path id="Path_886579" data-name="Path 886579" d="M1.041,4.468a1.9,1.9,0,0,0,2.373-.212C5.467,2.205,1.868-1.761.3.875a2.874,2.874,0,0,0,0,2.556,2.443,2.443,0,0,0,.738,1.036" transform="translate(35.943 16.433) rotate(19)" fill="#ffc811"/>
        <path id="Path_886580" data-name="Path 886580" d="M.027.844A1.71,1.71,0,0,0,.468,2.233a1.905,1.905,0,0,0,.742.591,1.389,1.389,0,0,0,1.447-.28C4.335.9.475-1.2.027.844" transform="translate(35.168 24.584) rotate(19)" fill="#ffc811"/>
        <path id="Path_886581" data-name="Path 886581" d="M1,.782A3.84,3.84,0,0,0,.114,2.909,5.418,5.418,0,0,0,.274,5.766,2.672,2.672,0,0,0,2.47,7.5,2.826,2.826,0,0,0,5.1,5.529C5.837,3.492,3.729-2.03,1,.782" transform="translate(27.623 28.206) rotate(19)" fill="#ffc811"/>
        <path id="Path_886582" data-name="Path 886582" d="M.616,2.981a1.846,1.846,0,0,0,2.142.042C5.14,1.311,1.479-1.491.174.967A1.649,1.649,0,0,0,.616,2.981" transform="translate(9.058 20.647) rotate(19)" fill="#ffc811"/>
        <path id="Path_886583" data-name="Path 886583" d="M1.869.186A2.413,2.413,0,0,0,.693.945a3.126,3.126,0,0,0-.52,1.547A19.8,19.8,0,0,0,0,4.636,4.785,4.785,0,0,0,.351,6.861,2.074,2.074,0,0,0,2.174,8.089a2.438,2.438,0,0,0,1.78-1.118C5.3,5.132,6.036-1.155,1.869.186" transform="translate(2.634 25.84) rotate(19)" fill="#ffc811"/>
        <path id="Path_886584" data-name="Path 886584" d="M4.858.793C3.84.1,2.1-.416,1.136.471.278,1.259.084,2.967.019,4.031A5.608,5.608,0,0,0,.579,7.185,2.888,2.888,0,0,0,3.326,8.7a3.134,3.134,0,0,0,1.565-.759C7.063,6.108,7.328,2.478,4.858.793" transform="translate(13.396 33.351) rotate(19)" fill="#ffc811"/>
      </g>
    </g>
    <g id="Group_1115380" data-name="Group 1115380" transform="translate(337 7663)">
      <rect id="Rectangle_401104-2" data-name="Rectangle 401104" width="90.666" height="92.129" transform="translate(3.322 0)" fill="none"/>
      <g id="Mask_Group_1098697-2" data-name="Mask Group 1098697" transform="translate(0 0.001)" clip-path="url(#clip-path-4)">
        <g id="Group_1118063" data-name="Group 1118063" transform="translate(2.323 2.334)">
          <g id="Group_1118062" data-name="Group 1118062" clip-path="url(#clip-path-5)">
            <path id="Path_919217" data-name="Path 919217" d="M71.041,46.909c-18.272-1.69-19.327-27.267-1.586-30.841,3.682-21.565,33.894-21.353,37.4.209,12.791,2.146,17.323,18.488,7.272,26.915-2.141,1.8-6.245,3.717-9.049,3.717H99.1V89.861a2.841,2.841,0,0,1-4.389,2.261,3.792,3.792,0,0,1-1.2-1.729V84.941H82.61v5.718c0,.892-1.689,1.937-2.548,1.979-.9.044-2.771-1.2-2.771-1.979V46.909c-2.022-.136-4.255.184-6.25,0m-.532-5.585c2.089.26,4.639-.191,6.782,0V36.138c0-.978,1.849-1.78,2.795-1.752.857.026,2.524.906,2.524,1.752v5.186h10.9V36.4a8.823,8.823,0,0,1,.686-1.176c1.614-1.822,4.9-.437,4.9,1.708v4.388h6.782c.885,0,3.572-1.415,4.365-2.018,7.828-5.949,3.081-18.339-6.481-17.933-2.05.087-4.727,2.133-6.445.187-2.365-2.678,1.315-5.225,3.907-5.239C98.36,1.78,77.935,1.784,74.9,16.321c1.906.285,4.963,1.04,4.733,3.529-.4,4.345-5.019,1.6-7.27,1.523-12.633-.407-13.725,18.473-1.85,19.95m23.005,5.585H82.61V54.09h10.9Zm0,12.5H82.61V66.59h10.9Zm0,12.766H82.61v7.181h10.9Z" transform="translate(-41.639 0)" fill="#fff"/>
            <path id="Path_919218" data-name="Path 919218" d="M256.491,240.337c8.781-.256,12.849,10.968,5.355,15.967-2.786,1.858-11.857,1.649-15.391,1.385a11.41,11.41,0,0,1-6.509-20.359c5.112-4.073,13.359-2.782,16.545,3.007m3.057,10.877a3.144,3.144,0,0,0-.173-4.318c-1.964-2.1-4,.24-5.955-1.226-1.519-1.139-1.053-3.491-4.023-4.754-7.78-3.309-11.81,8.468-4.545,10.928,2.155.73,11.387.867,13.444.111a5.435,5.435,0,0,0,1.252-.742" transform="translate(-172.915 -172.471)" fill="#fff"/>
            <path id="Path_919219" data-name="Path 919219" d="M2.5,214.291a8.642,8.642,0,0,1,3.683-14.348c.711-.213,2.834-.366,3.084-.509.093-.053.493-.962.742-1.252a11.392,11.392,0,1,1,13.951,17.409c-3.24,1.586-12.6,1.562-16.364,1.183a9.751,9.751,0,0,1-5.1-2.484m15.261-14.735c-3.491.591-3.433,2.748-5.022,4.816-1.373,1.786-2.674.614-4.337.693-3.747.178-4.187,5.888.254,6.4,2.446.279,10.1.246,12.244-.523,6.748-2.414,3.87-12.567-3.139-11.381" transform="translate(0 -142.475)" fill="#fff"/>
            <path id="Path_919220" data-name="Path 919220" d="M296.16,167.685a3.465,3.465,0,0,1,.892,2.832c4.735-.33,4.678,5.943,0,5.587.369,4.706-5.874,4.718-5.594.006-4.608.148-4.637-5.734,0-5.6-.382-2.6,2.683-4.751,4.7-2.826" transform="translate(-211.399 -122.545)" fill="#fff"/>
            <path id="Path_919221" data-name="Path 919221" d="M29.963,23.66c4.8-.28,4.786,5.874,0,5.588.367,2.514-1.933,4.468-4.243,3.044-1.469-.906-1.09-2.777-1.378-3.011a8.509,8.509,0,0,1-2.071-.456c-2.965-1.692-.769-5.831,2.373-5.162-.708-4.66,5.821-4.733,5.319,0" transform="translate(-15.32 -14.784)" fill="#fff"/>
          </g>
        </g>
      </g>
    </g>
  </g>
</svg>
