<svg xmlns="http://www.w3.org/2000/svg" xmlns:xlink="http://www.w3.org/1999/xlink" width="104.668" height="126" viewBox="0 0 104.668 126">
  <defs>
    <clipPath id="clip-path">
      <rect id="Rectangle_400938" data-name="Rectangle 400938" width="85" height="85" transform="translate(-0.004)" fill="none"/>
    </clipPath>
    <clipPath id="clip-path-2">
      <rect id="Rectangle_401492" data-name="Rectangle 401492" width="52.101" height="52.101" transform="translate(-0.296 -0.797)" fill="#fffceb" stroke="#707070" stroke-width="1"/>
    </clipPath>
    <clipPath id="clip-path-3">
      <rect id="Rectangle_408545" data-name="Rectangle 408545" width="50.002" height="46.293" fill="#fffceb"/>
    </clipPath>
  </defs>
  <g id="Group_1118264" data-name="Group 1118264" transform="translate(-810.998 -5333)">
    <rect id="Rectangle_407421" data-name="Rectangle 407421" width="104.668" height="126" transform="translate(810.998 5333)" fill="#ffc811"/>
    <g id="Group_1117150" data-name="Group 1117150" transform="translate(428.002 2604.992)">
      <g id="Group_1111452" data-name="Group 1111452" transform="translate(393 2749.008)">
        <g id="Group_1113606" data-name="Group 1113606" transform="translate(6.891 79.253) rotate(-90)">
          <path id="Union_11" data-name="Union 11" d="M35.5,70C15.9,70,0,54.333,0,35V0H35.5C55.107,0,71,15.672,71,35V70Z" transform="translate(0.254 0.105)" fill="#685700" stroke="rgba(0,0,0,0)" stroke-miterlimit="10" stroke-width="1"/>
          <g id="Group_1110743" data-name="Group 1110743" transform="translate(61.936 10.111) rotate(90)">
            <rect id="Rectangle_401104" data-name="Rectangle 401104" width="48.544" height="49.327" transform="translate(1.704 0.203)" fill="none"/>
            <g id="Mask_Group_1098697" data-name="Mask Group 1098697" transform="translate(0 0)" clip-path="url(#clip-path-2)">
              <g id="Group_1118271" data-name="Group 1118271" transform="translate(2.704 6.203)">
                <g id="Group_1118270" data-name="Group 1118270" transform="translate(-2.002 -3.167)" clip-path="url(#clip-path-3)">
                  <path id="Path_919991" data-name="Path 919991" d="M37.1,2.23c1.748-.621,3.4-1.046,4.769.629,1.682,2.059,1.077,5.492-.383,7.518-.462.641-2.625,3.038-3.092,1.364-.293-1.05.778-1.265,1.335-1.866C42.1,7.314,41.8,1.515,37.5,4.182a26.257,26.257,0,0,1-1.567,9.954c2.69.1,4.22.93,4,4.036-.066.933-.177,2.11-1.326,1.883-1.266-.774.459-2.946-.758-3.771a8.346,8.346,0,0,0-2.012-.446,70.1,70.1,0,0,0-18.275-.481,30.385,30.385,0,0,0-5.224.833,1.378,1.378,0,0,0-.7,1.2c0,.646.982,5.076,1.365,5.138a42.312,42.312,0,0,1,5.986-.471,121.1,121.1,0,0,1,19.016.459c1.115.125,3.639.328,4.512.83A3.182,3.182,0,0,1,43.832,25c.469,1.691-.867,5.577-1.621,7.177-.267.565-.556,1.337-1.15,1.517L2.2,33.872c-1.193,1.238.113,1.819,1.045,2.384,5.32,3.23,11.248,4.308,17.318,4.551a93.114,93.114,0,0,0,13.73-.312,33.309,33.309,0,0,0,13.734-5.019c1.357-3.009-3.7-.726-3.942-2.378-.107-.745.125-1.061.786-1.135,1.42-.159,3.764-.239,4.626,1.168,1.956,3.195-2.246,4.957-4.357,5.972-8.068,3.877-17.7,3.944-26.428,3.372-1.881-.123-3.771-.446-5.649-.609.058,1.084-.364,2.453.964,2.707l22.246.177c.335.366.395,1.335-.148,1.505l-22.281.037c-2.4-.317-2.671-2.74-2.5-4.876A33.006,33.006,0,0,1,2.1,37.628c-2.679-1.678-2.98-4.517.18-5.651l38.175-.151c.585-1.4,1.957-4.375,1.87-5.861-.079-1.355-1.606-1.3-2.616-1.449-8.74-1.308-21.743-1.455-30.416.155-.84.156-1.61.213-1.588,1.369.015.773,1.309,3.98-.656,3.267-.533-.193-.918-2.153-.977-2.769-.338-3.533,2.623-3.7,5.132-3.871-.922-2.765-2.607-7.4,1.258-8.333a37.855,37.855,0,0,1,4.248-.654,71.217,71.217,0,0,1,17.276.135c.528-.158,1.506-4.247,1.628-4.977.2-1.176.711-5.3-.107-6.051a2.727,2.727,0,0,0-1.087-.365c-4.861-1-12.613-.791-17.566-.17-.553.069-2.1.209-2.429.611-.721.881-.211,4.744-.036,5.975.107.747.833,2.349.165,2.848-.631.471-1.166.037-1.393-.624a25.014,25.014,0,0,1-.636-8.091A3.115,3.115,0,0,1,14.742.766c3.634-.924,10.569-.824,14.41-.654,1.483.066,6.153.378,7.2,1.159a2.253,2.253,0,0,1,.746.959" transform="translate(0 0)" fill="#fffceb"/>
                  <path id="Path_919992" data-name="Path 919992" d="M118.1,47.643c.606-.191.979.079,1.149.693a26.567,26.567,0,0,1,.462,2.69c-.1,1.119-1.335,1.123-1.733-.268-.211-.737-.783-2.828.123-3.115" transform="translate(-100.792 -40.332)" fill="#fffceb"/>
                  <path id="Path_919993" data-name="Path 919993" d="M117.713,29.3c-.508.544-1.426.177-1.4-.8.046-1.835,2.464-.338,1.4.8" transform="translate(-99.682 -23.433)" fill="#fffceb"/>
                </g>
              </g>
            </g>
          </g>
        </g>
      </g>
      <g id="Group_1115343" data-name="Group 1115343" transform="translate(456.03 2805.465)">
        <path id="Path_886575" data-name="Path 886575" d="M1.139.04A.987.987,0,0,0,0,.851.971.971,0,0,0,.958,1.857.97.97,0,0,0,1.9.838c-.059-.513-.255-.979-.758-.8" transform="translate(9.053 0) rotate(19)" fill="#ffefdb"/>
        <path id="Path_886576" data-name="Path 886576" d="M1.651.037C-.478-.428-.04,3.638.233,4.66a1.575,1.575,0,0,0,.229.547,1.13,1.13,0,0,0,1.211.331,1.865,1.865,0,0,0,1-.828C3.443,3.477,3.62.467,1.651.037" transform="translate(5.496 3.487) rotate(19)" fill="#ffefdb"/>
        <path id="Path_886577" data-name="Path 886577" d="M1.369,2.226C2.816,1.551,1.518-.82.393.293A1.425,1.425,0,0,0,0,1.34a1.127,1.127,0,0,0,.124.517.993.993,0,0,0,1.245.369" transform="translate(10.483 3.542) rotate(19)" fill="#ffefdb"/>
        <path id="Path_886578" data-name="Path 886578" d="M1.944,3.6c.684-.624,1.546-2.373.8-3.19A1.406,1.406,0,0,0,.484.838a5.177,5.177,0,0,0-.45,1.708A1.2,1.2,0,0,0,.123,3.4a1.261,1.261,0,0,0,.316.289,1.419,1.419,0,0,0,.55.286,1.171,1.171,0,0,0,.955-.37" transform="translate(7.717 8.555) rotate(19)" fill="#ffefdb"/>
        <path id="Path_886579" data-name="Path 886579" d="M.518,2.222A.944.944,0,0,0,1.7,2.116C2.719,1.1.929-.876.149.435a1.429,1.429,0,0,0,0,1.271,1.215,1.215,0,0,0,.367.515" transform="translate(13.495 8.172) rotate(19)" fill="#ffefdb"/>
        <path id="Path_886580" data-name="Path 886580" d="M.013.42a.85.85,0,0,0,.219.691A.947.947,0,0,0,.6,1.4a.691.691,0,0,0,.72-.139C2.156.45.236-.6.013.42" transform="translate(13.11 12.226) rotate(19)" fill="#ffefdb"/>
        <path id="Path_886581" data-name="Path 886581" d="M.5.389A1.91,1.91,0,0,0,.057,1.447a2.694,2.694,0,0,0,.08,1.421,1.329,1.329,0,0,0,1.092.864,1.405,1.405,0,0,0,1.31-.982C2.9,1.737,1.854-1.01.5.389" transform="translate(10.328 14.028) rotate(19)" fill="#ffefdb"/>
        <path id="Path_886582" data-name="Path 886582" d="M.306,1.482A.918.918,0,0,0,1.371,1.5C2.556.652.735-.742.086.481a.82.82,0,0,0,.22,1" transform="translate(3.516 10.268) rotate(19)" fill="#ffefdb"/>
        <path id="Path_886583" data-name="Path 886583" d="M.93.092A1.2,1.2,0,0,0,.345.47a1.555,1.555,0,0,0-.259.769A9.845,9.845,0,0,0,0,2.305,2.38,2.38,0,0,0,.175,3.412a1.031,1.031,0,0,0,.907.61,1.212,1.212,0,0,0,.885-.556C2.638,2.552,3-.574.93.092" transform="translate(1.31 12.851) rotate(19)" fill="#ffefdb"/>
        <path id="Path_886584" data-name="Path 886584" d="M2.416.395C1.91.049,1.045-.207.565.234A2.827,2.827,0,0,0,.01,2,2.789,2.789,0,0,0,.288,3.573a1.436,1.436,0,0,0,1.366.752,1.558,1.558,0,0,0,.778-.378A2.255,2.255,0,0,0,2.416.395" transform="translate(5.154 16.586) rotate(19)" fill="#ffefdb"/>
      </g>
      <g id="Group_1115350" data-name="Group 1115350" transform="translate(416.571 2779.005) rotate(180)">
        <path id="Path_886575-2" data-name="Path 886575" d="M1.139.04A.987.987,0,0,0,0,.851.971.971,0,0,0,.958,1.857.97.97,0,0,0,1.9.838c-.059-.513-.255-.979-.758-.8" transform="translate(9.053 0) rotate(19)" fill="#ffefdb"/>
        <path id="Path_886576-2" data-name="Path 886576" d="M1.651.037C-.478-.428-.04,3.638.233,4.66a1.575,1.575,0,0,0,.229.547,1.13,1.13,0,0,0,1.211.331,1.865,1.865,0,0,0,1-.828C3.443,3.477,3.62.467,1.651.037" transform="translate(5.496 3.487) rotate(19)" fill="#ffefdb"/>
        <path id="Path_886577-2" data-name="Path 886577" d="M1.369,2.226C2.816,1.551,1.518-.82.393.293A1.425,1.425,0,0,0,0,1.34a1.127,1.127,0,0,0,.124.517.993.993,0,0,0,1.245.369" transform="translate(10.483 3.542) rotate(19)" fill="#ffefdb"/>
        <path id="Path_886578-2" data-name="Path 886578" d="M1.944,3.6c.684-.624,1.546-2.373.8-3.19A1.406,1.406,0,0,0,.484.838a5.177,5.177,0,0,0-.45,1.708A1.2,1.2,0,0,0,.123,3.4a1.261,1.261,0,0,0,.316.289,1.419,1.419,0,0,0,.55.286,1.171,1.171,0,0,0,.955-.37" transform="translate(7.717 8.555) rotate(19)" fill="#ffefdb"/>
        <path id="Path_886579-2" data-name="Path 886579" d="M.518,2.222A.944.944,0,0,0,1.7,2.116C2.719,1.1.929-.876.149.435a1.429,1.429,0,0,0,0,1.271,1.215,1.215,0,0,0,.367.515" transform="translate(13.495 8.172) rotate(19)" fill="#ffefdb"/>
        <path id="Path_886580-2" data-name="Path 886580" d="M.013.42a.85.85,0,0,0,.219.691A.947.947,0,0,0,.6,1.4a.691.691,0,0,0,.72-.139C2.156.45.236-.6.013.42" transform="translate(13.11 12.226) rotate(19)" fill="#ffefdb"/>
        <path id="Path_886581-2" data-name="Path 886581" d="M.5.389A1.91,1.91,0,0,0,.057,1.447a2.694,2.694,0,0,0,.08,1.421,1.329,1.329,0,0,0,1.092.864,1.405,1.405,0,0,0,1.31-.982C2.9,1.737,1.854-1.01.5.389" transform="translate(10.328 14.028) rotate(19)" fill="#ffefdb"/>
        <path id="Path_886582-2" data-name="Path 886582" d="M.306,1.482A.918.918,0,0,0,1.371,1.5C2.556.652.735-.742.086.481a.82.82,0,0,0,.22,1" transform="translate(3.516 10.268) rotate(19)" fill="#ffefdb"/>
        <path id="Path_886583-2" data-name="Path 886583" d="M.93.092A1.2,1.2,0,0,0,.345.47a1.555,1.555,0,0,0-.259.769A9.845,9.845,0,0,0,0,2.305,2.38,2.38,0,0,0,.175,3.412a1.031,1.031,0,0,0,.907.61,1.212,1.212,0,0,0,.885-.556C2.638,2.552,3-.574.93.092" transform="translate(1.31 12.851) rotate(19)" fill="#ffefdb"/>
        <path id="Path_886584-2" data-name="Path 886584" d="M2.416.395C1.91.049,1.045-.207.565.234A2.827,2.827,0,0,0,.01,2,2.789,2.789,0,0,0,.288,3.573a1.436,1.436,0,0,0,1.366.752,1.558,1.558,0,0,0,.778-.378A2.255,2.255,0,0,0,2.416.395" transform="translate(5.154 16.586) rotate(19)" fill="#ffefdb"/>
      </g>
    </g>
  </g>
</svg>
