<svg xmlns="http://www.w3.org/2000/svg" xmlns:xlink="http://www.w3.org/1999/xlink" width="107.004" height="126" viewBox="0 0 107.004 126">
  <defs>
    <clipPath id="clip-path">
      <rect id="Rectangle_400938" data-name="Rectangle 400938" width="85" height="85" transform="translate(-0.004)" fill="none"/>
    </clipPath>
    <clipPath id="clip-path-2">
      <rect id="Rectangle_401492" data-name="Rectangle 401492" width="52.101" height="52.101" transform="translate(0 0)" fill="#fffceb" stroke="#707070" stroke-width="1"/>
    </clipPath>
    <clipPath id="clip-path-4">
      <rect id="Rectangle_407554" data-name="Rectangle 407554" width="45.998" height="47.713" fill="#fff"/>
    </clipPath>
    <clipPath id="clip-path-5">
      <rect id="Rectangle_407555" data-name="Rectangle 407555" width="45.998" height="47.713" transform="translate(-0.004 -0.123)" fill="#fff"/>
    </clipPath>
    <clipPath id="clip-path-6">
      <rect id="Rectangle_408546" data-name="Rectangle 408546" width="44" height="35.874" fill="#fff"/>
    </clipPath>
  </defs>
  <g id="Group_1118263" data-name="Group 1118263" transform="translate(-178.998 -5333)">
    <path id="Path_895295" data-name="Path 895295" d="M0,0H107V126H0Z" transform="translate(178.998 5333)" fill="#ffc811"/>
    <g id="Group_1117149" data-name="Group 1117149" transform="translate(-203.998 2604.992)">
      <g id="Group_1111452" data-name="Group 1111452" transform="translate(393 2749.008)">
        <g id="Group_1113606" data-name="Group 1113606" transform="translate(6.891 79.253) rotate(-90)">
          <path id="Union_11" data-name="Union 11" d="M35.5,70C15.9,70,0,54.333,0,35V0H35.5C55.107,0,71,15.672,71,35V70Z" transform="translate(0.254 0.105)" fill="#685700" stroke="rgba(0,0,0,0)" stroke-miterlimit="10" stroke-width="1"/>
          <g id="Group_1110743" data-name="Group 1110743" transform="translate(61.936 10.111) rotate(90)">
            <rect id="Rectangle_401104" data-name="Rectangle 401104" width="48.544" height="49.327" transform="translate(1.778)" fill="none"/>
            <g id="Mask_Group_1098697" data-name="Mask Group 1098697" transform="translate(0 0)" clip-path="url(#clip-path-2)">
              <g id="Group_1117309" data-name="Group 1117309" transform="translate(0 170)">
                <rect id="Rectangle_401104-2" data-name="Rectangle 401104" width="48.544" height="49.327" transform="translate(1.778)" fill="none"/>
                <g id="Mask_Group_1098697-2" data-name="Mask Group 1098697" transform="translate(0 0)" clip-path="url(#clip-path-2)">
                  <g id="Group_1117308" data-name="Group 1117308" transform="translate(2.708 2.201)">
                    <g id="Group_1117307" data-name="Group 1117307" clip-path="url(#clip-path-4)">
                      <path id="Path_895704" data-name="Path 895704" d="M41.911,3.356a2.8,2.8,0,0,0-2.5-1.987H6.669C4.913,1.519,4.549,2.912,3.925,3a.756.756,0,0,1-.764-.731C3.148,1.222,5.323-.061,6.384,0H39.557a3.891,3.891,0,0,1,3.788,3.622L43.331,16.6a3.309,3.309,0,0,1,2.59,2.741,26.341,26.341,0,0,1-.077,4.861,3.468,3.468,0,0,1-2.512,2.269V37.784a3.554,3.554,0,0,1,2.548,2.371,29.5,29.5,0,0,1,.025,5.016,3.419,3.419,0,0,1-3.2,2.542l-40.074-.1A3.248,3.248,0,0,1,.171,45.043a29.42,29.42,0,0,1,0-4.648,3.3,3.3,0,0,1,2.583-2.612V26.47A3.382,3.382,0,0,1,.205,24.1,28.167,28.167,0,0,1,.171,19.21c.052-.441.575-1.357.549-1.483C.689,17.58.2,17.19.1,16.823c-.488-1.75.974-2.36,2.511-2.527l.118-.16.023-9c.156-.794,1.425-.537,1.425,0v8.816c.368-.042,1.014-.091,1.21-.414.674-1.112.337-4.515,2.036-4.887A1.9,1.9,0,0,1,9.851,9.955a28.913,28.913,0,0,0,.754,3.106c.129.106.459.132.634.21a4,4,0,0,1,5.8-2.329,3.993,3.993,0,0,1,6.057-.831,3.994,3.994,0,0,1,6.021.812,3.926,3.926,0,0,1,5.645,2.287,3.973,3.973,0,0,1,4.722,3.336h2.43ZM8.3,10l-.569.062c-.488,1.132-.491,3.842-1.407,4.642-.859.75-3.392.737-4.509,1.156-.7.264-.346.589.18.783,1.247.458,3.737.316,4.542,1.4.689.927.662,3.04,1.1,4.138.2.488.56.487.783,0,.5-1.094.35-3.124,1.1-4.138.8-1.082,3.3-.94,4.542-1.4.526-.193.885-.519.18-.783-1.13-.423-3.756-.4-4.58-1.225C8.922,13.893,8.6,10.184,8.3,10m29.607,6.542c.041-1.078-1.17-1.962-2.236-2-.784-.029-1.923.907-2.274-.178-.171-.528.007-.824-.374-1.419a2.524,2.524,0,0,0-2.731-1.017c-.632.125-1.1.927-1.716.768-.462-.119-.735-1.253-1.256-1.68a2.646,2.646,0,0,0-3.207.061c-.3.263-.58.976-1.122.928-.5-.044-.729-.671-1.024-.928a2.646,2.646,0,0,0-3.207-.061c-.521.426-.794,1.561-1.256,1.68-.583.15-.928-.463-1.411-.649-1.635-.63-3.55.394-3.345,2.173,1.508.091,3.576.452,3.287,2.324ZM44,24.562a2.038,2.038,0,0,0,.479-1.114,22.648,22.648,0,0,0-.034-4.068,2.066,2.066,0,0,0-1.912-1.452l-27.819.023-3.97.851c-.786,1.472-.275,5.069-2.643,5.138-2.521.073-1.982-3.626-2.789-5.138-1.277-.223-3.4-1.37-3.707.555a26.179,26.179,0,0,0,.024,4.47A1.93,1.93,0,0,0,3.4,25.141l11.972,0c.293-.095,1.014-2.807,1.232-3.332a3.662,3.662,0,0,1,3.213-2.669,47.989,47.989,0,0,1,6.582.005c3.217.349,3.089,3.929,4.307,6l11.707.023a2.411,2.411,0,0,0,1.589-.6M19.716,20.541A2.132,2.132,0,0,0,18.178,21.8a34.747,34.747,0,0,0-1.82,5.366,2.166,2.166,0,0,0,.333,1.8,39.56,39.56,0,0,0,5.077,3.62c1.253.645,1.768.444,2.892-.219a38.643,38.643,0,0,0,4.462-3.114,2.238,2.238,0,0,0,.573-2.2,36.227,36.227,0,0,0-2.017-5.588,2.359,2.359,0,0,0-1.705-.966,41.475,41.475,0,0,0-6.257.032m-4.679,5.982H4.173V37.731H37.265a.714.714,0,0,1,.3,1.24l-34.4.187A1.99,1.99,0,0,0,1.63,40.425,26.622,26.622,0,0,0,1.6,44.773a1.931,1.931,0,0,0,1.926,1.575l39.427-.038c.733-.272,1.353-.639,1.5-1.436a20.609,20.609,0,0,0-.1-4.626,2.261,2.261,0,0,0-1.8-1.152c-.8-.083-3.521.452-2.857-.953.318-.673,1.576-.341,2.213-.413V26.523H31.047a3.466,3.466,0,0,1-.712,3.488,33.073,33.073,0,0,1-6.178,4.207,3.5,3.5,0,0,1-2.337-.034A40.036,40.036,0,0,1,15.945,30.3a3.456,3.456,0,0,1-.908-3.778" transform="translate(0 0)" fill="#fff"/>
                      <path id="Path_895705" data-name="Path 895705" d="M239.612,34.271a.924.924,0,0,1,.743.476.81.81,0,0,1-.2.717c-.141.21-2.523,2.511-2.7,2.61a.782.782,0,0,1-1.217-.623c.016-.468,2.85-3.137,3.377-3.18" transform="translate(-202.467 -29.586)" fill="#fff"/>
                      <path id="Path_895706" data-name="Path 895706" d="M57.764,34.251c.261-.023.441.177.624.311A26.032,26.032,0,0,1,61.022,37.1c.308.454.2.654-.207,1.018a.761.761,0,0,1-.8-.063c-.175-.1-2.764-2.567-2.849-2.743a.707.707,0,0,1,0-.682,1.125,1.125,0,0,1,.6-.381" transform="translate(-48.923 -29.568)" fill="#fff"/>
                      <path id="Path_895707" data-name="Path 895707" d="M212.907,21.908a1.217,1.217,0,0,1-.256-.658,15.634,15.634,0,0,1,1.3-2.171.735.735,0,0,1,1.329.575,23.379,23.379,0,0,1-1.2,2.011.833.833,0,0,1-1.172.242" transform="translate(-182.252 -16.197)" fill="#fff"/>
                      <path id="Path_895708" data-name="Path 895708" d="M93.617,21.906c-.832.766-2.267-1.772-2.366-2.255-.186-.9.809-1.173,1.326-.577.394.455,1.617,2.351,1.041,2.832" transform="translate(-78.187 -16.193)" fill="#fff"/>
                      <path id="Path_895709" data-name="Path 895709" d="M257.067,69.614a22.23,22.23,0,0,1,2.4-1.337c.818-.195,1.147.6.654,1.185-.254.3-2.641,1.8-3.015,1.083a1.5,1.5,0,0,1-.039-.931" transform="translate(-220.272 -58.919)" fill="#fff"/>
                      <path id="Path_895710" data-name="Path 895710" d="M142.232,166.079a1.368,1.368,0,0,1-.745.175,41.831,41.831,0,0,1-5.3,0c-2.321-.184.529-2.49.468-3.22-.008-.1-.438-.427-.562-.653-1.523-2.767,1.8-5.7,4.451-3.983a3,3,0,0,1,.457,4.749c.311.589,1.828,2.372,1.233,2.931m-1.966-1.2c-.012-.611-.988-1.472-.99-1.982,0-.6.939-.811,1.1-1.4a1.657,1.657,0,1,0-3.195-.858c-.233,1.373,1.223,1.568,1.219,2.258,0,.55-.953,1.369-.99,1.982Z" transform="translate(-115.938 -136.309)" fill="#fff"/>
                    </g>
                  </g>
                </g>
              </g>
            </g>
          </g>
        </g>
        <g id="Group_1117310" data-name="Group 1117310" transform="translate(19.711 18.644)" clip-path="url(#clip-path-5)">
          <g id="Group_1118273" data-name="Group 1118273" transform="translate(0.996 5.677)">
            <g id="Group_1118272" data-name="Group 1118272" clip-path="url(#clip-path-6)">
              <path id="Path_919994" data-name="Path 919994" d="M43.526,13.848a.9.9,0,0,0-.8-.525.829.829,0,0,0-.193.023,5.722,5.722,0,0,1-1.094.09,9.227,9.227,0,0,1-4.233-1.074.846.846,0,0,0-.39-.1c-.023,0-.045,0-.067,0a.467.467,0,0,0-.318-.289h0l-.015,0-1.469-.292c-.011-.02-.016-.067-.037-.059-.22.075-.139-.043-.64-.077h0l-6.306-1.254.942-9.169a1.093,1.093,0,0,0,.008-.134A.96.96,0,0,0,28.061,0L28,0h-.046a.86.86,0,0,0-.5.2.94.94,0,0,0-.109.1h0L27.334.32a21.1,21.1,0,0,1-7.882,5.562,22.646,22.646,0,0,1-4.368,1.365.934.934,0,0,0-.713.639L11.7,15.829a1.076,1.076,0,0,0,.03.761L6.023,20.969a8.934,8.934,0,0,0-1.491-1.008,7.246,7.246,0,0,0-3.375-.91,3.3,3.3,0,0,0-.339.014A.949.949,0,0,0,.01,19.9a1.061,1.061,0,0,0,.171.745A40.425,40.425,0,0,1,.64,26.435c.114,2.613.168,5.09.169,5.115a1.031,1.031,0,0,0,.315.729.867.867,0,0,0,.594.241.83.83,0,0,0,.113-.008,18.663,18.663,0,0,1,2.505-.159,46.056,46.056,0,0,1,8.121.792.868.868,0,0,0,.248.036c.206,0,6.422,2.259,6.422,2.259a.418.418,0,0,0,.135.024.889.889,0,0,0,.734.409.84.84,0,0,0,.178-.019.961.961,0,0,0,.723-.831A6.866,6.866,0,0,1,22,33.995c.663-.535,1.555-1.185,2.727-1.99,2.192-1.5,4.975-3.275,7.666-4.988,2.09-1.331,4.065-2.587,5.719-3.689l0,0a.886.886,0,0,0,.117.008A1.2,1.2,0,0,0,39,23.008a1.651,1.651,0,0,0,.275-.293.862.862,0,0,0,.385-.153A14.469,14.469,0,0,0,42.3,20.031c2.177-2.743,1.869-4.876,1.226-6.183m-7.6-.961L25.654,21.84c-.6-.025-1.14-.055-1.6-.084l10.462-9.149Zm.156,1.135L38,20.943c-.1.019-.215.044-.338.076a37.074,37.074,0,0,1-8.98.886c-.56,0-1.1-.007-1.619-.019Zm-13.214,7.5a.487.487,0,0,0-.11.142c-.26-.022-.405-.036-.412-.037-.028,0-.056,0-.084,0a.926.926,0,0,0-.876.725l-.219.85A.441.441,0,0,0,21,23.29L16.31,27.526a.489.489,0,0,0-.111.148l-6.754-2.1a.419.419,0,0,0-.1-.018c-.086-.191-.18-.388-.284-.6a15.108,15.108,0,0,0-.8-1.407l16.771-12.8c1.168.246,8.291,1.613,8.291,1.613Zm-3.689,7.631.635-.693L19.3,30.451Zm1.133-2.626a.467.467,0,0,0-.069.061L18.57,28.41l-1.349-.419L20.753,24.8Zm-5.085-18.3S22.99,6.9,28,.992l-.938,9.124L21.777,9.064a.416.416,0,0,0-.173,0h-.032a.439.439,0,0,0-.139.072l-8.781,6.737Zm6.686,1.853c.459.091,1.421.246,1.886.342L7.717,22.765a11.268,11.268,0,0,0-.935-1.093ZM4.336,31.36a19.453,19.453,0,0,0-2.618.167S1.476,20.319.909,20.054c0,0,.088-.01.248-.01.972,0,4.589.356,7.109,5.395.139.279.278.571.408.881,1.986,4.72,3.66,5.98,4.043,6.219l-.01.021a33.571,33.571,0,0,0-8.371-1.2m9.392,1.1A17.561,17.561,0,0,1,9.865,26.74l8.417,2.613.463,4.9ZM37.642,22.48c-6.293,4.19-17.761,10.968-17.65,12.369l-.319-2.175,2.588-10.061s2.844.285,6.417.285a38.9,38.9,0,0,0,9.191-.913,3.365,3.365,0,0,1,.394-.081l.032.114c0,.009.006.018.009.027-.148.1-.361.236-.661.436m.687-.359a1.018,1.018,0,0,0,.068.139.367.367,0,0,1-.161.08c-.045,0-.036-.059.093-.219m1.132-.616a.969.969,0,0,0-.437-.532l-1.981-7.6a10.028,10.028,0,0,0,4.4,1.058,6.257,6.257,0,0,0,1.281-.111c1.523,3.1-2.167,6.322-3.263,7.188" transform="translate(0 0.001)" fill="#fff"/>
            </g>
          </g>
        </g>
      </g>
      <g id="Group_1115343" data-name="Group 1115343" transform="translate(456.03 2805.465)">
        <path id="Path_886575" data-name="Path 886575" d="M1.139.04A.987.987,0,0,0,0,.851.971.971,0,0,0,.958,1.857.97.97,0,0,0,1.9.838c-.059-.513-.255-.979-.758-.8" transform="translate(9.053 0) rotate(19)" fill="#ffefdb"/>
        <path id="Path_886576" data-name="Path 886576" d="M1.651.037C-.478-.428-.04,3.638.233,4.66a1.575,1.575,0,0,0,.229.547,1.13,1.13,0,0,0,1.211.331,1.865,1.865,0,0,0,1-.828C3.443,3.477,3.62.467,1.651.037" transform="translate(5.496 3.487) rotate(19)" fill="#ffefdb"/>
        <path id="Path_886577" data-name="Path 886577" d="M1.369,2.226C2.816,1.551,1.518-.82.393.293A1.425,1.425,0,0,0,0,1.34a1.127,1.127,0,0,0,.124.517.993.993,0,0,0,1.245.369" transform="translate(10.483 3.542) rotate(19)" fill="#ffefdb"/>
        <path id="Path_886578" data-name="Path 886578" d="M1.944,3.6c.684-.624,1.546-2.373.8-3.19A1.406,1.406,0,0,0,.484.838a5.177,5.177,0,0,0-.45,1.708A1.2,1.2,0,0,0,.123,3.4a1.261,1.261,0,0,0,.316.289,1.419,1.419,0,0,0,.55.286,1.171,1.171,0,0,0,.955-.37" transform="translate(7.717 8.555) rotate(19)" fill="#ffefdb"/>
        <path id="Path_886579" data-name="Path 886579" d="M.518,2.222A.944.944,0,0,0,1.7,2.116C2.719,1.1.929-.876.149.435a1.429,1.429,0,0,0,0,1.271,1.215,1.215,0,0,0,.367.515" transform="translate(13.495 8.172) rotate(19)" fill="#ffefdb"/>
        <path id="Path_886580" data-name="Path 886580" d="M.013.42a.85.85,0,0,0,.219.691A.947.947,0,0,0,.6,1.4a.691.691,0,0,0,.72-.139C2.156.45.236-.6.013.42" transform="translate(13.11 12.226) rotate(19)" fill="#ffefdb"/>
        <path id="Path_886581" data-name="Path 886581" d="M.5.389A1.91,1.91,0,0,0,.057,1.447a2.694,2.694,0,0,0,.08,1.421,1.329,1.329,0,0,0,1.092.864,1.405,1.405,0,0,0,1.31-.982C2.9,1.737,1.854-1.01.5.389" transform="translate(10.328 14.028) rotate(19)" fill="#ffefdb"/>
        <path id="Path_886582" data-name="Path 886582" d="M.306,1.482A.918.918,0,0,0,1.371,1.5C2.556.652.735-.742.086.481a.82.82,0,0,0,.22,1" transform="translate(3.516 10.268) rotate(19)" fill="#ffefdb"/>
        <path id="Path_886583" data-name="Path 886583" d="M.93.092A1.2,1.2,0,0,0,.345.47a1.555,1.555,0,0,0-.259.769A9.845,9.845,0,0,0,0,2.305,2.38,2.38,0,0,0,.175,3.412a1.031,1.031,0,0,0,.907.61,1.212,1.212,0,0,0,.885-.556C2.638,2.552,3-.574.93.092" transform="translate(1.31 12.851) rotate(19)" fill="#ffefdb"/>
        <path id="Path_886584" data-name="Path 886584" d="M2.416.395C1.91.049,1.045-.207.565.234A2.827,2.827,0,0,0,.01,2,2.789,2.789,0,0,0,.288,3.573a1.436,1.436,0,0,0,1.366.752,1.558,1.558,0,0,0,.778-.378A2.255,2.255,0,0,0,2.416.395" transform="translate(5.154 16.586) rotate(19)" fill="#ffefdb"/>
      </g>
      <g id="Group_1115350" data-name="Group 1115350" transform="translate(416.571 2779.005) rotate(180)">
        <path id="Path_886575-2" data-name="Path 886575" d="M1.139.04A.987.987,0,0,0,0,.851.971.971,0,0,0,.958,1.857.97.97,0,0,0,1.9.838c-.059-.513-.255-.979-.758-.8" transform="translate(9.053 0) rotate(19)" fill="#ffefdb"/>
        <path id="Path_886576-2" data-name="Path 886576" d="M1.651.037C-.478-.428-.04,3.638.233,4.66a1.575,1.575,0,0,0,.229.547,1.13,1.13,0,0,0,1.211.331,1.865,1.865,0,0,0,1-.828C3.443,3.477,3.62.467,1.651.037" transform="translate(5.496 3.487) rotate(19)" fill="#ffefdb"/>
        <path id="Path_886577-2" data-name="Path 886577" d="M1.369,2.226C2.816,1.551,1.518-.82.393.293A1.425,1.425,0,0,0,0,1.34a1.127,1.127,0,0,0,.124.517.993.993,0,0,0,1.245.369" transform="translate(10.483 3.542) rotate(19)" fill="#ffefdb"/>
        <path id="Path_886578-2" data-name="Path 886578" d="M1.944,3.6c.684-.624,1.546-2.373.8-3.19A1.406,1.406,0,0,0,.484.838a5.177,5.177,0,0,0-.45,1.708A1.2,1.2,0,0,0,.123,3.4a1.261,1.261,0,0,0,.316.289,1.419,1.419,0,0,0,.55.286,1.171,1.171,0,0,0,.955-.37" transform="translate(7.717 8.555) rotate(19)" fill="#ffefdb"/>
        <path id="Path_886579-2" data-name="Path 886579" d="M.518,2.222A.944.944,0,0,0,1.7,2.116C2.719,1.1.929-.876.149.435a1.429,1.429,0,0,0,0,1.271,1.215,1.215,0,0,0,.367.515" transform="translate(13.495 8.172) rotate(19)" fill="#ffefdb"/>
        <path id="Path_886580-2" data-name="Path 886580" d="M.013.42a.85.85,0,0,0,.219.691A.947.947,0,0,0,.6,1.4a.691.691,0,0,0,.72-.139C2.156.45.236-.6.013.42" transform="translate(13.11 12.226) rotate(19)" fill="#ffefdb"/>
        <path id="Path_886581-2" data-name="Path 886581" d="M.5.389A1.91,1.91,0,0,0,.057,1.447a2.694,2.694,0,0,0,.08,1.421,1.329,1.329,0,0,0,1.092.864,1.405,1.405,0,0,0,1.31-.982C2.9,1.737,1.854-1.01.5.389" transform="translate(10.328 14.028) rotate(19)" fill="#ffefdb"/>
        <path id="Path_886582-2" data-name="Path 886582" d="M.306,1.482A.918.918,0,0,0,1.371,1.5C2.556.652.735-.742.086.481a.82.82,0,0,0,.22,1" transform="translate(3.516 10.268) rotate(19)" fill="#ffefdb"/>
        <path id="Path_886583-2" data-name="Path 886583" d="M.93.092A1.2,1.2,0,0,0,.345.47a1.555,1.555,0,0,0-.259.769A9.845,9.845,0,0,0,0,2.305,2.38,2.38,0,0,0,.175,3.412a1.031,1.031,0,0,0,.907.61,1.212,1.212,0,0,0,.885-.556C2.638,2.552,3-.574.93.092" transform="translate(1.31 12.851) rotate(19)" fill="#ffefdb"/>
        <path id="Path_886584-2" data-name="Path 886584" d="M2.416.395C1.91.049,1.045-.207.565.234A2.827,2.827,0,0,0,.01,2,2.789,2.789,0,0,0,.288,3.573a1.436,1.436,0,0,0,1.366.752,1.558,1.558,0,0,0,.778-.378A2.255,2.255,0,0,0,2.416.395" transform="translate(5.154 16.586) rotate(19)" fill="#ffefdb"/>
      </g>
    </g>
  </g>
</svg>
