<svg xmlns="http://www.w3.org/2000/svg" xmlns:xlink="http://www.w3.org/1999/xlink" width="247.625" height="506.236" viewBox="0 0 247.625 506.236">
  <defs>
    <clipPath id="clip-path">
      <path id="Trazado_194907" data-name="Trazado 194907" d="M0,139.241c0,47.447,39.179,85.908,87.511,85.908s87.511-38.461,87.511-85.908S135.841,53.333,87.511,53.333,0,91.8,0,139.241" transform="translate(0 -53.333)" fill="#f8d2a8"/>
    </clipPath>
    <clipPath id="clip-path-2">
      <path id="Trazado_194907-2" data-name="Trazado 194907" d="M0,95.647A42.315,42.315,0,1,0,42.315,53.333,42.315,42.315,0,0,0,0,95.647" transform="translate(0 -53.333)" fill="#7f4fc7"/>
    </clipPath>
    <clipPath id="clip-path-3">
      <rect id="Rectángulo_46351" data-name="Rectángulo 46351" width="115.414" height="119.42" fill="none"/>
    </clipPath>
    <clipPath id="clip-path-4">
      <rect id="Rectangle_408873" data-name="Rectangle 408873" width="206.054" height="506.236" fill="none"/>
    </clipPath>
  </defs>
  <g id="conectada_01.375dd2a5" transform="translate(-2.443 -22.364)">
    <g id="Grupo_155444" data-name="Grupo 155444" transform="translate(1.513 22.364)">
      <g id="Grupo_154313" data-name="Grupo 154313" transform="translate(73.533 321.892)">
        <g id="Grupo_152768" data-name="Grupo 152768" clip-path="url(#clip-path)">
          <path id="Trazado_194826" data-name="Trazado 194826" d="M4.605,55.593a2.284,2.284,0,0,0-2.3-2.26,2.262,2.262,0,1,0,0,4.522,2.284,2.284,0,0,0,2.3-2.263" transform="translate(0.001 -53.333)" fill="#f8d2a8"/>
          <path id="Trazado_194827" data-name="Trazado 194827" d="M12.879,55.589a2.3,2.3,0,1,0-2.3,2.263,2.3,2.3,0,0,0,2.3-2.263" transform="translate(13.028 -53.329)" fill="#f8d2a8"/>
          <path id="Trazado_194828" data-name="Trazado 194828" d="M21.152,55.589a2.3,2.3,0,1,0-2.3,2.263,2.3,2.3,0,0,0,2.3-2.263" transform="translate(26.059 -53.329)" fill="#f8d2a8"/>
          <path id="Trazado_194829" data-name="Trazado 194829" d="M29.425,55.589a2.3,2.3,0,1,0-2.3,2.263,2.3,2.3,0,0,0,2.3-2.263" transform="translate(39.088 -53.329)" fill="#f8d2a8"/>
          <path id="Trazado_194830" data-name="Trazado 194830" d="M37.7,55.589a2.3,2.3,0,1,0-2.3,2.263,2.3,2.3,0,0,0,2.3-2.263" transform="translate(52.116 -53.329)" fill="#f8d2a8"/>
          <path id="Trazado_194831" data-name="Trazado 194831" d="M45.966,55.589a2.3,2.3,0,1,0-2.3,2.263,2.3,2.3,0,0,0,2.3-2.263" transform="translate(65.146 -53.329)" fill="#f8d2a8"/>
          <path id="Trazado_194832" data-name="Trazado 194832" d="M54.242,55.589a2.3,2.3,0,1,0-2.3,2.263,2.3,2.3,0,0,0,2.3-2.263" transform="translate(78.175 -53.329)" fill="#f8d2a8"/>
          <path id="Trazado_194833" data-name="Trazado 194833" d="M62.515,55.589a2.3,2.3,0,1,0-2.3,2.263,2.3,2.3,0,0,0,2.3-2.263" transform="translate(91.204 -53.329)" fill="#f8d2a8"/>
          <path id="Trazado_194834" data-name="Trazado 194834" d="M70.788,55.589a2.3,2.3,0,1,0-2.3,2.262,2.3,2.3,0,0,0,2.3-2.262" transform="translate(104.234 -53.329)" fill="#f8d2a8"/>
          <path id="Trazado_194835" data-name="Trazado 194835" d="M4.609,63.866a2.284,2.284,0,0,0-2.3-2.26,2.26,2.26,0,0,0,0,4.52,2.284,2.284,0,0,0,2.3-2.26" transform="translate(-0.002 -40.693)" fill="#f8d2a8"/>
          <path id="Trazado_194836" data-name="Trazado 194836" d="M12.879,63.862a2.3,2.3,0,1,0-2.3,2.26,2.3,2.3,0,0,0,2.3-2.26" transform="translate(13.028 -40.689)" fill="#f8d2a8"/>
          <path id="Trazado_194837" data-name="Trazado 194837" d="M21.152,63.862a2.3,2.3,0,1,0-2.3,2.26,2.3,2.3,0,0,0,2.3-2.26" transform="translate(26.059 -40.689)" fill="#f8d2a8"/>
          <path id="Trazado_194838" data-name="Trazado 194838" d="M29.425,63.862a2.3,2.3,0,1,0-2.3,2.26,2.3,2.3,0,0,0,2.3-2.26" transform="translate(39.088 -40.689)" fill="#f8d2a8"/>
          <path id="Trazado_194839" data-name="Trazado 194839" d="M37.7,63.862a2.3,2.3,0,1,0-2.3,2.26,2.3,2.3,0,0,0,2.3-2.26" transform="translate(52.116 -40.689)" fill="#f8d2a8"/>
          <path id="Trazado_194840" data-name="Trazado 194840" d="M45.966,63.862a2.3,2.3,0,1,0-2.3,2.26,2.3,2.3,0,0,0,2.3-2.26" transform="translate(65.146 -40.689)" fill="#f8d2a8"/>
          <path id="Trazado_194841" data-name="Trazado 194841" d="M54.242,63.862a2.3,2.3,0,1,0-2.3,2.26,2.3,2.3,0,0,0,2.3-2.26" transform="translate(78.175 -40.689)" fill="#f8d2a8"/>
          <path id="Trazado_194842" data-name="Trazado 194842" d="M62.515,63.862a2.3,2.3,0,1,0-2.3,2.26,2.3,2.3,0,0,0,2.3-2.26" transform="translate(91.204 -40.689)" fill="#f8d2a8"/>
          <path id="Trazado_194843" data-name="Trazado 194843" d="M70.788,63.862a2.3,2.3,0,1,0-2.3,2.26,2.3,2.3,0,0,0,2.3-2.26" transform="translate(104.234 -40.689)" fill="#f8d2a8"/>
          <path id="Trazado_194844" data-name="Trazado 194844" d="M4.609,72.139a2.284,2.284,0,0,0-2.3-2.26,2.26,2.26,0,0,0,0,4.52,2.284,2.284,0,0,0,2.3-2.26" transform="translate(-0.002 -28.054)" fill="#f8d2a8"/>
          <path id="Trazado_194845" data-name="Trazado 194845" d="M12.879,72.135a2.3,2.3,0,1,0-2.3,2.26,2.3,2.3,0,0,0,2.3-2.26" transform="translate(13.028 -28.049)" fill="#f8d2a8"/>
          <path id="Trazado_194846" data-name="Trazado 194846" d="M21.152,72.135a2.3,2.3,0,1,0-2.3,2.26,2.3,2.3,0,0,0,2.3-2.26" transform="translate(26.059 -28.049)" fill="#f8d2a8"/>
          <path id="Trazado_194847" data-name="Trazado 194847" d="M29.425,72.135a2.3,2.3,0,1,0-2.3,2.26,2.3,2.3,0,0,0,2.3-2.26" transform="translate(39.088 -28.049)" fill="#f8d2a8"/>
          <path id="Trazado_194848" data-name="Trazado 194848" d="M37.7,72.135a2.3,2.3,0,1,0-2.3,2.26,2.3,2.3,0,0,0,2.3-2.26" transform="translate(52.116 -28.049)" fill="#f8d2a8"/>
          <path id="Trazado_194849" data-name="Trazado 194849" d="M45.966,72.135a2.3,2.3,0,1,0-2.3,2.26,2.3,2.3,0,0,0,2.3-2.26" transform="translate(65.146 -28.049)" fill="#f8d2a8"/>
          <path id="Trazado_194850" data-name="Trazado 194850" d="M54.242,72.135a2.3,2.3,0,1,0-2.3,2.26,2.3,2.3,0,0,0,2.3-2.26" transform="translate(78.175 -28.049)" fill="#f8d2a8"/>
          <path id="Trazado_194851" data-name="Trazado 194851" d="M62.515,72.135a2.3,2.3,0,1,0-2.3,2.26,2.3,2.3,0,0,0,2.3-2.26" transform="translate(91.204 -28.049)" fill="#f8d2a8"/>
          <path id="Trazado_194852" data-name="Trazado 194852" d="M70.788,72.135a2.3,2.3,0,1,0-2.3,2.26,2.3,2.3,0,0,0,2.3-2.26" transform="translate(104.234 -28.049)" fill="#f8d2a8"/>
          <path id="Trazado_194853" data-name="Trazado 194853" d="M4.609,80.411a2.284,2.284,0,0,0-2.3-2.26,2.26,2.26,0,0,0,0,4.52,2.284,2.284,0,0,0,2.3-2.26" transform="translate(-0.002 -15.416)" fill="#f8d2a8"/>
          <path id="Trazado_194854" data-name="Trazado 194854" d="M12.879,80.407a2.3,2.3,0,1,0-2.3,2.259,2.3,2.3,0,0,0,2.3-2.259" transform="translate(13.028 -15.411)" fill="#f8d2a8"/>
          <path id="Trazado_194855" data-name="Trazado 194855" d="M21.152,80.407a2.3,2.3,0,1,0-2.3,2.259,2.3,2.3,0,0,0,2.3-2.259" transform="translate(26.059 -15.411)" fill="#f8d2a8"/>
          <path id="Trazado_194856" data-name="Trazado 194856" d="M29.425,80.407a2.3,2.3,0,1,0-2.3,2.259,2.3,2.3,0,0,0,2.3-2.259" transform="translate(39.088 -15.411)" fill="#f8d2a8"/>
          <path id="Trazado_194857" data-name="Trazado 194857" d="M37.7,80.407a2.3,2.3,0,1,0-2.3,2.259,2.3,2.3,0,0,0,2.3-2.259" transform="translate(52.116 -15.411)" fill="#f8d2a8"/>
          <path id="Trazado_194858" data-name="Trazado 194858" d="M45.966,80.407a2.3,2.3,0,1,0-2.3,2.259,2.3,2.3,0,0,0,2.3-2.259" transform="translate(65.146 -15.411)" fill="#f8d2a8"/>
          <path id="Trazado_194859" data-name="Trazado 194859" d="M54.242,80.407a2.3,2.3,0,1,0-2.3,2.259,2.3,2.3,0,0,0,2.3-2.259" transform="translate(78.175 -15.411)" fill="#f8d2a8"/>
          <path id="Trazado_194860" data-name="Trazado 194860" d="M62.515,80.407a2.3,2.3,0,1,0-2.3,2.259,2.3,2.3,0,0,0,2.3-2.259" transform="translate(91.204 -15.411)" fill="#f8d2a8"/>
          <path id="Trazado_194861" data-name="Trazado 194861" d="M70.788,80.407a2.3,2.3,0,1,0-2.3,2.259,2.3,2.3,0,0,0,2.3-2.259" transform="translate(104.234 -15.411)" fill="#f8d2a8"/>
          <path id="Trazado_194862" data-name="Trazado 194862" d="M4.605,88.685a2.284,2.284,0,0,0-2.3-2.26,2.262,2.262,0,1,0,0,4.522,2.284,2.284,0,0,0,2.3-2.262" transform="translate(0.001 -2.776)" fill="#f8d2a8"/>
          <path id="Trazado_194863" data-name="Trazado 194863" d="M12.879,88.681a2.3,2.3,0,1,0-2.3,2.262,2.3,2.3,0,0,0,2.3-2.262" transform="translate(13.028 -2.771)" fill="#f8d2a8"/>
          <path id="Trazado_194864" data-name="Trazado 194864" d="M21.152,88.681a2.3,2.3,0,1,0-2.3,2.262,2.3,2.3,0,0,0,2.3-2.262" transform="translate(26.059 -2.771)" fill="#f8d2a8"/>
          <path id="Trazado_194865" data-name="Trazado 194865" d="M29.425,88.681a2.3,2.3,0,1,0-2.3,2.262,2.3,2.3,0,0,0,2.3-2.262" transform="translate(39.088 -2.771)" fill="#f8d2a8"/>
          <path id="Trazado_194866" data-name="Trazado 194866" d="M37.7,88.681a2.3,2.3,0,1,0-2.3,2.262,2.3,2.3,0,0,0,2.3-2.262" transform="translate(52.116 -2.771)" fill="#f8d2a8"/>
          <path id="Trazado_194867" data-name="Trazado 194867" d="M45.966,88.681a2.3,2.3,0,1,0-2.3,2.262,2.3,2.3,0,0,0,2.3-2.262" transform="translate(65.146 -2.771)" fill="#f8d2a8"/>
          <path id="Trazado_194868" data-name="Trazado 194868" d="M54.242,88.681a2.3,2.3,0,1,0-2.3,2.262,2.3,2.3,0,0,0,2.3-2.262" transform="translate(78.175 -2.771)" fill="#f8d2a8"/>
          <path id="Trazado_194869" data-name="Trazado 194869" d="M62.515,88.681a2.3,2.3,0,1,0-2.3,2.262,2.3,2.3,0,0,0,2.3-2.262" transform="translate(91.204 -2.771)" fill="#f8d2a8"/>
          <path id="Trazado_194870" data-name="Trazado 194870" d="M70.788,88.681a2.3,2.3,0,1,0-2.3,2.261,2.3,2.3,0,0,0,2.3-2.261" transform="translate(104.234 -2.771)" fill="#f8d2a8"/>
          <path id="Trazado_194871" data-name="Trazado 194871" d="M4.609,96.957a2.284,2.284,0,0,0-2.3-2.257,2.26,2.26,0,0,0,0,4.52,2.284,2.284,0,0,0,2.3-2.26" transform="translate(-0.002 9.864)" fill="#f8d2a8"/>
          <path id="Trazado_194872" data-name="Trazado 194872" d="M12.879,96.953a2.3,2.3,0,1,0-2.3,2.26,2.3,2.3,0,0,0,2.3-2.26" transform="translate(13.028 9.869)" fill="#f8d2a8"/>
          <path id="Trazado_194873" data-name="Trazado 194873" d="M21.152,96.953a2.3,2.3,0,1,0-2.3,2.26,2.3,2.3,0,0,0,2.3-2.26" transform="translate(26.059 9.869)" fill="#f8d2a8"/>
          <path id="Trazado_194874" data-name="Trazado 194874" d="M29.425,96.953a2.3,2.3,0,1,0-2.3,2.26,2.3,2.3,0,0,0,2.3-2.26" transform="translate(39.088 9.869)" fill="#f8d2a8"/>
          <path id="Trazado_194875" data-name="Trazado 194875" d="M37.7,96.953a2.3,2.3,0,1,0-2.3,2.26,2.3,2.3,0,0,0,2.3-2.26" transform="translate(52.116 9.869)" fill="#f8d2a8"/>
          <path id="Trazado_194876" data-name="Trazado 194876" d="M45.966,96.953a2.3,2.3,0,1,0-2.3,2.26,2.3,2.3,0,0,0,2.3-2.26" transform="translate(65.146 9.869)" fill="#f8d2a8"/>
          <path id="Trazado_194877" data-name="Trazado 194877" d="M54.242,96.953a2.3,2.3,0,1,0-2.3,2.26,2.3,2.3,0,0,0,2.3-2.26" transform="translate(78.175 9.869)" fill="#f8d2a8"/>
          <path id="Trazado_194878" data-name="Trazado 194878" d="M62.515,96.953a2.3,2.3,0,1,0-2.3,2.26,2.3,2.3,0,0,0,2.3-2.26" transform="translate(91.204 9.869)" fill="#f8d2a8"/>
          <path id="Trazado_194879" data-name="Trazado 194879" d="M70.788,96.953a2.3,2.3,0,1,0-2.3,2.26,2.3,2.3,0,0,0,2.3-2.26" transform="translate(104.234 9.869)" fill="#f8d2a8"/>
          <path id="Trazado_194880" data-name="Trazado 194880" d="M4.609,105.229a2.284,2.284,0,0,0-2.3-2.26,2.26,2.26,0,1,0,0,4.52,2.284,2.284,0,0,0,2.3-2.26" transform="translate(-0.002 22.503)" fill="#f8d2a8"/>
          <path id="Trazado_194881" data-name="Trazado 194881" d="M12.879,105.225a2.3,2.3,0,1,0-2.3,2.26,2.3,2.3,0,0,0,2.3-2.26" transform="translate(13.028 22.507)" fill="#f8d2a8"/>
          <path id="Trazado_194882" data-name="Trazado 194882" d="M21.152,105.225a2.3,2.3,0,1,0-2.3,2.26,2.3,2.3,0,0,0,2.3-2.26" transform="translate(26.059 22.507)" fill="#f8d2a8"/>
          <path id="Trazado_194883" data-name="Trazado 194883" d="M29.425,105.225a2.3,2.3,0,1,0-2.3,2.26,2.3,2.3,0,0,0,2.3-2.26" transform="translate(39.088 22.507)" fill="#f8d2a8"/>
          <path id="Trazado_194884" data-name="Trazado 194884" d="M37.7,105.225a2.3,2.3,0,1,0-2.3,2.26,2.3,2.3,0,0,0,2.3-2.26" transform="translate(52.116 22.507)" fill="#f8d2a8"/>
          <path id="Trazado_194885" data-name="Trazado 194885" d="M45.966,105.225a2.3,2.3,0,1,0-2.3,2.26,2.3,2.3,0,0,0,2.3-2.26" transform="translate(65.146 22.507)" fill="#f8d2a8"/>
          <path id="Trazado_194886" data-name="Trazado 194886" d="M54.242,105.225a2.3,2.3,0,1,0-2.3,2.26,2.3,2.3,0,0,0,2.3-2.26" transform="translate(78.175 22.507)" fill="#f8d2a8"/>
          <path id="Trazado_194887" data-name="Trazado 194887" d="M62.515,105.225a2.3,2.3,0,1,0-2.3,2.26,2.3,2.3,0,0,0,2.3-2.26" transform="translate(91.204 22.507)" fill="#f8d2a8"/>
          <path id="Trazado_194888" data-name="Trazado 194888" d="M70.788,105.225a2.3,2.3,0,1,0-2.3,2.26,2.3,2.3,0,0,0,2.3-2.26" transform="translate(104.234 22.507)" fill="#f8d2a8"/>
          <path id="Trazado_194889" data-name="Trazado 194889" d="M4.609,113.5a2.284,2.284,0,0,0-2.3-2.26,2.26,2.26,0,0,0,0,4.52,2.284,2.284,0,0,0,2.3-2.26" transform="translate(-0.002 35.142)" fill="#f8d2a8"/>
          <path id="Trazado_194890" data-name="Trazado 194890" d="M12.879,113.5a2.3,2.3,0,1,0-2.3,2.26,2.3,2.3,0,0,0,2.3-2.26" transform="translate(13.028 35.146)" fill="#f8d2a8"/>
          <path id="Trazado_194891" data-name="Trazado 194891" d="M21.152,113.5a2.3,2.3,0,1,0-2.3,2.26,2.3,2.3,0,0,0,2.3-2.26" transform="translate(26.059 35.146)" fill="#f8d2a8"/>
          <path id="Trazado_194892" data-name="Trazado 194892" d="M29.425,113.5a2.3,2.3,0,1,0-2.3,2.26,2.3,2.3,0,0,0,2.3-2.26" transform="translate(39.088 35.146)" fill="#f8d2a8"/>
          <path id="Trazado_194893" data-name="Trazado 194893" d="M37.7,113.5a2.3,2.3,0,1,0-2.3,2.26,2.3,2.3,0,0,0,2.3-2.26" transform="translate(52.116 35.146)" fill="#f8d2a8"/>
          <path id="Trazado_194894" data-name="Trazado 194894" d="M45.966,113.5a2.3,2.3,0,1,0-2.3,2.26,2.3,2.3,0,0,0,2.3-2.26" transform="translate(65.146 35.146)" fill="#f8d2a8"/>
          <path id="Trazado_194895" data-name="Trazado 194895" d="M54.242,113.5a2.3,2.3,0,1,0-2.3,2.26,2.3,2.3,0,0,0,2.3-2.26" transform="translate(78.175 35.146)" fill="#f8d2a8"/>
          <path id="Trazado_194896" data-name="Trazado 194896" d="M62.515,113.5a2.3,2.3,0,1,0-2.3,2.26,2.3,2.3,0,0,0,2.3-2.26" transform="translate(91.204 35.146)" fill="#f8d2a8"/>
          <path id="Trazado_194897" data-name="Trazado 194897" d="M70.788,113.5a2.3,2.3,0,1,0-2.3,2.26,2.3,2.3,0,0,0,2.3-2.26" transform="translate(104.234 35.146)" fill="#f8d2a8"/>
          <path id="Trazado_194898" data-name="Trazado 194898" d="M4.609,121.774a2.284,2.284,0,0,0-2.3-2.26,2.26,2.26,0,0,0,0,4.52,2.284,2.284,0,0,0,2.3-2.26" transform="translate(-0.002 47.78)" fill="#f8d2a8"/>
          <path id="Trazado_194899" data-name="Trazado 194899" d="M12.879,121.77a2.3,2.3,0,1,0-2.3,2.26,2.3,2.3,0,0,0,2.3-2.26" transform="translate(13.028 47.784)" fill="#f8d2a8"/>
          <path id="Trazado_194900" data-name="Trazado 194900" d="M21.152,121.77a2.3,2.3,0,1,0-2.3,2.26,2.3,2.3,0,0,0,2.3-2.26" transform="translate(26.059 47.784)" fill="#f8d2a8"/>
          <path id="Trazado_194901" data-name="Trazado 194901" d="M29.425,121.77a2.3,2.3,0,1,0-2.3,2.26,2.3,2.3,0,0,0,2.3-2.26" transform="translate(39.088 47.784)" fill="#f8d2a8"/>
          <path id="Trazado_194902" data-name="Trazado 194902" d="M37.7,121.77a2.3,2.3,0,1,0-2.3,2.26,2.3,2.3,0,0,0,2.3-2.26" transform="translate(52.116 47.784)" fill="#f8d2a8"/>
          <path id="Trazado_194903" data-name="Trazado 194903" d="M45.966,121.77a2.3,2.3,0,1,0-2.3,2.26,2.3,2.3,0,0,0,2.3-2.26" transform="translate(65.146 47.784)" fill="#f8d2a8"/>
          <path id="Trazado_194904" data-name="Trazado 194904" d="M54.242,121.77a2.3,2.3,0,1,0-2.3,2.26,2.3,2.3,0,0,0,2.3-2.26" transform="translate(78.175 47.784)" fill="#f8d2a8"/>
          <path id="Trazado_194905" data-name="Trazado 194905" d="M62.515,121.77a2.3,2.3,0,1,0-2.3,2.26,2.3,2.3,0,0,0,2.3-2.26" transform="translate(91.204 47.784)" fill="#f8d2a8"/>
          <path id="Trazado_194906" data-name="Trazado 194906" d="M70.788,121.77a2.3,2.3,0,1,0-2.3,2.26,2.3,2.3,0,0,0,2.3-2.26" transform="translate(104.234 47.784)" fill="#f8d2a8"/>
        </g>
      </g>
      <g id="Grupo_154805" data-name="Grupo 154805" transform="translate(148.638 0)">
        <g id="Grupo_152768-2" data-name="Grupo 152768" transform="translate(0)" clip-path="url(#clip-path-2)">
          <path id="Trazado_194826-2" data-name="Trazado 194826" d="M2.228,54.443a1.113,1.113,0,1,0-1.113,1.114,1.113,1.113,0,0,0,1.113-1.114" transform="translate(0 -53.333)" fill="#7f4fc7"/>
          <path id="Trazado_194827-2" data-name="Trazado 194827" d="M10.5,54.443a1.113,1.113,0,1,0-1.113,1.114A1.113,1.113,0,0,0,10.5,54.443" transform="translate(2.028 -53.333)" fill="#7f4fc7"/>
          <path id="Trazado_194828-2" data-name="Trazado 194828" d="M18.773,54.443a1.113,1.113,0,1,0-1.113,1.114,1.113,1.113,0,0,0,1.113-1.114" transform="translate(4.056 -53.333)" fill="#7f4fc7"/>
          <path id="Trazado_194829-2" data-name="Trazado 194829" d="M27.046,54.443a1.113,1.113,0,1,0-1.113,1.114,1.113,1.113,0,0,0,1.113-1.114" transform="translate(6.083 -53.333)" fill="#7f4fc7"/>
          <path id="Trazado_194830-2" data-name="Trazado 194830" d="M35.318,54.443A1.113,1.113,0,1,0,34.2,55.558a1.113,1.113,0,0,0,1.113-1.114" transform="translate(8.111 -53.333)" fill="#7f4fc7"/>
          <path id="Trazado_194831-2" data-name="Trazado 194831" d="M43.587,54.443a1.113,1.113,0,1,0-1.113,1.114,1.113,1.113,0,0,0,1.113-1.114" transform="translate(10.139 -53.333)" fill="#7f4fc7"/>
          <path id="Trazado_194832-2" data-name="Trazado 194832" d="M51.863,54.443a1.113,1.113,0,1,0-1.113,1.114,1.113,1.113,0,0,0,1.113-1.114" transform="translate(12.167 -53.333)" fill="#7f4fc7"/>
          <path id="Trazado_194833-2" data-name="Trazado 194833" d="M60.136,54.443a1.113,1.113,0,1,0-1.113,1.114,1.113,1.113,0,0,0,1.113-1.114" transform="translate(14.194 -53.333)" fill="#7f4fc7"/>
          <path id="Trazado_194834-2" data-name="Trazado 194834" d="M68.409,54.443A1.113,1.113,0,1,0,67.3,55.558a1.113,1.113,0,0,0,1.113-1.114" transform="translate(16.222 -53.333)" fill="#7f4fc7"/>
          <path id="Trazado_194835-2" data-name="Trazado 194835" d="M2.228,62.719a1.112,1.112,0,1,0-.326.788,1.113,1.113,0,0,0,.326-.788" transform="translate(0 -51.305)" fill="#7f4fc7"/>
          <path id="Trazado_194836-2" data-name="Trazado 194836" d="M10.5,62.719a1.112,1.112,0,1,0-.326.788,1.113,1.113,0,0,0,.326-.788" transform="translate(2.028 -51.305)" fill="#7f4fc7"/>
          <path id="Trazado_194837-2" data-name="Trazado 194837" d="M18.773,62.719a1.112,1.112,0,1,0-.326.788,1.113,1.113,0,0,0,.326-.788" transform="translate(4.056 -51.305)" fill="#7f4fc7"/>
          <path id="Trazado_194838-2" data-name="Trazado 194838" d="M27.046,62.719a1.112,1.112,0,1,0-.326.788,1.113,1.113,0,0,0,.326-.788" transform="translate(6.083 -51.305)" fill="#7f4fc7"/>
          <path id="Trazado_194839-2" data-name="Trazado 194839" d="M35.318,62.719a1.112,1.112,0,1,0-.326.788,1.113,1.113,0,0,0,.326-.788" transform="translate(8.111 -51.305)" fill="#7f4fc7"/>
          <path id="Trazado_194840-2" data-name="Trazado 194840" d="M43.587,62.719a1.112,1.112,0,1,0-.326.788,1.113,1.113,0,0,0,.326-.788" transform="translate(10.139 -51.305)" fill="#7f4fc7"/>
          <path id="Trazado_194841-2" data-name="Trazado 194841" d="M51.863,62.719a1.112,1.112,0,1,0-.326.788,1.113,1.113,0,0,0,.326-.788" transform="translate(12.167 -51.305)" fill="#7f4fc7"/>
          <path id="Trazado_194842-2" data-name="Trazado 194842" d="M60.136,62.719a1.113,1.113,0,1,0-1.113,1.113,1.113,1.113,0,0,0,1.113-1.113" transform="translate(14.194 -51.305)" fill="#7f4fc7"/>
          <path id="Trazado_194843-2" data-name="Trazado 194843" d="M68.409,62.719a1.112,1.112,0,1,0-.326.788,1.113,1.113,0,0,0,.326-.788" transform="translate(16.222 -51.305)" fill="#7f4fc7"/>
          <path id="Trazado_194844-2" data-name="Trazado 194844" d="M2.228,70.992a1.112,1.112,0,1,0-.326.788,1.113,1.113,0,0,0,.326-.788" transform="translate(0 -49.277)" fill="#7f4fc7"/>
          <path id="Trazado_194845-2" data-name="Trazado 194845" d="M10.5,70.992a1.112,1.112,0,1,0-.326.788,1.113,1.113,0,0,0,.326-.788" transform="translate(2.028 -49.277)" fill="#7f4fc7"/>
          <path id="Trazado_194846-2" data-name="Trazado 194846" d="M18.773,70.992a1.112,1.112,0,1,0-.326.788,1.113,1.113,0,0,0,.326-.788" transform="translate(4.056 -49.277)" fill="#7f4fc7"/>
          <path id="Trazado_194847-2" data-name="Trazado 194847" d="M27.046,70.992a1.112,1.112,0,1,0-.326.788,1.113,1.113,0,0,0,.326-.788" transform="translate(6.083 -49.277)" fill="#7f4fc7"/>
          <path id="Trazado_194848-2" data-name="Trazado 194848" d="M35.318,70.992a1.112,1.112,0,1,0-.326.788,1.113,1.113,0,0,0,.326-.788" transform="translate(8.111 -49.277)" fill="#7f4fc7"/>
          <path id="Trazado_194849-2" data-name="Trazado 194849" d="M43.587,70.992a1.112,1.112,0,1,0-.326.788,1.113,1.113,0,0,0,.326-.788" transform="translate(10.139 -49.277)" fill="#7f4fc7"/>
          <path id="Trazado_194850-2" data-name="Trazado 194850" d="M51.863,70.992a1.112,1.112,0,1,0-.326.788,1.113,1.113,0,0,0,.326-.788" transform="translate(12.167 -49.277)" fill="#7f4fc7"/>
          <path id="Trazado_194851-2" data-name="Trazado 194851" d="M60.136,70.992a1.113,1.113,0,1,0-1.113,1.113,1.113,1.113,0,0,0,1.113-1.113" transform="translate(14.194 -49.277)" fill="#7f4fc7"/>
          <path id="Trazado_194852-2" data-name="Trazado 194852" d="M68.409,70.992a1.112,1.112,0,1,0-.326.788,1.113,1.113,0,0,0,.326-.788" transform="translate(16.222 -49.277)" fill="#7f4fc7"/>
          <path id="Trazado_194853-2" data-name="Trazado 194853" d="M2.228,79.264a1.112,1.112,0,1,0-.326.788,1.113,1.113,0,0,0,.326-.788" transform="translate(0 -47.25)" fill="#7f4fc7"/>
          <path id="Trazado_194854-2" data-name="Trazado 194854" d="M10.5,79.264a1.112,1.112,0,1,0-.326.788,1.113,1.113,0,0,0,.326-.788" transform="translate(2.028 -47.25)" fill="#7f4fc7"/>
          <path id="Trazado_194855-2" data-name="Trazado 194855" d="M18.773,79.264a1.112,1.112,0,1,0-.326.788,1.113,1.113,0,0,0,.326-.788" transform="translate(4.056 -47.25)" fill="#7f4fc7"/>
          <path id="Trazado_194856-2" data-name="Trazado 194856" d="M27.046,79.264a1.112,1.112,0,1,0-.326.788,1.113,1.113,0,0,0,.326-.788" transform="translate(6.083 -47.25)" fill="#7f4fc7"/>
          <path id="Trazado_194857-2" data-name="Trazado 194857" d="M35.318,79.264a1.112,1.112,0,1,0-.326.788,1.113,1.113,0,0,0,.326-.788" transform="translate(8.111 -47.25)" fill="#7f4fc7"/>
          <path id="Trazado_194858-2" data-name="Trazado 194858" d="M43.587,79.264a1.112,1.112,0,1,0-.326.788,1.113,1.113,0,0,0,.326-.788" transform="translate(10.139 -47.25)" fill="#7f4fc7"/>
          <path id="Trazado_194859-2" data-name="Trazado 194859" d="M51.863,79.264a1.112,1.112,0,1,0-.326.788,1.113,1.113,0,0,0,.326-.788" transform="translate(12.167 -47.25)" fill="#7f4fc7"/>
          <path id="Trazado_194860-2" data-name="Trazado 194860" d="M60.136,79.264a1.113,1.113,0,1,0-1.113,1.113,1.113,1.113,0,0,0,1.113-1.113" transform="translate(14.194 -47.25)" fill="#7f4fc7"/>
          <path id="Trazado_194861-2" data-name="Trazado 194861" d="M68.409,79.264a1.112,1.112,0,1,0-.326.788,1.113,1.113,0,0,0,.326-.788" transform="translate(16.222 -47.25)" fill="#7f4fc7"/>
          <path id="Trazado_194862-2" data-name="Trazado 194862" d="M2.228,87.537a1.112,1.112,0,1,0-.325.788,1.113,1.113,0,0,0,.325-.788" transform="translate(0 -45.222)" fill="#7f4fc7"/>
          <path id="Trazado_194863-2" data-name="Trazado 194863" d="M10.5,87.537a1.112,1.112,0,1,0-.325.788,1.113,1.113,0,0,0,.325-.788" transform="translate(2.028 -45.222)" fill="#7f4fc7"/>
          <path id="Trazado_194864-2" data-name="Trazado 194864" d="M18.773,87.537a1.112,1.112,0,1,0-.325.788,1.113,1.113,0,0,0,.325-.788" transform="translate(4.056 -45.222)" fill="#7f4fc7"/>
          <path id="Trazado_194865-2" data-name="Trazado 194865" d="M27.046,87.537a1.112,1.112,0,1,0-.325.788,1.113,1.113,0,0,0,.325-.788" transform="translate(6.083 -45.222)" fill="#7f4fc7"/>
          <path id="Trazado_194866-2" data-name="Trazado 194866" d="M35.318,87.537a1.112,1.112,0,1,0-.325.788,1.113,1.113,0,0,0,.325-.788" transform="translate(8.111 -45.222)" fill="#7f4fc7"/>
          <path id="Trazado_194867-2" data-name="Trazado 194867" d="M43.587,87.537a1.112,1.112,0,1,0-.325.788,1.113,1.113,0,0,0,.325-.788" transform="translate(10.139 -45.222)" fill="#7f4fc7"/>
          <path id="Trazado_194868-2" data-name="Trazado 194868" d="M51.863,87.537a1.112,1.112,0,1,0-.325.788,1.113,1.113,0,0,0,.325-.788" transform="translate(12.167 -45.222)" fill="#7f4fc7"/>
          <path id="Trazado_194869-2" data-name="Trazado 194869" d="M60.136,87.537a1.113,1.113,0,1,0-1.113,1.114,1.113,1.113,0,0,0,1.113-1.114" transform="translate(14.194 -45.222)" fill="#7f4fc7"/>
          <path id="Trazado_194870-2" data-name="Trazado 194870" d="M68.409,87.537a1.112,1.112,0,1,0-.325.788,1.113,1.113,0,0,0,.325-.788" transform="translate(16.222 -45.222)" fill="#7f4fc7"/>
          <path id="Trazado_194871-2" data-name="Trazado 194871" d="M2.228,95.81A1.112,1.112,0,1,0,1.9,96.6a1.113,1.113,0,0,0,.326-.788" transform="translate(0 -43.194)" fill="#7f4fc7"/>
          <path id="Trazado_194872-2" data-name="Trazado 194872" d="M10.5,95.81a1.112,1.112,0,1,0-.326.788,1.113,1.113,0,0,0,.326-.788" transform="translate(2.028 -43.194)" fill="#7f4fc7"/>
          <path id="Trazado_194873-2" data-name="Trazado 194873" d="M18.773,95.81a1.112,1.112,0,1,0-.326.788,1.113,1.113,0,0,0,.326-.788" transform="translate(4.056 -43.194)" fill="#7f4fc7"/>
          <path id="Trazado_194874-2" data-name="Trazado 194874" d="M27.046,95.81a1.112,1.112,0,1,0-.326.788,1.113,1.113,0,0,0,.326-.788" transform="translate(6.083 -43.194)" fill="#7f4fc7"/>
          <path id="Trazado_194875-2" data-name="Trazado 194875" d="M35.318,95.81a1.112,1.112,0,1,0-.326.788,1.113,1.113,0,0,0,.326-.788" transform="translate(8.111 -43.194)" fill="#7f4fc7"/>
          <path id="Trazado_194876-2" data-name="Trazado 194876" d="M43.587,95.81a1.112,1.112,0,1,0-.326.788,1.113,1.113,0,0,0,.326-.788" transform="translate(10.139 -43.194)" fill="#7f4fc7"/>
          <path id="Trazado_194877-2" data-name="Trazado 194877" d="M51.863,95.81a1.112,1.112,0,1,0-.326.788,1.113,1.113,0,0,0,.326-.788" transform="translate(12.167 -43.194)" fill="#7f4fc7"/>
          <path id="Trazado_194878-2" data-name="Trazado 194878" d="M60.136,95.81a1.113,1.113,0,1,0-1.113,1.113,1.113,1.113,0,0,0,1.113-1.113" transform="translate(14.194 -43.194)" fill="#7f4fc7"/>
          <path id="Trazado_194879-2" data-name="Trazado 194879" d="M68.409,95.81a1.112,1.112,0,1,0-.326.788,1.113,1.113,0,0,0,.326-.788" transform="translate(16.222 -43.194)" fill="#7f4fc7"/>
          <path id="Trazado_194880-2" data-name="Trazado 194880" d="M2.228,104.082a1.112,1.112,0,1,0-.326.788,1.113,1.113,0,0,0,.326-.788" transform="translate(0 -41.166)" fill="#7f4fc7"/>
          <path id="Trazado_194881-2" data-name="Trazado 194881" d="M10.5,104.082a1.112,1.112,0,1,0-.326.788,1.113,1.113,0,0,0,.326-.788" transform="translate(2.028 -41.166)" fill="#7f4fc7"/>
          <path id="Trazado_194882-2" data-name="Trazado 194882" d="M18.773,104.082a1.112,1.112,0,1,0-.326.788,1.113,1.113,0,0,0,.326-.788" transform="translate(4.056 -41.166)" fill="#7f4fc7"/>
          <path id="Trazado_194883-2" data-name="Trazado 194883" d="M27.046,104.082a1.112,1.112,0,1,0-.326.788,1.113,1.113,0,0,0,.326-.788" transform="translate(6.083 -41.166)" fill="#7f4fc7"/>
          <path id="Trazado_194884-2" data-name="Trazado 194884" d="M35.318,104.082a1.112,1.112,0,1,0-.326.788,1.113,1.113,0,0,0,.326-.788" transform="translate(8.111 -41.166)" fill="#7f4fc7"/>
          <path id="Trazado_194885-2" data-name="Trazado 194885" d="M43.587,104.082a1.112,1.112,0,1,0-.326.788,1.113,1.113,0,0,0,.326-.788" transform="translate(10.139 -41.166)" fill="#7f4fc7"/>
          <path id="Trazado_194886-2" data-name="Trazado 194886" d="M51.863,104.082a1.112,1.112,0,1,0-.326.788,1.113,1.113,0,0,0,.326-.788" transform="translate(12.167 -41.166)" fill="#7f4fc7"/>
          <path id="Trazado_194887-2" data-name="Trazado 194887" d="M60.136,104.082a1.113,1.113,0,1,0-1.113,1.113,1.113,1.113,0,0,0,1.113-1.113" transform="translate(14.194 -41.166)" fill="#7f4fc7"/>
          <path id="Trazado_194888-2" data-name="Trazado 194888" d="M68.409,104.082a1.112,1.112,0,1,0-.326.788,1.113,1.113,0,0,0,.326-.788" transform="translate(16.222 -41.166)" fill="#7f4fc7"/>
          <path id="Trazado_194889-2" data-name="Trazado 194889" d="M2.228,112.355a1.112,1.112,0,1,0-.326.788,1.113,1.113,0,0,0,.326-.788" transform="translate(0 -39.138)" fill="#7f4fc7"/>
          <path id="Trazado_194890-2" data-name="Trazado 194890" d="M10.5,112.355a1.112,1.112,0,1,0-.326.788,1.113,1.113,0,0,0,.326-.788" transform="translate(2.028 -39.138)" fill="#7f4fc7"/>
          <path id="Trazado_194891-2" data-name="Trazado 194891" d="M18.773,112.355a1.112,1.112,0,1,0-.326.788,1.113,1.113,0,0,0,.326-.788" transform="translate(4.056 -39.138)" fill="#7f4fc7"/>
          <path id="Trazado_194892-2" data-name="Trazado 194892" d="M27.046,112.355a1.112,1.112,0,1,0-.326.788,1.113,1.113,0,0,0,.326-.788" transform="translate(6.083 -39.138)" fill="#7f4fc7"/>
          <path id="Trazado_194893-2" data-name="Trazado 194893" d="M35.318,112.355a1.112,1.112,0,1,0-.326.788,1.113,1.113,0,0,0,.326-.788" transform="translate(8.111 -39.138)" fill="#7f4fc7"/>
          <path id="Trazado_194894-2" data-name="Trazado 194894" d="M43.587,112.355a1.112,1.112,0,1,0-.326.788,1.113,1.113,0,0,0,.326-.788" transform="translate(10.139 -39.138)" fill="#7f4fc7"/>
          <path id="Trazado_194895-2" data-name="Trazado 194895" d="M51.863,112.355a1.112,1.112,0,1,0-.326.788,1.113,1.113,0,0,0,.326-.788" transform="translate(12.167 -39.138)" fill="#7f4fc7"/>
          <path id="Trazado_194896-2" data-name="Trazado 194896" d="M60.136,112.355a1.113,1.113,0,1,0-1.113,1.113,1.113,1.113,0,0,0,1.113-1.113" transform="translate(14.194 -39.138)" fill="#7f4fc7"/>
          <path id="Trazado_194897-2" data-name="Trazado 194897" d="M68.409,112.355a1.112,1.112,0,1,0-.326.788,1.113,1.113,0,0,0,.326-.788" transform="translate(16.222 -39.138)" fill="#7f4fc7"/>
          <path id="Trazado_194898-2" data-name="Trazado 194898" d="M2.228,120.627a1.112,1.112,0,1,0-.326.788,1.113,1.113,0,0,0,.326-.788" transform="translate(0 -37.111)" fill="#7f4fc7"/>
          <path id="Trazado_194899-2" data-name="Trazado 194899" d="M10.5,120.627a1.112,1.112,0,1,0-.326.788,1.113,1.113,0,0,0,.326-.788" transform="translate(2.028 -37.111)" fill="#7f4fc7"/>
          <path id="Trazado_194900-2" data-name="Trazado 194900" d="M18.773,120.627a1.112,1.112,0,1,0-.326.788,1.113,1.113,0,0,0,.326-.788" transform="translate(4.056 -37.111)" fill="#7f4fc7"/>
          <path id="Trazado_194901-2" data-name="Trazado 194901" d="M27.046,120.627a1.112,1.112,0,1,0-.326.788,1.113,1.113,0,0,0,.326-.788" transform="translate(6.083 -37.111)" fill="#7f4fc7"/>
          <path id="Trazado_194902-2" data-name="Trazado 194902" d="M35.318,120.627a1.112,1.112,0,1,0-.326.788,1.113,1.113,0,0,0,.326-.788" transform="translate(8.111 -37.111)" fill="#7f4fc7"/>
          <path id="Trazado_194903-2" data-name="Trazado 194903" d="M43.587,120.627a1.112,1.112,0,1,0-.326.788,1.113,1.113,0,0,0,.326-.788" transform="translate(10.139 -37.111)" fill="#7f4fc7"/>
          <path id="Trazado_194904-2" data-name="Trazado 194904" d="M51.863,120.627a1.112,1.112,0,1,0-.326.788,1.113,1.113,0,0,0,.326-.788" transform="translate(12.167 -37.111)" fill="#7f4fc7"/>
          <path id="Trazado_194905-2" data-name="Trazado 194905" d="M60.136,120.627a1.113,1.113,0,1,0-1.113,1.113,1.113,1.113,0,0,0,1.113-1.113" transform="translate(14.194 -37.111)" fill="#7f4fc7"/>
          <path id="Trazado_194906-2" data-name="Trazado 194906" d="M68.409,120.627a1.112,1.112,0,1,0-.326.788,1.113,1.113,0,0,0,.326-.788" transform="translate(16.222 -37.111)" fill="#7f4fc7"/>
        </g>
      </g>
      <g id="Grupo_155254" data-name="Grupo 155254" transform="translate(29.69 403.11)">
        <g id="Grupo_154318" data-name="Grupo 154318">
          <g id="Grupo_154315" data-name="Grupo 154315" transform="translate(32.747 9.551)">
            <path id="Trazado_195058" data-name="Trazado 195058" d="M14.017,225.789H54.543a1.523,1.523,0,0,0,0-3.038H14.017a1.523,1.523,0,1,0,0,3.038" transform="translate(-12.394 -222.747)" fill="#12263f"/>
            <path id="Trazado_195059" data-name="Trazado 195059" d="M83.974,225.789H94.206a1.523,1.523,0,0,0,0-3.038H83.974a1.523,1.523,0,1,0,0,3.038" transform="translate(-35.06 -222.747)" fill="#12263f"/>
            <path id="Trazado_195064" data-name="Trazado 195064" d="M112.811,232.612H84.346a1.067,1.067,0,1,0,0,2.134h28.469a1.067,1.067,0,1,0,0-2.134" transform="translate(-35.33 -225.943)" fill="#12263f"/>
            <path id="Trazado_195065" data-name="Trazado 195065" d="M73.867,232.612H66.681a1.067,1.067,0,1,0,0,2.134h7.186a1.067,1.067,0,1,0,0-2.134" transform="translate(-29.607 -225.943)" fill="#12263f"/>
          </g>
          <g id="Grupo_154316" data-name="Grupo 154316">
            <path id="Trazado_195062" data-name="Trazado 195062" d="M161.607,1.333H113.762c-.991,0-1.793.476-1.793,1.067s.8,1.068,1.793,1.068h47.845c.991,0,1.794-.476,1.794-1.068s-.8-1.067-1.794-1.067" transform="translate(-80.777 -1.333)" fill="#12263f"/>
            <path id="Trazado_195063" data-name="Trazado 195063" d="M115.873,1.333H97.1c-1.541,0-2.787.476-2.787,1.067S95.556,3.467,97.1,3.467h18.777c1.541,0,2.787-.476,2.787-1.068s-1.247-1.067-2.787-1.067" transform="translate(-94.309 -1.333)" fill="#12263f"/>
          </g>
        </g>
      </g>
      <g id="Grupo_154801" data-name="Grupo 154801" transform="translate(0.93 386.815)">
        <g id="Grupo_154721" data-name="Grupo 154721" clip-path="url(#clip-path-3)">
          <line id="Línea_1878" data-name="Línea 1878" x1="21.605" y2="101.839" transform="translate(61.14 29.463)" fill="none" stroke="#1e0b4a" stroke-linecap="round" stroke-linejoin="round" stroke-width="1.052"/>
          <path id="Trazado_196481" data-name="Trazado 196481" d="M238.009,274.732a8.116,8.116,0,1,1-8.116-8.116,8.116,8.116,0,0,1,8.116,8.116" transform="translate(-147.148 -245.268)" fill="#ffc811"/>
          <path id="Trazado_196482" data-name="Trazado 196482" d="M250.969,334.8c-8.993,25.883-37.317,39.553-37.317,39.553s-13.743-28.29-4.749-54.171,37.317-39.552,37.317-39.552,13.743,28.289,4.749,54.17" transform="translate(-144.709 -243.048)" fill="#afbefc"/>
          <path id="Trazado_196483" data-name="Trazado 196483" d="M294.477,324.773c4.17,39.347-24.428,74.631-24.428,74.631s-35.357-28.508-39.526-67.855,24.429-74.631,24.429-74.631,35.356,28.508,39.525,67.855" transform="translate(-213.683 -246.805)" fill="#ffc811"/>
          <path id="Trazado_196484" data-name="Trazado 196484" d="M301.225,323.107A14.827,14.827,0,1,1,286.4,308.28a14.827,14.827,0,0,1,14.827,14.827" transform="translate(-268.053 -238.666)" fill="#1e2ad5"/>
          <line id="Línea_1879" data-name="Línea 1879" x2="14.585" y2="137.648" transform="translate(41.781 14.95)" fill="none" stroke="#1e0b4a" stroke-linecap="round" stroke-linejoin="round" stroke-width="1.052"/>
          <line id="Línea_1880" data-name="Línea 1880" y1="17.929" x2="27.876" transform="translate(50.522 79.509)" fill="none" stroke="#1e0b4a" stroke-linecap="round" stroke-linejoin="round" stroke-width="1.052"/>
          <line id="Línea_1881" data-name="Línea 1881" x1="23.957" y1="12.551" transform="translate(22.858 49.911)" fill="none" stroke="#1e0b4a" stroke-linecap="round" stroke-linejoin="round" stroke-width="1.052"/>
          <line id="Línea_1882" data-name="Línea 1882" x2="26.068" y2="53.467" transform="translate(18.345 84.441)" fill="none" stroke="#1e0b4a" stroke-linecap="round" stroke-linejoin="round" stroke-width="1.052"/>
        </g>
      </g>
      <g id="Grupo_155255" data-name="Grupo 155255" transform="translate(0.931 23.371)">
        <g id="Grupo_154317" data-name="Grupo 154317">
          <g id="Grupo_154315-2" data-name="Grupo 154315" transform="translate(47.652 8.224)">
            <path id="Trazado_195058-2" data-name="Trazado 195058" d="M14.7,227.158H73.5a2.2,2.2,0,1,0,0-4.407H14.7a2.2,2.2,0,1,0,0,4.407" transform="translate(-12.5 -222.751)" fill="#050c68"/>
            <path id="Trazado_195059-2" data-name="Trazado 195059" d="M84.665,227.158H99.51a2.2,2.2,0,1,0,0-4.407H84.665a2.2,2.2,0,1,0,0,4.407" transform="translate(-13.851 -222.751)" fill="#050c68"/>
            <path id="Trazado_195064-2" data-name="Trazado 195064" d="M126.12,232.612h-41.3a1.548,1.548,0,1,0,0,3.1h41.3a1.548,1.548,0,0,0,0-3.1" transform="translate(-13.866 -222.941)" fill="#050c68"/>
            <path id="Trazado_195065-2" data-name="Trazado 195065" d="M77.591,232.612H67.161a1.548,1.548,0,1,0,0,3.1H77.591a1.548,1.548,0,0,0,0-3.1" transform="translate(-13.525 -222.941)" fill="#050c68"/>
          </g>
          <g id="Grupo_154316-2" data-name="Grupo 154316">
            <path id="Trazado_195062-2" data-name="Trazado 195062" d="M183.977,1.333h-69.41c-1.437,0-2.6.694-2.6,1.547s1.164,1.548,2.6,1.548h69.408c1.437,0,2.6-.694,2.6-1.548s-1.166-1.547-2.6-1.547" transform="translate(-66.719 -1.333)" fill="#050c68"/>
            <path id="Trazado_195063-2" data-name="Trazado 195063" d="M125.591,1.333H98.352c-2.234,0-4.043.694-4.043,1.547s1.808,1.548,4.043,1.548h27.239c2.234,0,4.043-.694,4.043-1.548s-1.808-1.547-4.043-1.547" transform="translate(-94.309 -1.333)" fill="#050c68"/>
          </g>
        </g>
      </g>
      <g id="Grupo_155256" data-name="Grupo 155256" transform="translate(200.263 155.617)">
        <path id="Rectángulo_45220" data-name="Rectángulo 45220" d="M0,0H106.857V25.376H0Z" transform="translate(48.291) rotate(90)" fill="#ffc811"/>
        <rect id="Rectángulo_45221" data-name="Rectángulo 45221" width="3.287" height="3.287" transform="translate(0 23.055) rotate(-90)" fill="#afbefc"/>
        <rect id="Rectángulo_45222" data-name="Rectángulo 45222" width="3.287" height="3.287" transform="translate(0 30.038) rotate(-90)" fill="#afbefc"/>
        <rect id="Rectángulo_45223" data-name="Rectángulo 45223" width="3.287" height="3.287" transform="translate(0 37.022) rotate(-90)" fill="#afbefc"/>
        <rect id="Rectángulo_45224" data-name="Rectángulo 45224" width="3.286" height="3.287" transform="translate(0 44.005) rotate(-90)" fill="#afbefc"/>
        <rect id="Rectángulo_45225" data-name="Rectángulo 45225" width="3.287" height="3.287" transform="translate(0 50.989) rotate(-90)" fill="#afbefc"/>
        <rect id="Rectángulo_45226" data-name="Rectángulo 45226" width="3.286" height="3.287" transform="translate(0 57.972) rotate(-90)" fill="#afbefc"/>
        <rect id="Rectángulo_45227" data-name="Rectángulo 45227" width="3.287" height="3.287" transform="translate(0 64.955) rotate(-90)" fill="#afbefc"/>
        <rect id="Rectángulo_45228" data-name="Rectángulo 45228" width="3.286" height="3.287" transform="translate(0 71.939) rotate(-90)" fill="#afbefc"/>
        <rect id="Rectángulo_45229" data-name="Rectángulo 45229" width="3.287" height="3.287" transform="translate(0 78.923) rotate(-90)" fill="#afbefc"/>
        <rect id="Rectángulo_46135" data-name="Rectángulo 46135" width="3.287" height="3.287" transform="translate(0 99.873) rotate(-90)" fill="#afbefc"/>
        <rect id="Rectángulo_46159" data-name="Rectángulo 46159" width="3.287" height="3.287" transform="translate(0 120.824) rotate(-90)" fill="#afbefc"/>
        <rect id="Rectángulo_45230" data-name="Rectángulo 45230" width="3.287" height="3.287" transform="translate(0 85.906) rotate(-90)" fill="#afbefc"/>
        <rect id="Rectángulo_46125" data-name="Rectángulo 46125" width="3.287" height="3.287" transform="translate(0 106.857) rotate(-90)" fill="#afbefc"/>
        <rect id="Rectángulo_46160" data-name="Rectángulo 46160" width="3.287" height="3.287" transform="translate(0 127.807) rotate(-90)" fill="#afbefc"/>
        <rect id="Rectángulo_46168" data-name="Rectángulo 46168" width="3.287" height="3.287" transform="translate(0 141.773) rotate(-90)" fill="#afbefc"/>
        <rect id="Rectángulo_45231" data-name="Rectángulo 45231" width="3.287" height="3.287" transform="translate(0 92.889) rotate(-90)" fill="#afbefc"/>
        <rect id="Rectángulo_46123" data-name="Rectángulo 46123" width="3.287" height="3.287" transform="translate(0 113.84) rotate(-90)" fill="#afbefc"/>
        <rect id="Rectángulo_46161" data-name="Rectángulo 46161" width="3.287" height="3.287" transform="translate(0 134.79) rotate(-90)" fill="#afbefc"/>
        <rect id="Rectángulo_46162" data-name="Rectángulo 46162" width="3.287" height="3.287" transform="translate(0 148.757) rotate(-90)" fill="#afbefc"/>
        <rect id="Rectángulo_45232" data-name="Rectángulo 45232" width="3.287" height="3.287" transform="translate(6.984 23.055) rotate(-90)" fill="#afbefc"/>
        <rect id="Rectángulo_45233" data-name="Rectángulo 45233" width="3.287" height="3.287" transform="translate(6.984 30.038) rotate(-90)" fill="#afbefc"/>
        <rect id="Rectángulo_45234" data-name="Rectángulo 45234" width="3.287" height="3.287" transform="translate(6.984 37.022) rotate(-90)" fill="#afbefc"/>
        <rect id="Rectángulo_45235" data-name="Rectángulo 45235" width="3.286" height="3.287" transform="translate(6.984 44.005) rotate(-90)" fill="#afbefc"/>
        <rect id="Rectángulo_45236" data-name="Rectángulo 45236" width="3.287" height="3.287" transform="translate(6.984 50.989) rotate(-90)" fill="#afbefc"/>
        <rect id="Rectángulo_45237" data-name="Rectángulo 45237" width="3.286" height="3.287" transform="translate(6.984 57.972) rotate(-90)" fill="#afbefc"/>
        <rect id="Rectángulo_45238" data-name="Rectángulo 45238" width="3.287" height="3.287" transform="translate(6.984 64.955) rotate(-90)" fill="#afbefc"/>
        <rect id="Rectángulo_45239" data-name="Rectángulo 45239" width="3.286" height="3.287" transform="translate(6.984 71.939) rotate(-90)" fill="#afbefc"/>
        <rect id="Rectángulo_45240" data-name="Rectángulo 45240" width="3.287" height="3.287" transform="translate(6.984 78.923) rotate(-90)" fill="#afbefc"/>
        <rect id="Rectángulo_46136" data-name="Rectángulo 46136" width="3.287" height="3.287" transform="translate(6.984 99.873) rotate(-90)" fill="#afbefc"/>
        <rect id="Rectángulo_46156" data-name="Rectángulo 46156" width="3.287" height="3.287" transform="translate(6.984 120.824) rotate(-90)" fill="#afbefc"/>
        <rect id="Rectángulo_45241" data-name="Rectángulo 45241" width="3.287" height="3.287" transform="translate(6.984 85.906) rotate(-90)" fill="#afbefc"/>
        <rect id="Rectángulo_46126" data-name="Rectángulo 46126" width="3.287" height="3.287" transform="translate(6.984 106.857) rotate(-90)" fill="#afbefc"/>
        <rect id="Rectángulo_46157" data-name="Rectángulo 46157" width="3.287" height="3.287" transform="translate(6.984 127.807) rotate(-90)" fill="#afbefc"/>
        <rect id="Rectángulo_46169" data-name="Rectángulo 46169" width="3.287" height="3.287" transform="translate(6.984 141.773) rotate(-90)" fill="#afbefc"/>
        <rect id="Rectángulo_45242" data-name="Rectángulo 45242" width="3.287" height="3.287" transform="translate(6.984 92.889) rotate(-90)" fill="#afbefc"/>
        <rect id="Rectángulo_46124" data-name="Rectángulo 46124" width="3.287" height="3.287" transform="translate(6.984 113.84) rotate(-90)" fill="#afbefc"/>
        <rect id="Rectángulo_46158" data-name="Rectángulo 46158" width="3.287" height="3.287" transform="translate(6.984 134.79) rotate(-90)" fill="#afbefc"/>
        <rect id="Rectángulo_46163" data-name="Rectángulo 46163" width="3.287" height="3.287" transform="translate(6.984 148.757) rotate(-90)" fill="#afbefc"/>
        <rect id="Rectángulo_45243" data-name="Rectángulo 45243" width="3.287" height="3.287" transform="translate(12.856 23.055) rotate(-90)" fill="#afbefc"/>
        <rect id="Rectángulo_45244" data-name="Rectángulo 45244" width="3.287" height="3.287" transform="translate(12.856 30.038) rotate(-90)" fill="#afbefc"/>
        <rect id="Rectángulo_45245" data-name="Rectángulo 45245" width="3.287" height="3.287" transform="translate(12.856 37.022) rotate(-90)" fill="#afbefc"/>
        <rect id="Rectángulo_45246" data-name="Rectángulo 45246" width="3.286" height="3.287" transform="translate(12.856 44.005) rotate(-90)" fill="#afbefc"/>
        <rect id="Rectángulo_45247" data-name="Rectángulo 45247" width="3.287" height="3.287" transform="translate(12.856 50.989) rotate(-90)" fill="#afbefc"/>
        <rect id="Rectángulo_45248" data-name="Rectángulo 45248" width="3.286" height="3.287" transform="translate(12.856 57.972) rotate(-90)" fill="#afbefc"/>
        <rect id="Rectángulo_45249" data-name="Rectángulo 45249" width="3.287" height="3.287" transform="translate(12.856 64.955) rotate(-90)" fill="#afbefc"/>
        <rect id="Rectángulo_45250" data-name="Rectángulo 45250" width="3.286" height="3.287" transform="translate(12.856 71.939) rotate(-90)" fill="#afbefc"/>
        <rect id="Rectángulo_45251" data-name="Rectángulo 45251" width="3.287" height="3.287" transform="translate(12.856 78.923) rotate(-90)" fill="#afbefc"/>
        <rect id="Rectángulo_46137" data-name="Rectángulo 46137" width="3.287" height="3.287" transform="translate(12.856 99.873) rotate(-90)" fill="#afbefc"/>
        <rect id="Rectángulo_46146" data-name="Rectángulo 46146" width="3.287" height="3.287" transform="translate(12.856 120.824) rotate(-90)" fill="#afbefc"/>
        <rect id="Rectángulo_45252" data-name="Rectángulo 45252" width="3.287" height="3.287" transform="translate(12.856 85.906) rotate(-90)" fill="#afbefc"/>
        <rect id="Rectángulo_46127" data-name="Rectángulo 46127" width="3.287" height="3.287" transform="translate(12.856 106.857) rotate(-90)" fill="#afbefc"/>
        <rect id="Rectángulo_46147" data-name="Rectángulo 46147" width="3.287" height="3.287" transform="translate(12.856 127.807) rotate(-90)" fill="#afbefc"/>
        <rect id="Rectángulo_46170" data-name="Rectángulo 46170" width="3.287" height="3.287" transform="translate(12.856 141.773) rotate(-90)" fill="#afbefc"/>
        <rect id="Rectángulo_45253" data-name="Rectángulo 45253" width="3.287" height="3.287" transform="translate(12.856 92.889) rotate(-90)" fill="#afbefc"/>
        <rect id="Rectángulo_46128" data-name="Rectángulo 46128" width="3.287" height="3.287" transform="translate(12.856 113.84) rotate(-90)" fill="#afbefc"/>
        <rect id="Rectángulo_46148" data-name="Rectángulo 46148" width="3.287" height="3.287" transform="translate(12.856 134.79) rotate(-90)" fill="#afbefc"/>
        <rect id="Rectángulo_46164" data-name="Rectángulo 46164" width="3.287" height="3.287" transform="translate(12.856 148.757) rotate(-90)" fill="#afbefc"/>
        <rect id="Rectángulo_45221-2" data-name="Rectángulo 45221" width="3.287" height="3.287" transform="translate(18.747 23.055) rotate(-90)" fill="#afbefc"/>
        <rect id="Rectángulo_45222-2" data-name="Rectángulo 45222" width="3.287" height="3.287" transform="translate(18.747 30.038) rotate(-90)" fill="#afbefc"/>
        <rect id="Rectángulo_45223-2" data-name="Rectángulo 45223" width="3.287" height="3.287" transform="translate(18.747 37.022) rotate(-90)" fill="#afbefc"/>
        <rect id="Rectángulo_45224-2" data-name="Rectángulo 45224" width="3.286" height="3.287" transform="translate(18.747 44.005) rotate(-90)" fill="#afbefc"/>
        <rect id="Rectángulo_45225-2" data-name="Rectángulo 45225" width="3.287" height="3.287" transform="translate(18.747 50.989) rotate(-90)" fill="#afbefc"/>
        <rect id="Rectángulo_45226-2" data-name="Rectángulo 45226" width="3.286" height="3.287" transform="translate(18.747 57.972) rotate(-90)" fill="#afbefc"/>
        <rect id="Rectángulo_45227-2" data-name="Rectángulo 45227" width="3.287" height="3.287" transform="translate(18.747 64.955) rotate(-90)" fill="#afbefc"/>
        <rect id="Rectángulo_45228-2" data-name="Rectángulo 45228" width="3.286" height="3.287" transform="translate(18.747 71.939) rotate(-90)" fill="#afbefc"/>
        <rect id="Rectángulo_45229-2" data-name="Rectángulo 45229" width="3.287" height="3.287" transform="translate(18.747 78.923) rotate(-90)" fill="#afbefc"/>
        <rect id="Rectángulo_46138" data-name="Rectángulo 46138" width="3.287" height="3.287" transform="translate(18.747 99.873) rotate(-90)" fill="#afbefc"/>
        <rect id="Rectángulo_46149" data-name="Rectángulo 46149" width="3.287" height="3.287" transform="translate(18.747 120.824) rotate(-90)" fill="#afbefc"/>
        <rect id="Rectángulo_45230-2" data-name="Rectángulo 45230" width="3.287" height="3.287" transform="translate(18.747 85.906) rotate(-90)" fill="#afbefc"/>
        <rect id="Rectángulo_46129" data-name="Rectángulo 46129" width="3.287" height="3.287" transform="translate(18.747 106.857) rotate(-90)" fill="#afbefc"/>
        <rect id="Rectángulo_46150" data-name="Rectángulo 46150" width="3.287" height="3.287" transform="translate(18.747 127.807) rotate(-90)" fill="#afbefc"/>
        <rect id="Rectángulo_46171" data-name="Rectángulo 46171" width="3.287" height="3.287" transform="translate(18.747 141.773) rotate(-90)" fill="#afbefc"/>
        <rect id="Rectángulo_45231-2" data-name="Rectángulo 45231" width="3.287" height="3.287" transform="translate(18.747 92.889) rotate(-90)" fill="#afbefc"/>
        <rect id="Rectángulo_46130" data-name="Rectángulo 46130" width="3.287" height="3.287" transform="translate(18.747 113.84) rotate(-90)" fill="#afbefc"/>
        <rect id="Rectángulo_46151" data-name="Rectángulo 46151" width="3.287" height="3.287" transform="translate(18.747 134.79) rotate(-90)" fill="#afbefc"/>
        <rect id="Rectángulo_46165" data-name="Rectángulo 46165" width="3.287" height="3.287" transform="translate(18.747 148.757) rotate(-90)" fill="#afbefc"/>
        <rect id="Rectángulo_45232-2" data-name="Rectángulo 45232" width="3.287" height="3.287" transform="translate(25.175 23.055) rotate(-90)" fill="#afbefc"/>
        <rect id="Rectángulo_45233-2" data-name="Rectángulo 45233" width="3.287" height="3.287" transform="translate(25.175 30.038) rotate(-90)" fill="#afbefc"/>
        <rect id="Rectángulo_45234-2" data-name="Rectángulo 45234" width="3.287" height="3.287" transform="translate(25.175 37.022) rotate(-90)" fill="#afbefc"/>
        <rect id="Rectángulo_45235-2" data-name="Rectángulo 45235" width="3.286" height="3.287" transform="translate(25.175 44.005) rotate(-90)" fill="#afbefc"/>
        <rect id="Rectángulo_45236-2" data-name="Rectángulo 45236" width="3.287" height="3.287" transform="translate(25.175 50.989) rotate(-90)" fill="#afbefc"/>
        <rect id="Rectángulo_45237-2" data-name="Rectángulo 45237" width="3.286" height="3.287" transform="translate(25.175 57.972) rotate(-90)" fill="#afbefc"/>
        <rect id="Rectángulo_45238-2" data-name="Rectángulo 45238" width="3.287" height="3.287" transform="translate(25.175 64.955) rotate(-90)" fill="#afbefc"/>
        <rect id="Rectángulo_45239-2" data-name="Rectángulo 45239" width="3.286" height="3.287" transform="translate(25.175 71.939) rotate(-90)" fill="#afbefc"/>
        <rect id="Rectángulo_45240-2" data-name="Rectángulo 45240" width="3.287" height="3.287" transform="translate(25.175 78.923) rotate(-90)" fill="#afbefc"/>
        <rect id="Rectángulo_46139" data-name="Rectángulo 46139" width="3.287" height="3.287" transform="translate(25.175 99.873) rotate(-90)" fill="#afbefc"/>
        <rect id="Rectángulo_46152" data-name="Rectángulo 46152" width="3.287" height="3.287" transform="translate(25.175 120.824) rotate(-90)" fill="#afbefc"/>
        <rect id="Rectángulo_45241-2" data-name="Rectángulo 45241" width="3.287" height="3.287" transform="translate(25.175 85.906) rotate(-90)" fill="#afbefc"/>
        <rect id="Rectángulo_46131" data-name="Rectángulo 46131" width="3.287" height="3.287" transform="translate(25.175 106.857) rotate(-90)" fill="#afbefc"/>
        <rect id="Rectángulo_46153" data-name="Rectángulo 46153" width="3.287" height="3.287" transform="translate(25.175 127.807) rotate(-90)" fill="#afbefc"/>
        <rect id="Rectángulo_46172" data-name="Rectángulo 46172" width="3.287" height="3.287" transform="translate(25.175 141.773) rotate(-90)" fill="#afbefc"/>
        <rect id="Rectángulo_45242-2" data-name="Rectángulo 45242" width="3.287" height="3.287" transform="translate(25.175 92.889) rotate(-90)" fill="#afbefc"/>
        <rect id="Rectángulo_46132" data-name="Rectángulo 46132" width="3.287" height="3.287" transform="translate(25.175 113.84) rotate(-90)" fill="#afbefc"/>
        <rect id="Rectángulo_46154" data-name="Rectángulo 46154" width="3.287" height="3.287" transform="translate(25.175 134.79) rotate(-90)" fill="#afbefc"/>
        <rect id="Rectángulo_46166" data-name="Rectángulo 46166" width="3.287" height="3.287" transform="translate(25.175 148.757) rotate(-90)" fill="#afbefc"/>
        <rect id="Rectángulo_45243-2" data-name="Rectángulo 45243" width="3.287" height="3.287" transform="translate(31.603 23.055) rotate(-90)" fill="#afbefc"/>
        <rect id="Rectángulo_45244-2" data-name="Rectángulo 45244" width="3.287" height="3.287" transform="translate(31.603 30.038) rotate(-90)" fill="#afbefc"/>
        <rect id="Rectángulo_45245-2" data-name="Rectángulo 45245" width="3.287" height="3.287" transform="translate(31.603 37.022) rotate(-90)" fill="#afbefc"/>
        <rect id="Rectángulo_45246-2" data-name="Rectángulo 45246" width="3.286" height="3.287" transform="translate(31.603 44.005) rotate(-90)" fill="#afbefc"/>
        <rect id="Rectángulo_45247-2" data-name="Rectángulo 45247" width="3.287" height="3.287" transform="translate(31.603 50.989) rotate(-90)" fill="#afbefc"/>
        <rect id="Rectángulo_45248-2" data-name="Rectángulo 45248" width="3.286" height="3.287" transform="translate(31.603 57.972) rotate(-90)" fill="#afbefc"/>
        <rect id="Rectángulo_45249-2" data-name="Rectángulo 45249" width="3.287" height="3.287" transform="translate(31.603 64.955) rotate(-90)" fill="#afbefc"/>
        <rect id="Rectángulo_45250-2" data-name="Rectángulo 45250" width="3.286" height="3.287" transform="translate(31.603 71.939) rotate(-90)" fill="#afbefc"/>
        <rect id="Rectángulo_45251-2" data-name="Rectángulo 45251" width="3.287" height="3.287" transform="translate(31.603 78.923) rotate(-90)" fill="#afbefc"/>
        <rect id="Rectángulo_46140" data-name="Rectángulo 46140" width="3.287" height="3.287" transform="translate(31.603 99.873) rotate(-90)" fill="#afbefc"/>
        <rect id="Rectángulo_46144" data-name="Rectángulo 46144" width="3.287" height="3.287" transform="translate(31.603 120.824) rotate(-90)" fill="#afbefc"/>
        <rect id="Rectángulo_45252-2" data-name="Rectángulo 45252" width="3.287" height="3.287" transform="translate(31.603 85.906) rotate(-90)" fill="#afbefc"/>
        <rect id="Rectángulo_46133" data-name="Rectángulo 46133" width="3.287" height="3.287" transform="translate(31.603 106.857) rotate(-90)" fill="#afbefc"/>
        <rect id="Rectángulo_46145" data-name="Rectángulo 46145" width="3.287" height="3.287" transform="translate(31.603 127.807) rotate(-90)" fill="#afbefc"/>
        <rect id="Rectángulo_46173" data-name="Rectángulo 46173" width="3.287" height="3.287" transform="translate(31.603 141.773) rotate(-90)" fill="#afbefc"/>
        <rect id="Rectángulo_45253-2" data-name="Rectángulo 45253" width="3.287" height="3.287" transform="translate(31.603 92.889) rotate(-90)" fill="#afbefc"/>
        <rect id="Rectángulo_46134" data-name="Rectángulo 46134" width="3.287" height="3.287" transform="translate(31.603 113.84) rotate(-90)" fill="#afbefc"/>
        <rect id="Rectángulo_46155" data-name="Rectángulo 46155" width="3.287" height="3.287" transform="translate(31.603 134.79) rotate(-90)" fill="#afbefc"/>
        <rect id="Rectángulo_46167" data-name="Rectángulo 46167" width="3.287" height="3.287" transform="translate(31.603 148.757) rotate(-90)" fill="#afbefc"/>
      </g>
    </g>
    <g id="Group_1119008" data-name="Group 1119008" transform="translate(30.358 22.364)">
      <g id="Group_1119007" data-name="Group 1119007" transform="translate(0.001)" clip-path="url(#clip-path-4)">
        <path id="Path_921801" data-name="Path 921801" d="M109.972,17.336a29.409,29.409,0,0,0-1.491-8.054,10.973,10.973,0,0,0-1.994-3.574,10.868,10.868,0,0,0-3.357-2.445,32.5,32.5,0,0,0-4.485-1.931A9.145,9.145,0,0,0,94.726.841,13.291,13.291,0,0,0,88.8.064a15.451,15.451,0,0,0-7.853,3.394A65.192,65.192,0,0,0,68.748,16.48c-2,2.678-3.89,5.434-5.78,8.193a.639.639,0,0,0,.228.866.594.594,0,0,0,.487.057,86.229,86.229,0,0,0,6.692,6.779,16.617,16.617,0,0,0,3.775,2.665,16.321,16.321,0,0,0,4.609,1.307,48.959,48.959,0,0,0,19.032-.776,47.791,47.791,0,0,0,5.055-1.517c.832-.3,1.657-.623,2.47-.973a.638.638,0,0,0,.927-.162c.144-.22.28-.445.415-.672a2.373,2.373,0,0,0,.455-.6.637.637,0,0,0,.073-.335,26.531,26.531,0,0,0,2.786-13.976" transform="translate(13.632 0)" fill="#f6ae5c"/>
        <path id="Path_921802" data-name="Path 921802" d="M82.45,34.785q-4.55-4.163-8.98-8.456-4.408-4.271-8.69-8.666-4.3-4.417-8.48-8.957c-.685-.746-1.352-1.509-2.049-2.243A2.354,2.354,0,0,0,53.1,5.723a2.523,2.523,0,0,0-1.469.221,7.7,7.7,0,0,0-3.779,2.593,3.3,3.3,0,0,0-.475,2.355,12.5,12.5,0,0,0,1.11,2.889l.646,1.476L46.816,12.9l-4.5-4.591L40.061,6.011a18.232,18.232,0,0,0-2.115-2,3.75,3.75,0,0,0-4.595.09,5.817,5.817,0,0,0-2.126,4.744,24.857,24.857,0,0,0,.938,5.866c.459,1.926,1.008,3.832,1.626,5.713a106.286,106.286,0,0,0,4.483,11.2q.307.67.622,1.336a.611.611,0,0,0,.647.3,13.213,13.213,0,0,0,4.911,5.35C47.215,40.24,50.5,40.2,53.6,40.392c3.446.211,6.9.387,10.349.374a29.262,29.262,0,0,0,4.938-.32A15.733,15.733,0,0,0,73.193,38.9a21.68,21.68,0,0,1,4.466-1.923c1.566-.381,3.265-.28,4.663-1.2a.641.641,0,0,0,.128-1" transform="translate(6.77 0.709)" fill="#ffc811"/>
        <path id="Path_921803" data-name="Path 921803" d="M58.613,58.074S35.644,51.268,29.859,24.215c0,0,32.667,7.656,53.254,5.785s37.092-4.084,37.092-4.084-3.743,19.907-26.032,31.307Z" transform="translate(6.473 5.25)" fill="#f6ae5c"/>
        <path id="Path_921804" data-name="Path 921804" d="M55.826,66.227s5.055,14.118,15.512,17.429c0,0,7.843,2.789,13.769.174,0,0,8.541-4.008,6.1-15.861L88.419,56.641l-5.4-5.752-2.788-2.615-3.835-.7L71.513,47.4l-9.587,5.229s-4.705,1.394-4.879,2.963-1.22,10.632-1.22,10.632" transform="translate(12.103 10.277)" fill="#604553"/>
        <path id="Path_921805" data-name="Path 921805" d="M67.375,67.225a3.6,3.6,0,1,1-3.6-3.6,3.6,3.6,0,0,1,3.6,3.6" transform="translate(13.045 13.794)" fill="#4c243b"/>
        <path id="Path_921806" data-name="Path 921806" d="M81.86,66.168a3.6,3.6,0,1,1-3.6-3.6,3.6,3.6,0,0,1,3.6,3.6" transform="translate(16.185 13.564)" fill="#4c243b"/>
        <path id="Path_921807" data-name="Path 921807" d="M94.146,66.362a6.578,6.578,0,0,0-2.986-2.29,8.24,8.24,0,0,0-.082-5.662,5.331,5.331,0,0,0-4.2-3.2,4.393,4.393,0,0,0-.68-.034,7.482,7.482,0,0,0-.608-2.774,6.444,6.444,0,0,0-2.134-2.64,5.367,5.367,0,0,0-3.1-1.433c-.6-.011-1.192.021-1.791-.032a10.72,10.72,0,0,1-1.818-.335.646.646,0,0,0-.678.993A7.379,7.379,0,0,0,81.026,58.2c-.35,3.54.661,7.25,3.61,9.457a7.212,7.212,0,0,0,2.037,1.062,10.143,10.143,0,0,1-1.127,2.106,6.238,6.238,0,0,0-.462,4.7c.073.238.172.464.259.7.071.191.133.294-.01.443-.346.363-.779.645-1.132,1.005a10.331,10.331,0,0,0-.986,1.175,9.9,9.9,0,0,0-1.5,3.11.637.637,0,0,0,.443.779,5.909,5.909,0,0,0,6.385-3.968,9.313,9.313,0,0,0,6.286-4.782,7.367,7.367,0,0,0-.681-7.629" transform="translate(16.424 10.393)" fill="#32353d"/>
        <path id="Path_921808" data-name="Path 921808" d="M77.21,48.02a.654.654,0,0,0-.634-.634.7.7,0,0,0-.559.327,3.9,3.9,0,0,0-2.157-.6,36.243,36.243,0,0,0-5.317,0,35.12,35.12,0,0,0-10.2,2.2,8.169,8.169,0,0,0-3.858,2.754,8.03,8.03,0,0,0-1.348,4.123,9.566,9.566,0,0,0-.009,1.073c.016.308.15.762.006,1.044a3.823,3.823,0,0,1-.651.7,7.425,7.425,0,0,0-1.9,5.136,7.413,7.413,0,0,0,5.14,6.784,4.548,4.548,0,0,0,1.514,3.624,10.924,10.924,0,0,0,4.421,2.138.64.64,0,0,0,.715-.931,22.573,22.573,0,0,1-4-10.325,5.289,5.289,0,0,0,2.1-1.994c1.155-2.027.913-4.374.561-6.588a4.156,4.156,0,0,0,3.907.719,6.271,6.271,0,0,0,3.594-2.446,3.711,3.711,0,0,0,1.116-1.713A5.305,5.305,0,0,0,77.21,48.02" transform="translate(10.966 10.194)" fill="#32353d"/>
        <path id="Path_921809" data-name="Path 921809" d="M64.718,59.486a1.318,1.318,0,0,0-.183-.4,1.448,1.448,0,0,0-.41-.4.2.2,0,0,0-.023-.011l-.013-.01a1.33,1.33,0,0,0-1.121-.117,1.669,1.669,0,0,0-.538.321,1.412,1.412,0,0,0-.294.374,1.544,1.544,0,0,0-.179.606.823.823,0,0,0,0,.164,1.385,1.385,0,0,0,.057.309,1.474,1.474,0,0,0,1.484.98,1.326,1.326,0,0,0,.909-.425,1.5,1.5,0,0,0,.309-1.388" transform="translate(13.431 12.676)" fill="#1d1d1b"/>
        <path id="Path_921810" data-name="Path 921810" d="M77.211,58.832a1.318,1.318,0,0,0-.183-.4,1.448,1.448,0,0,0-.41-.4.2.2,0,0,0-.023-.011l-.013-.01a1.331,1.331,0,0,0-1.121-.117,1.669,1.669,0,0,0-.538.321,1.412,1.412,0,0,0-.294.374,1.545,1.545,0,0,0-.179.606.823.823,0,0,0,0,.164,1.332,1.332,0,0,0,.057.309,1.456,1.456,0,0,0,.625.769,1.482,1.482,0,0,0,.859.211,1.328,1.328,0,0,0,.909-.425,1.5,1.5,0,0,0,.309-1.388" transform="translate(16.14 12.534)" fill="#1d1d1b"/>
        <path id="Path_921811" data-name="Path 921811" d="M71.861,67.956a3.285,3.285,0,0,1-4.147-2.308,2.508,2.508,0,0,1,.576-2.207,2.458,2.458,0,0,1,.919-.662c.445-.174.98-.147,1.265-.6a1.393,1.393,0,0,0,.108-.973q-.058-.491-.116-.982-.12-1.013-.24-2.026a.652.652,0,0,0-.633-.633.637.637,0,0,0-.634.633q.115.982.231,1.965c.036.307.072.613.108.92.011.092.006.24.029.35a3.74,3.74,0,0,0-2.384,1.706A4.114,4.114,0,0,0,68.47,68.7a4.923,4.923,0,0,0,3.728.477.634.634,0,0,0-.337-1.222" transform="translate(14.395 12.479)" fill="#1d1d1b"/>
        <path id="Path_921812" data-name="Path 921812" d="M75.55,68.028a7.014,7.014,0,0,1-7.419,1.106.653.653,0,0,0-.868.228.641.641,0,0,0,.228.868,8.332,8.332,0,0,0,8.954-1.3c.612-.544-.287-1.437-.9-.9" transform="translate(14.565 14.712)" fill="#1d1d1b"/>
        <path id="Path_921813" data-name="Path 921813" d="M91.077,67.92a.64.64,0,0,0-.78-.443c-.922.371-1.781-.538-2.329-1.173A8.452,8.452,0,0,1,86.5,63.827a8.979,8.979,0,0,1-.265-5.749.637.637,0,0,0-.611-.8,4.463,4.463,0,0,1-4.238-2.524,10.707,10.707,0,0,1-.795-6.029,54.475,54.475,0,0,1,6.265,1.349.634.634,0,0,0,.337-1.222,55.63,55.63,0,0,0-24.23-1.228,54.369,54.369,0,0,0-6.679,1.572.634.634,0,0,0,.337,1.222,53.9,53.9,0,0,1,11.693-2.174,55.256,55.256,0,0,1,7-.066.814.814,0,0,0,.009.236,4.159,4.159,0,0,1-6.554,4.13.637.637,0,0,0-.953.546,4.207,4.207,0,0,1-2.408,3.579,6.991,6.991,0,0,1-5.388.063.638.638,0,0,0-.779.779c.467,1.727,1.015,3.67.266,5.4a3.429,3.429,0,0,1-1.571,1.662,11.27,11.27,0,0,0-2.273,1.381c-.6.55.293,1.444.9.9a16.179,16.179,0,0,1,2.363-1.387A4.56,4.56,0,0,0,60.7,63.309a8.116,8.116,0,0,0,.035-5.057,7.728,7.728,0,0,0,5.388-.534,5.623,5.623,0,0,0,2.833-3.61,5.6,5.6,0,0,0,4.022.212,5.473,5.473,0,0,0,3.591-6.061q1.385.108,2.765.282a13.9,13.9,0,0,0,.416,5.6A6.669,6.669,0,0,0,82.916,58a5.077,5.077,0,0,0,1.9.552,10.142,10.142,0,0,0,2.791,9.214,2.989,2.989,0,0,0,3.027.934.654.654,0,0,0,.443-.78" transform="translate(12.024 10.152)" fill="#1d1d1b"/>
        <path id="Path_921814" data-name="Path 921814" d="M118.419,27.758c-5.7,1.015-11.433,1.863-17.188,2.505s-11.545,1.083-17.338,1.29c-.155,0-.308.009-.462.015a.586.586,0,0,0-.3-.443,50.577,50.577,0,0,1-9.092-7.032q-1.183-1.152-2.286-2.376c-.548-.607-1.442.291-.9.9a52.015,52.015,0,0,0,8.824,7.779c.608.426,1.23.832,1.858,1.23q-5.943.144-11.886-.06a.66.66,0,0,0-.184-.165,61.026,61.026,0,0,1-14.116-11.94q-1.714-1.968-3.253-4.077a.653.653,0,0,0-.868-.228.638.638,0,0,0-.226.868A62.58,62.58,0,0,0,64.374,29.485q1.391,1.029,2.841,1.975l-.745-.034a170.637,170.637,0,0,1-17.19-1.752,152.441,152.441,0,0,1-16.9-3.592Q31.338,25.8,30.3,25.5a.634.634,0,0,0-.337,1.222,151.1,151.1,0,0,0,17.019,3.86A170.956,170.956,0,0,0,64.32,32.567c5.794.372,11.607.466,17.412.32,5.849-.148,11.691-.541,17.512-1.143s11.618-1.409,17.386-2.393q1.064-.181,2.126-.371c.8-.142.461-1.364-.337-1.222" transform="translate(6.4 3.266)" fill="#1d1d1b"/>
        <path id="Path_921815" data-name="Path 921815" d="M92.644,5.383a.647.647,0,0,0-.868-.228c-2.593,1.31-4.282,3.785-5.845,6.14a.634.634,0,0,0,1.1.64c1.447-2.179,2.99-4.472,5.39-5.686a.639.639,0,0,0,.228-.866" transform="translate(18.61 1.101)" fill="#1d1d1b"/>
        <path id="Path_921816" data-name="Path 921816" d="M94.323,3.721a.675.675,0,0,0-.32,0,5.192,5.192,0,0,0-1.542-.489.7.7,0,0,0-.488.064.631.631,0,0,0-.228.866.611.611,0,0,0,.378.292h0a.682.682,0,0,0,.075.234q.438.8.875,1.6a.632.632,0,0,0,.632.3.642.642,0,0,0,.527-.454q.265-.821.532-1.644a.639.639,0,0,0-.443-.78" transform="translate(19.872 0.698)" fill="#1d1d1b"/>
        <path id="Path_921817" data-name="Path 921817" d="M95.665,7.14a.638.638,0,0,0-.868-.228.65.65,0,0,0-.226.868,11.012,11.012,0,0,1-.21,8.884.65.65,0,0,0,.228.866.64.64,0,0,0,.868-.226A12.4,12.4,0,0,0,95.665,7.14" transform="translate(20.441 1.481)" fill="#1d1d1b"/>
        <path id="Path_921818" data-name="Path 921818" d="M97.27,6.045a.655.655,0,0,0-.866-.228.638.638,0,0,0-.228.868A7.225,7.225,0,0,1,97.647,11.1a.634.634,0,0,0,1.268,0A8.359,8.359,0,0,0,97.27,6.045" transform="translate(20.83 1.243)" fill="#1d1d1b"/>
        <path id="Path_921819" data-name="Path 921819" d="M88.271,1.642a14.985,14.985,0,0,0-3.734.322.638.638,0,0,0-.442.779.647.647,0,0,0,.779.443,13.328,13.328,0,0,1,3.4-.276.639.639,0,0,0,.634-.634.647.647,0,0,0-.634-.634" transform="translate(18.226 0.353)" fill="#1d1d1b"/>
        <path id="Path_921820" data-name="Path 921820" d="M22.771,132.289,20.21,150.222s-4.8,9.607-8.007,24.978-6.4,51.557-6.4,51.557S.675,245.651.035,250.455s7.685,15.371,7.685,15.371l7.365,6.084,3.2-.96,10.247-78.457s12.034-18.936,11.942-20.2,3.25-23.857,3.25-23.857Z" transform="translate(0 28.68)" fill="#604553"/>
        <path id="Path_921821" data-name="Path 921821" d="M32.277,94.434s13.84-10.44,26.041-10.614S73.655,81.9,73.655,81.9L76.444,77.2l13.072,3.66s3.311.348,8.889,1.045,25.156,1.547,30.355,10.621-.494-.185,0,0-32.1,12.56-55.976,12.037S40.4,100.517,32.277,94.434" transform="translate(6.998 16.736)" fill="#604553"/>
        <path id="Path_921822" data-name="Path 921822" d="M148.294,134.933l5.926,43.528s4.557,2.963,7.292,12.989,7.749,38.743,7.749,38.743,6.1,10.6,8.12,16.664,3.035,10.791,2.867,13.656-.843,7.418-1.686,8.935a29.164,29.164,0,0,1-3.878,4.383L173.5,274s-.337,3.147-3.033,3.6a3.237,3.237,0,0,1-3.6-2.024,2.072,2.072,0,0,1-2.7.113,4.955,4.955,0,0,1-2.024-2.923c-.224-1.011-1.46-7.98-1.46-7.98l-5.17-11.24-.562-.337s1.011,6.069.225,9.329-2.7,4.046-4.271,3.372-3.26-1.236-3.822-4.608-2.247-15.173-2.7-18.77.787-9.89.787-9.89-10.789-32.144-14.835-43.159-13.15-33.829-13.15-33.829Z" transform="translate(25.408 29.253)" fill="#604553"/>
        <path id="Path_921823" data-name="Path 921823" d="M87.822,323.919l6.8,56.037s2.047,31.965,2.552,33.736,4.3,9.357,14.667,12.139,20.484,1.517,24.278.253,10.62-1.77,10.873-5.816-8.851-22.507-8.851-22.507l-11.126-21.748V317.6s-27.058,6.323-39.2,6.323" transform="translate(19.04 68.854)" fill="#604553"/>
        <path id="Path_921824" data-name="Path 921824" d="M92.519,323.919l.253,67.267L62.426,406.865s-13.4,6.069-17.449,7.081-13.15.253-14.414-1.011-.759-10.621,5.31-18.713,28.323-17.2,28.323-17.2L52.058,317.6s28.322,6.829,40.461,6.323" transform="translate(6.504 68.854)" fill="#604553"/>
        <path id="Path_921825" data-name="Path 921825" d="M95.061,393.84s1.655,17.751,6.92,22.264,23.919,7.221,29.034,6.168,11.432-3.159,13.238-5.265,2.256-2.858,2.256-5.716-2.858-12.336-2.858-12.336l-4.814-11.282s-3.761-4.213-17.6-3.459-20.308,4.211-20.308,4.211Z" transform="translate(20.609 83.277)" fill="#ec5129"/>
        <path id="Path_921826" data-name="Path 921826" d="M93.447,369.989l-1.354-10.23a43.265,43.265,0,0,0,34.6-3.008l.3,10.68s-16.247,8.575-33.546,2.558" transform="translate(19.966 77.343)" fill="#ec5129"/>
        <path id="Path_921827" data-name="Path 921827" d="M87.531,368.592l-.3-9.627a43.862,43.862,0,0,1-30.989-2.709l2.106,11.283s17.6,5.715,29.184,1.053" transform="translate(12.193 77.235)" fill="#ec5129"/>
        <path id="Path_921828" data-name="Path 921828" d="M92.792,378.6c.148.679,1.05,6.847,1.05,6.847l-18.2,11.734s-16.848,8.274-21.211,9.929a46.36,46.36,0,0,1-14.29,2.858c-3.912,0-6.168-1.2-6.92-2.558a17.5,17.5,0,0,1-3.31-11.282c.15-6.92,3.31-15.043,12.486-20.459,0,0,13.627,1.868,20.052,18.61Z" transform="translate(6.483 81.443)" fill="#ec5129"/>
        <path id="Path_921829" data-name="Path 921829" d="M48.8,320.258A127.485,127.485,0,0,0,88.618,330.94l-.03-7.021-6.119-.1-21.363-2.266-6.96-1.942L48.127,317.6Z" transform="translate(10.434 68.854)" fill="#1d1d1b"/>
        <path id="Path_921830" data-name="Path 921830" d="M87.822,323.919l.769,7.02s25.895-.809,38.519-11.652l-.091-1.69s-22.648,6.747-39.2,6.323" transform="translate(19.04 68.854)" fill="#1d1d1b"/>
        <path id="Path_921831" data-name="Path 921831" d="M9.887,329.868s4.552-73.841,4.552-88.762,7.587-55.128,10.873-64.232,14.414-16.185,14.414-16.185l104.188,7.335s5.057,5.815,8.345,19.471,29.586,146.672,29.586,146.672a210.8,210.8,0,0,1-45.6,19.05c-26.132,7.418-51.252,4.046-55.466,3.541s-23.77-4.889-26.131-5.4S37.62,345.8,32.393,343.1,9.887,329.868,9.887,329.868" transform="translate(2.143 34.837)" fill="#ec5129"/>
        <path id="Path_921832" data-name="Path 921832" d="M176.008,135.37c-1.154-1.648-15.894-20.423-15.894-20.423L26.876,103.254l-10.871,6.918-.009.252L5.316,122.394s9.208,7.918,11.97,9.944,8.288,5.708,10.681,5.893,3.867-2.578,3.867-2.578l1.09-2.548s17.833,11.818,18.821,12.313,10.458,6.422,14.493,6.752,4.119-1.121,4.694-3.237a76.064,76.064,0,0,0,.988-8.869l20.669,1.812-.083,14.165a12.275,12.275,0,0,0,8.071,2.306c4.859-.33,14.9-1.318,18.775-2.965S132.94,148.3,132.94,148.3L135,153.734a5.649,5.649,0,0,0,4.941-.247c2.717-1.4,23.057-12.353,26.845-14.659s4.529-2.223,4.529-2.223l1.071,4.118,2.553-2.636s2.223-1.071,1.071-2.717" transform="translate(1.152 22.385)" fill="#ec5129"/>
        <path id="Path_921833" data-name="Path 921833" d="M164.191,115.932a.829.829,0,0,0,.041-.584,1.388,1.388,0,0,0-.578-.645l-.708-.531-2.83-2.121c-1.83-1.371-3.681-2.72-5.484-4.126a34.112,34.112,0,0,1-2.846-2.451.611.611,0,0,0-.913.05c-.061.007-.123.012-.183.024a.819.819,0,0,0-.094.026.509.509,0,0,0-.442-.131,194.961,194.961,0,0,1-22.893,1.251c-7.637.022-15.271-.226-22.9-.434l-23.237-.632L58,105l-11.618-.316c-2.892-.078-7.242-.694-8.591,2.676a3.044,3.044,0,0,0-.217,1.3,58.626,58.626,0,0,1-9.9-6.781q-1.427-1.214-2.776-2.515a.589.589,0,0,0-.6-.151.586.586,0,0,0-.66-.022q-6.209,4.72-12.729,9.01a.647.647,0,0,0-.207.218l-.067.034a.51.51,0,0,0-.23.231.655.655,0,0,0-.307,1.065,61.9,61.9,0,0,0,13.528,10.972q1.916,1.148,3.913,2.151a.6.6,0,0,0,.245.247,1.981,1.981,0,0,0,1.921-.033,3.693,3.693,0,0,0,1.364-1.448,4.266,4.266,0,0,1,1.063-1.329,3.524,3.524,0,0,1,1.432-.577c2.547-.47,4.756,1.421,6.633,2.851a51.37,51.37,0,0,0,14.4,7.685,50.625,50.625,0,0,0,8.978,2.2.66.66,0,0,0,.767-.408c.438.214,1.1-.117.908-.709-.266-.823.724-1.342,1.415-1.377a7.33,7.33,0,0,1,1.714.186c.613.113,1.227.226,1.841.335,2.511.443,5.035.83,7.575,1.078a58.565,58.565,0,0,0,7.592.232,33.616,33.616,0,0,1,7.287.225,10.278,10.278,0,0,1,5.931,3.057.533.533,0,0,0,.677.137,6.085,6.085,0,0,0,5.16,1.5,26.233,26.233,0,0,0,3.687-.836q1.86-.509,3.71-1.054c4.595-1.349,9.262-3.124,14.125-2.956a13.456,13.456,0,0,1,6.9,2.011.564.564,0,0,0,.433.09,1.959,1.959,0,0,0,1.946,1,3.352,3.352,0,0,0,1.613-.826c.484-.4.943-.826,1.408-1.245,1.936-1.746,3.834-3.536,5.782-5.269a48.632,48.632,0,0,1,12.181-8.42,24.08,24.08,0,0,1,7.711-2.078.65.65,0,0,0,.633-.634.679.679,0,0,0-.365-.578" transform="translate(2.15 21.484)" fill="#1e2ad5"/>
        <path id="Path_921834" data-name="Path 921834" d="M142.078,172.385a28.409,28.409,0,0,0-1.379-7.571,19.69,19.69,0,0,0-1.514-3.45,30.1,30.1,0,0,0-2.132-3.012,4.782,4.782,0,0,1-.894-1.769,5.393,5.393,0,0,1-.026-1.87,21.023,21.023,0,0,0,.511-4.264.667.667,0,0,0-.449-.6l-.015-.555c-.01-.366-.405-.776-.8-.611-1.463.611-3.557,1.514-4.972.294a3.419,3.419,0,0,1-.832-2.281,3.416,3.416,0,0,0-1.056-2.264,2.031,2.031,0,0,0-2.089-.455.589.589,0,0,0-.622-.007q-4.523,2.528-9.192,4.78c-1.532.739-3.074,1.458-4.63,2.144a32.659,32.659,0,0,1-4.648,1.717,13.151,13.151,0,0,1-5.45.437.836.836,0,0,0-.312.01.606.606,0,0,0-.3-.058c-2.167.125-4.349.336-6.521.347a18.481,18.481,0,0,1-5.985-1.276.643.643,0,0,0-.217-.033,4.887,4.887,0,0,1-.448-.437,7.508,7.508,0,0,1-1.443-5.293c.074-2.667.725-5.3.148-7.959a.535.535,0,0,0-.332-.409.264.264,0,0,0,.03-.021c.754-.1.75-1.292-.052-1.258-.269.011-.539.015-.809.023a90.437,90.437,0,0,0-13.638-1.587c-1.364-.054-2.735-.027-4.1-.139a.639.639,0,0,0-.633.634.6.6,0,0,0,.028.178.473.473,0,0,0-.022.05c-.034.108-.063.22-.1.33a.7.7,0,0,0-.2.664l.006.017a22.64,22.64,0,0,0-.562,2.869c-.169,1.3-.127,2.61-.232,3.917a4.16,4.16,0,0,1-1.155,2.825c-.864.782-2.145.511-3.2.416l-4.632-.417a.486.486,0,0,0-.257.049,45.938,45.938,0,0,1-6.625-3.48c-2.376-1.489-4.681-3.1-7-4.668l-7.137-4.827-7.353-4.973c0-.04-.011-.08-.015-.12a.651.651,0,0,0-.634-.634.663.663,0,0,0-.405.156.661.661,0,0,0-.315,1.2l.192.13a15.157,15.157,0,0,0,.887,3.384,19.445,19.445,0,0,0,2.11,3.855,87.737,87.737,0,0,0,5.45,7.053c.893,1.054,1.814,2.083,2.751,3.1a6.606,6.606,0,0,0-2.18,4.213.358.358,0,0,0,0,.051,47.38,47.38,0,0,0-2.5,18.183,47.966,47.966,0,0,0,.646,5.482.5.5,0,0,0,.146.265.674.674,0,0,0-.007,1.1,87.639,87.639,0,0,0,17.752,9.31,108.453,108.453,0,0,0,19.371,5.49,146.884,146.884,0,0,0,21.9,2.356c7.412.273,14.834.085,22.236-.352,6.708-.4,13.565-1.006,19.813-3.663q1.166-.495,2.288-1.083a.585.585,0,0,0,.241-.224.562.562,0,0,0,.506-.6c-.086-2.474.831-4.805,1.644-7.1a27.817,27.817,0,0,0,1.073-3.575,16.29,16.29,0,0,0,.293-4.132" transform="translate(5.892 27.703)" fill="#ffc811"/>
        <path id="Path_921835" data-name="Path 921835" d="M150.8,106.776q-7.177-6.662-14.52-13.143-2.059-1.816-4.129-3.618a.7.7,0,0,0-.552-.172.546.546,0,0,0-.678-.256c-6.5,2.111-13.008,4.194-19.59,6.027A182.332,182.332,0,0,1,91.4,100.1a110.755,110.755,0,0,1-19.174,1.481,84.388,84.388,0,0,1-18.175-2.172,65.523,65.523,0,0,1-16.94-6.488q-1.006-.562-1.988-1.164a.567.567,0,0,0-.742.1.574.574,0,0,0-.41-.009L19.65,96.551a.64.64,0,0,0-.378.931A45.267,45.267,0,0,0,26.8,105.5c1.431,1.2,2.926,2.329,4.469,3.384.756.517,1.52,1.025,2.3,1.5a7.125,7.125,0,0,0,2.6,1.062,3.232,3.232,0,0,0,2.47-.573,6.945,6.945,0,0,0,1.39-1.584,4.761,4.761,0,0,1,1.124-1.275,1.331,1.331,0,0,1,.855-.22,3.5,3.5,0,0,1,1.253.414,25.9,25.9,0,0,1,4.625,3.216q2.278,1.8,4.714,3.389a61.016,61.016,0,0,0,10.26,5.331q.681.276,1.368.535a.571.571,0,0,0,.551-.113.646.646,0,0,0,1.255.148.955.955,0,0,1,.466-.548,2.53,2.53,0,0,1,.937-.285,11.032,11.032,0,0,1,2.62.151c2.33.284,4.658.572,6.984.881,4.655.618,9.3,1.328,13.906,2.257a7.626,7.626,0,0,1,3.206,1.1,1.978,1.978,0,0,1,.779,2.263.611.611,0,0,0,.279.7.593.593,0,0,0-.03.184.638.638,0,0,0,.634.634,100.306,100.306,0,0,0,22.208-5.205c1.913-.687,3.889-1.612,5.972-1.351a.447.447,0,0,0,.189-.021,6.274,6.274,0,0,0,5.341.573,20.85,20.85,0,0,0,5.493-3.065q2.7-1.856,5.247-3.911c1.59-1.279,3.093-2.655,4.654-3.966a12.471,12.471,0,0,1,5.372-2.964.6.6,0,0,0,.433-.433.585.585,0,0,0,.074-.927" transform="translate(4.157 19.415)" fill="#ffc811"/>
        <path id="Path_921836" data-name="Path 921836" d="M155.106,271.3a24.448,24.448,0,0,0-6.953-10.3,19.077,19.077,0,0,0,6.473-11.6,22.637,22.637,0,0,0-3.7-15.952,29.126,29.126,0,0,0-6.173-6.752,28.181,28.181,0,0,0,3.43-17.3,27.678,27.678,0,0,0-2.6-8.853,19.733,19.733,0,0,1-1.089-2.206,5.765,5.765,0,0,1-.1-2.6,29.06,29.06,0,0,0,.2-5.112,28.416,28.416,0,0,0-2.943-11.092c-.006-.013-.016-.023-.023-.036l.157-.027c.8-.146.461-1.368-.337-1.223a197.918,197.918,0,0,1-20.762,2.666,183.509,183.509,0,0,1-21.032.371,163.811,163.811,0,0,1-20.757-2.145,146.935,146.935,0,0,1-20.167-4.885A131.025,131.025,0,0,1,39.506,166.4q-1.174-.593-2.334-1.21a.631.631,0,0,0-.06-.026.522.522,0,0,0-.614.022,22.168,22.168,0,0,0-8.974,21.323,19.388,19.388,0,0,0,.7,2.976q.228.712.511,1.4a2.517,2.517,0,0,1,.32,1.85c-.383,1.031-1.506,1.807-2.218,2.61a23.749,23.749,0,0,0-.864,30.661c-3.7,3.661-6.644,8.33-7.415,13.541a16.832,16.832,0,0,0,4.172,14.167,5.3,5.3,0,0,1,1.158,1.449,2.056,2.056,0,0,1-.309,1.895,23.156,23.156,0,0,0-1.727,3.315A15.715,15.715,0,0,0,21,267.519a18.732,18.732,0,0,0,7.027,12.691,25.779,25.779,0,0,0,13,5.174A22.4,22.4,0,0,0,51.47,296.417a21.7,21.7,0,0,0,17.15.881,22.478,22.478,0,0,0,5.652-3.044,27.135,27.135,0,0,0,10.564,10.065,26.8,26.8,0,0,0,27.115-1.375,16.847,16.847,0,0,0,15.944-.3,17.085,17.085,0,0,0,5.614-5.241,15.777,15.777,0,0,0,.953-1.6c.29-.563.509-1.158.791-1.725a1.354,1.354,0,0,1,1.208-.916c.683-.028,1.369.117,2.049.151A16.651,16.651,0,0,0,155.8,279.087a17.184,17.184,0,0,0-.692-7.785" transform="translate(3.979 35.788)" fill="#1e2ad5"/>
        <path id="Path_921837" data-name="Path 921837" d="M32.7,177.581s14.007,7.317,27.595,5.435c0,0,20.069,11.079,42.228,6.69,0,0,19.023,3.762,34.284-1.464l2.717,62.506s-15.052,10.871-34.911,1.463c0,0-13.8,2.3-18.814,2.3a50.559,50.559,0,0,1-15.678-3.136c-2.718-1.255-8.78-4.6-8.78-4.6L55.9,242.6s-14.007,4.6-30.939-4.809l6.271-49.126Z" transform="translate(5.412 38.499)" fill="#ffc811"/>
        <path id="Path_921838" data-name="Path 921838" d="M137.3,211.452a.648.648,0,0,0-.376-1.136.663.663,0,0,0-1.1.259,52.182,52.182,0,0,1-12.644,1.627,53.032,53.032,0,0,1-13.587-1.686,51.2,51.2,0,0,1-7.3-2.476.655.655,0,0,0-.868.226.618.618,0,0,0-.038.086.581.581,0,0,0-.1.015,55.366,55.366,0,0,1-15.021,1.416c-2.541-.072-5.076-.259-7.606-.509-2.361-.234-4.724-.5-7.065-.889a42.741,42.741,0,0,1-6.753-1.635,26.738,26.738,0,0,1-3.154-1.3c-1.042-.511-2-1.172-3.032-1.69a6.454,6.454,0,0,0-3.615-.529c-1.184.1-2.37.167-3.558.183a46.9,46.9,0,0,1-7.046-.432,47.415,47.415,0,0,1-13.61-4.013q-.79-.371-1.565-.771c-.724-.372-1.365.72-.64,1.094.111.057.223.112.333.168a.361.361,0,0,0-.017.055l-.863,4.095a.655.655,0,0,0,.291.715,40.687,40.687,0,0,0,20.869,5.653c1.234-.007,2.459-.088,3.687-.193a8,8,0,0,1,3.6.235,21.3,21.3,0,0,1,3.03,1.932,23.156,23.156,0,0,0,3.329,1.64,40.205,40.205,0,0,0,7,2,63.829,63.829,0,0,0,15.023,1.338,50.935,50.935,0,0,0,14.754-2.625q.865-.3,1.718-.628c.027-.011.052-.024.077-.036a54.751,54.751,0,0,0,32.689,4.183,10.265,10.265,0,0,0,2.139-.5,2.094,2.094,0,0,0,1.309-1.679,11.113,11.113,0,0,0-.3-4.194" transform="translate(6.083 42.953)" fill="#475ece"/>
        <path id="Path_921839" data-name="Path 921839" d="M137.923,220.671a.658.658,0,0,0-.382-1.155.676.676,0,0,0-1.119.263,53.3,53.3,0,0,1-12.875,1.654,54.1,54.1,0,0,1-13.837-1.713,52.4,52.4,0,0,1-7.431-2.516.668.668,0,0,0-.882.231.5.5,0,0,0-.039.086.763.763,0,0,0-.1.015,56.5,56.5,0,0,1-15.3,1.439c-2.587-.072-5.17-.263-7.745-.517-2.406-.237-4.811-.506-7.2-.9a43.418,43.418,0,0,1-6.876-1.662,27,27,0,0,1-3.212-1.315c-1.06-.52-2.033-1.191-3.087-1.718a6.579,6.579,0,0,0-3.682-.537c-1.206.1-2.413.168-3.624.184a47.814,47.814,0,0,1-7.175-.438A48.355,48.355,0,0,1,29.5,207.991q-.8-.376-1.593-.782c-.737-.378-1.392.731-.652,1.111.113.058.226.113.339.17-.006.019-.013.035-.018.056l-.879,4.159a.665.665,0,0,0,.3.728,41.506,41.506,0,0,0,21.253,5.743c1.256-.007,2.5-.089,3.754-.2a8.18,8.18,0,0,1,3.666.238,21.661,21.661,0,0,1,3.086,1.964,23.658,23.658,0,0,0,3.39,1.666,41.126,41.126,0,0,0,7.128,2.034,65.191,65.191,0,0,0,15.3,1.358A51.992,51.992,0,0,0,99.6,223.575q.882-.3,1.749-.639a.8.8,0,0,0,.079-.038,55.863,55.863,0,0,0,33.288,4.251,10.475,10.475,0,0,0,2.179-.511,2.127,2.127,0,0,0,1.334-1.707,11.262,11.262,0,0,0-.3-4.26" transform="translate(5.785 44.905)" fill="#ec5129"/>
        <path id="Path_921840" data-name="Path 921840" d="M67.986,76.844s4.849,2.365,14.429.473v3.9S74.727,84.3,67.986,76.844" transform="translate(14.739 16.66)" fill="#1d1d1b"/>
        <path id="Path_921841" data-name="Path 921841" d="M176.1,135a1.769,1.769,0,0,0-1.68-.948,5.146,5.146,0,0,0-2.092.748q-1.066.557-2.122,1.133c-1.409.767-2.8,1.557-4.193,2.362-5.485,3.178-10.849,6.569-16.422,9.6a98.05,98.05,0,0,1-9.372,4.524.646.646,0,0,0-.382.057,6.491,6.491,0,0,1-3.6.555c.136-1.27,2.044-2.026,3.025-2.435a5.53,5.53,0,0,0,3.267-2.962,2.285,2.285,0,0,0,.091-1.315.711.711,0,0,0,.013-.656c-1.879-4.213-4.137-8.238-6.422-12.24s-4.6-7.985-6.583-12.14a64.94,64.94,0,0,1-2.937-7.133c-.262-.769-1.486-.439-1.223.337a81.62,81.62,0,0,0,5.759,12.675c2.215,4.068,4.6,8.039,6.808,12.111.956,1.764,1.876,3.548,2.735,5.361-.082-.016-.163-.028-.247-.036a6.49,6.49,0,0,0-2.543.442c-.92.294-1.823.639-2.713,1.014-3.711,1.564-7.139,3.692-10.686,5.58a48.309,48.309,0,0,1-11.421,4.417,46.14,46.14,0,0,1-12.225,1.256,32.1,32.1,0,0,1-6.047-.612,2.319,2.319,0,0,1-1.912-1.332,2.223,2.223,0,0,1,.6-1.954c2.055-2.52,5.979-1.8,8.056-4.3a3.894,3.894,0,0,0,.86-3.008.576.576,0,0,0,.253-.5c.017-4.283-1.119-8.508-2.011-12.668L98,120.169q-.778-3.623-1.554-7.246c-.17-.8-1.392-.46-1.222.337q1.36,6.348,2.721,12.7c.9,4.21,1.845,8.414,2.7,12.635a41.377,41.377,0,0,1,.753,5.014,6.588,6.588,0,0,0-2.816-1.965,21.419,21.419,0,0,0-5.827-.926l-6.716-.571q-6.782-.577-13.565-1.152a21.344,21.344,0,0,0-5.815.068A8.578,8.578,0,0,0,64,140l4.253-21.03q.677-3.351,1.356-6.7a.649.649,0,0,0-.443-.78.639.639,0,0,0-.779.443l-4.771,23.589q-.63,3.117-1.261,6.234a2.944,2.944,0,0,0,1.167,3.48,14.046,14.046,0,0,0,4.1,1.747c1.071.392,3.4,1.64,2.552,3.109-.815,1.411-3.543,1.018-4.843.82-3.942-.6-7.463-2.723-10.749-4.865-7.544-4.915-15.013-9.947-22.518-14.922l-2.919-1.936a9.693,9.693,0,0,0-2.185-1.164,4.1,4.1,0,0,0-1.039-.213q5.979-8.622,12.646-16.741,2.022-2.459,4.107-4.867a.651.651,0,0,0,0-.9.64.64,0,0,0-.9,0q-7.4,8.56-14.037,17.742-1.865,2.581-3.666,5.208a.5.5,0,0,0-.049.095,2.122,2.122,0,0,0-.611.894c-.545,1.471.711,2.78,1.822,3.549,1.3.9,2.975,1.164,3.928,2.537.4.579.464,1.373-.35,1.622a3.358,3.358,0,0,1-2.317-.56c-1.808-.961-3.571-2.026-5.309-3.108a112.843,112.843,0,0,1-10.382-7.3q-2.375-1.88-4.648-3.883c-.611-.537-1.51.357-.9.9a115.4,115.4,0,0,0,20.188,14.261c1.279.711,3.1,1.57,4.447.533a2.044,2.044,0,0,0,.714-.971c0-.006.01-.009.015-.015a26.656,26.656,0,0,0,2.408-3.527l3.446,2.285,11.344,7.52a119.367,119.367,0,0,0,10.6,6.723,23.182,23.182,0,0,0,5.451,2.1,11.9,11.9,0,0,0,5.292.229,2.846,2.846,0,0,0,2.431-2.957.578.578,0,0,0,.19-.454,66.086,66.086,0,0,1,.5-8.5c1.632.123,3.261.286,4.889.425l13.565,1.152c.26.022.522.041.785.061q.018,6.525.038,13.051a.6.6,0,0,0,.124.38,2.972,2.972,0,0,0,1.766,2.246,8.771,8.771,0,0,0,2.476.59c.978.135,1.959.245,2.943.319a46.209,46.209,0,0,0,6.061.061,47.515,47.515,0,0,0,11.945-2.2,60.493,60.493,0,0,0,10.859-4.974c1.592-.887,3.184-1.791,4.811-2.627.007.019.013.038.022.056a42.5,42.5,0,0,1,1.881,4.248.691.691,0,0,0,.534.459c.006.085.017.17.03.258a.615.615,0,0,0,.443.442,7.921,7.921,0,0,0,4.553-.417.466.466,0,0,0,.285-.017,125.789,125.789,0,0,0,16.3-8.385c5.232-3.087,10.391-6.305,15.765-9.145a5.762,5.762,0,0,1,2.06-.9.674.674,0,0,1,.357.056.421.421,0,0,1,.2.2,1,1,0,0,1,.032.537,2.443,2.443,0,0,1-1.015,1.371,6.8,6.8,0,0,0-1.628,1.584c-.438.69.658,1.326,1.1.639a5.987,5.987,0,0,1,1.429-1.328,3.733,3.733,0,0,0,1.22-1.544A2.307,2.307,0,0,0,176.1,135m-144.131-2.4q-.506.893-1.079,1.745c-.156.23-.313.451-.468.667a3.593,3.593,0,0,0-.468-.719,6.289,6.289,0,0,0-1.8-1.438c-.692-.378-1.441-.606-2.107-1.04a3.075,3.075,0,0,1-1.472-1.679c-.147-.809.678-1.151,1.348-1.066a5.331,5.331,0,0,1,2.142.92c.943.608,1.871,1.24,2.807,1.86l1.112.737-.009.013m39.054,7.612a66.043,66.043,0,0,0-.5,7.053,6.957,6.957,0,0,0-1.879-1.22c-1.393-.632-2.939-.791-4.214-1.7a2.074,2.074,0,0,1-1.032-1.528c0-.027,0-.054,0-.08a.483.483,0,0,0,.074-.174l.088-.433a3.023,3.023,0,0,1,1.324-1.151,11.334,11.334,0,0,1,5.845-.843l.294.021a.378.378,0,0,0-.01.054m21.77,1.755a27.359,27.359,0,0,1,4.16.521,5.345,5.345,0,0,1,4.1,3.005c1.448,3.775-3.733,4.272-6.006,5.268a6.686,6.686,0,0,0-2.224,1.575q-.015-5.185-.029-10.368m42.557,9.9q-.757-1.889-1.676-3.709a34.428,34.428,0,0,1,4.979-2c.729-.223,1.9-.616,2.525.033.524.545.084,1.324-.314,1.807-1.056,1.284-2.738,1.559-4.076,2.44a4.43,4.43,0,0,0-1.438,1.432" transform="translate(1.097 22.79)" fill="#1d1d1b"/>
        <path id="Path_921842" data-name="Path 921842" d="M13.986,238.869a12.45,12.45,0,0,1-3-1.2,3.757,3.757,0,0,1-1.8-2.44,8.51,8.51,0,0,1-.141-1.869c0-.739.026-1.478.049-2.216q.069-2.2.229-4.391.181-2.506.479-5a.639.639,0,0,0-.634-.634.649.649,0,0,0-.634.634q-.551,4.647-.7,9.329a18.8,18.8,0,0,0,.123,4.432,4.922,4.922,0,0,0,2.054,3.026,12.2,12.2,0,0,0,3.642,1.553.634.634,0,0,0,.338-1.222" transform="translate(1.682 47.938)" fill="#1d1d1b"/>
        <path id="Path_921843" data-name="Path 921843" d="M175.921,241.448c-.387-6.528-2.679-12.793-5.42-18.671a89.719,89.719,0,0,0-5.421-9.929c-.433-.689-1.531-.054-1.094.639a82.054,82.054,0,0,1,8.445,17.377c1.949,5.777,3.086,12.119,1.6,18.14-.674,2.743-1.863,5.836-4.428,7.318.22-.6.431-1.207.638-1.811a24.308,24.308,0,0,0,1.6-8.028c-.019-2.832-.969-5.557-1.736-8.252q-1.327-4.649-2.653-9.3a.635.635,0,0,0-1.223.337q1.086,3.806,2.171,7.61.542,1.9,1.085,3.8a33.475,33.475,0,0,1,.919,3.753,17.056,17.056,0,0,1-.628,7.329c-.338,1.218-.751,2.415-1.183,3.6a21.3,21.3,0,0,1-1.313,3.221,3.337,3.337,0,0,1-2.482,1.908c-.835.05-1.863-.655-1.638-1.585a.638.638,0,0,0,.013-.228,4.563,4.563,0,0,0,.582-.908,13.815,13.815,0,0,0,.841-2.515c.275-1.029.539-2.064.731-3.114a18.071,18.071,0,0,0,.017-6.456,33.412,33.412,0,0,0-1.791-6.067c-.782-2.054-1.626-4.085-2.446-6.124l-.635-1.581a.655.655,0,0,0-.78-.443.64.64,0,0,0-.443.78q1.2,3,2.409,5.989a50.827,50.827,0,0,1,2.016,5.774,18.227,18.227,0,0,1,.67,5.931,28.708,28.708,0,0,1-1.223,5.9c-.343,1.195-.987,2.915-2.537,2.715-1.7-.22-2.459-1.991-2.743-3.462-.184-.95-.253-1.918-.394-2.874s-.326-1.9-.55-2.833a41.147,41.147,0,0,0-1.785-5.544,83.078,83.078,0,0,0-4.346-9.007.7.7,0,0,0-.232-.427c-.213-.389-.426-.776-.64-1.164l-.719-1.3c-.4-.712-1.492-.074-1.1.64q.732,1.314,1.458,2.633.184,2.15.37,4.3c.129,1.506.337,3.031.32,4.545a5.176,5.176,0,0,1-1.056,3.407,2.714,2.714,0,0,1-2.726.88c-2.5-.589-3.47-3.117-3.885-5.386-.254-1.383-.4-2.79-.582-4.185q-.3-2.309-.6-4.619l-1.362-10.413a.654.654,0,0,0-.633-.633.638.638,0,0,0-.634.633l.109,1.553a.717.717,0,0,0,.144.384q.522,3.988,1.043,7.974.318,2.44.638,4.878c.2,1.534.364,3.081.63,4.606a10.4,10.4,0,0,0,1.425,3.994,5.869,5.869,0,0,0,2.943,2.311,4.062,4.062,0,0,0,3.566-.367,5.148,5.148,0,0,0,2.066-3.237,18.422,18.422,0,0,0-.055-5.387l-.208-2.41c.925,1.783,1.8,3.591,2.565,5.446a42.675,42.675,0,0,1,1.941,5.735c.252.987.461,1.985.621,2.99.155.977.231,1.964.4,2.939.319,1.879,1.175,3.687,3.04,4.435a3.116,3.116,0,0,0,2.316.017,2.743,2.743,0,0,0,1.363,1.8,3.281,3.281,0,0,0,3.333-.254,6.185,6.185,0,0,0,2.221-2.9c.114-.268.224-.539.331-.81a.625.625,0,0,0,.765.14c2.6-1.315,4.029-4.079,4.887-6.741a25.76,25.76,0,0,0,1.089-9.4" transform="translate(30.081 46.081)" fill="#1d1d1b"/>
        <path id="Path_921844" data-name="Path 921844" d="M181.309,303.53A154.748,154.748,0,0,1,149.185,318.8a156.385,156.385,0,0,1-34.748,7.594,153.325,153.325,0,0,1-35.071-.5,156.067,156.067,0,0,1-65.4-24.28q-1.8-1.183-3.564-2.419c-.669-.467-1.3.63-.639,1.1a157.12,157.12,0,0,0,65.174,26.234,153.962,153.962,0,0,0,35.454,1.489,157.3,157.3,0,0,0,67.7-21.053q1.946-1.143,3.86-2.342c.69-.431.054-1.528-.64-1.094" transform="translate(2.055 64.841)" fill="#1d1d1b"/>
        <path id="Path_921845" data-name="Path 921845" d="M139.1,226.229q-.533-12.26-1.063-24.517l-.6-13.775c-.035-.813-1.3-.818-1.268,0q.537,12.322,1.071,24.644.531,12.258,1.063,24.517.3,6.872.6,13.745a.56.56,0,0,0-.591.022,32.8,32.8,0,0,1-12.7,4.43,34.411,34.411,0,0,1-13.5-.893,31.93,31.93,0,0,1-6.7-2.664q-1.143-12.006-1.725-24.059-.582-12.068-.6-24.152-.007-6.8.164-13.59a.634.634,0,0,0-1.268,0q-.3,12.141-.04,24.286.265,12.077,1.1,24.134.465,6.742,1.108,13.471c-3.658-.044-7.207,1.123-10.814,1.581a47.019,47.019,0,0,1-9.781.2,48.328,48.328,0,0,1-18.658-5.488,46.162,46.162,0,0,1-8.755-6.039.4.4,0,0,0,0-.04q.491-11.524,1.242-23.036t1.766-23q.569-6.468,1.223-12.927a.639.639,0,0,0-.634-.634.649.649,0,0,0-.634.634q-1.159,11.477-2.059,22.977t-1.537,23.019q-.36,6.481-.635,12.969c0,.012,0,.022,0,.033-7.575,2.3-15.627.871-22.9-1.808-2.061-.759-4.084-1.621-6.082-2.535-.026-.011-.051-.019-.078-.028,0-.019.009-.038.011-.056q1.254-11.714,2.71-23.4,1.447-11.6,3.1-23.184c.308-2.156.629-4.31.936-6.465a29.678,29.678,0,0,0,.385-6.573.65.65,0,0,0-.634-.634.639.639,0,0,0-.634.634,26.706,26.706,0,0,1-.27,5.744c-.264,1.947-.565,3.889-.843,5.833q-.83,5.8-1.611,11.606Q27.393,212.844,26.03,224.5q-.768,6.571-1.472,13.148a.6.6,0,0,0,.391.579.6.6,0,0,0,.3.6,72.366,72.366,0,0,0,11.342,4.247,38.157,38.157,0,0,0,12,1.375,28.391,28.391,0,0,0,6.675-1.168.676.676,0,0,0,.2-.1,49.155,49.155,0,0,0,36.554,11.639,58.885,58.885,0,0,0,5.914-.937,28.115,28.115,0,0,1,6.65-.782.564.564,0,0,0,.417-.14,34.326,34.326,0,0,0,12.8,3.744,35.469,35.469,0,0,0,13.893-1.476,33.356,33.356,0,0,0,7.241-3.273.584.584,0,0,0,.3-.549.608.608,0,0,0,.922-.537l-1.07-24.644" transform="translate(5.323 38.458)" fill="#1d1d1b"/>
        <path id="Path_921846" data-name="Path 921846" d="M144.422,409.552c-4.265,4.378-10.388,6.338-16.371,6.695a53.021,53.021,0,0,1-10.518-.559,56.119,56.119,0,0,1-8.969-1.842,17.994,17.994,0,0,1-7.989-4.691c-.555-.6-1.45.3-.9.9,4.157,4.485,10.506,5.787,16.3,6.678,6.812,1.046,13.96,1.476,20.57-.847a22.65,22.65,0,0,0,8.772-5.435c.569-.584-.325-1.481-.9-.9" transform="translate(21.572 88.661)" fill="#1d1d1b"/>
        <path id="Path_921847" data-name="Path 921847" d="M144.847,403.906a.648.648,0,0,0-.9,0c-4.541,3.794-10.508,5.214-16.283,5.693a85.884,85.884,0,0,1-9.265.2,29.77,29.77,0,0,1-10.277-1.764,50.3,50.3,0,0,1-9.591-5.552.26.26,0,0,0-.032-.017,43.254,43.254,0,0,1,16.046-6.552,44.851,44.851,0,0,1,17.634.148,41.841,41.841,0,0,1,9.472,3.2.65.65,0,0,0,.868-.227.641.641,0,0,0-.228-.868,44.438,44.438,0,0,0-17.768-4.293,46.155,46.155,0,0,0-17.9,2.967,43.216,43.216,0,0,0-9.148,4.787.649.649,0,0,0-.228.868.661.661,0,0,0,.406.294.638.638,0,0,0,.236.787,55.872,55.872,0,0,0,8.811,5.229,24.36,24.36,0,0,0,4.956,1.6,35.675,35.675,0,0,0,5.415.618,85.737,85.737,0,0,0,9.67-.089,43.164,43.164,0,0,0,9.061-1.474,24.6,24.6,0,0,0,9.038-4.659.64.64,0,0,0,0-.9" transform="translate(21.066 85.386)" fill="#1d1d1b"/>
        <path id="Path_921848" data-name="Path 921848" d="M139.085,387.393c-5.187-3.4-11.578-4.063-17.637-3.857a81.85,81.85,0,0,0-9.829.911,32.8,32.8,0,0,0-9.451,2.8,19.438,19.438,0,0,0-7.549,6.333.634.634,0,1,0,1.094.64c3.42-4.995,9.385-7.334,15.128-8.367a74.721,74.721,0,0,1,9.542-1.009,44.442,44.442,0,0,1,8.93.32,22.8,22.8,0,0,1,9.132,3.318c.684.449,1.32-.647.64-1.094" transform="translate(20.493 83.142)" fill="#1d1d1b"/>
        <path id="Path_921849" data-name="Path 921849" d="M126.158,365.092a42.1,42.1,0,0,1-12.237,4.359,43.105,43.105,0,0,1-12.928.483,41.2,41.2,0,0,1-7.162-1.477.635.635,0,0,0-.337,1.223,43.291,43.291,0,0,0,13.257,1.788,44.265,44.265,0,0,0,13.084-2.251,42.948,42.948,0,0,0,6.964-3.03c.717-.391.077-1.484-.64-1.094" transform="translate(20.173 79.133)" fill="#1d1d1b"/>
        <path id="Path_921850" data-name="Path 921850" d="M125.692,356.543a42.106,42.106,0,0,1-12.237,4.359,43.1,43.1,0,0,1-12.928.483,41.187,41.187,0,0,1-7.162-1.477.635.635,0,0,0-.337,1.223,43.292,43.292,0,0,0,13.257,1.787,44.266,44.266,0,0,0,13.084-2.251,42.946,42.946,0,0,0,6.964-3.03c.717-.391.077-1.484-.64-1.094" transform="translate(20.072 77.28)" fill="#1d1d1b"/>
        <path id="Path_921851" data-name="Path 921851" d="M93.321,383.587a.64.64,0,0,0-.868-.228q-5.127,3.736-10.522,7.088-5.366,3.331-10.968,6.262-5.622,2.939-11.451,5.457a96.724,96.724,0,0,1-11.842,4.447c-3.963,1.126-8.213,1.766-12.28.8-.518-.123-1.028-.271-1.533-.44-.775-.26-1.107.964-.337,1.223a23.1,23.1,0,0,0,12.628.119,77.779,77.779,0,0,0,12.161-4.276q5.928-2.484,11.662-5.4,5.68-2.891,11.132-6.2,5.474-3.322,10.687-7.048.653-.467,1.3-.941a.653.653,0,0,0,.228-.868" transform="translate(7.172 83.091)" fill="#1d1d1b"/>
        <path id="Path_921852" data-name="Path 921852" d="M91.9,378.226q-5.846,3.021-11.7,6.029T68.466,390.21c-2.066,1.034-4.133,2.073-6.209,3.093a22.11,22.11,0,0,0-4.838-9,26.48,26.48,0,0,0-8.588-6.381,33.322,33.322,0,0,0-5.871-2.131.635.635,0,0,0-.337,1.223c6.669,1.742,12.909,5.6,16.4,11.689a19.773,19.773,0,0,1,2.07,5.16l0,0c-1.4.679-2.8,1.349-4.206,2q-.659.3-1.323.6c-3.357-5.387-7.433-11.04-13.925-12.692a12.422,12.422,0,0,0-5.39-.195.64.64,0,0,0-.443.78.648.648,0,0,0,.78.443,12.426,12.426,0,0,1,8.449,1.742,22.426,22.426,0,0,1,6.582,6.276c.987,1.341,1.89,2.741,2.771,4.154a53.35,53.35,0,0,1-9.2,3.063,29.566,29.566,0,0,1-12.213.36c-.5-.1-1-.218-1.493-.35a.634.634,0,0,0-.337,1.222,29.268,29.268,0,0,0,12.517.359,52.564,52.564,0,0,0,12.071-3.86c3.942-1.719,7.786-3.672,11.635-5.59q5.945-2.964,11.856-6,5.941-3.039,11.867-6.11l1.448-.748c.724-.374.084-1.469-.64-1.094" transform="translate(6.655 81.466)" fill="#1d1d1b"/>
        <path id="Path_921853" data-name="Path 921853" d="M86.49,366.651a39.72,39.72,0,0,1-11.073,1.794,40.424,40.424,0,0,1-11.087-1.325,38.943,38.943,0,0,1-5.96-2.094.654.654,0,0,0-.868.228.638.638,0,0,0,.228.866,40.875,40.875,0,0,0,11.1,3.19,42.171,42.171,0,0,0,11.618,0,39.878,39.878,0,0,0,6.378-1.432c.776-.242.444-1.466-.337-1.222" transform="translate(12.449 79.12)" fill="#1d1d1b"/>
        <path id="Path_921854" data-name="Path 921854" d="M86.49,358.1A39.722,39.722,0,0,1,75.417,359.9,40.425,40.425,0,0,1,64.33,358.57a38.94,38.94,0,0,1-5.96-2.094.654.654,0,0,0-.868.228.638.638,0,0,0,.228.866,40.873,40.873,0,0,0,11.1,3.19,42.172,42.172,0,0,0,11.618,0,39.882,39.882,0,0,0,6.378-1.432c.776-.242.444-1.466-.337-1.222" transform="translate(12.449 77.267)" fill="#1d1d1b"/>
        <path id="Path_921855" data-name="Path 921855" d="M115.966,155.674a11.458,11.458,0,0,0,1.924,2.318l31.064-21.709-1.341-5.973-2.682,1.219L121.4,145.3l-4.511,2.2s.236,5.454-.927,8.176" transform="translate(25.141 28.251)" fill="#1d1d1b"/>
        <path id="Path_921856" data-name="Path 921856" d="M42.049,144.876C35.1,140.81,29.49,128.891,29.49,128.891s-1.638,2.894-3.474,3.077-6.894-2.065-6.894-2.065l-.5,3.288,20.075,16.968a12.364,12.364,0,0,1,3.357-5.283" transform="translate(4.036 27.943)" fill="#1d1d1b"/>
      </g>
    </g>
  </g>
</svg>
