<svg id="Group_1118346" data-name="Group 1118346" xmlns="http://www.w3.org/2000/svg" xmlns:xlink="http://www.w3.org/1999/xlink" width="123.141" height="126.901" viewBox="0 0 123.141 126.901">
  <defs>
    <clipPath id="clip-path">
      <rect id="Rectangle_408577" data-name="Rectangle 408577" width="123.141" height="126.902" fill="none"/>
    </clipPath>
    <clipPath id="clip-path-3">
      <rect id="Rectangle_408562" data-name="Rectangle 408562" width="96.096" height="71.973" fill="none"/>
    </clipPath>
    <clipPath id="clip-path-4">
      <rect id="Rectangle_408563" data-name="Rectangle 408563" width="26.26" height="38.269" fill="none"/>
    </clipPath>
    <clipPath id="clip-path-5">
      <rect id="Rectangle_408571" data-name="Rectangle 408571" width="42.893" height="57.514" fill="none"/>
    </clipPath>
    <clipPath id="clip-path-6">
      <rect id="Rectangle_408572" data-name="Rectangle 408572" width="38.18" height="40.204" fill="none"/>
    </clipPath>
    <clipPath id="clip-path-7">
      <rect id="Rectangle_408573" data-name="Rectangle 408573" width="31.951" height="13.504" fill="none"/>
    </clipPath>
    <clipPath id="clip-path-8">
      <rect id="Rectangle_408574" data-name="Rectangle 408574" width="21.343" height="32.778" fill="none"/>
    </clipPath>
    <clipPath id="clip-path-9">
      <rect id="Rectangle_408575" data-name="Rectangle 408575" width="24.139" height="24.144" fill="none"/>
    </clipPath>
  </defs>
  <g id="Group_1118345" data-name="Group 1118345" clip-path="url(#clip-path)">
    <g id="Group_1118344" data-name="Group 1118344">
      <g id="Group_1118343" data-name="Group 1118343" clip-path="url(#clip-path)">
        <path id="Path_920070" data-name="Path 920070" d="M3.683,126.9A3.683,3.683,0,0,1,0,123.219V61.57a61.57,61.57,0,1,1,123.141,0v61.648a3.683,3.683,0,0,1-3.683,3.683Z" transform="translate(0 0)" fill="#fff"/>
        <path id="Path_920071" data-name="Path 920071" d="M117,69.513l5.226,8.777v47.775H6.445V64.42a57.736,57.736,0,0,1,19.822-43.61c1.32-1.154,3.023.513,4.447-.512.651-.479-.277.207.392-.235.368-.246,2-4.4,2.374-4.63A57.894,57.894,0,0,1,122.117,60.94v.006c.068,1.148-5.122,7.4-5.122,8.567" transform="translate(-2.489 -2.522)" fill="#f6ae5c"/>
        <path id="Path_920072" data-name="Path 920072" d="M134.785,75.433c-.025.344-.055.694-.1,1.037v7.268a19.145,19.145,0,0,1-13.346,8.834c-.135.031-.27.055-.405.08a31.071,31.071,0,0,1-13.413-.952A56.841,56.841,0,0,1,91.832,84.31a110.043,110.043,0,0,1-18.95-16.182.651.651,0,0,1-.092-.092c-4.665-4.911-7.526-8.607-7.8-8.729l-.006-.006h-.006a.787.787,0,0,1-.1-.043.5.5,0,0,0-.08-.037c-.111-.049-.264-.123-.454-.215a59.732,59.732,0,0,1-7.667-4.438c-.319-.215-.638-.442-.964-.669-.491-.35-.988-.712-1.486-1.093-.172-.123-.338-.252-.5-.387-.761-.583-1.529-1.209-2.284-1.878-.227-.2-.454-.4-.675-.6-.448-.405-.9-.823-1.338-1.258-.221-.215-.436-.436-.651-.657s-.436-.448-.645-.681c-.43-.454-.847-.927-1.252-1.406-.068-.08-.141-.166-.209-.252-.233-.276-.454-.552-.675-.841-.215-.27-.417-.54-.62-.816-.522-.718-1.025-1.461-1.486-2.228-.221-.356-.43-.724-.632-1.093a36.423,36.423,0,0,1-4.309-11.344v-.006a15.422,15.422,0,0,1-.221-2.947c1.32-1.154,2.695-2.253,4.119-3.278.651-.479,1.308-.933,1.977-1.375.368-.246.743-.491,1.117-.724.184.129.374.27.565.417q.12.083.239.184a32,32,0,0,1,4.365,4.506c.16.19.319.387.473.583.123.153.246.3.362.454.1.129.2.258.3.387.2.246.387.5.577.743.08.11.16.215.246.325,1.6,2.124,3,4.174,3.953,5.525.031.043.061.086.086.123.215.307.405.571.565.786a3.671,3.671,0,0,0,.239.3c.092.11.2.221.3.331a.58.58,0,0,0,.061.061c.117.117.239.233.362.344l.012.012.025.025a12.564,12.564,0,0,0,1.835,1.332c.031.018.068.037.1.055a22.83,22.83,0,0,0,2.609,1.338c.153.068.3.135.448.2.743.313,1.43.571,1.989.767h.006l.534.184c.546.178.884.276.884.276s.135-.3.393-.829c.289-.589.724-1.461,1.3-2.511.178-.325.368-.663.565-1.019a.539.539,0,0,0,.037-.061c.5-.878,1.074-1.835,1.707-2.83.221-.35.454-.7.694-1.056.62-.927,1.289-1.872,2.007-2.793q.414-.534.847-1.05A30.594,30.594,0,0,1,76.8,25.79c.35-.344.712-.675,1.074-.988a17.241,17.241,0,0,1,2.234-1.645,11.917,11.917,0,0,1,1.737-.89,8.391,8.391,0,0,1,3.315-.681c.6.006,1.24.049,1.915.123.338.037.675.086,1.031.135.712.11,1.455.252,2.222.417a.023.023,0,0,0,.018.006c.356.08.724.166,1.093.258.19.049.387.1.583.147.325.086.657.178.988.27.46.129.921.27,1.387.417.319.1.645.2.97.313.792.264,1.6.546,2.394.853.295.11.583.221.878.338,1.007.393,2,.816,2.983,1.258.411.184.816.368,1.222.559q.35.166.681.331c.227.111.454.221.675.331.448.221.884.448,1.32.681s.853.46,1.271.7c.559.313,1.1.632,1.627.958.172.1.344.215.516.325.368.227.731.467,1.074.7.209.147.411.289.608.43.227.16.454.319.669.485.454.338.878.681,1.271,1.019.129.11.258.227.381.338.338.3.651.608.933.9.086.1.172.2.258.289s.178.209.264.307c.1.129.2.258.295.381a2.729,2.729,0,0,1,.166.233,6.357,6.357,0,0,1,.387.62c.049.092.092.184.135.27s.086.2.123.295a.089.089,0,0,1,.012.043h.006v.006a3.489,3.489,0,0,1,.153.516,7.607,7.607,0,0,1,.16,1.338,14.27,14.27,0,0,1-.1,2.413c-.043.405-.1.816-.172,1.24-.006.031-.012.068-.018.1-.153.927-.368,1.885-.608,2.848-.031.1-.055.209-.086.319V45.1c-.11.417-.221.835-.344,1.246-.147.51-.3,1.007-.46,1.5v.006c-.055.19-.117.387-.184.577-.2.632-.411,1.24-.626,1.829-.141.405-.282.792-.417,1.166-.276.731-.54,1.406-.78,2-.092.239-.178.46-.264.663-.2.485-.368.89-.5,1.2-.018.049-.043.1-.061.147-.147.338-.233.528-.233.528s.6-.1,1.614-.178a.23.23,0,0,0,.061-.006l.209-.012.454-.018.577-.025c.491-.006,1.031-.006,1.614.012h.006c.62.025,1.3.068,2,.147s1.424.172,2.179.319a24.151,24.151,0,0,1,4.537,1.32,20.782,20.782,0,0,1,3.855,2.026,19.585,19.585,0,0,1,1.774,1.326c.147.123.289.246.436.368a21.7,21.7,0,0,1,2.149,2.216c.233.289.467.583.7.89.123.166.252.344.374.516s.246.356.368.54c.239.362.473.743.706,1.136v.006c.068,1.148.1,2.308.1,3.475v2.038a17.72,17.72,0,0,1,.1,3.376" transform="translate(-14.954 -8.121)" fill="#ffb929"/>
        <g id="Group_1118324" data-name="Group 1118324" transform="translate(23.773 12.911)" opacity="0.69">
          <g id="Group_1118323" data-name="Group 1118323">
            <g id="Group_1118322" data-name="Group 1118322" clip-path="url(#clip-path-3)">
              <path id="Path_920073" data-name="Path 920073" d="M134.785,75.433c-.025.344-.055.694-.1,1.037v7.268a19.145,19.145,0,0,1-13.346,8.834c-.135.031-.27.055-.405.08a31.071,31.071,0,0,1-13.413-.952A56.841,56.841,0,0,1,91.832,84.31a110.043,110.043,0,0,1-18.95-16.182.651.651,0,0,1-.092-.092c-4.665-4.911-7.526-8.607-7.8-8.729l-.006-.006h-.006a.787.787,0,0,1-.1-.043.5.5,0,0,0-.08-.037c-.111-.049-.264-.123-.454-.215a59.732,59.732,0,0,1-7.667-4.438c-.319-.215-.638-.442-.964-.669-.491-.35-.988-.712-1.486-1.093-.172-.123-.338-.252-.5-.387-.761-.583-1.529-1.209-2.284-1.878-.227-.2-.454-.4-.675-.6-.448-.405-.9-.823-1.338-1.258-.221-.215-.436-.436-.651-.657s-.436-.448-.645-.681c-.43-.454-.847-.927-1.252-1.406-.068-.08-.141-.166-.209-.252-.233-.276-.454-.552-.675-.841-.215-.27-.417-.54-.62-.816-.522-.718-1.025-1.461-1.486-2.228-.221-.356-.43-.724-.632-1.093a36.423,36.423,0,0,1-4.309-11.344v-.006a15.422,15.422,0,0,1-.221-2.947c1.32-1.154,2.695-2.253,4.119-3.278.651-.479,1.308-.933,1.977-1.375.368-.246.743-.491,1.117-.724.184.129.374.27.565.417q.12.083.239.184a32,32,0,0,1,4.365,4.506c.16.19.319.387.473.583.123.153.246.3.362.454.1.129.2.258.3.387.2.246.387.5.577.743.08.11.16.215.246.325,1.6,2.124,3,4.174,3.953,5.525.031.043.061.086.086.123.215.307.405.571.565.786a3.671,3.671,0,0,0,.239.3c.092.11.2.221.3.331a.58.58,0,0,0,.061.061c.117.117.239.233.362.344l.012.012.025.025a12.564,12.564,0,0,0,1.835,1.332c.031.018.068.037.1.055a22.83,22.83,0,0,0,2.609,1.338c.153.068.3.135.448.2.743.313,1.43.571,1.989.767h.006l.534.184c.546.178.884.276.884.276s.135-.3.393-.829c.289-.589.724-1.461,1.3-2.511.178-.325.368-.663.565-1.019a.539.539,0,0,0,.037-.061c.5-.878,1.074-1.835,1.707-2.83.221-.35.454-.7.694-1.056.62-.927,1.289-1.872,2.007-2.793q.414-.534.847-1.05A30.594,30.594,0,0,1,76.8,25.79c.35-.344.712-.675,1.074-.988a17.241,17.241,0,0,1,2.234-1.645,11.917,11.917,0,0,1,1.737-.89,8.391,8.391,0,0,1,3.315-.681c.6.006,1.24.049,1.915.123.338.037.675.086,1.031.135.712.11,1.455.252,2.222.417a.023.023,0,0,0,.018.006c.356.08.724.166,1.093.258.19.049.387.1.583.147.325.086.657.178.988.27.46.129.921.27,1.387.417.319.1.645.2.97.313.792.264,1.6.546,2.394.853.295.11.583.221.878.338,1.007.393,2,.816,2.983,1.258.411.184.816.368,1.222.559q.35.166.681.331c.227.111.454.221.675.331.448.221.884.448,1.32.681s.853.46,1.271.7c.559.313,1.1.632,1.627.958.172.1.344.215.516.325.368.227.731.467,1.074.7.209.147.411.289.608.43.227.16.454.319.669.485.454.338.878.681,1.271,1.019.129.11.258.227.381.338.338.3.651.608.933.9.086.1.172.2.258.289s.178.209.264.307c.1.129.2.258.295.381a2.729,2.729,0,0,1,.166.233,6.357,6.357,0,0,1,.387.62c.049.092.092.184.135.27s.086.2.123.295c.006.012.012.031.018.043v.006a3.489,3.489,0,0,1,.153.516,7.607,7.607,0,0,1,.16,1.338,14.27,14.27,0,0,1-.1,2.413c-.043.405-.1.816-.172,1.24-.006.031-.012.068-.018.1-.153.927-.368,1.885-.608,2.848-.031.1-.055.209-.086.319V45.1c-.11.417-.221.835-.344,1.246-.147.51-.3,1.007-.46,1.5v.006c-.055.19-.117.387-.184.577-.2.632-.411,1.24-.626,1.829-.141.405-.282.792-.417,1.166-.276.731-.54,1.406-.78,2-.092.239-.178.46-.264.663-.2.485-.368.89-.5,1.2-.018.049-.043.1-.061.147-.147.338-.233.528-.233.528s.6-.1,1.614-.178a.23.23,0,0,0,.061-.006l.209-.012.454-.018.577-.025c.491-.006,1.031-.006,1.614.012h.006c.62.025,1.3.068,2,.147s1.424.172,2.179.319a24.151,24.151,0,0,1,4.537,1.32,20.782,20.782,0,0,1,3.855,2.026,19.585,19.585,0,0,1,1.774,1.326c.147.123.289.246.436.368a21.7,21.7,0,0,1,2.149,2.216c.233.289.467.583.7.89.123.166.252.344.374.516s.246.356.368.54c.239.362.473.743.706,1.136v.006c.068,1.148.1,2.308.1,3.475v2.038a17.72,17.72,0,0,1,.1,3.376" transform="translate(-38.727 -21.032)" fill="#fce8db"/>
            </g>
          </g>
        </g>
        <g id="Group_1118327" data-name="Group 1118327" transform="translate(23.773 12.911)" opacity="0.24">
          <g id="Group_1118326" data-name="Group 1118326">
            <g id="Group_1118325" data-name="Group 1118325" clip-path="url(#clip-path-4)">
              <path id="Path_920074" data-name="Path 920074" d="M64.987,59.3h-.006a.787.787,0,0,1-.1-.043.5.5,0,0,0-.08-.037c-.111-.049-.264-.123-.454-.215a59.732,59.732,0,0,1-7.667-4.438c-.319-.215-.638-.442-.964-.669-.491-.344-.988-.706-1.486-1.093-.172-.123-.338-.252-.5-.387-.761-.583-1.529-1.209-2.284-1.878-.227-.2-.454-.4-.675-.6-.448-.405-.9-.823-1.338-1.258-.221-.215-.436-.436-.651-.657s-.436-.448-.645-.681c-.43-.454-.847-.927-1.252-1.406-.068-.08-.141-.166-.209-.252-.233-.276-.454-.552-.675-.841-.215-.27-.417-.54-.62-.816-.522-.718-1.025-1.461-1.486-2.228-.221-.356-.43-.724-.632-1.093a36.423,36.423,0,0,1-4.309-11.344v-.006a15.422,15.422,0,0,1-.221-2.947c1.32-1.154,2.695-2.253,4.119-3.278.651-.479,1.308-.933,1.977-1.375.368-.246.743-.491,1.117-.724.184.129.374.27.565.417q.12.083.239.184a32,32,0,0,1,4.365,4.506c.16.19.319.387.473.583.123.153.246.3.362.454.1.129.2.258.3.387.2.246.387.5.577.743.08.11.16.215.246.325,1.6,2.124,3,4.174,3.953,5.525.031.074.08.141.1.209a1.333,1.333,0,0,1,.043.147c.172.816.35,1.608.522,2.376.147.638.295,1.252.436,1.86v.006c.068.282.141.571.209.847.025.1.049.2.074.3,0,.006,0,.006.006.012a1.314,1.314,0,0,0,.037.166v.012c.289,1.142.571,2.235.847,3.266v.006c.031.1.055.2.086.295.08.295.16.583.233.872a99.21,99.21,0,0,0,4.138,12.13v.006c.068.172.141.338.2.485l.006.006c.608,1.387.988,2.075,1.019,2.142" transform="translate(-38.727 -21.032)" fill="#37004d"/>
            </g>
          </g>
        </g>
        <path id="Path_920075" data-name="Path 920075" d="M94.974,45.072a.633.633,0,0,1-.083-.006l-6.53-.888a.614.614,0,1,1,.165-1.217l4.813.654-2.991-3.178a.614.614,0,1,1,.894-.842l4.18,4.441a.614.614,0,0,1-.448,1.035" transform="translate(-33.913 -15.215)" fill="#37004d"/>
        <path id="Path_920076" data-name="Path 920076" d="M141.853,38.956a42.155,42.155,0,0,0-10.964-6.476A167.977,167.977,0,0,0,111.835,25.4a51.455,51.455,0,0,0-5.7-1.461,11.917,11.917,0,0,1,1.737-.89c1.522.344,2.977.773,4.322,1.179a168.641,168.641,0,0,1,19.189,7.133,46.538,46.538,0,0,1,10.153,5.74h.006V37.1a3.49,3.49,0,0,1,.153.516,7.6,7.6,0,0,1,.16,1.338" transform="translate(-40.98 -8.898)" fill="#37004d"/>
        <rect id="Rectangle_408564" data-name="Rectangle 408564" width="4.443" height="1.227" transform="matrix(0.411, -0.912, 0.912, 0.411, 61.548, 26.275)" fill="#37004d"/>
        <path id="Path_920077" data-name="Path 920077" d="M98.505,37.925h-.012l-5.381-.1a.614.614,0,0,1,.012-1.228h.012l4.123.08-2.066-2.755a.613.613,0,1,1,.982-.736L99,36.943a.614.614,0,0,1-.491.982" transform="translate(-35.72 -12.717)" fill="#37004d"/>
        <path id="Path_920078" data-name="Path 920078" d="M139.668,42.963c-.044.405-.1.816-.172,1.24l-.061-.08-.184.031c-.546-.344-1.184-.731-1.921-1.166-1.387-.816-3.118-1.786-5.206-2.861-1.344-.694-2.83-1.43-4.469-2.2-.1-.049-.215-.1-.325-.153-.257-.123-.522-.239-.791-.368-.688-.313-1.4-.632-2.137-.952l-.006-.006c-.675-.295-1.357-.6-2.075-.9-.368-.153-.742-.307-1.123-.467-.006,0-.012-.006-.018-.006h-.006q-1.372-.571-2.676-1.087a3.075,3.075,0,0,0-.307-.117h-.012c-.834-.331-1.638-.645-2.43-.945-2.008-.755-3.886-1.412-5.611-1.989-1.443-.485-2.781-.9-4-1.271-.411-.129-.81-.246-1.19-.362-.46-.129-.9-.258-1.326-.381-.792-.221-1.51-.411-2.155-.577q-.377-.1-.718-.184c.35-.344.712-.675,1.074-.988a151.877,151.877,0,0,1,19.852,6.771,122.9,122.9,0,0,1,18,9.018" transform="translate(-38.899 -10.493)" fill="#37004d"/>
        <path id="Path_920079" data-name="Path 920079" d="M136.884,49.569v.006c-.111.417-.221.835-.344,1.246-.927-.589-2.185-1.344-3.818-2.247-1.418-.792-3.118-1.688-5.12-2.683-1.387-.688-2.916-1.418-4.6-2.192-.1-.049-.2-.092-.3-.141-.271-.123-.546-.246-.823-.368-.325-.147-.663-.3-1-.448-1.014-.448-2.069-.909-3.18-1.375l-.386-.166c-.252-.1-.5-.215-.756-.313q-2.356-.985-4.475-1.817-3.038-1.188-5.579-2.093c-1.952-.688-3.683-1.265-5.188-1.743-.006,0-.012-.006-.018-.006-.331-.1-.657-.2-.964-.295h-.006c-.687-.215-1.314-.4-1.885-.565q-1.1-.313-1.933-.534c-.246-.061-.473-.123-.681-.172q.413-.534.847-1.05l.05.018s0-.006.006,0q1.51.387,3.917,1.111h.006c.368.117.743.233,1.142.362.38.117.773.246,1.179.374q1.832.6,4.033,1.381c1.651.589,3.455,1.258,5.414,2.026q1.27.5,2.621,1.05h.007c.1.043.221.092.331.141h.006c.742.3,1.5.614,2.277.945h.006a1.075,1.075,0,0,1,.123.049c.343.147.681.289,1.012.43.694.295,1.369.589,2.02.872.78.344,1.535.681,2.259,1.013.2.092.4.178.6.27.178.08.356.166.528.239,1.6.743,3.051,1.443,4.371,2.1,2.014,1.007,3.708,1.909,5.114,2.695.841.473,1.578.9,2.216,1.283h.006c.215.135.417.258.614.374.123.08.246.153.363.221" transform="translate(-36.999 -12.593)" fill="#37004d"/>
        <path id="Path_920080" data-name="Path 920080" d="M133.57,57.155c-.141.405-.282.792-.417,1.166-1.154-.6-2.879-1.486-5.163-2.609q-2.081-1.031-4.788-2.32-2.053-.967-4.463-2.081c-.227-.1-.46-.209-.694-.313-.141-.068-.282-.129-.424-.2-.295-.135-.6-.27-.9-.405-1.074-.491-2.2-.994-3.376-1.516-.338-.153-.688-.307-1.037-.46l-.086-.037q-2.431-1.068-4.61-2-2.735-1.169-5.083-2.13Q100.046,43.22,98,42.422c-.393-.153-.767-.307-1.136-.448-2.29-.89-4.113-1.565-5.445-2.044.221-.35.454-.7.694-1.056.092.037.178.068.276.1H92.4c.89.319,1.958.718,3.192,1.191l1.5.577c.368.147.749.295,1.142.448,1.418.559,3,1.191,4.739,1.909q2.394.985,5.187,2.179h.006c1.43.608,2.928,1.265,4.512,1.964h.006a.944.944,0,0,1,.117.049c.338.147.675.3,1.007.448,1.32.583,2.584,1.148,3.781,1.694.178.08.356.16.528.239.258.117.5.233.755.35.055.025.117.049.172.08,1.6.731,3.082,1.418,4.444,2.063q3.066,1.455,5.353,2.591c2.044,1.013,3.622,1.817,4.727,2.394" transform="translate(-35.3 -15.01)" fill="#37004d"/>
        <rect id="Rectangle_408565" data-name="Rectangle 408565" width="3.717" height="1.228" transform="matrix(0.422, -0.907, 0.907, 0.422, 64.788, 21.514)" fill="#37004d"/>
        <path id="Path_920081" data-name="Path 920081" d="M97.381,31.8a.614.614,0,0,1-.006-1.228l4.389-.039-1.81-2.02a.614.614,0,0,1,.914-.82l2.716,3.03a.614.614,0,0,1-.451,1.024l-5.746.052Z" transform="translate(-37.364 -10.614)" fill="#37004d"/>
        <path id="Path_920082" data-name="Path 920082" d="M113.681,36.369,115.3,32.66l5.591,2.09L119.114,38.3Z" transform="translate(-43.895 -12.611)" fill="#37004d"/>
        <path id="Path_920083" data-name="Path 920083" d="M148.779,51.249l2.077-3.474,5.279,2.783-2.212,3.3Z" transform="translate(-57.447 -18.447)" fill="#37004d"/>
        <rect id="Rectangle_408566" data-name="Rectangle 408566" width="4.024" height="1.228" transform="matrix(0.493, -0.87, 0.87, 0.493, 80.485, 27.74)" fill="#37004d"/>
        <path id="Path_920084" data-name="Path 920084" d="M124.28,38.589l3.187-.567,1.877,2.488-3.187.7Z" transform="translate(-47.988 -14.681)" fill="#37004d"/>
        <path id="Path_920085" data-name="Path 920085" d="M161.811,54.981c-.153.927-.368,1.885-.608,2.848l-.448.1-.3.068-.313-.442h-.007l-1.553-2.179,3-.54c.08.049.153.1.228.147" transform="translate(-61.232 -21.173)" fill="#37004d"/>
        <path id="Path_920086" data-name="Path 920086" d="M137.619,47.228a.613.613,0,0,1-.451-.2L133.354,42.9a.613.613,0,0,1-.1-.686.626.626,0,0,1,.6-.343l5.695.47a.614.614,0,0,1-.1,1.224l-4.123-.341L138.07,46.2a.614.614,0,0,1-.451,1.031" transform="translate(-51.429 -16.169)" fill="#37004d"/>
        <path id="Path_920087" data-name="Path 920087" d="M140.358,47.543a.614.614,0,0,1-.539-.907l2.037-3.761a.614.614,0,1,1,1.079.586L140.9,47.222a.613.613,0,0,1-.54.321" transform="translate(-53.959 -16.431)" fill="#37004d"/>
        <path id="Path_920088" data-name="Path 920088" d="M110.107,43.491l1.985-4.023,5.59,2.09-2.4,4.127Z" transform="translate(-42.515 -15.24)" fill="#37004d"/>
        <path id="Path_920089" data-name="Path 920089" d="M143.468,58.1l2.717-4.336,5.12,2.665-2.455,4.231Z" transform="translate(-55.397 -20.76)" fill="#37004d"/>
        <rect id="Rectangle_408567" data-name="Rectangle 408567" width="5.191" height="1.228" transform="translate(77.293 32.395) rotate(-61.104)" fill="#37004d"/>
        <path id="Path_920090" data-name="Path 920090" d="M120.109,45.993l3.187-.567,1.877,2.488-3.187.7Z" transform="translate(-46.377 -17.54)" fill="#37004d"/>
        <path id="Path_920091" data-name="Path 920091" d="M115.213,55.037l3.419-.609,2.014,2.67-3.419.75Z" transform="translate(-44.487 -21.016)" fill="#37004d"/>
        <path id="Path_920092" data-name="Path 920092" d="M158.44,63.45v.006c-.056.19-.117.387-.184.577l-2.653.577-1.86-2.6-.012-.018.025-.006,3.161-.565Z" transform="translate(-59.36 -23.717)" fill="#37004d"/>
        <path id="Path_920093" data-name="Path 920093" d="M149.833,69.653l3.187-.567,1.877,2.488-3.187.7Z" transform="translate(-57.854 -26.676)" fill="#37004d"/>
        <path id="Path_920094" data-name="Path 920094" d="M132.769,53.866a.613.613,0,0,1-.451-.2L128.5,49.541a.613.613,0,0,1-.1-.686.621.621,0,0,1,.6-.343l5.695.47a.614.614,0,1,1-.1,1.224l-4.123-.341,2.743,2.969a.614.614,0,0,1-.451,1.031" transform="translate(-49.556 -18.731)" fill="#37004d"/>
        <path id="Path_920095" data-name="Path 920095" d="M135.507,54.181a.614.614,0,0,1-.539-.907l2.037-3.762a.614.614,0,1,1,1.079.586l-2.037,3.762a.615.615,0,0,1-.54.321" transform="translate(-52.086 -18.994)" fill="#37004d"/>
        <path id="Path_920096" data-name="Path 920096" d="M143.739,32.4a170.135,170.135,0,0,1-20.958-9.362c6.955,1.535,15.752,5.439,20.958,9.362" transform="translate(-47.409 -8.894)" fill="#37004d"/>
        <path id="Path_920097" data-name="Path 920097" d="M130.658,63.424c-.2.485-.368.89-.5,1.2-7.115-.319-13.923-3.088-20.344-5.961-7.446-3.333-15.261-7.133-22.149-12.376.178-.325.368-.663.565-1.019a.539.539,0,0,0,.037-.061,3.932,3.932,0,0,0,.319.239c1.559,1.185,3.174,2.29,4.819,3.327.344.227.7.448,1.05.663,1.516.933,3.057,1.811,4.616,2.652s3.143,1.651,4.721,2.419c1.424.7,2.848,1.363,4.266,2.014.374.172.743.338,1.111.51s.761.338,1.142.51c.73.325,1.467.657,2.21.976l1.209.516.43.184c.233.092.466.19.7.289,1.4.571,2.824,1.117,4.26,1.6A48.269,48.269,0,0,0,124.6,62.65a34.175,34.175,0,0,0,6.06.773" transform="translate(-33.849 -17.454)" fill="#37004d"/>
        <path id="Path_920098" data-name="Path 920098" d="M129.855,67.377c-.786.951-3.217,3.082-9.214,3.082a34.409,34.409,0,0,1-6.2-.626C103.974,67.9,86.4,53.97,83.471,51.606c.546.178.884.276.884.276s.135-.3.393-.829c3.972,3.161,20.35,15.8,29.92,17.569,8.8,1.627,12.492-.436,13.806-1.6-.147.338-.233.528-.233.528s.6-.1,1.614-.178" transform="translate(-32.23 -19.713)" fill="#37004d"/>
        <rect id="Rectangle_408568" data-name="Rectangle 408568" width="5.984" height="1.228" transform="translate(59.302 31.86) rotate(-65.229)" fill="#37004d"/>
        <path id="Path_920099" data-name="Path 920099" d="M105.936,53.378l2.3-6.165,5.172,1.932-2.769,6.635Z" transform="translate(-40.905 -18.23)" fill="#37004d"/>
        <rect id="Rectangle_408569" data-name="Rectangle 408569" width="6.993" height="1.228" transform="matrix(0.431, -0.902, 0.902, 0.431, 73.96, 39.572)" fill="#37004d"/>
        <rect id="Rectangle_408570" data-name="Rectangle 408570" width="7.147" height="1.228" transform="translate(79.668 42.066) rotate(-67.076)" fill="#37004d"/>
        <path id="Path_920100" data-name="Path 920100" d="M126.882,64.539l-3.728-6.9H130.3v1.228h-5.083l2.75,5.089Z" transform="translate(-47.553 -22.256)" fill="#37004d"/>
        <path id="Path_920101" data-name="Path 920101" d="M138.681,67.983,141.5,62.34l4.82,2.234-2.233,5.172Z" transform="translate(-53.548 -24.071)" fill="#37004d"/>
        <path id="Path_920102" data-name="Path 920102" d="M128.327,67.12c-.228,2.75-.6,5.341-2.3,7-1.768,1.725-4.463,1.909-6.415,1.762a25.947,25.947,0,0,1-7.06-1.707c-7.79-2.861-15.291-7.686-24.334-15.642-1.228-1.08-2.529-2.259-3.738-3.53a32.833,32.833,0,0,1-3.137-3.831H81.34c-.558-.2-1.246-.454-1.988-.767a35.741,35.741,0,0,0,4.241,5.445c1.241,1.308,2.566,2.5,3.818,3.6,9.159,8.06,16.783,12.953,24.715,15.875a27.209,27.209,0,0,0,7.4,1.774c.356.031.743.049,1.142.049A8.766,8.766,0,0,0,126.89,75c2.026-1.983,2.425-4.88,2.676-7.931Z" transform="translate(-30.64 -19.462)" fill="#37004d"/>
        <path id="Path_920103" data-name="Path 920103" d="M129.937,81.471a9.606,9.606,0,0,1-6.606,2.247,26.549,26.549,0,0,1-7.458-1.338,84.319,84.319,0,0,1-14.721-6.538,55.488,55.488,0,0,1-13.3-9.214C82.448,61.354,78.273,55,74.6,49.242a.019.019,0,0,0-.006-.012c-.239-.381-.479-.755-.718-1.13l.246-.16.061-.037a22.829,22.829,0,0,0,2.609,1.338c3.462,5.4,7.4,11.234,12.351,16.071a54.133,54.133,0,0,0,12.873,8.9,83.379,83.379,0,0,0,14.389,6.4c4.076,1.228,9.159,2.277,12.314-.528a8.052,8.052,0,0,0,2.265-6.661,33.212,33.212,0,0,0-1.909-7.317c.619.025,1.3.068,2,.147a31.83,31.83,0,0,1,1.743,7.029,9.892,9.892,0,0,1-2.878,8.183" transform="translate(-28.524 -18.497)" fill="#37004d"/>
        <path id="Path_920104" data-name="Path 920104" d="M141.835,79.706a12.587,12.587,0,0,1-.9,4.033,15.055,15.055,0,0,1-5.015,6.292,17.991,17.991,0,0,1-7.281,3.2,25.925,25.925,0,0,1-7.815.282,40.335,40.335,0,0,1-7.545-1.553c-1.222-.374-2.455-.718-3.64-1.2l-1.8-.663c-.589-.239-1.173-.51-1.756-.767a60.648,60.648,0,0,1-23.751-18.76,58.631,58.631,0,0,1-7.594-13.211c-1.3-3.106-2.259-6.3-3.358-9.386-.436-1.215-.89-2.413-1.4-3.591a7.524,7.524,0,0,0,.761.773,12.564,12.564,0,0,0,1.835,1.332l.037.092c.16.43.319.859.473,1.289a.019.019,0,0,1,.006.012c1.068,2.983,2.007,5.979,3.223,8.821a57,57,0,0,0,7.459,12.756,58.7,58.7,0,0,0,23.118,18.011c.571.239,1.13.5,1.7.724l1.737.632c1.148.454,2.339.773,3.517,1.123a38.273,38.273,0,0,0,7.182,1.436,23.938,23.938,0,0,0,7.17-.307,15.576,15.576,0,0,0,6.366-2.842A12.755,12.755,0,0,0,138.8,82.88a10.219,10.219,0,0,0,.712-3.278,11.712,11.712,0,0,0-.381-3.382,17.924,17.924,0,0,0-3.18-6.255,48.882,48.882,0,0,0-4.205-4.745,24.152,24.152,0,0,1,4.537,1.32c.552.638,1.087,1.3,1.6,1.989a20.432,20.432,0,0,1,3.53,7.109,13.9,13.9,0,0,1,.424,4.07" transform="translate(-27.021 -17.138)" fill="#37004d"/>
        <path id="Path_920105" data-name="Path 920105" d="M190.886,94.245v2.038a18.38,18.38,0,0,0-1.4-5.206,22.517,22.517,0,0,0-5.071-7.176c-.043-.043-.092-.086-.141-.129a19.587,19.587,0,0,1,1.774,1.326c.147.123.289.246.436.368a21.7,21.7,0,0,1,2.149,2.216c.239.289.473.583.7.89.123.166.252.344.374.516s.246.356.368.54c.239.362.473.743.706,1.136v.006c.068,1.148.1,2.308.1,3.475" transform="translate(-71.153 -32.347)" fill="#37004d"/>
        <path id="Path_920106" data-name="Path 920106" d="M143.74,92.066A18.146,18.146,0,0,0,146.25,84.8v6.065a17.683,17.683,0,0,1-1.117,2.069,17.085,17.085,0,0,1-7.139,6.3,21.48,21.48,0,0,1-5.089,1.664c-.135.031-.27.055-.405.08a27.987,27.987,0,0,1-3.7.411,37.984,37.984,0,0,1-9.331-.829,50.507,50.507,0,0,1-8.907-2.744,63.173,63.173,0,0,1-15.85-9.607A98.93,98.93,0,0,1,81.634,75.141a59.248,59.248,0,0,1-5.525-7.465c-.068-.11-.135-.221-.2-.338-.246-.405-.473-.816-.694-1.234-.282-.522-.546-1.056-.792-1.59v-.006A37.211,37.211,0,0,1,72.794,60.3V60.3c-.135-.393-.258-.78-.374-1.179l-.018-.074c-.675-2.308-1.191-4.641-1.664-6.98-.018-.061-.031-.123-.043-.184v-.012c-.006-.025-.012-.049-.018-.08v-.006c-.227-1.136-.448-2.265-.681-3.395v-.006l-.037-.166V48.2c-.018-.092-.037-.178-.055-.27a.023.023,0,0,0-.006-.018c-.049-.252-.1-.5-.153-.749-.129-.608-.258-1.222-.4-1.829-.184-.81-.381-1.621-.6-2.425a1.381,1.381,0,0,0-.055-.215c-.006-.031-.012-.055-.018-.086.215.307.405.571.565.786a3.673,3.673,0,0,0,.239.3c.092.11.2.227.3.331a.58.58,0,0,0,.061.061c.117.117.239.233.362.344l.012.012.025.025a.023.023,0,0,0,.006.018V44.5c.129.534.252,1.062.374,1.6.086.393.172.792.258,1.191.246,1.136.473,2.271.706,3.4.141.681.282,1.363.43,2.044.436,2.044.909,4.07,1.5,6.059a34.327,34.327,0,0,0,3.616,8.263,57.088,57.088,0,0,0,5.451,7.281c.583.681,1.173,1.363,1.768,2.032a.651.651,0,0,0,.092.092,92.442,92.442,0,0,0,11.1,10.712,66.925,66.925,0,0,0,7.845,5.47,56.757,56.757,0,0,0,7.71,3.843,49.216,49.216,0,0,0,8.662,2.615,36.371,36.371,0,0,0,8.95.755,22.324,22.324,0,0,0,8.588-2.05,15.471,15.471,0,0,0,6.433-5.74" transform="translate(-26.517 -16.454)" fill="#37004d"/>
        <path id="Path_920107" data-name="Path 920107" d="M63.416,37.386l-.522.381-.141.1-.325.239-.81-1.1-.086-.117L56.16,29.565A36.838,36.838,0,0,0,50.906,23.4a15.607,15.607,0,0,0-2.241-1.645c.368-.246.743-.491,1.117-.724.184.129.374.27.565.417q.12.083.239.184a32,32,0,0,1,4.365,4.506c.16.19.319.387.473.583.123.153.246.3.362.454.1.129.2.258.3.387.2.246.387.5.577.743.08.11.16.215.246.325,1.6,2.124,3,4.174,3.953,5.525.031.043.061.086.086.123.215.307.405.571.565.786a3.668,3.668,0,0,0,.239.3c.092.11.2.221.3.331a.579.579,0,0,0,.061.061c.117.117.239.233.362.344l.006.006.037.049v.006Z" transform="translate(-18.791 -8.121)" fill="#37004d"/>
        <path id="Path_920108" data-name="Path 920108" d="M60.451,45.723l-.829.129-.258.037a7.767,7.767,0,0,0-.178-.835c-.018-.061-.031-.123-.055-.184v-.012c-.012-.025-.018-.049-.031-.074v-.006a15.626,15.626,0,0,0-1.473-3.149c-.743-1.283-1.522-2.548-2.357-3.775,0-.006-.006-.006-.006-.012a63.527,63.527,0,0,0-5-6.525c0-.006,0-.006-.006-.012-.239-.282-.491-.559-.737-.835a16.581,16.581,0,0,0-5.537-4.426,3.4,3.4,0,0,0-2.247-.307,3.527,3.527,0,0,0-1.878,1.885,9.371,9.371,0,0,0-.909,3.057,15.422,15.422,0,0,1-.221-2.947c1.32-1.154,2.695-2.253,4.119-3.278a6.518,6.518,0,0,1,1.608.46,17.62,17.62,0,0,1,5.973,4.733,66.226,66.226,0,0,1,7.7,10.424v.006c.018.025.031.055.049.08.178.289.344.571.51.859a19.6,19.6,0,0,1,1.332,2.664c.141.681.282,1.363.43,2.044" transform="translate(-14.954 -9.442)" fill="#37004d"/>
        <path id="Path_920109" data-name="Path 920109" d="M66.742,63.194a44.123,44.123,0,0,1-18.12-18.134,11.708,11.708,0,0,1-1.64-6.249,4.678,4.678,0,0,1,1.856-3.551,4.49,4.49,0,0,1,4.486-.091,10.514,10.514,0,0,1,3.227,2.806,44.113,44.113,0,0,1,6.635,10.306l-1.114.516a42.955,42.955,0,0,0-6.458-10.029,9.479,9.479,0,0,0-2.835-2.5,3.322,3.322,0,0,0-3.253.007,3.477,3.477,0,0,0-1.323,2.64A10.64,10.64,0,0,0,49.715,44.5a42.816,42.816,0,0,0,17.58,17.6Z" transform="translate(-18.13 -13.367)" fill="#37004d"/>
        <path id="Path_920110" data-name="Path 920110" d="M67.712,60.5a10.022,10.022,0,0,1-4.231-2.3,28.46,28.46,0,0,1-6.132-7.1c-1.689-2.77-2.174-5.181-1.444-7.164a1.674,1.674,0,0,1,.606-.857,1.608,1.608,0,0,1,.9-.24h.028a5.248,5.248,0,0,1,2.661.909,15.794,15.794,0,0,1,6.519,8.072l-1.157.413a14.538,14.538,0,0,0-6-7.435,4.143,4.143,0,0,0-2.023-.73h-.018a.463.463,0,0,0-.223.033c-.012.009-.06.052-.138.262-.594,1.613-.143,3.666,1.34,6.1a27.242,27.242,0,0,0,5.869,6.792A8.912,8.912,0,0,0,67.956,59.3Z" transform="translate(-21.459 -16.543)" fill="#37004d"/>
        <path id="Path_920111" data-name="Path 920111" d="M20.313,83.546l23.758,43.487a2.255,2.255,0,0,0,2.686,1.06l14.9-4.912a2.256,2.256,0,0,0,1.516-2.529l-8.68-49.958Z" transform="translate(-7.843 -27.297)" fill="#f9a99e"/>
        <g id="Group_1118330" data-name="Group 1118330" transform="translate(12.471 43.396)" opacity="0.31">
          <g id="Group_1118329" data-name="Group 1118329">
            <g id="Group_1118328" data-name="Group 1118328" clip-path="url(#clip-path-5)">
              <path id="Path_920112" data-name="Path 920112" d="M63.176,120.653a2.263,2.263,0,0,1-1.518,2.528L46.76,128.1a2.267,2.267,0,0,1-2.69-1.065l-13.5-24.71-.362-.661-.574-1.055-.524-.963L20.316,83.548,54.49,70.692l3.373,19.423.008.006.217,1.268.141.8.127.748Z" transform="translate(-20.316 -70.692)" fill="#37004d"/>
            </g>
          </g>
        </g>
        <path id="Path_920113" data-name="Path 920113" d="M65.33,166.181l-13.762,3.957-.837.24-1.634.468-.762.222-10.373,2.981a4.913,4.913,0,0,1-4.187-.719,15.639,15.639,0,0,1-5.029-5.546c-1.393-2.839-1.614-6.584-1.594-8.865a4.892,4.892,0,0,1,1.4-3.37l9.581-9.767.7-.716.454-.457.507-.522,1.849-1.883,8.014-8.171L57.4,149.914Z" transform="translate(-10.483 -51.753)" fill="#f9a99e"/>
        <g id="Group_1118333" data-name="Group 1118333" transform="translate(16.667 82.279)" opacity="0.68">
          <g id="Group_1118332" data-name="Group 1118332">
            <g id="Group_1118331" data-name="Group 1118331" clip-path="url(#clip-path-6)">
              <path id="Path_920114" data-name="Path 920114" d="M65.33,166.181l-13.762,3.957-.837.24-1.634.468-.762.222-10.373,2.981a4.913,4.913,0,0,1-4.187-.719,15.639,15.639,0,0,1-5.029-5.546c-1.393-2.839-1.614-6.584-1.594-8.865a4.892,4.892,0,0,1,1.4-3.37l9.581-9.767.7-.716.454-.457.507-.522,1.849-1.883,8.014-8.171L57.4,149.914Z" transform="translate(-27.15 -134.031)" fill="#37004d"/>
            </g>
          </g>
        </g>
        <path id="Path_920115" data-name="Path 920115" d="M63.4,95.115l.217,1.268L52.8,84.821l-1.05,17.893a.347.347,0,0,1-.222.306.35.35,0,0,1-.367-.069l-.017-.019L38.134,90.638,35.163,105.6l-.524-.963L37.57,89.873a.349.349,0,0,1,.583-.186L51.1,101.921l1.053-17.965a.351.351,0,0,1,.606-.218L63.394,95.109Z" transform="translate(-13.375 -32.291)" fill="#f9a99e"/>
        <path id="Path_920116" data-name="Path 920116" d="M64.452,105.7l.126.748a76.921,76.921,0,0,1-12.028,5.5A69.57,69.57,0,0,1,39.271,115.5c-.93.149-1.759.26-2.48.339l-.362-.661a65.918,65.918,0,0,0,15.409-3.721c.155-.053.31-.107.471-.168.047-.015.094-.036.134-.05A75.425,75.425,0,0,0,64.452,105.7" transform="translate(-14.066 -40.815)" fill="#f9a99e"/>
        <path id="Path_920117" data-name="Path 920117" d="M55.127,63.407c-.974,4.157-7.052,10.488-18.083,14.25a37.272,37.272,0,0,1-20.165,1.221s-1.283-6.117-.22-10.693q.141-.588.33-1.142C18.613,62.42,30.151,58.4,30.151,58.4c3.985-1.391,8.052-2.852,12.326-3.058a10.513,10.513,0,0,1,6.133,1.313,10.319,10.319,0,0,1,2.548,2.177q1.978,2.29,3.97,4.577" transform="translate(-6.269 -21.361)" fill="#fce8db"/>
        <g id="Group_1118336" data-name="Group 1118336" transform="translate(10.389 33.96)" opacity="0.41">
          <g id="Group_1118335" data-name="Group 1118335">
            <g id="Group_1118334" data-name="Group 1118334" clip-path="url(#clip-path-7)">
              <path id="Path_920118" data-name="Path 920118" d="M48.875,56.653q-.145.226-.312.455A16.871,16.871,0,0,1,45.082,60.5,40.309,40.309,0,0,1,24.2,68.632c-1.706.151-5.286.51-7.276-.447q.141-.588.33-1.142C18.879,62.42,30.417,58.4,30.417,58.4c3.985-1.391,8.052-2.852,12.325-3.058a10.507,10.507,0,0,1,6.133,1.312" transform="translate(-16.924 -55.321)" fill="#f9a99e"/>
            </g>
          </g>
        </g>
        <path id="Path_920119" data-name="Path 920119" d="M62.906,166.837,59.2,176.463l-.837.241,3.723-9.678-12.75-1.11-.051-.006a.335.335,0,0,1-.287-.2.356.356,0,0,1,.022-.352l.058-.08,5.2-7.586,1.311-1.91L52.2,153.89l-5.285-2.958.507-.522,4.143,2.314,4.7,2.631a.362.362,0,0,1,.172.229.345.345,0,0,1-.055.279L54.708,158.3l-4.768,6.963,12.67,1.1a.332.332,0,0,1,.268.164.342.342,0,0,1,.028.309" transform="translate(-18.114 -58.077)" fill="#f9a99e"/>
        <path id="Path_920120" data-name="Path 920120" d="M56,177.786l-.762.222a37.584,37.584,0,0,1-10.2-25.287l.7-.716A36.79,36.79,0,0,0,48.351,165.9l.109.282c.048.12.095.234.149.354A36.92,36.92,0,0,0,56,177.786" transform="translate(-17.39 -58.693)" fill="#f9a99e"/>
        <path id="Path_920121" data-name="Path 920121" d="M86.218,158.187a14.784,14.784,0,0,1-2.823,4.124l-.309.2-4.614,2.944a2.3,2.3,0,0,1-1.823.29c-3.112-.818-12.557-4.076-15.448-13.983-2.686-9.209-1.738-16.035-1.168-18.665a2.3,2.3,0,0,1,1.4-1.662,23.8,23.8,0,0,1,10.037-1.7,16.073,16.073,0,0,1,3.644.664s6.889,2.167,10.78,12.089a21.127,21.127,0,0,1,.323,15.7" transform="translate(-22.934 -50.075)" fill="#fce8db"/>
        <g id="Group_1118339" data-name="Group 1118339" transform="translate(43.289 79.657)" opacity="0.41">
          <g id="Group_1118338" data-name="Group 1118338">
            <g id="Group_1118337" data-name="Group 1118337" clip-path="url(#clip-path-8)">
              <path id="Path_920122" data-name="Path 920122" d="M90.513,158.216a14.784,14.784,0,0,1-2.823,4.124l-.309.2a12.184,12.184,0,0,1-4.415-1.43,21.824,21.824,0,0,1-9.9-9.416,25.526,25.526,0,0,1-2.079-6.908c-.627-3.609-.824-7.471.726-10.787a9.32,9.32,0,0,1,4.057-4.236,16.073,16.073,0,0,1,3.644.664s6.889,2.167,10.78,12.089a21.127,21.127,0,0,1,.323,15.7" transform="translate(-70.517 -129.761)" fill="#f9a99e"/>
            </g>
          </g>
        </g>
        <path id="Path_920123" data-name="Path 920123" d="M151.526,161.886s5.589,22.681,11.832,20.109c5.615-2.314-.761-13.015-8.979-21.3Z" transform="translate(-58.508 -62.049)" fill="#37004d"/>
        <path id="Path_920124" data-name="Path 920124" d="M148.129,135.414a12.037,12.037,0,0,1,.7,4.322c-.007.292-.021.58-.05.869a12.069,12.069,0,1,1-21.285-8.87c.2-.238.406-.469.621-.688a12.071,12.071,0,0,1,20.014,4.367" transform="translate(-48.148 -49.191)" fill="#f9a99e"/>
        <g id="Group_1118342" data-name="Group 1118342" transform="translate(76.546 78.206)" opacity="0.68">
          <g id="Group_1118341" data-name="Group 1118341">
            <g id="Group_1118340" data-name="Group 1118340" clip-path="url(#clip-path-9)">
              <path id="Path_920125" data-name="Path 920125" d="M148.129,135.414a12.037,12.037,0,0,1,.7,4.322c-.007.292-.021.58-.05.869a12.069,12.069,0,1,1-21.285-8.87c.2-.238.406-.469.621-.688a12.071,12.071,0,0,1,20.014,4.367" transform="translate(-124.694 -127.397)" fill="#37004d"/>
            </g>
          </g>
        </g>
        <path id="Path_920126" data-name="Path 920126" d="M150.591,141.686c-.007.292-.021.58-.05.869a18.362,18.362,0,0,0-3.838-4.875,18.856,18.856,0,0,0-14.4-4.655,14.091,14.091,0,0,0-3.044.66c.2-.238.406-.469.621-.688a15.041,15.041,0,0,1,2.371-.446,19.33,19.33,0,0,1,14.776,4.775,18.7,18.7,0,0,1,3.567,4.359" transform="translate(-49.909 -51.141)" fill="#37004d"/>
        <path id="Path_920127" data-name="Path 920127" d="M85.766,20.861l-1.928.926a3.147,3.147,0,0,0-1.475,1.475l-.926,1.928a.282.282,0,0,1-.508,0L80,23.261a3.147,3.147,0,0,0-1.475-1.475L76.6,20.861a.282.282,0,0,1,0-.508l1.928-.926A3.15,3.15,0,0,0,80,17.953l.926-1.928a.282.282,0,0,1,.508,0l.926,1.928a3.15,3.15,0,0,0,1.475,1.475l1.928.926a.282.282,0,0,1,0,.508" transform="translate(-29.516 -6.126)" fill="#fff"/>
        <path id="Path_920128" data-name="Path 920128" d="M110.617,130.478l-1.928.926a3.144,3.144,0,0,0-1.475,1.475l-.926,1.928a.282.282,0,0,1-.508,0l-.926-1.928a3.147,3.147,0,0,0-1.475-1.475l-1.928-.926a.282.282,0,0,1,0-.508l1.928-.926a3.152,3.152,0,0,0,1.475-1.475l.926-1.928a.282.282,0,0,1,.508,0l.926,1.928a3.15,3.15,0,0,0,1.475,1.475l1.928.926a.282.282,0,0,1,0,.508" transform="translate(-39.112 -48.452)" fill="#fff"/>
        <path id="Path_920129" data-name="Path 920129" d="M172.574,69.542l-1.928.926a3.147,3.147,0,0,0-1.475,1.475l-.926,1.928a.282.282,0,0,1-.508,0l-.926-1.928a3.149,3.149,0,0,0-1.475-1.475l-1.928-.926a.282.282,0,0,1,0-.508l1.928-.926a3.149,3.149,0,0,0,1.475-1.475l.926-1.928a.282.282,0,0,1,.508,0l.926,1.928a3.147,3.147,0,0,0,1.475,1.475l1.928.926a.282.282,0,0,1,0,.508" transform="translate(-63.035 -24.923)" fill="#fff"/>
        <path id="Path_920130" data-name="Path 920130" d="M179.723,166.9l-1.928.926a3.144,3.144,0,0,0-1.475,1.475l-.926,1.928a.282.282,0,0,1-.508,0l-.926-1.928a3.144,3.144,0,0,0-1.475-1.475l-1.928-.926a.282.282,0,0,1,0-.508l1.928-.926a3.149,3.149,0,0,0,1.475-1.475l.926-1.928a.282.282,0,0,1,.508,0l.926,1.928a3.15,3.15,0,0,0,1.475,1.475l1.928.926a.282.282,0,0,1,0,.508" transform="translate(-65.795 -62.516)" fill="#fff"/>
        <path id="Path_920131" data-name="Path 920131" d="M24.829,153.286l-1.928.926a3.144,3.144,0,0,0-1.475,1.475l-.926,1.928a.282.282,0,0,1-.508,0l-.925-1.928a3.151,3.151,0,0,0-1.475-1.475l-1.928-.926a.281.281,0,0,1,0-.508l1.928-.926a3.156,3.156,0,0,0,1.475-1.475l.925-1.928a.282.282,0,0,1,.508,0l.926,1.928a3.15,3.15,0,0,0,1.475,1.475l1.928.926a.282.282,0,0,1,0,.508" transform="translate(-5.987 -57.259)" fill="#fff"/>
      </g>
    </g>
  </g>
</svg>
