<svg xmlns="http://www.w3.org/2000/svg" xmlns:xlink="http://www.w3.org/1999/xlink" width="295" height="333" viewBox="0 0 295 333">
  <defs>
    <clipPath id="clip-path">
      <rect id="Rectangle_408832" data-name="Rectangle 408832" width="295" height="313" transform="translate(179.711 16997)" fill="#fff" stroke="#707070" stroke-width="1"/>
    </clipPath>
    <clipPath id="clip-path-2">
      <rect id="Rectangle_408831" data-name="Rectangle 408831" width="295" height="257.766" fill="none"/>
    </clipPath>
    <clipPath id="clip-path-4">
      <rect id="Rectangle_408814" data-name="Rectangle 408814" width="279.928" height="211.791" fill="none"/>
    </clipPath>
    <clipPath id="clip-path-5">
      <rect id="Rectangle_408815" data-name="Rectangle 408815" width="14.23" height="14.23" fill="none"/>
    </clipPath>
    <clipPath id="clip-path-6">
      <rect id="Rectangle_408816" data-name="Rectangle 408816" width="11.403" height="11.404" fill="none"/>
    </clipPath>
    <clipPath id="clip-path-7">
      <rect id="Rectangle_408817" data-name="Rectangle 408817" width="10.058" height="10.058" fill="none"/>
    </clipPath>
    <clipPath id="clip-path-10">
      <rect id="Rectangle_408820" data-name="Rectangle 408820" width="10.059" height="10.058" fill="none"/>
    </clipPath>
    <clipPath id="clip-path-11">
      <rect id="Rectangle_408821" data-name="Rectangle 408821" width="38.475" height="8.253" fill="none"/>
    </clipPath>
    <clipPath id="clip-path-12">
      <rect id="Rectangle_408822" data-name="Rectangle 408822" width="30.091" height="6.632" fill="none"/>
    </clipPath>
    <clipPath id="clip-path-13">
      <rect id="Rectangle_408823" data-name="Rectangle 408823" width="35.032" height="6.987" fill="none"/>
    </clipPath>
    <clipPath id="clip-path-14">
      <rect id="Rectangle_408824" data-name="Rectangle 408824" width="31.767" height="16.864" fill="none"/>
    </clipPath>
    <clipPath id="clip-path-15">
      <rect id="Rectangle_408825" data-name="Rectangle 408825" width="9.955" height="8.548" fill="none"/>
    </clipPath>
    <clipPath id="clip-path-16">
      <rect id="Rectangle_408826" data-name="Rectangle 408826" width="46.987" height="27.539" fill="none"/>
    </clipPath>
    <clipPath id="clip-path-17">
      <rect id="Rectangle_408827" data-name="Rectangle 408827" width="35.033" height="6.987" fill="none"/>
    </clipPath>
  </defs>
  <g id="Group_1118916" data-name="Group 1118916" transform="translate(-179.711 -16954)">
    <g id="Group_1118912" data-name="Group 1118912" transform="translate(0 -32)">
      <circle id="Ellipse_11797" data-name="Ellipse 11797" cx="55.5" cy="55.5" r="55.5" transform="translate(201.711 16986)" fill="#ffe9a2"/>
      <circle id="Ellipse_11798" data-name="Ellipse 11798" cx="49" cy="49" r="49" transform="translate(333.711 17020)" fill="#d9e6ff"/>
      <g id="Mask_Group_1116948" data-name="Mask Group 1116948" clip-path="url(#clip-path)">
        <g id="Group_1118911" data-name="Group 1118911" transform="translate(180 17052.234)">
          <g id="Group_1118910" data-name="Group 1118910" clip-path="url(#clip-path-2)">
            <g id="Group_1118909" data-name="Group 1118909" transform="translate(0 -0.001)">
              <g id="Group_1118908" data-name="Group 1118908" clip-path="url(#clip-path-2)">
                <g id="Group_1118862" data-name="Group 1118862" transform="translate(4.686 40.333)" opacity="0.1">
                  <g id="Group_1118861" data-name="Group 1118861">
                    <g id="Group_1118860" data-name="Group 1118860" clip-path="url(#clip-path-4)">
                      <path id="Path_921443" data-name="Path 921443" d="M274.965,130.615c15.144-40.656-33.589-42.2-61.139-41.4-9.464.275-13.08-.839-29.294,2.772-35.2,7.836-44.542,6.526-77.477-18.349C83.813,56.087,28.42,46.848,46.116,105.977c8.358,27.932,12.073,63.575-14.523,72.237s-34.859,52.662-8.4,67.8,60.546-4.686,89.671,19.652,46.759-28.361,97.342-16.926,70.8-9.86,76.362-42.939c3.587-21.333-20.174-52.188-11.605-75.187" transform="translate(-7.015 -60.373)"/>
                    </g>
                  </g>
                </g>
                <path id="Path_921444" data-name="Path 921444" d="M203.9,108.969c-9.315-36.626-10.273-61.741-2.718-72.836a.965.965,0,1,0-1.595-1.086c-4.521,6.64-6.207,17.775-5.013,33.1.888,11.383,3.356,25.1,7.336,40.824Z" transform="translate(-64.465 -11.494)" fill="#00a498"/>
                <path id="Path_921445" data-name="Path 921445" d="M189.918,57.977s-7.926,1.466-9.958-12.569c0,0,12.768,1.2,9.958,12.569" transform="translate(-59.739 -15.073)" fill="#0d5366"/>
                <path id="Path_921446" data-name="Path 921446" d="M195.83,69.847s-1.905-7.831,12-10.642c0,0-.486,12.814-12,10.642" transform="translate(-64.978 -19.653)" fill="#0d5366"/>
                <path id="Path_921447" data-name="Path 921447" d="M199.1,37.222s-4.406-6.749,7.761-14.032c0,0,3.816,12.243-7.761,14.032" transform="translate(-65.834 -7.697)" fill="#0d5366"/>
                <path id="Path_921448" data-name="Path 921448" d="M190.456,92.748s-6.962,4.06-13.623-8.46c0,0,12.42-3.193,13.623,8.46" transform="translate(-58.701 -27.846)" fill="#0d5366"/>
                <path id="Path_921449" data-name="Path 921449" d="M199.762,101.874s-3.23-7.385,9.975-12.557c0,0,1.739,12.706-9.975,12.557" transform="translate(-66.196 -29.649)" fill="#0d5366"/>
                <path id="Path_921450" data-name="Path 921450" d="M195.307,119.181s-6.884,4.191-13.78-8.2c0,0,12.358-3.427,13.78,8.2" transform="translate(-60.259 -36.684)" fill="#0d5366"/>
                <path id="Path_921451" data-name="Path 921451" d="M408.934,183.038a.885.885,0,0,0-.806.957c1.058,12.335-11.146,32.14-35.342,57.444q.814.431,1.627.857c10.44-10.947,18.709-20.938,24.609-29.75,7.841-11.707,11.5-21.364,10.868-28.7a.885.885,0,0,0-.956-.8" transform="translate(-123.748 -60.759)" fill="#00a498"/>
                <path id="Path_921452" data-name="Path 921452" d="M421.22,207.4s5.675,4.733,13.606-5.569c0,0-10.741-4.781-13.606,5.569" transform="translate(-139.826 -66.632)" fill="#0d5366"/>
                <path id="Path_921453" data-name="Path 921453" d="M412.419,212.078s5.041-5.4-4.8-13.9c0,0-5.372,10.459,4.8,13.9" transform="translate(-134.839 -65.787)" fill="#0d5366"/>
                <path id="Path_921454" data-name="Path 921454" d="M424.675,185.329s6.554-3.413.1-14.7c0,0-8.551,8.069-.1,14.7" transform="translate(-139.735 -56.64)" fill="#0d5366"/>
                <path id="Path_921455" data-name="Path 921455" d="M404.537,233.947s3.74,6.373,14.688-.639c0,0-8.491-8.132-14.688.639" transform="translate(-134.288 -76.308)" fill="#0d5366"/>
                <path id="Path_921456" data-name="Path 921456" d="M395.014,236.3s5.9-4.449-2.329-14.517c0,0-7.1,9.372,2.329,14.517" transform="translate(-129.503 -73.621)" fill="#0d5366"/>
                <path id="Path_921457" data-name="Path 921457" d="M388.761,252.844s3.618,6.443,14.7-.361c0,0-8.335-8.292-14.7.361" transform="translate(-129.051 -82.624)" fill="#0d5366"/>
                <path id="Path_921458" data-name="Path 921458" d="M55.167,270.763c-28.6-12.4-45.486-24.478-48.983-35.088a.813.813,0,1,0-1.545.509c2.12,6.433,8.7,13.279,19.566,20.346a208.568,208.568,0,0,0,30.1,15.631q.438-.7.864-1.4" transform="translate(-1.527 -78.047)" fill="#00a498"/>
                <path id="Path_921459" data-name="Path 921459" d="M13.521,254.854s-3.088,6.054-13.521.208c0,0,7.356-7.926,13.521-.208" transform="translate(0 -83.478)" fill="#0d5366"/>
                <path id="Path_921460" data-name="Path 921460" d="M26.53,254.758s-6.217-2.747-.96-13.488c0,0,8.323,6.9.96,13.488" transform="translate(-7.787 -80.09)" fill="#0d5366"/>
                <path id="Path_921461" data-name="Path 921461" d="M6.438,237s-6.777-.517-5.4-12.4c0,0,10.149,3.734,5.4,12.4" transform="translate(-0.283 -74.557)" fill="#0d5366"/>
                <path id="Path_921462" data-name="Path 921462" d="M37.188,271.118s-.858,6.742-12.653,4.769c0,0,4.241-9.947,12.653-4.769" transform="translate(-8.145 -89.502)" fill="#0d5366"/>
                <path id="Path_921463" data-name="Path 921463" d="M50.107,269.155s-6.6-1.631-3.278-13.118c0,0,9.392,5.36,3.278,13.118" transform="translate(-15.235 -84.992)" fill="#0d5366"/>
                <path id="Path_921464" data-name="Path 921464" d="M57.385,281.385s-.731,6.757-12.561,5.008c0,0,4.052-10.025,12.561-5.008" transform="translate(-14.88 -92.94)" fill="#0d5366"/>
                <path id="Path_921465" data-name="Path 921465" d="M252.322,82.347c-2.2,31.8-27.706,44.455-32.52,47.245-6.189,3.587-13.069,4.09-17.274,3.979-.887-.023-1.655-.076-2.274-.132-1.077-.095-1.7-.206-1.7-.206s2.051-17.6,4.845-36.716c2.488-17.026,11.52-45.388,38.356-71.5,0,0,12.9,23.619,10.569,57.331" transform="translate(-65.91 -8.304)" fill="#008a8b"/>
                <path id="Path_921466" data-name="Path 921466" d="M240.151,58.71c-.022.124-1.8,9.55-5.816,22.766a.976.976,0,0,1-.04.13q-.781,2.569-1.677,5.32c-.222.687-.451,1.378-.687,2.078-.728,2.165-1.5,4.392-2.338,6.666-.826,2.253-1.728,4.608-2.706,7.033a.729.729,0,0,1-.052.132c-1.054,2.612-2.2,5.3-3.434,8.04-.323.723-.657,1.451-1,2.179-1.633,3.509-3.412,7.076-5.347,10.625l0,0q-.1.186-.206.374s0,0-.005.007c-1.38,2.52-2.839,5.026-4.374,7.5q-.725,1.16-1.472,2.313a121.2,121.2,0,0,1-7.626,10.52c-.887-.023-1.654-.076-2.273-.132a131.294,131.294,0,0,0,14.008-20.852q.541-.981,1.064-1.962a201.681,201.681,0,0,0,8.819-18.96q.458-1.136.9-2.249c.7-1.773,1.352-3.5,1.965-5.173,1.764-4.809,3.283-9.42,4.576-13.648q.35-1.144.677-2.254c3.6-12.164,5.215-20.675,5.235-20.793a.921.921,0,1,1,1.81.339" transform="translate(-66.756 -19.127)" fill="#00a498"/>
                <path id="Path_921467" data-name="Path 921467" d="M245.954,87.844a.921.921,0,0,1-.879-.371c-.225-.311-5.531-7.67-6.656-11.575a.921.921,0,1,1,1.769-.51c1.037,3.6,6.325,10.932,6.378,11.005a.921.921,0,0,1-.613,1.451" transform="translate(-79.132 -24.804)" fill="#00a498"/>
                <path id="Path_921468" data-name="Path 921468" d="M245.864,101.4a.921.921,0,0,1-.336-1.809c.09-.02,8.942-2.056,12.969-4.858a.921.921,0,0,1,1.052,1.512c-4.321,3.007-13.236,5.056-13.613,5.142-.025.005-.048.01-.072.013" transform="translate(-81.266 -31.393)" fill="#00a498"/>
                <path id="Path_921469" data-name="Path 921469" d="M234.2,115.116a.921.921,0,0,1-.937-.462c-.27-.484-6.628-11.939-7.873-20.512a.921.921,0,0,1,1.822-.265c1.2,8.234,7.594,19.763,7.658,19.878a.922.922,0,0,1-.671,1.36" transform="translate(-74.817 -30.901)" fill="#00a498"/>
                <path id="Path_921470" data-name="Path 921470" d="M231.726,135.316a.921.921,0,0,1-.328-1.811c.108-.023,10.825-2.411,18.2-8.926a.921.921,0,0,1,1.219,1.38c-7.746,6.84-18.573,9.246-19.031,9.346l-.063.011" transform="translate(-76.573 -41.277)" fill="#00a498"/>
                <path id="Path_921471" data-name="Path 921471" d="M220.115,147.335a.921.921,0,0,1-.935-.46c-.214-.379-5.248-9.4-6.591-18.959a.921.921,0,0,1,.78-1.039h0a.921.921,0,0,1,1.04.784c1.294,9.222,6.32,18.222,6.371,18.311a.922.922,0,0,1-.669,1.363" transform="translate(-70.567 -42.114)" fill="#00a498"/>
                <path id="Path_921472" data-name="Path 921472" d="M214.8,166a.921.921,0,0,1-.321-1.812,54.843,54.843,0,0,0,20.142-9.851.921.921,0,0,1,1.142,1.445,55.67,55.67,0,0,1-20.9,10.208l-.058.01" transform="translate(-70.953 -51.168)" fill="#00a498"/>
                <path id="Path_921473" data-name="Path 921473" d="M95.747,190.62a40.772,40.772,0,0,1-6.325,2.47c-.6.178-1.2.347-1.8.5-17.912,4.582-37.147-1.816-37.147-1.816s-35.184-8.133-31.05-25.057,18.606-4.259,24.808-6.46-8.27-15.037-19.3-28.257-5.312-22.9,1.406-21.577,7.65-7.62,1.034-15.73c-7.012-8.592-16.962-29.6-4.652-32.143,14.064-2.912,18.431,26.27,29.629,27.3S54.916,78.29,63.53,78.29s15.679,19.469,10.683,35.147,3.271,30.139,6.89,25.836,2.86-20.19,10.339-21.7c14.473-2.927,23.949,63.374,4.306,73.05" transform="translate(-5.609 -20.694)" fill="#008a8b"/>
                <path id="Path_921474" data-name="Path 921474" d="M96.531,202.152c-.6.178-1.2.347-1.8.5C78.146,166.784,38.844,91.8,38.42,90.988a.92.92,0,1,1,1.629-.853c.424.81,39.94,76.2,56.481,112.017" transform="translate(-12.719 -29.756)" fill="#00a498"/>
                <path id="Path_921475" data-name="Path 921475" d="M71.042,142.347a.921.921,0,0,1-.8-1.368c.068-.123,6.85-12.391,8.416-20.936a.921.921,0,0,1,1.811.332c-1.621,8.845-8.333,20.986-8.618,21.5a.921.921,0,0,1-.806.474" transform="translate(-23.277 -39.598)" fill="#00a498"/>
                <path id="Path_921476" data-name="Path 921476" d="M65.9,164.627l-.055,0c-.569-.033-14.041-.874-23.493-4.984a.921.921,0,0,1,.735-1.689c9.148,3.978,22.731,4.827,22.868,4.835a.921.921,0,0,1-.054,1.84" transform="translate(-13.875 -52.407)" fill="#00a498"/>
                <path id="Path_921477" data-name="Path 921477" d="M105.887,211.747a.921.921,0,0,1-.66-1.563c.11-.113,11.022-11.43,12.589-20.034a.92.92,0,1,1,1.811.33c-1.667,9.156-12.615,20.508-13.08,20.987a.918.918,0,0,1-.66.279" transform="translate(-34.844 -62.87)" fill="#00a498"/>
                <path id="Path_921478" data-name="Path 921478" d="M82.036,234.313a54.161,54.161,0,0,1-16.018-2.06.92.92,0,0,1,.564-1.752c11.724,3.775,29.679.915,29.859.886a.921.921,0,0,1,.3,1.818,100.766,100.766,0,0,1-14.7,1.108" transform="translate(-21.703 -76.5)" fill="#00a498"/>
                <path id="Path_921479" data-name="Path 921479" d="M303.72,134.663a36.53,36.53,0,0,0,5.3,2.965c.509.231,1.019.454,1.534.661,15.319,6.258,33.156,2.943,33.156,2.943s32.19-2.9,30.6-18.408-15.974-6.057-21.2-8.769,9.176-12.317,20.572-22.686,7.517-19.651,1.4-19.3S369.235,64.375,376.095,58c7.27-6.759,18.665-24.159,8.065-27.926C372.048,25.763,364.6,51.1,354.544,50.643s-.855-10.563-8.492-11.619-16.287,15.338-13.78,29.85S325.678,95.193,323,90.935s-.061-18.25-6.505-20.508c-12.472-4.37-29,53.249-12.772,64.236" transform="translate(-98.579 -9.817)" fill="#008a8b"/>
                <path id="Path_921480" data-name="Path 921480" d="M315.017,145.24c.509.231,1.019.454,1.533.661,19.1-29.763,63.139-91.429,63.613-92.092a.823.823,0,1,0-1.339-.957c-.475.667-44.752,62.662-63.807,92.387" transform="translate(-104.571 -17.429)" fill="#00a498"/>
                <path id="Path_921481" data-name="Path 921481" d="M372.824,94.825a.812.812,0,0,0,.41-.048.824.824,0,0,0,.471-1.066c-.045-.118-4.554-11.825-4.895-19.592a.824.824,0,0,0-1.647.072c.353,8.04,4.815,19.626,5,20.116a.823.823,0,0,0,.656.518" transform="translate(-121.881 -24.342)" fill="#00a498"/>
                <path id="Path_921482" data-name="Path 921482" d="M367.892,115.727l.049.005c.508.04,12.555.945,21.439-1.539a.824.824,0,1,0-.444-1.587c-8.6,2.4-20.745,1.493-20.867,1.484a.824.824,0,0,0-.178,1.637" transform="translate(-121.888 -37.369)" fill="#00a498"/>
                <path id="Path_921483" data-name="Path 921483" d="M331.521,151.819a.824.824,0,0,0,.777-1.3c-.083-.114-8.371-11.485-8.705-19.305a.824.824,0,0,0-1.646.07c.355,8.322,8.669,19.729,9.023,20.211a.821.821,0,0,0,.551.328" transform="translate(-106.871 -43.294)" fill="#00a498"/>
                <path id="Path_921484" data-name="Path 921484" d="M342.156,174.09a48.479,48.479,0,0,0,14.453.138.824.824,0,1,0-.286-1.623c-10.856,1.91-26.424-2.827-26.58-2.875a.824.824,0,0,0-.485,1.575,90.148,90.148,0,0,0,12.9,2.785" transform="translate(-109.106 -56.33)" fill="#00a498"/>
                <path id="Path_921485" data-name="Path 921485" d="M114.278,237.5h46.414l4.421-44.193c3.955-11.82,4.787-63.621,4.787-63.621l-20.12-8.271-25,.235-19.28,8.036s.844,50.117,4.8,61.937Z" transform="translate(-35.02 -40.304)" fill="#685700"/>
                <path id="Path_921486" data-name="Path 921486" d="M159.361,120.111c-.581,4.258-2.473,19.169-11.816,19.169-9.594,0-12.543-14.966-13.189-18.934l4.951-2.654,14.457-.208Z" transform="translate(-44.6 -38.999)" fill="#f8c696"/>
                <path id="Path_921487" data-name="Path 921487" d="M159.633,14.014A14.015,14.015,0,1,1,145.618,0a14.015,14.015,0,0,1,14.015,14.015" transform="translate(-43.686 0.001)" fill="#272d35"/>
                <path id="Path_921488" data-name="Path 921488" d="M142.208,20.026,131.183,9.142a1,1,0,1,0-1.4,1.424l11.1,10.923s1.126.62,1.326-1.463" transform="translate(-42.982 -2.938)" fill="#fb4938"/>
                <path id="Path_921489" data-name="Path 921489" d="M132.787,9.531a2.354,2.354,0,1,1-2.354-2.354,2.353,2.353,0,0,1,2.354,2.354" transform="translate(-42.517 -2.382)" fill="#fb4938"/>
                <path id="Path_921490" data-name="Path 921490" d="M156.632,20.026,167.657,9.142a1,1,0,1,1,1.4,1.424l-11.1,10.923s-1.126.62-1.326-1.463" transform="translate(-51.995 -2.938)" fill="#fb4938"/>
                <path id="Path_921491" data-name="Path 921491" d="M174.745,9.531a2.354,2.354,0,1,1-2.354-2.354,2.353,2.353,0,0,1,2.354,2.354" transform="translate(-56.445 -2.382)" fill="#fb4938"/>
                <path id="Path_921492" data-name="Path 921492" d="M121.44,65.245s-4.047-3.96-7.279-1.376c-3.819,3.052.176,14.038,6.948,12.875Z" transform="translate(-37.404 -20.91)" fill="#ffb285"/>
                <path id="Path_921493" data-name="Path 921493" d="M122.654,92.527a6.318,6.318,0,1,1,6.318-6.318,6.325,6.325,0,0,1-6.318,6.318m0-11.213a4.9,4.9,0,1,0,4.9,4.9,4.9,4.9,0,0,0-4.9-4.9" transform="translate(-38.618 -26.52)" fill="#fbf9f9"/>
                <path id="Path_921494" data-name="Path 921494" d="M121.223,74.861a10.48,10.48,0,0,0-5.932-6.571s4.1,3.866,4.412,6.857a.744.744,0,0,0,.757.682l.09,0a.734.734,0,0,0,.673-.965" transform="translate(-38.271 -22.669)" fill="#f9a278"/>
                <path id="Path_921495" data-name="Path 921495" d="M176.934,65.245s4.047-3.96,7.279-1.376c3.819,3.052-.176,14.038-6.948,12.875Z" transform="translate(-58.734 -20.91)" fill="#ffb285"/>
                <path id="Path_921496" data-name="Path 921496" d="M175.361,92.527a6.318,6.318,0,1,1,6.318-6.318,6.324,6.324,0,0,1-6.318,6.318m0-11.213a4.9,4.9,0,1,0,4.9,4.9,4.9,4.9,0,0,0-4.9-4.9" transform="translate(-56.115 -26.52)" fill="#fbf9f9"/>
                <path id="Path_921497" data-name="Path 921497" d="M178.538,74.861a10.479,10.479,0,0,1,5.932-6.571s-4.1,3.866-4.412,6.857a.744.744,0,0,1-.757.682l-.09,0a.734.734,0,0,1-.673-.965" transform="translate(-59.254 -22.669)" fill="#f9a278"/>
                <path id="Path_921498" data-name="Path 921498" d="M156.613,101.516l-.282,5.309-.353,6.653s-1.321,2.5-7.283,2.5-7.184-1.712-7.184-1.712l-.241-2.951-.8-9.8Z" transform="translate(-46.629 -33.698)" fill="#f8c696"/>
                <path id="Path_921499" data-name="Path 921499" d="M156.613,101.516l-.282,5.309c-2.487,1.862-8.373,5.523-15.061,4.494l-.8-9.8Z" transform="translate(-46.629 -33.698)" fill="#f9a278"/>
                <path id="Path_921500" data-name="Path 921500" d="M162.158,48.407c-.055.635-.12,1.293-.186,1.949-1.4,13.658-7.562,30.919-20.678,30.919-11.741,0-20.5-16.286-22.4-29.6-.132-.975-.252-1.917-.351-2.848a21.642,21.642,0,0,1,21.2-23.953h1.139a21.637,21.637,0,0,1,20.2,14.666,21.067,21.067,0,0,1,.811,3.1,21.5,21.5,0,0,1,.263,5.772" transform="translate(-39.31 -8.255)" fill="#f8c696"/>
                <path id="Path_921501" data-name="Path 921501" d="M151.075,75.776a.754.754,0,0,1-.323-1.392l2.152-1.329-1.689-.621a.755.755,0,0,1-.492-.663l-.291-4.853a.754.754,0,1,1,1.506-.091l.261,4.361,2.682.986a.754.754,0,0,1,.135,1.349l-3.47,2.143a.751.751,0,0,1-.47.109" transform="translate(-49.924 -21.948)" fill="#f9a278"/>
                <path id="Path_921502" data-name="Path 921502" d="M138.815,53.14h0a.993.993,0,0,1-.933.992c-1.878.112-6.166.584-8.849,2.581,0,0,.977-4.311,8.749-4.567a1,1,0,0,1,1.033.994" transform="translate(-42.833 -17.309)" fill="#272d35"/>
                <path id="Path_921503" data-name="Path 921503" d="M161.227,53.14h0a.993.993,0,0,0,.933.992c1.879.112,6.166.584,8.85,2.581,0,0-.977-4.311-8.749-4.567a1,1,0,0,0-1.033.994" transform="translate(-53.52 -17.309)" fill="#272d35"/>
                <path id="Path_921504" data-name="Path 921504" d="M160.309,65.914s0-2.686,3.275-4.048a6.625,6.625,0,0,1,4.192-.361l1.707-1.146-1.019,2.315s-5.618-.983-8.155,3.239" transform="translate(-53.215 -20.036)" fill="#272d35"/>
                <path id="Path_921505" data-name="Path 921505" d="M139.372,65.914s0-2.686-3.275-4.048A6.625,6.625,0,0,0,131.9,61.5L130.2,60.359l1.019,2.315s5.618-.983,8.156,3.239" transform="translate(-43.22 -20.036)" fill="#272d35"/>
                <path id="Path_921506" data-name="Path 921506" d="M134.405,75.907c0,1.682-2.175,3.046-4.857,3.046s-4.858-1.364-4.858-3.046,2.175-3.046,4.858-3.046,4.857,1.364,4.857,3.046" transform="translate(-41.391 -24.186)" fill="#ffb285"/>
                <path id="Path_921507" data-name="Path 921507" d="M174.736,75.907c0,1.682-2.176,3.046-4.858,3.046s-4.858-1.364-4.858-3.046,2.176-3.046,4.858-3.046,4.858,1.364,4.858,3.046" transform="translate(-54.779 -24.186)" fill="#ffb285"/>
                <path id="Path_921508" data-name="Path 921508" d="M150.7,99.319a9.216,9.216,0,0,1-3.307-1.019.561.561,0,0,1,.56-.973,7.393,7.393,0,0,0,7.277-.122.562.562,0,1,1,.605.946,7.746,7.746,0,0,1-5.135,1.168" transform="translate(-48.833 -32.237)" fill="#f9a278"/>
                <path id="Path_921509" data-name="Path 921509" d="M157.508,84.384a7.868,7.868,0,1,1-15.734.207c0-.022,0-.043,0-.064l15.73-.207c0,.022,0,.042,0,.064" transform="translate(-47.063 -27.99)" fill="#481c3f"/>
                <path id="Path_921510" data-name="Path 921510" d="M157.508,84.384a7.835,7.835,0,0,1-.108,1.408l-15.482.2a7.8,7.8,0,0,1-.144-1.406c0-.022,0-.043,0-.064l15.73-.207c0,.022,0,.042,0,.064" transform="translate(-47.063 -27.99)" fill="#fff"/>
                <path id="Path_921511" data-name="Path 921511" d="M156.563,91.377a7.865,7.865,0,0,1-11.56.152,8.637,8.637,0,0,1,11.56-.152" transform="translate(-48.134 -29.621)" fill="#f65c66"/>
                <path id="Path_921512" data-name="Path 921512" d="M121.29,77.251c-.117-.053-4.449-2.091-3.013-8.072a30.315,30.315,0,0,0,.783-5.016,14.679,14.679,0,0,1-.686-14.95h2.849s.137,1.2.187,2.957c0,0,0,.007,0,.02.039.528.808,11.138-.639,14.709-1.716,4.23-2.5,7.066.518,10.351" transform="translate(-38.72 -16.336)" fill="#272d35"/>
                <path id="Path_921513" data-name="Path 921513" d="M180.1,77.251c.117-.053,4.449-2.091,3.013-8.072a30.317,30.317,0,0,1-.783-5.016,14.679,14.679,0,0,0,.686-14.95h-2.849s-.137,1.2-.187,2.957c0,0,0,.007,0,.02-.039.528-.809,11.138.639,14.709,1.715,4.23,2.5,7.066-.518,10.351" transform="translate(-59.667 -16.336)" fill="#272d35"/>
                <path id="Path_921514" data-name="Path 921514" d="M162.823,42.915s-15.811-.6-22.724-8.854c-6.928,8.353-22.846,9.278-22.846,9.278s.309-14.876,9.92-19.319h0a28.859,28.859,0,0,1,13.678-3.046,34.385,34.385,0,0,1,11.95,2.883s1.068.482,1.3.628c9,4.734,8.716,18.431,8.716,18.431" transform="translate(-38.923 -6.958)" fill="#272d35"/>
                <path id="Path_921515" data-name="Path 921515" d="M246.938,226.081h63.613l-1.058-22.241.3-78.359-22.4-6.948a29.2,29.2,0,0,0-17.429,0l-22.4,6.948.3,78.359Z" transform="translate(-81.972 -38.905)" fill="#ffc811"/>
                <path id="Path_921516" data-name="Path 921516" d="M254.674,43.44s-2.359,1.3-2.192,5.062,2.505,4.859,2.505,4.859-2.856,1.486-2.513,4.159,3.181,2.926,3.181,2.926a3.338,3.338,0,0,0-1.6,3.77A5.3,5.3,0,0,0,257.2,67.79a4.083,4.083,0,0,0-2.046,4.636c.668,3.382,4.43,3.245,4.43,3.245a4.972,4.972,0,0,0-.339,4.306c1,2.094,3.758,1.216,3.758,1.216a4.811,4.811,0,0,0,1.67,3.466c1.67,1.336,4.342,1.273,5.344-.491l-8.4-40.093Z" transform="translate(-83.8 -14.419)" fill="#6e304f"/>
                <path id="Path_921517" data-name="Path 921517" d="M323.355,43.44s2.359,1.3,2.192,5.062-2.505,4.859-2.505,4.859,2.856,1.486,2.513,4.159-3.181,2.926-3.181,2.926a3.338,3.338,0,0,1,1.6,3.77,5.3,5.3,0,0,1-3.149,3.574,4.083,4.083,0,0,1,2.046,4.636c-.668,3.382-4.43,3.245-4.43,3.245a4.972,4.972,0,0,1,.339,4.306c-1,2.094-3.758,1.216-3.758,1.216a4.811,4.811,0,0,1-1.67,3.466c-1.67,1.336-4.342,1.273-5.344-.491l8.4-40.093Z" transform="translate(-102.246 -14.419)" fill="#6e304f"/>
                <path id="Path_921518" data-name="Path 921518" d="M256.689,31.022s-6.819-1.759-5.63-6.667,5.578-4.076,5.578-4.076-2.831-4.839.623-7.685a6.528,6.528,0,0,1,6.618-1.414s-.919-5.054,2.827-7.079,7.326,1.059,7.6,3.219a5.266,5.266,0,0,1,4.873-4.378,5.566,5.566,0,0,1,5.869,3.512s.831-4.163,6.113-3.309,4.44,5.6,4.44,5.6a4.442,4.442,0,0,1,4.909-.7c4.089,1.608,3.444,5.775,1.448,6.921a5.989,5.989,0,0,1,3.27,6.185c-.678,4.322-3.5,3.569-3.5,3.569a4.942,4.942,0,0,1,2.3,6.017c-1.237,4.3-6.394,3.695-6.394,3.695Z" transform="translate(-83.294 -0.961)" fill="#6e304f"/>
                <path id="Path_921519" data-name="Path 921519" d="M299.481,104.408l-.3,5.632-.375,7.058s-1.4,2.657-7.727,2.657-7.621-1.816-7.621-1.816l-.255-3.131-.85-10.4Z" transform="translate(-93.729 -34.658)" fill="#fdad80"/>
                <path id="Path_921520" data-name="Path 921520" d="M299.481,104.408l-.3,5.632c-2.639,1.975-8.883,5.859-15.978,4.768l-.85-10.4Z" transform="translate(-93.729 -34.658)" fill="#f68768"/>
                <path id="Path_921521" data-name="Path 921521" d="M260.967,64.729s-4.845-4.74-8.715-1.647c-4.571,3.654.21,16.807,8.32,15.414Z" transform="translate(-83.147 -20.592)" fill="#ff976d"/>
                <path id="Path_921522" data-name="Path 921522" d="M260.015,75.5a10.876,10.876,0,0,0-6.155-6.818s4.254,4.011,4.577,7.115a.772.772,0,0,0,.785.708l.094,0a.762.762,0,0,0,.7-1" transform="translate(-84.27 -22.8)" fill="#f68768"/>
                <path id="Path_921523" data-name="Path 921523" d="M325.155,75.468a10.482,10.482,0,0,1,5.932-6.571s-4.1,3.866-4.412,6.857a.744.744,0,0,1-.757.682l-.09,0a.734.734,0,0,1-.673-.965" transform="translate(-107.924 -22.87)" fill="#f68768"/>
                <path id="Path_921524" data-name="Path 921524" d="M321.608,64.729s4.845-4.74,8.715-1.647c4.571,3.654-.21,16.807-8.32,15.414Z" transform="translate(-106.759 -20.592)" fill="#ff976d"/>
                <path id="Path_921525" data-name="Path 921525" d="M325.155,75.468a10.482,10.482,0,0,1,5.932-6.571s-4.1,3.866-4.412,6.857a.744.744,0,0,1-.757.682l-.09,0a.734.734,0,0,1-.673-.965" transform="translate(-107.924 -22.87)" fill="#f68768"/>
                <path id="Path_921526" data-name="Path 921526" d="M282.54,82.943c-16.742,0-21.911-19.885-23.452-34.444a22.974,22.974,0,0,1,22.5-25.407q.27,0,.542,0c.225,0,.449,0,.67,0a22.991,22.991,0,0,1,22.565,24.97c-1.279,14.75-6.09,34.88-22.824,34.88" transform="translate(-85.963 -7.664)" fill="#fdad80"/>
                <path id="Path_921527" data-name="Path 921527" d="M281.585,64.727a2.114,2.114,0,1,1-2.114-2.114,2.114,2.114,0,0,1,2.114,2.114" transform="translate(-92.07 -20.784)" fill="#481c3f"/>
                <path id="Path_921528" data-name="Path 921528" d="M309.449,64.727a2.114,2.114,0,1,1-2.114-2.114,2.114,2.114,0,0,1,2.114,2.114" transform="translate(-101.32 -20.784)" fill="#481c3f"/>
                <path id="Path_921529" data-name="Path 921529" d="M269.527,54.371s1.6-3.292,4.676-4.116a7.859,7.859,0,0,1,5.9.526,1.026,1.026,0,0,1-.934,1.826c-1.724-.8-5.518-1.833-9.644,1.764" transform="translate(-89.471 -16.573)" fill="#481c3f"/>
                <path id="Path_921530" data-name="Path 921530" d="M313.95,54.371s-1.6-3.292-4.676-4.116a7.859,7.859,0,0,0-5.9.526,1.026,1.026,0,0,0,.934,1.826c1.724-.8,5.518-1.833,9.644,1.764" transform="translate(-100.531 -16.573)" fill="#481c3f"/>
                <path id="Path_921531" data-name="Path 921531" d="M292.793,75.2a.883.883,0,0,1-.377-1.629l2.519-1.555-1.977-.727a.882.882,0,0,1-.576-.775l-.341-5.68a.883.883,0,0,1,1.762-.106l.306,5.1,3.138,1.154a.883.883,0,0,1,.159,1.58l-4.062,2.508a.88.88,0,0,1-.55.128" transform="translate(-96.93 -21.209)" fill="#f68768"/>
                <path id="Path_921532" data-name="Path 921532" d="M293.873,92.368a15.384,15.384,0,0,1-11.732-2.131.877.877,0,1,1,.961-1.466c7.336,4.811,15.335.1,15.414.057a.877.877,0,0,1,.905,1.5,18.75,18.75,0,0,1-5.549,2.038" transform="translate(-93.527 -29.419)" fill="#f68768"/>
                <path id="Path_921533" data-name="Path 921533" d="M292.857,98.742a8.952,8.952,0,0,1-4.862-1.284.616.616,0,1,1,.63-1.058,8.432,8.432,0,0,0,8.266.015.616.616,0,0,1,.634,1.056,10.238,10.238,0,0,1-4.668,1.271" transform="translate(-95.501 -31.971)" fill="#f68768"/>
                <path id="Path_921534" data-name="Path 921534" d="M259.562,53.328s2.48-1.929,1.919-4.248c0,0,2.937-3.173,1.647-6.179,0,0,4.5-3.4,2.248-7.516,0,0,5.316-.5,7.723-4.175a6.127,6.127,0,0,0,6.573,2.839c4.519-.919,4.686-2.839,4.686-2.839s2.088,3.591,5.929,3.006,4.76-2.16,4.76-2.16A4.789,4.789,0,0,0,298.135,36s-.118,4.783,3.257,4.895c0,0-1.42,3.038.835,5.026,0,0-1.09,3.672,2.5,5,0,0,1.84-1.6.754-8.655S299.3,24.307,285.941,21.523s-23.045,6.9-25.495,11.8-3.217,13.507-.884,20" transform="translate(-85.697 -6.98)" fill="#6e304f"/>
                <g id="Group_1118865" data-name="Group 1118865" transform="translate(179.05 37.799)" opacity="0.2">
                  <g id="Group_1118864" data-name="Group 1118864">
                    <g id="Group_1118863" data-name="Group 1118863" clip-path="url(#clip-path-5)">
                      <path id="Path_921535" data-name="Path 921535" d="M282.251,63.7a7.117,7.117,0,0,1-9.295,6.773,6.956,6.956,0,0,1-1.1-.46,7.115,7.115,0,1,1,9.6-9.6,7.153,7.153,0,0,1,.8,3.285" transform="translate(-268.021 -56.58)" fill="#fff"/>
                    </g>
                  </g>
                </g>
                <g id="Group_1118868" data-name="Group 1118868" transform="translate(179.492 38.241)" opacity="0.2">
                  <g id="Group_1118867" data-name="Group 1118867">
                    <g id="Group_1118866" data-name="Group 1118866" clip-path="url(#clip-path-6)">
                      <path id="Path_921536" data-name="Path 921536" d="M280.086,58.6,270.04,68.645a7.117,7.117,0,0,1-1.357-2.255l9.148-9.148a7.127,7.127,0,0,1,2.255,1.357" transform="translate(-268.683 -57.242)" fill="#fff"/>
                    </g>
                  </g>
                </g>
                <g id="Group_1118871" data-name="Group 1118871" transform="translate(182.881 41.629)" opacity="0.2">
                  <g id="Group_1118870" data-name="Group 1118870">
                    <g id="Group_1118869" data-name="Group 1118869" clip-path="url(#clip-path-7)">
                      <path id="Path_921537" data-name="Path 921537" d="M283.813,63.42l-8.953,8.953a7.078,7.078,0,0,1-1.1-.46l9.6-9.6a7.048,7.048,0,0,1,.46,1.1" transform="translate(-273.755 -62.314)" fill="#fff"/>
                    </g>
                  </g>
                </g>
                <path id="Path_921538" data-name="Path 921538" d="M274.792,71.159A7.809,7.809,0,1,1,282.6,63.35a7.818,7.818,0,0,1-7.809,7.809m0-14.552a6.743,6.743,0,1,0,6.743,6.743,6.751,6.751,0,0,0-6.743-6.743" transform="translate(-88.626 -18.436)" fill="#272d35"/>
                <g id="Group_1118874" data-name="Group 1118874" transform="translate(199.871 37.799)" opacity="0.2">
                  <g id="Group_1118873" data-name="Group 1118873">
                    <g id="Group_1118872" data-name="Group 1118872" clip-path="url(#clip-path-5)">
                      <path id="Path_921539" data-name="Path 921539" d="M313.418,63.7a7.117,7.117,0,0,1-9.295,6.773,6.956,6.956,0,0,1-1.1-.46,7.115,7.115,0,1,1,9.6-9.6,7.154,7.154,0,0,1,.8,3.285" transform="translate(-299.188 -56.58)" fill="#fff"/>
                    </g>
                  </g>
                </g>
                <g id="Group_1118877" data-name="Group 1118877" transform="translate(200.314 38.241)" opacity="0.2">
                  <g id="Group_1118876" data-name="Group 1118876">
                    <g id="Group_1118875" data-name="Group 1118875" clip-path="url(#clip-path-6)">
                      <path id="Path_921540" data-name="Path 921540" d="M311.254,58.6,301.208,68.645a7.117,7.117,0,0,1-1.357-2.255L309,57.242a7.126,7.126,0,0,1,2.255,1.357" transform="translate(-299.851 -57.242)" fill="#fff"/>
                    </g>
                  </g>
                </g>
                <g id="Group_1118880" data-name="Group 1118880" transform="translate(203.702 41.629)" opacity="0.2">
                  <g id="Group_1118879" data-name="Group 1118879">
                    <g id="Group_1118878" data-name="Group 1118878" clip-path="url(#clip-path-10)">
                      <path id="Path_921541" data-name="Path 921541" d="M314.981,63.42l-8.953,8.953a7.054,7.054,0,0,1-1.1-.46l9.6-9.6a7.054,7.054,0,0,1,.46,1.1" transform="translate(-304.922 -62.314)" fill="#fff"/>
                    </g>
                  </g>
                </g>
                <path id="Path_921542" data-name="Path 921542" d="M305.96,71.159a7.809,7.809,0,1,1,7.809-7.809,7.817,7.817,0,0,1-7.809,7.809m0-14.552A6.743,6.743,0,1,0,312.7,63.35a6.751,6.751,0,0,0-6.743-6.743" transform="translate(-98.973 -18.436)" fill="#272d35"/>
                <path id="Path_921543" data-name="Path 921543" d="M265.27,61.867c-1.4-.83-4.072-2.255-5.736-2.12-1.943.158-1.258,1.661-1.258,1.661s.069-.028.19-.066a3.74,3.74,0,0,1,2.64.162l3.619,1.609c.171-.42.357-.833.545-1.247" transform="translate(-85.697 -19.83)" fill="#272d35"/>
                <path id="Path_921544" data-name="Path 921544" d="M324.756,59.748c-1.515-.123-3.861,1.045-5.326,1.882.045.1.089.194.132.291q.221.5.417,1.009l3.205-1.425a3.74,3.74,0,0,1,2.64-.163c.12.038.19.066.19.066s.685-1.5-1.258-1.661" transform="translate(-106.036 -19.83)" fill="#272d35"/>
                <path id="Path_921545" data-name="Path 921545" d="M289.719,65.962s2.784-3.05,6.326,0V67.5s-3.089-3.238-6.326,0Z" transform="translate(-96.174 -21.446)" fill="#272d35"/>
                <path id="Path_921546" data-name="Path 921546" d="M115.852,342.589H51.887l.506-10.55-.025-5.744-.027-6.166-.254-57.29,20.656-5.546,2.2-.589a34.158,34.158,0,0,1,17.785,0l3.964,1.064,18.89,5.072-.251,56.189-.028,6.594-.029,6.417Z" transform="translate(-17.224 -84.822)" fill="#0d5366"/>
                <path id="Path_921547" data-name="Path 921547" d="M107.053,257.767l-5.547,84.822H85.143l-2.036-85.3,2.2-.589a34.158,34.158,0,0,1,17.785,0Z" transform="translate(-27.588 -84.822)" fill="#fff"/>
                <g id="Group_1118883" data-name="Group 1118883" transform="translate(35.117 233.664)" opacity="0.2">
                  <g id="Group_1118882" data-name="Group 1118882">
                    <g id="Group_1118881" data-name="Group 1118881" clip-path="url(#clip-path-11)">
                      <path id="Path_921548" data-name="Path 921548" d="M91.041,350.8s-25.883,9.339-38.447,6.778l-.027-6.165,35.585-1.535a2.67,2.67,0,0,1,2.89.923" transform="translate(-52.566 -349.772)"/>
                    </g>
                  </g>
                </g>
                <g id="Group_1118886" data-name="Group 1118886" transform="translate(68.016 234.206)" opacity="0.2">
                  <g id="Group_1118885" data-name="Group 1118885">
                    <g id="Group_1118884" data-name="Group 1118884" clip-path="url(#clip-path-12)">
                      <path id="Path_921549" data-name="Path 921549" d="M131.9,350.583l-.029,6.593c-12.734.6-30.061-6.1-30.061-6.1Z" transform="translate(-101.813 -350.583)"/>
                    </g>
                  </g>
                </g>
                <path id="Path_921550" data-name="Path 921550" d="M131.455,319.607c-3.253,9.312-17.817,8.632-34.406,3.544-2.9-.889-5.871-1.915-8.85-3.046a184.342,184.342,0,0,1-17.532-7.765l.038-.1,1.7-4.406.579-1.5s31.8,3.464,46.984-.049c-9.428-29.838-1.185-35.881,1.848-39.814,0,0,15.781,35.557,9.641,53.134" transform="translate(-23.458 -88.456)" fill="#0d5366"/>
                <g id="Group_1118889" data-name="Group 1118889" transform="translate(47.247 219.38)" opacity="0.2">
                  <g id="Group_1118888" data-name="Group 1118888">
                    <g id="Group_1118887" data-name="Group 1118887" clip-path="url(#clip-path-13)">
                      <path id="Path_921551" data-name="Path 921551" d="M105.756,328.657a47.879,47.879,0,0,1-21.562,6.616c-7.26.52-11.305-1.009-13.47-2.476l1.7-4.406c6.757.388,27.69,1.462,33.335.267" transform="translate(-70.724 -328.39)"/>
                    </g>
                  </g>
                </g>
                <g id="Group_1118892" data-name="Group 1118892" transform="translate(64.741 217.83)" opacity="0.2">
                  <g id="Group_1118891" data-name="Group 1118891">
                    <g id="Group_1118890" data-name="Group 1118890" clip-path="url(#clip-path-14)">
                      <path id="Path_921552" data-name="Path 921552" d="M128.678,326.07s-1.874,3.673-4.314,8.631c-2.036,4.139-12.221,7.245-18.6,8.233-2.9-.889-5.871-1.915-8.85-3.046Z" transform="translate(-96.911 -326.07)"/>
                    </g>
                  </g>
                </g>
                <path id="Path_921553" data-name="Path 921553" d="M96.535,317.844c-47.527,16.006-62.148,5.531-62.148,5.531-3.2-28.934,11.742-56.9,11.742-56.9C54.767,271.981,54.2,284.9,54.2,284.9l-2.762,21.47-.317,2.456c14.306,3.147,40.975-.291,40.975-.291Z" transform="translate(-11.266 -88.456)" fill="#0d5366"/>
                <g id="Group_1118895" data-name="Group 1118895" transform="translate(30.22 217.912)" opacity="0.2">
                  <g id="Group_1118894" data-name="Group 1118894">
                    <g id="Group_1118893" data-name="Group 1118893" clip-path="url(#clip-path-15)">
                      <path id="Path_921554" data-name="Path 921554" d="M55.192,326.193l-.317,2.456a17.574,17.574,0,0,0-9.638,6.093s1.895-8.6,9.951-8.546Z" transform="translate(-45.237 -326.193)"/>
                    </g>
                  </g>
                </g>
                <path id="Path_921555" data-name="Path 921555" d="M121,323.989s5.262-11.953,13.261-10.888l2.412,8.642c-4.378,1.859-5.02,9.368-11.237,11.556Z" transform="translate(-40.166 -103.912)" fill="#fdad80"/>
                <path id="Path_921556" data-name="Path 921556" d="M60.128,320.814a19.045,19.045,0,0,0-12.068-10.063c-8.745-2.265-14.317,1.856-14.9,3.412s3.3.069,3.3.069a7.547,7.547,0,0,0-3.982,3.094c-1.452,2.378,3.533-.188,3.533-.188s-3.575,1.567-4.029,3.019,4.26-1,5.146-.955c0,0-4.21,1.673-4.181,3.172s4.836-.946,8.426-.752a56.623,56.623,0,0,1,9.094,1.68,60.281,60.281,0,0,0,8.286,1.091Z" transform="translate(-10.605 -102.934)" fill="#fdad80"/>
                <path id="Path_921557" data-name="Path 921557" d="M104.887,242.7l-.3,5.692-.379,7.133s-1.416,2.685-7.808,2.685-7.7-1.835-7.7-1.835l-.258-3.165-.859-10.51Z" transform="translate(-29.072 -80.564)" fill="#fdad80"/>
                <path id="Path_921558" data-name="Path 921558" d="M104.887,242.7l-.3,5.692c-2.667,2-8.978,5.921-16.147,4.818l-.859-10.51Z" transform="translate(-29.072 -80.564)" fill="#f68768"/>
                <path id="Path_921559" data-name="Path 921559" d="M65.963,202.6s-4.9-4.791-8.808-1.665c-4.62,3.694.212,16.986,8.408,15.578Z" transform="translate(-18.377 -66.348)" fill="#ff976d"/>
                <path id="Path_921560" data-name="Path 921560" d="M66.117,221.7a.849.849,0,1,1-.849-.849.849.849,0,0,1,.849.849" transform="translate(-21.384 -73.312)" fill="#272d35"/>
                <path id="Path_921561" data-name="Path 921561" d="M65,213.485a10.993,10.993,0,0,0-6.22-6.89s4.3,4.054,4.626,7.189a.78.78,0,0,0,.794.716l.094,0A.77.77,0,0,0,65,213.485" transform="translate(-19.512 -68.58)" fill="#f68768"/>
                <path id="Path_921562" data-name="Path 921562" d="M130.833,213.45a10.594,10.594,0,0,1,6-6.641s-4.143,3.907-4.459,6.93a.753.753,0,0,1-.765.69l-.092,0a.743.743,0,0,1-.68-.976" transform="translate(-43.418 -68.651)" fill="#f68768"/>
                <path id="Path_921563" data-name="Path 921563" d="M127.248,202.6s4.9-4.791,8.808-1.665c4.62,3.694-.212,16.986-8.407,15.578Z" transform="translate(-42.241 -66.348)" fill="#ff976d"/>
                <path id="Path_921564" data-name="Path 921564" d="M133.425,221.7a.849.849,0,1,1-.849-.849.849.849,0,0,1,.849.849" transform="translate(-43.727 -73.312)" fill="#272d35"/>
                <path id="Path_921565" data-name="Path 921565" d="M130.833,213.45a10.594,10.594,0,0,1,6-6.641s-4.143,3.907-4.459,6.93a.753.753,0,0,1-.765.69l-.092,0a.743.743,0,0,1-.68-.976" transform="translate(-43.418 -68.651)" fill="#f68768"/>
                <path id="Path_921566" data-name="Path 921566" d="M110.832,185.754c-.035.4-.072.808-.114,1.217-1.45,14.77-6.5,34.032-22.954,34.032-16.217,0-21.689-18.461-23.487-32.95q-.117-.942-.214-1.859A23.218,23.218,0,0,1,86.8,160.516c.18,0,.362,0,.546,0,.228,0,.454,0,.678.005a23.237,23.237,0,0,1,22.805,25.235" transform="translate(-21.223 -53.282)" fill="#fdad80"/>
                <path id="Path_921567" data-name="Path 921567" d="M87.285,201.842a2.136,2.136,0,1,1-2.136-2.136,2.137,2.137,0,0,1,2.136,2.136" transform="translate(-27.556 -66.293)" fill="#272d35"/>
                <path id="Path_921568" data-name="Path 921568" d="M114.563,201.842a2.136,2.136,0,1,1-2.136-2.136,2.137,2.137,0,0,1,2.136,2.136" transform="translate(-36.611 -66.293)" fill="#272d35"/>
                <path id="Path_921569" data-name="Path 921569" d="M108.674,221.386a6.95,6.95,0,0,0-.61-1.985,5.045,5.045,0,0,0-1.518-1.881,4.678,4.678,0,0,0-.532-.363,4.626,4.626,0,0,0-.519-.247,6.45,6.45,0,0,0-1.012-.325,9.3,9.3,0,0,0-1.816-.208,13.294,13.294,0,0,0-1.635.078,50.5,50.5,0,0,0-5.787,1.09c-.882.208-1.764.442-2.66.61a11.9,11.9,0,0,1-2.712.22,19.614,19.614,0,0,1-2.738-.247c-.908-.142-1.829-.35-2.75-.558-.48-.117-.87-.194-1.311-.324s-.882-.273-1.336-.416c-.9-.311-1.817-.649-2.8-.935a10.628,10.628,0,0,0-3.374-.467,6.847,6.847,0,0,0-1.064.13,5.742,5.742,0,0,0-1.272.442,5.047,5.047,0,0,0-2.063,1.933,6.468,6.468,0,0,0-.792,2.219,8.316,8.316,0,0,0-.116,1.933,14.623,14.623,0,0,0,.558,3.322,24.474,24.474,0,0,0,1.037,2.984,30.7,30.7,0,0,0,1.324,2.8,27.12,27.12,0,0,0,1.6,2.7c.3.441.61.882.96,1.323a11.726,11.726,0,0,0,1.154,1.3c.221.22.454.428.714.649.13.1.273.208.415.311l.234.143.194.13a12.248,12.248,0,0,0,1.57.818,21.741,21.741,0,0,0,3.036,1.077,32.83,32.83,0,0,0,6.125,1.038,27.262,27.262,0,0,0,6.28-.519,16.26,16.26,0,0,0,6.267-2.582,11.277,11.277,0,0,0,1.414-1.22c.1-.117.221-.247.312-.35l.272-.311c.182-.208.351-.416.519-.623a22.2,22.2,0,0,0,1.778-2.673,22.959,22.959,0,0,0,2.335-5.891,15.1,15.1,0,0,0,.442-3.309,9.822,9.822,0,0,0-.117-1.816M90.2,234.18c-7.4,0-12.184-5.852-13.637-8.59-1.544-2.906.639-6.517,4.35-5.167a55.04,55.04,0,0,0,8.611,1.83c10.536-.234,14.368-4.993,14.767.768.267,3.845-5.19,11.158-14.091,11.158" transform="translate(-23.318 -71.51)" fill="#272d35"/>
                <path id="Path_921570" data-name="Path 921570" d="M99.265,211.239a.892.892,0,0,1-.381-1.647l2.545-1.572-2-.735a.894.894,0,0,1-.583-.784l-.344-5.741a.892.892,0,0,1,1.781-.106l.309,5.157,3.172,1.166a.893.893,0,0,1,.16,1.6l-4.106,2.535a.887.887,0,0,1-.556.129" transform="translate(-32.684 -66.329)" fill="#f68768"/>
                <path id="Path_921571" data-name="Path 921571" d="M99.218,230.53a15.55,15.55,0,0,1-11.856-2.153.887.887,0,1,1,.972-1.483c7.413,4.862,15.5.107,15.578.058a.887.887,0,0,1,.915,1.519,18.939,18.939,0,0,1-5.608,2.059" transform="translate(-28.867 -75.27)" fill="#f68768"/>
                <path id="Path_921572" data-name="Path 921572" d="M98.191,236.971a9.044,9.044,0,0,1-4.913-1.3.622.622,0,1,1,.637-1.07,8.52,8.52,0,0,0,8.353.015.622.622,0,0,1,.641,1.067,10.355,10.355,0,0,1-4.718,1.285" transform="translate(-30.863 -77.848)" fill="#f68768"/>
                <g id="Group_1118898" data-name="Group 1118898" transform="translate(42.71 107.231)" opacity="0.5">
                  <g id="Group_1118897" data-name="Group 1118897">
                    <g id="Group_1118896" data-name="Group 1118896" clip-path="url(#clip-path-16)">
                      <path id="Path_921573" data-name="Path 921573" d="M110.832,185.754c-.035.4-.072.808-.114,1.217,0,0-7.714-10.161-7.492-17.918,0,0-21.377,6.217-31.62-.2,0,0,1.041,15.455-7.329,19.2q-.117-.942-.214-1.859A23.218,23.218,0,0,1,86.8,160.516c.18,0,.362,0,.546,0,.228,0,.454,0,.678.005a23.237,23.237,0,0,1,22.805,25.235" transform="translate(-63.933 -160.514)" fill="#272d35"/>
                    </g>
                  </g>
                </g>
                <path id="Path_921574" data-name="Path 921574" d="M86.947,190.541a4.529,4.529,0,0,1,0,3.235s-6.632-1.1-11.139,1.484l-.424-1.7s2.872-4.984,11.563-3.022" transform="translate(-25.024 -63.098)" fill="#272d35"/>
                <path id="Path_921575" data-name="Path 921575" d="M107.335,190.541a4.528,4.528,0,0,0,0,3.235s6.632-1.1,11.139,1.484l.424-1.7s-2.872-4.984-11.563-3.022" transform="translate(-35.536 -63.098)" fill="#272d35"/>
                <path id="Path_921576" data-name="Path 921576" d="M303.812,342.589h63.967l-.58-10.55.307-69.2-16.127-4.33-3.79-1.018-2.937-.788a34.172,34.172,0,0,0-17.783,0l-1.67.449-3.907,1.048-17.278,4.638.306,69.2Z" transform="translate(-100.852 -84.823)" fill="#1e2ad5"/>
                <path id="Path_921577" data-name="Path 921577" d="M383.39,319.6c-3.253,9.312-17.817,8.632-34.406,3.544-2.9-.889-5.871-1.915-8.85-3.046a184.328,184.328,0,0,1-17.532-7.765l.038-.1,1.7-4.406.579-1.5s31.8,3.464,46.985-.049c-9.428-29.837-1.192-35.877,1.842-39.809,0,0,15.787,35.552,9.647,53.129" transform="translate(-107.089 -88.456)" fill="#1e2ad5"/>
                <g id="Group_1118901" data-name="Group 1118901" transform="translate(215.551 219.374)" opacity="0.2">
                  <g id="Group_1118900" data-name="Group 1118900">
                    <g id="Group_1118899" data-name="Group 1118899" clip-path="url(#clip-path-17)">
                      <path id="Path_921578" data-name="Path 921578" d="M357.692,328.649a47.879,47.879,0,0,1-21.562,6.616c-7.26.52-11.305-1.009-13.47-2.476l1.7-4.406c6.757.388,27.69,1.462,33.335.267" transform="translate(-322.659 -328.382)"/>
                    </g>
                  </g>
                </g>
                <g id="Group_1118904" data-name="Group 1118904" transform="translate(233.045 217.825)" opacity="0.2">
                  <g id="Group_1118903" data-name="Group 1118903">
                    <g id="Group_1118902" data-name="Group 1118902" clip-path="url(#clip-path-14)">
                      <path id="Path_921579" data-name="Path 921579" d="M380.613,326.063s-1.874,3.673-4.314,8.631c-2.036,4.139-12.221,7.245-18.6,8.233-2.9-.889-5.871-1.915-8.85-3.046Z" transform="translate(-348.846 -326.063)"/>
                    </g>
                  </g>
                </g>
                <path id="Path_921580" data-name="Path 921580" d="M348.47,317.836c-47.527,16.006-62.148,5.531-62.148,5.531-3.2-28.934,11.742-56.9,11.742-56.9,8.637,5.508,8.073,18.425,8.073,18.425l-2.762,21.47-.317,2.456c14.307,3.147,40.975-.291,40.975-.291Z" transform="translate(-94.897 -88.454)" fill="#1e2ad5"/>
                <g id="Group_1118907" data-name="Group 1118907" transform="translate(198.524 217.907)" opacity="0.2">
                  <g id="Group_1118906" data-name="Group 1118906">
                    <g id="Group_1118905" data-name="Group 1118905" clip-path="url(#clip-path-15)">
                      <path id="Path_921581" data-name="Path 921581" d="M307.127,326.185l-.317,2.456a17.57,17.57,0,0,0-9.638,6.092s1.895-8.6,9.951-8.546Z" transform="translate(-297.172 -326.185)"/>
                    </g>
                  </g>
                </g>
                <path id="Path_921582" data-name="Path 921582" d="M372.935,323.982s5.262-11.953,13.261-10.888l2.412,8.642c-4.378,1.859-5.019,9.368-11.237,11.557Z" transform="translate(-123.798 -103.91)" fill="#e97e5e"/>
                <path id="Path_921583" data-name="Path 921583" d="M312.064,320.806A19.046,19.046,0,0,0,300,310.743c-8.745-2.265-14.317,1.856-14.9,3.412s3.3.069,3.3.069a7.547,7.547,0,0,0-3.982,3.094c-1.452,2.378,3.533-.188,3.533-.188s-3.575,1.567-4.029,3.019,4.26-1,5.146-.955c0,0-4.21,1.673-4.181,3.172s4.836-.946,8.426-.752a56.624,56.624,0,0,1,9.094,1.68,60.286,60.286,0,0,0,8.286,1.091Z" transform="translate(-94.236 -102.931)" fill="#e97e5e"/>
                <path id="Path_921584" data-name="Path 921584" d="M356.768,242.475l-.305,5.747-.383,7.2s-1.43,2.71-7.883,2.71-7.776-1.852-7.776-1.852l-.26-3.195-.867-10.611Z" transform="translate(-112.63 -80.49)" fill="#e97e5e"/>
                <path id="Path_921585" data-name="Path 921585" d="M356.768,242.475l-.305,5.747c-2.692,2.016-9.064,5.978-16.3,4.865l-.867-10.611Z" transform="translate(-112.63 -80.49)" fill="#d45b45"/>
                <path id="Path_921586" data-name="Path 921586" d="M318.114,201.99s-4.944-4.837-8.892-1.68c-4.664,3.728.214,17.149,8.488,15.727Z" transform="translate(-102.046 -66.138)" fill="#e36c4f"/>
                <path id="Path_921587" data-name="Path 921587" d="M316.886,212.819a10.48,10.48,0,0,0-5.932-6.571s4.1,3.866,4.412,6.856a.744.744,0,0,0,.757.683l.09,0a.734.734,0,0,0,.673-.965" transform="translate(-103.223 -68.464)" fill="#d45b45"/>
                <path id="Path_921588" data-name="Path 921588" d="M377.677,201.99s4.944-4.837,8.892-1.68c4.664,3.728-.214,17.149-8.489,15.727Z" transform="translate(-125.372 -66.138)" fill="#e36c4f"/>
                <path id="Path_921589" data-name="Path 921589" d="M381.654,212.819a10.48,10.48,0,0,1,5.932-6.571s-4.1,3.866-4.412,6.856a.744.744,0,0,1-.757.683l-.09,0a.734.734,0,0,1-.673-.965" transform="translate(-126.68 -68.464)" fill="#d45b45"/>
                <path id="Path_921590" data-name="Path 921590" d="M339.482,220.574c-17.082,0-22.355-20.289-23.928-35.143a23.44,23.44,0,0,1,22.956-25.923q.275,0,.552,0,.346,0,.684,0a23.459,23.459,0,0,1,23.023,25.477c-1.305,15.048-6.213,35.588-23.288,35.588" transform="translate(-104.706 -52.948)" fill="#e97e5e"/>
                <path id="Path_921591" data-name="Path 921591" d="M359.135,223.115c-.073-.44-.167-.877-.279-1.319l-.088-.326-.089-.3c-.061-.206-.128-.422-.208-.649a6.986,6.986,0,0,0-.678-1.439,5.307,5.307,0,0,0-1.2-1.33,5.078,5.078,0,0,0-.768-.511,3.954,3.954,0,0,0-1.01-.35c-.076-.014-.156-.03-.227-.04l-.109-.017-.028,0-.039,0-.08-.007a3,3,0,0,0-.3-.015c-.087,0-.187,0-.261.009a5.514,5.514,0,0,0-.828.118,12.7,12.7,0,0,0-1.3.371c-.4.136-.785.278-1.162.421-.75.291-1.474.585-2.189.857s-1.423.532-2.068.708c-.082.023-.157.04-.234.059l-.261.06c-.167.036-.309.061-.4.071a1.2,1.2,0,0,1-.241-.008c-.1-.012-.247-.039-.409-.072-.075-.015-.179-.037-.242-.053s-.117-.027-.19-.051c-.137-.041-.287-.092-.442-.149-.313-.116-.648-.254-1-.4-.695-.3-1.428-.618-2.22-.919-.4-.154-.806-.293-1.267-.422a9.237,9.237,0,0,0-1.432-.268,9.757,9.757,0,0,0-1.444-.04l-.179.01c-.061,0-.115.005-.192.015-.146.018-.291.032-.434.058s-.289.053-.431.092-.284.077-.424.125a5.557,5.557,0,0,0-2.816,2.128,5.468,5.468,0,0,0-.767,1.671l-.055.216-.037.163c-.027.111-.049.219-.07.328-.045.218-.083.436-.119.654a19.122,19.122,0,0,0-.232,2.609,18.89,18.89,0,0,0,.608,5.229,14.571,14.571,0,0,0,2.366,4.984,12.385,12.385,0,0,0,4.406,3.684,14.783,14.783,0,0,0,5.38,1.458,19.044,19.044,0,0,0,2.676.043,16.438,16.438,0,0,0,2.7-.359,13.225,13.225,0,0,0,5.169-2.319,12.686,12.686,0,0,0,2.093-1.986,13.455,13.455,0,0,0,1.555-2.364,15.763,15.763,0,0,0,1.575-5.165,18.379,18.379,0,0,0,.15-2.629,17.073,17.073,0,0,0-.227-2.625m-4.165,4.536a11.445,11.445,0,0,1-1.43,3.6,8.585,8.585,0,0,1-1.118,1.437,7.819,7.819,0,0,1-1.347,1.13q-.3.2-.625.371a2.675,2.675,0,0,1-3.466-.816,2.181,2.181,0,0,0-1.561-1.114c-.659-.018-1.289.6-1.793,1.3a2.686,2.686,0,0,1-3.283.936l-.054-.025a7.835,7.835,0,0,1-2.762-2.12A12.379,12.379,0,0,1,335,225.119a15.039,15.039,0,0,1,.033-2.033c.015-.167.032-.332.053-.5l.033-.245.019-.122.013-.067a1.37,1.37,0,0,1,.154-.452,1.625,1.625,0,0,1,.773-.7,1.748,1.748,0,0,1,.267-.091c.045-.013.094-.018.14-.03.019,0,.062-.01.1-.015l.11-.012a5.805,5.805,0,0,1,.88-.028,13.743,13.743,0,0,1,3.933,1.144c.373.142.76.285,1.181.42.212.068.431.134.669.194.114.031.251.057.376.084s.212.04.329.059c.219.036.456.071.742.092a4.593,4.593,0,0,0,.921-.027,7.088,7.088,0,0,0,.743-.146l.306-.076c.11-.03.224-.059.327-.091.848-.245,1.591-.526,2.336-.792s1.463-.531,2.173-.76c.354-.116.7-.225,1.043-.319a8.387,8.387,0,0,1,.947-.216,1.908,1.908,0,0,1,.324-.03c.023,0,.02.005.03,0s0,0-.012,0l.032.009a.435.435,0,0,1,.058.015c.069.021.086.037.082.04s0,.01.178.16a1.51,1.51,0,0,1,.317.419,3.438,3.438,0,0,1,.259.683c.041.142.08.3.12.468l.06.262.05.239a9.652,9.652,0,0,1,.134.971,13.334,13.334,0,0,1-.267,4.016" transform="translate(-109.77 -71.968)" fill="#272d35"/>
                <path id="Path_921592" data-name="Path 921592" d="M338.178,190.541a4.527,4.527,0,0,1,0,3.234s-6.632-1.1-11.139,1.485l-.424-1.7s2.872-4.984,11.563-3.022" transform="translate(-108.421 -63.098)" fill="#272d35"/>
                <path id="Path_921593" data-name="Path 921593" d="M358.566,190.541a4.527,4.527,0,0,0,0,3.234s6.632-1.1,11.139,1.485l.424-1.7s-2.872-4.984-11.563-3.022" transform="translate(-118.934 -63.098)" fill="#272d35"/>
                <path id="Path_921594" data-name="Path 921594" d="M337.761,201.122a2.218,2.218,0,1,1-2.654-1.671,2.218,2.218,0,0,1,2.654,1.671" transform="translate(-110.667 -66.189)" fill="#272d35"/>
                <path id="Path_921595" data-name="Path 921595" d="M367.379,201.122a2.218,2.218,0,1,1-2.654-1.671,2.218,2.218,0,0,1,2.654,1.671" transform="translate(-120.499 -66.189)" fill="#272d35"/>
                <path id="Path_921596" data-name="Path 921596" d="M356.65,162.777s9.141,6.089,4.467,22.481L360,185.176c.419-4.539-1.636-8.8-2.149-10.357-1.2-3.635-6.441-5.819-6.113-9.749,0,0-19.553,6.113-30.135.11,0,0-.1,5.306-3.05,8.439-1.4,1.488-3,7.216-2.426,12.246l-1.064.55c-1.343-5.13-3.155-11.269-3.169-13.952-.033-6.262,4.283-7.632,4.283-7.632s-2.614-8.539,4.7-12.362,17.5-3.924,23.753-5.24c8.417-1.774,21.914,4.363,12.017,15.551" transform="translate(-103.535 -48.772)" fill="#272d35"/>
                <path id="Path_921597" data-name="Path 921597" d="M351.092,213.27a.9.9,0,0,1-.385-1.662l2.569-1.587-2.017-.742a.9.9,0,0,1-.588-.791l-.347-5.8a.9.9,0,0,1,1.8-.108l.312,5.207,3.2,1.178a.9.9,0,0,1,.162,1.612l-4.145,2.559a.9.9,0,0,1-.561.13" transform="translate(-116.277 -66.967)" fill="#d45b45"/>
                <path id="Path_921598" data-name="Path 921598" d="M351.045,229.192a15.7,15.7,0,0,1-11.97-2.174.9.9,0,1,1,.981-1.5c7.485,4.909,15.646.108,15.728.059a.895.895,0,1,1,.923,1.533,19.114,19.114,0,0,1-5.662,2.079" transform="translate(-112.423 -74.813)" fill="#d45b45"/>
                <path id="Path_921599" data-name="Path 921599" d="M350.008,236.961a9.139,9.139,0,0,1-4.961-1.31.628.628,0,1,1,.643-1.08,8.606,8.606,0,0,0,8.433.016.628.628,0,0,1,.647,1.077,10.451,10.451,0,0,1-4.762,1.3" transform="translate(-114.438 -77.837)" fill="#d45b45"/>
                <path id="Path_921600" data-name="Path 921600" d="M247.141,238.317c.049,23.257-28.546,30.309-45.255,28.188-16.709,2.121-45.3-4.932-45.255-28.188.044-20.323,14.757-18.083,13.715-36.269-.205-3.57-.488-7.1-.746-10.555-1.238-16.506-1.869-31.42,9.753-41.754,7.033-6.25,16.506-7.781,22.533-7.492,6.026-.289,15.5,1.242,22.532,7.492,12.425,11.046,10.844,27.326,9.5,45.188-.178,2.348-.353,4.727-.488,7.121-1.042,18.186,13.674,15.946,13.715,36.269" transform="translate(-51.995 -47.208)" fill="#272d35"/>
                <path id="Path_921601" data-name="Path 921601" d="M180.932,347.6c3.389-12.777,9.681-45.449-3.678-76.974,0,0-4.157,24.395-5.9,45.706a155.139,155.139,0,0,0,.58,31.269Z" transform="translate(-56.709 -89.836)" fill="#ca644b"/>
                <path id="Path_921602" data-name="Path 921602" d="M269.058,347.107c2.148-12.864,6.08-45.918-3.153-77.972,0,0-5.545,25.195-7.287,46.5a229.451,229.451,0,0,0-.418,31.467Z" transform="translate(-85.594 -89.34)" fill="#ca644b"/>
                <path id="Path_921603" data-name="Path 921603" d="M186.539,298.949l.927,18.73-4.1,25.141h53.786l-4.1-25.141,1.584-18.876c5.455-4.971,3.066-15.626,3.066-15.626l2.511-18.328L225.6,259.414l-8.578-3.191-14.313.158-7.961,3.383-14.306,6.083,2.381,17.33s-1.939,11.524,3.714,15.773" transform="translate(-59.899 -85.054)" fill="#f6ae5c"/>
                <path id="Path_921604" data-name="Path 921604" d="M232.711,259.414c-1.9,4.385-6.4,11.725-15.275,11.725-9.061,0-13.681-7.252-15.577-11.375l7.961-3.384,14.313-.157Z" transform="translate(-67.008 -85.054)" fill="#ca644b"/>
                <path id="Path_921605" data-name="Path 921605" d="M235.637,322.747s-15.728,11.118-38.373.678c0,0,21.152,5.7,38.373-.678" transform="translate(-65.483 -107.137)" fill="#00a498"/>
                <path id="Path_921606" data-name="Path 921606" d="M228.323,244.774l-.122,4.165-.267,9.072a17.7,17.7,0,0,1-13.3,0l-.312-4.809-.546-8.429Z" transform="translate(-70.964 -81.253)" fill="#ca644b"/>
                <path id="Path_921607" data-name="Path 921607" d="M195.026,207.817s-4.047-3.96-7.279-1.376c-3.819,3.052.176,14.038,6.948,12.875Z" transform="translate(-61.831 -68.238)" fill="#c24d3c"/>
                <path id="Path_921608" data-name="Path 921608" d="M196.241,235.1a6.318,6.318,0,1,1,6.318-6.318,6.324,6.324,0,0,1-6.318,6.318m0-11.213a4.9,4.9,0,1,0,4.9,4.9,4.9,4.9,0,0,0-4.9-4.9" transform="translate(-63.046 -73.847)" fill="#fbf9f9"/>
                <path id="Path_921609" data-name="Path 921609" d="M194.81,217.433a10.48,10.48,0,0,0-5.932-6.571s4.1,3.866,4.412,6.856a.744.744,0,0,0,.757.683l.09,0a.734.734,0,0,0,.673-.965" transform="translate(-62.699 -69.996)" fill="#a0443f"/>
                <path id="Path_921610" data-name="Path 921610" d="M250.521,207.817s4.047-3.96,7.279-1.376c3.819,3.052-.176,14.038-6.948,12.875Z" transform="translate(-83.162 -68.238)" fill="#c24d3c"/>
                <path id="Path_921611" data-name="Path 921611" d="M248.947,235.1a6.318,6.318,0,1,1,6.318-6.318,6.325,6.325,0,0,1-6.318,6.318m0-11.213a4.9,4.9,0,1,0,4.9,4.9,4.9,4.9,0,0,0-4.9-4.9" transform="translate(-80.542 -73.847)" fill="#fbf9f9"/>
                <path id="Path_921612" data-name="Path 921612" d="M252.124,217.433a10.48,10.48,0,0,1,5.932-6.571s-4.1,3.866-4.412,6.856a.744.744,0,0,1-.757.683l-.09,0a.734.734,0,0,1-.673-.965" transform="translate(-83.681 -69.996)" fill="#a0443f"/>
                <path id="Path_921613" data-name="Path 921613" d="M228.323,244.774l-.122,4.165c-2.592,1.852-7.865,4.891-13.879,4.263l-.546-8.429Z" transform="translate(-70.964 -81.253)" fill="#a0443f"/>
                <path id="Path_921614" data-name="Path 921614" d="M235.41,178.906v17.407a40.756,40.756,0,0,1-2.311,13.772,29.452,29.452,0,0,1-3.575,7.1s-.033.046-.1.131a19.331,19.331,0,0,1-15.053,7.387c-8.818,0-14.71-7.057-15.068-7.5l0,0a.048.048,0,0,1-.011-.015l0,0a29.414,29.414,0,0,1-3.578-7.1,40.82,40.82,0,0,1-2.309-13.772V178.906c11.253-6.717,21-6.717,21-6.717s9.751,0,21,6.717" transform="translate(-64.201 -57.158)" fill="#ca644b"/>
                <path id="Path_921615" data-name="Path 921615" d="M223.962,219.181a.754.754,0,0,1-.323-1.392l2.152-1.329-1.689-.621a.755.755,0,0,1-.492-.663l-.291-4.853a.754.754,0,1,1,1.506-.09l.261,4.36,2.682.986a.755.755,0,0,1,.135,1.35l-3.47,2.142a.751.751,0,0,1-.47.109" transform="translate(-74.119 -69.552)" fill="#a0443f"/>
                <path id="Path_921616" data-name="Path 921616" d="M222.668,242.725a9.216,9.216,0,0,1-3.307-1.019.561.561,0,0,1,.56-.973,7.393,7.393,0,0,0,7.277-.122.561.561,0,1,1,.605.946,7.745,7.745,0,0,1-5.135,1.168" transform="translate(-72.724 -79.842)" fill="#a0443f"/>
                <path id="Path_921617" data-name="Path 921617" d="M229.478,227.79a7.868,7.868,0,1,1-15.734.207c0-.022,0-.042,0-.064l15.73-.207c0,.022,0,.042,0,.064" transform="translate(-70.953 -75.594)" fill="#481c3f"/>
                <path id="Path_921618" data-name="Path 921618" d="M229.478,227.79a7.852,7.852,0,0,1-.108,1.409l-15.482.2a7.852,7.852,0,0,1-.144-1.406c0-.022,0-.042,0-.064l15.73-.207c0,.022,0,.042,0,.064" transform="translate(-70.953 -75.594)" fill="#fff"/>
                <path id="Path_921619" data-name="Path 921619" d="M228.534,234.782a7.865,7.865,0,0,1-11.56.152,8.637,8.637,0,0,1,11.56-.152" transform="translate(-72.026 -77.225)" fill="#f65c66"/>
                <path id="Path_921620" data-name="Path 921620" d="M205.69,218.057a.649.649,0,1,1-.649-.649.649.649,0,0,1,.649.649" transform="translate(-67.849 -72.169)" fill="#a0443f"/>
                <path id="Path_921621" data-name="Path 921621" d="M202.983,220.862a.649.649,0,1,1-.649-.649.649.649,0,0,1,.649.649" transform="translate(-66.95 -73.1)" fill="#a0443f"/>
                <path id="Path_921622" data-name="Path 921622" d="M208.438,220.862a.649.649,0,1,1-.649-.649.649.649,0,0,1,.649.649" transform="translate(-68.761 -73.1)" fill="#a0443f"/>
                <path id="Path_921623" data-name="Path 921623" d="M244.269,218.057a.649.649,0,1,0,.649-.649.649.649,0,0,0-.649.649" transform="translate(-81.086 -72.169)" fill="#a0443f"/>
                <path id="Path_921624" data-name="Path 921624" d="M246.975,220.862a.649.649,0,1,0,.649-.649.649.649,0,0,0-.649.649" transform="translate(-81.985 -73.1)" fill="#a0443f"/>
                <path id="Path_921625" data-name="Path 921625" d="M241.52,220.862a.649.649,0,1,0,.649-.649.649.649,0,0,0-.649.649" transform="translate(-80.174 -73.1)" fill="#a0443f"/>
                <path id="Path_921626" data-name="Path 921626" d="M211.227,197.057h0a1.024,1.024,0,0,1-.961,1.023c-1.936.115-6.355.6-9.12,2.659,0,0,1.007-4.443,9.017-4.707a1.028,1.028,0,0,1,1.064,1.025" transform="translate(-66.771 -65.073)" fill="#272d35"/>
                <path id="Path_921627" data-name="Path 921627" d="M234.326,197.057h0a1.023,1.023,0,0,0,.961,1.023c1.936.115,6.355.6,9.12,2.659,0,0-1.007-4.443-9.017-4.707a1.027,1.027,0,0,0-1.064,1.025" transform="translate(-77.786 -65.073)" fill="#272d35"/>
                <path id="Path_921628" data-name="Path 921628" d="M192,197.529s5.594-5.845,4.211-19.856l-7.029,2.813Z" transform="translate(-62.801 -58.979)" fill="#272d35"/>
                <path id="Path_921629" data-name="Path 921629" d="M254.364,197.529s-5.594-5.845-4.211-19.856l7.029,2.813Z" transform="translate(-82.967 -58.979)" fill="#272d35"/>
                <path id="Path_921630" data-name="Path 921630" d="M198.426,178.115s20.552-6.9,35.185,0v-5.921A48.855,48.855,0,0,0,215.6,168.2c-12.178,0-18.247,5.721-18.247,5.721Z" transform="translate(-65.511 -55.834)" fill="#272d35"/>
                <path id="Path_921631" data-name="Path 921631" d="M198.989,184.713s28.865,2.682,34.893-9.164-32.041-4.069-32.041-4.069-5.757,1.935-2.853,13.233" transform="translate(-65.784 -56.091)" fill="#272d35"/>
                <path id="Path_921632" data-name="Path 921632" d="M211.257,207.671a2.074,2.074,0,1,1-3.477-2.011,9.269,9.269,0,0,0-2.967,1.038c3.611-4.315,7.84-.792,7.84-.792a10.518,10.518,0,0,0-2.063-.383,2.077,2.077,0,0,1,.667,2.149" transform="translate(-67.988 -67.901)" fill="#272d35"/>
                <path id="Path_921633" data-name="Path 921633" d="M234.535,207.671a2.074,2.074,0,1,0,3.477-2.011,9.269,9.269,0,0,1,2.967,1.038c-3.611-4.315-7.84-.792-7.84-.792a10.517,10.517,0,0,1,2.063-.383,2.076,2.076,0,0,0-.667,2.149" transform="translate(-77.392 -67.901)" fill="#272d35"/>
                <path id="Path_921634" data-name="Path 921634" d="M237.741,179.955a67.931,67.931,0,0,0-4.734-13.2c-3.812-7.4-12.054-10.1-21.694-10.1l-.2,0-.2,0c-9.641,0-17.882,2.7-21.694,10.1a67.932,67.932,0,0,0-4.734,13.2c0-.484-1.15-12.448,6.767-20.4,4.812-4.835,11.429-7.285,19.661-7.285l.2,0,.2,0c8.232,0,14.849,2.45,19.661,7.285,7.916,7.949,6.769,19.912,6.767,20.4" transform="translate(-61.221 -50.547)" fill="#47d6bc"/>
              </g>
            </g>
          </g>
        </g>
      </g>
    </g>
    <rect id="Rectangle_408833" data-name="Rectangle 408833" width="261" height="9" transform="translate(195.711 17278)" fill="#ffc811"/>
  </g>
</svg>
