<svg xmlns="http://www.w3.org/2000/svg" xmlns:xlink="http://www.w3.org/1999/xlink" width="99" height="99" viewBox="0 0 99 99">
  <defs>
    <clipPath id="clip-path">
      <rect id="Rectangle_401223" data-name="Rectangle 401223" width="99" height="99" transform="translate(0)" fill="#1e2ad5"/>
    </clipPath>
    <clipPath id="clip-path-2">
      <rect id="Rectangle_401223-2" data-name="Rectangle 401223" width="88.539" height="88.539" fill="#f3f9ff"/>
    </clipPath>
    <clipPath id="clip-path-3">
      <rect id="Rectangle_408886" data-name="Rectangle 408886" width="72.961" height="73.598" fill="none"/>
    </clipPath>
  </defs>
  <g id="Group_1118388" data-name="Group 1118388" transform="translate(-619.922 -5755.73)">
    <g id="Group_1100724" data-name="Group 1100724" transform="translate(619.922 5755.73)">
      <g id="Group_1099654" data-name="Group 1099654" transform="translate(0 0)">
        <g id="Group_1099652" data-name="Group 1099652" clip-path="url(#clip-path)">
          <path id="Path_873521" data-name="Path 873521" d="M99,77.066A22,22,0,0,1,77.066,99H21.934A22,22,0,0,1,0,77.066V21.933A22,22,0,0,1,21.934,0H77.066A22,22,0,0,1,99,21.934Z" transform="translate(0)" fill="#1e2ad5"/>
        </g>
      </g>
      <g id="Group_1099659" data-name="Group 1099659" transform="translate(4.77 5.723)">
        <g id="Group_1099652-2" data-name="Group 1099652" transform="translate(0 0)" clip-path="url(#clip-path-2)">
          <path id="Path_873521-2" data-name="Path 873521" d="M88.539,68.922A19.674,19.674,0,0,1,68.923,88.539H19.616A19.674,19.674,0,0,1,0,68.922V19.616A19.674,19.674,0,0,1,19.616,0H68.923A19.674,19.674,0,0,1,88.539,19.616Z" fill="#f3f9ff"/>
        </g>
      </g>
    </g>
    <g id="Group_1100725" data-name="Group 1100725" transform="translate(632.343 5767.293)">
      <rect id="Rectangle_401104" data-name="Rectangle 401104" width="75" height="75" transform="translate(-0.71 0.104)" fill="none"/>
      <g id="Group_1119013" data-name="Group 1119013" transform="translate(0.29 1.104)">
        <g id="Group_1119012" data-name="Group 1119012" clip-path="url(#clip-path-3)">
          <path id="Path_921864" data-name="Path 921864" d="M7.271,548.963H11.9c2.833-.033,4.742-1.533,4.742-4.742V540.58c.4.022.8.061,1.211.116v4.128a5.359,5.359,0,0,1-5.345,5.345H7.115c-2.839.033-4.742,1.538-4.742,4.748v4.742H2.368v1.986H3.524l-.88,1.527-.88,1.527L.88,563.172,0,561.645H1.162v-7.337a5.359,5.359,0,0,1,5.345-5.345h.764Z" transform="translate(0 -500.055)" fill="#ffc811" fill-rule="evenodd"/>
          <path id="Path_921865" data-name="Path 921865" d="M239.549,14.469h4.626c2.833.033,4.742,1.533,4.742,4.742v.863h.005v2.357c.4-.022.8-.06,1.206-.116V18.608a5.359,5.359,0,0,0-5.345-5.345h-5.39c-2.833-.033-4.741-1.538-4.741-4.742V5.041h-.006V3.054h1.162l-.885-1.528L234.043,0l-.88,1.527-.885,1.528h1.162v6.07a5.363,5.363,0,0,0,5.345,5.345h.763Z" transform="translate(-214.865)" fill="#ffc811" fill-rule="evenodd"/>
          <path id="Path_921866" data-name="Path 921866" d="M745.716,508.758H741.1c-2.833-.034-4.742-1.539-4.742-4.742v-.863h-.005V500.8c-.4.022-.8.061-1.206.116v3.707a5.363,5.363,0,0,0,5.345,5.345h5.389c2.833.033,4.742,1.538,4.742,4.742V521.5h.006v1.987h-1.162l.885,1.527.88,1.527.88-1.527.885-1.527H751.83V514.1a5.363,5.363,0,0,0-5.345-5.345h-.77Z" transform="translate(-680.031 -463.252)" fill="#ffc811" fill-rule="evenodd"/>
          <path id="Path_921867" data-name="Path 921867" d="M179.114,298.728,187.5,283.34l-15.216-.73.038-.78,14.741.709-19.217-17.2.515-.581,19.388,17.357V265.042h.78v17.474l22.46-7.492.526-.1-.072.531-.841.432-22.2,7.442L179.8,299.1Z" transform="translate(-155.261 -244.907)" fill="#685700"/>
          <path id="Path_921868" data-name="Path 921868" d="M74.77,179.875a7.824,7.824,0,1,0-7.824-7.824,7.841,7.841,0,0,0,7.824,7.824" transform="translate(-61.927 -151.916)" fill="#1e2ad5" fill-rule="evenodd"/>
          <path id="Path_921869" data-name="Path 921869" d="M378.29,213.19A4.889,4.889,0,1,0,373.4,208.3a4.9,4.9,0,0,0,4.886,4.891" transform="translate(-345.411 -188.163)" fill="#1e2ad5" fill-rule="evenodd"/>
          <path id="Path_921870" data-name="Path 921870" d="M332.61,410.5a8.588,8.588,0,1,0-8.587-8.587,8.6,8.6,0,0,0,8.587,8.587" transform="translate(-299.732 -363.842)" fill="#1e2ad5" fill-rule="evenodd"/>
          <path id="Path_921871" data-name="Path 921871" d="M268.554,670.7a4.388,4.388,0,1,0-4.393-4.388,4.395,4.395,0,0,0,4.393,4.388" transform="translate(-244.358 -612.305)" fill="#1e2ad5" fill-rule="evenodd"/>
          <path id="Path_921872" data-name="Path 921872" d="M173.111,447.949a4.391,4.391,0,1,0-4.388-4.388,4.4,4.4,0,0,0,4.388,4.388" transform="translate(-156.075 -406.245)" fill="#1e2ad5" fill-rule="evenodd"/>
          <path id="Path_921873" data-name="Path 921873" d="M602.688,272.487a11.4,11.4,0,1,0-11.4-11.393,11.415,11.415,0,0,0,11.4,11.393" transform="translate(-546.962 -230.977)" fill="#1e2ad5" fill-rule="evenodd"/>
          <path id="Path_921874" data-name="Path 921874" d="M418.041,227.69c-.011-.15-.017-.293-.017-.426a2.178,2.178,0,0,1,.205-1.057,1.18,1.18,0,0,1,.868-.592,3.35,3.35,0,0,1,.559-.055,2.283,2.283,0,0,1,.52.06,1.279,1.279,0,0,1,.763.526,2,2,0,0,1,.31,1.112v.133a1.629,1.629,0,0,1-.188.891,1.3,1.3,0,0,1-.7.476.946.946,0,0,1,.6.293,1.311,1.311,0,0,1,.277.614,2.168,2.168,0,0,1,.044.476,4.593,4.593,0,0,1-.028.459,1.622,1.622,0,0,1-.443.935,1.574,1.574,0,0,1-1.151.41H419.6a1.716,1.716,0,0,1-1.168-.382,2.234,2.234,0,0,1-.454-1.671v-.028l1.118-.06v.143c0,.6.155.913.47.935.028,0,.05.006.066.006a.514.514,0,0,0,.542-.476,1.4,1.4,0,0,0,.022-.255.917.917,0,0,0-.193-.592,1.053,1.053,0,0,0-.885-.338l-.05-.819h.138a.809.809,0,0,0,.741-.309,1.343,1.343,0,0,0,.188-.753c0-.056,0-.122-.006-.183-.027-.371-.194-.553-.5-.553h-.055c-.3.022-.454.321-.454.907,0,.066,0,.144.005.222Z" transform="translate(-386.646 -208.651)" fill="#ffdb79" fill-rule="evenodd"/>
          <path id="Path_921875" data-name="Path 921875" d="M138.185,213.029c-.017-.21-.022-.4-.022-.581a2.128,2.128,0,0,1,.337-1.35,1.745,1.745,0,0,1,1.112-.636,3.376,3.376,0,0,1,.47-.033,2.714,2.714,0,0,1,.8.116,1.518,1.518,0,0,1,.9.719,2.445,2.445,0,0,1,.243,1.151c0,.094-.005.188-.005.288a3.518,3.518,0,0,1-.542,1.659,23.451,23.451,0,0,1-1.655,2.164l2.285.016-.017,1.311q-1.5.075-3.873.072l-.122-1.433a28.82,28.82,0,0,0,2.03-2.363,2.536,2.536,0,0,0,.559-1.494v-.127c-.039-.526-.26-.791-.664-.791h-.017c-.348.011-.526.332-.526.957,0,.116.005.244.017.382Z" transform="translate(-127.744 -194.654)" fill="#e6e6e6" fill-rule="evenodd"/>
          <path id="Path_921876" data-name="Path 921876" d="M211.924,467.823c-.017,1.073-.022,2.142-.022,3.209,0,.531,0,1.062.005,1.593l-.847.045c-.017-1.367-.039-2.64-.061-3.807a4.047,4.047,0,0,0-.775.288l-.166-.747.946-.6Z" transform="translate(-194.312 -432.732)" fill="#ffd068" fill-rule="evenodd"/>
          <path id="Path_921877" data-name="Path 921877" d="M677.428,318.984v-13.1a.984.984,0,0,1,.979-.98h9.445a.98.98,0,0,1,.974.98v13.1a.98.98,0,0,1-.974.979h-9.445a.984.984,0,0,1-.979-.979" transform="translate(-626.644 -282.045)" fill="#ffe5af" fill-rule="evenodd"/>
          <path id="Path_921878" data-name="Path 921878" d="M668.566,311.757V298.638a.973.973,0,0,1,.968-.968H678.9a.973.973,0,0,1,.968.968v13.119a.973.973,0,0,1-.968.969h-9.368a.973.973,0,0,1-.968-.969" transform="translate(-618.446 -275.355)" fill="#f6ae5c" fill-rule="evenodd"/>
          <path id="Path_921879" data-name="Path 921879" d="M700.063,322.4h6.069a.5.5,0,0,1,.5.492v2.191a.5.5,0,0,1-.5.493h-6.069a.494.494,0,0,1-.492-.493v-2.191a.493.493,0,0,1,.492-.492" transform="translate(-647.127 -298.227)" fill="#fff" fill-rule="evenodd"/>
          <path id="Path_921880" data-name="Path 921880" d="M672.481,468.737a.484.484,0,1,1,.481.481.483.483,0,0,1-.481-.481" transform="translate(-622.068 -433.147)" fill="#686868" fill-rule="evenodd"/>
          <path id="Path_921881" data-name="Path 921881" d="M657.129,470.081h0a.364.364,0,0,1,.365-.36h1a.36.36,0,1,1,0,.719h-1a.364.364,0,0,1-.365-.36" transform="translate(-607.867 -434.508)" fill="#fff" fill-rule="evenodd"/>
          <path id="Path_921882" data-name="Path 921882" d="M672.481,443.2a.484.484,0,1,1,.481.482.483.483,0,0,1-.481-.482" transform="translate(-622.068 -409.521)" fill="#686868" fill-rule="evenodd"/>
          <path id="Path_921883" data-name="Path 921883" d="M657.129,444.539h0a.364.364,0,0,1,.365-.36h1a.36.36,0,1,1,0,.719h-1a.363.363,0,0,1-.365-.359" transform="translate(-607.867 -410.881)" fill="#fff" fill-rule="evenodd"/>
          <path id="Path_921884" data-name="Path 921884" d="M672.481,417.655a.484.484,0,1,1,.481.481.483.483,0,0,1-.481-.481" transform="translate(-622.068 -385.895)" fill="#686868" fill-rule="evenodd"/>
          <path id="Path_921885" data-name="Path 921885" d="M657.129,419.006h0a.364.364,0,0,1,.365-.36h1a.36.36,0,1,1,0,.719h-1a.364.364,0,0,1-.365-.36" transform="translate(-607.867 -387.262)" fill="#fff" fill-rule="evenodd"/>
          <path id="Path_921886" data-name="Path 921886" d="M672.481,392.122a.484.484,0,1,1,.481.481.483.483,0,0,1-.481-.481" transform="translate(-622.068 -362.276)" fill="#686868" fill-rule="evenodd"/>
          <path id="Path_921887" data-name="Path 921887" d="M657.129,393.465h0a.364.364,0,0,1,.365-.36h1a.36.36,0,1,1,0,.72h-1a.364.364,0,0,1-.365-.36" transform="translate(-607.867 -363.636)" fill="#fff" fill-rule="evenodd"/>
          <path id="Path_921888" data-name="Path 921888" d="M672.481,366.581a.484.484,0,1,1,.481.482.483.483,0,0,1-.481-.482" transform="translate(-622.068 -338.649)" fill="#686868" fill-rule="evenodd"/>
          <path id="Path_921889" data-name="Path 921889" d="M657.129,367.932h0a.363.363,0,0,1,.365-.36h1a.36.36,0,1,1,0,.719h-1a.363.363,0,0,1-.365-.359" transform="translate(-607.867 -340.017)" fill="#fff" fill-rule="evenodd"/>
          <path id="Path_921890" data-name="Path 921890" d="M672.481,341.042a.484.484,0,1,1,.481.481.483.483,0,0,1-.481-.481" transform="translate(-622.068 -315.025)" fill="#686868" fill-rule="evenodd"/>
          <path id="Path_921891" data-name="Path 921891" d="M657.129,342.391h0a.364.364,0,0,1,.365-.36h1a.36.36,0,1,1,0,.72h-1a.364.364,0,0,1-.365-.36" transform="translate(-607.867 -316.39)" fill="#fff" fill-rule="evenodd"/>
          <path id="Path_921892" data-name="Path 921892" d="M672.481,315.5a.484.484,0,1,1,.481.481.483.483,0,0,1-.481-.481" transform="translate(-622.068 -291.399)" fill="#686868" fill-rule="evenodd"/>
          <path id="Path_921893" data-name="Path 921893" d="M657.129,316.852h0a.364.364,0,0,1,.365-.36h1a.36.36,0,1,1,0,.719h-1a.364.364,0,0,1-.365-.36" transform="translate(-607.867 -292.766)" fill="#fff" fill-rule="evenodd"/>
          <path id="Path_921894" data-name="Path 921894" d="M658.365,918.257a27.2,27.2,0,0,1-4.62.4,26.343,26.343,0,0,1-2.971-.167V914.2a.609.609,0,0,1,.543-.658h6.5a.612.612,0,0,1,.548.658Z" transform="translate(-601.987 -845.058)" fill="#1e2ad5" fill-rule="evenodd"/>
          <path id="Path_921895" data-name="Path 921895" d="M608.055,624.775c2.031-2.064.089-7.447-3.1-9.8-4.095-3.01-7.7-4.272-10.413-2.357q4.274,4.1,8.543,8.205c-3.68.144-2.811.244-5.594-2.268l-.321,6.839a16.005,16.005,0,0,1,1.129,2.65c.526,1.931.752,4.133,1.162,6.169l5.844.232c.619-3.995.044-6.916,2.755-9.672" transform="translate(-549.968 -565.852)" fill="#fed9b1" fill-rule="evenodd"/>
          <path id="Path_921896" data-name="Path 921896" d="M643.663,899.955h7.891a.418.418,0,0,0,.415-.415v-.863a.415.415,0,0,0-.415-.415h-7.891a.411.411,0,0,0-.415.415v.863a.414.414,0,0,0,.415.415" transform="translate(-595.026 -830.923)" fill="#050c68" fill-rule="evenodd"/>
          <path id="Path_921897" data-name="Path 921897" d="M531.637,575.824l19.7,15.2a.412.412,0,0,0,.575-.072l1.538-1.992a.418.418,0,0,0-.072-.581l-19.7-15.2a.412.412,0,0,0-.575.072l-1.538,1.992a.414.414,0,0,0,.078.581" transform="translate(-491.632 -530.131)" fill="#1b7d9a" fill-rule="evenodd"/>
          <path id="Path_921898" data-name="Path 921898" d="M480.881,539.114l-3.375-3.032-2.4.011,5.08,3.918Z" transform="translate(-439.493 -495.895)" fill="gray" fill-rule="evenodd"/>
          <path id="Path_921899" data-name="Path 921899" d="M479.492,541.044l-3.786-2.5-.6-2.324,5.08,3.918Z" transform="translate(-439.492 -496.026)" fill="#b3b3b3" fill-rule="evenodd"/>
          <path id="Path_921900" data-name="Path 921900" d="M495.991,550.557a.438.438,0,0,1,.077.608.43.43,0,1,1-.077-.608" transform="translate(-458.166 -509.202)" fill="#e6e6e6" fill-rule="evenodd"/>
          <path id="Path_921901" data-name="Path 921901" d="M809.308,787.984h0a.583.583,0,0,1,.1.819l-.8,1.04a.582.582,0,1,1-.919-.714l.8-1.04a.582.582,0,0,1,.814-.1" transform="translate(-747.032 -728.801)" fill="#104b5c" fill-rule="evenodd"/>
          <path id="Path_921902" data-name="Path 921902" d="M749.017,756.642l-5.2-4.012-.254.327,5.2,4.011Z" transform="translate(-687.819 -696.209)" fill="#104b5c" fill-rule="evenodd"/>
          <rect id="Rectangle_408885" data-name="Rectangle 408885" width="2.703" height="0.489" transform="matrix(0.611, -0.792, 0.792, 0.611, 52.841, 54.794)" fill="#e6e6e6"/>
          <path id="Path_921903" data-name="Path 921903" d="M575.759,602.357l.36.277-1.743,2.258-.36-.277Z" transform="translate(-530.984 -557.201)" fill="#e6e6e6" fill-rule="evenodd"/>
          <path id="Path_921904" data-name="Path 921904" d="M582.084,630.622l1.157,3.06a8.569,8.569,0,0,0,2.174,3.514l.127,2.567c.044.957-.3,3.137-.924,2.413a1.514,1.514,0,0,1-2.152-.83l-3.624-9.584a1.992,1.992,0,0,1,.924-2.412c.714-.636,1.981.376,2.318,1.273" transform="translate(-535.339 -581.985)" fill="#fed9b1" fill-rule="evenodd"/>
          <path id="Path_921905" data-name="Path 921905" d="M584.874,639.043a10.41,10.41,0,0,1-.376-1.173c.044-2.246,1.621-2.086,2.429-.753a5.064,5.064,0,0,1,.47,1.25c.332,1.167-2.1,1.909-2.523.675" transform="translate(-540.681 -588.453)" fill="#fff" fill-rule="evenodd"/>
          <path id="Path_921906" data-name="Path 921906" d="M143.41,690.405a.509.509,0,1,1,1.018,0v1.018a.509.509,0,1,1-1.018,0Zm57.108,9.362a.509.509,0,1,1,0,1.018h-1.013a.509.509,0,0,1,0-1.018Zm-4.066,0a.509.509,0,0,1,0,1.018h-1.019a.509.509,0,1,1,0-1.018Zm-4.068,0a.509.509,0,0,1,0,1.018h-1.018a.509.509,0,0,1,0-1.018Zm-4.067,0a.509.509,0,0,1,0,1.018H187.3a.509.509,0,1,1,0-1.018Zm-4.072,0a.509.509,0,0,1,0,1.018h-1.019a.509.509,0,0,1,0-1.018Zm-4.068,0a.509.509,0,1,1,0,1.018H179.16a.509.509,0,0,1,0-1.018Zm-4.066,0a.509.509,0,0,1,0,1.018h-1.018a.509.509,0,0,1,0-1.018Zm-4.073,0a.509.509,0,0,1,0,1.018h-1.013a.509.509,0,1,1,0-1.018Zm-4.067,0a.509.509,0,1,1,0,1.018h-1.019a.509.509,0,0,1,0-1.018Zm-4.067,0a.509.509,0,1,1,0,1.018h-1.018a.509.509,0,1,1,0-1.018Zm-4.067,0a.509.509,0,0,1,0,1.018H158.82a.509.509,0,1,1,0-1.018Zm-4.072,0a.509.509,0,1,1,0,1.018h-1.018a.509.509,0,0,1,0-1.018Zm-4.067,0a.509.509,0,1,1,0,1.018h-1.018a.509.509,0,1,1,0-1.018Zm-4.067,0a.509.509,0,0,1,0,1.018h-1.018a.509.509,0,0,1,0-1.018Zm-3.2-.21a.509.509,0,0,1-1.018,0v-1.018a.509.509,0,0,1,1.018,0Zm0-4.067a.509.509,0,0,1-1.018,0v-1.018a.509.509,0,0,1,1.018,0Z" transform="translate(-132.659 -638.177)" fill="#fefefe"/>
          <path id="Path_921907" data-name="Path 921907" d="M546.963,159.47h.692v-4.322h-.692Zm-12.217,8.189-.26.642-3.06-1.245.26-.642Zm7.636-7.288-.642.266-1.262-3.049.636-.266Zm-8.471,9.855-.133.68-2.119-.4.127-.68Zm2.158-4.925-.382.575-1.8-1.189.382-.575Zm3.857-3.691-.575.388-1.212-1.787.576-.388Zm5-1.942-.68.138-.432-2.114.68-.138Zm-11.127-.277-.487.5.448.443.487-.5Zm3.984,3.912-.487.5-3.082-3.027.487-.5Zm22.094,4.355.26.642,3.059-1.245-.265-.642Zm-7.636-7.288.642.266,1.262-3.049-.642-.266Zm8.471,9.855.133.68,2.119-.4-.127-.68ZM558.55,165.3l.382.575,1.8-1.189-.382-.575Zm-3.857-3.691.575.388,1.212-1.787-.576-.388Zm-5-1.942.68.138.432-2.114-.68-.138Zm11.127-.277.487.5-.453.443-.481-.5Zm-13.861-5.506h.692v.631h-.692Zm9.877,9.418.487.5,3.082-3.027-.487-.5Z" transform="translate(-491.587 -142.351)" fill="#f6ae5c" fill-rule="evenodd"/>
        </g>
      </g>
    </g>
  </g>
</svg>
