<svg xmlns="http://www.w3.org/2000/svg" xmlns:xlink="http://www.w3.org/1999/xlink" width="56" height="56" viewBox="0 0 56 56">
  <defs>
    <clipPath id="clip-path">
      <rect id="Rectangle_408741" data-name="Rectangle 408741" width="35.414" height="35.446" fill="#050c68"/>
    </clipPath>
  </defs>
  <g id="Group_1118638" data-name="Group 1118638" transform="translate(0.361 0.383)">
    <circle id="Ellipse_5614" data-name="Ellipse 5614" cx="28" cy="28" r="28" transform="translate(-0.361 -0.382)" fill="#fff"/>
    <g id="Group_1118717" data-name="Group 1118717" transform="translate(9.639 8.617)">
      <g id="Group_1118716" data-name="Group 1118716" transform="translate(1 3)" clip-path="url(#clip-path)">
        <path id="Path_921249" data-name="Path 921249" d="M18.347,0a8.351,8.351,0,0,1,4.936,2.312,6.6,6.6,0,0,1,7.6,5.511,5.6,5.6,0,0,1,3.932,7.987,5.988,5.988,0,0,1-3.886,2.918,6.874,6.874,0,0,1-6.541,5.645c-.359.008-.754-.212-1.2-.08-.1.031-.825.716-1.055.874a8,8,0,0,1-7.872.6,9.322,9.322,0,0,0-1.2-.681A3.829,3.829,0,1,1,7.073,23a6.3,6.3,0,0,1-2.553-4.3A5.536,5.536,0,0,1,4.49,7.823a6.632,6.632,0,0,1,7.6-5.512A8.527,8.527,0,0,1,17.027,0Zm.069,5.821c-.78-.484-1.206-.236-1.736.382-.739.862-1.332,2.012-2.1,2.878-.776.451-3.633.94-4.1,1.482a1.222,1.222,0,0,0-.254.851c.092.777,2,2.673,2.39,3.507.337,1.087-.707,5.172,1.185,4.964,1.107-.122,2.831-1.184,3.891-1.2.975-.019,2.885,1.11,3.965,1.219a1.156,1.156,0,0,0,.989-.724c.328-1.065-.122-3.013.089-4.176.154-.673,1.93-2.4,2.29-3.193a1.174,1.174,0,0,0-.12-1.253c-.531-.58-3.3-.991-4.113-1.472Z" transform="translate(0)" fill="#050c68"/>
        <path id="Path_921250" data-name="Path 921250" d="M2.635,284.746c4.891-.769,5.214,6.677.488,6.476-3.966-.169-4.03-5.919-.488-6.476" transform="translate(-0.053 -255.781)" fill="#050c68"/>
        <path id="Path_921251" data-name="Path 921251" d="M129.472,89.16c-.089-.531-1.93-2.659-1.828-2.791,1.1-.423,2.438-.465,3.246-1.375.525-.591.908-1.4,1.475-1.975a22.542,22.542,0,0,1,1.475,1.976c.79.909,2.167.926,3.247,1.374.089.116-1.463,2-1.608,2.3a4.6,4.6,0,0,0-.219.593v2.691c-.878-.144-2.036-.821-2.894-.821-.882,0-1.983.72-2.894.821-.1-.847.135-1.985,0-2.793" transform="translate(-114.679 -74.588)" fill="#050c68"/>
      </g>
    </g>
  </g>
</svg>
