<svg xmlns="http://www.w3.org/2000/svg" xmlns:xlink="http://www.w3.org/1999/xlink" width="56" height="56" viewBox="0 0 56 56">
  <defs>
    <clipPath id="clip-path">
      <rect id="Rectangle_408736" data-name="Rectangle 408736" width="32.934" height="33.638" fill="#050c68"/>
    </clipPath>
  </defs>
  <g id="Group_1118640" data-name="Group 1118640" transform="translate(-3.639 0.383)">
    <circle id="Ellipse_5614" data-name="Ellipse 5614" cx="28" cy="28" r="28" transform="translate(3.639 -0.382)" fill="#fff"/>
    <g id="Group_1118711" data-name="Group 1118711" transform="translate(15.639 10.617)">
      <g id="Group_1118710" data-name="Group 1118710" clip-path="url(#clip-path)">
        <path id="Path_921224" data-name="Path 921224" d="M60.853,149.335c-.9,1-2.365,1.552-2.5,3.067.536,1.994.735,4.331,1.319,6.284.2.674.639.581,1.174.421,2.9-.871,3.335-3.235,3.413-5.961a2.2,2.2,0,0,1,.529.023c2.445.563,7.422,7.456,9.753,9.1a1.263,1.263,0,0,1-1.751,1.751L66.972,158.3c-.29-.089-.711.321-.684.6l5.594,5.732a1.281,1.281,0,0,1-1.7,1.9l-5.865-5.867a.626.626,0,0,0-.765.072l-.042.633,4.359,4.366a1.285,1.285,0,0,1-1.539,2.04l-5.075-4.96a.562.562,0,0,0-.655.76c.2.433,1.827,1.7,2.255,2.261.934,1.226.011,2.447-1.407,2.109L53.958,160.5l2.182-11.169Z" transform="translate(-48.547 -134.361)" fill="#050c68"/>
        <path id="Path_921225" data-name="Path 921225" d="M124.613,144.982l-.343-.081c-1.261-1.244-2.412-2.606-3.652-3.868-1.338-1.363-4.615-4.929-6.394-5.237-2.063-.357-1.641,1.475-1.859,2.806a3.393,3.393,0,0,1-2.377,3.084l-1.2-5.477c0-.462.481-.9.794-1.191,1-.941,2.559-2.227,3.664-3.054,2.234-1.673,2.931-.014,4.793,1.017a7.457,7.457,0,0,0,5.285.926l2.006,9.943c.061.523-.585.662-.719,1.132" transform="translate(-97.881 -118.089)" fill="#050c68"/>
        <path id="Path_921226" data-name="Path 921226" d="M2.854,132.343c.727-.139,2.453.579,3.282.587a.594.594,0,0,1,.463.548L4.257,145.386l-.531.58c-.923-.314-2.433-.292-3.278-.63A.851.851,0,0,1,0,144.8l2.474-12.227a.782.782,0,0,1,.381-.229" transform="translate(0 -119.057)" fill="#050c68"/>
        <path id="Path_921227" data-name="Path 921227" d="M266.028,132.55c.589-.03.718.11.874.673L269.226,145a.769.769,0,0,1-.217.369c-.476.445-2.7.5-3.42.8-.319,0-.533-.3-.621-.583l-2.342-11.908a.583.583,0,0,1,.387-.524,21.9,21.9,0,0,1,3.014-.6" transform="translate(-236.293 -119.255)" fill="#050c68"/>
        <path id="Path_921228" data-name="Path 921228" d="M113.184,67.206c2.921-.367,6.166,1.64,6.429,4.75.055.646.033.785-.634.845-3.128.28-6.664-.223-9.836,0-1.01.033-.632-1.036-.448-1.661a5.747,5.747,0,0,1,4.489-3.934" transform="translate(-97.594 -60.428)" fill="#050c68"/>
        <path id="Path_921229" data-name="Path 921229" d="M44.224,64.616H38.108a2.39,2.39,0,0,1,.129-1.425,4.9,4.9,0,0,1,7.991-2.134,6.361,6.361,0,0,0-2,3.56" transform="translate(-34.225 -53.753)" fill="#050c68"/>
        <path id="Path_921230" data-name="Path 921230" d="M216.862,64.6h-6.117a6.4,6.4,0,0,0-2-3.56,4.857,4.857,0,0,1,7.019.4,4.174,4.174,0,0,1,1.1,3.161" transform="translate(-187.811 -53.742)" fill="#050c68"/>
        <path id="Path_921231" data-name="Path 921231" d="M136.727.083c4.521-.7,4.914,5.59.968,5.981-3.856.382-4.478-5.435-.968-5.981" transform="translate(-120.939 -0.026)" fill="#050c68"/>
        <path id="Path_921232" data-name="Path 921232" d="M62.728.058c4.19-.707,4.322,5.34.594,5.252C60.062,5.233,59.948.526,62.728.058" transform="translate(-54.66 0)" fill="#050c68"/>
        <path id="Path_921233" data-name="Path 921233" d="M217.313.067c4.094-.695,4.306,5.264.595,5.251-3.246-.011-3.5-4.758-.595-5.251" transform="translate(-193.703 -0.01)" fill="#050c68"/>
      </g>
    </g>
  </g>
</svg>
