<svg xmlns="http://www.w3.org/2000/svg" xmlns:xlink="http://www.w3.org/1999/xlink" width="178" height="178" viewBox="0 0 178 178">
  <defs>
    <clipPath id="clip-path">
      <rect id="Rectangle_408526" data-name="Rectangle 408526" width="98.788" height="89.114" fill="none"/>
    </clipPath>
  </defs>
  <g id="Group_1118159" data-name="Group 1118159" transform="translate(-712.785 -2480.084)">
    <g id="Group_1116833" data-name="Group 1116833" transform="translate(712.785 2480.085)">
      <path id="Path_882862" data-name="Path 882862" d="M89,0A89.047,89.047,0,1,1,0,89,89,89,0,0,1,89,0Z" transform="translate(0 -0.001)" fill="#f6ae5c"/>
      <path id="Path_882863" data-name="Path 882863" d="M78.668,0A78.668,78.668,0,1,1,0,78.668,78.668,78.668,0,0,1,78.668,0Z" transform="translate(10.332 10.331)" fill="#f3f9ff"/>
    </g>
    <g id="Group_1116834" data-name="Group 1116834" transform="translate(751.785 2519.085)">
      <rect id="Rectangle_401104" data-name="Rectangle 401104" width="99.117" height="100.574" transform="translate(-0.074 -0.085)" fill="none"/>
      <g id="Group_1118234" data-name="Group 1118234" transform="translate(0.255 5.645)">
        <path id="Path_919800" data-name="Path 919800" d="M32.228,65.438,12.458,44.357,34.949,62.506Z" transform="translate(0 0)" fill="#ffc811"/>
        <path id="Path_919801" data-name="Path 919801" d="M22.649,32.771,47.956,11.154,24.7,34.962Z" transform="translate(0 0)" fill="#ffc811"/>
        <path id="Path_919802" data-name="Path 919802" d="M57.816,70.772l19.77-21.081L55.094,67.84Z" transform="translate(0 0)" fill="#ffc811"/>
        <path id="Path_919803" data-name="Path 919803" d="M76.284,32.771,50.977,11.154,74.235,34.962Z" transform="translate(0 0)" fill="#ffc811"/>
        <g id="Group_1118233" data-name="Group 1118233">
          <g id="Group_1118232" data-name="Group 1118232" clip-path="url(#clip-path)">
            <path id="Path_919804" data-name="Path 919804" d="M58.634,11.872A11.873,11.873,0,1,1,46.761,0,11.872,11.872,0,0,1,58.634,11.872" transform="translate(0 0)" fill="#1e2ad5"/>
            <rect id="Rectangle_408519" data-name="Rectangle 408519" width="2.699" height="3.873" transform="translate(45.424 11.539)" fill="#d6a79b"/>
            <path id="Path_919805" data-name="Path 919805" d="M48.123,13.676l-1.136,1.4a.255.255,0,0,1-.382,0L45.424,13.69c-.059-.065-4.626.815-4.727,1.806a7.35,7.35,0,0,0-1.057,4.261l14.281,0a7.853,7.853,0,0,0-1.08-4.342c-.3-.957-4.484-1.729-4.484-1.729-.086-.014-.177-.073-.234-.007" transform="translate(0 0)" fill="#6ccf0e"/>
            <path id="Path_919806" data-name="Path 919806" d="M42.968,7.269c-.582,1.1.72,4.922,1.622,4.922h4.336c.9,0,2.456-4.09,1.658-4.9A20.747,20.747,0,0,0,47.1,5.77s-3.38.849-4.129,1.5" transform="translate(0 0)" fill="#582a1a"/>
            <path id="Path_919807" data-name="Path 919807" d="M43.438,9.487a1.013,1.013,0,0,1-1.146-.85A1.012,1.012,0,0,1,43.006,7.4c.513-.107.946,1.978.432,2.085" transform="translate(0 0)" fill="#ffc7b8"/>
            <path id="Path_919808" data-name="Path 919808" d="M50.048,9.487a1.013,1.013,0,0,0,1.146-.85A1.011,1.011,0,0,0,50.48,7.4c-.513-.107-.946,1.978-.432,2.085" transform="translate(0 0)" fill="#ffc7b8"/>
            <path id="Path_919809" data-name="Path 919809" d="M46.769,13.3c4.257,0,3.576-7.3,3.576-7.3S50.169,3.6,46.861,3.6a3.644,3.644,0,0,0-3.6,2.453s-.783,7.244,3.5,7.244" transform="translate(0 0)" fill="#ffc7b8"/>
            <rect id="Rectangle_408520" data-name="Rectangle 408520" width="3.938" height="0.358" transform="translate(48.504 17.117) rotate(-0.161)" fill="#4c910a"/>
            <path id="Path_919810" data-name="Path 919810" d="M42.8,7.47c.348-.078.721.586.721.586l.143-2.533s.143-1.247,1.5-.8c.507,1.045,2.858.994,3.294-.01,1.13-.448,1.352.8,1.352.8s.3,2.769.291,2.663c.182-.713.689-.64.689-.64s1.085-5.082-4-5.082S42.8,7.326,42.8,7.47" transform="translate(0 0)" fill="#582a1a"/>
            <path id="Path_919811" data-name="Path 919811" d="M62.338,73.023A16.091,16.091,0,1,1,46.247,56.932,16.091,16.091,0,0,1,62.338,73.023" transform="translate(0 0)" fill="#afbefc"/>
            <rect id="Rectangle_408521" data-name="Rectangle 408521" width="3.823" height="5.486" transform="translate(44.002 72.783)" fill="#543428"/>
            <path id="Path_919812" data-name="Path 919812" d="M53.684,84.425s-.379-7.114-1.415-7.377c-.287-.2-4.024-1.195-4.154-1.218h0c-.122-.021-.231-.093-.315,0l-1.673,1.96a.283.283,0,0,1-.448,0L44,75.83c-.083-.093-.193-.021-.315,0h0c-.13.023-3.866,1.017-4.153,1.218-1.042.289-1.416,7.377-1.416,7.377l7.785,0Z" transform="translate(0 0)" fill="#e03434"/>
            <path id="Path_919813" data-name="Path 919813" d="M41.188,69.876a1.518,1.518,0,0,1-.612-2.954c.727-.151,1.341,2.8.612,2.954" transform="translate(0 0)" fill="#7d4d3b"/>
            <path id="Path_919814" data-name="Path 919814" d="M50.553,69.876a1.518,1.518,0,0,0,.612-2.954c-.727-.151-1.34,2.8-.612,2.954" transform="translate(0 0)" fill="#7d4d3b"/>
            <path id="Path_919815" data-name="Path 919815" d="M45.907,75.277c7.189-2.985,5.066-10.345,5.066-10.345s-.249-3.391-4.936-3.391a5.164,5.164,0,0,0-5.093,3.474s-1.936,7.556,4.963,10.262" transform="translate(0 0)" fill="#7d4d3b"/>
            <path id="Path_919816" data-name="Path 919816" d="M40.292,67.019c.493-.11,1.021.83,1.021.83l.2-3.587a8.48,8.48,0,0,0,8.015,2.654c-.991-2.305.7-2.666.7-2.666s.429,3.924.412,3.773c.258-1.009.976-.907.976-.907s1.537-7.2-5.666-7.2-5.668,6.9-5.656,7.1" transform="translate(0 0)" fill="#303030"/>
            <path id="Path_919817" data-name="Path 919817" d="M44.979,77.048h1.9c.116,0,.174.684.092.766l-.948.722a.132.132,0,0,1-.19-.006l-.954-.722c-.074-.084-.014-.76.1-.76" transform="translate(0 0)" fill="#292929"/>
            <path id="Path_919818" data-name="Path 919818" d="M44.674,84.425h2.549l-1.2-5.813a.13.13,0,0,0-.189.006Z" transform="translate(0 0)" fill="#292929"/>
            <path id="Path_919819" data-name="Path 919819" d="M46.036,77.131l1.525,1.176a.1.1,0,0,0,.157-.051l.669-2.3a.1.1,0,0,0-.013-.084L47.9,75.16a.1.1,0,0,0-.155-.012l-1.715,1.835a.1.1,0,0,0,.011.148" transform="translate(0 0)" fill="#e03434"/>
            <path id="Path_919820" data-name="Path 919820" d="M45.832,77.131l-1.525,1.176a.1.1,0,0,1-.157-.051l-.668-2.3a.1.1,0,0,1,.013-.084l.478-.709a.1.1,0,0,1,.156-.012l1.715,1.835a.1.1,0,0,1-.012.148" transform="translate(0 0)" fill="#e03434"/>
            <path id="Path_919821" data-name="Path 919821" d="M45.871,73.219a1.705,1.705,0,0,0,1.443-.682c0-.134-.822-.538-1.019-.538s-.341.217-.424.217S45.643,72,45.447,72s-1.019.4-1.019.538a1.705,1.705,0,0,0,1.443.682" transform="translate(0 0)" fill="#e03434"/>
            <path id="Path_919822" data-name="Path 919822" d="M27.732,43.766A13.866,13.866,0,1,1,13.866,29.9,13.866,13.866,0,0,1,27.732,43.766" transform="translate(0 0)" fill="#ffe9a2"/>
            <rect id="Rectangle_408522" data-name="Rectangle 408522" width="9.772" height="10.328" transform="translate(8.989 40.38)" fill="#663f30"/>
            <rect id="Rectangle_408523" data-name="Rectangle 408523" width="3.391" height="4.866" transform="translate(12.075 43.808)" fill="#d6a79b"/>
            <path id="Path_919823" data-name="Path 919823" d="M20.662,53.077s-.335-5.252-1.255-5.486c-.254-.177-3.569-1.059-3.684-1.079h0c-.109-.019-.179-.081-.252,0a1.7,1.7,0,0,1-1.71,1.842,1.669,1.669,0,0,1-1.683-1.842c-.074-.081-.171-.019-.28,0h0c-.115.02-3.429.9-3.684,1.079-.919.234-1.255,5.486-1.255,5.486Z" transform="translate(0 0)" fill="#1ac"/>
            <path id="Path_919824" data-name="Path 919824" d="M9.579,41.23a1.347,1.347,0,0,1-.543-2.62c.645-.134,1.189,2.485.543,2.62" transform="translate(0 0)" fill="#ffc7b8"/>
            <path id="Path_919825" data-name="Path 919825" d="M17.886,41.23a1.347,1.347,0,0,0,.543-2.62c-.645-.134-1.189,2.485-.543,2.62" transform="translate(0 0)" fill="#ffc7b8"/>
            <path id="Path_919826" data-name="Path 919826" d="M13.765,46.02c6.376-2.647,4.493-9.176,4.493-9.176s-.22-3.007-4.378-3.007a4.578,4.578,0,0,0-4.516,3.081s-1.718,6.7,4.4,9.1" transform="translate(0 0)" fill="#ffc7b8"/>
            <path id="Path_919827" data-name="Path 919827" d="M8.785,38.7c.437-.1.906.737.906.737l.179-3.182s-.753,2.561,3.981,1.806c-.88-2.045,3.745-1.816,3.745-1.816s.38,3.48.365,3.346c.229-.9.866-.8.866-.8S20.19,32.4,13.8,32.4s-5.027,6.118-5.016,6.3" transform="translate(0 0)" fill="#663f30"/>
            <path id="Path_919828" data-name="Path 919828" d="M13.733,44.195a1.511,1.511,0,0,0,1.28-.6c0-.119-.729-.477-.9-.477s-.3.193-.376.193-.2-.193-.376-.193-.9.358-.9.477a1.513,1.513,0,0,0,1.28.6" transform="translate(0 0)" fill="#e03434"/>
            <path id="Path_919829" data-name="Path 919829" d="M94.292,48.624A13.866,13.866,0,1,1,80.426,34.758,13.866,13.866,0,0,1,94.292,48.624" transform="translate(0 0)" fill="#f8d2a8"/>
            <rect id="Rectangle_408524" data-name="Rectangle 408524" width="9.772" height="10.328" transform="translate(75.549 45.239)" fill="#663f30"/>
            <rect id="Rectangle_408525" data-name="Rectangle 408525" width="3.391" height="4.866" transform="translate(78.635 48.667)" fill="#d6a79b"/>
            <path id="Path_919830" data-name="Path 919830" d="M87.222,57.936s-.335-5.253-1.255-5.486c-.255-.178-3.569-1.06-3.684-1.08h0c-.109-.019-.179-.081-.252,0a1.7,1.7,0,0,1-1.71,1.842,1.669,1.669,0,0,1-1.683-1.842c-.074-.081-.171-.019-.28,0h0c-.115.02-3.429.9-3.684,1.08-.919.233-1.255,5.486-1.255,5.486Z" transform="translate(0 0)" fill="#1ac"/>
            <path id="Path_919831" data-name="Path 919831" d="M76.14,46.089a1.347,1.347,0,0,1-.544-2.62c.646-.134,1.189,2.485.544,2.62" transform="translate(0 0)" fill="#ffc7b8"/>
            <path id="Path_919832" data-name="Path 919832" d="M84.446,46.089a1.347,1.347,0,0,0,.543-2.62c-.645-.134-1.189,2.485-.543,2.62" transform="translate(0 0)" fill="#ffc7b8"/>
            <path id="Path_919833" data-name="Path 919833" d="M80.325,50.879C86.7,48.232,84.818,41.7,84.818,41.7S84.6,38.7,80.44,38.7a4.578,4.578,0,0,0-4.516,3.081s-1.718,6.7,4.4,9.1" transform="translate(0 0)" fill="#ffc7b8"/>
            <path id="Path_919834" data-name="Path 919834" d="M75.345,43.555c.437-.1.906.737.906.737l.179-3.182s-.753,2.561,3.981,1.806c-.88-2.045,3.745-1.817,3.745-1.817s.38,3.481.365,3.347c.229-.9.866-.8.866-.8s1.363-6.386-5.026-6.386-5.027,6.119-5.016,6.3" transform="translate(0 0)" fill="#663f30"/>
            <path id="Path_919835" data-name="Path 919835" d="M80.293,49.054a1.511,1.511,0,0,0,1.28-.6c0-.119-.729-.477-.9-.477s-.3.193-.376.193-.2-.193-.376-.193-.9.358-.9.477a1.513,1.513,0,0,0,1.28.6" transform="translate(0 0)" fill="#e03434"/>
            <path id="Path_919836" data-name="Path 919836" d="M84.309,13.422c-8,0-14.479,4.606-14.479,10.288,0,2.99,1.8,5.68,4.663,7.56l-1.972,3.314A.822.822,0,0,0,73.664,35.7l4.35-2.725A19.425,19.425,0,0,0,84.309,34c8,0,14.479-4.605,14.479-10.287S92.306,13.422,84.309,13.422" transform="translate(0 0)" fill="#685700"/>
            <path id="Path_919837" data-name="Path 919837" d="M78.913,23.839a1.626,1.626,0,1,1-1.626-1.626,1.625,1.625,0,0,1,1.626,1.626" transform="translate(0 0)" fill="#fff"/>
            <path id="Path_919838" data-name="Path 919838" d="M85.772,23.839a1.625,1.625,0,1,1-1.625-1.626,1.625,1.625,0,0,1,1.625,1.626" transform="translate(0 0)" fill="#fff"/>
            <path id="Path_919839" data-name="Path 919839" d="M92.63,23.839A1.625,1.625,0,1,1,91,22.213a1.625,1.625,0,0,1,1.626,1.626" transform="translate(0 0)" fill="#fff"/>
            <path id="Path_919840" data-name="Path 919840" d="M11.693,14.533c5.817,0,10.533,3.351,10.533,7.484a6.728,6.728,0,0,1-3.392,5.5l1.446,2.43a.593.593,0,0,1-.825.805l-3.182-1.993a14.132,14.132,0,0,1-4.58.743C5.876,29.5,1.16,26.15,1.16,22.017s4.716-7.484,10.533-7.484" transform="translate(0 0)" fill="#050c68"/>
            <path id="Path_919841" data-name="Path 919841" d="M15.619,22.11A1.183,1.183,0,1,0,16.8,20.928a1.182,1.182,0,0,0-1.182,1.182" transform="translate(0 0)" fill="#fff"/>
            <path id="Path_919842" data-name="Path 919842" d="M10.629,22.11a1.183,1.183,0,1,0,1.183-1.182,1.183,1.183,0,0,0-1.183,1.182" transform="translate(0 0)" fill="#fff"/>
            <path id="Path_919843" data-name="Path 919843" d="M5.64,22.11a1.183,1.183,0,1,0,1.182-1.182A1.182,1.182,0,0,0,5.64,22.11" transform="translate(0 0)" fill="#fff"/>
          </g>
        </g>
      </g>
    </g>
  </g>
</svg>
