<svg id="Group_1117100" data-name="Group 1117100" xmlns="http://www.w3.org/2000/svg" xmlns:xlink="http://www.w3.org/1999/xlink" width="52.206" height="51.982" viewBox="0 0 52.206 51.982">
  <defs>
    <clipPath id="clip-path">
      <rect id="Rectangle_406743" data-name="Rectangle 406743" width="52.206" height="51.982" fill="#634419"/>
    </clipPath>
  </defs>
  <g id="Group_1115383" data-name="Group 1115383" clip-path="url(#clip-path)">
    <path id="Path_890936" data-name="Path 890936" d="M28.459,134.922c-.993-1.5-4.792-2.649-5.447-4.258a3.263,3.263,0,0,1,4.174-4.472c1.4.466,7.141,4.222,8.444,5.291,9.349,7.675,9.094,24.2-2.912,29.049-4.2,1.7-18.713,1.811-23.52,1.265-3.536-.4-3.684-4.426-.6-4.785,2.1-.244,9.551.649,10.639-.718.885-1.113-.3-1.848-1.369-1.963-4.2-.456-9.043.448-13.312-.131-2.37-1.356-1.608-4.338,1.057-4.654,2.208-.261,12.611.513,13.521-.365a1.346,1.346,0,0,0-.223-1.872l-17.044-.275c-2.426-.58-2.594-4.328.164-4.654,4.761-.563,10.8.638,15.507-.022,1.211-.17,2.786-1.113,1.595-2.289-.982-.97-12.2.014-14.347-.433-1.473-.94-2.29-2.319-1.114-3.9a7.074,7.074,0,0,1,1.052-.819Z" transform="translate(0.001 -110.108)" fill="#634419"/>
    <path id="Path_890937" data-name="Path 890937" d="M251.1,20.334V15.108a6.235,6.235,0,0,1,.6-1.194c1.767-2.6,5.608-1.294,5.978,1.784a57.375,57.375,0,0,1,.005,8.082,17.317,17.317,0,0,1-4.787,11.186,24.392,24.392,0,0,0-8.362-17.174c-.581-.538-2.264-1.446-2.543-1.949-.153-.277.071-.786-.17-1.282-1.643-3.386-4.062-6.472-5.7-9.856a4.911,4.911,0,0,1-.867-2.432,2.42,2.42,0,0,1,4.2-1.5Z" transform="translate(-205.616 0.001)" fill="#634419"/>
    <path id="Path_890938" data-name="Path 890938" d="M183.052,19.393c-1.443-.3-2.386-1.558-3.8-2.019-1.132-.369-2.79-.2-3.382-.8-.71-1.915-4.222-6.093-3.736-7.931A2.385,2.385,0,0,1,176.48,7.9Z" transform="translate(-150.411 -5.93)" fill="#634419"/>
    <path id="Path_890939" data-name="Path 890939" d="M103.042,115.845c-1.134-.148-3.078.415-3.9-.429-1.747-1.8-2.617-6.13.991-5.777,2.476.242,3.705,4.093,2.9,6.206" transform="translate(-85.335 -95.811)" fill="#634419"/>
    <path id="Path_890940" data-name="Path 890940" d="M137.8,58.259c2.392-.063,2.425,2.545,3.733,3.888l-3.727,3.13c-1.762-1.606-4.1-6.91-.006-7.018" transform="translate(-118.452 -50.92)" fill="#634419"/>
  </g>
</svg>
