<svg xmlns="http://www.w3.org/2000/svg" xmlns:xlink="http://www.w3.org/1999/xlink" width="178" height="178" viewBox="0 0 178 178">
  <defs>
    <clipPath id="clip-path">
      <rect id="Rectangle_408502" data-name="Rectangle 408502" width="99.117" height="96.301" transform="translate(0 -11)" fill="none"/>
    </clipPath>
  </defs>
  <g id="Group_1118158" data-name="Group 1118158" transform="translate(-360.785 -2480.084)">
    <g id="Group_1115325" data-name="Group 1115325" transform="translate(360.785 2480.085)">
      <path id="Path_882862" data-name="Path 882862" d="M89,0A89.047,89.047,0,1,1,0,89,89,89,0,0,1,89,0Z" transform="translate(0 -0.001)" fill="#f6ae5c"/>
      <path id="Path_882863" data-name="Path 882863" d="M78.668,0A78.668,78.668,0,1,1,0,78.668,78.668,78.668,0,0,1,78.668,0Z" transform="translate(10.332 10.331)" fill="#f3f9ff"/>
    </g>
    <g id="Group_1115326" data-name="Group 1115326" transform="translate(399.785 2519.085)">
      <rect id="Rectangle_401104" data-name="Rectangle 401104" width="99.117" height="100.574" transform="translate(-0.074)" fill="none"/>
      <g id="Group_1118201" data-name="Group 1118201" transform="translate(-0.074 12.587)">
        <g id="Group_1118200" data-name="Group 1118200" transform="translate(0 0)" clip-path="url(#clip-path)">
          <path id="Path_919726" data-name="Path 919726" d="M62.46,20.722c15.008,0,27.175,8.645,27.175,19.309,0,5.612-3.372,10.661-8.75,14.19l3.65,6.136a1.567,1.567,0,0,1-2.178,2.129l-8.081-5.062A36.447,36.447,0,0,1,62.46,59.34c-15.008,0-27.175-8.645-27.175-19.309S47.452,20.722,62.46,20.722" transform="translate(9.482 22.568)" fill="#ffc811"/>
          <path id="Path_919727" data-name="Path 919727" d="M64.687,36.777a3.051,3.051,0,1,0,3.051-3.051,3.052,3.052,0,0,0-3.051,3.051" transform="translate(17.383 26.063)" fill="#fff"/>
          <path id="Path_919728" data-name="Path 919728" d="M54.541,36.777a3.051,3.051,0,1,0,3.051-3.051,3.052,3.052,0,0,0-3.051,3.051" transform="translate(14.657 26.063)" fill="#fff"/>
          <path id="Path_919729" data-name="Path 919729" d="M44.4,36.777a3.051,3.051,0,1,0,3.051-3.051A3.052,3.052,0,0,0,44.4,36.777" transform="translate(11.93 26.063)" fill="#fff"/>
          <path id="Path_919730" data-name="Path 919730" d="M40.167,0C17.983,0,0,12.778,0,28.54,0,36.834,4.983,44.3,12.933,49.512L6.542,60.258a1.844,1.844,0,0,0,2.565,2.5l13.6-8.515a53.89,53.89,0,0,0,17.465,2.832c22.183,0,40.167-12.778,40.167-28.539S62.35,0,40.167,0" transform="translate(0 -9.496)" fill="#1e2ad5"/>
          <path id="Path_919731" data-name="Path 919731" d="M19.851,20.836a4.509,4.509,0,1,1-4.509-4.509,4.509,4.509,0,0,1,4.509,4.509" transform="translate(5.347 -1.436)" fill="#fff"/>
          <path id="Path_919732" data-name="Path 919732" d="M32.589,20.836a4.509,4.509,0,1,1-4.509-4.509,4.509,4.509,0,0,1,4.509,4.509" transform="translate(11.635 -1.436)" fill="#fff"/>
          <path id="Path_919733" data-name="Path 919733" d="M45.328,20.836a4.51,4.51,0,1,1-4.511-4.509,4.51,4.51,0,0,1,4.511,4.509" transform="translate(17.923 -1.436)" fill="#fff"/>
        </g>
      </g>
    </g>
  </g>
</svg>
