<svg xmlns="http://www.w3.org/2000/svg" xmlns:xlink="http://www.w3.org/1999/xlink" width="178" height="178" viewBox="0 0 178 178">
  <defs>
    <clipPath id="clip-path">
      <rect id="Rectangle_408518" data-name="Rectangle 408518" width="93" height="93" transform="translate(-0.289 -0.289)" fill="none"/>
    </clipPath>
  </defs>
  <g id="Group_1118160" data-name="Group 1118160" transform="translate(-1064.785 -2480.084)">
    <g id="Group_1116836" data-name="Group 1116836" transform="translate(1064.785 2480.085)">
      <path id="Path_882862" data-name="Path 882862" d="M89,0A89.047,89.047,0,1,1,0,89,89,89,0,0,1,89,0Z" transform="translate(0 -0.001)" fill="#f6ae5c"/>
      <path id="Path_882863" data-name="Path 882863" d="M78.668,0A78.668,78.668,0,1,1,0,78.668,78.668,78.668,0,0,1,78.668,0Z" transform="translate(10.332 10.331)" fill="#f3f9ff"/>
    </g>
    <g id="Group_1116837" data-name="Group 1116837" transform="translate(1103.785 2519.085)">
      <rect id="Rectangle_401104" data-name="Rectangle 401104" width="99.117" height="100.574" transform="translate(-0.074 -0.412)" fill="none"/>
      <g id="Group_1118231" data-name="Group 1118231" transform="translate(3.215 3.877)">
        <g id="Group_1118230" data-name="Group 1118230" clip-path="url(#clip-path)">
          <path id="Path_919787" data-name="Path 919787" d="M7.215,202.384a1.561,1.561,0,0,0,.927-.257,50.031,50.031,0,0,0,5.18-4.383c3.893-3.487,6.011-4.68,6.376-10.342.317-4.913-.31-10.131.05-15.077,1.624-2.72,4.494-6.354,8.165-4.967.292.4-5.892,4.3-2.481,6.065.982.509,1.507.11,2.348-.5,1.653-1.192,7.07-7.722,8.233-7.953,1.973-.391,3.657.934,3.256,2.98-.263,1.344-2,1.887-1.021,3.533,1.756,2.947,4.251-1.8,5.787-2.21a2.556,2.556,0,0,1,3.242,2.968c-.276,1.863-3.71,2.716-2.348,5.034,1.581,2.69,4.069-2.237,6.483.415,2.89,3.177-4.073,5.455-2.928,7.966s3.181.084,4.368-.156a2.567,2.567,0,0,1,2.726,3.546c-.253.615-6.042,6.313-6.96,7.1-6.637,5.718-16.6,5.618-21.636,11.006a36.76,36.76,0,0,0-3.056,3.854,1.56,1.56,0,0,0-.257.927H7.214Z" transform="translate(-5.3 -121.143)" fill="#fdaf91"/>
          <path id="Path_919788" data-name="Path 919788" d="M209.251,7.131h9.555V23.85a1.911,1.911,0,0,0-1.592,2.919c-.516.306-2.475,2.6-2.654,2.654-.605.193-1.627-1.026-2.879.7-1.891,2.613-3.052,9.026-4.589,12.395-.457,1-3.451,6.282-4.338,6.277a6.439,6.439,0,0,0-5.7-3.725c-.032-3.339-2.9-6.44-6.378-6.1a12.382,12.382,0,0,0-.391-3.987c-.33-1.2-1.05-2.061-1.464-3.178,1.9-.077,6.645-2.244,5.275-4.615-1.36-2.354-3.969.9-6.234,1.134-1.656.167-3.76-.911-4.874-.095-2.423,1.775,1.426,4.035,2.492,5.455,1.9,2.524,2.151,5.483.014,7.938-.331.08-.459-.241-.659-.394-1.362-1.043-9.363-9.141-9.864-10.3-.639-1.485-1.029-5.168-.494-6.7a13.308,13.308,0,0,1,4.167-4.325c3.29-1.5,12.973-.154,17.206-.574,4.742-.47,9.627-6.527,12.335-10.222.491-.671,1.057-1.127,1.069-1.983" transform="translate(-127.987 -5.238)" fill="#fcd8d3"/>
          <path id="Path_919789" data-name="Path 919789" d="M191.642,1.972c-.012.856-.577,1.312-1.069,1.983-2.708,3.7-7.593,9.752-12.335,10.222-4.233.42-13.916-.922-17.206.574a13.308,13.308,0,0,0-4.167,4.325c-.536,1.529-.145,5.211.494,6.7.5,1.164,8.5,9.261,9.864,10.3.2.153.328.474.659.394,2.138-2.456,1.882-5.414-.014-7.938-1.066-1.42-4.915-3.68-2.492-5.455,1.113-.816,3.218.262,4.874.095,2.265-.229,4.874-3.487,6.234-1.134,1.37,2.371-3.374,4.538-5.275,4.615.413,1.117,1.134,1.982,1.464,3.178a12.389,12.389,0,0,1,.391,3.987c3.479-.344,6.345,2.756,6.378,6.1a6.44,6.44,0,0,1,5.7,3.725c.888,0,3.881-5.276,4.338-6.277,1.538-3.369,2.7-9.782,4.589-12.395,1.252-1.73,2.274-.51,2.879-.7,1.182,1.548.112,2.41-.341,3.772-3.48,10.445-5.635,16.734-14.38,24.1-4.007,3.375-8.716,2.937-10.758-2.13a6.282,6.282,0,0,1-8.269-2.739c-.184-.338-.423-1.408-.521-1.471-.242-.157-2.029.01-2.687-.1a6.6,6.6,0,0,1-4.843-4.445c-.172-.756-.047-3.295-.161-3.424-.045-.052-.939-.218-1.309-.414a6.127,6.127,0,0,1-2.226-9.152c.422-.6,1.439-1.237,1.721-1.727.633-1.1-.468-5.043-.249-6.886.41-3.453,5.38-8.544,8.859-8.921,4.812-.521,14.739,1.144,18.585-1.052,3.07-1.753,5.649-6.977,8.518-9.26a1.728,1.728,0,0,1,2.753,1.557M155.206,29.6c-2.006.518-1.822,5.7,2.211,4.622.5-.133,1.8-.812,1.465-1.465-.1-.184-2.671-2.768-2.921-2.936-.269-.18-.384-.316-.754-.221m6.352,6.094c-1.469,1.387-4.177,3.348-2.409,5.539,1.9,2.359,4.676-.366,5.936-2.012a14.769,14.769,0,0,0-3.527-3.527m11.177,1.623c-1.3.25-6.4,5.391-6.562,6.742-.283,2.337,2.184,3.672,4.227,2.351a43.84,43.84,0,0,0,5.174-5.439c.676-1.97-.714-4.061-2.838-3.654m5.826,6.376a11.577,11.577,0,0,0-3.518,3.378c-.817,2.609,1.34,4.379,3.695,3.166A16.115,16.115,0,0,0,181.7,47.1c.732-2.337-.753-3.958-3.143-3.408" transform="translate(-110.378 -0.078)" fill="#d9ada7"/>
          <path id="Path_919790" data-name="Path 919790" d="M2.055,192.07A1.728,1.728,0,0,1,.5,189.316c2.453-2.721,5.826-4.85,8.347-7.449a5.643,5.643,0,0,0,1.978-4.515c.35-4.83-.711-11.342.053-15.87.568-3.366,5.723-8.031,9.12-8.393,1.922-.2,4.808.887,6.288.445.432-.129,1.261-1.214,1.846-1.6a6.29,6.29,0,0,1,8.646,1.569c.275.4.779,1.867.864,1.929.112.082,2.065-.313,2.764-.249a6.453,6.453,0,0,1,5.416,5.2,25.406,25.406,0,0,0,.058,2.728c.062.094.946.265,1.266.459,3.363,2.043,4.059,4.512,2.964,8.308,4.521,1.7,5.529,6.365,2.505,10.113a41.72,41.72,0,0,1-15.88,11.985c-2.873,1.134-7.979,2.137-10.352,3.713-1.566,1.041-4.459,5.457-5.409,5.744a1.8,1.8,0,0,1-2.464-1.807,1.56,1.56,0,0,1,.257-.927,36.762,36.762,0,0,1,3.056-3.854c5.033-5.388,15-5.288,21.636-11.006.918-.791,6.706-6.489,6.96-7.1a2.567,2.567,0,0,0-2.726-3.546c-1.187.24-3.228,2.653-4.368.156s5.818-4.789,2.928-7.966c-2.414-2.653-4.9,2.274-6.483-.415-1.362-2.318,2.072-3.17,2.348-5.034a2.556,2.556,0,0,0-3.242-2.968c-1.536.408-4.031,5.157-5.787,2.21-.981-1.646.758-2.189,1.021-3.533.4-2.046-1.283-3.371-3.256-2.98-1.163.23-6.579,6.761-8.233,7.953-.841.606-1.366,1.005-2.348.5-3.411-1.767,2.773-5.666,2.481-6.065-3.671-1.387-6.542,2.247-8.165,4.967-.36,4.946.267,10.163-.05,15.077-.365,5.662-2.484,6.855-6.376,10.342a50.033,50.033,0,0,1-5.18,4.383,1.561,1.561,0,0,1-.927.257" transform="translate(-0.14 -110.829)" fill="#ef8157"/>
          <path id="Path_919791" data-name="Path 919791" d="M257.348,256.851c-.431-.446-.76-1.135-1.191-1.6-3.177-3.4-8.332-8.08-10.894-11.662a2.411,2.411,0,0,1-.606-1.68c.187-1.185,4.6-4.553,5.529-5.891.156-.225.369-.262.261-.665L239.7,232.165l-.4.137c.766,1.179,3.583,3.015,3.452,4.486-.136,1.519-5.089,4.98-5.008,5.819l8.475,13.036a1.77,1.77,0,0,1,.246,1.208c.007,1.855-1.683,2.421-3.033,1.308l-9.823-15.122c-1.447-1.91,4.625-5.795,4.625-6.487l-7.758-7.9A1.9,1.9,0,0,1,232,226.043l22.428,6.791a1.967,1.967,0,0,1,1.187,2.783c-.722.942-6.568,6.213-6.476,6.735l12.576,13.714a1.868,1.868,0,0,1-2.506,2.506c-.115-.053-1.624-1.474-1.862-1.72" transform="translate(-169.185 -166.056)" fill="#f6ae5c"/>
          <path id="Path_919792" data-name="Path 919792" d="M1.915,4.547C1.669,4.309.248,2.8.2,2.685A1.865,1.865,0,0,1,2.7.183L16.415,12.755c.521.092,5.792-5.754,6.735-6.476a1.967,1.967,0,0,1,2.783,1.187L32.71,29.629a1.886,1.886,0,0,1-2.595,1.789l-7.9-7.758c-.692,0-4.577,6.072-6.487,4.625L.471,18.333c-1-1.431-.133-2.834,1.444-3.171l14.244,8.986c.839.081,4.3-4.872,5.819-5.008,1.471-.131,3.307,2.686,4.486,3.452l.137-.4L23.409,11.448c-.4-.108-.44.106-.665.261-1.338.925-4.705,5.343-5.891,5.529a2.411,2.411,0,0,1-1.68-.606C11.591,14.071,6.909,8.915,3.511,5.739c-.461-.431-1.15-.76-1.6-1.191" transform="translate(0 0)" fill="#1e2ad5"/>
          <path id="Path_919793" data-name="Path 919793" d="M7.219,17.135c.446.431,1.135.76,1.6,1.191,3.4,3.177,8.08,8.332,11.662,10.894a2.411,2.411,0,0,0,1.68.606c1.185-.187,4.553-4.6,5.891-5.529.225-.156.262-.369.665-.261L31.905,34.78l-.137.4c-1.179-.766-3.015-3.583-4.486-3.452-1.519.136-4.98,5.089-5.819,5.008L7.219,27.75Z" transform="translate(-5.303 -12.588)" fill="#afbefc"/>
          <path id="Path_919794" data-name="Path 919794" d="M267.077,273.8a1.77,1.77,0,0,0-.246-1.208l-8.475-13.036c-.081-.839,4.872-4.3,5.008-5.819.131-1.471-2.686-3.307-3.452-4.486l.4-.137,10.744,3.192c.108.4-.106.44-.261.665-.925,1.338-5.343,4.705-5.529,5.891a2.411,2.411,0,0,0,.606,1.68c2.562,3.582,7.717,8.264,10.894,11.662.431.461.76,1.15,1.191,1.6Z" transform="translate(-189.794 -183.003)" fill="#f8d2a8"/>
          <path id="Path_919795" data-name="Path 919795" d="M336.964,70.134a1.77,1.77,0,0,1,.654,3.449,3.246,3.246,0,0,1-2.246-.529,1.911,1.911,0,0,1,1.592-2.919" transform="translate(-246.147 -51.522)" fill="#d9ada7"/>
          <path id="Path_919796" data-name="Path 919796" d="M216.746,140.181c2.125-.407,3.515,1.684,2.839,3.654a43.856,43.856,0,0,1-5.174,5.439c-2.043,1.322-4.509-.014-4.227-2.351.163-1.352,5.258-6.493,6.562-6.742" transform="translate(-154.39 -102.943)" fill="#fcd8d3"/>
          <path id="Path_919797" data-name="Path 919797" d="M246.7,164.052c2.389-.55,3.875,1.071,3.143,3.408a16.116,16.116,0,0,1-2.966,3.136c-2.355,1.213-4.512-.558-3.695-3.166a11.577,11.577,0,0,1,3.518-3.378" transform="translate(-178.518 -120.437)" fill="#fcd8d3"/>
          <path id="Path_919798" data-name="Path 919798" d="M184.586,134.206a14.773,14.773,0,0,1,3.527,3.527c-1.259,1.646-4.032,4.37-5.936,2.012-1.768-2.191.94-4.152,2.409-5.539" transform="translate(-133.406 -98.59)" fill="#fcd8d3"/>
          <path id="Path_919799" data-name="Path 919799" d="M165.463,111.157c.37-.1.485.04.754.221.25.168,2.826,2.752,2.921,2.936.338.654-.965,1.332-1.464,1.465-4.033,1.073-4.216-4.1-2.211-4.622" transform="translate(-120.635 -81.635)" fill="#fcd8d3"/>
        </g>
      </g>
    </g>
  </g>
</svg>
