<svg xmlns="http://www.w3.org/2000/svg" xmlns:xlink="http://www.w3.org/1999/xlink" width="150" height="150" viewBox="0 0 150 150">
  <defs>
    <clipPath id="clip-path">
      <rect id="Rectangle_401492" data-name="Rectangle 401492" width="143.65" height="143.652" transform="translate(0 0)" fill="#fff" stroke="#707070" stroke-width="1"/>
    </clipPath>
    <clipPath id="clip-path-2">
      <rect id="Rectangle_406251" data-name="Rectangle 406251" width="149.664" height="149.664" fill="#1e2ad5"/>
    </clipPath>
    <clipPath id="clip-path-3">
      <rect id="Rectangle_401492-2" data-name="Rectangle 401492" width="142.285" height="142.286" transform="translate(0.273 -0.368)" fill="#fffceb" stroke="#707070" stroke-width="1"/>
    </clipPath>
    <clipPath id="clip-path-4">
      <rect id="Rectangle_407237" data-name="Rectangle 407237" width="98" height="98" transform="translate(21.648 18.632)" fill="#fff" stroke="#707070" stroke-width="1"/>
    </clipPath>
    <clipPath id="clip-path-5">
      <rect id="Rectangle_408400" data-name="Rectangle 408400" width="94.02" height="94" fill="#fff"/>
    </clipPath>
  </defs>
  <g id="Group_1116873" data-name="Group 1116873" transform="translate(-313 -7638)">
    <g id="Group_1115379" data-name="Group 1115379" transform="translate(313 7638)">
      <g id="Group_1115374" data-name="Group 1115374" transform="translate(0)">
        <g id="Group_1113673" data-name="Group 1113673">
          <g id="Group_1113672" data-name="Group 1113672" clip-path="url(#clip-path-2)">
            <path id="Path_886855" data-name="Path 886855" d="M110.448,130.863C185.956,123.305,143.5-7.491,68.54.338,36.748,3.658,10.66,28.5,2.7,60.516c-6.754,27.152-.753,57.981,17.2,78.7,23.729,27.379,56-4.893,90.549-8.351" transform="translate(0 0)" fill="#1e2ad5"/>
          </g>
        </g>
      </g>
      <g id="Group_1115378" data-name="Group 1115378" transform="translate(108.032 106.113)">
        <path id="Path_886575" data-name="Path 886575" d="M2.3.08A1.992,1.992,0,0,0,.007,1.718,1.959,1.959,0,0,0,1.932,3.745,1.956,1.956,0,0,0,3.825,1.69C3.707.655,3.31-.284,2.3.08" transform="translate(24.008 0) rotate(19)" fill="#ffc811"/>
        <path id="Path_886576" data-name="Path 886576" d="M3.331.074C-.965-.863-.081,7.339.469,9.4a3.178,3.178,0,0,0,.463,1.1,2.28,2.28,0,0,0,2.443.667A3.762,3.762,0,0,0,5.387,9.5C6.945,7.014,7.3.942,3.331.074" transform="translate(14.172 7.033) rotate(19)" fill="#ffc811"/>
        <path id="Path_886577" data-name="Path 886577" d="M2.762,4.49c2.919-1.363.3-6.145-1.969-3.9A2.874,2.874,0,0,0,0,2.7a2.273,2.273,0,0,0,.25,1.043,2,2,0,0,0,2.511.744" transform="translate(27.898 7.145) rotate(19)" fill="#ffc811"/>
        <path id="Path_886578" data-name="Path 886578" d="M3.921,7.266C5.3,6.007,7.039,2.479,5.533.831,4.12-.712,1.827.079.977,1.69A10.442,10.442,0,0,0,.07,5.136,2.417,2.417,0,0,0,.248,6.852a2.543,2.543,0,0,0,.636.584,2.862,2.862,0,0,0,1.11.577,2.362,2.362,0,0,0,1.926-.747" transform="translate(20.618 17.257) rotate(19)" fill="#ffc811"/>
        <path id="Path_886579" data-name="Path 886579" d="M1.044,4.482a1.9,1.9,0,0,0,2.38-.213C5.484,2.212,1.874-1.766.3.878a2.883,2.883,0,0,0,0,2.565,2.451,2.451,0,0,0,.74,1.04" transform="translate(36.058 16.485) rotate(19)" fill="#ffc811"/>
        <path id="Path_886580" data-name="Path 886580" d="M.027.846A1.715,1.715,0,0,0,.469,2.24a1.911,1.911,0,0,0,.745.593,1.394,1.394,0,0,0,1.452-.281C4.349.907.476-1.2.027.846" transform="translate(35.28 24.662) rotate(19)" fill="#ffc811"/>
        <path id="Path_886581" data-name="Path 886581" d="M1,.785A3.852,3.852,0,0,0,.114,2.918,5.435,5.435,0,0,0,.275,5.784a2.681,2.681,0,0,0,2.2,1.744A2.835,2.835,0,0,0,5.12,5.547C5.856,3.5,3.741-2.037,1,.785" transform="translate(27.712 28.297) rotate(19)" fill="#ffc811"/>
        <path id="Path_886582" data-name="Path 886582" d="M.617,2.99a1.852,1.852,0,0,0,2.149.042C5.156,1.315,1.484-1.5.174.97A1.654,1.654,0,0,0,.617,2.99" transform="translate(9.087 20.713) rotate(19)" fill="#ffc811"/>
        <path id="Path_886583" data-name="Path 886583" d="M1.875.187A2.421,2.421,0,0,0,.7.948,3.136,3.136,0,0,0,.173,2.5,19.859,19.859,0,0,0,0,4.65,4.8,4.8,0,0,0,.352,6.883,2.08,2.08,0,0,0,2.181,8.115,2.445,2.445,0,0,0,3.966,6.993C5.321,5.148,6.055-1.159,1.875.187" transform="translate(2.642 25.923) rotate(19)" fill="#ffc811"/>
        <path id="Path_886584" data-name="Path 886584" d="M4.874.8C3.853.1,2.108-.417,1.139.472.278,1.263.084,2.976.02,4.044A5.626,5.626,0,0,0,.581,7.208,2.9,2.9,0,0,0,3.337,8.724a3.144,3.144,0,0,0,1.57-.761C7.085,6.127,7.351,2.486,4.874.8" transform="translate(13.438 33.458) rotate(19)" fill="#ffc811"/>
      </g>
    </g>
    <g id="Group_1115380" data-name="Group 1115380" transform="translate(316.726 7641.881)">
      <g id="Mask_Group_1098697-2" data-name="Mask Group 1098697" transform="translate(0 0.001)" clip-path="url(#clip-path-3)">
        <g id="Mask_Group_1113664" data-name="Mask Group 1113664" transform="translate(1 4)" clip-path="url(#clip-path-4)">
          <g id="Group_1118027" data-name="Group 1118027" transform="translate(23.649 20.632)">
            <g id="Group_1118026" data-name="Group 1118026" clip-path="url(#clip-path-5)">
              <path id="Path_919141" data-name="Path 919141" d="M32.745,16.5A7.922,7.922,0,0,1,41.37,9.452c-4.031-12.618,15.261-12.586,11.217,0a7.577,7.577,0,0,1,7.645,4.338c3.71-2.135,7.872-2.11,10.9,1.122,1.723-4.177,6.724-5.852,10.344-2.863,4,3.305,2.2,9.193-2.431,10.776a7.536,7.536,0,0,1,2.382,8.427c-.337,1.018-1.046,1.631-1.237,2.64,2.913,1.02,4.685,4.439,4.315,7.479,4.385-1.822,9.512.475,9.512,5.609a6.218,6.218,0,0,1-7.342,6.166c-.707-.1-1.33-.764-2.17-.559a7.576,7.576,0,0,1-4.338,7.647c2.135,3.71,2.11,7.872-1.122,10.9,11.41,5.951-1.913,19.38-7.913,7.913C67.94,82.5,63.93,82.4,60.067,80.193c-1.085,3.057-4.625,4.725-7.767,4.315,2.781,5.406-2.186,11.3-7.963,8.966-3.674-1.486-4.611-5.563-2.967-8.966a7.574,7.574,0,0,1-7.6-3.758,21.792,21.792,0,0,1-1.025-2.426V72.141c-1.2.7-2.429,3.238-4.013,1.857-2.119-1.849,3.274-4.864,4.013-6.452a17.589,17.589,0,0,1-6.332-6.33c-.745-.512-5.787,7.044-6.84,3.534-.539-1.8,1.2-2.253,1.957-3.536h-4.6c-1.681,2.26-2.591,4.093-.816,6.711A99.22,99.22,0,0,0,25.7,77.6a6.792,6.792,0,0,0,2.138,1.025c1.268.342,3.255-.235,2.847,1.927-.491,2.607-5.128.677-6.55-.237-.446-.286-1.311-1.574-1.74-1.275C19.976,87.218,7.753,83,10.751,75.021c.809-2.156,2.183-2.945,4.16-3.886a7.535,7.535,0,0,1-2.382-8.426c.336-1.019,1.046-1.631,1.237-2.64-2.913-1.02-4.685-4.439-4.315-7.479-12.591,4.042-12.612-15.251,0-11.217-.456-3.534,1.611-6,4.311-7.926-2.688-3.731-1.972-7.852,1.154-11.048a5.877,5.877,0,0,1-4.6-5.034C9.579,9.7,20.48,7.659,22.824,14.911c.9-1.814,7.083-4.684,7.573-1.511.321,2.075-2.973,1.661-4.412,2.665a122.971,122.971,0,0,0-9.872,9.97,4.439,4.439,0,0,0,0,5.082,11.381,11.381,0,0,0,1.535,1.628h4.17c-.7-1.2-3.238-2.429-1.856-4.013,1.8-2.062,4.88,3.112,6.314,4.007a20.225,20.225,0,0,1,6.468-6.326c.511-.746-7.044-5.787-3.534-6.84,1.8-.539,2.253,1.2,3.536,1.957.135-1.6-.186-3.465,0-5.032M46.183,3.193c-3.622.735-2.634,6.541,1.014,6.2,4.2-.392,3.674-7.152-1.014-6.2M58.05,24.406V16.5c0-1.249-2.044-3.545-3.373-3.816-2.3-.468-12-.334-14.614-.081a4.137,4.137,0,0,0-3.246,1.93,16.107,16.107,0,0,0-.909,1.966v7.908l3.124-1.189c.287-2.322-1.09-7.263,2.837-5.636a2.709,2.709,0,0,1,.365.642v4.17a21.114,21.114,0,0,1,9.489,0v-4.17a2.719,2.719,0,0,1,.365-.642c3.927-1.627,2.548,3.313,2.838,5.635ZM15.7,13.539c-4.188.951-1.829,8.285,2.484,5.648A3.112,3.112,0,0,0,15.7,13.539m60.968.005c-4.769.977-1.543,8.3,2.484,5.647a3.143,3.143,0,0,0-2.484-5.647m-4.236,19.2H76.6a15.452,15.452,0,0,0,1.649-2.089,4.859,4.859,0,0,0-.78-5.107c-.979-1.279-9.205-9.425-10.245-9.885-2.562-1.133-3.944-.09-6.009,1.264v4.6C62.05,20.818,64.236,18.4,65.26,20c1.412,2.2-2.914,4.711-4.042,6.278a27.788,27.788,0,0,1,6.465,6.465c1.453-.741,4.9-5.921,6.5-3.9,1.246,1.577-1.051,2.8-1.752,3.91M61.213,72.429v4.6c2.021,1.421,3.458,2.445,6.009,1.264,1.052-.487,9.6-8.912,10.534-10.171,1.909-2.581.9-4.6-.727-6.909h-4.6c.729,1.224,2.742,1.98,1.869,3.741-1.287,2.6-5.268-3.01-6.335-3.735l-.409,0c-.089,1.257-2.25,1.532-2.7.5-.776-1.785.491-2.281,1.188-3.587C78.744,34.333,48.5,13.716,31.3,31.732c-17.212,18.033,4.386,46.7,26.755,34.232,1.005-.56,4.392-3.7,5.048-1.323.522,1.892-.814,1.941-1.885,3.044.635,1.254,6.295,5.349,3.735,6.614-1.763.872-2.515-1.139-3.741-1.869M24.405,35.909H16.5c-1.249,0-3.545,2.044-3.816,3.373-.468,2.3-.334,12-.08,14.614a4.136,4.136,0,0,0,1.93,3.246,16.064,16.064,0,0,0,1.966.909h7.908l-1.189-3.124c-2.322-.287-7.263,1.09-5.636-2.836a2.705,2.705,0,0,1,.642-.365h4.17a21.113,21.113,0,0,1,0-9.489h-4.17a2.7,2.7,0,0,1-.642-.365c-1.627-3.927,3.313-2.548,5.634-2.838ZM69.552,58.051H77.46c1.249,0,3.546-2.044,3.816-3.373.468-2.3.334-12,.08-14.614a4.136,4.136,0,0,0-1.93-3.246,16.088,16.088,0,0,0-1.966-.909H69.552l1.189,3.124c2.322.287,7.263-1.09,5.636,2.837a2.7,2.7,0,0,1-.642.365h-4.17a21.109,21.109,0,0,1,0,9.489h4.17a2.7,2.7,0,0,1,.642.365c1.628,3.926-3.314,2.55-5.636,2.836ZM4.088,49.325c2.949,2.805,7.521-2.1,4.074-4.793C5,42.061,1.193,46.57,4.088,49.325m82.633-5.3c-3.363.775-2.615,7.135,2.171,5.9,3.052-.785,2.619-7.008-2.171-5.9M35.908,69.553v7.908c0,1.249,2.044,3.546,3.373,3.816,2.3.468,12,.334,14.614.081a4.136,4.136,0,0,0,3.246-1.93,16.025,16.025,0,0,0,.909-1.966V69.553l-3.123,1.19c-.29,2.322,1.089,7.262-2.838,5.634a2.708,2.708,0,0,1-.365-.642v-4.17a21.109,21.109,0,0,1-9.489,0v4.17a2.7,2.7,0,0,1-.365.642c-3.926,1.628-2.55-3.314-2.837-5.636ZM16.279,74.214c-3.939.369-3.6,6.578.5,6.284,4.428-.317,3.292-6.639-.5-6.284m60.963,0c-3.421.317-4.1,5.356-.809,6.142,5.209,1.243,5.15-6.544.809-6.142M46.761,84.566c-3.962.369-3.81,6.578.5,6.285,4.168-.284,3.348-6.644-.5-6.285" transform="translate(0 0)" fill="#fff"/>
              <path id="Path_919142" data-name="Path 919142" d="M112.489,119.1a10.44,10.44,0,0,1,8.252,3.364c7.374-8.064,20.257-.475,16.47,9.86-1.021,2.787-9.8,11.557-12.437,13.731-2.548,2.1-4.845,2.458-7.6.4-1.307-.976-5.375-4.522-2.969-5.811,2.526-1.354,4.9,5.711,7.941,3.643l11.344-11.371c4.11-5.794-1.776-12.886-8.355-9.793-1.8.847-2.568,2.775-4.417,3.379-1,.053-2.69-2.393-3.815-3.066a6.6,6.6,0,0,0-9.479,8.616c.841,1.69,4.265,4.058,4.507,5.3a1.581,1.581,0,0,1-2.053,1.75,48.021,48.021,0,0,1-4.091-3.973c-4.952-6.141-1.3-15.46,6.7-16.025" transform="translate(-73.761 -84.833)" fill="#fff"/>
              <path id="Path_919143" data-name="Path 919143" d="M182.01,144.1c-.222-.228-1.573,1.158-2.724-.008-1.952-1.977,2.977-4.794,5.32-1.869,2.363,2.95-1.461,6.6-2.741,4.466-.471-.783.156-1.761.145-2.589" transform="translate(-127.412 -100.43)" fill="#fff"/>
            </g>
          </g>
        </g>
      </g>
    </g>
  </g>
</svg>
