<svg xmlns="http://www.w3.org/2000/svg" xmlns:xlink="http://www.w3.org/1999/xlink" width="295.391" height="298.5" viewBox="0 0 295.391 298.5">
  <defs>
    <clipPath id="clip-path">
      <rect id="Rectangle_407443" data-name="Rectangle 407443" width="295.391" height="298.5" transform="translate(0 0.035)" fill="#fff" stroke="#707070" stroke-width="1"/>
    </clipPath>
    <clipPath id="clip-path-2">
      <rect id="Rectangle_408501" data-name="Rectangle 408501" width="295" height="290.146" fill="none"/>
    </clipPath>
    <clipPath id="clip-path-4">
      <rect id="Rectangle_408491" data-name="Rectangle 408491" width="28.631" height="42.539" fill="none"/>
    </clipPath>
    <clipPath id="clip-path-5">
      <rect id="Rectangle_408492" data-name="Rectangle 408492" width="23.688" height="28.473" fill="none"/>
    </clipPath>
    <clipPath id="clip-path-6">
      <rect id="Rectangle_408493" data-name="Rectangle 408493" width="30.025" height="35.017" fill="none"/>
    </clipPath>
    <clipPath id="clip-path-7">
      <rect id="Rectangle_408494" data-name="Rectangle 408494" width="31.07" height="8.175" fill="none"/>
    </clipPath>
    <clipPath id="clip-path-8">
      <rect id="Rectangle_408495" data-name="Rectangle 408495" width="4.549" height="1.616" fill="none"/>
    </clipPath>
    <clipPath id="clip-path-9">
      <rect id="Rectangle_408496" data-name="Rectangle 408496" width="7.081" height="11.626" fill="none"/>
    </clipPath>
    <clipPath id="clip-path-10">
      <rect id="Rectangle_408497" data-name="Rectangle 408497" width="7.834" height="11.528" fill="none"/>
    </clipPath>
    <clipPath id="clip-path-11">
      <rect id="Rectangle_408498" data-name="Rectangle 408498" width="8.205" height="10.585" fill="none"/>
    </clipPath>
    <clipPath id="clip-path-12">
      <rect id="Rectangle_408499" data-name="Rectangle 408499" width="7.75" height="10.092" fill="none"/>
    </clipPath>
  </defs>
  <g id="Group_1118095" data-name="Group 1118095" transform="translate(-179.711 -2191.035)">
    <g id="Mask_Group_1116930" data-name="Mask Group 1116930" transform="translate(179.711 2191)" clip-path="url(#clip-path)">
      <g id="Group_1118199" data-name="Group 1118199" transform="translate(0 4.035)">
        <g id="Group_1118198" data-name="Group 1118198" clip-path="url(#clip-path-2)">
          <g id="Group_1118197" data-name="Group 1118197">
            <g id="Group_1118196" data-name="Group 1118196" clip-path="url(#clip-path-2)">
              <g id="Group_1118171" data-name="Group 1118171" transform="translate(22.17 221.075)" opacity="0.8">
                <g id="Group_1118170" data-name="Group 1118170">
                  <g id="Group_1118169" data-name="Group 1118169" clip-path="url(#clip-path-4)">
                    <path id="Path_919568" data-name="Path 919568" d="M132.633,1078.844s-14.536-46.191-25.892-41.423,16.035,28.6,19.876,42.194Z" transform="translate(-104.002 -1037.075)" fill="#acc9c5"/>
                  </g>
                </g>
              </g>
              <path id="Path_919569" data-name="Path 919569" d="M81.347,1095.739s-19.581-38.909-30.073-32.051,18.971,22.537,24.308,34.083Z" transform="translate(-38.581 -836.302)" fill="#9cc6bf"/>
              <g id="Group_1118174" data-name="Group 1118174" transform="translate(16.133 232.135)" opacity="0.5">
                <g id="Group_1118173" data-name="Group 1118173">
                  <g id="Group_1118172" data-name="Group 1118172" clip-path="url(#clip-path-5)">
                    <path id="Path_919570" data-name="Path 919570" d="M99.1,1117.43c-3.563-8.054-9.74-15.283-14.294-19.929a95.062,95.062,0,0,0-9.122-8.238l.166-.306A95.371,95.371,0,0,1,85,1097.225c4.574,4.667,10.779,11.932,14.365,20.036Z" transform="translate(-75.682 -1088.957)" fill="#68a1bf"/>
                  </g>
                </g>
              </g>
              <g id="Group_1118177" data-name="Group 1118177" transform="translate(253.591 150.5)" opacity="0.6">
                <g id="Group_1118176" data-name="Group 1118176">
                  <g id="Group_1118175" data-name="Group 1118175" clip-path="url(#clip-path-6)">
                    <path id="Path_919571" data-name="Path 919571" d="M1189.611,739.811s17.5-38.475,27.762-33.333-17.439,23.183-22.179,34.544Z" transform="translate(-1189.611 -706.005)" fill="#acc9c5"/>
                  </g>
                </g>
              </g>
              <path id="Path_919572" data-name="Path 919572" d="M1200.614,782.579s23.213-24.458,31.126-17.447-20.014,12.689-26.495,20.039Z" transform="translate(-944.677 -601.034)" fill="#ccd39c"/>
              <path id="Path_919573" data-name="Path 919573" d="M1211.949,798.863c4.383-5.157,10.882-9.21,15.561-11.7a81.052,81.052,0,0,1,9.2-4.214l-.093-.254a81.445,81.445,0,0,0-9.234,4.23c-4.7,2.5-11.229,6.576-15.64,11.765Z" transform="translate(-953.434 -615.845)" fill="#c2c68e"/>
              <path id="Path_919574" data-name="Path 919574" d="M1211.725,834.989c-4.03.919-3.291,7.027-7.907,5.944-3.9-.919-4.236-1.274-5.572-.137a6.366,6.366,0,0,0-1.182,1.35,3.757,3.757,0,0,1-2.345,1.711c-7.21,1.348-17.207-9.226-9.736-15.2a4.846,4.846,0,0,1,2.206-.751c4.75-.8,6.256,1.372,9.942-4.276s8.863,2.334,12.051,2.016,5.989-1.307,8.513,2.047-1.939,6.378-5.97,7.295" transform="translate(-930.298 -646.461)" fill="#acc9c5"/>
              <g id="Group_1118180" data-name="Group 1118180" transform="translate(256.921 182.187)" opacity="0.5">
                <g id="Group_1118179" data-name="Group 1118179">
                  <g id="Group_1118178" data-name="Group 1118178" clip-path="url(#clip-path-7)">
                    <path id="Path_919575" data-name="Path 919575" d="M1205.38,862.4l-.154-.224c.1-.068,10.115-6.814,31.06-7.535l.009.272c-20.867.719-30.817,7.419-30.915,7.487" transform="translate(-1205.227 -854.646)" fill="#68a1bf"/>
                    <path id="Path_919576" data-name="Path 919576" d="M1293,861.25c-.332-.272-.512-.448-.52-.457l.192-.192a13.6,13.6,0,0,0,9.356,3.532l.011.272a13.8,13.8,0,0,1-9.04-3.154" transform="translate(-1273.881 -859.332)" fill="#68a1bf"/>
                    <path id="Path_919577" data-name="Path 919577" d="M1301.455,872.883a6.415,6.415,0,0,1-1.744-3.729,4.751,4.751,0,0,1,.115-1.72l.26.08a5.674,5.674,0,0,0,1.569,5.185Z" transform="translate(-1279.549 -864.708)" fill="#68a1bf"/>
                  </g>
                </g>
              </g>
              <path id="Path_919578" data-name="Path 919578" d="M1326.837,742.874c.82-.687,1.282-.631,1.552-.309s.243.786-.577,1.473a4.814,4.814,0,0,1-2.7,1.274,4.712,4.712,0,0,1,1.729-2.438" transform="translate(-1042.632 -584.09)" fill="#acc9c5"/>
              <g id="Group_1118183" data-name="Group 1118183" transform="translate(280.202 175.51)" opacity="0.6">
                <g id="Group_1118182" data-name="Group 1118182">
                  <g id="Group_1118181" data-name="Group 1118181" clip-path="url(#clip-path-8)">
                    <path id="Path_919579" data-name="Path 919579" d="M1317.5,823.325c1.137-.022,1.482.333,1.491.779s-.323.813-1.46.835a5.117,5.117,0,0,1-3.088-.748,5.009,5.009,0,0,1,3.057-.865" transform="translate(-1314.441 -823.325)" fill="#acc9c5"/>
                  </g>
                </g>
              </g>
              <path id="Path_919580" data-name="Path 919580" d="M51.766,1209.33c-5.6,3.647-13.377,2.706-18.625.225-2.582-1.22-4.091-6.559-12.386-6.47-5.949.061-5.78-5.142-7.62-9.235-.033-.075-.067-.149-.1-.223a7.3,7.3,0,0,0-3.5-3.709,23.937,23.937,0,0,1-5.3-3.447q-.2-.169-.387-.344c-3.1-2.828-4.929-6.314-3.134-9.307.042-.071.087-.141.133-.211a6.883,6.883,0,0,1,1.287-1.424c5.589-4.759,9.993-2,15.312-.24,2.941.974,7.888-2.151,12.424-3.273l.2-.047c3.593-.844,6.9-.369,8.72,4.484,0,0,0,0,0,0l.111.292c4.082,10.7,7.491,7.662,15.224,10.806a8.47,8.47,0,0,1,3.478,2.125c7.051,8.786,3.273,16.388-5.826,20" transform="translate(0 -921.602)" fill="#ccd39c"/>
              <path id="Path_919581" data-name="Path 919581" d="M52.948,1221.22l.349-.323c-.142-.154-14.66-15.5-50.136-24.73l-.12.46c35.342,9.2,49.765,24.44,49.907,24.593" transform="translate(-2.393 -941.178)" fill="#c2c68e"/>
              <path id="Path_919582" data-name="Path 919582" d="M147.417,1200.053c5.7-3.126,7.322-6.293,7.388-6.426l-.426-.212c-.016.031-1.634,3.174-7.191,6.221Z" transform="translate(-115.812 -939.013)" fill="#c2c68e"/>
              <path id="Path_919583" data-name="Path 919583" d="M137.634,1188.609c1.87-2.018,2.536-5.405,1.925-9.794a31.785,31.785,0,0,0-1.488-6.047l-.445.167c.04.107,3.961,10.71-.34,15.351Z" transform="translate(-108.02 -922.767)" fill="#c2c68e"/>
              <path id="Path_919584" data-name="Path 919584" d="M34.37,1229.306c.67-.337,1.045-.57,1.062-.581l-.255-.4c-.078.05-7.969,4.955-17.319,2.453l-.123.459a24.145,24.145,0,0,0,16.635-1.93" transform="translate(-13.954 -966.48)" fill="#c2c68e"/>
              <path id="Path_919585" data-name="Path 919585" d="M61.241,1246a11.218,11.218,0,0,0,4.4-5.7,8.317,8.317,0,0,0,.46-2.979l-.474.038c0,.047.309,4.787-4.66,8.251Z" transform="translate(-47.972 -973.561)" fill="#c2c68e"/>
              <path id="Path_919586" data-name="Path 919586" d="M35.42,1147.5c-2.181-.695-2.609-1.595-2.337-2.45s1.142-1.341,3.324-.646c3.974,1.266,5.4,3.426,5.4,3.426s-2.356.955-6.387-.33" transform="translate(-25.973 -900.19)" fill="#acc9c5"/>
              <path id="Path_919587" data-name="Path 919587" d="M38.894,737.866a1.2,1.2,0,0,1-1.2-1.144l-.076-1.679a1,1,0,0,0-.613-.881q-.145-.059-.286-.124a.992.992,0,0,0-1.081.172l-1.325,1.205a1.2,1.2,0,0,1-1.692-.08l-1.3-1.428a1.2,1.2,0,0,1,.081-1.693l1.138-1.034a1,1,0,0,0,.242-1.142l.084-.056-.091.04a1,1,0,0,0-.96-.6l-1.442.067a1.2,1.2,0,0,1-1.252-1.142l-.088-1.929a1.2,1.2,0,0,1,1.143-1.252l1.443-.065a1,1,0,0,0,.9-.681l.005-.015a1,1,0,0,0-.345-1.114l-1.228-.927a1.2,1.2,0,0,1-.234-1.678l1.163-1.54a1.2,1.2,0,0,1,1.678-.234L34.995,720a.992.992,0,0,0,1.092.074q.135-.077.274-.15a1,1,0,0,0,.53-.934l-.077-1.678a1.2,1.2,0,0,1,1.142-1.251l1.927-.088a1.2,1.2,0,0,1,1.252,1.143l.057,1.248a1,1,0,0,0,.759.925,7.85,7.85,0,0,1,1.042.348,1.009,1.009,0,0,0,1.061-.18l1.175-1.067a1.2,1.2,0,0,1,1.692.081l1.3,1.428a1.2,1.2,0,0,1-.081,1.692l-.83.755a.992.992,0,0,0-.23,1.169q.06.126.116.255a1,1,0,0,0,.956.589l1.019-.046a1.2,1.2,0,0,1,1.25,1.142l.088,1.927a1.2,1.2,0,0,1-1.143,1.252l-1.017.046a1,1,0,0,0-.9.674c-.029.089-.06.178-.093.265a.992.992,0,0,0,.335,1.142l.9.676a1.2,1.2,0,0,1,.234,1.678l-1.162,1.539a1.2,1.2,0,0,1-1.678.234l-1.266-.956a1.009,1.009,0,0,0-1.074-.083,7.817,7.817,0,0,1-1.005.442,1,1,0,0,0-.671.99l.057,1.249a1.2,1.2,0,0,1-1.142,1.251l-1.928.088h-.056m-2.579-4.116a1.177,1.177,0,0,1,.491.107q.138.063.279.121a1.2,1.2,0,0,1,.736,1.056l.076,1.679a1,1,0,0,0,1.044.953l1.928-.088a1,1,0,0,0,.953-1.044l-.057-1.248a1.2,1.2,0,0,1,.8-1.186,7.6,7.6,0,0,0,.979-.431,1.208,1.208,0,0,1,1.286.1l1.267.956a1,1,0,0,0,1.4-.2l1.162-1.539a1,1,0,0,0-.2-1.4l-.9-.676a1.19,1.19,0,0,1-.4-1.37c.031-.085.062-.172.09-.259a1.2,1.2,0,0,1,1.08-.811l1.017-.046a1,1,0,0,0,.953-1.044l-.088-1.927a1,1,0,0,0-1.043-.952l-1.019.046a1.2,1.2,0,0,1-1.147-.708q-.054-.125-.113-.248a1.19,1.19,0,0,1,.275-1.4l.83-.755a1,1,0,0,0,.067-1.412l-1.3-1.428a1,1,0,0,0-1.411-.068L44.188,719.6a1.209,1.209,0,0,1-1.271.217,7.614,7.614,0,0,0-1.016-.34,1.2,1.2,0,0,1-.908-1.108l-.057-1.248a1,1,0,0,0-1.044-.953l-1.926.088a1,1,0,0,0-.953,1.044l.077,1.678a1.2,1.2,0,0,1-.637,1.119q-.135.07-.267.146a1.191,1.191,0,0,1-1.31-.088l-1.429-1.08a1,1,0,0,0-1.4.2l-1.163,1.54a1,1,0,0,0,.2,1.4l1.228.927a1.2,1.2,0,0,1,.414,1.336l0,.014a1.2,1.2,0,0,1-1.082.817l-1.443.065a1,1,0,0,0-.953,1.044l.088,1.929a1,1,0,0,0,1.044.952l1.442-.066a1.2,1.2,0,0,1,1.152.715l-.084.055.091-.04a1.2,1.2,0,0,1-.291,1.369l-1.138,1.034a1,1,0,0,0-.067,1.412l1.3,1.428a1,1,0,0,0,1.411.067l1.325-1.205a1.2,1.2,0,0,1,.806-.313" transform="translate(-22.847 -563.343)" fill="#366f90"/>
              <path id="Path_919588" data-name="Path 919588" d="M62.9,755.036a4.618,4.618,0,0,1-3.123-1.461,5.138,5.138,0,0,1-1.615-3.251,3.808,3.808,0,0,1,1.342-2.977,5.051,5.051,0,0,1,3.126-1.324,3.627,3.627,0,0,1,2.928,1.431,5.487,5.487,0,0,1,1.269,3.211,4.3,4.3,0,0,1-.993,3,3.86,3.86,0,0,1-2.8,1.366c-.046,0-.093,0-.139,0m-.128-8.817c-.044,0-.088,0-.133,0a4.848,4.848,0,0,0-3,1.271,3.614,3.614,0,0,0-1.278,2.821,4.936,4.936,0,0,0,1.556,3.118,4.342,4.342,0,0,0,3.113,1.4,3.663,3.663,0,0,0,2.654-1.3,4.1,4.1,0,0,0,.945-2.863,5.356,5.356,0,0,0-1.223-3.092,3.471,3.471,0,0,0-2.634-1.364" transform="translate(-45.757 -586.99)" fill="#366f90"/>
              <path id="Path_919589" data-name="Path 919589" d="M874.628,164.678v89.413a13.307,13.307,0,0,1-13.31,13.31H826.471a1.006,1.006,0,0,0-1.006,1.126,8.518,8.518,0,0,1,.081,1.175,8.7,8.7,0,0,1-17.367.849,8.883,8.883,0,0,1,.017-1.853,1.163,1.163,0,0,0-.122-.675,1.136,1.136,0,0,0-1.016-.622H771.907a13.276,13.276,0,0,1-4.654-.837c-.143-.053-.284-.109-.425-.167a13.318,13.318,0,0,1-8.229-12.3v-37a1.98,1.98,0,0,1,2.513-1.9,8.7,8.7,0,1,0,.3-16.876,2.287,2.287,0,0,1-2.814-2.223V164.678a13.306,13.306,0,0,1,13.308-13.306h89.414a13.306,13.306,0,0,1,13.306,13.306" transform="translate(-596.887 -119.104)" fill="#afbefc"/>
              <path id="Path_919590" data-name="Path 919590" d="M201.709,215.493a8.759,8.759,0,0,1-1.927-.212,1.209,1.209,0,0,0-1.462,1.19v37.619a13.31,13.31,0,0,1-13.31,13.31H150.37a1.194,1.194,0,0,0-1.187,1.331,9,9,0,0,1,.054.97,8.7,8.7,0,1,1-17.383-.639,1.534,1.534,0,0,0-1.519-1.662H95.6a13.308,13.308,0,0,1-13.308-13.308V164.678A13.308,13.308,0,0,1,95.6,151.372h89.414a13.306,13.306,0,0,1,13.308,13.306v32.8a.885.885,0,0,0,1.157.9,8.831,8.831,0,0,1,3.1-.248,9.131,9.131,0,0,1,7.819,8.047,8.7,8.7,0,0,1-8.682,9.319" transform="translate(-64.747 -119.104)" fill="#ffe9a2"/>
              <path id="Path_919591" data-name="Path 919591" d="M158.369,289.223c-.166,0-.333,0-.5-.012a8.876,8.876,0,0,1-8.364-9.526,1.382,1.382,0,0,0-.361-1.038,1.319,1.319,0,0,0-.978-.426H113.427a13.505,13.505,0,0,1-13.489-13.49V175.316a13.5,13.5,0,0,1,13.489-13.488h89.415a13.5,13.5,0,0,1,13.489,13.488v32.8a.757.757,0,0,0,.274.619.747.747,0,0,0,.656.108,8.718,8.718,0,0,1,3.159-.252A9.3,9.3,0,0,1,228.4,216.8a8.812,8.812,0,0,1-2.363,6.69,8.921,8.921,0,0,1-6.5,2.825,9.012,9.012,0,0,1-1.968-.217,1.013,1.013,0,0,0-.846.2,1.043,1.043,0,0,0-.394.819v37.617a13.506,13.506,0,0,1-13.491,13.492H168.2a1.013,1.013,0,0,0-1.008,1.13,8.881,8.881,0,0,1-8.823,9.872M113.427,162.19A13.14,13.14,0,0,0,100.3,175.316v89.415a13.142,13.142,0,0,0,13.126,13.128h34.738a1.683,1.683,0,0,1,1.243.541,1.745,1.745,0,0,1,.457,1.313,8.651,8.651,0,0,0,.016,1.457,8.564,8.564,0,0,0,8.007,7.678,8.522,8.522,0,0,0,9-8.509,8.217,8.217,0,0,0-.054-.949,1.375,1.375,0,0,1,1.368-1.532h34.64a13.144,13.144,0,0,0,13.129-13.13V227.111a1.4,1.4,0,0,1,.531-1.1,1.369,1.369,0,0,1,1.152-.266,8.561,8.561,0,0,0,8.121-2.5,8.452,8.452,0,0,0,2.268-6.419,8.919,8.919,0,0,0-7.656-7.876,8.781,8.781,0,0,0-3.032.242,1.079,1.079,0,0,1-.968-.169,1.123,1.123,0,0,1-.417-.906v-32.8a13.14,13.14,0,0,0-13.126-13.125Z" transform="translate(-78.634 -127.331)" fill="#331832"/>
              <path id="Path_919592" data-name="Path 919592" d="M239.138,879.476a8.673,8.673,0,0,1-1.929-.215,1.211,1.211,0,0,0-1.46,1.192v37.619a13.309,13.309,0,0,1-13.308,13.31H133.026a13.306,13.306,0,0,1-13.306-13.306V828.661a13.307,13.307,0,0,1,13.306-13.308h35.446a1.793,1.793,0,0,1,1.4.66,1.743,1.743,0,0,1,.239,1.876v0c-.012.024-.024.05-.038.074a8.622,8.622,0,0,0-.951,2.9,8.486,8.486,0,0,0-.088,1.226,8.665,8.665,0,0,0,1.04,4.128c.062.117.129.233.2.348.043.072.088.145.133.217a8.921,8.921,0,0,0,.9,1.171,8.765,8.765,0,0,0,1.533,1.331c.184.126.372.243.565.353a8.5,8.5,0,0,0,1.135.548,8.089,8.089,0,0,0,.921.307,8.6,8.6,0,0,0,2.012.3h0c.076,0,.152.005.229.005.124,0,.25,0,.375-.007.093,0,.184-.007.277-.014a8.539,8.539,0,0,0,1.619-.27c.114-.029.227-.064.339-.1a.158.158,0,0,0,.026-.009,8.778,8.778,0,0,0,5.067-4.2s0,0,0,0c.036-.064.071-.127.1-.193.071-.139.138-.281.2-.425a8.567,8.567,0,0,0,.711-2.9,8.7,8.7,0,0,0-1.064-4.8,1.72,1.72,0,0,1,1.528-2.528h35.559a13.3,13.3,0,0,1,11.532,6.665.03.03,0,0,1,.009.014,12.945,12.945,0,0,1,.963,2.063v0a13.268,13.268,0,0,1,.8,4.564v32.8a.885.885,0,0,0,1.157.9,8.779,8.779,0,0,1,3.1-.248,9.131,9.131,0,0,1,7.819,8.044,8.7,8.7,0,0,1-8.682,9.321" transform="translate(-94.199 -641.543)" fill="#f6ae5c"/>
              <path id="Path_919593" data-name="Path 919593" d="M853.268,810.192V899.6a13.3,13.3,0,0,1-13.31,13.31H750.546a13.305,13.305,0,0,1-3.208-.389v0a13.312,13.312,0,0,1-10.1-12.917v-37a1.98,1.98,0,0,1,2.513-1.9,8.7,8.7,0,1,0,.3-16.876,2.288,2.288,0,0,1-2.814-2.223V810.192a13.309,13.309,0,0,1,13.308-13.308h35.446a1.787,1.787,0,0,1,1.6,2.613,8.708,8.708,0,0,0,8.284,12.81,8.522,8.522,0,0,0,2.792-.677,8.724,8.724,0,0,0,1.6-.9,8.819,8.819,0,0,0,2.826-3.321,8.593,8.593,0,0,0,.853-3.2,8.688,8.688,0,0,0-1.061-4.79,1.722,1.722,0,0,1,1.522-2.539H839.96a13.308,13.308,0,0,1,13.308,13.308" transform="translate(-580.08 -627.011)" fill="#ffc811"/>
              <path id="Path_919594" data-name="Path 919594" d="M860.353,930.187H770.941a13.5,13.5,0,0,1-13.488-13.49v-37a2.135,2.135,0,0,1,.84-1.7,2.163,2.163,0,0,1,1.9-.372,8.522,8.522,0,1,0,.3-16.527,2.469,2.469,0,0,1-3.036-2.4V827.282a13.5,13.5,0,0,1,13.488-13.488h35.446a1.976,1.976,0,0,1,1.711.977,1.907,1.907,0,0,1,.045,1.9,8.53,8.53,0,0,0,1.693,10.275,8.429,8.429,0,0,0,6.419,2.269,8.524,8.524,0,0,0,6.862-12.615,1.864,1.864,0,0,1,.031-1.864,1.9,1.9,0,0,1,1.65-.944h35.559a13.5,13.5,0,0,1,13.489,13.488v89.413a13.507,13.507,0,0,1-13.491,13.492M759.615,877.9a1.8,1.8,0,0,0-1.1.374,1.771,1.771,0,0,0-.7,1.417v37a13.142,13.142,0,0,0,13.125,13.128h89.412a13.144,13.144,0,0,0,13.129-13.13V827.282a13.14,13.14,0,0,0-13.126-13.125H824.8a1.537,1.537,0,0,0-1.338.765,1.506,1.506,0,0,0-.026,1.506,8.885,8.885,0,1,1-15.607.073,1.552,1.552,0,0,0-.038-1.547,1.62,1.62,0,0,0-1.4-.8H770.941a13.14,13.14,0,0,0-13.125,13.125v31.413a2.088,2.088,0,0,0,.794,1.645,2.127,2.127,0,0,0,1.8.4,8.886,8.886,0,1,1,2.027,17.539,8.847,8.847,0,0,1-2.334-.311,1.917,1.917,0,0,0-.485-.064" transform="translate(-595.985 -640.316)" fill="#331832"/>
              <path id="Path_919595" data-name="Path 919595" d="M994.273,439.636a13.254,13.254,0,0,1-7.821,2.539H951.606A1.006,1.006,0,0,0,950.6,443.3a8.547,8.547,0,0,1,.081,1.175,8.7,8.7,0,0,1-17.367.849,8.864,8.864,0,0,1,.017-1.853,1.162,1.162,0,0,0-.122-.675,103.9,103.9,0,0,1-12.919,5.628q-.336-2.622-.639-5.16-.065-.548-.129-1.09c-.036-.317-.074-.632-.11-.946-.1-.883-.2-1.755-.293-2.623h0q-.075-.682-.145-1.356-.346-3.281-.613-6.407-.346-4.064-.536-7.866-.1-2.041-.146-4v0a103.935,103.935,0,0,1,.4-12.872s.007-.071.022-.205q.295-2.906.809-5.568c.05-.255.1-.51.155-.761a42.586,42.586,0,0,1,1.962-6.736v0c.093-.241.19-.482.289-.72a28.719,28.719,0,0,1,4.631-7.7,25.833,25.833,0,0,1,5.7-4.984,33.387,33.387,0,0,1,9.331-4.068q2.069-.574,4.366-.984a53.577,53.577,0,0,1,8.944-.87q.775-.005,1.523.014c11.92.329,18.378,5.553,21.516,9.35a20.52,20.52,0,0,1,1.564,2.153c.029.046.057.09.083.134a12.211,12.211,0,0,1,.882,1.647q1.025,1.945,2.017,4.2a134.731,134.731,0,0,1,5.218,14.378c.026.079.05.157.072.234,1.572,5.115,3.053,10.628,4.431,16.268,0,0,2.571,13.8,2.571,13.8a8.811,8.811,0,0,1,.112,3.954" transform="translate(-722.021 -293.878)" fill="#f8d2a8"/>
              <path id="Path_919596" data-name="Path 919596" d="M988.7,405.04c4.51,13.783-42.4,4.7-52.344,4.894a31.885,31.885,0,0,1-16.67-4.169s2.229-23.563,19.165-29.632q2.386-.858,5-1.526a51.038,51.038,0,0,1,8.859-1.458c22.593-1.6,32.572,21.444,35.99,31.891" transform="translate(-723.637 -293.542)" fill="#f8d2a8"/>
              <path id="Path_919597" data-name="Path 919597" d="M1024.08,304.668c4,.952,10.454-2.8,12.48-6.527-.022,0-4.437-.381-5.7-2.095a34.81,34.81,0,0,1-3.143-6.265l.335-.317-.892-1.7-5.241-9.985,1.516,10.617.568,3.949.343,2.4,0,.026.29,2.017a6.519,6.519,0,0,1-.854,4.208c-.317.552-2.915,2.91.293,3.67" transform="translate(-804.075 -218.566)" fill="#bd7f58"/>
              <path id="Path_919598" data-name="Path 919598" d="M1032.035,343.494c3.994-1.158,4.146-3.76,4.146-3.76l-4.489,1.36Z" transform="translate(-811.764 -267.312)" fill="#331832"/>
              <path id="Path_919599" data-name="Path 919599" d="M993.234,204.528s-1.162-8.661.98-10.058,1.681,6.357,1.681,6.357-.483-10.707,4.124-11.76-.375,9.864-.375,9.864,4.787-10.919,8.23-10.137-3.879,8.242-3.879,8.242,7.785-8.745,10.12-7.477-4.7,7.563-4.7,7.563,8.384-4.44,9.138-2.781-6.483,5.25-6.483,5.25,10.9-2.736,9.329.139-8.447,3.548-8.447,3.548,10.958-1.328,8.74,1.284-8.939,3.05-8.939,3.05,7.083-1.183,5.012,1.139-7.357,2.606-7.357,2.606Z" transform="translate(-781.257 -148.518)" fill="#331832"/>
              <path id="Path_919600" data-name="Path 919600" d="M989.878,262.644c-.3-5.783,3.338-10.674,8.133-10.926s8.929,4.232,9.233,10.014-3.338,10.674-8.134,10.926-8.929-4.232-9.233-10.014" transform="translate(-778.85 -198.051)" fill="#bd7f58"/>
              <path id="Path_919601" data-name="Path 919601" d="M1027.781,297.639a.176.176,0,0,1,.019-.334,1.909,1.909,0,0,1,2.208.768.178.178,0,0,1-.035.247.194.194,0,0,1-.247-.035,3.018,3.018,0,0,0-1.834-.639.177.177,0,0,1-.111-.007" transform="translate(-808.6 -233.851)" fill="#080435"/>
              <path id="Path_919602" data-name="Path 919602" d="M1029.567,306.037c-.035.419-.31.738-.614.713s-.522-.386-.487-.8.31-.738.614-.713.522.386.487.8" transform="translate(-809.223 -240.164)" fill="#080435"/>
              <path id="Path_919603" data-name="Path 919603" d="M997.155,299.5a.128.128,0,0,1-.109-.069.212.212,0,0,1,.024-.247,1.236,1.236,0,0,1,1.8-.126.21.21,0,0,1,.048.242.13.13,0,0,1-.187.061,1.848,1.848,0,0,0-1.5.1.117.117,0,0,1-.082.036" transform="translate(-784.481 -235.041)" fill="#080435"/>
              <path id="Path_919604" data-name="Path 919604" d="M1002.554,307.216a.683.683,0,0,1-.3.893c-.291.092-.63-.158-.757-.559a.683.683,0,0,1,.3-.893c.291-.093.63.158.757.559" transform="translate(-787.971 -241.271)" fill="#080435"/>
              <path id="Path_919605" data-name="Path 919605" d="M1008.751,326.429a17.84,17.84,0,0,0,5.659-.593,2.737,2.737,0,0,1-2.974,2.784c-1.771,0-2.684-2.191-2.684-2.191" transform="translate(-793.714 -256.377)" fill="#fff"/>
              <path id="Path_919606" data-name="Path 919606" d="M984.631,261.728s-.017-5.055,6.442-4.749,8.864,10.07,10.231,9.614,3.216-5.6,2.752-7.565-2.623-7.393-11.278-7.279-8.383,2.665-9.211,5.219-.115,5.421,1.063,4.761" transform="translate(-773.617 -198.081)" fill="#92a5e6"/>
              <path id="Path_919607" data-name="Path 919607" d="M1055.254,300.44a1.7,1.7,0,1,1,.233-2.526,1.8,1.8,0,0,1-.233,2.526" transform="translate(-827.98 -234.015)" fill="#bd7f58"/>
              <path id="Path_919608" data-name="Path 919608" d="M983.591,282.13l0-.013-.011-.062a4.655,4.655,0,0,0-.044-.646l0-.014v0c-.024-.208-.05-.43-.088-.633a3.989,3.989,0,0,0-.136-.569c-.022-.117-.056-.217-.078-.335l-.014-.042c-.031-.1-.063-.2-.1-.3a6.882,6.882,0,0,0-1.852-3.021l0,0a2.9,2.9,0,0,0-.479-.378.015.015,0,0,0-.017-.013c-.014-.011-.03-.019-.044-.03l-.009-.006a4.551,4.551,0,0,0-.669-.333.506.506,0,0,0-.1-.027l-.014-.009,0,0a2.462,2.462,0,0,0-2.108.283c-.053.041-.11.066-.149.1h0l-.014,0c-1.245.916-1.9,2.909-1.8,5.081.006.122.017.256.023.377l0,.014a11.894,11.894,0,0,0,.2,1.256,6.746,6.746,0,0,0,.246.915,5.718,5.718,0,0,0,3.074,3.783,2.831,2.831,0,0,0,.913.166,3.961,3.961,0,0,0,.579-.077h.006l.009,0a2.826,2.826,0,0,0,.715-.33c1.336-.84,2.055-2.876,1.958-5.125m-7.147.439a.446.446,0,0,1-.041-.13l-.016-.088a7.232,7.232,0,0,1-.1-.8l0-.014a.577.577,0,0,1-.012-.227,6.169,6.169,0,0,1,1.262-4.616l0,0a3.31,3.31,0,0,1,.485-.389,2.088,2.088,0,0,1,1.032-.344l.03,0,.019,0s0,0,0,0l.023,0a1.641,1.641,0,0,1,.644.11h0l.016.011a.253.253,0,0,1,.144.034,2.936,2.936,0,0,1,.991.593v0l0,.011a6.472,6.472,0,0,1,1.836,2.932,10.15,10.15,0,0,1,.405,1.858l0,0v.011c.014.164.03.328.03.5l0,.014a1.09,1.09,0,0,1,.011.227v0l0,.012c.064,2.072-.583,3.913-1.8,4.684a2.079,2.079,0,0,1-.751.292h0a2.223,2.223,0,0,1-1.129-.1,5.362,5.362,0,0,1-2.834-3.553,4.856,4.856,0,0,1-.224-.8l-.023-.125Z" transform="translate(-767.829 -216.823)" fill="#764678"/>
              <g id="Group_1118186" data-name="Group 1118186" transform="translate(208.547 59.017)" opacity="0.3">
                <g id="Group_1118185" data-name="Group 1118185">
                  <g id="Group_1118184" data-name="Group 1118184" clip-path="url(#clip-path-9)">
                    <path id="Path_919609" data-name="Path 919609" d="M985.135,280.775c.718,3.036-.174,6.342-1.992,7.384s-3.874-.573-4.592-3.608.174-6.342,1.992-7.385,3.874.573,4.591,3.608" transform="translate(-978.304 -276.85)" fill="#fff"/>
                  </g>
                </g>
              </g>
              <g id="Group_1118189" data-name="Group 1118189" transform="translate(217.593 59.358)" opacity="0.3">
                <g id="Group_1118188" data-name="Group 1118188">
                  <g id="Group_1118187" data-name="Group 1118187" clip-path="url(#clip-path-10)">
                    <path id="Path_919610" data-name="Path 919610" d="M1028.354,282.4c.716,3.022-.358,6.282-2.4,7.282s-4.275-.639-4.991-3.66.358-6.282,2.4-7.282,4.275.638,4.991,3.66" transform="translate(-1020.742 -278.447)" fill="#fff"/>
                  </g>
                </g>
              </g>
              <path id="Path_919611" data-name="Path 919611" d="M1026.189,281.985v-.009a8.144,8.144,0,0,0-.044-2.211v0a1.721,1.721,0,0,0-.038-.281c-.026-.149-.072-.307-.1-.453a7.875,7.875,0,0,0-.658-1.75l0,0a4.734,4.734,0,0,0-2.138-2.188,3.152,3.152,0,0,0-2.785,0c-.081.044-.161.089-.242.134l-.006,0a3.284,3.284,0,0,0-.321.21l0,0a6.62,6.62,0,0,0-2.321,5.223l0,0v.011a5.751,5.751,0,0,0,0,.715h0a1.392,1.392,0,0,0,.031.253.016.016,0,0,0-.013.017,8.907,8.907,0,0,0,.214,1.239,6.45,6.45,0,0,0,1.678,3.145l0,.013h0a4.307,4.307,0,0,0,1.121.8.294.294,0,0,0,.08.03h0a2.044,2.044,0,0,0,.328.138h0a3.282,3.282,0,0,0,1,.149,3,3,0,0,0,1.37-.329,3.038,3.038,0,0,0,.427-.247,2.139,2.139,0,0,0,.4-.3l0,0a1.329,1.329,0,0,0,.253-.258,3.444,3.444,0,0,0,.316-.347,5.211,5.211,0,0,0,.8-1.274.369.369,0,0,0,.03-.081,6.475,6.475,0,0,0,.424-1.249l0-.016a7.443,7.443,0,0,0,.2-1.071Zm-8.063.829a8.736,8.736,0,0,1-.17-1.079l0-.016a1.665,1.665,0,0,1-.037-.28v0c-.014-.241-.011-.469-.011-.713l0-.016v0a6.126,6.126,0,0,1,2.371-5.107l.01,0h.006a2.755,2.755,0,0,1,.286-.173c.028-.006.044-.008.055-.023a.006.006,0,0,0,0,0,3.157,3.157,0,0,1,1.154-.258,2.968,2.968,0,0,1,1.256.285,4.216,4.216,0,0,1,1.584,1.411,1.1,1.1,0,0,1,.144.213l0,0a5.047,5.047,0,0,1,.358.652l.011.025a6.719,6.719,0,0,1,.488,1.4,8.443,8.443,0,0,1,.155.838v.014a7.389,7.389,0,0,1,.067,1.432h0a8.512,8.512,0,0,1-.2,1.5l0,.012v0a8.434,8.434,0,0,1-.425,1.236c-.01.031-.022.048-.031.081a5.083,5.083,0,0,1-1.207,1.7h-.006l-.008,0a3.638,3.638,0,0,1-.81.561,2.809,2.809,0,0,1-2.041.15h-.006a1.94,1.94,0,0,1-.4-.152.909.909,0,0,1-.149-.077h0a4.084,4.084,0,0,1-.657-.452l0,0a1.139,1.139,0,0,1-.146-.125s-.006,0-.009,0h0c-.006,0-.011-.016-.023-.022l0-.009,0,0-.009-.008,0,0a.329.329,0,0,0-.041-.04,6.291,6.291,0,0,1-1.548-2.94" transform="translate(-800.612 -216.189)" fill="#764678"/>
              <path id="Path_919612" data-name="Path 919612" d="M1007.3,303.5a.354.354,0,0,0,.235-.055,3.223,3.223,0,0,1,2.6-.137.37.37,0,0,0,.451-.229.35.35,0,0,0-.229-.446,3.853,3.853,0,0,0-3.206.207.359.359,0,0,0-.105.494.345.345,0,0,0,.255.165" transform="translate(-792.329 -237.928)" fill="#764678"/>
              <path id="Path_919613" data-name="Path 919613" d="M815.284,1037.327a53.819,53.819,0,0,0-5.6,6.786c-6.927,9.31-8.933,26.328-10.547,41.667q-.158,1.5-.312,2.981-.147,1.39-.291,2.752H787.823a13.311,13.311,0,0,1-3.209-.389v0c2.666-24.01,10.3-46.634,20.61-64.306q.822-1.411,1.667-2.78c.463-.749,2.632,1.149,4.691,3.167.088.086.176.172.263.26.5.5.992.992,1.445,1.452a9.7,9.7,0,0,1,2.7,5.909,3.282,3.282,0,0,1-.7,2.5" transform="translate(-617.356 -805.609)" fill="#ffb27d"/>
              <path id="Path_919614" data-name="Path 919614" d="M887.488,1018.35a130.69,130.69,0,0,1-1.083,15.788,0,0,0,0,1,0,0,314.206,314.206,0,0,1-5.734,31.352H813.3c.035-.127.684-3.091.716-3.217a.006.006,0,0,1,0,0c6.377-23.838,10.283-43.716,17.2-56.407.008-.017.017-.036.028-.053.086-.159.172-.314.26-.469.062-.112.124-.226.189-.336,0,0,0,0,0,0a40.447,40.447,0,0,1,2.456-3.82c5.506-7.551,12.869-11.322,24-10.184a47.506,47.506,0,0,1,4.741.734,56.4,56.4,0,0,1,6.567,1.736l.09.031c.262.084.518.176.771.264l0,0q.55.2,1.077.4l.029.012c14.906,5.742,15.4,15.445,15.4,15.445,0,.015.005.031.009.048q.152.909.267,1.877c.029.243.057.488.081.735.193,1.888.283,3.923.289,6.068" transform="translate(-639.93 -779.59)" fill="#050c68"/>
              <path id="Path_919615" data-name="Path 919615" d="M945.453,1008.861l-16.883,5.4s-33.911-3.584-42.464-6.8-9.692-10.186-9.692-10.186a49.688,49.688,0,0,1,27.876-7.3c1.553.052,3.149.181,4.787.4a46.906,46.906,0,0,1,8.06,1.767c19.835,6.312,28.317,16.722,28.317,16.722" transform="translate(-689.586 -778.918)" fill="#050c68"/>
              <path id="Path_919616" data-name="Path 919616" d="M1026.083,917.965l-.632-6.024-.184-1.754-1.082-10.311-2.313,9.584-1.388,5.753-.439,1.821c-.3,1.236-1.11,1.347-2.249,2.247-.461.364-3.386,2.549-.9,4.291,3.091,2.17,9.876,1.159,12.874-1.332-.018-.008-3.478-2.328-3.682-4.275" transform="translate(-799.342 -708.048)" fill="#ffb27d"/>
              <path id="Path_919617" data-name="Path 919617" d="M1135.669,1075.135c.923,2.083-2.282,5.584-7.159,7.819s-9.578,2.358-10.5.275,2.282-5.583,7.159-7.819,9.578-2.358,10.5-.275" transform="translate(-879.556 -844.778)" fill="#331832"/>
              <path id="Path_919618" data-name="Path 919618" d="M1025,869.673a13.011,13.011,0,0,0-1.961,5.034c-.508,3.027,5.022-2.746,5.022-2.746Z" transform="translate(-804.933 -684.283)" fill="#5c305d"/>
              <path id="Path_919619" data-name="Path 919619" d="M1014.421,874.354c2.821-5.137,8.561-7.406,12.822-5.067s5.428,8.4,2.607,13.538-8.561,7.406-12.822,5.067-5.428-8.4-2.607-13.538" transform="translate(-796.964 -683.255)" fill="#ffb27d"/>
              <path id="Path_919620" data-name="Path 919620" d="M1037.267,853.55l-3.809-1.959a3.1,3.1,0,0,1-1.637-2.134c-.317-1.59-1.041-2.625-4.8-3.928-4.757-1.651-6.764-5.652-6.314-8.3.459-2.705,3.519-3.468,5.409-1.356s2.02-1.21,4.405-.639c4.458,1.068,3.979,4.639,7.486,5.883,4.6,1.631,11.389,8.254,4.414,14.747Z" transform="translate(-803.074 -656.73)" fill="#331832"/>
              <path id="Path_919621" data-name="Path 919621" d="M1054.893,912.542a.178.178,0,0,1,.194-.277,1.932,1.932,0,0,1,1.491,1.837.179.179,0,0,1-.161.194c-.1.009-.164-.067-.194-.161a3.053,3.053,0,0,0-1.237-1.527.177.177,0,0,1-.092-.065" transform="translate(-829.992 -717.79)" fill="#080435"/>
              <path id="Path_919622" data-name="Path 919622" d="M1050.475,921.089a.588.588,0,1,1,.01-.952.691.691,0,0,1-.01.952" transform="translate(-825.685 -723.923)" fill="#080435"/>
              <path id="Path_919623" data-name="Path 919623" d="M1026.864,898.632a.13.13,0,0,1-.058-.118.215.215,0,0,1,.152-.2,1.251,1.251,0,0,1,1.62.853.212.212,0,0,1-.087.234.132.132,0,0,1-.193-.047,1.87,1.87,0,0,0-1.344-.71.119.119,0,0,1-.089-.012" transform="translate(-807.92 -706.769)" fill="#080435"/>
              <path id="Path_919624" data-name="Path 919624" d="M1026.951,907.49c-.1.413-.432.686-.731.61a.691.691,0,0,1-.354-.884c.1-.413.431-.686.731-.611a.691.691,0,0,1,.354.884" transform="translate(-807.156 -713.333)" fill="#080435"/>
              <path id="Path_919625" data-name="Path 919625" d="M1086.784,916.247s-5.046,4.847-9.1,3.767c0,0,4.9-3.283-.655-8.612,0,0,6.455,1.413,9.756,4.845" transform="translate(-847.436 -717.117)" fill="#5c305d"/>
              <path id="Path_919626" data-name="Path 919626" d="M1082.856,926.885a1.722,1.722,0,1,1,1.547-2.05,1.822,1.822,0,0,1-1.547,2.05" transform="translate(-850.259 -726.626)" fill="#ffb27d"/>
              <path id="Path_919627" data-name="Path 919627" d="M1024.778,911.4s-1.4,5.171-2.78,5.715-8.2-1.651-10.849-4.067a6.959,6.959,0,0,0,2.795,8.612,10.115,10.115,0,0,0,3.189,1.23c2.328.468,4.8.392,6.485-1.279.513-.509,1.193-4.6,1.193-4.6s.567-2.338,2.309-2.99a6.792,6.792,0,0,0-2.341-2.617" transform="translate(-795.186 -717.117)" fill="#5c305d"/>
              <path id="Path_919628" data-name="Path 919628" d="M1049.761,837.139a1.779,1.779,0,0,1-.694-.155l.094-.221a1.1,1.1,0,0,0,1.518-.409l.214.108a1.322,1.322,0,0,1-1.132.678" transform="translate(-825.435 -658.066)" fill="#331832"/>
              <path id="Path_919629" data-name="Path 919629" d="M1032.673,848.635c-.185-.141-4.522-3.507-3.7-6.233.236-.789.571-1.25,1.02-1.408.72-.254,1.564.325,2.31.836l.321.219-.066.1c-.1-.068-.213-.144-.323-.219-.724-.494-1.539-1.052-2.2-.822-.412.144-.72.579-.945,1.328-.794,2.648,3.618,6.071,3.662,6.106Z" transform="translate(-809.541 -661.67)" fill="#fff"/>
              <path id="Path_919630" data-name="Path 919630" d="M1085.539,854.238c-5.193-1.255-6.492-4.967-6.5-5l.113-.038c.013.035,1.294,3.686,6.419,4.924Z" transform="translate(-849.015 -668.171)" fill="#fff"/>
              <path id="Path_919631" data-name="Path 919631" d="M1027.113,939.468a.774.774,0,1,0,1.048-.618.873.873,0,0,0-1.048.618" transform="translate(-808.097 -738.681)" fill="#fff"/>
              <path id="Path_919632" data-name="Path 919632" d="M1156.212,1139.3a13.283,13.283,0,0,1-4.216.682h-9.7a182.735,182.735,0,0,0-3.7-31.352,0,0,0,0,0,0,0c-.515-2.346-1.092-4.65-1.739-6.892a57.636,57.636,0,0,0-2.594-7.721c-.086-.194-.174-.393-.265-.6-.663-1.471.58-3.987,2.664-5.775a9.448,9.448,0,0,1,2.155-1.4c.16-.074.326-.143.493-.2a10.211,10.211,0,0,1,4.09-.546c1.753.1,3.207.578,3.534,1.1a9.628,9.628,0,0,1,.517.948,69.622,69.622,0,0,1,2.916,8.46c3.68,12.021,5.609,26.287,5.85,43.3" transform="translate(-892.117 -854.076)" fill="#ffb27d"/>
              <path id="Path_919633" data-name="Path 919633" d="M1203.224,1243.42a1.978,1.978,0,0,1-1.574-.885,3.88,3.88,0,0,1-.714-2.14c-.079-1.725.854-3.175,2.078-3.232h.072c1.2,0,2.219,1.337,2.294,3.027.08,1.723-.853,3.173-2.079,3.229Zm-.135-5.671a.322.322,0,0,0-.047,0c-.9.04-1.582,1.215-1.519,2.615a3.3,3.3,0,0,0,.6,1.815,1.306,1.306,0,0,0,1.152.65c.9-.042,1.584-1.215,1.521-2.613-.062-1.377-.823-2.469-1.705-2.469" transform="translate(-944.926 -973.435)" fill="#ec865c"/>
              <path id="Path_919634" data-name="Path 919634" d="M896.894,1034.755l-.348-.174c1.684-3.357,5.849-7.137,5.892-7.175l.261.292c-.041.035-4.152,3.769-5.8,7.057" transform="translate(-705.428 -808.392)" fill="#331832"/>
              <path id="Path_919635" data-name="Path 919635" d="M436.081,423.5a13.117,13.117,0,0,1-5.161-2.333c-5.127-3.79-8.182-11.181-9.9-23.964-.793-5.888-3.9-13.152-3.928-13.225l12.681-5.651c.159.368,3.9,9.1,4.96,16.944.6,4.441,3.285-23.076,5.817-25.5,1.552-1.484,7.091,1.6,7.091,1.6a141.368,141.368,0,0,1,2.825,22.224,109.131,109.131,0,0,1-.279,16.349,27.2,27.2,0,0,1-1.615,7.069c-1.987,4.9-5.434,6.192-7.312,6.528a13.6,13.6,0,0,1-5.174-.042" transform="translate(-328.176 -290.633)" fill="#ffb27d"/>
              <path id="Path_919636" data-name="Path 919636" d="M506.187,607.619c-.14,0-.282-.007-.428-.016a4.542,4.542,0,0,1-1.821-.5c-.521-.294-.792-.666-.763-1.052.059-.753,1.282-1.238,2.791-1.137a4.543,4.543,0,0,1,1.821.5c.521.294.793.666.764,1.052-.053.68-1.059,1.153-2.363,1.153m-.65-2.359c-1.16,0-1.968.4-2,.819-.019.233.192.49.578.706a4.132,4.132,0,0,0,1.671.455c1.372.118,2.366-.339,2.4-.8.019-.233-.193-.49-.579-.706a4.132,4.132,0,0,0-1.671-.454c-.138-.012-.271-.016-.4-.016" transform="translate(-395.911 -475.953)" fill="#e9845c"/>
              <path id="Path_919637" data-name="Path 919637" d="M487.429,505.29a.181.181,0,0,1-.181-.172c0-.08-.317-7.848,2.978-13.655a.181.181,0,0,1,.315.179c-3.244,5.718-2.934,13.382-2.931,13.457a.182.182,0,0,1-.173.191Z" transform="translate(-383.373 -386.625)" fill="#e9845c"/>
              <path id="Path_919638" data-name="Path 919638" d="M193.74,319.681a3.108,3.108,0,0,0-2.2-3.961c-3.179-1.211-1.548,6.539-9.573,5.082s-5.572,2.218-8.375,4.527-13.752-4.381-18.631,5.231,1.734,17.475,15.828,19.1,7.886,9.1,20.2,5.647,8.55-23.2,5.426-26.506-2.679-9.119-2.679-9.119" transform="translate(-120.676 -248.316)" fill="#764678"/>
              <path id="Path_919639" data-name="Path 919639" d="M274.115,435.965a12.252,12.252,0,0,1-1.524,1.968H257.434a1.2,1.2,0,0,0-1.187,1.331,8.992,8.992,0,0,1,.053.969,8.7,8.7,0,1,1-17.383-.639,1.534,1.534,0,0,0-1.519-1.662H218.359c.062-.9.16-2.291.3-4.059.291-3.655.76-8.93,1.44-14.913v0c.031-.267.062-.534.093-.8.007-.052.014-.105.019-.157A267.927,267.927,0,0,1,224.5,391.38c.035-.155.071-.308.105-.463v0c.61-2.67,1.269-5.215,1.984-7.562.105-.346.212-.689.32-1.025.363-1.142.742-2.23,1.135-3.257q.145-.38.295-.749c.291-.727.591-1.421.9-2.075,0,0,2.761-7.246,13.5-8.064a27.281,27.281,0,0,1,3.463-.038q1.075.049,2.234.184c1.65.191,3.326.281,4.975.4,6.424.474,12.461,1.428,15.123,10.778q.264.92.48,1.951c.479,2.273.951,4.759,1.4,7.421a276.235,276.235,0,0,1,3.362,30.668v0c.291,5.415.424,10.94.348,16.415" transform="translate(-171.811 -289.637)" fill="#366f90"/>
              <path id="Path_919640" data-name="Path 919640" d="M218,370.234l9.1,8.885s35.971,12.4,41.768,7.31c3.979-3.492,6.372-8.732,5.343-11.629a38.041,38.041,0,0,0-25.33-10.672,52.5,52.5,0,0,1-6.132-.438C229.8,361.917,218,370.234,218,370.234" transform="translate(-171.53 -285.967)" fill="#366f90"/>
              <path id="Path_919641" data-name="Path 919641" d="M330.324,301.5a4.768,4.768,0,0,0,4.1-2.564l2.524-4.842.732-1.405,4.307-8.263-1.331,8.812-.8,5.289-.228,1.508a2.421,2.421,0,0,0,1.766,2.707l.02.006c.561,1.116,1.282,3.353-1.452,4-3.212.763-8.079-2.139-9.662-5.247h.028" transform="translate(-259.886 -223.798)" fill="#ffb27d"/>
              <path id="Path_919642" data-name="Path 919642" d="M363.707,325.893a6.642,6.642,0,0,0,2.413,4.772l.02-.014.8-5.289c-.894-.415-3.234.482-3.233.531" transform="translate(-286.174 -255.918)" fill="#331832"/>
              <path id="Path_919643" data-name="Path 919643" d="M358.756,248.743c-1.439-5.5-6.168-8.986-10.564-7.793s-6.793,6.615-5.354,12.112,6.169,8.986,10.564,7.793,6.793-6.615,5.354-12.112" transform="translate(-269.426 -189.402)" fill="#ffb27d"/>
              <path id="Path_919644" data-name="Path 919644" d="M376.963,286.556a.191.191,0,0,0-.071-.353,2.021,2.021,0,0,0-2.205,1.165.192.192,0,0,0,.074.258.2.2,0,0,0,.254-.076,3.2,3.2,0,0,1,1.831-.97.185.185,0,0,0,.116-.025" transform="translate(-294.797 -225.169)" fill="#080435"/>
              <path id="Path_919645" data-name="Path 919645" d="M381.1,295.762c.1.441.439.739.755.664a.741.741,0,0,0,.39-.935c-.1-.441-.439-.738-.755-.663a.74.74,0,0,0-.39.935" transform="translate(-299.835 -231.969)" fill="#080435"/>
              <path id="Path_919646" data-name="Path 919646" d="M407.792,281.726a.188.188,0,0,0,.139-.1.191.191,0,0,0-.071-.258,2.006,2.006,0,0,0-2.475.227.193.193,0,0,0-.028.267.2.2,0,0,0,.263.028,3.168,3.168,0,0,1,2.055-.19.184.184,0,0,0,.117.022" transform="translate(-318.914 -221.135)" fill="#080435"/>
              <path id="Path_919647" data-name="Path 919647" d="M408.721,290.378c-.073.447.128.853.448.906s.638-.267.711-.715-.128-.853-.448-.906-.638.267-.711.715" transform="translate(-321.581 -227.911)" fill="#080435"/>
              <path id="Path_919648" data-name="Path 919648" d="M343.511,229.964c.758,1.724,4.917,1.965,7.862,1.331,3.674-.79,4.619,3.954,5.472,1.856s1.087-8.205-2.834-10.827-13.592-.787-14.447,2.445c-1.259,4.764,3.3,3.719,3.947,5.194" transform="translate(-267.007 -173.948)" fill="#764678"/>
              <path id="Path_919649" data-name="Path 919649" d="M323.293,247.43s2.566-.046,2.745,1.074,2.414,2.721,1,3.842-1.685,1.638-1.363,2.843c.224.84-.742,3.092-.82,4.921a5.952,5.952,0,0,0,.806,2.234,8.213,8.213,0,0,1-7.379-7.76c-.491-4.769,3.327-7.363,5.013-7.154" transform="translate(-250.398 -194.676)" fill="#764678"/>
              <path id="Path_919650" data-name="Path 919650" d="M341.816,291.651a2.01,2.01,0,0,0,2.868-.564,2.3,2.3,0,0,0-1.224-2.838,2.01,2.01,0,0,0-2.868.564,2.3,2.3,0,0,0,1.224,2.838" transform="translate(-267.862 -226.531)" fill="#ffb27d"/>
              <path id="Path_919651" data-name="Path 919651" d="M233.11,405.91c-.847,1.145-5.04-.593-9.365-3.881s-7.145-6.881-6.3-8.025,5.04.593,9.365,3.881,7.145,6.88,6.3,8.025" transform="translate(-170.976 -309.737)" fill="#080435"/>
              <path id="Path_919652" data-name="Path 919652" d="M207.608,594.519s5.523-4.369,9.551-3.625,8.612,4.783,6.017,4.86a26.612,26.612,0,0,1-5.934-.753s7.052,2.114,5.847,3.574-7.322-.439-7.322-.439,8.193,3.195,6.615,4.2-7.785-1.466-7.785-1.466,7.5,3.281,5.645,4.406-6.185-2.752-7.39-1.293-3.715,7.34-8.118,4.446Z" transform="translate(-161.09 -464.865)" fill="#ffb27d"/>
              <path id="Path_919653" data-name="Path 919653" d="M251.707,608.267a.159.159,0,0,1-.065-.014c-.02-.012-1.859-.866-2.875-.25a.146.146,0,0,1-.21-.052.15.15,0,0,1,.052-.207c1.16-.706,3.082.193,3.163.233a.15.15,0,0,1,.073.2.154.154,0,0,1-.138.087" transform="translate(-195.554 -477.978)" fill="#e9845c"/>
              <path id="Path_919654" data-name="Path 919654" d="M242.63,622.884a.146.146,0,0,1-.068-.016,5.041,5.041,0,0,0-3.484-.28.158.158,0,0,1-.2-.092.153.153,0,0,1,.092-.2,5.23,5.23,0,0,1,3.724.294.153.153,0,0,1-.068.289" transform="translate(-187.953 -489.46)" fill="#e9845c"/>
              <path id="Path_919655" data-name="Path 919655" d="M237.944,635.493a.134.134,0,0,1-.066-.016c-.021-.01-2.2-1.029-3.23-.282a.149.149,0,0,1-.213-.033.151.151,0,0,1,.034-.212c1.17-.859,3.443.207,3.54.254a.151.151,0,0,1,.072.2.154.154,0,0,1-.138.087" transform="translate(-184.438 -499.333)" fill="#e9845c"/>
              <path id="Path_919656" data-name="Path 919656" d="M530.862,364.614s6.626,1.1,9.446-1.329,4.614-7.7,2.551-6.567a24.524,24.524,0,0,0-4.307,3.317s4.578-4.9,2.988-5.483-5.531,3.709-5.531,3.709S541,352,539.319,351.936s-5.439,4.725-5.439,4.725,4.415-6.016,2.461-6.041-3.616,5-5.206,4.408-7.784-2.663-8.151,1.963Z" transform="translate(-411.498 -275.877)" fill="#ffb27d"/>
              <path id="Path_919657" data-name="Path 919657" d="M584.946,395.99h-.02a.137.137,0,1,1,0-.273h.018c1.068,0,2.113-1.5,2.123-1.516a.137.137,0,1,1,.226.155c-.046.068-1.139,1.634-2.349,1.634" transform="translate(-460.13 -310.122)" fill="#e9845c"/>
              <path id="Path_919658" data-name="Path 919658" d="M570.943,387.99a.136.136,0,0,1-.026-.271,4.618,4.618,0,0,0,2.6-1.819.146.146,0,0,1,.191-.04.138.138,0,0,1,.038.191,4.81,4.81,0,0,1-2.78,1.937.1.1,0,0,1-.026,0" transform="translate(-449.126 -303.59)" fill="#e9845c"/>
              <path id="Path_919659" data-name="Path 919659" d="M561.845,380.359a1.2,1.2,0,0,1-.127-.007.137.137,0,1,1,.026-.273c1.137.094,2.389-1.69,2.4-1.707a.133.133,0,0,1,.191-.035.137.137,0,0,1,.035.191c-.053.077-1.274,1.831-2.527,1.831" transform="translate(-441.877 -297.666)" fill="#e9845c"/>
              <path id="Path_919660" data-name="Path 919660" d="M386.174,314.533l-.177-.348c.121-.061,2.955-1.452,4.476-.388l-.226.32c-1.335-.939-4.046.405-4.073.417" transform="translate(-303.714 -246.59)" fill="#331832"/>
              <path id="Path_919661" data-name="Path 919661" d="M138.661,458.373c-6.8-3.281-16.631-10.871-17.772-21.546-.878-8.214,2.733-17.21,10.735-26.738a49.363,49.363,0,0,1,11.477-9.981s2.15-.333,6.535,2.859c5.286,3.849,5.874,7.094,5.874,7.094-5.719,4.558-19.316,13.829-19.485,21.768a12.619,12.619,0,0,0,7.519,11.569Z" transform="translate(-95.017 -314.808)" fill="#ffb27d"/>
              <path id="Path_919662" data-name="Path 919662" d="M667.158,807.4a27.714,27.714,0,0,1-5.3,3.57s-6.768-4.608-6.7-5.427c.167-1.887,1.337-5.531,1.54-7.414.088-.816.573-3.541,1.4-3.559.716-.015,1.36,2.337,1.532,3.493,3.557-4.078,10.581-8.428,3.751.661l.015.011c.776-.855,5.094-5.611,5.833-4.124.652,1.313-2.3,4.846-3.558,6.267l.036.04c1.408-1.332,4.89-4.458,5.107-3.012.272,1.815-2.868,5.767-2.868,5.767s4.123-4.959,4.694-2.9c.389,1.4-3.584,4.9-4.906,6.187a3.05,3.05,0,0,1-.572.442" transform="translate(-515.497 -624.237)" fill="#ffb27d"/>
              <path id="Path_919663" data-name="Path 919663" d="M390.875,1290.371H360.763l.32-5.937.467-8.667.215-3.98.01-.186.611.093s0,0,0,0l15.161,2.292L390.2,1275.9s1.114,3.532.679,14.472" transform="translate(-283.858 -1000.532)" fill="#68a1bf"/>
              <path id="Path_919664" data-name="Path 919664" d="M245.7,1268.651c.829,3.542,14.054,7.256,29.884,3.5s28.182-7.744,27.353-11.286-14.526-5.293-30.357-1.54-27.71,5.781-26.88,9.323" transform="translate(-193.292 -989.223)" fill="#331832"/>
              <path id="Path_919665" data-name="Path 919665" d="M301.5,1284.031l-7.922,14.472H248.034l1.605-8.136a.449.449,0,0,1,.024-.078c.467-1.307,5.348-2.981,6.615-3.293,3.987-.983,10.108-2.139,16.573-3.1,5.447-.808,11.138-1.476,16-1.781,7.433-.47,12.927-.1,12.647,1.912" transform="translate(-195.16 -1008.664)" fill="#68a1bf"/>
              <path id="Path_919666" data-name="Path 919666" d="M298.323,992.651c-2.442-12.72-9.762-23.935-20-23.849-2.431.02-13.135,2.455-15.352,3.344-16.747,6.721-15,10.652-15.279,27.7-.268,16.362-1.92,40.529-1.867,41.2,30.512-13.657,57.242-7.124,57.242-7.124.224-24.205-4.256-40.064-4.74-41.274" transform="translate(-193.418 -762.28)" fill="#634419"/>
              <path id="Path_919667" data-name="Path 919667" d="M338.442,895.138c2.674,3.084,5.676,4.076,9.591,4.076,5.927,0,3.164-6.056,3.164-6.056a2.169,2.169,0,0,1-2.373-2.206l-.145-1.77-.071-.877-.234-2.8-.208-2.517-.855-10.323-2.733,10.511-.465,1.786-1.6,6.161a5.637,5.637,0,0,1-4.039,4.009c-.009,0-.021.006-.03.008" transform="translate(-266.296 -686.637)" fill="#ffb27d"/>
              <path id="Path_919668" data-name="Path 919668" d="M365.043,930.346s1.749,3.049,4.5,3.346l-.234-2.8c-1.714-.337-4.261-.543-4.261-.543" transform="translate(-287.226 -732.022)" fill="#331832"/>
              <path id="Path_919669" data-name="Path 919669" d="M345.084,794.459s-1.094-7.764-8-6.689-4.073,5.728-4.959,7.333,3.194,4.6,6.563,4.269,6.4-4.912,6.4-4.912" transform="translate(-261.229 -619.759)" fill="#331832"/>
              <path id="Path_919670" data-name="Path 919670" d="M315.47,890.911s1.164,1.3,1.959,4.82c1.162,5.152,7.327,4.236,7.953,2.248.077-.246-4.267-7.731-4.267-7.731l-2.174-.081Z" transform="translate(-248.221 -700.409)" fill="#331832"/>
              <path id="Path_919671" data-name="Path 919671" d="M343.962,833.066c-3.157-5.814-9.569-8.447-14.322-5.88s-6.047,9.361-2.89,15.175,9.57,8.447,14.322,5.88,6.047-9.361,2.89-15.175" transform="translate(-255.737 -650.08)" fill="#ffb27d"/>
              <path id="Path_919672" data-name="Path 919672" d="M321.538,819.842c-.064.452,4.232,5.137-5.185,11.894s-9.948-8.7-2.631-13c10.565-6.219,16.037.12,16.406,3.266s-8.59-2.156-8.59-2.156" transform="translate(-242.899 -642.13)" fill="#331832"/>
              <path id="Path_919673" data-name="Path 919673" d="M329.961,878.54s-1.788,6.556,2.046,10.2c0,0-3.809-1.3-4.389-2.244a42.24,42.24,0,0,1-1.844-4.788Z" transform="translate(-256.327 -691.26)" fill="#331832"/>
              <path id="Path_919674" data-name="Path 919674" d="M334.335,890.223c1.476.4,2.89-.245,3.159-1.433a2.658,2.658,0,0,0-2.186-2.869c-1.476-.4-2.89.245-3.159,1.433a2.658,2.658,0,0,0,2.186,2.869" transform="translate(-261.309 -696.976)" fill="#ffb27d"/>
              <path id="Path_919675" data-name="Path 919675" d="M368.745,877.162a.22.22,0,0,0-.177-.379,2.419,2.419,0,0,0-2.23,1.929.221.221,0,0,0,.156.271.246.246,0,0,0,.273-.156,3.828,3.828,0,0,1,1.851-1.6.223.223,0,0,0,.128-.06" transform="translate(-288.239 -689.876)" fill="#080435"/>
              <path id="Path_919676" data-name="Path 919676" d="M375.333,887.993a.732.732,0,1,0,.2-1.165.859.859,0,0,0-.2,1.165" transform="translate(-295.218 -697.738)" fill="#080435"/>
              <path id="Path_919677" data-name="Path 919677" d="M402.453,863.59a.223.223,0,0,0,.134-.146.219.219,0,0,0-.152-.272,2.423,2.423,0,0,0-2.8.942.221.221,0,0,0,.04.31.245.245,0,0,0,.312-.042,3.838,3.838,0,0,1,2.323-.785.223.223,0,0,0,.14-.007" transform="translate(-314.411 -679.066)" fill="#080435"/>
              <path id="Path_919678" data-name="Path 919678" d="M405.97,874.109c.038.526.38.929.764.9s.665-.479.627-1.005-.38-.929-.764-.9-.665.479-.627,1" transform="translate(-319.426 -686.982)" fill="#080435"/>
              <g id="Group_1118192" data-name="Group 1118192" transform="translate(75.292 184.263)" opacity="0.3">
                <g id="Group_1118191" data-name="Group 1118191">
                  <g id="Group_1118190" data-name="Group 1118190" clip-path="url(#clip-path-11)">
                    <path id="Path_919679" data-name="Path 919679" d="M353.33,869.572c.57,2.922,2.81,5.339,5,5.4s3.507-2.263,2.937-5.185-2.81-5.339-5-5.4-3.507,2.263-2.937,5.185" transform="translate(-353.197 -864.386)" fill="#fff"/>
                  </g>
                </g>
              </g>
              <g id="Group_1118195" data-name="Group 1118195" transform="translate(84.511 181.286)" opacity="0.3">
                <g id="Group_1118194" data-name="Group 1118194">
                  <g id="Group_1118193" data-name="Group 1118193" clip-path="url(#clip-path-12)">
                    <path id="Path_919680" data-name="Path 919680" d="M396.79,855.5c.879,2.787,3.173,5.031,5.124,5.014s2.819-2.291,1.939-5.078-3.173-5.031-5.124-5.014-2.819,2.291-1.939,5.078" transform="translate(-396.447 -850.424)" fill="#fff"/>
                  </g>
                </g>
              </g>
              <path id="Path_919681" data-name="Path 919681" d="M360.47,866.34c0-.015-.005-.029-.009-.045a7.939,7.939,0,0,0-.479-1.591l0,0a6.485,6.485,0,0,0-.289-.629,6.31,6.31,0,0,0-4.078-3.47,3.7,3.7,0,0,0-.6-.065,3.046,3.046,0,0,0-2.453,1.113c-.033.039-.065.079-.1.12a5.212,5.212,0,0,0-.9,3.763c.021.224.057.446.1.673.026.131.055.264.088.394,0,0,0,0,0,.005a7.7,7.7,0,0,0,.358,1.123,8.147,8.147,0,0,0,.407.866c.074.134.152.267.234.393l0,0v0a6.709,6.709,0,0,0,2.664,2.539c.1.05.2.095.3.136a3.854,3.854,0,0,0,1.385.3,3.076,3.076,0,0,0,1.213-.212l.04-.015a3.126,3.126,0,0,0,.3-.146,3.267,3.267,0,0,0,.894-.739,4.739,4.739,0,0,0,1.026-3.012,7.564,7.564,0,0,0-.12-1.5m-.252,1.493a5.18,5.18,0,0,1-.312,1.7l0,.005a.006.006,0,0,0,0,.005.029.029,0,0,0,0,.009,3.536,3.536,0,0,1-.613,1.063,2.746,2.746,0,0,1-.766.641c-.074.04-.148.078-.226.11a2.754,2.754,0,0,1-1.171.229,3.548,3.548,0,0,1-1.428-.343c-.059-.026-.117-.055-.176-.084a6.506,6.506,0,0,1-2.7-2.8v0s0,0,0,0l0,0c-.105-.2-.205-.413-.3-.627s-.165-.41-.234-.624l-.005-.016v0a7.029,7.029,0,0,1-.246-.956,6.329,6.329,0,0,1-.11-.9v0a4.368,4.368,0,0,1-.012-.494.1.1,0,0,1,0-.029v-.052a5.346,5.346,0,0,1,.095-.914,4.119,4.119,0,0,1,.658-1.626c.057-.081.117-.158.179-.232a2.69,2.69,0,0,1,2.163-.98,2.8,2.8,0,0,1,.446.043h0a5.857,5.857,0,0,1,3.927,3.327s0,0,0,0a6.9,6.9,0,0,1,.289.637s0,0,0,0a8.089,8.089,0,0,1,.418,1.426c0,.005,0,.012,0,.017a6.744,6.744,0,0,1,.121,1.469" transform="translate(-276.595 -677.095)" fill="#68a1bf"/>
              <path id="Path_919682" data-name="Path 919682" d="M397.6,855.194a8.634,8.634,0,0,1-.878-1.769l-.009,0-.016,0-.022,0-.1,0c.062.146.124.288.191.431.022.046.045.093.069.139l.01.019c.033.065.065.129.1.193.009.019.017.036.027.055.033.06.067.12.1.179a.343.343,0,0,1,.017.031c.039.069.081.138.122.205.014.022.026.043.04.062s.026.041.04.062a0,0,0,0,1,0,0l.046.072c.045.065.09.131.134.195.014.022.029.043.043.065s.036.052.053.076.031.045.048.065l.036.048.012.017a.137.137,0,0,0,.012.017c.052.071.1.138.158.207a0,0,0,0,1,0,0h0l0,0c-.086-.119-.171-.241-.248-.367m0,0a8.634,8.634,0,0,1-.878-1.769l-.009,0-.016,0-.022,0-.1,0c.062.146.124.288.191.431.022.046.045.093.069.139l.01.019c.033.065.065.129.1.193.009.019.017.036.027.055.033.06.067.12.1.179a.343.343,0,0,1,.017.031c.039.069.081.138.122.205.014.022.026.043.04.062s.026.041.04.062a0,0,0,0,1,0,0l.046.072c.045.065.09.131.134.195.014.022.029.043.043.065s.036.052.053.076.031.045.048.065l.036.048.012.017a.137.137,0,0,0,.012.017c.052.071.1.138.158.207a0,0,0,0,1,0,0h0l0,0c-.086-.119-.171-.241-.248-.367m0,0a8.634,8.634,0,0,1-.878-1.769l-.009,0-.016,0-.022,0-.1,0c.062.146.124.288.191.431.022.046.045.093.069.139l.01.019c.033.065.065.129.1.193.009.019.017.036.027.055.033.06.067.12.1.179a.343.343,0,0,1,.017.031c.039.069.081.138.122.205.014.022.026.043.04.062s.026.041.04.062a0,0,0,0,1,0,0l.046.072c.045.065.09.131.134.195.014.022.029.043.043.065s.036.052.053.076.031.045.048.065l.036.048.012.017a.137.137,0,0,0,.012.017c.052.071.1.138.158.207a0,0,0,0,1,0,0h0l0,0c-.086-.119-.171-.241-.248-.367m0,0a8.634,8.634,0,0,1-.878-1.769l-.009,0-.016,0-.022,0-.1,0c.062.146.124.288.191.431.022.046.045.093.069.139l.01.019c.033.065.065.129.1.193.009.019.017.036.027.055.033.06.067.12.1.179a.343.343,0,0,1,.017.031c.039.069.081.138.122.205.014.022.026.043.04.062s.026.041.04.062a0,0,0,0,1,0,0l.046.072c.045.065.09.131.134.195.014.022.029.043.043.065s.036.052.053.076.031.045.048.065l.036.048.012.017a.137.137,0,0,0,.012.017c.052.071.1.138.158.207a0,0,0,0,1,0,0h0l0,0c-.086-.119-.171-.241-.248-.367m0,0a8.634,8.634,0,0,1-.878-1.769l-.009,0-.016,0-.022,0-.1,0c.062.146.124.288.191.431.022.046.045.093.069.139l.01.019c.033.065.065.129.1.193.009.019.017.036.027.055.033.06.067.12.1.179a.343.343,0,0,1,.017.031c.039.069.081.138.122.205.014.022.026.043.04.062s.026.041.04.062a0,0,0,0,1,0,0l.046.072c.045.065.09.131.134.195.014.022.029.043.043.065s.036.052.053.076.031.045.048.065l.036.048.012.017a.137.137,0,0,0,.012.017c.052.071.1.138.158.207a0,0,0,0,1,0,0h0l0,0c-.086-.119-.171-.241-.248-.367m0,0a8.634,8.634,0,0,1-.878-1.769l-.009,0-.016,0-.022,0-.1,0c.062.146.124.288.191.431.022.046.045.093.069.139l.01.019c.033.065.065.129.1.193.009.019.017.036.027.055.033.06.067.12.1.179a.343.343,0,0,1,.017.031c.039.069.081.138.122.205.014.022.026.043.04.062s.026.041.04.062a0,0,0,0,1,0,0l.046.072c.045.065.09.131.134.195.014.022.029.043.043.065s.036.052.053.076.031.045.048.065l.036.048.012.017a.137.137,0,0,0,.012.017c.052.071.1.138.158.207a0,0,0,0,1,0,0h0l0,0c-.086-.119-.171-.241-.248-.367m0,0a8.634,8.634,0,0,1-.878-1.769l-.009,0-.016,0-.022,0-.1,0c.062.146.124.288.191.431.022.046.045.093.069.139l.01.019c.033.065.065.129.1.193.009.019.017.036.027.055.033.06.067.12.1.179a.343.343,0,0,1,.017.031c.039.069.081.138.122.205.014.022.026.043.04.062s.026.041.04.062a0,0,0,0,1,0,0l.046.072c.045.065.09.131.134.195.014.022.029.043.043.065s.036.052.053.076.031.045.048.065l.036.048.012.017a.137.137,0,0,0,.012.017c.052.071.1.138.158.207a0,0,0,0,1,0,0h0l0,0c-.086-.119-.171-.241-.248-.367m6.136-2.673a9.031,9.031,0,0,0-.765-2.148c-1.016-2.017-2.685-3.46-4.264-3.5-.043,0-.091,0-.133,0l0,0a2.311,2.311,0,0,0-.507.059h-.005a2.347,2.347,0,0,0-.649.26,2.636,2.636,0,0,0-.675.579,5.508,5.508,0,0,0-.7,4.628c.028.119.057.241.086.36,0,0,0,0,0,0,.059.222.128.444.207.661v0a8.825,8.825,0,0,0,.6,1.364c.1.176.2.346.3.513a7.391,7.391,0,0,0,1.569,1.8l0,0,0,0a3.845,3.845,0,0,0,2.261.945c.048,0,.095,0,.141,0,.005,0,.009,0,.014,0h0a2.369,2.369,0,0,0,1.071-.281,2.505,2.505,0,0,0,.741-.616,5.521,5.521,0,0,0,.7-4.629m-2.876,5.139s-.005,0-.007,0-.005,0-.01,0a3.234,3.234,0,0,1-1.4-.539,6.1,6.1,0,0,1-1.531-1.467l-.01-.016s0,0,0,0a0,0,0,0,1,0,0,.611.611,0,0,0-.05-.064l0-.005c-.086-.119-.171-.241-.248-.367a8.634,8.634,0,0,1-.878-1.769v0c-.081-.227-.157-.462-.22-.694v0c-.036-.136-.069-.274-.1-.413a6.981,6.981,0,0,1-.127-2.47,3.788,3.788,0,0,1,.706-1.786l0,0a.327.327,0,0,1,.041-.055,2.17,2.17,0,0,1,.632-.525,1.922,1.922,0,0,1,.673-.217,2.109,2.109,0,0,1,.363-.022c1.522.043,3.14,1.526,4.078,3.563a8.958,8.958,0,0,1,.606,1.8.29.29,0,0,1,.007.038l0,.007a.1.1,0,0,1,.005.017s0,.01,0,.014,0,.007,0,.01a5.114,5.114,0,0,1-.641,4.228,2,2,0,0,1-1.466.76h0a1.325,1.325,0,0,1-.2.005,1.223,1.223,0,0,1-.174-.014H400.9a.173.173,0,0,1-.041-.007m-3.26-2.466a8.634,8.634,0,0,1-.878-1.769l-.009,0-.016,0-.022,0-.1,0c.062.146.124.288.191.431.022.046.045.093.069.139l.01.019c.033.065.065.129.1.193.009.019.017.036.027.055.033.06.067.12.1.179a.343.343,0,0,1,.017.031c.039.069.081.138.122.205.014.022.026.043.04.062s.026.041.04.062a0,0,0,0,1,0,0l.046.072c.045.065.09.131.134.195.014.022.029.043.043.065s.036.052.053.076.031.045.048.065l.036.048.012.017a.137.137,0,0,0,.012.017c.052.071.1.138.158.207a0,0,0,0,1,0,0h0l0,0c-.086-.119-.171-.241-.248-.367m0,0a8.634,8.634,0,0,1-.878-1.769l-.009,0-.016,0-.022,0-.1,0c.062.146.124.288.191.431.022.046.045.093.069.139l.01.019c.033.065.065.129.1.193.009.019.017.036.027.055.033.06.067.12.1.179a.343.343,0,0,1,.017.031c.039.069.081.138.122.205.014.022.026.043.04.062s.026.041.04.062a0,0,0,0,1,0,0l.046.072c.045.065.09.131.134.195.014.022.029.043.043.065s.036.052.053.076.031.045.048.065l.036.048.012.017a.137.137,0,0,0,.012.017c.052.071.1.138.158.207a0,0,0,0,1,0,0h0l0,0c-.086-.119-.171-.241-.248-.367m0,0a8.634,8.634,0,0,1-.878-1.769l-.009,0-.016,0-.022,0-.1,0c.062.146.124.288.191.431.022.046.045.093.069.139l.01.019c.033.065.065.129.1.193.009.019.017.036.027.055.033.06.067.12.1.179a.343.343,0,0,1,.017.031c.039.069.081.138.122.205.014.022.026.043.04.062s.026.041.04.062a0,0,0,0,1,0,0l.046.072c.045.065.09.131.134.195.014.022.029.043.043.065s.036.052.053.076.031.045.048.065l.036.048.012.017a.137.137,0,0,0,.012.017c.052.071.1.138.158.207a0,0,0,0,1,0,0h0l0,0c-.086-.119-.171-.241-.248-.367m0,0a8.634,8.634,0,0,1-.878-1.769l-.009,0-.016,0-.022,0-.1,0c.062.146.124.288.191.431.022.046.045.093.069.139l.01.019c.033.065.065.129.1.193.009.019.017.036.027.055.033.06.067.12.1.179a.343.343,0,0,1,.017.031c.039.069.081.138.122.205.014.022.026.043.04.062s.026.041.04.062a0,0,0,0,1,0,0l.046.072c.045.065.09.131.134.195.014.022.029.043.043.065s.036.052.053.076.031.045.048.065l.036.048.012.017a.137.137,0,0,0,.012.017c.052.071.1.138.158.207a0,0,0,0,1,0,0h0l0,0c-.086-.119-.171-.241-.248-.367m0,0a8.634,8.634,0,0,1-.878-1.769l-.009,0-.016,0-.022,0-.1,0c.062.146.124.288.191.431.022.046.045.093.069.139l.01.019c.033.065.065.129.1.193.009.019.017.036.027.055.033.06.067.12.1.179a.343.343,0,0,1,.017.031c.039.069.081.138.122.205.014.022.026.043.04.062s.026.041.04.062a0,0,0,0,1,0,0l.046.072c.045.065.09.131.134.195.014.022.029.043.043.065s.036.052.053.076.031.045.048.065l.036.048.012.017a.137.137,0,0,0,.012.017c.052.071.1.138.158.207a0,0,0,0,1,0,0h0l0,0c-.086-.119-.171-.241-.248-.367m0,0a8.634,8.634,0,0,1-.878-1.769l-.009,0-.016,0-.022,0-.1,0c.062.146.124.288.191.431.022.046.045.093.069.139l.01.019c.033.065.065.129.1.193.009.019.017.036.027.055.033.06.067.12.1.179a.343.343,0,0,1,.017.031c.039.069.081.138.122.205.014.022.026.043.04.062s.026.041.04.062a0,0,0,0,1,0,0l.046.072c.045.065.09.131.134.195.014.022.029.043.043.065s.036.052.053.076.031.045.048.065l.036.048.012.017a.137.137,0,0,0,.012.017c.052.071.1.138.158.207a0,0,0,0,1,0,0h0l0,0c-.086-.119-.171-.241-.248-.367m0,0a8.634,8.634,0,0,1-.878-1.769l-.009,0-.016,0-.022,0-.1,0c.062.146.124.288.191.431.022.046.045.093.069.139l.01.019c.033.065.065.129.1.193.009.019.017.036.027.055.033.06.067.12.1.179a.343.343,0,0,1,.017.031c.039.069.081.138.122.205.014.022.026.043.04.062s.026.041.04.062a0,0,0,0,1,0,0l.046.072c.045.065.09.131.134.195.014.022.029.043.043.065s.036.052.053.076.031.045.048.065l.036.048.012.017a.137.137,0,0,0,.012.017c.052.071.1.138.158.207a0,0,0,0,1,0,0h0l0,0c-.086-.119-.171-.241-.248-.367m0,0a8.634,8.634,0,0,1-.878-1.769l-.009,0-.016,0-.022,0-.1,0c.062.146.124.288.191.431.022.046.045.093.069.139l.01.019c.033.065.065.129.1.193.009.019.017.036.027.055.033.06.067.12.1.179a.343.343,0,0,1,.017.031c.039.069.081.138.122.205.014.022.026.043.04.062s.026.041.04.062a0,0,0,0,1,0,0l.046.072c.045.065.09.131.134.195.014.022.029.043.043.065s.036.052.053.076.031.045.048.065l.036.048.012.017a.137.137,0,0,0,.012.017c.052.071.1.138.158.207a0,0,0,0,1,0,0h0l0,0c-.086-.119-.171-.241-.248-.367" transform="translate(-311.459 -666.34)" fill="#68a1bf"/>
              <path id="Path_919683" data-name="Path 919683" d="M389.483,875.027a.346.346,0,0,0,.177-.245.341.341,0,0,0-.282-.394,3.785,3.785,0,0,0-2.927,1.028.341.341,0,0,0-.032.484.346.346,0,0,0,.486.03,3.112,3.112,0,0,1,2.357-.866.345.345,0,0,0,.221-.037" transform="translate(-303.977 -687.976)" fill="#331832"/>
              <path id="Path_919684" data-name="Path 919684" d="M276.208,829.846s-4.526-6.4-10.2-2.33-2.576,6.817-1.076,8.756c1.117,1.445,4.957,2.648,7.812.828s3.466-7.255,3.466-7.255" transform="translate(-206.721 -650.045)" fill="#331832"/>
              <path id="Path_919685" data-name="Path 919685" d="M345.735,935.919a.172.172,0,0,1-.1-.015.169.169,0,0,1-.08-.227,7.693,7.693,0,0,1,2.9-2.986.17.17,0,1,1,.172.295,7.464,7.464,0,0,0-2.764,2.839.172.172,0,0,1-.131.095" transform="translate(-271.881 -733.849)" fill="#331832"/>
              <path id="Path_919686" data-name="Path 919686" d="M392.1,907.164a4.885,4.885,0,0,1-.547-.028.114.114,0,1,1,.03-.226c.025,0,2.679.349,3.729-1.5a.11.11,0,0,1,.155-.042.114.114,0,0,1,.042.155,3.8,3.8,0,0,1-3.41,1.645" transform="translate(-308.011 -712.352)" fill="#020202"/>
              <path id="Path_919687" data-name="Path 919687" d="M323.195,978.093l-4.005.776a2.086,2.086,0,0,0,1.251,2.723c1.962.655,2.355.655,2.984,2.163s3.072,1.573,3.931,1.049,2.365,1.442,3.758,1.442,2.215-2.45,1.672-4.076a25.565,25.565,0,0,1-9.591-4.076" transform="translate(-251.049 -769.591)" fill="#fff"/>
              <path id="Path_919688" data-name="Path 919688" d="M407.5,1034.461a.885.885,0,1,1,.885.878.881.881,0,0,1-.885-.878" transform="translate(-320.635 -813.252)" fill="#daebe8"/>
              <path id="Path_919689" data-name="Path 919689" d="M424.924,1166.729a.885.885,0,1,1,.885.878.881.881,0,0,1-.885-.878" transform="translate(-334.342 -917.324)" fill="#daebe8"/>
              <path id="Path_919690" data-name="Path 919690" d="M424.924,1106.8a.885.885,0,1,1,.885.878.881.881,0,0,1-.885-.878" transform="translate(-334.342 -870.168)" fill="#daebe8"/>
              <path id="Path_919691" data-name="Path 919691" d="M407.5,872.688s24.411-4.712,34.894-12.33c10.908-7.926,15.983-13.789,15.983-13.789a8.1,8.1,0,0,1,6.481,1.885c3.743,3.615,3.743,7.143,3.743,7.143a117.449,117.449,0,0,1-18.514,19.239c-10.666,8.438-28.159,14.971-28.159,14.971Z" transform="translate(-320.635 -666.041)" fill="#634419"/>
              <path id="Path_919692" data-name="Path 919692" d="M386.6,966.055s2.464,5.912-3.164,6.056c0,0,2.956,2.94,5.026,1.76s.088-2.228.968-3.014,1.849-1.354.969-2.272-.327-2.738-.327-2.738-1.4-1.336-3.471.208" transform="translate(-301.695 -759.533)" fill="#fff"/>
              <path id="Path_919693" data-name="Path 919693" d="M283.485,1221.209a26.338,26.338,0,0,1-4.67-3.89s2.4-7.405,3.17-7.557c1.767-.351,5.4-.252,7.178-.569.769-.137,3.385-.42,3.621.328.2.65-1.771,1.864-2.781,2.328,4.67,2.161,10.512,7.415.4,3.6l-.006.017c.987.481,6.479,3.156,5.318,4.226-1.025.945-5.036-.806-6.668-1.579l-.027.043c1.591.931,5.372,3.277,4.109,3.86-1.585.732-6.028-1.082-6.028-1.082s5.625,2.443,3.9,3.512c-1.177.729-5.431-1.966-6.955-2.831a2.9,2.9,0,0,1-.556-.4" transform="translate(-219.379 -951.294)" fill="#ffb27d"/>
              <path id="Path_919694" data-name="Path 919694" d="M472.612,1027.625a.131.131,0,0,1-.125-.092,20.932,20.932,0,0,0-2.608-5.04.131.131,0,1,1,.212-.155,21.093,21.093,0,0,1,2.646,5.115.129.129,0,0,1-.084.165.125.125,0,0,1-.041.007" transform="translate(-369.693 -804.363)" fill="#331832"/>
              <path id="Path_919695" data-name="Path 919695" d="M185.49,988.7s-26.816,6.538-34.651,31.88c-5.39,17.432,20.4,24.909,26.4,23.861,0,0,5.142-5.83,6.87-10.316l-8.4-10.523c2.612-6.652,1.408-7.261,1.408-7.261Z" transform="translate(-118.106 -777.941)" fill="#634419"/>
              <path id="Path_919696" data-name="Path 919696" d="M248.687,1123.2a.134.134,0,0,1-.094-.04.132.132,0,0,1,0-.186,77.584,77.584,0,0,1,7.476-5.588.126.126,0,0,1,.182.035.13.13,0,0,1-.036.181,77.852,77.852,0,0,0-7.436,5.56.13.13,0,0,1-.093.038" transform="translate(-195.57 -879.167)" fill="#331832"/>
              <path id="Path_919697" data-name="Path 919697" d="M253.238,1149.82a.13.13,0,0,1-.108-.059c-4.334-6.358-15-13.874-15.107-13.949a.132.132,0,0,1-.033-.184.131.131,0,0,1,.184-.033c.108.075,10.814,7.622,15.173,14.02a.129.129,0,0,1-.034.181.122.122,0,0,1-.074.024" transform="translate(-187.238 -893.5)" fill="#331832"/>
              <path id="Path_919698" data-name="Path 919698" d="M1110.559,443.6c-.938,2.5-7.5,2.454-14.653-.1s-12.193-6.65-11.254-9.149,7.5-2.454,14.652.1,12.193,6.65,11.254,9.149" transform="translate(-853.346 -340.311)" fill="#331832"/>
              <path id="Path_919699" data-name="Path 919699" d="M684.252,664.516l-28.747-29.352a1.214,1.214,0,0,1,.061-1.757l17.386-15.451a1.214,1.214,0,0,1,1.7.086L702.174,648a1.214,1.214,0,0,1-.073,1.716l-16.16,14.847a1.215,1.215,0,0,1-1.689-.045" transform="translate(-515.497 -485.984)" fill="#effbf9"/>
              <path id="Path_919700" data-name="Path 919700" d="M758.16,658.984l-25.383-5.668-.015-.1-3.913-26.128.306-.047,3.9,26.025,25.176,5.621Z" transform="translate(-573.478 -493.37)" fill="#331832"/>
              <path id="Path_919701" data-name="Path 919701" d="M789.678,774.768l-3.234-16.376.252-.052,3.234,16.376Z" transform="translate(-618.796 -596.683)" fill="#331832"/>
              <path id="Path_919702" data-name="Path 919702" d="M673.73,698.636l-18.617-4.07.054-.25,18.617,4.07Z" transform="translate(-515.462 -546.308)" fill="#331832"/>
              <path id="Path_919703" data-name="Path 919703" d="M760.683,640.09s-7.038-4.473-11.733-3.138-9.683,6.591-6.6,6.381a32.186,32.186,0,0,0,6.956-1.567s-8.131,3.289-6.538,4.857,8.636-1.36,8.636-1.36-9.363,4.684-7.379,5.678,9.072-2.614,9.072-2.614-8.537,4.706-6.206,5.807,7.03-3.935,8.622-2.366,8.449,7.26,13.349,3.365Z" transform="translate(-583.353 -500.976)" fill="#bd7f58"/>
              <path id="Path_919704" data-name="Path 919704" d="M777.42,656.653a.3.3,0,0,1-.149-.548c.094-.054,2.323-1.356,3.829-.64a.294.294,0,0,1-.252.532c-1.221-.577-3.258.6-3.278.617a.312.312,0,0,1-.149.04" transform="translate(-611.465 -515.569)" fill="#9a603a"/>
              <path id="Path_919705" data-name="Path 919705" d="M787.264,672.824a.294.294,0,0,1-.154-.544,6.511,6.511,0,0,1,4.468-.786.293.293,0,1,1-.141.57,5.929,5.929,0,0,0-4.018.716.284.284,0,0,1-.154.045" transform="translate(-619.21 -528.242)" fill="#9a603a"/>
              <path id="Path_919706" data-name="Path 919706" d="M795.2,686.964a.293.293,0,0,1-.149-.546c.111-.066,2.745-1.6,4.282-.708a.294.294,0,1,1-.294.508c-1.037-.6-3.014.306-3.689.7a.288.288,0,0,1-.149.042" transform="translate(-625.457 -539.317)" fill="#9a603a"/>
              <path id="Path_919707" data-name="Path 919707" d="M909.543,450.148v0c-.265.911-.567,1.864-.909,2.85a60.947,60.947,0,0,1-3.532,8.158c-5.148,9.86-14.448,21.194-31.257,29.969a103.922,103.922,0,0,1-12.919,5.628q-.486.176-.977.348c-6.867,2.4-13.27,5.034-22.055,6.6l-.005-.012L832.6,489.5l-.732-1.962a104.683,104.683,0,0,0,27.129-8.365c12.2-5.875,19.458-13.272,23.783-20.073a42.046,42.046,0,0,0,5.7-13.747q.121-.579.217-1.107a1.732,1.732,0,0,1,1.717-1.424c3.973.024,14.794.72,19.134,7.325" transform="translate(-654.536 -348.425)" fill="#bd7f58"/>
              <path id="Path_919708" data-name="Path 919708" d="M1062.194,581.052h-.062a2.438,2.438,0,0,1-1.776-.727c-1.183-1.259-.66-3.748,1.165-5.546a5.4,5.4,0,0,1,3.7-1.709,2.439,2.439,0,0,1,1.776.727c1.183,1.259.66,3.745-1.165,5.546a5.466,5.466,0,0,1-3.637,1.709m2.962-7.394a4.876,4.876,0,0,0-3.224,1.54c-1.6,1.577-2.115,3.7-1.149,4.722a1.857,1.857,0,0,0,1.358.544,4.988,4.988,0,0,0,3.277-1.54c1.6-1.577,2.115-3.7,1.149-4.722a1.855,1.855,0,0,0-1.358-.544Zm.469,5.475h0Z" transform="translate(-833.82 -450.907)" fill="#9a603a"/>
              <path id="Path_919709" data-name="Path 919709" d="M1189.705,30.667l3.663-.1a2.537,2.537,0,0,0,2.467-2.6l-.119-4.453a2.537,2.537,0,0,0-2.6-2.469l-2.591.07a2.534,2.534,0,0,1-2.475-1.736q-.1-.3-.212-.6a2.52,2.52,0,0,1,.717-2.765l1.77-1.549a2.537,2.537,0,0,0,.238-3.581l-2.935-3.352a2.537,2.537,0,0,0-3.579-.239l-1.773,1.55a2.52,2.52,0,0,1-2.833.344q-.282-.15-.568-.288a2.535,2.535,0,0,1-1.4-2.684l.412-2.558a2.537,2.537,0,0,0-2.1-2.908l-4.4-.708a2.537,2.537,0,0,0-2.908,2.1l-.584,3.619a2.547,2.547,0,0,1-1.818,2.037,17.814,17.814,0,0,0-2.353.862,2.55,2.55,0,0,1-2.969-.634l-1.9-2.171a2.537,2.537,0,0,0-3.581-.238l-3.351,2.934a2.537,2.537,0,0,0-.238,3.58l2.556,2.919a2.537,2.537,0,0,1,.424,2.694q-.145.326-.276.657a2.526,2.526,0,0,1-2.284,1.585l-4.134.109a2.537,2.537,0,0,0-2.469,2.6l.119,4.456a2.537,2.537,0,0,0,2.6,2.469l3.552-.095a2.539,2.539,0,0,1,2.45,1.666l.012.033a2.53,2.53,0,0,1-.712,2.78l-2.51,2.2a2.537,2.537,0,0,0-.238,3.581l2.937,3.354a2.537,2.537,0,0,0,3.581.237l2.507-2.2a2.53,2.53,0,0,1,2.85-.338l.035.019a2.539,2.539,0,0,1,1.327,2.65l-.565,3.505a2.537,2.537,0,0,0,2.1,2.909l4.4.706a2.537,2.537,0,0,0,2.907-2.1l.656-4.084a2.525,2.525,0,0,1,1.873-2.054q.344-.086.686-.186a2.535,2.535,0,0,1,2.613.777l2.555,2.921a2.537,2.537,0,0,0,3.581.239l3.354-2.935a2.538,2.538,0,0,0,.238-3.58l-1.9-2.172a2.55,2.55,0,0,1-.236-3.025,17.713,17.713,0,0,0,1.162-2.217,2.548,2.548,0,0,1,2.262-1.535m-12.091,2.079c-3.894,3.408-11.854,2.44-15.262-1.453s-2.044-10.471,1.85-13.875,10.532-1.581,13.94,2.312,3.365,9.607-.528,13.015" transform="translate(-901.313 0)" fill="#f6ae5c"/>
              <path id="Path_919710" data-name="Path 919710" d="M1171.955,63.213a2.624,2.624,0,0,1-.416-.033l-4.4-.706a2.613,2.613,0,0,1-2.166-3l.565-3.505a2.462,2.462,0,0,0-1.287-2.57l-.035-.019a2.467,2.467,0,0,0-2.765.328l-2.507,2.2a2.613,2.613,0,0,1-3.689-.244l-2.937-3.354a2.613,2.613,0,0,1,.245-3.689l2.51-2.2a2.467,2.467,0,0,0,.691-2.7l-.013-.034a2.459,2.459,0,0,0-2.376-1.615l-3.551.1a2.613,2.613,0,0,1-2.682-2.543l-.119-4.457a2.613,2.613,0,0,1,2.543-2.682l4.134-.109a2.444,2.444,0,0,0,2.215-1.536c.088-.221.181-.443.277-.66a2.466,2.466,0,0,0-.412-2.613l-2.556-2.919a2.617,2.617,0,0,1,.245-3.688l3.351-2.934a2.613,2.613,0,0,1,3.688.245l1.9,2.17a2.465,2.465,0,0,0,2.881.615,17.937,17.937,0,0,1,2.363-.865,2.484,2.484,0,0,0,1.764-1.976L1170,14.6a2.617,2.617,0,0,1,3-2.164l4.4.708a2.613,2.613,0,0,1,2.165,3l-.412,2.558a2.443,2.443,0,0,0,1.354,2.6c.191.093.383.19.571.29a2.454,2.454,0,0,0,2.747-.334l1.773-1.55a2.617,2.617,0,0,1,3.686.246l2.935,3.352a2.613,2.613,0,0,1-.245,3.689l-1.77,1.549a2.453,2.453,0,0,0-.7,2.682c.075.2.147.406.213.607a2.451,2.451,0,0,0,2.4,1.684l2.591-.07a2.613,2.613,0,0,1,2.683,2.543l.119,4.453a2.616,2.616,0,0,1-2.541,2.682l-3.663.1a2.483,2.483,0,0,0-2.194,1.489,17.911,17.911,0,0,1-1.167,2.227,2.465,2.465,0,0,0,.229,2.935l1.9,2.172a2.613,2.613,0,0,1-.246,3.688l-3.354,2.935a2.613,2.613,0,0,1-3.688-.246l-2.555-2.921a2.462,2.462,0,0,0-2.534-.754c-.227.067-.458.129-.689.187a2.444,2.444,0,0,0-1.817,1.993l-.656,4.084a2.618,2.618,0,0,1-2.579,2.2m-8.878-10.263a2.581,2.581,0,0,1,1.209.3l.034.018A2.615,2.615,0,0,1,1165.687,56l-.565,3.505a2.46,2.46,0,0,0,2.04,2.822l4.4.706a2.463,2.463,0,0,0,2.819-2.04l.656-4.084a2.6,2.6,0,0,1,1.93-2.116c.229-.057.459-.119.683-.185a2.616,2.616,0,0,1,2.692.8l2.555,2.921a2.461,2.461,0,0,0,3.473.232l3.354-2.935a2.461,2.461,0,0,0,.231-3.473l-1.9-2.172a2.617,2.617,0,0,1-.244-3.116,17.767,17.767,0,0,0,1.157-2.208,2.637,2.637,0,0,1,2.329-1.581l3.663-.1a2.464,2.464,0,0,0,2.393-2.525l-.119-4.453a2.46,2.46,0,0,0-2.526-2.394l-2.591.07a2.6,2.6,0,0,1-2.549-1.788c-.066-.2-.137-.4-.212-.6a2.607,2.607,0,0,1,.739-2.85l1.77-1.549a2.461,2.461,0,0,0,.231-3.473l-2.935-3.352a2.464,2.464,0,0,0-3.471-.232l-1.773,1.55a2.607,2.607,0,0,1-2.919.355c-.187-.1-.377-.2-.566-.287A2.6,2.6,0,0,1,1179,18.676l.412-2.558a2.464,2.464,0,0,0-2.038-2.821l-4.4-.708a2.464,2.464,0,0,0-2.82,2.038l-.584,3.619a2.638,2.638,0,0,1-1.872,2.1,17.817,17.817,0,0,0-2.343.858,2.616,2.616,0,0,1-3.058-.653l-1.9-2.171a2.461,2.461,0,0,0-3.473-.231l-3.351,2.934a2.464,2.464,0,0,0-.231,3.472l2.556,2.919a2.618,2.618,0,0,1,.437,2.775c-.1.215-.188.435-.275.654a2.6,2.6,0,0,1-2.353,1.632l-4.134.109a2.461,2.461,0,0,0-2.395,2.526l.119,4.456a2.461,2.461,0,0,0,2.526,2.394l3.552-.095a2.618,2.618,0,0,1,2.524,1.716l.012.032a2.621,2.621,0,0,1-.733,2.865l-2.511,2.2a2.461,2.461,0,0,0-.231,3.473l2.937,3.354a2.461,2.461,0,0,0,3.473.23l2.507-2.2a2.622,2.622,0,0,1,1.727-.646" transform="translate(-902.509 -9.761)" fill="#366f90"/>
              <path id="Path_919711" data-name="Path 919711" d="M87.872,135.83c-.891,1.261-1.557,1.353-2.051,1s-.63-1.007.261-2.268a6.947,6.947,0,0,1,3.3-2.774,6.8,6.8,0,0,1-1.513,4.039" transform="translate(-67.219 -103.697)" fill="#acc9c5"/>
              <path id="Path_919712" data-name="Path 919712" d="M61.875,206.74l-.276.1a40.229,40.229,0,0,0-5.655-9.719,56.658,56.658,0,0,0-21.637-17.036l.122-.266a56.945,56.945,0,0,1,21.756,17.135,40.521,40.521,0,0,1,5.69,9.789" transform="translate(-26.994 -141.484)" fill="#acc9c5"/>
              <path id="Path_919713" data-name="Path 919713" d="M66.84,142.743l-.289-.042c1.533-10.5-6.08-18.967-6.157-19.051l.216-.2c.078.085,7.784,8.65,6.231,19.291" transform="translate(-47.519 -97.135)" fill="#acc9c5"/>
              <path id="Path_919714" data-name="Path 919714" d="M42.761,198.806a10.347,10.347,0,0,1-5.391.788l.049-.288a9.809,9.809,0,0,0,6.4-1.415l.162.243a8.6,8.6,0,0,1-1.217.672" transform="translate(-29.404 -155.705)" fill="#acc9c5"/>
              <path id="Path_919715" data-name="Path 919715" d="M9.312,171.612c1.983.634,2.424,1.289,2.24,1.866s-.923.855-2.907.222a11.742,11.742,0,0,1-5.026-2.756s2.027-.5,5.693.669" transform="translate(-2.848 -134.419)" fill="#acc9c5"/>
              <path id="Path_919716" data-name="Path 919716" d="M18.115,200.329c2.082.006,2.7.5,2.7,1.1s-.622,1.094-2.7,1.088a11.739,11.739,0,0,1-5.623-1.113s1.781-1.09,5.629-1.079" transform="translate(-9.824 -157.624)" fill="#acc9c5"/>
              <path id="Path_919717" data-name="Path 919717" d="M53.853,166.761c.94,1.225.831,1.888.351,2.256s-1.149.3-2.089-.922a6.947,6.947,0,0,1-1.671-3.976,6.8,6.8,0,0,1,3.41,2.642" transform="translate(-39.69 -129.133)" fill="#acc9c5"/>
              <path id="Path_919718" data-name="Path 919718" d="M45.824,103.274c1.276,1.645,1.269,2.435.79,2.806s-1.245.182-2.522-1.463A11.739,11.739,0,0,1,41.509,99.5s1.956.733,4.315,3.773" transform="translate(-32.66 -78.29)" fill="#acc9c5"/>
              <path id="Path_919719" data-name="Path 919719" d="M689.707,152.6l.477,2.039a1.45,1.45,0,0,0,1.741,1.081l2.479-.579a1.45,1.45,0,0,0,1.082-1.742l-.337-1.442a1.448,1.448,0,0,1,.687-1.585q.158-.091.314-.188a1.44,1.44,0,0,1,1.631.083l1.071.813a1.45,1.45,0,0,0,2.032-.279l1.538-2.029a1.45,1.45,0,0,0-.278-2.03l-1.071-.814a1.44,1.44,0,0,1-.519-1.546q.051-.175.1-.351a1.449,1.449,0,0,1,1.342-1.09l1.479-.064a1.45,1.45,0,0,0,1.386-1.511l-.11-2.544a1.45,1.45,0,0,0-1.511-1.386l-2.093.09a1.455,1.455,0,0,1-1.35-.783,10.219,10.219,0,0,0-.753-1.218,1.458,1.458,0,0,1,.013-1.735l1-1.313a1.45,1.45,0,0,0-.279-2.032l-2.028-1.538a1.45,1.45,0,0,0-2.031.279l-1.34,1.766a1.449,1.449,0,0,1-1.459.548q-.2-.044-.4-.079a1.443,1.443,0,0,1-1.15-1.1l-.537-2.3a1.45,1.45,0,0,0-1.742-1.082l-2.481.579a1.45,1.45,0,0,0-1.082,1.742l.462,1.977a1.451,1.451,0,0,1-.65,1.563l-.017.011a1.447,1.447,0,0,1-1.638-.078l-1.518-1.153a1.45,1.45,0,0,0-2.032.279l-1.539,2.03a1.45,1.45,0,0,0,.28,2.031l1.518,1.15a1.446,1.446,0,0,1,.517,1.557l-.006.022a1.451,1.451,0,0,1-1.33,1.048l-2.027.087a1.45,1.45,0,0,0-1.386,1.512l.111,2.545a1.45,1.45,0,0,0,1.512,1.385l2.362-.1a1.443,1.443,0,0,1,1.365.812q.088.183.183.363a1.448,1.448,0,0,1-.134,1.552l-1.341,1.766a1.449,1.449,0,0,0,.278,2.032l2.029,1.54a1.45,1.45,0,0,0,2.031-.279l1-1.314a1.457,1.457,0,0,1,1.666-.48,10.126,10.126,0,0,0,1.375.4,1.456,1.456,0,0,1,1.12,1.089m-2.555-6.529c-2.356-1.787-2.73-6.354-.943-8.71s5.625-2.349,7.979-.561,2.1,5.713.31,8.069a5.2,5.2,0,0,1-7.346,1.2" transform="translate(-532.015 -99.852)" fill="#f6ae5c"/>
              <path id="Path_919720" data-name="Path 919720" d="M800.255,513.394s-.184-.008-.521-.01l0-.64c.354,0,.543.01.543.01Z" transform="translate(-629.253 -403.442)" fill="#321732"/>
              <path id="Path_919721" data-name="Path 919721" d="M600.984,537.805l-.581-.267q.227-.5.464-.978l.574.282q-.233.475-.457.964m.939-1.915-.567-.3c.167-.318.34-.639.515-.953l.558.311c-.172.309-.343.625-.506.938m1.037-1.862-.55-.326c.183-.309.374-.62.565-.924l.541.341c-.188.3-.375.6-.556.909m1.136-1.8-.531-.356c.2-.3.407-.6.615-.892l.522.37c-.2.288-.408.583-.6.877m1.234-1.737-.511-.385c.217-.288.44-.576.664-.856l.5.4c-.22.275-.439.559-.652.842m1.329-1.665-.489-.413c.232-.274.471-.549.711-.818l.477.426c-.236.264-.471.534-.7.8m1.42-1.588-.464-.439c.247-.261.5-.522.756-.776l.452.452c-.251.25-.5.507-.743.763m1.507-1.506-.439-.465c.262-.247.53-.494.8-.733l.426.477c-.263.235-.527.478-.784.721m1.589-1.42-.413-.488c.273-.23.554-.462.837-.688l.4.5c-.278.223-.555.45-.823.677m1.665-1.331-.386-.51q.434-.328.872-.642l.372.52q-.431.309-.859.632m1.734-1.241-.359-.53q.451-.3.9-.6l.345.539q-.447.286-.891.586m1.8-1.15-.331-.547q.466-.282.933-.549l.317.555q-.461.263-.92.541m1.852-1.059-.3-.563q.479-.259.959-.5l.29.57q-.473.241-.945.5m1.9-.969-.277-.576q.491-.236.981-.457l.263.583q-.483.219-.968.451m1.946-.88-.25-.588q.5-.213,1-.413l.237.594q-.492.2-.987.407m1.984-.793-.224-.6q.51-.191,1.017-.369l.212.6q-.5.176-1,.365m2.017-.708-.2-.608q.519-.17,1.032-.327l.187.612q-.506.155-1.019.323m2.044-.625-.175-.615q.526-.149,1.044-.285l.163.618q-.511.134-1.032.282m2.068-.544-.151-.622q.533-.129,1.054-.245l.139.624q-.515.115-1.042.242m2.088-.465-.127-.627q.539-.109,1.062-.205l.115.629q-.517.095-1.051.2m2.105-.387-.1-.631q.546-.09,1.069-.166l.092.633q-.517.076-1.057.164m2.118-.309-.08-.634q.555-.07,1.075-.126l.069.636q-.514.056-1.063.125m2.129-.23-.057-.637c.378-.033.739-.062,1.08-.085l.044.638c-.337.023-.693.051-1.067.084m2.136-.146-.031-.639c.4-.019.766-.032,1.085-.039l.016.639c-.316.008-.673.02-1.07.039" transform="translate(-472.414 -403.482)" fill="#321732"/>
              <path id="Path_919722" data-name="Path 919722" d="M597.966,634.223l-.591-.245q.1-.249.209-.495l.587.252q-.1.242-.206.487" transform="translate(-470.031 -498.442)" fill="#321732"/>
              <path id="Path_919723" data-name="Path 919723" d="M536.184,663.905c-.322-.114-.493-.169-.5-.17l.2-.608s.177.057.511.175Z" transform="translate(-421.494 -521.767)" fill="#321732"/>
              <path id="Path_919724" data-name="Path 919724" d="M603.313,730.067q-.147-.516-.3-1.027l.613-.183q.153.515.3,1.035Zm-.612-2.052q-.159-.513-.324-1.021l.608-.2q.166.512.327,1.028Zm-.661-2.039q-.171-.509-.348-1.013l.6-.212q.179.508.351,1.02Zm-.708-2.022q-.184-.5-.373-1l.6-.226q.19.5.375,1.011Zm-.757-2q-.2-.5-.4-1l.592-.24q.2.5.4,1Zm-.806-1.986q-.208-.5-.42-.985l.587-.254q.214.494.423.992ZM598.918,718q-.22-.49-.444-.975l.58-.268q.226.488.447.982Zm-.9-1.945q-.231-.484-.467-.964l.574-.283q.238.483.471.971Zm-.946-1.922q-.243-.479-.491-.952l.567-.3q.249.477.494.959Zm-.993-1.9q-.255-.473-.514-.94l.56-.31q.261.471.517.947Zm-1.039-1.874q-.266-.467-.536-.928l.552-.324q.272.465.54.934Zm-1.083-1.849q-.277-.461-.558-.915l.544-.336q.283.457.562.921Zm-1.127-1.822q-.288-.453-.58-.9l.536-.349q.294.451.583.907Zm-1.17-1.8q-.3-.446-.6-.887l.528-.362q.3.443.6.893Zm-1.212-1.768q-.309-.439-.621-.873l.519-.374q.315.437.626.879Zm-1.253-1.739q-.319-.432-.641-.858l.51-.386q.325.429.646.864Zm-1.293-1.709q-.329-.425-.661-.843l.5-.4q.335.421.666.849ZM586.571,698q-.339-.417-.68-.828l.492-.408q.343.413.685.834Zm-1.37-1.648q-.349-.41-.7-.813l.483-.419q.353.406.7.818Zm-1.406-1.618q-.357-.4-.716-.8l.473-.43q.362.4.721.8Zm-1.442-1.586q-.366-.394-.734-.782l.464-.44q.37.39.738.786Zm-1.476-1.555q-.374-.386-.751-.766l.454-.45q.378.382.755.77Zm-1.509-1.523q-.383-.378-.767-.749l.445-.46q.386.374.771.754Zm-1.541-1.49q-.391-.37-.782-.733l.435-.469q.394.366.787.738Zm-1.573-1.458q-.4-.362-.8-.717l.425-.478q.4.357.8.721Zm-1.6-1.426q-.406-.354-.812-.7l.415-.486q.409.349.817.7ZM573.02,684.3q-.413-.345-.826-.684l.405-.495q.416.34.831.688Zm-1.659-1.359q-.42-.337-.839-.667l.4-.5q.422.332.844.671Zm-1.686-1.326q-.427-.329-.853-.651l.386-.51q.428.323.857.654Zm-1.711-1.293q-.434-.321-.865-.634l.376-.518q.434.315.87.638Zm-1.736-1.26q-.44-.313-.877-.617l.366-.525q.44.306.882.621Zm-1.76-1.226q-.446-.3-.889-.6l.356-.532q.445.3.894.6Zm-1.783-1.193q-.452-.3-.9-.584l.345-.538q.451.289.905.587Zm-1.805-1.159q-.459-.288-.911-.567l.336-.545q.455.28.916.57Zm-1.827-1.125q-.464-.28-.922-.55l.325-.551q.46.271.926.552Zm-1.848-1.091q-.47-.271-.932-.532l.315-.557q.464.262.937.535Zm-1.868-1.056q-.476-.263-.942-.514l.3-.563q.468.253.947.517Zm-1.888-1.02q-.482-.255-.951-.5l.293-.568q.472.243.957.5Zm-1.908-.983q-.489-.246-.961-.478l.282-.574q.474.233.967.48Zm-1.926-.946q-.5-.238-.97-.458l.27-.58q.476.222.976.461Zm-1.946-.907q-.506-.229-.98-.438l.257-.585q.476.209.987.44ZM545.7,667.5q-.521-.223-.99-.415l.243-.591q.472.194,1,.418Zm-1.986-.817c-.372-.147-.707-.276-1-.387l.226-.6c.3.112.635.242,1.011.391Z" transform="translate(-427.023 -523.786)" fill="#321732"/>
              <path id="Path_919725" data-name="Path 919725" d="M828.453,972.337c-.046-.172-.092-.343-.138-.513l.617-.169q.07.258.139.517Z" transform="translate(-651.741 -764.525)" fill="#321732"/>
            </g>
          </g>
        </g>
      </g>
    </g>
  </g>
</svg>
