<svg xmlns="http://www.w3.org/2000/svg" xmlns:xlink="http://www.w3.org/1999/xlink" width="147" height="147" viewBox="0 0 147 147">
  <defs>
    <clipPath id="clip-path">
      <rect id="Rectangle_401492" data-name="Rectangle 401492" width="98.671" height="98.672" transform="translate(0 0)" fill="#fff" stroke="#707070" stroke-width="1"/>
    </clipPath>
    <clipPath id="clip-path-2">
      <rect id="Rectangle_401491" data-name="Rectangle 401491" width="78.376" height="90.537" fill="#fff"/>
    </clipPath>
    <clipPath id="clip-path-3">
      <rect id="Rectangle_406251" data-name="Rectangle 406251" width="147" height="147" fill="#1e2ad5"/>
    </clipPath>
    <clipPath id="clip-path-4">
      <rect id="Rectangle_401492-2" data-name="Rectangle 401492" width="97.31" height="97.311" transform="translate(0 0.334)" fill="#fff" stroke="#707070" stroke-width="1"/>
    </clipPath>
    <clipPath id="clip-path-5">
      <rect id="Rectangle_408413" data-name="Rectangle 408413" width="92.132" height="90.253" fill="#fff"/>
    </clipPath>
  </defs>
  <g id="Group_1116343" data-name="Group 1116343" transform="translate(-313 -7638)">
    <g id="Group_1115376" data-name="Group 1115376" transform="translate(333.92 7661.471)">
      <rect id="Rectangle_401104" data-name="Rectangle 401104" width="91.934" height="93.418" transform="translate(3.368 0)" fill="none"/>
      <g id="Mask_Group_1098697" data-name="Mask Group 1098697" transform="translate(0 0.001)" clip-path="url(#clip-path)">
        <g id="Group_1100236" data-name="Group 1100236" transform="translate(13.419 4.025)">
          <g id="Group_1100235" data-name="Group 1100235" clip-path="url(#clip-path-2)">
            <path id="Path_873786" data-name="Path 873786" d="M69.727,72.82c.224,0,.448,0,.671,0,1.365-.008,2.73-.035,4.094-.013a2.755,2.755,0,0,1,1.17.247,1.7,1.7,0,0,1,.917,1.672,15.265,15.265,0,0,1-3.1,9.247A15.708,15.708,0,0,1,63.418,90.25a16.3,16.3,0,0,1-2.98.273q-25.05.024-50.1,0a9.768,9.768,0,0,1-9.32-5.792A9.991,9.991,0,0,1,.091,80.9C.03,80.04,0,79.175,0,78.311Q0,42.314.02,6.316A8.176,8.176,0,0,1,.5,3.423,5.231,5.231,0,0,1,5.654,0c.068,0,.135,0,.2,0Q33.036,0,60.214,0A5.6,5.6,0,0,1,64.127,1.39,5.293,5.293,0,0,1,65.9,5.214c.018.351.016.7.016,1.054q0,18.5,0,36.991a.807.807,0,0,0,.293.555,23.944,23.944,0,0,0,10.09,4.454,4.01,4.01,0,0,1,.892.256,1.523,1.523,0,0,1,.941,1.235,27.545,27.545,0,0,1,.235,3.11,25.9,25.9,0,0,1-6.743,17.879c-.61.681-1.284,1.3-1.928,1.954.007.04.015.079.022.119M49.939,55.029c0-1.087-.03-2.113.01-3.137a14,14,0,0,1,.245-2.209,1.6,1.6,0,0,1,1.411-1.324c.479-.08.955-.174,1.433-.261a19.736,19.736,0,0,0,9.1-4.256.917.917,0,0,0,.265-.617c.023-.716-.016-1.432-.016-2.149q.011-17.724.034-35.448A1.869,1.869,0,0,0,60.37,3.556c-3.35.05-6.7.016-10.052.016H5.447A1.644,1.644,0,0,0,3.616,5.119a5.3,5.3,0,0,0-.043.848q0,37.071.005,74.141a10.708,10.708,0,0,0,.163,1.812A6.252,6.252,0,0,0,9.02,86.93a6.136,6.136,0,0,0,6.754-4.068,9.362,9.362,0,0,0,.341-3.248c-.007-1.635-.01-3.271.015-4.906a1.765,1.765,0,0,1,1.753-1.891,5.057,5.057,0,0,1,.566-.027q19.74.01,39.479.021c.231,0,.462-.032.793-.057A26.374,26.374,0,0,1,50.54,58.572c-.136-.007-.255-.02-.374-.02q-11.309,0-22.617,0a8.357,8.357,0,0,1-.89-.037,1.8,1.8,0,0,1-1.667-1.727,1.844,1.844,0,0,1,1.662-1.708,10.354,10.354,0,0,1,1.092-.052q10.437,0,20.875,0h1.319M72.963,76.285h-.778q-11.064,0-22.128-.006-15,0-29.991,0c-.356,0-.464.1-.458.458.021,1.365.028,2.731.006,4.1A9.462,9.462,0,0,1,17.5,86.785a.745.745,0,0,0-.066.178h.477q21.581,0,43.162,0a8.74,8.74,0,0,0,1.534-.1,12.381,12.381,0,0,0,9.325-7.022,10.726,10.726,0,0,0,1.034-3.548M53.535,51.561a23.945,23.945,0,0,0,.426,6.347,22.683,22.683,0,0,0,9.655,14.262c.539.37.549.377,1.093,0C71.785,67.265,75.1,60.478,74.848,51.9c-.009-.306-.112-.408-.4-.477a27.1,27.1,0,0,1-8.017-3.281c-.765-.472-1.508-.982-2.259-1.474a24,24,0,0,1-10.638,4.895" transform="translate(0 0)" fill="#fff"/>
            <path id="Path_873787" data-name="Path 873787" d="M51.616,50.288H30.057a5.643,5.643,0,0,1-.647-.023A1.8,1.8,0,0,1,27.63,48.3q-.011-9.57,0-19.14A1.821,1.821,0,0,1,29.538,27.2c.391-.023.783-.006,1.175-.006q21.276,0,42.552,0a4.368,4.368,0,0,1,.964.094A1.907,1.907,0,0,1,75.7,29.061c.009.134.005.27.005.405q0,9.266,0,18.532a1.985,1.985,0,0,1-2.247,2.283c-4.269.016-8.537.008-12.806.008H51.616m20.5-19.6H69.826q-19.111,0-38.221-.005c-.393,0-.494.1-.493.495q.021,7.6,0,15.209c0,.31.085.383.385.382,2.445-.014,4.891-.012,7.336-.013l32.831-.008c.144,0,.288-.012.451-.02Z" transform="translate(-18.632 -18.335)" fill="#fff"/>
            <path id="Path_873788" data-name="Path 873788" d="M40.024,175.228c0,1.338-.057,2.678.015,4.012a2.036,2.036,0,0,1-2.275,2.261c-1.62,0-3.24.008-4.86,0-1.188-.008-2.376-.019-3.561-.076a1.727,1.727,0,0,1-1.717-1.792q-.03-4.4-.009-8.794a1.687,1.687,0,0,1,1.676-1.776c.416-.038.836-.026,1.255-.027,2.362,0,4.725-.007,7.088,0a4.263,4.263,0,0,1,1.119.131,1.745,1.745,0,0,1,1.27,1.725q0,2.168,0,4.336m-3.581-2.668c-1.693,0-3.341.006-4.988-.005-.3,0-.357.111-.354.384.017,1.555.014,3.11.021,4.664a2.724,2.724,0,0,0,.032.3h5.29Z" transform="translate(-18.62 -114.004)" fill="#fff"/>
            <path id="Path_873789" data-name="Path 873789" d="M40.036,120.769c0,1.446,0,2.892,0,4.338a1.742,1.742,0,0,1-1.822,1.843q-4.335,0-8.67,0a1.739,1.739,0,0,1-1.909-1.877q-.021-4.3,0-8.594a1.757,1.757,0,0,1,1.9-1.859c2.836,0,5.672,0,8.508-.007a1.842,1.842,0,0,1,1.795,1.013,1.588,1.588,0,0,1,.185.684c.016,1.486.008,2.973.008,4.459m-3.586-2.556a1.463,1.463,0,0,0-.17-.022c-1.619-.008-3.238-.008-4.857-.028-.313,0-.306.162-.3.383.008,1.431.01,2.862.014,4.293,0,.17,0,.341,0,.512H36.45Z" transform="translate(-18.632 -77.302)" fill="#fff"/>
            <path id="Path_873790" data-name="Path 873790" d="M91.834,114.622q6.524,0,13.048,0a3.457,3.457,0,0,1,.761.08,1.708,1.708,0,0,1,.138,3.27,4.613,4.613,0,0,1-1.27.211q-12.42.018-24.839,0a7.062,7.062,0,0,1-1.446-.14,1.723,1.723,0,0,1,.4-3.423c2.4-.005,4.808,0,7.212,0h6Z" transform="translate(-51.747 -77.309)" fill="#fff"/>
            <path id="Path_873791" data-name="Path 873791" d="M86.526,196.366q3.931,0,7.862,0a1.77,1.77,0,0,1,1.871,1.957,1.706,1.706,0,0,1-1.228,1.457,3.76,3.76,0,0,1-1,.149q-7.112.014-14.224,0c-.472,0-.945-.03-1.415-.077a1.9,1.9,0,0,1-1.675-1.79,1.922,1.922,0,0,1,1.862-1.7q3.971-.006,7.943,0" transform="translate(-51.746 -132.442)" fill="#fff"/>
            <path id="Path_873792" data-name="Path 873792" d="M86.552,145.111q-3.97,0-7.94,0a1.746,1.746,0,0,1-1.582-.878,1.535,1.535,0,0,1,.485-2.2,3.193,3.193,0,0,1,1.511-.478c5-.035,9.992-.025,14.989-.012a3.463,3.463,0,0,1,1.065.209,1.71,1.71,0,0,1,1.192,2,1.735,1.735,0,0,1-1.74,1.355c-2.417.007-4.834,0-7.251,0h-.729" transform="translate(-51.772 -95.461)" fill="#fff"/>
            <path id="Path_873793" data-name="Path 873793" d="M182.479,173.268c.832-.838,1.641-1.649,2.447-2.463.845-.854,1.672-1.727,2.537-2.56a1.749,1.749,0,0,1,2.975.749,1.72,1.72,0,0,1-.567,1.791c-.6.623-1.218,1.226-1.83,1.836q-2.065,2.059-4.133,4.116a1.958,1.958,0,0,1-1.446.705,1.532,1.532,0,0,1-1.1-.422c-.885-.87-1.784-1.729-2.644-2.624a1.709,1.709,0,0,1-.154-2.289,1.8,1.8,0,0,1,2.567-.175c.449.406.863.851,1.349,1.335" transform="translate(-120.187 -113.101)" fill="#fff"/>
          </g>
        </g>
      </g>
    </g>
    <g id="Group_1115379" data-name="Group 1115379" transform="translate(313 7638)">
      <g id="Group_1115374" data-name="Group 1115374" transform="translate(0)">
        <g id="Group_1113673" data-name="Group 1113673">
          <g id="Group_1113672" data-name="Group 1113672" clip-path="url(#clip-path-3)">
            <path id="Path_886855" data-name="Path 886855" d="M108.136,128.124C182.064,120.724,140.5-7.334,67.106.33,35.979,3.581,10.437,27.905,2.641,59.249-3.971,85.833,1.9,116.017,19.483,136.3c23.232,26.806,54.826-4.791,88.654-8.176" transform="translate(0 0)" fill="#1e2ad5"/>
          </g>
        </g>
      </g>
      <g id="Group_1115378" data-name="Group 1115378" transform="translate(105.166 103.253)">
        <path id="Path_886575" data-name="Path 886575" d="M2.29.08A1.986,1.986,0,0,0,.007,1.712,1.953,1.953,0,0,0,1.926,3.733,1.95,1.95,0,0,0,3.813,1.685C3.695.653,3.3-.283,2.29.08" transform="translate(23.932 0) rotate(19)" fill="#ffc811"/>
        <path id="Path_886576" data-name="Path 886576" d="M3.32.074C-.962-.86-.08,7.316.468,9.37a3.168,3.168,0,0,0,.461,1.1,2.273,2.273,0,0,0,2.435.665A3.75,3.75,0,0,0,5.37,9.471C6.922,6.992,7.279.939,3.32.074" transform="translate(14.127 7.011) rotate(19)" fill="#ffc811"/>
        <path id="Path_886577" data-name="Path 886577" d="M2.753,4.476c2.91-1.358.3-6.125-1.963-3.887A2.865,2.865,0,0,0,0,2.7,2.266,2.266,0,0,0,.25,3.734a2,2,0,0,0,2.5.742" transform="translate(27.809 7.122) rotate(19)" fill="#ffc811"/>
        <path id="Path_886578" data-name="Path 886578" d="M3.908,7.242C5.284,5.988,7.017,2.471,5.515.829,4.107-.71,1.821.079.974,1.685a10.409,10.409,0,0,0-.9,3.435A2.41,2.41,0,0,0,.248,6.83a2.535,2.535,0,0,0,.634.582,2.853,2.853,0,0,0,1.106.575,2.355,2.355,0,0,0,1.92-.745" transform="translate(20.552 17.202) rotate(19)" fill="#ffc811"/>
        <path id="Path_886579" data-name="Path 886579" d="M1.041,4.468a1.9,1.9,0,0,0,2.373-.212C5.467,2.205,1.868-1.761.3.875a2.874,2.874,0,0,0,0,2.556,2.443,2.443,0,0,0,.738,1.036" transform="translate(35.943 16.433) rotate(19)" fill="#ffc811"/>
        <path id="Path_886580" data-name="Path 886580" d="M.027.844A1.71,1.71,0,0,0,.468,2.233a1.905,1.905,0,0,0,.742.591,1.389,1.389,0,0,0,1.447-.28C4.335.9.475-1.2.027.844" transform="translate(35.168 24.584) rotate(19)" fill="#ffc811"/>
        <path id="Path_886581" data-name="Path 886581" d="M1,.782A3.84,3.84,0,0,0,.114,2.909,5.418,5.418,0,0,0,.274,5.766,2.672,2.672,0,0,0,2.47,7.5,2.826,2.826,0,0,0,5.1,5.529C5.837,3.492,3.729-2.03,1,.782" transform="translate(27.623 28.206) rotate(19)" fill="#ffc811"/>
        <path id="Path_886582" data-name="Path 886582" d="M.616,2.981a1.846,1.846,0,0,0,2.142.042C5.14,1.311,1.479-1.491.174.967A1.649,1.649,0,0,0,.616,2.981" transform="translate(9.058 20.647) rotate(19)" fill="#ffc811"/>
        <path id="Path_886583" data-name="Path 886583" d="M1.869.186A2.413,2.413,0,0,0,.693.945a3.126,3.126,0,0,0-.52,1.547A19.8,19.8,0,0,0,0,4.636,4.785,4.785,0,0,0,.351,6.861,2.074,2.074,0,0,0,2.174,8.089a2.438,2.438,0,0,0,1.78-1.118C5.3,5.132,6.036-1.155,1.869.186" transform="translate(2.634 25.84) rotate(19)" fill="#ffc811"/>
        <path id="Path_886584" data-name="Path 886584" d="M4.858.793C3.84.1,2.1-.416,1.136.471.278,1.259.084,2.967.019,4.031A5.608,5.608,0,0,0,.579,7.185,2.888,2.888,0,0,0,3.326,8.7a3.134,3.134,0,0,0,1.565-.759C7.063,6.108,7.328,2.478,4.858.793" transform="translate(13.396 33.351) rotate(19)" fill="#ffc811"/>
      </g>
    </g>
    <g id="Group_1115380" data-name="Group 1115380" transform="translate(337 7663)">
      <rect id="Rectangle_401104-2" data-name="Rectangle 401104" width="90.666" height="92.129" transform="translate(3.322 0)" fill="none"/>
      <g id="Mask_Group_1098697-2" data-name="Mask Group 1098697" transform="translate(0 0.001)" clip-path="url(#clip-path-4)">
        <g id="Group_1118061" data-name="Group 1118061" transform="translate(3 3.334)">
          <g id="Group_1118060" data-name="Group 1118060" clip-path="url(#clip-path-5)">
            <path id="Path_919208" data-name="Path 919208" d="M48.768,2.973a41.973,41.973,0,0,0-24.286,8.951L22.748,9.618a44.348,44.348,0,0,1,39.045-8.14c1.116.294,5.007,1.937,5.562,1.936.281,0,2.868-1.2,3.659-1.394A17.916,17.916,0,0,1,79.548,1.9c.282.084.545.055.669.414l-.965,2.537a14.893,14.893,0,0,0-13.419,25.7L64.1,32.768c-8.02-6.457-8.39-17.453-2.029-25.31.315-.389,2.207-1.961,1.891-2.312A46.81,46.81,0,0,0,51.752,2.973V42.857H91.637a46.81,46.81,0,0,0-2.172-12.209c-.359-.323-2.169,1.829-2.584,2.162A17.988,17.988,0,0,1,67.472,35.1l1.28-2.532C86.8,40.084,98.979,15.945,82.259,5.965l.988-2.431c.953-.678,5.6,3.962,6.332,4.888a17.794,17.794,0,0,1,3.008,15.172c-.238.959-1.226,3-1.232,3.657-.009.988,1.534,4.6,1.889,6a47.137,47.137,0,0,1,.832,18.562l-2.983-.269.544-5.7H51.752V85.726a41.515,41.515,0,0,0,21.3-6.768c.354.514,1.769,2.137,1.457,2.667A48.228,48.228,0,0,1,59.63,87.77c-1.9.391-8.577,1.469-10.043.8a4.689,4.689,0,0,1-.819-.809V45.842H6.848c-1.175,0-.992-3.428-.961-4.217.116-2.933.952-5.913,1.369-8.808l2.985.545a45.98,45.98,0,0,0-1.358,9.495H48.768Z" transform="translate(-4.269 0)" fill="#fff"/>
            <path id="Path_919209" data-name="Path 919209" d="M1.282,196.175l34.822.061.653.432,0,36.073c-.734.75-3.752.386-4.877.273C14.608,231.284-.1,215.733,0,198.149c0-.844.365-1.822,1.281-1.974M18.723,199.1H2.986c.611,4.28,1.2,8.678,3.392,12.475l7.6-7.587,1.773,2.03-7.881,8.407,3.7,5,4.032-3.774,1.908,1.894-3.652,4.168,4.794,3.662.759-.215,14.776-14.8v-9.089L20.252,214.818c-.405-.462-2.016-1.5-1.681-2.149L32.018,199.1H22.928l-4.07,4.065-2.03-2.03Zm15.465,30.931V214.566L21.713,226.911a27.111,27.111,0,0,0,12.475,3.12" transform="translate(0 -142.948)" fill="#fff"/>
            <path id="Path_919210" data-name="Path 919210" d="M30.358,15.724c1.947-.4,5.9-.283,6.3,2.26l-.19,30.167c-.988,2.455-7.923,2.58-8.461-.624l-.022-29.294a3.059,3.059,0,0,1,2.375-2.509m.616,31.14,2.54-.038.446-.64L33.84,18.9l-2.866-.254Z" transform="translate(-20.391 -11.333)" fill="#fff"/>
            <path id="Path_919211" data-name="Path 919211" d="M73.3,53.787c2.224-.375,5.594-.243,6.022,2.53-.581,5.7.846,13.21,0,18.687-.568,3.682-8.338,3.758-8.912-.279-.772-5.437.511-12.521-.007-18.137a3.492,3.492,0,0,1,2.9-2.8m3.055,2.919H73.374V74.613h2.985Z" transform="translate(-51.124 -39.082)" fill="#fff"/>
            <path id="Path_919212" data-name="Path 919212" d="M249.789,32.952c-.339,2.713.207,1.809,1.609,2.869a4.462,4.462,0,0,1,1.918,4.188l-2.542-.037-.981-1.733a6.377,6.377,0,0,0-2.326-.142,1.732,1.732,0,0,0-1.43,2.254c.376,1.852,2.362,1.122,3.766,1.405,4.727.954,4.834,8.595.016,9.406l-.03,2.413H246.8c.351-2.7-.285-1.9-1.616-2.861A5.416,5.416,0,0,1,243,46.521l2.82-.019c.5,3.149,5.46,2.568,4.448-.876-.523-1.778-3.714-.332-5.506-1.817a5.146,5.146,0,0,1,.71-8.251c1.48-.873,1.508-.04,1.327-2.607Z" transform="translate(-177.072 -24.011)" fill="#fff"/>
            <path id="Path_919213" data-name="Path 919213" d="M311.7,201.952l0,2.987c1.261-.048,2.585-.276,2.928,1.278a69.492,69.492,0,0,1,.043,10.237c-.247,1.555-1.524,2.018-2.971,1.778l-.253,2.867-2.732.12,0-2.987c-.838.039-2.2.1-2.735-.657-.819-1.158.09-9.661-.244-11.679.31-1.652,2.369-.511,2.859-1.211l.117-2.732Zm0,5.97h-2.985v7.326H311.7Z" transform="translate(-222.707 -147.158)" fill="#fff"/>
            <path id="Path_919214" data-name="Path 919214" d="M213.7,201.952l0,2.987c1,.034,2.458-.373,2.707.956l-.244,11.679a2.876,2.876,0,0,1-2.464.657l-.252,2.868-2.732.12,0-2.987c-.838.039-2.2.1-2.735-.657-.819-1.158.09-9.661-.244-11.679.31-1.652,2.369-.511,2.858-1.211l.117-2.732Zm-.273,5.97h-2.713v7.326h2.713Z" transform="translate(-151.297 -147.158)" fill="#fff"/>
            <path id="Path_919215" data-name="Path 919215" d="M262.994,225.939c1.017-.076,2.139-.019,2.663,1l.045,11.335c-.249,1.329-1.705.922-2.707.956l0,2.987H260.01l-.117-2.732-2.325-.388-.533-.823.244-11.679a3.253,3.253,0,0,1,2.735-.657l0-2.987,2.867.256Zm-2.983,10.58,2.866-.254v-7.089l-2.866-.254Z" transform="translate(-187.295 -162.46)" fill="#fff"/>
            <path id="Path_919216" data-name="Path 919216" d="M116.624,81.829a19.792,19.792,0,0,1,4.977.064,3.587,3.587,0,0,1,1.823,2.247,71.416,71.416,0,0,1,0,11.269c-.67,3.705-8.146,3.634-8.827.273a78.112,78.112,0,0,1-.047-11.589,3.359,3.359,0,0,1,2.077-2.265m3.877,2.928h-2.985v10.31H120.5Z" transform="translate(-83.328 -59.535)" fill="#fff"/>
          </g>
        </g>
      </g>
    </g>
  </g>
</svg>
