<svg xmlns="http://www.w3.org/2000/svg" xmlns:xlink="http://www.w3.org/1999/xlink" width="150" height="150" viewBox="0 0 150 150">
  <defs>
    <clipPath id="clip-path">
      <rect id="Rectangle_401492" data-name="Rectangle 401492" width="143.65" height="143.652" transform="translate(0 0)" fill="#fff" stroke="#707070" stroke-width="1"/>
    </clipPath>
    <clipPath id="clip-path-2">
      <rect id="Rectangle_406251" data-name="Rectangle 406251" width="149.664" height="149.664" fill="#1e2ad5"/>
    </clipPath>
    <clipPath id="clip-path-3">
      <rect id="Rectangle_401492-2" data-name="Rectangle 401492" width="142.285" height="142.286" transform="translate(0.273 -0.368)" fill="#fffceb" stroke="#707070" stroke-width="1"/>
    </clipPath>
    <clipPath id="clip-path-4">
      <rect id="Rectangle_407237" data-name="Rectangle 407237" width="98" height="98" transform="translate(22.984 18.632)" fill="#fff" stroke="#707070" stroke-width="1"/>
    </clipPath>
    <clipPath id="clip-path-5">
      <rect id="Rectangle_408401" data-name="Rectangle 408401" width="93.971" height="92.451" fill="#fff"/>
    </clipPath>
  </defs>
  <g id="Group_1116874" data-name="Group 1116874" transform="translate(-313 -7638)">
    <g id="Group_1115379" data-name="Group 1115379" transform="translate(313 7638)">
      <g id="Group_1115374" data-name="Group 1115374" transform="translate(0)">
        <g id="Group_1113673" data-name="Group 1113673">
          <g id="Group_1113672" data-name="Group 1113672" clip-path="url(#clip-path-2)">
            <path id="Path_886855" data-name="Path 886855" d="M110.448,130.863C185.956,123.305,143.5-7.491,68.54.338,36.748,3.658,10.66,28.5,2.7,60.516c-6.754,27.152-.753,57.981,17.2,78.7,23.729,27.379,56-4.893,90.549-8.351" transform="translate(0 0)" fill="#1e2ad5"/>
          </g>
        </g>
      </g>
      <g id="Group_1115378" data-name="Group 1115378" transform="translate(108.032 106.113)">
        <path id="Path_886575" data-name="Path 886575" d="M2.3.08A1.992,1.992,0,0,0,.007,1.718,1.959,1.959,0,0,0,1.932,3.745,1.956,1.956,0,0,0,3.825,1.69C3.707.655,3.31-.284,2.3.08" transform="translate(24.008 0) rotate(19)" fill="#ffc811"/>
        <path id="Path_886576" data-name="Path 886576" d="M3.331.074C-.965-.863-.081,7.339.469,9.4a3.178,3.178,0,0,0,.463,1.1,2.28,2.28,0,0,0,2.443.667A3.762,3.762,0,0,0,5.387,9.5C6.945,7.014,7.3.942,3.331.074" transform="translate(14.172 7.033) rotate(19)" fill="#ffc811"/>
        <path id="Path_886577" data-name="Path 886577" d="M2.762,4.49c2.919-1.363.3-6.145-1.969-3.9A2.874,2.874,0,0,0,0,2.7a2.273,2.273,0,0,0,.25,1.043,2,2,0,0,0,2.511.744" transform="translate(27.898 7.145) rotate(19)" fill="#ffc811"/>
        <path id="Path_886578" data-name="Path 886578" d="M3.921,7.266C5.3,6.007,7.039,2.479,5.533.831,4.12-.712,1.827.079.977,1.69A10.442,10.442,0,0,0,.07,5.136,2.417,2.417,0,0,0,.248,6.852a2.543,2.543,0,0,0,.636.584,2.862,2.862,0,0,0,1.11.577,2.362,2.362,0,0,0,1.926-.747" transform="translate(20.618 17.257) rotate(19)" fill="#ffc811"/>
        <path id="Path_886579" data-name="Path 886579" d="M1.044,4.482a1.9,1.9,0,0,0,2.38-.213C5.484,2.212,1.874-1.766.3.878a2.883,2.883,0,0,0,0,2.565,2.451,2.451,0,0,0,.74,1.04" transform="translate(36.058 16.485) rotate(19)" fill="#ffc811"/>
        <path id="Path_886580" data-name="Path 886580" d="M.027.846A1.715,1.715,0,0,0,.469,2.24a1.911,1.911,0,0,0,.745.593,1.394,1.394,0,0,0,1.452-.281C4.349.907.476-1.2.027.846" transform="translate(35.28 24.662) rotate(19)" fill="#ffc811"/>
        <path id="Path_886581" data-name="Path 886581" d="M1,.785A3.852,3.852,0,0,0,.114,2.918,5.435,5.435,0,0,0,.275,5.784a2.681,2.681,0,0,0,2.2,1.744A2.835,2.835,0,0,0,5.12,5.547C5.856,3.5,3.741-2.037,1,.785" transform="translate(27.712 28.297) rotate(19)" fill="#ffc811"/>
        <path id="Path_886582" data-name="Path 886582" d="M.617,2.99a1.852,1.852,0,0,0,2.149.042C5.156,1.315,1.484-1.5.174.97A1.654,1.654,0,0,0,.617,2.99" transform="translate(9.087 20.713) rotate(19)" fill="#ffc811"/>
        <path id="Path_886583" data-name="Path 886583" d="M1.875.187A2.421,2.421,0,0,0,.7.948,3.136,3.136,0,0,0,.173,2.5,19.859,19.859,0,0,0,0,4.65,4.8,4.8,0,0,0,.352,6.883,2.08,2.08,0,0,0,2.181,8.115,2.445,2.445,0,0,0,3.966,6.993C5.321,5.148,6.055-1.159,1.875.187" transform="translate(2.642 25.923) rotate(19)" fill="#ffc811"/>
        <path id="Path_886584" data-name="Path 886584" d="M4.874.8C3.853.1,2.108-.417,1.139.472.278,1.263.084,2.976.02,4.044A5.626,5.626,0,0,0,.581,7.208,2.9,2.9,0,0,0,3.337,8.724a3.144,3.144,0,0,0,1.57-.761C7.085,6.127,7.351,2.486,4.874.8" transform="translate(13.438 33.458) rotate(19)" fill="#ffc811"/>
      </g>
    </g>
    <g id="Group_1115380" data-name="Group 1115380" transform="translate(316.726 7641.881)">
      <g id="Mask_Group_1098697-2" data-name="Mask Group 1098697" transform="translate(0 0.001)" clip-path="url(#clip-path-3)">
        <g id="Mask_Group_1113664" data-name="Mask Group 1113664" transform="translate(1 4)" clip-path="url(#clip-path-4)">
          <g id="Group_1118029" data-name="Group 1118029" transform="translate(24.984 21.632)">
            <g id="Group_1118028" data-name="Group 1118028" clip-path="url(#clip-path-5)">
              <path id="Path_919144" data-name="Path 919144" d="M2.592,104.715l-.681-1.475c.834-8.817,2.826-17.885,3.506-26.675.314-4.064-.232-9.323.3-13.172.295-2.151,2.845-4.324,2.867-4.6.02-.258-.579-.949-.675-1.412a14.543,14.543,0,0,1,.788-6.363c1.955-3.356,8.263-2.338,8.831,1.324.288,1.855-.021,5.529-1.3,6.987l6.629,4.385c2.082-.163,4.663-.128,6.679-.48.994-.173.842-2.145.426-2.787a12.457,12.457,0,0,0-2.091-.934c-1.6-.1-2.271,3.976-5.8,1.547a30.5,30.5,0,0,1-3.98-4.435c-.4-2.058,1.133-2.863,2.113-4.36l-.8-2.47c-1.485,0-4.411.148-4.967-1.633a32.247,32.247,0,0,1,.019-7.012c.813-1.938,3.62-.94,4.7-1.769a8.988,8.988,0,0,0,1.01-2.146c-.075-.93-2.683-1.924-2.334-4.287.139-.941,4.1-4.941,4.988-5.268,2.431-.892,3.3,1.871,4.612,2.094a15.9,15.9,0,0,0,2.226-.9c1.2-.942-.37-3.793,2.107-4.9,1.38-.614,6.11-.576,7.352.315,1.641,1.178.776,2.615,1.057,4.061.091.469,2.1,1.516,2.523,1.433,1.055-.208,1.947-2.539,3.96-2.262,1.142.158,5.352,4.164,5.586,5.192.529,2.325-1.385,2.774-2.272,4.523l.7,2.11c.266.5,2.868.364,3.53.567.445.137,1.6,1.259,1.6,1.631V46c.83-.171,1.039-.7,2.014-.814,4.083-.482,6.148.34,5.529,4.853,1.952-.512,2.411-2.923,4.779-1.949a24.227,24.227,0,0,1,3.155,3.038c.466.755.287,1.693.8,2.16l10.254,5.638c1.71-3.293,2.823-7.742,7.55-5.934,5.658,2.163,3.01,7.147.388,10.646a9.346,9.346,0,0,1,1.323,3.534,34.252,34.252,0,0,1,.022,5.89,1.463,1.463,0,0,1-2.9-.051C87.82,68.97,90.583,66.8,86.137,64c-4.749-3-10.408-5.168-15.13-8.3-.529,1.5.947,3.025,2.039,3.887,3.583,2.826,8.848,4.778,12.508,7.692.67,2.1-.933,2.745-2.557,1.619l-.227,7.767,5.861,2.183,1.017-1.556a1.562,1.562,0,0,1,1.824.77c1.171,2.653-2.31,10.689-2.5,13.807L94.73,103.1c.773,2.79-3.777,1.918-5.421,1.633L79.626,93.4c-.13,2.2-.462,4.4-.669,6.6-.112,1.188.25,3.664-.521,4.6-.464.561-5.194.87-5.474-.494L71.477,89.56c1.821-3.968,5.113-7.2,7.428-10.888a5.481,5.481,0,0,0,1.139-2.093c.385-2.787-.271-6.5-.057-9.395l-6.421-3.809c-1.148,1.119-2.85.434-4.308.939.977,1.752,3.054,2.618,1.85,4.946-.361.7-2.825,3-3.622,3.121-2.308.34-2.409-1.491-4.153-2.143.035,1.346.265,4.243-1.49,4.57a25.5,25.5,0,0,1-5.241-.131c-1.45-.653-.944-3.167-1.353-4.44-1.769.683-1.856,2.484-4.153,2.144-1.02-.151-3.763-2.885-3.915-3.915-.308-2.088,1.33-2.54,2.144-4.152-1.257-.468-2.989.067-4.034-.683s-.582-1.676-.956-2.546a6.525,6.525,0,0,0-1.927-1.566A4.572,4.572,0,0,0,40.3,60.537c-.336.672-.022,1.912-.192,2.771-.479,2.424-2.829,2.081-4.75,2.118A6.783,6.783,0,0,1,31.544,70.1a45.419,45.419,0,0,1-9.25,1.389c-1.676-.093-2.885-1.512-4.484-1.79v5.252c0,.552,6.742,6.893,7.68,7.942,1.866,2.087,3.457,3.373,2.7,6.477a130.6,130.6,0,0,1-6.015,14.456,3,3,0,0,1-.727.889H16.867c-.664,0-.685-1.477-.645-1.984.293-3.687,2.221-8.107,2.666-11.883-.56-1.386-3.471-2.96-2.444-4.538,1.267-1.947,5.21,2.638,5.347,4.058l-2.635,11.652.827-.165,5.652-13.973-.554-1.348-7.946-8.21L8.51,103.092l-1.07,1.623ZM37.473,26.6H32.894c-.033,1.191.239,3.7-.818,4.435-1.435.14-3.751,1.868-4.976,1.788-1.046-.068-2.443-1.735-3.23-2.447L20.793,33.7c.7,1.035,2.425,1.869,2.42,3.27,0,.241-1.491,4.138-1.692,4.518-.161.3-.293.588-.667.68L17,42.494V46.8c1.151.5,2.463.075,3.578.328,1.377.311,1.949,3.994,2.866,5.2l-2.414,3.5,2.875,3.078c.655.114,1.885-2.362,3.471-2.424.676-.026,4.757,1.669,5.1,2.189.7,1.07.332,2.8.419,4.025h4.579c.167-1.284-.509-3.713.705-4.547a29.878,29.878,0,0,1,4.547-1.673c1.418.085,2.9,2.528,3.465,2.429l2.875-3.078c0-.61-2.418-2.423-2.415-3.5,0-.236,1.616-4.045,1.806-4.371.914-1.569,3.173-.475,4.64-1.151v-4.31c-1.23-.06-3.9.165-4.518-1-.2-.375-1.691-4.277-1.692-4.518,0-1.4,1.718-2.235,2.42-3.27l-3.078-3.325c-.763.662-2.293,2.386-3.231,2.446a26.909,26.909,0,0,1-4.7-1.8c-1.331-.918-.686-3.039-.826-4.427M68.905,59.008c-.4-.291-1.014-.164-1.544-.748A9.754,9.754,0,0,1,66.3,55.807c-.14-1.937,4.371-3.051.707-4.944-1.8,1.869-2.941,2.914-5.483,1.386-1.674-1.006-.4-3.26-1-4.116-.287-.408-2.055-.473-2.27.189.15,2.539-.206,4.1-2.931,4.618-2.255.429-3-2.051-3.972-2.1-.04.447-1.12,1.062-1.153,1.136-.509,1.15,2.477,2.564,2.055,4.065-.287,1.02-3.857,4.111-4.541,5.308,1.318.072,3.094-.146,3.823,1.162,1.457,2.611.47,3.326-1.38,5.207l1.323,1.59c1.944-.511,1.658-2.442,4.117-1.968,2.823.544,2.692,2.264,2.621,4.786h2.427c-.115-2.41-.34-4.427,2.578-4.836,2.087-.292,2.095,1.369,3.754,2.076,3.319-2.08-.679-2.541-.7-4.644a7.746,7.746,0,0,1,1.214-2.852,7.528,7.528,0,0,1,3.117-.521c-.549-.474-1.256-2.015-1.7-2.338M14.514,52.255c-.478-.478-2.938-.591-3.418.091-.39.553-.791,4.665-.024,5.1a18.356,18.356,0,0,0,2.508.356c1.254-.279,1.641-4.84.934-5.548M90.2,56.3c-.5-.519-2.334-1.151-3.048-.626a25.465,25.465,0,0,0-1.952,3.72c-.2,1.336,2.379,2.743,3.445,1.81.7-.614,2.358-4.078,1.556-4.9M8.383,63.908c-.5,2.98.369,7.244,0,10.37h6.734V67.813c-.744-.2-2.819-1.285-3.1-1.89a1.4,1.4,0,0,1,1.1-1.888c1.66-.233,7.152,4.37,9.408,4.6a40.714,40.714,0,0,0,7.63-1,3.41,3.41,0,0,0,2.205-1.967c-.416-.308-8.429,1.175-10.314.749-2.224-.5-6.749-4.917-9.09-5.723-2.237-.771-4.225,1.164-4.568,3.22m5.926,13.065-6.182.283L4.882,102.02l1.1-.159Zm74.04,4.882-5.623-2.188L82.2,91.908a87.961,87.961,0,0,0,8.873,10.383l-4.825-9.857Zm-8.915,7.451a59.5,59.5,0,0,0,.328-6.279c-.016-.3.178-.739-.266-.666l-5.064,7.194c-.2,4.262.79,8.487,1.021,12.736.637.2.725-.482.78-.963.322-2.858-.034-8.364,1.527-10.6a10.778,10.778,0,0,1,1.674-1.42" transform="translate(-1.396 -17.218)" fill="#fff"/>
              <path id="Path_919145" data-name="Path 919145" d="M25.859,14.5c1.545-1.514,4.072.3,2.619,1.818-.586.612-5.583,2.279-6.482,1.7a29.549,29.549,0,0,1-2.06-5.306c-.182-2.409,2.88-2.083,2.958.263l.535.175C26.506,6.941,33.6,2.016,40.392.621c1.169-.24,5.029-.829,5.947-.544a1.392,1.392,0,0,1,0,2.721,16.358,16.358,0,0,1-2.837.126,24.74,24.74,0,0,0-15.63,8.343c-.284.342-2.207,3.037-2.014,3.235" transform="translate(-14.56 -0.001)" fill="#fff"/>
              <path id="Path_919146" data-name="Path 919146" d="M235.275,87.182c-.335-1.762,2.231-2.263,2.643-.887.254.851-.74,5.276-1.407,5.755-.877.631-6.054-.662-6.491-1.643-.754-1.692,1.152-1.956,2.293-2.012A16.253,16.253,0,0,0,222.45,82.9c-1.045-.172-2.224.155-3.268-.366-1.769-3.74,3.266-2.493,5.375-2.01a19.427,19.427,0,0,1,8.437,4.492c.4.357,1.99,2.426,2.28,2.162" transform="translate(-159.874 -58.405)" fill="#fff"/>
              <path id="Path_919147" data-name="Path 919147" d="M.7,332.67a56.038,56.038,0,0,1,6.69-.045c1.308.239,1.24,2.4-.277,2.687a38.874,38.874,0,0,1-5.912,0c-1.42-.265-1.575-2.28-.5-2.642" transform="translate(0 -242.974)" fill="#fff"/>
              <path id="Path_919148" data-name="Path 919148" d="M257.238,332.96c.439-.438,6.194-.49,7.064-.326,1.526.288,1.135,2.418-.268,2.679a38.961,38.961,0,0,1-5.912,0,1.461,1.461,0,0,1-.883-2.353" transform="translate(-187.696 -242.975)" fill="#fff"/>
              <path id="Path_919149" data-name="Path 919149" d="M318.7,332.67a56.037,56.037,0,0,1,6.69-.045c1.308.239,1.24,2.4-.277,2.687a38.873,38.873,0,0,1-5.912,0c-1.42-.265-1.575-2.28-.5-2.642" transform="translate(-232.345 -242.974)" fill="#fff"/>
              <path id="Path_919150" data-name="Path 919150" d="M53.518,332.662a45.091,45.091,0,0,1,6.4-.049,1.366,1.366,0,0,1,.563,2.44c-.627.449-6.86.433-7.432-.148a1.493,1.493,0,0,1,.464-2.243" transform="translate(-38.532 -242.956)" fill="#fff"/>
              <path id="Path_919151" data-name="Path 919151" d="M102.637,79.582a8.208,8.208,0,0,0,2.246-4.62c.1-1.213-.734-3.664.962-3.913,2.825-.415,1.653,5.592.976,7.2a10.073,10.073,0,0,1-16.886,2.514c-6.178-7.452.493-18.47,9.894-16.359,1.381.31,5.038,1.662,4.476,3.507-.676,2.217-3.731-.658-5.232-.865-6.059-.836-10.541,4.5-8.064,10.219a7.335,7.335,0,0,0,11.628,2.322" transform="translate(-63.962 -46.86)" fill="#fff"/>
              <path id="Path_919152" data-name="Path 919152" d="M199.253,139.642c7.61-1.553,9.061,9.014,2.783,10.325-7.51,1.568-8.9-9.076-2.783-10.325m3.221,3.258c-2.682-2.449-6.2,2.106-3.137,4.078,2.779,1.786,5.12-2.267,3.137-4.078" transform="translate(-142.78 -101.915)" fill="#fff"/>
            </g>
          </g>
        </g>
      </g>
    </g>
  </g>
</svg>
