<svg xmlns="http://www.w3.org/2000/svg" xmlns:xlink="http://www.w3.org/1999/xlink" width="107.04" height="126" viewBox="0 0 107.04 126">
  <defs>
    <clipPath id="clip-path">
      <path id="Path_885001" data-name="Path 885001" d="M.055.058,71.762,0l-.055,71.7L0,71.759Z" transform="translate(0 0)" fill="#fff" stroke="#685700" stroke-width="4"/>
    </clipPath>
    <clipPath id="clip-path-2">
      <rect id="Rectangle_400938" data-name="Rectangle 400938" width="85" height="85" transform="translate(-0.004)" fill="none"/>
    </clipPath>
    <clipPath id="clip-path-3">
      <rect id="Rectangle_408544" data-name="Rectangle 408544" width="48.544" height="27.085" fill="#fffceb"/>
    </clipPath>
  </defs>
  <g id="Group_1118265" data-name="Group 1118265" transform="translate(-180.998 -5503)">
    <rect id="Rectangle_407422" data-name="Rectangle 407422" width="104.668" height="126" transform="translate(180.998 5503)" fill="#ffc811"/>
    <g id="Group_1117151" data-name="Group 1117151" transform="translate(-203.998 2774.992)">
      <g id="Group_1111452" data-name="Group 1111452" transform="translate(393 2749.008)">
        <g id="Group_1113606" data-name="Group 1113606" transform="translate(6.891 79.253) rotate(-90)">
          <path id="Union_11" data-name="Union 11" d="M35.5,70C15.9,70,0,54.333,0,35V0H35.5C55.107,0,71,15.672,71,35V70Z" transform="translate(0.254 0.105)" fill="#685700" stroke="rgba(0,0,0,0)" stroke-miterlimit="10" stroke-width="1"/>
          <g id="Group_1110743" data-name="Group 1110743" transform="translate(61.936 10.111) rotate(90)">
            <rect id="Rectangle_401104" data-name="Rectangle 401104" width="48.544" height="49.327" transform="translate(1.704 0.203)" fill="none"/>
            <g id="Group_1118269" data-name="Group 1118269" transform="translate(1.705 11.203)">
              <g id="Group_1118269-2" data-name="Group 1118269" clip-path="url(#clip-path-3)">
                <path id="Path_919990" data-name="Path 919990" d="M6.728,11.964c-3.161.385-.587,4.279.621,5.5.519.523,2.8,1.988,2.932,2.21a.727.727,0,0,1,.135.558c-.425,1.06-1.245.4-1.913-.03-2.481-1.609-5.735-5.17-4.376-8.331l.862-.873c-1.506-.167-3.685-.384-3.617,1.729.086,2.687,2.545,5.673,4.525,7.3,7.382,6.066,19.53,6.776,28.422,4.243.753-.215,1.8-.742,2.468-.876a.711.711,0,0,1,.588,1.291,17.451,17.451,0,0,1-3.3,1.144c-8.765,2.394-20.591,1.533-28.094-3.937C3.559,20.123.786,17.093.164,14.08-1.388,6.57,8.5,10.4,12.357,10.713c.589-2.279.839-5.031,1.6-7.23a3.347,3.347,0,0,1,2.06-2.11A21.592,21.592,0,0,1,23.959,0c1.246.029,1.434,1.386.005,1.534-1.483.154-2.837.046-4.4.322-.651.115-4.29.912-4.134,1.813a3.134,3.134,0,0,0,1.98,1.071,3.808,3.808,0,0,1,2.707-1.5c2.328-.5,8.547-.663,10.442.873a3.1,3.1,0,0,1,.453.59c.29.171,2.355-.695,1.931-1.3-.741-1.061-4.688-1.729-6-1.792A.746.746,0,0,1,27.057.17a15.988,15.988,0,0,1,2.292.294c1.676.312,4.474,1.054,5.1,2.819.686,1.921,1.15,4.772,1.639,6.843a2.49,2.49,0,0,1,.037.588c2.6-.332,5.224-1.129,7.855-1.25,8.189-.378,3.511,8.087.141,11.123-.734.661-3.657,2.883-4.487,3.031-.753.134-1.1-.548-.715-1.144.132-.2,2.042-1.254,2.473-1.558,2.118-1.5,4.474-3.862,5.3-6.375,1.051-3.192-.011-3.949-3.2-3.548l.862.873c1.326,2.328-1.113,5.607-2.807,7.12-6.563,5.865-20.36,6.48-28.292,3.545a10.256,10.256,0,0,1-1.748-.754.729.729,0,0,1,.74-1.17c.628.086,2.1.793,2.887,1.018,7.375,2.093,18.615,1.66,24.868-3.211,1.491-1.162,3.6-3.48,3.207-5.544-.1-.509-1.007-.907-1.456-.907H39.742c2.242,1.66.858,4.049-.832,5.492-6.136,5.237-23.195,5.235-29.334,0C7.866,16,6.5,13.645,8.744,11.964c-.643.055-1.389-.076-2.016,0m22.45-7.088a20.486,20.486,0,0,0-9.666,0c-.2.06-.246-.088-.2.279a20.848,20.848,0,0,0,9.036.211c.12-.031,1.132-.243.834-.487m4.307.417c-3.427,1.86-7.769,2.024-11.612,1.813A16.355,16.355,0,0,1,15,5.292c-.685,1.675-.166,2.126,1.267,2.832,3.786,1.865,13.1,1.991,16.651-.412,1.2-.812.917-1.074.567-2.42m.834,3.2a12.3,12.3,0,0,1-5,2.021,27.7,27.7,0,0,1-10.042.024,11.475,11.475,0,0,1-5.046-2.044c-.6,1.88-.4,2.388,1.315,3.272,4,2.059,14.859,2.322,18.4-.655,1.152-.968.382-1.354.37-2.617m.695,3.614c-3.387,2.392-8.379,2.855-12.446,2.648-3.049-.155-6.613-.821-9.1-2.648-.2,1.287-.549,1.808.567,2.7,1.362,1.086,3.819,1.673,5.517,1.99.611.114,2.064.009,2.326.6a.8.8,0,0,1-.138.833c-.485.482-4.17-.368-4.967-.6-2.032-.589-5.617-2.008-4.836-4.686-2.064-.049-4.07.428-2.22,2.706C14.4,21.415,33,21.12,38.286,16.137c2.328-2.193,1.04-3.346-1.741-3.2.8,2.668-2.817,4.1-4.835,4.685a23.542,23.542,0,0,1-7.474.88.707.707,0,0,1-.244-1.37,15.314,15.314,0,0,1,2.2-.028c2.351-.19,5.984-.724,7.952-2.056,1.316-.891,1.189-1.472.875-2.946" transform="translate(0 0)" fill="#fffceb"/>
              </g>
            </g>
          </g>
        </g>
      </g>
      <g id="Group_1115343" data-name="Group 1115343" transform="translate(456.03 2805.465)">
        <path id="Path_886575" data-name="Path 886575" d="M1.139.04A.987.987,0,0,0,0,.851.971.971,0,0,0,.958,1.857.97.97,0,0,0,1.9.838c-.059-.513-.255-.979-.758-.8" transform="translate(9.053 0) rotate(19)" fill="#ffefdb"/>
        <path id="Path_886576" data-name="Path 886576" d="M1.651.037C-.478-.428-.04,3.638.233,4.66a1.575,1.575,0,0,0,.229.547,1.13,1.13,0,0,0,1.211.331,1.865,1.865,0,0,0,1-.828C3.443,3.477,3.62.467,1.651.037" transform="translate(5.496 3.487) rotate(19)" fill="#ffefdb"/>
        <path id="Path_886577" data-name="Path 886577" d="M1.369,2.226C2.816,1.551,1.518-.82.393.293A1.425,1.425,0,0,0,0,1.34a1.127,1.127,0,0,0,.124.517.993.993,0,0,0,1.245.369" transform="translate(10.483 3.542) rotate(19)" fill="#ffefdb"/>
        <path id="Path_886578" data-name="Path 886578" d="M1.944,3.6c.684-.624,1.546-2.373.8-3.19A1.406,1.406,0,0,0,.484.838a5.177,5.177,0,0,0-.45,1.708A1.2,1.2,0,0,0,.123,3.4a1.261,1.261,0,0,0,.316.289,1.419,1.419,0,0,0,.55.286,1.171,1.171,0,0,0,.955-.37" transform="translate(7.717 8.555) rotate(19)" fill="#ffefdb"/>
        <path id="Path_886579" data-name="Path 886579" d="M.518,2.222A.944.944,0,0,0,1.7,2.116C2.719,1.1.929-.876.149.435a1.429,1.429,0,0,0,0,1.271,1.215,1.215,0,0,0,.367.515" transform="translate(13.495 8.172) rotate(19)" fill="#ffefdb"/>
        <path id="Path_886580" data-name="Path 886580" d="M.013.42a.85.85,0,0,0,.219.691A.947.947,0,0,0,.6,1.4a.691.691,0,0,0,.72-.139C2.156.45.236-.6.013.42" transform="translate(13.11 12.226) rotate(19)" fill="#ffefdb"/>
        <path id="Path_886581" data-name="Path 886581" d="M.5.389A1.91,1.91,0,0,0,.057,1.447a2.694,2.694,0,0,0,.08,1.421,1.329,1.329,0,0,0,1.092.864,1.405,1.405,0,0,0,1.31-.982C2.9,1.737,1.854-1.01.5.389" transform="translate(10.328 14.028) rotate(19)" fill="#ffefdb"/>
        <path id="Path_886582" data-name="Path 886582" d="M.306,1.482A.918.918,0,0,0,1.371,1.5C2.556.652.735-.742.086.481a.82.82,0,0,0,.22,1" transform="translate(3.516 10.268) rotate(19)" fill="#ffefdb"/>
        <path id="Path_886583" data-name="Path 886583" d="M.93.092A1.2,1.2,0,0,0,.345.47a1.555,1.555,0,0,0-.259.769A9.845,9.845,0,0,0,0,2.305,2.38,2.38,0,0,0,.175,3.412a1.031,1.031,0,0,0,.907.61,1.212,1.212,0,0,0,.885-.556C2.638,2.552,3-.574.93.092" transform="translate(1.31 12.851) rotate(19)" fill="#ffefdb"/>
        <path id="Path_886584" data-name="Path 886584" d="M2.416.395C1.91.049,1.045-.207.565.234A2.827,2.827,0,0,0,.01,2,2.789,2.789,0,0,0,.288,3.573a1.436,1.436,0,0,0,1.366.752,1.558,1.558,0,0,0,.778-.378A2.255,2.255,0,0,0,2.416.395" transform="translate(5.154 16.586) rotate(19)" fill="#ffefdb"/>
      </g>
      <g id="Group_1115350" data-name="Group 1115350" transform="translate(416.571 2779.005) rotate(180)">
        <path id="Path_886575-2" data-name="Path 886575" d="M1.139.04A.987.987,0,0,0,0,.851.971.971,0,0,0,.958,1.857.97.97,0,0,0,1.9.838c-.059-.513-.255-.979-.758-.8" transform="translate(9.053 0) rotate(19)" fill="#ffefdb"/>
        <path id="Path_886576-2" data-name="Path 886576" d="M1.651.037C-.478-.428-.04,3.638.233,4.66a1.575,1.575,0,0,0,.229.547,1.13,1.13,0,0,0,1.211.331,1.865,1.865,0,0,0,1-.828C3.443,3.477,3.62.467,1.651.037" transform="translate(5.496 3.487) rotate(19)" fill="#ffefdb"/>
        <path id="Path_886577-2" data-name="Path 886577" d="M1.369,2.226C2.816,1.551,1.518-.82.393.293A1.425,1.425,0,0,0,0,1.34a1.127,1.127,0,0,0,.124.517.993.993,0,0,0,1.245.369" transform="translate(10.483 3.542) rotate(19)" fill="#ffefdb"/>
        <path id="Path_886578-2" data-name="Path 886578" d="M1.944,3.6c.684-.624,1.546-2.373.8-3.19A1.406,1.406,0,0,0,.484.838a5.177,5.177,0,0,0-.45,1.708A1.2,1.2,0,0,0,.123,3.4a1.261,1.261,0,0,0,.316.289,1.419,1.419,0,0,0,.55.286,1.171,1.171,0,0,0,.955-.37" transform="translate(7.717 8.555) rotate(19)" fill="#ffefdb"/>
        <path id="Path_886579-2" data-name="Path 886579" d="M.518,2.222A.944.944,0,0,0,1.7,2.116C2.719,1.1.929-.876.149.435a1.429,1.429,0,0,0,0,1.271,1.215,1.215,0,0,0,.367.515" transform="translate(13.495 8.172) rotate(19)" fill="#ffefdb"/>
        <path id="Path_886580-2" data-name="Path 886580" d="M.013.42a.85.85,0,0,0,.219.691A.947.947,0,0,0,.6,1.4a.691.691,0,0,0,.72-.139C2.156.45.236-.6.013.42" transform="translate(13.11 12.226) rotate(19)" fill="#ffefdb"/>
        <path id="Path_886581-2" data-name="Path 886581" d="M.5.389A1.91,1.91,0,0,0,.057,1.447a2.694,2.694,0,0,0,.08,1.421,1.329,1.329,0,0,0,1.092.864,1.405,1.405,0,0,0,1.31-.982C2.9,1.737,1.854-1.01.5.389" transform="translate(10.328 14.028) rotate(19)" fill="#ffefdb"/>
        <path id="Path_886582-2" data-name="Path 886582" d="M.306,1.482A.918.918,0,0,0,1.371,1.5C2.556.652.735-.742.086.481a.82.82,0,0,0,.22,1" transform="translate(3.516 10.268) rotate(19)" fill="#ffefdb"/>
        <path id="Path_886583-2" data-name="Path 886583" d="M.93.092A1.2,1.2,0,0,0,.345.47a1.555,1.555,0,0,0-.259.769A9.845,9.845,0,0,0,0,2.305,2.38,2.38,0,0,0,.175,3.412a1.031,1.031,0,0,0,.907.61,1.212,1.212,0,0,0,.885-.556C2.638,2.552,3-.574.93.092" transform="translate(1.31 12.851) rotate(19)" fill="#ffefdb"/>
        <path id="Path_886584-2" data-name="Path 886584" d="M2.416.395C1.91.049,1.045-.207.565.234A2.827,2.827,0,0,0,.01,2,2.789,2.789,0,0,0,.288,3.573a1.436,1.436,0,0,0,1.366.752,1.558,1.558,0,0,0,.778-.378A2.255,2.255,0,0,0,2.416.395" transform="translate(5.154 16.586) rotate(19)" fill="#ffefdb"/>
      </g>
    </g>
  </g>
</svg>
