<svg xmlns="http://www.w3.org/2000/svg" xmlns:xlink="http://www.w3.org/1999/xlink" width="106.706" height="126" viewBox="0 0 106.706 126">
  <defs>
    <clipPath id="clip-path">
      <path id="Path_885001" data-name="Path 885001" d="M.055.058,71.762,0l-.055,71.7L0,71.759Z" transform="translate(0 0)" fill="#fff" stroke="#685700" stroke-width="4"/>
    </clipPath>
    <clipPath id="clip-path-2">
      <rect id="Rectangle_400938" data-name="Rectangle 400938" width="85" height="85" transform="translate(-0.004)" fill="none"/>
    </clipPath>
    <clipPath id="clip-path-3">
      <rect id="Rectangle_401492" data-name="Rectangle 401492" width="52.101" height="52.101" transform="translate(-0.294 0)" fill="#fffceb" stroke="#707070" stroke-width="1"/>
    </clipPath>
    <clipPath id="clip-path-4">
      <rect id="Rectangle_408543" data-name="Rectangle 408543" width="34.38" height="49.565" fill="#fffceb"/>
    </clipPath>
  </defs>
  <g id="Group_1118266" data-name="Group 1118266" transform="translate(-810.998 -5503)">
    <rect id="Rectangle_407423" data-name="Rectangle 407423" width="104.668" height="126" transform="translate(810.998 5503)" fill="#ffc811"/>
    <g id="Group_1117152" data-name="Group 1117152" transform="translate(428.002 2774.992)">
      <g id="Group_1111452" data-name="Group 1111452" transform="translate(393 2749.008)">
        <g id="Group_1113606" data-name="Group 1113606" transform="translate(6.891 79.253) rotate(-90)">
          <path id="Union_11" data-name="Union 11" d="M35.5,70C15.9,70,0,54.333,0,35V0H35.5C55.107,0,71,15.672,71,35V70Z" transform="translate(0.254 0.105)" fill="#685700" stroke="rgba(0,0,0,0)" stroke-miterlimit="10" stroke-width="1"/>
          <g id="Group_1110743" data-name="Group 1110743" transform="translate(61.936 10.111) rotate(90)">
            <rect id="Rectangle_401104" data-name="Rectangle 401104" width="48.544" height="49.327" transform="translate(1.704 1.203)" fill="none"/>
            <g id="Mask_Group_1098697" data-name="Mask Group 1098697" transform="translate(-0.002 0.203)" clip-path="url(#clip-path-3)">
              <g id="Group_1118268" data-name="Group 1118268" transform="translate(8.567 1.268)">
                <g id="Group_1118267" data-name="Group 1118267" clip-path="url(#clip-path-4)">
                  <path id="Path_919988" data-name="Path 919988" d="M15.759.049c9.885-.68,17.886,5.7,18.439,14.022.581,8.743-.458,17.95,0,26.742-.258,4.377-4.228,8.126-9.394,8.531a133.187,133.187,0,0,1-14.9.024C4.745,49.043.746,45.577.233,41.212c.45-8.942-.672-18.4-.028-27.282C.729,6.69,7.162.64,15.759.049M31.87,21.927v-8.7a12.081,12.081,0,0,0-1.515-4.364C25.506.578,11.972-.488,5.447,6.949c-1.226,1.4-2.915,4.4-2.915,6.14v8.839H5.184V13.654A11.023,11.023,0,0,1,7.367,8.587c.778-.969,3.509-3.266,4.874-3.346A1.028,1.028,0,0,1,13.224,6.8c-.08.141-2.441,1.368-2.908,1.761C9.226,9.474,7.5,12.078,7.5,13.371v8.556H26.9V13.371c0-1.293-1.721-3.9-2.811-4.814-.467-.393-2.828-1.62-2.908-1.761a1.028,1.028,0,0,1,.983-1.555c1.365.079,4.1,2.376,4.874,3.346a11.023,11.023,0,0,1,2.183,5.067v8.273ZM8.5,23.907H2.532V40.029c.98-.462,2.055-2.25,3.218-2.118.938.106,2.79,2.289,3.661,2.823.248,0,2.847-2.614,3.389-2.763,1.575-.433,3.222,2.057,4.4,2.763,1.009-.629,2.755-2.879,3.975-2.836,1.067.038,2.893,2.264,3.816,2.836.985-.612,2.794-2.905,3.979-2.839.828.046,2.132,1.748,2.9,2.135V23.907H25.9v2.616c0,1.487,1.85,5.819,2.272,7.678.142.627.536,1.831-.535,2.006a55.846,55.846,0,0,1-5.877-.071c-.577-.217-.535-.8-.483-1.254.288-2.515,1.951-5.784,2.469-8.359V23.907H10.654v2.616c.518,2.575,2.181,5.843,2.469,8.359.052.451.094,1.037-.483,1.254a55.846,55.846,0,0,1-5.877.071c-1.071-.175-.677-1.379-.535-2.006C6.65,32.342,8.5,28.011,8.5,26.523Zm2.154,10.464L9.5,30.837c.039.541-1.1,3.3-.831,3.535Zm15.085,0-.04-.745-.953-2.79-1,3.534ZM5.466,40.326,2.9,42.522a6.2,6.2,0,0,0,2.37,3.161l3.238-2.9a20.427,20.427,0,0,0-2.567-2.342c-.167-.1-.241-.17-.471-.118m7.78,0-2.911,2.587,3.032,2.484,2.911-2.587Zm7.79,0-2.911,2.587,3.032,2.484,2.911-2.587Zm7.635,0a18.845,18.845,0,0,0-2.756,2.582l3.22,2.775a6.2,6.2,0,0,0,2.37-3.161,23.779,23.779,0,0,0-2.362-2.078c-.167-.1-.241-.17-.471-.118m-16.36,7.056-2.9-2.409a11.568,11.568,0,0,0-2.064,1.641c-.079.3,1.556.768,1.733.768Zm7.79,0a18.113,18.113,0,0,0-2.9-2.409c-.365,0-2.5,2.032-2.9,2.409Zm1.989,0h3.232c.177,0,1.812-.464,1.733-.768a11.568,11.568,0,0,0-2.064-1.641Z" transform="translate(0 0)" fill="#fffceb"/>
                  <path id="Path_919989" data-name="Path 919989" d="M98.031,30.052c1.68-.295,1.824,1.744.421,1.933-1.231.166-1.773-1.7-.421-1.933" transform="translate(-81.123 -25.777)" fill="#fffceb"/>
                </g>
              </g>
            </g>
          </g>
        </g>
      </g>
      <g id="Group_1115343" data-name="Group 1115343" transform="translate(456.03 2805.465)">
        <path id="Path_886575" data-name="Path 886575" d="M1.139.04A.987.987,0,0,0,0,.851.971.971,0,0,0,.958,1.857.97.97,0,0,0,1.9.838c-.059-.513-.255-.979-.758-.8" transform="translate(9.053 0) rotate(19)" fill="#ffefdb"/>
        <path id="Path_886576" data-name="Path 886576" d="M1.651.037C-.478-.428-.04,3.638.233,4.66a1.575,1.575,0,0,0,.229.547,1.13,1.13,0,0,0,1.211.331,1.865,1.865,0,0,0,1-.828C3.443,3.477,3.62.467,1.651.037" transform="translate(5.496 3.487) rotate(19)" fill="#ffefdb"/>
        <path id="Path_886577" data-name="Path 886577" d="M1.369,2.226C2.816,1.551,1.518-.82.393.293A1.425,1.425,0,0,0,0,1.34a1.127,1.127,0,0,0,.124.517.993.993,0,0,0,1.245.369" transform="translate(10.483 3.542) rotate(19)" fill="#ffefdb"/>
        <path id="Path_886578" data-name="Path 886578" d="M1.944,3.6c.684-.624,1.546-2.373.8-3.19A1.406,1.406,0,0,0,.484.838a5.177,5.177,0,0,0-.45,1.708A1.2,1.2,0,0,0,.123,3.4a1.261,1.261,0,0,0,.316.289,1.419,1.419,0,0,0,.55.286,1.171,1.171,0,0,0,.955-.37" transform="translate(7.717 8.555) rotate(19)" fill="#ffefdb"/>
        <path id="Path_886579" data-name="Path 886579" d="M.518,2.222A.944.944,0,0,0,1.7,2.116C2.719,1.1.929-.876.149.435a1.429,1.429,0,0,0,0,1.271,1.215,1.215,0,0,0,.367.515" transform="translate(13.495 8.172) rotate(19)" fill="#ffefdb"/>
        <path id="Path_886580" data-name="Path 886580" d="M.013.42a.85.85,0,0,0,.219.691A.947.947,0,0,0,.6,1.4a.691.691,0,0,0,.72-.139C2.156.45.236-.6.013.42" transform="translate(13.11 12.226) rotate(19)" fill="#ffefdb"/>
        <path id="Path_886581" data-name="Path 886581" d="M.5.389A1.91,1.91,0,0,0,.057,1.447a2.694,2.694,0,0,0,.08,1.421,1.329,1.329,0,0,0,1.092.864,1.405,1.405,0,0,0,1.31-.982C2.9,1.737,1.854-1.01.5.389" transform="translate(10.328 14.028) rotate(19)" fill="#ffefdb"/>
        <path id="Path_886582" data-name="Path 886582" d="M.306,1.482A.918.918,0,0,0,1.371,1.5C2.556.652.735-.742.086.481a.82.82,0,0,0,.22,1" transform="translate(3.516 10.268) rotate(19)" fill="#ffefdb"/>
        <path id="Path_886583" data-name="Path 886583" d="M.93.092A1.2,1.2,0,0,0,.345.47a1.555,1.555,0,0,0-.259.769A9.845,9.845,0,0,0,0,2.305,2.38,2.38,0,0,0,.175,3.412a1.031,1.031,0,0,0,.907.61,1.212,1.212,0,0,0,.885-.556C2.638,2.552,3-.574.93.092" transform="translate(1.31 12.851) rotate(19)" fill="#ffefdb"/>
        <path id="Path_886584" data-name="Path 886584" d="M2.416.395C1.91.049,1.045-.207.565.234A2.827,2.827,0,0,0,.01,2,2.789,2.789,0,0,0,.288,3.573a1.436,1.436,0,0,0,1.366.752,1.558,1.558,0,0,0,.778-.378A2.255,2.255,0,0,0,2.416.395" transform="translate(5.154 16.586) rotate(19)" fill="#ffefdb"/>
      </g>
      <g id="Group_1115350" data-name="Group 1115350" transform="translate(416.571 2779.005) rotate(180)">
        <path id="Path_886575-2" data-name="Path 886575" d="M1.139.04A.987.987,0,0,0,0,.851.971.971,0,0,0,.958,1.857.97.97,0,0,0,1.9.838c-.059-.513-.255-.979-.758-.8" transform="translate(9.053 0) rotate(19)" fill="#ffefdb"/>
        <path id="Path_886576-2" data-name="Path 886576" d="M1.651.037C-.478-.428-.04,3.638.233,4.66a1.575,1.575,0,0,0,.229.547,1.13,1.13,0,0,0,1.211.331,1.865,1.865,0,0,0,1-.828C3.443,3.477,3.62.467,1.651.037" transform="translate(5.496 3.487) rotate(19)" fill="#ffefdb"/>
        <path id="Path_886577-2" data-name="Path 886577" d="M1.369,2.226C2.816,1.551,1.518-.82.393.293A1.425,1.425,0,0,0,0,1.34a1.127,1.127,0,0,0,.124.517.993.993,0,0,0,1.245.369" transform="translate(10.483 3.542) rotate(19)" fill="#ffefdb"/>
        <path id="Path_886578-2" data-name="Path 886578" d="M1.944,3.6c.684-.624,1.546-2.373.8-3.19A1.406,1.406,0,0,0,.484.838a5.177,5.177,0,0,0-.45,1.708A1.2,1.2,0,0,0,.123,3.4a1.261,1.261,0,0,0,.316.289,1.419,1.419,0,0,0,.55.286,1.171,1.171,0,0,0,.955-.37" transform="translate(7.717 8.555) rotate(19)" fill="#ffefdb"/>
        <path id="Path_886579-2" data-name="Path 886579" d="M.518,2.222A.944.944,0,0,0,1.7,2.116C2.719,1.1.929-.876.149.435a1.429,1.429,0,0,0,0,1.271,1.215,1.215,0,0,0,.367.515" transform="translate(13.495 8.172) rotate(19)" fill="#ffefdb"/>
        <path id="Path_886580-2" data-name="Path 886580" d="M.013.42a.85.85,0,0,0,.219.691A.947.947,0,0,0,.6,1.4a.691.691,0,0,0,.72-.139C2.156.45.236-.6.013.42" transform="translate(13.11 12.226) rotate(19)" fill="#ffefdb"/>
        <path id="Path_886581-2" data-name="Path 886581" d="M.5.389A1.91,1.91,0,0,0,.057,1.447a2.694,2.694,0,0,0,.08,1.421,1.329,1.329,0,0,0,1.092.864,1.405,1.405,0,0,0,1.31-.982C2.9,1.737,1.854-1.01.5.389" transform="translate(10.328 14.028) rotate(19)" fill="#ffefdb"/>
        <path id="Path_886582-2" data-name="Path 886582" d="M.306,1.482A.918.918,0,0,0,1.371,1.5C2.556.652.735-.742.086.481a.82.82,0,0,0,.22,1" transform="translate(3.516 10.268) rotate(19)" fill="#ffefdb"/>
        <path id="Path_886583-2" data-name="Path 886583" d="M.93.092A1.2,1.2,0,0,0,.345.47a1.555,1.555,0,0,0-.259.769A9.845,9.845,0,0,0,0,2.305,2.38,2.38,0,0,0,.175,3.412a1.031,1.031,0,0,0,.907.61,1.212,1.212,0,0,0,.885-.556C2.638,2.552,3-.574.93.092" transform="translate(1.31 12.851) rotate(19)" fill="#ffefdb"/>
        <path id="Path_886584-2" data-name="Path 886584" d="M2.416.395C1.91.049,1.045-.207.565.234A2.827,2.827,0,0,0,.01,2,2.789,2.789,0,0,0,.288,3.573a1.436,1.436,0,0,0,1.366.752,1.558,1.558,0,0,0,.778-.378A2.255,2.255,0,0,0,2.416.395" transform="translate(5.154 16.586) rotate(19)" fill="#ffefdb"/>
      </g>
    </g>
  </g>
</svg>
