<svg xmlns="http://www.w3.org/2000/svg" xmlns:xlink="http://www.w3.org/1999/xlink" width="178" height="178" viewBox="0 0 178 178">
  <defs>
    <clipPath id="clip-path">
      <rect id="Rectangle_408508" data-name="Rectangle 408508" width="88.117" height="86.276" fill="none"/>
    </clipPath>
  </defs>
  <g id="Group_1118151" data-name="Group 1118151" transform="translate(-10.074 9219.916)">
    <g id="Group_1117127" data-name="Group 1117127" transform="translate(10.074 -9219.915)">
      <path id="Path_882862" data-name="Path 882862" d="M89,0A89.047,89.047,0,1,1,0,89,89,89,0,0,1,89,0Z" transform="translate(0 -0.001)" fill="#f6ae5c"/>
      <path id="Path_882863" data-name="Path 882863" d="M78.668,0A78.668,78.668,0,1,1,0,78.668,78.668,78.668,0,0,1,78.668,0Z" transform="translate(10.332 10.331)" fill="#f3f9ff"/>
    </g>
    <g id="Group_1117130" data-name="Group 1117130" transform="translate(49.074 -9180.915)">
      <rect id="Rectangle_401104" data-name="Rectangle 401104" width="88.117" height="100.574" transform="translate(-0.074 -0.412)" fill="none"/>
      <g id="Group_1118210" data-name="Group 1118210" transform="translate(-0.074 7.589)">
        <g id="Group_1118209" data-name="Group 1118209" transform="translate(0 0)" clip-path="url(#clip-path)">
          <path id="Path_919744" data-name="Path 919744" d="M41.576,11.728A28.993,28.993,0,1,0,70.57,40.721,28.993,28.993,0,0,0,41.576,11.728" transform="translate(2.139 1.995)" fill="#afbefc"/>
          <path id="Path_919745" data-name="Path 919745" d="M52.218,36.668a4.866,4.866,0,1,0-3.553.06,7.9,7.9,0,0,0-2.82,1.3,11.917,11.917,0,0,1,.879,4.491V53.359H58.552V44.441a7.938,7.938,0,0,0-6.333-7.773" transform="translate(10.736 2.652)" fill="#1e2ad5"/>
          <path id="Path_919746" data-name="Path 919746" d="M22.251,36.668a4.866,4.866,0,1,1,3.553.06,7.9,7.9,0,0,1,2.82,1.3,11.917,11.917,0,0,0-.879,4.491V53.359H15.918V44.441a7.937,7.937,0,0,1,6.333-7.773" transform="translate(5.707 2.652)" fill="#1e2ad5"/>
          <path id="Path_919747" data-name="Path 919747" d="M39.654,33.891a5.912,5.912,0,1,0-4.319.073,9.63,9.63,0,0,0-7.462,9.372V54.172H47.35V43.335a9.645,9.645,0,0,0-7.7-9.444" transform="translate(7.739 1.839)" fill="#1e2ad5"/>
          <path id="Path_919748" data-name="Path 919748" d="M87.722,23.614l-.08-.238-.04-.118-.02-.06a1.29,1.29,0,0,0-.07-.16c-.115-.2-.229-.4-.359-.578l-.452-.473c-.164-.131-.333-.245-.5-.363a6.421,6.421,0,0,0-2.085-.787,16.306,16.306,0,0,0-4.014-.255,36.724,36.724,0,0,0-3.783.369,69.1,69.1,0,0,0-7,1.4c-.668.17-1.306.345-1.953.518.129.188.253.381.378.572.577-.125,1.142-.257,1.735-.372a67.864,67.864,0,0,1,6.968-1.05,34.773,34.773,0,0,1,3.674-.15,15,15,0,0,1,3.645.432,4.886,4.886,0,0,1,1.544.673l.29.234c.07.09.144.177.22.26.053.095.094.192.15.281l.1.373a3.041,3.041,0,0,1-.282,1.385,7.909,7.909,0,0,1-.928,1.554,30.99,30.99,0,0,1-5.886,5.479c-2.234,1.67-4.611,3.247-7.088,4.739s-5.014,2.96-7.626,4.345c-5.235,2.75-10.639,5.4-16.177,7.757-5.5,2.437-11.126,4.585-16.71,6.53-2.8.964-5.6,1.833-8.379,2.609-2.78.794-5.555,1.457-8.3,1.952a31.083,31.083,0,0,1-8.019.565A4.609,4.609,0,0,1,3.664,59.86l-.082-.133-.044-.064-.023-.033v0c-.047-.144-.1-.3-.138-.426a.867.867,0,0,0-.019-.252l.027-.367A4.891,4.891,0,0,1,3.945,57a14.987,14.987,0,0,1,2.168-2.958,35.109,35.109,0,0,1,2.614-2.585,68.053,68.053,0,0,1,5.519-4.381c.364-.264.727-.519,1.088-.773-.057-.226-.125-.448-.178-.676-.443.28-.881.545-1.33.835a69.034,69.034,0,0,0-5.8,4.168,36.475,36.475,0,0,0-2.851,2.513,16.321,16.321,0,0,0-2.553,3.11,6.409,6.409,0,0,0-.848,2.065c-.028.2-.061.4-.077.618.007.246.027.5.057.742.041.184.088.326.131.493a1.031,1.031,0,0,0,.056.157l.039.075.081.152.17.3a4.477,4.477,0,0,0,1.981,1.53A9.733,9.733,0,0,0,6.39,63a31.685,31.685,0,0,0,8.664-.111,103.645,103.645,0,0,0,17.293-3.982,173.562,173.562,0,0,0,17.1-6.384,173.2,173.2,0,0,0,16.328-8.154,103.889,103.889,0,0,0,14.7-9.93,31.772,31.772,0,0,0,5.989-6.257,9.681,9.681,0,0,0,1.041-2.01,4.384,4.384,0,0,0,.214-2.558" transform="translate(0.288 3.497)" fill="#f6ae5c"/>
          <path id="Path_919749" data-name="Path 919749" d="M22.7.361,22.466.44,22.35.478,22.291.5a1.361,1.361,0,0,0-.157.068c-.193.112-.388.225-.566.351l-.462.443c-.129.16-.24.326-.356.491a6.3,6.3,0,0,0-.771,2.042,15.961,15.961,0,0,0-.249,3.93,36.183,36.183,0,0,0,.36,3.7,67.453,67.453,0,0,0,1.37,6.859c.165.653.337,1.278.508,1.912.184-.126.372-.248.559-.37-.122-.565-.252-1.119-.365-1.7a66.82,66.82,0,0,1-1.027-6.824,33.948,33.948,0,0,1-.146-3.6,14.661,14.661,0,0,1,.424-3.567,4.788,4.788,0,0,1,.658-1.513l.229-.284c.089-.069.173-.14.255-.215.092-.051.187-.091.275-.146l.365-.1a2.976,2.976,0,0,1,1.356.275,7.719,7.719,0,0,1,1.521.909,30.215,30.215,0,0,1,5.366,5.765c1.635,2.187,3.18,4.514,4.64,6.939s2.9,4.909,4.255,7.467c2.691,5.127,5.29,10.418,7.6,15.841,2.386,5.389,4.489,10.894,6.394,16.362.943,2.738,1.795,5.479,2.555,8.205.777,2.721,1.425,5.439,1.909,8.126a30.4,30.4,0,0,1,.555,7.852,4.52,4.52,0,0,1-1.152,2.945l-.13.08L58,82.793l-.032.022h0c-.142.047-.293.1-.417.136a.836.836,0,0,0-.247.019l-.359-.027a4.8,4.8,0,0,1-1.553-.549,14.622,14.622,0,0,1-2.9-2.124,34.568,34.568,0,0,1-2.532-2.559,66.76,66.76,0,0,1-4.289-5.4c-.259-.357-.508-.711-.757-1.066-.221.056-.438.124-.661.174.273.435.534.862.818,1.3a67.666,67.666,0,0,0,4.08,5.682,35.878,35.878,0,0,0,2.462,2.792,16.006,16.006,0,0,0,3.044,2.5,6.288,6.288,0,0,0,2.022.83c.2.028.394.061.606.076.24-.007.486-.027.725-.057.18-.04.321-.084.483-.126a1.485,1.485,0,0,0,.152-.055l.075-.04.149-.078.295-.166a4.367,4.367,0,0,0,1.5-1.94,9.434,9.434,0,0,0,.6-2.136,31.022,31.022,0,0,0-.109-8.484,101.333,101.333,0,0,0-3.9-16.933A169.652,169.652,0,0,0,51,37.842a169.363,169.363,0,0,0-7.983-15.987A101.736,101.736,0,0,0,33.3,7.455,31.185,31.185,0,0,0,27.171,1.59,9.513,9.513,0,0,0,25.2.571,4.293,4.293,0,0,0,22.7.361" transform="translate(3.351 0.044)" fill="#f6ae5c"/>
          <path id="Path_919750" data-name="Path 919750" d="M58.819.424,58.6.314l-.11-.055L58.431.23a1.356,1.356,0,0,0-.16-.063C58.053.11,57.833.05,57.615.014L56.969,0c-.206.022-.4.062-.6.1A6.342,6.342,0,0,0,54.357,1a16.113,16.113,0,0,0-2.984,2.628,36.367,36.367,0,0,0-2.386,2.9,68.222,68.222,0,0,0-3.918,5.874c-.349.585-.672,1.154-1,1.728.222.041.443.089.663.136.317-.491.619-.978.952-1.474a67.5,67.5,0,0,1,4.137-5.6A34.087,34.087,0,0,1,52.282,4.52a14.811,14.811,0,0,1,2.849-2.245,4.845,4.845,0,0,1,1.55-.61l.366-.04c.112.014.223.023.336.028.1.029.2.068.3.092l.331.19A3.011,3.011,0,0,1,58.788,3.1a7.768,7.768,0,0,1,.436,1.735,30.528,30.528,0,0,1-.284,7.944c-.394,2.729-.952,5.492-1.64,8.266S55.863,26.618,55,29.412c-1.737,5.581-3.66,11.212-5.885,16.729C46.977,51.692,44.548,57.122,42,62.385q-1.92,3.942-4.033,7.681c-1.388,2.5-2.864,4.9-4.437,7.164a30.678,30.678,0,0,1-5.209,6A4.559,4.559,0,0,1,25.4,84.51l-.15-.035-.076-.015-.039-.006h0c-.135-.068-.282-.136-.394-.2a.871.871,0,0,0-.19-.163l-.238-.275a4.849,4.849,0,0,1-.716-1.5,14.779,14.779,0,0,1-.552-3.583,34.827,34.827,0,0,1,.02-3.634,67.538,67.538,0,0,1,.8-6.92c.069-.439.144-.87.22-1.3-.2-.118-.4-.225-.6-.347-.116.505-.235,1-.346,1.514A68.125,68.125,0,0,0,22,75.013a35.833,35.833,0,0,0-.236,3.75,16.134,16.134,0,0,0,.388,3.958A6.367,6.367,0,0,0,23,84.757c.123.164.239.324.378.487.177.166.365.328.558.477.157.1.29.167.436.254a1.207,1.207,0,0,0,.147.069l.081.026.163.05.329.092a4.427,4.427,0,0,0,2.455-.316A9.581,9.581,0,0,0,29.5,84.8a31.375,31.375,0,0,0,5.978-6.133,102.41,102.41,0,0,0,9.3-14.87,171.466,171.466,0,0,0,7.487-16.413,170.575,170.575,0,0,0,5.713-17.111,102.6,102.6,0,0,0,3.338-17.218,31.461,31.461,0,0,0-.187-8.56,9.515,9.515,0,0,0-.677-2.133A4.333,4.333,0,0,0,58.819.424" transform="translate(3.7 0.001)" fill="#ffc811"/>
          <path id="Path_919751" data-name="Path 919751" d="M85.851,59.224l.11-.222.055-.11.028-.056a1.445,1.445,0,0,0,.063-.16c.057-.218.117-.438.153-.655l.014-.647c-.022-.2-.062-.4-.1-.6a6.342,6.342,0,0,0-.907-2.009,16.156,16.156,0,0,0-2.628-2.984,36.367,36.367,0,0,0-2.9-2.386,68.22,68.22,0,0,0-5.874-3.918c-.585-.349-1.154-.672-1.728-1-.041.222-.089.443-.136.663.491.317.978.619,1.474.952a67.505,67.505,0,0,1,5.6,4.137,34.088,34.088,0,0,1,2.672,2.463A14.811,14.811,0,0,1,84,55.536a4.845,4.845,0,0,1,.61,1.55l.04.366c-.014.112-.023.223-.028.336-.029.1-.068.2-.092.3l-.19.331a3.011,3.011,0,0,1-1.164.772,7.769,7.769,0,0,1-1.735.436,30.528,30.528,0,0,1-7.944-.284c-2.729-.394-5.492-.952-8.266-1.64s-5.573-1.437-8.367-2.294c-5.581-1.737-11.212-3.66-16.729-5.885-5.551-2.142-10.981-4.571-16.244-7.115q-3.942-1.92-7.681-4.033c-2.5-1.388-4.9-2.864-7.164-4.437a30.677,30.677,0,0,1-6-5.209,4.559,4.559,0,0,1-1.28-2.925l.036-.15.014-.076.006-.039h0c.068-.135.136-.282.2-.394a.871.871,0,0,0,.163-.19l.275-.238a4.849,4.849,0,0,1,1.5-.716,14.779,14.779,0,0,1,3.583-.552,34.827,34.827,0,0,1,3.634.02,67.538,67.538,0,0,1,6.92.8c.19.029.377.061.564.092l.373-.634c-.264-.062-.529-.123-.8-.181A68.125,68.125,0,0,0,11.262,22.4a35.834,35.834,0,0,0-3.75-.236,16.079,16.079,0,0,0-3.958.39,6.337,6.337,0,0,0-2.036.851c-.164.123-.324.239-.487.378-.166.177-.328.365-.477.558-.1.157-.167.29-.253.436a.985.985,0,0,0-.07.147L.2,25.008l-.049.163L.063,25.5a4.417,4.417,0,0,0,.315,2.455,9.581,9.581,0,0,0,1.1,1.953,31.375,31.375,0,0,0,6.133,5.978,102.472,102.472,0,0,0,14.87,9.3,171.466,171.466,0,0,0,16.413,7.487A170.575,170.575,0,0,0,56,58.389,102.6,102.6,0,0,0,73.22,61.727a31.461,31.461,0,0,0,8.56-.187,9.515,9.515,0,0,0,2.133-.677,4.346,4.346,0,0,0,1.938-1.638" transform="translate(0 3.77)" fill="#ffc811"/>
        </g>
      </g>
    </g>
  </g>
</svg>
