<svg xmlns="http://www.w3.org/2000/svg" xmlns:xlink="http://www.w3.org/1999/xlink" width="105" height="105.999" viewBox="0 0 105 105.999">
  <defs>
    <clipPath id="clip-path">
      <rect id="Rectangle_401492" data-name="Rectangle 401492" width="98.404" height="98.405" transform="translate(0 0)" fill="#fff" stroke="#707070" stroke-width="1"/>
    </clipPath>
    <clipPath id="clip-path-2">
      <rect id="Rectangle_406251" data-name="Rectangle 406251" width="104.651" height="104.651" fill="#1e2ad5"/>
    </clipPath>
    <clipPath id="clip-path-3">
      <rect id="Rectangle_408870" data-name="Rectangle 408870" width="62.846" height="57.009" fill="#fff"/>
    </clipPath>
    <clipPath id="clip-path-4">
      <rect id="Rectangle_401492-2" data-name="Rectangle 401492" width="96.986" height="96.987" transform="translate(0 0)" fill="#fffceb" stroke="#707070" stroke-width="1"/>
    </clipPath>
  </defs>
  <g id="Group_1116877" data-name="Group 1116877" transform="translate(-313 -7638)">
    <g id="Group_1115376" data-name="Group 1115376" transform="translate(319.596 7641.203)">
      <rect id="Rectangle_401104" data-name="Rectangle 401104" width="91.384" height="92.93" transform="translate(3.51 0)" fill="none"/>
    </g>
    <g id="Group_1115379" data-name="Group 1115379" transform="translate(313 7638)">
      <g id="Group_1115374" data-name="Group 1115374" transform="translate(0)">
        <g id="Group_1113673" data-name="Group 1113673">
          <g id="Group_1113672" data-name="Group 1113672" clip-path="url(#clip-path-2)">
            <path id="Path_886855" data-name="Path 886855" d="M77.23,91.5c52.8-5.284,23.112-96.743-29.3-91.268C25.7,2.557,7.454,19.929,1.886,42.315-2.836,61.3,1.36,82.858,13.914,97.344,30.507,116.488,53.071,93.922,77.23,91.5" transform="translate(0 0)" fill="#1e2ad5"/>
          </g>
        </g>
      </g>
      <g id="Group_1119002" data-name="Group 1119002" transform="translate(19.414 22.057)">
        <g id="Group_1119002-2" data-name="Group 1119002" clip-path="url(#clip-path-3)">
          <path id="Path_921780" data-name="Path 921780" d="M62.234,23.9a1.193,1.193,0,0,1,.477.312L62.846,56.6l-.333.409L.269,56.933,0,56.275.179,24.21c.315-.5,1.856-.252,2.425-.31a12.263,12.263,0,0,1-.194-3.253c.008-.452.225-.985.2-1.287-.039-.414-.524-.611-.716-.957-.654-1.178-.688-4.734.343-5.724.438-.421.908-.345,1.275-.755A12.265,12.265,0,0,1,3.34,8.778c.024-.454.334-1.134.318-1.295-.02-.191-1.044-.966-1.195-1.708a12.212,12.212,0,0,1,.185-4.181A2.963,2.963,0,0,1,5.1.153c5.823.389,12.257-.492,18.005,0,3.764.323,2.616,3.421,2.541,6.2l.887,1.227c1.255-1.03,2.251-2.718,4.146-1.831L44.706,19.729a1.966,1.966,0,0,1,.081,2.676c-.344.515-1.122.849-1.193,1.5ZM4.367,6.1H23.842c.649,0,.621-3.836.283-4.178-.51-.516-2.248-.177-2.973-.274-.07.657.236,2.519-.367,2.878-.361.165-.914.211-1.089-.214-.247-.754.328-2.034-.3-2.663h-5.1c-.162.977.542,2.877-.825,2.976-1.083-.1-.534-2.243-.659-2.976H7.427c-.05.479.178,2.866-.306,2.978-1.681.392-1.093-1.981-1.177-2.979C5.381,1.6,4.278,1.609,4,2.2c-.232.487-.239,3.711.371,3.9m24.893.96c-.336.1-3.06,2.595-2.261,3.3L40.73,23.908c.816.12,2.583-2,3.026-2.739.09-.624-1.352-1.552-1.739-2.087-.594.432-1.811,2.341-2.61,1.684-.994-.817,1.153-2.06,1.586-2.708l-3.8-3.8c-.6.44-1.888,2.466-2.691,1.577-.754-.835,1.247-1.951,1.668-2.6l-3.8-3.8c-.594.432-1.811,2.341-2.61,1.684-.994-.817,1.153-2.06,1.586-2.708-.637-.5-1.151-1.64-2.09-1.359M7.613,7.58c-.779.082-2.294-.327-2.685.561-.266.6-.268,3.355.367,3.891H24.769c.19,0,.617-.77.647-1.037.053-.465-.168-.784-.168-1.115,0-.366.185-.675.163-1.07-.089-1.6-1.623-1.2-2.776-1.229v2.875l-.308.248c-.419.117-1.176.125-1.176-.433V7.58h-5.1c-.647.672-.043,2.059-.3,2.848-.086.288-.341.324-.624.323a.836.836,0,0,1-.466-.109c-.619-.368-.286-2.379-.368-3.063H9.1c-.1.76.23,2.253-.2,2.861-.356.505-1.284.3-1.284.014ZM38.4,23.9,26.8,12.223a6.5,6.5,0,0,1-1.943,1.416c.011,1.228,0,2.458.016,3.686,0,.3-.19.69-.15.9.054.286,1.069.978,1.069,1.32V23.9ZM3.44,17.966H22.914c.627,0,.606-3.688.373-4.082-.334-.566-1.912-.321-2.507-.37-.261.261.61,3.119-.824,2.976-1.083-.1-.534-2.243-.659-2.976H14.2c-.65.485-.023,2.308-.305,2.754-2.028.88-1.363-1.515-1.457-2.754H7.242c-.087.756.348,2.809-.653,2.975-1.373.229-.958-2.1-1.015-2.976-.733.078-1.982-.287-2.424.453-.3.511-.362,3.8.29,4m4.73,1.484v2.689c0,.806-1.484,1.071-1.484.371V19.728c-.554-.494-2.351-.474-2.685.282-.266.6-.268,3.355.367,3.891H23.842c.608,0,.6-3.475.433-3.957-.244-.725-1.955-.448-2.566-.494v3.06c0,.433-1.484.63-1.484-.185V19.45H14.846v3.06a1.305,1.305,0,0,1-.81.438,2.019,2.019,0,0,1-.674-.809V19.45ZM61.4,25.385H1.492V55.617H61.4Z" transform="translate(0 0)" fill="#fff"/>
          <path id="Path_921781" data-name="Path 921781" d="M270.229,39.932c.639-.179,1.643,1.068,2.1,1.546a62.6,62.6,0,0,1,4.445,5.013c1.458,2.048-2.174,1.076-2.514,1.564-.343,1.119.262,6.442-.262,6.972a1.191,1.191,0,0,1-.51.232,35.253,35.253,0,0,1-5.712.045,1.492,1.492,0,0,1-.836-.277c-.492-.5.017-5.767-.207-6.841l-.278-.278c-.854-.28-2.857.613-2.437-1Zm-1.988,6.929v6.955h4.451v-6.77c0-.543,1.438-.725,1.854-.741l-3.989-4.543-4.17,4.543c.635.183,1.38-.053,1.854.555" transform="translate(-215.002 -32.511)" fill="#fff"/>
          <path id="Path_921782" data-name="Path 921782" d="M229.8,6.911l-.09,4.825c-.329.557-4.863.53-5.293.1-.454-.459-.035-4.036-.18-4.921-.149-.15-2.12.448-2-.806a45.882,45.882,0,0,1,3.2-3.833c1.76-1.847,1.65-1.59,3.344.185A37.785,37.785,0,0,1,231.77,5.98c.358,1.138-1.214.961-1.968.931m-4.079-.834v4.544h2.6V6.078c0-.533.959-.629.926-.74l-2.149-2.5-2.3,2.5c-.048.112.828.149.926.741" transform="translate(-181.016 -0.816)" fill="#fff"/>
          <path id="Path_921783" data-name="Path 921783" d="M76.073,168.924c-2.2.338-4.463,1.085-5.178,3.447-.266.879.045,2.257-1.022,2.31l-42.94-.065c-.609-.179-.557-1.853-.877-2.641-.913-2.25-2.971-2.567-5.05-3.149l.038-13.849c.2-.6,1.418-.457,1.977-.62a4.64,4.64,0,0,0,3.032-2.717c.413-1.068.095-2.509,1.371-2.709l42.422.028c1.143.308.751,1.423,1.018,2.321a4.975,4.975,0,0,0,3.228,3.078c.559.163,1.777.024,1.977.62ZM74.6,155.986a6.564,6.564,0,0,1-5.448-5.4l-.374-.183-40.6.026-.214.157a6.557,6.557,0,0,1-5.448,5.4L22.5,167.836c2.908.135,5.041,2.648,5.485,5.39l41.245-.019a5.924,5.924,0,0,1,5.386-5.372Z" transform="translate(-17.109 -121.308)" fill="#fff"/>
          <path id="Path_921784" data-name="Path 921784" d="M127.687,168.6c13.744-1.859,14.364,18.516,1.621,18.517-11.442,0-12.377-17.062-1.621-18.517m.185,1.484c-9.3,1.261-7.971,16.435,2.156,15.508,10.225-.936,9.061-17.029-2.156-15.508" transform="translate(-97.862 -137.232)" fill="#fff"/>
          <path id="Path_921785" data-name="Path 921785" d="M56.363,195.674c4.678,4.619-3.251,11.025-6.765,5.745-3.059-4.6,3.128-9.336,6.765-5.745m-3.88.348c-3.222.668-2.676,6.076.859,5.881,4.252-.235,3.55-6.8-.859-5.881" transform="translate(-39.728 -158.353)" fill="#fff"/>
          <path id="Path_921786" data-name="Path 921786" d="M241.544,194.72c6.446-1.107,7.248,8.62,1.041,8.845-5.324.193-6.265-7.948-1.041-8.845m.184,1.484c-3.318.61-2.715,6.058.859,5.879,4.005-.2,3.685-6.714-.859-5.879" transform="translate(-193.918 -158.533)" fill="#fff"/>
          <path id="Path_921787" data-name="Path 921787" d="M156.361,182.071a4.576,4.576,0,0,1,.789.228c.869.553,2.4,3.1,1.056,3.429-1.155.282-.88-1.153-1.388-1.8a1.7,1.7,0,0,0-2.954,1.454c.331,1.529,1.455,1.161,2.579,1.517a3.1,3.1,0,0,1,1.647,4.82c-.454.672-1.464,1.04-1.651,1.317-.352.523.028,1.683-1.117,1.487-.715-.122-.464-1.062-.75-1.487-.235-.35-1.292-.654-1.795-1.544-.313-.554-.89-2.062.029-2.285,1.36-.331.673,1.834,2.041,2.255a1.688,1.688,0,1,0,.987-3.211c-.367-.094-.765-.01-1.168-.131a3.214,3.214,0,0,1-.8-5.826,4.582,4.582,0,0,1,.789-.228c.116-.138-.154-1.363.576-1.751h.558c.729.388.461,1.614.576,1.751" transform="translate(-124.06 -146.876)" fill="#fff"/>
        </g>
      </g>
      <g id="Group_1115378" data-name="Group 1115378" transform="translate(67.164 64.548)">
        <path id="Path_886575" data-name="Path 886575" d="M2.17.075A1.881,1.881,0,0,0,.007,1.622,1.85,1.85,0,0,0,1.825,3.538,1.847,1.847,0,0,0,3.613,1.6C3.5.618,3.127-.268,2.17.075" transform="translate(22.677 0) rotate(19)" fill="#ffc811"/>
        <path id="Path_886576" data-name="Path 886576" d="M3.146.07C-.912-.815-.076,6.932.443,8.879A3,3,0,0,0,.88,9.921a2.154,2.154,0,0,0,2.308.63,3.553,3.553,0,0,0,1.9-1.577C6.559,6.625,6.9.89,3.146.07" transform="translate(13.386 6.643) rotate(19)" fill="#ffc811"/>
        <path id="Path_886577" data-name="Path 886577" d="M2.609,4.241c2.757-1.287.283-5.8-1.86-3.684a2.715,2.715,0,0,0-.749,2,2.147,2.147,0,0,0,.236.985,1.892,1.892,0,0,0,2.372.7" transform="translate(26.35 6.748) rotate(19)" fill="#ffc811"/>
        <path id="Path_886578" data-name="Path 886578" d="M3.7,6.862C5.007,5.674,6.649,2.341,5.226.785a2.679,2.679,0,0,0-4.3.811A9.863,9.863,0,0,0,.066,4.851,2.283,2.283,0,0,0,.235,6.472a2.4,2.4,0,0,0,.6.551,2.7,2.7,0,0,0,1.048.545A2.231,2.231,0,0,0,3.7,6.862" transform="translate(19.474 16.3) rotate(19)" fill="#ffc811"/>
        <path id="Path_886579" data-name="Path 886579" d="M.986,4.233a1.8,1.8,0,0,0,2.248-.2C5.18,2.089,1.77-1.668.284.829a2.723,2.723,0,0,0,0,2.422,2.315,2.315,0,0,0,.7.982" transform="translate(34.058 15.571) rotate(19)" fill="#ffc811"/>
        <path id="Path_886580" data-name="Path 886580" d="M.025.8A1.62,1.62,0,0,0,.443,2.116a1.805,1.805,0,0,0,.7.56,1.316,1.316,0,0,0,1.371-.265C4.108.856.45-1.136.025.8" transform="translate(33.323 23.294) rotate(19)" fill="#ffc811"/>
        <path id="Path_886581" data-name="Path 886581" d="M.944.741A3.638,3.638,0,0,0,.108,2.756,5.133,5.133,0,0,0,.26,5.464,2.532,2.532,0,0,0,2.341,7.111a2.678,2.678,0,0,0,2.5-1.871c.695-1.931-1.3-7.163-3.892-4.5" transform="translate(26.174 26.727) rotate(19)" fill="#ffc811"/>
        <path id="Path_886582" data-name="Path 886582" d="M.583,2.825a1.749,1.749,0,0,0,2.03.039C4.87,1.242,1.4-1.413.165.917A1.562,1.562,0,0,0,.583,2.825" transform="translate(8.583 19.564) rotate(19)" fill="#ffc811"/>
        <path id="Path_886583" data-name="Path 886583" d="M1.771.176A2.287,2.287,0,0,0,.657.9,2.962,2.962,0,0,0,.164,2.361,18.757,18.757,0,0,0,0,4.393,4.534,4.534,0,0,0,.333,6.5,1.965,1.965,0,0,0,2.06,7.665,2.31,2.31,0,0,0,3.746,6.605C5.026,4.863,5.719-1.094,1.771.176" transform="translate(2.496 24.485) rotate(19)" fill="#ffc811"/>
        <path id="Path_886584" data-name="Path 886584" d="M4.6.752C3.639.093,1.991-.394,1.076.446.263,1.193.08,2.811.018,3.82a5.314,5.314,0,0,0,.53,2.988,2.736,2.736,0,0,0,2.6,1.432,2.969,2.969,0,0,0,1.483-.719C6.692,5.787,6.944,2.348,4.6.752" transform="translate(12.693 31.602) rotate(19)" fill="#ffc811"/>
      </g>
    </g>
    <g id="Group_1115380" data-name="Group 1115380" transform="translate(316.871 7642.032)">
      <rect id="Rectangle_401104-2" data-name="Rectangle 401104" width="90.063" height="91.587" transform="translate(3.462 0)" fill="none"/>
    </g>
  </g>
</svg>
