<svg xmlns="http://www.w3.org/2000/svg" xmlns:xlink="http://www.w3.org/1999/xlink" width="105" height="105.999" viewBox="0 0 105 105.999">
  <defs>
    <clipPath id="clip-path">
      <rect id="Rectangle_401492" data-name="Rectangle 401492" width="98.404" height="98.405" transform="translate(0 0)" fill="#fff" stroke="#707070" stroke-width="1"/>
    </clipPath>
    <clipPath id="clip-path-2">
      <rect id="Rectangle_406251" data-name="Rectangle 406251" width="104.651" height="104.651" fill="#1e2ad5"/>
    </clipPath>
    <clipPath id="clip-path-3">
      <rect id="Rectangle_401492-2" data-name="Rectangle 401492" width="96.986" height="96.987" transform="translate(-0.16 -0.032)" fill="#fffceb" stroke="#707070" stroke-width="1"/>
    </clipPath>
    <clipPath id="clip-path-4">
      <rect id="Rectangle_408871" data-name="Rectangle 408871" width="42.998" height="63.962" fill="#fff"/>
    </clipPath>
  </defs>
  <g id="Group_1115404" data-name="Group 1115404" transform="translate(-313 -7638)">
    <g id="Group_1115376" data-name="Group 1115376" transform="translate(319.596 7641.203)">
      <rect id="Rectangle_401104" data-name="Rectangle 401104" width="91.384" height="92.93" transform="translate(3.51 0)" fill="none"/>
    </g>
    <g id="Group_1115379" data-name="Group 1115379" transform="translate(313 7638)">
      <g id="Group_1115374" data-name="Group 1115374" transform="translate(0)">
        <g id="Group_1113673" data-name="Group 1113673">
          <g id="Group_1113672" data-name="Group 1113672" clip-path="url(#clip-path-2)">
            <path id="Path_886855" data-name="Path 886855" d="M77.23,91.5c52.8-5.284,23.112-96.743-29.3-91.268C25.7,2.557,7.454,19.929,1.886,42.315-2.836,61.3,1.36,82.858,13.914,97.344,30.507,116.488,53.071,93.922,77.23,91.5" transform="translate(0 0)" fill="#1e2ad5"/>
          </g>
        </g>
      </g>
      <g id="Group_1115378" data-name="Group 1115378" transform="translate(67.164 64.548)">
        <path id="Path_886575" data-name="Path 886575" d="M2.17.075A1.881,1.881,0,0,0,.007,1.622,1.85,1.85,0,0,0,1.825,3.538,1.847,1.847,0,0,0,3.613,1.6C3.5.618,3.127-.268,2.17.075" transform="translate(22.677 0) rotate(19)" fill="#ffc811"/>
        <path id="Path_886576" data-name="Path 886576" d="M3.146.07C-.912-.815-.076,6.932.443,8.879A3,3,0,0,0,.88,9.921a2.154,2.154,0,0,0,2.308.63,3.553,3.553,0,0,0,1.9-1.577C6.559,6.625,6.9.89,3.146.07" transform="translate(13.386 6.643) rotate(19)" fill="#ffc811"/>
        <path id="Path_886577" data-name="Path 886577" d="M2.609,4.241c2.757-1.287.283-5.8-1.86-3.684a2.715,2.715,0,0,0-.749,2,2.147,2.147,0,0,0,.236.985,1.892,1.892,0,0,0,2.372.7" transform="translate(26.35 6.748) rotate(19)" fill="#ffc811"/>
        <path id="Path_886578" data-name="Path 886578" d="M3.7,6.862C5.007,5.674,6.649,2.341,5.226.785a2.679,2.679,0,0,0-4.3.811A9.863,9.863,0,0,0,.066,4.851,2.283,2.283,0,0,0,.235,6.472a2.4,2.4,0,0,0,.6.551,2.7,2.7,0,0,0,1.048.545A2.231,2.231,0,0,0,3.7,6.862" transform="translate(19.474 16.3) rotate(19)" fill="#ffc811"/>
        <path id="Path_886579" data-name="Path 886579" d="M.986,4.233a1.8,1.8,0,0,0,2.248-.2C5.18,2.089,1.77-1.668.284.829a2.723,2.723,0,0,0,0,2.422,2.315,2.315,0,0,0,.7.982" transform="translate(34.058 15.571) rotate(19)" fill="#ffc811"/>
        <path id="Path_886580" data-name="Path 886580" d="M.025.8A1.62,1.62,0,0,0,.443,2.116a1.805,1.805,0,0,0,.7.56,1.316,1.316,0,0,0,1.371-.265C4.108.856.45-1.136.025.8" transform="translate(33.323 23.294) rotate(19)" fill="#ffc811"/>
        <path id="Path_886581" data-name="Path 886581" d="M.944.741A3.638,3.638,0,0,0,.108,2.756,5.133,5.133,0,0,0,.26,5.464,2.532,2.532,0,0,0,2.341,7.111a2.678,2.678,0,0,0,2.5-1.871c.695-1.931-1.3-7.163-3.892-4.5" transform="translate(26.174 26.727) rotate(19)" fill="#ffc811"/>
        <path id="Path_886582" data-name="Path 886582" d="M.583,2.825a1.749,1.749,0,0,0,2.03.039C4.87,1.242,1.4-1.413.165.917A1.562,1.562,0,0,0,.583,2.825" transform="translate(8.583 19.564) rotate(19)" fill="#ffc811"/>
        <path id="Path_886583" data-name="Path 886583" d="M1.771.176A2.287,2.287,0,0,0,.657.9,2.962,2.962,0,0,0,.164,2.361,18.757,18.757,0,0,0,0,4.393,4.534,4.534,0,0,0,.333,6.5,1.965,1.965,0,0,0,2.06,7.665,2.31,2.31,0,0,0,3.746,6.605C5.026,4.863,5.719-1.094,1.771.176" transform="translate(2.496 24.485) rotate(19)" fill="#ffc811"/>
        <path id="Path_886584" data-name="Path 886584" d="M4.6.752C3.639.093,1.991-.394,1.076.446.263,1.193.08,2.811.018,3.82a5.314,5.314,0,0,0,.53,2.988,2.736,2.736,0,0,0,2.6,1.432,2.969,2.969,0,0,0,1.483-.719C6.692,5.787,6.944,2.348,4.6.752" transform="translate(12.693 31.602) rotate(19)" fill="#ffc811"/>
      </g>
    </g>
    <g id="Group_1115380" data-name="Group 1115380" transform="translate(316.871 7642.032)">
      <rect id="Rectangle_401104-2" data-name="Rectangle 401104" width="90.063" height="91.587" transform="translate(2.84 2.968)" fill="none"/>
      <g id="Mask_Group_1098697-2" data-name="Mask Group 1098697" transform="translate(0 0.001)" clip-path="url(#clip-path-3)">
        <g id="Group_1119004" data-name="Group 1119004" transform="translate(26.84 16.968)">
          <g id="Group_1119003" data-name="Group 1119003" clip-path="url(#clip-path-4)">
            <path id="Path_921788" data-name="Path 921788" d="M60.419,106.6c1.493-.011,2.243-1.924,3.9-1.426a39.5,39.5,0,0,1,3.506,3.447c.934,1.484-.906,2.559-1.365,3.923.093.457,3.16.333,3.57,1.194a39.637,39.637,0,0,1,.053,5.728c-.331,1.137-2.971.786-3.358,1.409-.479.77,1.777,2.113,1.348,3.533a41.034,41.034,0,0,1-3.741,3.767c-1.368.719-2.542-1.279-3.24-1.225-1.273.1-.617,2.831-1.773,3.351a36.15,36.15,0,0,1-5.542.057c-1.155-.338-.691-2.394-1.413-2.979-1.142-.925-2.145,1.339-3.481.929a42.535,42.535,0,0,1-3.925-3.772c-.6-1.295,1.206-2.251,1.155-3.15-.089-1.561-2.515-.479-3.221-1.922-.385-.786-.382-5.141.131-5.824.6-.8,3.572-.352,3.169-1.673-.321-1.054-1.68-1.663-1.248-2.995a32.127,32.127,0,0,1,3.707-3.795c1.6-.481,2.946,1.621,3.607,1.42.628-.19.363-2.793,1.215-3.373.651-.443,5.376-.441,6.024,0,.69.47.771,2.552.924,3.379m3.283,1.288c-1.968,1.356-3.126,2.111-5.307.46l-.71-2.768-2.494.093c-.032,2.491-1.158,3.282-3.449,3.672l-2.478-1.457-1.432,1.5c-.3.67,1.324,1.758,1.115,2.852a13.252,13.252,0,0,1-1.148,2.519c-.682.668-1.7.328-2.492.8l-.092,2.278c.092.338,2.1.134,2.651,1.041a21.538,21.538,0,0,1,1.018,2.808c-.036.608-.792,1.355-1.07,1.89l-.007.284,1.45,1.511c.573.286,1.461-1.212,2.6-.982a18.956,18.956,0,0,1,2.785,1.253c.408.487.469,2.22.67,2.35l2.234.032c.28-.066.421-1.728.63-2.152.428-.869,2.225-1.205,3.059-1.685l2.353,1.24a13.549,13.549,0,0,0,1.5-1.442c.345-.754-1.413-1.727-1.164-2.97.032-.16.857-2.185.936-2.28.449-.537,2.148-.518,2.856-.8-.044-.538.211-2.175-.161-2.457-.552-.418-2.315-.068-2.912-.932a12.405,12.405,0,0,1-.883-2.331c.049-.861,1.5-2.018,1.42-2.744Z" transform="translate(-34.816 -84.06)" fill="#fff"/>
            <path id="Path_921789" data-name="Path 921789" d="M155.2,52.406c-.276,1.208.6,4.423-.892,4.877a1.327,1.327,0,0,1-1.69-1.164,23.8,23.8,0,0,1,.129-4.976c.305-.762,1.974-1.215,2.729-1.663,9.7-5.761,12.864-18.4,6.066-27.727-1.09-1.5-2.553-2.607-3.622-4.064a7.01,7.01,0,0,1,.018-1.256,136.085,136.085,0,0,1,2.438-14.948c.492-2.151,2.463-1.715,2.57-.272l-2.47,15.378c.971,1.282,2.144,2.382,3.079,3.7A21.518,21.518,0,0,1,155.2,52.406" transform="translate(-124.626 -0.001)" fill="#fff"/>
            <path id="Path_921790" data-name="Path 921790" d="M12.394,52.406C-1.477,46.235-4.376,26.87,7.126,16.923L4.647,1.213c.107-1.443,2.078-1.879,2.57.272A136.087,136.087,0,0,1,9.655,16.433a7.009,7.009,0,0,1,.018,1.256C8.6,19.146,7.142,20.258,6.051,21.753c-6.8,9.324-3.635,21.963,6.066,27.727.755.448,2.424.9,2.729,1.663a23.8,23.8,0,0,1,.129,4.976,1.327,1.327,0,0,1-1.69,1.164c-1.495-.454-.616-3.669-.892-4.877" transform="translate(0 -0.001)" fill="#fff"/>
            <path id="Path_921791" data-name="Path 921791" d="M80.625.2c5.559-.662,12.053,4.792,9.83,10.562-2.579,6.694-13.022,3.885-15.048-2.152A6.155,6.155,0,0,1,80.625.2m7.726,9.1c.528-4.55-5.252-8.2-9.146-5.948C82.54,4.921,84.88,7.991,88.351,9.3m-10.8-3.844c-.534,4.56,5.226,8.22,9.146,5.949C83.333,9.86,81.015,6.82,77.555,5.453" transform="translate(-61.286 -0.115)" fill="#fff"/>
            <path id="Path_921792" data-name="Path 921792" d="M96.7,310.07a1.29,1.29,0,0,1-1.867-1.777c1.122-1.3,2.895.69,1.867,1.777" transform="translate(-77.187 -251.517)" fill="#fff"/>
            <path id="Path_921793" data-name="Path 921793" d="M130.7,310.07a1.29,1.29,0,0,1-1.867-1.777c1.122-1.3,2.895.69,1.867,1.777" transform="translate(-104.964 -251.517)" fill="#fff"/>
            <path id="Path_921794" data-name="Path 921794" d="M77.758,335.714c1.072-1.136,2.959.507,1.868,1.777-1.118,1.3-2.9-.688-1.868-1.777" transform="translate(-63.274 -273.956)" fill="#fff"/>
            <path id="Path_921795" data-name="Path 921795" d="M147.809,335.714c1.029,1.089-.75,3.078-1.868,1.777-1.092-1.27.8-2.913,1.868-1.777" transform="translate(-118.96 -273.956)" fill="#fff"/>
            <path id="Path_921796" data-name="Path 921796" d="M112.883,335.255c1.425-.225,1.972,2.366.308,2.532-1.741.173-1.784-2.3-.308-2.532" transform="translate(-91.358 -273.881)" fill="#fff"/>
            <path id="Path_921797" data-name="Path 921797" d="M112.535,281.178a1.233,1.233,0,0,1,.833,2.308,1.233,1.233,0,1,1-.833-2.308" transform="translate(-91.191 -229.685)" fill="#fff"/>
            <path id="Path_921798" data-name="Path 921798" d="M90.541,147.2c7.126-.847,9.158,9.549,2.571,11.538C84.627,161.3,82.174,148.2,90.541,147.2m0,2.559c-3.65.613-3.508,6.159-.032,6.716,5.452.873,5.421-7.621.032-6.716" transform="translate(-69.743 -120.219)" fill="#fff"/>
          </g>
        </g>
      </g>
    </g>
  </g>
</svg>
