<svg xmlns="http://www.w3.org/2000/svg" xmlns:xlink="http://www.w3.org/1999/xlink" width="105" height="105.999" viewBox="0 0 105 105.999">
  <defs>
    <clipPath id="clip-path">
      <rect id="Rectangle_401492" data-name="Rectangle 401492" width="98.404" height="98.405" transform="translate(0 0)" fill="#fff" stroke="#707070" stroke-width="1"/>
    </clipPath>
    <clipPath id="clip-path-2">
      <rect id="Rectangle_406251" data-name="Rectangle 406251" width="104.651" height="104.651" fill="#1e2ad5"/>
    </clipPath>
    <clipPath id="clip-path-3">
      <rect id="Rectangle_401492-2" data-name="Rectangle 401492" width="96.986" height="96.987" transform="translate(-0.16 0.067)" fill="#fffceb" stroke="#707070" stroke-width="1"/>
    </clipPath>
    <clipPath id="clip-path-4">
      <rect id="Rectangle_408872" data-name="Rectangle 408872" width="65.289" height="59.307" fill="#fff"/>
    </clipPath>
  </defs>
  <g id="Group_1116878" data-name="Group 1116878" transform="translate(-313 -7638)">
    <g id="Group_1115376" data-name="Group 1115376" transform="translate(319.596 7641.203)">
      <rect id="Rectangle_401104" data-name="Rectangle 401104" width="91.384" height="92.93" transform="translate(3.51 0)" fill="none"/>
    </g>
    <g id="Group_1115379" data-name="Group 1115379" transform="translate(313 7638)">
      <g id="Group_1115374" data-name="Group 1115374" transform="translate(0)">
        <g id="Group_1113673" data-name="Group 1113673">
          <g id="Group_1113672" data-name="Group 1113672" clip-path="url(#clip-path-2)">
            <path id="Path_886855" data-name="Path 886855" d="M77.23,91.5c52.8-5.284,23.112-96.743-29.3-91.268C25.7,2.557,7.454,19.929,1.886,42.315-2.836,61.3,1.36,82.858,13.914,97.344,30.507,116.488,53.071,93.922,77.23,91.5" transform="translate(0 0)" fill="#1e2ad5"/>
          </g>
        </g>
      </g>
      <g id="Group_1115378" data-name="Group 1115378" transform="translate(67.164 64.548)">
        <path id="Path_886575" data-name="Path 886575" d="M2.17.075A1.881,1.881,0,0,0,.007,1.622,1.85,1.85,0,0,0,1.825,3.538,1.847,1.847,0,0,0,3.613,1.6C3.5.618,3.127-.268,2.17.075" transform="translate(22.677 0) rotate(19)" fill="#ffc811"/>
        <path id="Path_886576" data-name="Path 886576" d="M3.146.07C-.912-.815-.076,6.932.443,8.879A3,3,0,0,0,.88,9.921a2.154,2.154,0,0,0,2.308.63,3.553,3.553,0,0,0,1.9-1.577C6.559,6.625,6.9.89,3.146.07" transform="translate(13.386 6.643) rotate(19)" fill="#ffc811"/>
        <path id="Path_886577" data-name="Path 886577" d="M2.609,4.241c2.757-1.287.283-5.8-1.86-3.684a2.715,2.715,0,0,0-.749,2,2.147,2.147,0,0,0,.236.985,1.892,1.892,0,0,0,2.372.7" transform="translate(26.35 6.748) rotate(19)" fill="#ffc811"/>
        <path id="Path_886578" data-name="Path 886578" d="M3.7,6.862C5.007,5.674,6.649,2.341,5.226.785a2.679,2.679,0,0,0-4.3.811A9.863,9.863,0,0,0,.066,4.851,2.283,2.283,0,0,0,.235,6.472a2.4,2.4,0,0,0,.6.551,2.7,2.7,0,0,0,1.048.545A2.231,2.231,0,0,0,3.7,6.862" transform="translate(19.474 16.3) rotate(19)" fill="#ffc811"/>
        <path id="Path_886579" data-name="Path 886579" d="M.986,4.233a1.8,1.8,0,0,0,2.248-.2C5.18,2.089,1.77-1.668.284.829a2.723,2.723,0,0,0,0,2.422,2.315,2.315,0,0,0,.7.982" transform="translate(34.058 15.571) rotate(19)" fill="#ffc811"/>
        <path id="Path_886580" data-name="Path 886580" d="M.025.8A1.62,1.62,0,0,0,.443,2.116a1.805,1.805,0,0,0,.7.56,1.316,1.316,0,0,0,1.371-.265C4.108.856.45-1.136.025.8" transform="translate(33.323 23.294) rotate(19)" fill="#ffc811"/>
        <path id="Path_886581" data-name="Path 886581" d="M.944.741A3.638,3.638,0,0,0,.108,2.756,5.133,5.133,0,0,0,.26,5.464,2.532,2.532,0,0,0,2.341,7.111a2.678,2.678,0,0,0,2.5-1.871c.695-1.931-1.3-7.163-3.892-4.5" transform="translate(26.174 26.727) rotate(19)" fill="#ffc811"/>
        <path id="Path_886582" data-name="Path 886582" d="M.583,2.825a1.749,1.749,0,0,0,2.03.039C4.87,1.242,1.4-1.413.165.917A1.562,1.562,0,0,0,.583,2.825" transform="translate(8.583 19.564) rotate(19)" fill="#ffc811"/>
        <path id="Path_886583" data-name="Path 886583" d="M1.771.176A2.287,2.287,0,0,0,.657.9,2.962,2.962,0,0,0,.164,2.361,18.757,18.757,0,0,0,0,4.393,4.534,4.534,0,0,0,.333,6.5,1.965,1.965,0,0,0,2.06,7.665,2.31,2.31,0,0,0,3.746,6.605C5.026,4.863,5.719-1.094,1.771.176" transform="translate(2.496 24.485) rotate(19)" fill="#ffc811"/>
        <path id="Path_886584" data-name="Path 886584" d="M4.6.752C3.639.093,1.991-.394,1.076.446.263,1.193.08,2.811.018,3.82a5.314,5.314,0,0,0,.53,2.988,2.736,2.736,0,0,0,2.6,1.432,2.969,2.969,0,0,0,1.483-.719C6.692,5.787,6.944,2.348,4.6.752" transform="translate(12.693 31.602) rotate(19)" fill="#ffc811"/>
      </g>
    </g>
    <g id="Group_1115380" data-name="Group 1115380" transform="translate(316.871 7642.032)">
      <rect id="Rectangle_401104-2" data-name="Rectangle 401104" width="90.063" height="91.587" transform="translate(3.462 0)" fill="none"/>
      <g id="Mask_Group_1098697-2" data-name="Mask Group 1098697" transform="translate(0 0.001)" clip-path="url(#clip-path-3)">
        <g id="Group_1119006" data-name="Group 1119006" transform="translate(15.839 19.067)">
          <g id="Group_1119005" data-name="Group 1119005" clip-path="url(#clip-path-4)">
            <path id="Path_921799" data-name="Path 921799" d="M61.507,33.567v5.882c0,1.668-2.659,4.762-4.388,4.762H50.676v8.683a16.115,16.115,0,0,1-.837,2.15,7.86,7.86,0,0,1-6.717,4.114c-6.837.477-14.22-.38-21.116,0-2.878.224-7.369-3.408-7.369-6.262V44.211H8.194c-1.729,0-4.388-3.094-4.388-4.762V33.567H.725a1.832,1.832,0,0,1-.649-.844c-.319-1.673.449-5.938.869-7.713A32.82,32.82,0,0,1,35.643.143,32.809,32.809,0,0,1,65.053,28.807a19.984,19.984,0,0,1,.185,3.915,1.832,1.832,0,0,1-.65.844ZM33.87,1.822H31.443v12.7H33.87Zm-4.108.187A29.617,29.617,0,0,0,13.151,8.845l8.9,9.017c.384.1,1.709-1.008,2.225-1.264a15.936,15.936,0,0,1,5.486-1.7Zm5.789,12.885A15.214,15.214,0,0,1,41.5,16.88c.445.235,1.369,1.082,1.761.982l8.9-9.017A29.743,29.743,0,0,0,35.551,2.009ZM20.586,19.351a.591.591,0,0,0-.152-.64l-8.692-8.67c-.327.527-1.85,1.327-1.412,1.963l8.6,8.591c.43.23.732-.548,1.021-.861a3.087,3.087,0,0,1,.638-.384M50.741,16.08c.575-.578,4.34-3.933,4.4-4.292L53.57,10.042l-8.692,8.67c-.514.773.059.587.387.931.232.243.753,1.091,1.01,1.033,1.6-1.415,2.966-3.088,4.466-4.6M14.637,31.7a18.509,18.509,0,0,1,3.317-9.619L8.941,13.03a29.759,29.759,0,0,0-7,18.67Zm48.737,0a29.853,29.853,0,0,0-7-18.67L47.36,22.081A18.509,18.509,0,0,1,50.676,31.7Zm-14.565,0a16.174,16.174,0,0,0-32.3,0h3.081c.455-.32.215-.9.3-1.381A13.059,13.059,0,0,1,34.5,19.771a12.845,12.845,0,0,1,10.975,11.62l.251.309Zm-5.042,0a11.145,11.145,0,0,0-22.221,0Zm-29.13,1.867H5.673v6.069c0,1.137,2.172,2.894,3.268,2.894h5.7Zm14.565,0H16.317V51.96c0,2.34,2.634,5.126,5,5.269,7.168-.28,14.883.552,21.99.061,2.856-.2,5.687-2.436,5.687-5.517V33.567H36.111v2.8h6.816c.591,0,.591,1.681,0,1.681H36.111v9.617a2.142,2.142,0,0,1-.374.56H29.575a2.145,2.145,0,0,1-.374-.56V38.049H22.386c-.591,0-.591-1.681,0-1.681H29.2Zm5.042,0H31.069V46.638h3.174Zm25.4,0H50.676V42.53h5.7c1.1,0,3.268-1.757,3.268-2.894Z" transform="translate(0 0)" fill="#fff"/>
            <path id="Path_921800" data-name="Path 921800" d="M133.9,274.762h14.565c.591,0,.591,1.681,0,1.681H133.9c-.491,0-.711-1.435,0-1.681" transform="translate(-108.53 -223.455)" fill="#fff"/>
          </g>
        </g>
      </g>
    </g>
  </g>
</svg>
