<svg xmlns="http://www.w3.org/2000/svg" xmlns:xlink="http://www.w3.org/1999/xlink" width="150" height="150" viewBox="0 0 150 150">
  <defs>
    <clipPath id="clip-path">
      <rect id="Rectangle_401492" data-name="Rectangle 401492" width="143.65" height="143.652" transform="translate(0 0)" fill="#fff" stroke="#707070" stroke-width="1"/>
    </clipPath>
    <clipPath id="clip-path-2">
      <rect id="Rectangle_406251" data-name="Rectangle 406251" width="149.664" height="149.664" fill="#1e2ad5"/>
    </clipPath>
    <clipPath id="clip-path-3">
      <rect id="Rectangle_401492-2" data-name="Rectangle 401492" width="142.285" height="142.286" transform="translate(0.273 -0.368)" fill="#fffceb" stroke="#707070" stroke-width="1"/>
    </clipPath>
    <clipPath id="clip-path-4">
      <rect id="Rectangle_407237" data-name="Rectangle 407237" width="98" height="98" transform="translate(21.273 18.632)" fill="#fff" stroke="#707070" stroke-width="1"/>
    </clipPath>
    <clipPath id="clip-path-5">
      <rect id="Rectangle_408810" data-name="Rectangle 408810" width="90.441" height="91.566" fill="#fff"/>
    </clipPath>
  </defs>
  <g id="Group_1118923" data-name="Group 1118923" transform="translate(-305.711 -21240.486)">
    <g id="Group_1115397" data-name="Group 1115397" transform="translate(-7.289 13602.486)">
      <g id="Group_1115379" data-name="Group 1115379" transform="translate(313 7638)">
        <g id="Group_1115374" data-name="Group 1115374" transform="translate(0)">
          <g id="Group_1113673" data-name="Group 1113673">
            <g id="Group_1113672" data-name="Group 1113672" clip-path="url(#clip-path-2)">
              <path id="Path_886855" data-name="Path 886855" d="M110.448,130.863C185.956,123.305,143.5-7.491,68.54.338,36.748,3.658,10.66,28.5,2.7,60.516c-6.754,27.152-.753,57.981,17.2,78.7,23.729,27.379,56-4.893,90.549-8.351" transform="translate(0 0)" fill="#1e2ad5"/>
            </g>
          </g>
        </g>
        <g id="Group_1115378" data-name="Group 1115378" transform="translate(108.032 106.113)">
          <path id="Path_886575" data-name="Path 886575" d="M2.3.08A1.992,1.992,0,0,0,.007,1.718,1.959,1.959,0,0,0,1.932,3.745,1.956,1.956,0,0,0,3.825,1.69C3.707.655,3.31-.284,2.3.08" transform="translate(24.008 0) rotate(19)" fill="#ffc811"/>
          <path id="Path_886576" data-name="Path 886576" d="M3.331.074C-.965-.863-.081,7.339.469,9.4a3.178,3.178,0,0,0,.463,1.1,2.28,2.28,0,0,0,2.443.667A3.762,3.762,0,0,0,5.387,9.5C6.945,7.014,7.3.942,3.331.074" transform="translate(14.172 7.033) rotate(19)" fill="#ffc811"/>
          <path id="Path_886577" data-name="Path 886577" d="M2.762,4.49c2.919-1.363.3-6.145-1.969-3.9A2.874,2.874,0,0,0,0,2.7a2.273,2.273,0,0,0,.25,1.043,2,2,0,0,0,2.511.744" transform="translate(27.898 7.145) rotate(19)" fill="#ffc811"/>
          <path id="Path_886578" data-name="Path 886578" d="M3.921,7.266C5.3,6.007,7.039,2.479,5.533.831,4.12-.712,1.827.079.977,1.69A10.442,10.442,0,0,0,.07,5.136,2.417,2.417,0,0,0,.248,6.852a2.543,2.543,0,0,0,.636.584,2.862,2.862,0,0,0,1.11.577,2.362,2.362,0,0,0,1.926-.747" transform="translate(20.618 17.257) rotate(19)" fill="#ffc811"/>
          <path id="Path_886579" data-name="Path 886579" d="M1.044,4.482a1.9,1.9,0,0,0,2.38-.213C5.484,2.212,1.874-1.766.3.878a2.883,2.883,0,0,0,0,2.565,2.451,2.451,0,0,0,.74,1.04" transform="translate(36.058 16.485) rotate(19)" fill="#ffc811"/>
          <path id="Path_886580" data-name="Path 886580" d="M.027.846A1.715,1.715,0,0,0,.469,2.24a1.911,1.911,0,0,0,.745.593,1.394,1.394,0,0,0,1.452-.281C4.349.907.476-1.2.027.846" transform="translate(35.28 24.662) rotate(19)" fill="#ffc811"/>
          <path id="Path_886581" data-name="Path 886581" d="M1,.785A3.852,3.852,0,0,0,.114,2.918,5.435,5.435,0,0,0,.275,5.784a2.681,2.681,0,0,0,2.2,1.744A2.835,2.835,0,0,0,5.12,5.547C5.856,3.5,3.741-2.037,1,.785" transform="translate(27.712 28.297) rotate(19)" fill="#ffc811"/>
          <path id="Path_886582" data-name="Path 886582" d="M.617,2.99a1.852,1.852,0,0,0,2.149.042C5.156,1.315,1.484-1.5.174.97A1.654,1.654,0,0,0,.617,2.99" transform="translate(9.087 20.713) rotate(19)" fill="#ffc811"/>
          <path id="Path_886583" data-name="Path 886583" d="M1.875.187A2.421,2.421,0,0,0,.7.948,3.136,3.136,0,0,0,.173,2.5,19.859,19.859,0,0,0,0,4.65,4.8,4.8,0,0,0,.352,6.883,2.08,2.08,0,0,0,2.181,8.115,2.445,2.445,0,0,0,3.966,6.993C5.321,5.148,6.055-1.159,1.875.187" transform="translate(2.642 25.923) rotate(19)" fill="#ffc811"/>
          <path id="Path_886584" data-name="Path 886584" d="M4.874.8C3.853.1,2.108-.417,1.139.472.278,1.263.084,2.976.02,4.044A5.626,5.626,0,0,0,.581,7.208,2.9,2.9,0,0,0,3.337,8.724a3.144,3.144,0,0,0,1.57-.761C7.085,6.127,7.351,2.486,4.874.8" transform="translate(13.438 33.458) rotate(19)" fill="#ffc811"/>
        </g>
      </g>
      <g id="Group_1115380" data-name="Group 1115380" transform="translate(316.726 7641.881)">
        <g id="Mask_Group_1098697-2" data-name="Mask Group 1098697" transform="translate(0 0.001)" clip-path="url(#clip-path-3)">
          <g id="Mask_Group_1113664" data-name="Mask Group 1113664" transform="translate(1 4)" clip-path="url(#clip-path-4)">
            <g id="Group_1118855" data-name="Group 1118855" transform="translate(25.274 21.632)">
              <g id="Group_1118854" data-name="Group 1118854" clip-path="url(#clip-path-5)">
                <path id="Path_921416" data-name="Path 921416" d="M10.2,46.194l-.351.434c.133,1.436-.475,2.971-2.02,3.215-1.354.214-5.953.225-6.907-.654-1.076-.992-.948-4.8-.81-6.277.216-2.318,1.209-2.774,3.43-2.852l.244-29.335c-.191-1.028-1.477-.453-2.453-.95C-.279,8.957-.044,4.755.108,3.125.255,1.556.691.646,2.367.41,3.508.25,7.712.235,8.592.682c1.88.956.779,3.05,1.641,3.332l18.573.273c.846,1.108.413,2.373-1.067,2.386L9.8,6.667c.362,2.5-.9,3.765-3.4,3.4v30.1c2.607-.349,3.751.793,3.4,3.4h6.282V17.793a3.334,3.334,0,0,1,2.4-2.831c1.563-.4,10.61-.434,12.369-.162,1.12.173,2.765,1.616,2.765,2.732V43.577h6.282c-.307-2.315,1.035-3.838,3.4-3.4v-30.1c-2.368.436-3.711-1.088-3.4-3.4-.509-.523-9.471,1.473-6.414-2.616h6.02l.351-.435C39.731,2.181,40.338.646,41.884.4s6.389-.358,7.3,1.043c.587.9.605,6.258.2,7.251-.7,1.741-3.171,1.271-3.209,1.526l0,29.954c1.234-.212,2.881.23,3.287,1.555a31.355,31.355,0,0,1,.062,6.372,2.432,2.432,0,0,1-1.97,1.695,29.388,29.388,0,0,1-5.9.007c-1.969-.443-1.46-2.418-2.15-3.609h-5.89V67.658H59.668a3.475,3.475,0,0,1,2.687,2.549,76.407,76.407,0,0,1,.062,11.979c-.234,2.047-1.6,2.8-3.536,3.007-12.568-.838-26.615,1.126-39.01.014-2.011-.18-3.371-.981-3.723-3.083a61.343,61.343,0,0,1-.075-9.9c.1-1.134.541-2.32,1.92-1.9a3.778,3.778,0,0,1,.972.87V82.317H59.8V70.538a8.313,8.313,0,0,0-1.427-.275c-8.41-.662-17.7.511-26.2.026-.516.184-1.427-.873-1.427-1.191v-51.3l-.393-.393H19.358l-.393.393V65.7c0,1.048-2.879,1.3-2.879-.262V46.194ZM7.186,3H2.736v4.45h4.45ZM46.973,3h-4.45v4.45h4.45ZM7.186,42.791H2.736v4.057l.393.393H7.186Zm39.787,0h-4.45v4.45h4.45Z" transform="translate(0 -0.185)" fill="#fff"/>
                <path id="Path_921417" data-name="Path 921417" d="M252.263,21.927H236.034v5.366c0,1.021-2.324,1.513-2.61-.007l-.02-24.61a2.418,2.418,0,0,1,2.231-2.48c5.241-.62,11.655.479,17.026,0a2.521,2.521,0,0,1,2.1,1.563l.129,55.388a2.408,2.408,0,0,1-2.487,2.487c-5.318.489-11.371-.394-16.771-.006l-1.816-1.064-.4-25.773c.281-1.541,2.618-.711,2.618,0v4.973l.393.393H251.87l.393-.393Zm0-19.108H236.034V19.047h16.229Zm0,37.955H238.128l14.135,14.135ZM250.169,57,236.034,42.867V57Z" transform="translate(-172.308 0)" fill="#fff"/>
                <path id="Path_921418" data-name="Path 921418" d="M270.54,261.811a2.445,2.445,0,0,1,1.563.147,46.233,46.233,0,0,1,5.234,3.4c2.9,1.9,7.51,4.63,10,6.755a3.106,3.106,0,0,1,1.329,1.833c.461,4.552-7.946,2.007-10.472,2.853-.732.45-3.009,6.045-4.068,7.188a2.522,2.522,0,0,1-4.188-.758c-.438-3.349-.427-6.734-.643-10.089-.171-2.651-.935-6.6-.726-9.1a2.388,2.388,0,0,1,1.973-2.228m6.739,12.245h7.984l-13.74-9.164.916,16.492,3.545-6.267a3.856,3.856,0,0,1,1.295-1.061" transform="translate(-198.241 -193.233)" fill="#fff"/>
                <path id="Path_921419" data-name="Path 921419" d="M257.323,23.509a38.412,38.412,0,0,1,6.493-.061c1.158.135,1.568.553,1.7,1.7a42.723,42.723,0,0,1-.142,6.936,1.566,1.566,0,0,1-1.289.8,47.619,47.619,0,0,1-7.206-.151,1.566,1.566,0,0,1-.8-1.289,41.266,41.266,0,0,1,.03-6.541,1.53,1.53,0,0,1,1.217-1.4m5.572,2.823h-4.188l.114,3.681c.325.466,3.123.253,3.829.131Z" transform="translate(-188.961 -17.232)" fill="#fff"/>
              </g>
            </g>
          </g>
        </g>
      </g>
    </g>
  </g>
</svg>
