<svg xmlns="http://www.w3.org/2000/svg" xmlns:xlink="http://www.w3.org/1999/xlink" width="99" height="99" viewBox="0 0 99 99">
  <defs>
    <clipPath id="clip-path">
      <rect id="Rectangle_401223" data-name="Rectangle 401223" width="99" height="99" transform="translate(0)" fill="#1e2ad5"/>
    </clipPath>
    <clipPath id="clip-path-2">
      <rect id="Rectangle_401223-2" data-name="Rectangle 401223" width="88.539" height="88.539" fill="#f3f9ff"/>
    </clipPath>
    <clipPath id="clip-path-3">
      <rect id="Rectangle_408934" data-name="Rectangle 408934" width="68.884" height="70.877" fill="none"/>
    </clipPath>
  </defs>
  <g id="Group_1118628" data-name="Group 1118628" transform="translate(-619.921 -5755.871)">
    <g id="Group_1100724" data-name="Group 1100724" transform="translate(619.921 5755.871)">
      <g id="Group_1099654" data-name="Group 1099654" transform="translate(0 0)">
        <g id="Group_1099652" data-name="Group 1099652" clip-path="url(#clip-path)">
          <path id="Path_873521" data-name="Path 873521" d="M99,77.066A22,22,0,0,1,77.066,99H21.934A22,22,0,0,1,0,77.066V21.933A22,22,0,0,1,21.934,0H77.066A22,22,0,0,1,99,21.934Z" transform="translate(0)" fill="#1e2ad5"/>
        </g>
      </g>
      <g id="Group_1099659" data-name="Group 1099659" transform="translate(4.77 5.723)">
        <g id="Group_1099652-2" data-name="Group 1099652" transform="translate(0 0)" clip-path="url(#clip-path-2)">
          <path id="Path_873521-2" data-name="Path 873521" d="M88.539,68.922A19.674,19.674,0,0,1,68.923,88.539H19.616A19.674,19.674,0,0,1,0,68.922V19.616A19.674,19.674,0,0,1,19.616,0H68.923A19.674,19.674,0,0,1,88.539,19.616Z" fill="#f3f9ff"/>
        </g>
      </g>
    </g>
    <g id="Group_1100725" data-name="Group 1100725" transform="translate(633.343 5767.871)">
      <rect id="Rectangle_401104" data-name="Rectangle 401104" width="75" height="75" transform="translate(-0.422 -0.14)" fill="none"/>
      <g id="Group_1119031" data-name="Group 1119031" transform="translate(2.636 1.921)">
        <rect id="Rectangle_408923" data-name="Rectangle 408923" width="14.333" height="4.416" transform="translate(32.778 63.899)" fill="#8d9fe8"/>
        <g id="Group_1119030" data-name="Group 1119030">
          <g id="Group_1119029" data-name="Group 1119029" clip-path="url(#clip-path-3)">
            <path id="Path_922033" data-name="Path 922033" d="M136.619,260.716h55.887a1,1,0,0,1,1,.989V303.4a.994.994,0,0,1-1,.989H136.619a.993.993,0,0,1-.99-.989V261.705a.993.993,0,0,1,.99-.989" transform="translate(-124.618 -239.55)" fill="#afbefc" fill-rule="evenodd"/>
            <path id="Path_922034" data-name="Path 922034" d="M481.64,743.266a.917.917,0,1,0-.917-.917.921.921,0,0,0,.917.917" transform="translate(-441.695 -681.238)" fill="#fff" fill-rule="evenodd"/>
            <path id="Path_922035" data-name="Path 922035" d="M159.475,291.537H212.4a.589.589,0,0,1,.589.589v33.2a.589.589,0,0,1-.589.589H159.475a.588.588,0,0,1-.583-.589v-33.2a.588.588,0,0,1,.583-.589" transform="translate(-145.992 -267.868)" fill="#3f3f41" fill-rule="evenodd"/>
            <path id="Path_922036" data-name="Path 922036" d="M354.529,830.084h20.522a.982.982,0,0,1,.978.984v.377a.982.982,0,0,1-.978.984H354.529a.987.987,0,0,1-.984-.984v-.377a.988.988,0,0,1,.984-.984" transform="translate(-324.842 -762.693)" fill="#afbefc" fill-rule="evenodd"/>
            <path id="Path_922037" data-name="Path 922037" d="M129.6,4.337a9.7,9.7,0,0,1,3.243,2.15l3.547-1.767,2.739,5.5-3.547,1.767a9.493,9.493,0,0,1,.073,1.956,9.591,9.591,0,0,1-.31,1.925l3.3,2.192-3.395,5.12-3.3-2.192a9.742,9.742,0,0,1-3.486,1.737l-.243,3.954L122.1,26.3l.243-3.954a9.789,9.789,0,0,1-3.243-2.15l-3.547,1.767-2.739-5.5,3.547-1.761a10,10,0,0,1-.073-1.956,9.6,9.6,0,0,1,.316-1.931l-3.3-2.187,3.389-5.12L120,5.691a9.714,9.714,0,0,1,3.48-1.737L123.72,0l6.128.377Z" transform="translate(-103.653)" fill="#1e2ad5" fill-rule="evenodd"/>
            <path id="Path_922038" data-name="Path 922038" d="M206.724,92.837a3.07,3.07,0,1,1-3.256,2.873,3.07,3.07,0,0,1,3.256-2.873m.182-2.97a6.042,6.042,0,1,1-6.4,5.66,6.041,6.041,0,0,1,6.4-5.66" transform="translate(-184.216 -82.56)" fill="#afbefc" fill-rule="evenodd"/>
            <path id="Path_922039" data-name="Path 922039" d="M15.063,281.128a6.718,6.718,0,0,1,.966,2.521l2.721.431-.662,4.215-2.721-.431A6.824,6.824,0,0,1,14.619,289a6.557,6.557,0,0,1-.953.966l.984,2.575-3.978,1.531-.99-2.575a6.745,6.745,0,0,1-2.672-.42l-1.731,2.144-3.316-2.684,1.731-2.144a6.786,6.786,0,0,1-.972-2.521L0,285.44l.668-4.215,2.721.425a6.655,6.655,0,0,1,.741-1.136,6.88,6.88,0,0,1,.96-.966L4.1,276.98l3.984-1.531.99,2.569a6.7,6.7,0,0,1,2.666.425l1.737-2.144,3.316,2.684Z" transform="translate(-0.001 -253.087)" fill="#f6ae5c" fill-rule="evenodd"/>
            <path id="Path_922040" data-name="Path 922040" d="M69.3,340.924a2.133,2.133,0,1,1-3,.316,2.132,2.132,0,0,1,3-.316m1.3-1.609a4.2,4.2,0,1,1-5.909.626,4.21,4.21,0,0,1,5.909-.626" transform="translate(-58.58 -310.91)" fill="#f8d2a8" fill-rule="evenodd"/>
            <path id="Path_922041" data-name="Path 922041" d="M253.852,343.076a4.966,4.966,0,0,1,1,1.743h2.053L256.9,348h-2.047a4.852,4.852,0,0,1-.419.923,5.041,5.041,0,0,1-.589.819l1.027,1.774-2.751,1.585-1.027-1.773a5.11,5.11,0,0,1-2.01,0l-1.027,1.773-2.751-1.592,1.026-1.773a5.086,5.086,0,0,1-1-1.744h-2.053l.006-3.176h2.046a4.635,4.635,0,0,1,.419-.923,5.006,5.006,0,0,1,.589-.82l-1.026-1.774,2.751-1.585,1.026,1.773a4.98,4.98,0,0,1,2.01,0l1.026-1.773,2.751,1.591Z" transform="translate(-223.527 -312.132)" fill="#ffc811" fill-rule="evenodd"/>
            <path id="Path_922042" data-name="Path 922042" d="M292.675,385.4a1.587,1.587,0,1,1-2.168.577,1.582,1.582,0,0,1,2.168-.577m.771-1.33a3.123,3.123,0,1,1-4.27,1.136,3.112,3.112,0,0,1,4.27-1.136" transform="translate(-265.314 -352.498)" fill="#3f3f41" fill-rule="evenodd"/>
            <path id="Path_922043" data-name="Path 922043" d="M525.594,400.343a8.765,8.765,0,0,1,3.219,1.409l2.879-2.126,3.286,4.464L532.1,406.21a8.8,8.8,0,0,1,.371,1.725,8.562,8.562,0,0,1,.018,1.761l3.28,1.434-2.223,5.077-3.28-1.433a8.689,8.689,0,0,1-2.824,2.083l.4,3.553-5.509.614-.395-3.553a8.737,8.737,0,0,1-3.213-1.409l-2.879,2.126-3.292-4.464,2.879-2.119a8.9,8.9,0,0,1-.371-1.725,9,9,0,0,1-.018-1.761l-3.273-1.433,2.217-5.077,3.28,1.433a8.752,8.752,0,0,1,2.824-2.083l-.4-3.553,5.509-.614Z" transform="translate(-470.223 -364.577)" fill="#ffe9a2" fill-rule="evenodd"/>
            <path id="Path_922044" data-name="Path 922044" d="M597.508,481.583a2.768,2.768,0,1,1-2.441,3.061,2.767,2.767,0,0,1,2.441-3.061m-.3-2.667a5.451,5.451,0,1,1-4.81,6.025,5.453,5.453,0,0,1,4.81-6.025" transform="translate(-544.275 -440.004)" fill="#3f3f41" fill-rule="evenodd"/>
            <path id="Path_922045" data-name="Path 922045" d="M320.952,392.557a5.7,5.7,0,0,0-1.427-3.195,5.77,5.77,0,0,0-3-1.786h-.006l-27.342-7.75-.292-.085-.006.012a3.514,3.514,0,0,0-1.937.194,3.449,3.449,0,0,0-.425,6.177,2.836,2.836,0,0,0,.389.188,3.087,3.087,0,0,0,.377.14l24.646,11.485a5.69,5.69,0,0,0,1.8.838l.328.146.013-.067a5.977,5.977,0,0,0,.735.1,5.767,5.767,0,0,0,6.152-6.4m-1.725,3.844a5.105,5.105,0,0,1-3.438,1.895,4.892,4.892,0,0,1-.947.019,4.822,4.822,0,0,1-.929-.152,5.6,5.6,0,0,1-.856-.31,5.978,5.978,0,0,1-.79-.456l-.049-.03-24.5-11.425v-.036l-.237-.067a1.859,1.859,0,0,1-.328-.115,2.518,2.518,0,0,1-.316-.152v-.006a2.8,2.8,0,0,1-1.305-1.7,2.8,2.8,0,0,1,1.652-3.322,2.8,2.8,0,0,1,1.822-.1l.291.079,26.735,7.579-.006.019.334.073a5.182,5.182,0,0,1,2.69,1.591,5.141,5.141,0,0,1,.176,6.614" transform="translate(-261.675 -348.87)" fill="#fefefe"/>
            <rect id="Rectangle_408924" data-name="Rectangle 408924" width="8.102" height="1.124" transform="translate(39.259 10.143)" fill="#bbbdbf"/>
            <rect id="Rectangle_408925" data-name="Rectangle 408925" width="11.594" height="1.124" transform="translate(39.259 12.73)" fill="#bbbdbf"/>
            <rect id="Rectangle_408926" data-name="Rectangle 408926" width="5.964" height="1.129" transform="translate(39.259 15.317)" fill="#bbbdbf"/>
            <rect id="Rectangle_408927" data-name="Rectangle 408927" width="9.456" height="1.129" transform="translate(39.259 17.905)" fill="#bbbdbf"/>
            <rect id="Rectangle_408928" data-name="Rectangle 408928" width="4.725" height="4.725" transform="translate(54.059 9.214)" fill="#1e2ad5"/>
            <rect id="Rectangle_408929" data-name="Rectangle 408929" width="4.725" height="4.725" transform="translate(60.163 9.214)" fill="#fbfbfb"/>
            <rect id="Rectangle_408930" data-name="Rectangle 408930" width="4.725" height="4.731" transform="translate(54.059 15.542)" fill="#ffc811"/>
            <rect id="Rectangle_408931" data-name="Rectangle 408931" width="4.725" height="4.731" transform="translate(60.163 15.542)" fill="#050c68"/>
            <rect id="Rectangle_408932" data-name="Rectangle 408932" width="4.725" height="4.725" transform="translate(54.059 21.877)" fill="#ffefdb"/>
            <rect id="Rectangle_408933" data-name="Rectangle 408933" width="4.725" height="4.725" transform="translate(60.163 21.877)" fill="#1e2ad5"/>
            <path id="Path_922046" data-name="Path 922046" d="M503.959,283.243a4.831,4.831,0,1,0-4.834-4.829,4.837,4.837,0,0,0,4.834,4.829" transform="translate(-458.603 -251.369)" fill="#d9e6ff" fill-rule="evenodd"/>
            <path id="Path_922047" data-name="Path 922047" d="M525.684,258.892l2.508,4.288,5.927-9.723-5.782,6.632Z" transform="translate(-483.006 -232.88)" fill="#a40f1e" fill-rule="evenodd"/>
            <path id="Path_922048" data-name="Path 922048" d="M165.733,615.059h4.458v-1.786a6.091,6.091,0,0,0,4.227-5.654,5.773,5.773,0,0,0-1.428-3.814,6.8,6.8,0,0,0-5.174-2.338,1.533,1.533,0,0,1-1.6-1.47,1.553,1.553,0,0,1,1.6-1.5,1.581,1.581,0,0,1,1.628,1.5h4.974a6.116,6.116,0,0,0-4.227-5.654v-2.077h-4.458v2a6.092,6.092,0,0,0-4.488,5.758,6.294,6.294,0,0,0,6.571,6.049,1.581,1.581,0,0,1,1.628,1.5,1.561,1.561,0,0,1-1.628,1.47,1.538,1.538,0,0,1-1.6-1.5h-5a6.118,6.118,0,0,0,4.518,5.837Z" transform="translate(-148.127 -544.182)" fill="#ffc811" fill-rule="evenodd"/>
            <path id="Path_922049" data-name="Path 922049" d="M35.833,688.946h3.182V687.67a4.34,4.34,0,0,0,3.019-4.032,4.087,4.087,0,0,0-1.02-2.721,4.83,4.83,0,0,0-3.687-1.67,1.1,1.1,0,0,1-1.148-1.051,1.113,1.113,0,0,1,1.148-1.069,1.128,1.128,0,0,1,1.16,1.069h3.547a4.359,4.359,0,0,0-3.019-4.033v-1.482H35.833V674.1a4.351,4.351,0,0,0-3.2,4.112,4.493,4.493,0,0,0,4.695,4.318,1.128,1.128,0,0,1,1.16,1.069,1.113,1.113,0,0,1-1.16,1.051,1.1,1.1,0,0,1-1.148-1.069H32.614a4.367,4.367,0,0,0,3.219,4.167Z" transform="translate(-29.966 -618.069)" fill="#f6ae5c" fill-rule="evenodd"/>
            <path id="Path_922050" data-name="Path 922050" d="M336,751.361h2.1v-.838a2.877,2.877,0,0,0,2-2.666,2.692,2.692,0,0,0-.674-1.8,3.188,3.188,0,0,0-2.441-1.105.723.723,0,0,1-.753-.7.732.732,0,0,1,.753-.7.749.749,0,0,1,.771.7H340.1a2.89,2.89,0,0,0-2-2.667v-.978H336v.941a2.877,2.877,0,0,0-2.114,2.715,2.965,2.965,0,0,0,3.1,2.854.75.75,0,0,1,.771.71.74.74,0,0,1-.771.693.726.726,0,0,1-.753-.711h-2.363A2.889,2.889,0,0,0,336,750.572Z" transform="translate(-306.766 -680.484)" fill="#634419" fill-rule="evenodd"/>
          </g>
        </g>
      </g>
    </g>
  </g>
</svg>
