<svg xmlns="http://www.w3.org/2000/svg" xmlns:xlink="http://www.w3.org/1999/xlink" width="150" height="150" viewBox="0 0 150 150">
  <defs>
    <clipPath id="clip-path">
      <rect id="Rectangle_401492" data-name="Rectangle 401492" width="143.65" height="143.652" transform="translate(0 0)" fill="#fff" stroke="#707070" stroke-width="1"/>
    </clipPath>
    <clipPath id="clip-path-2">
      <rect id="Rectangle_406251" data-name="Rectangle 406251" width="149.664" height="149.664" fill="#1e2ad5"/>
    </clipPath>
    <clipPath id="clip-path-3">
      <rect id="Rectangle_401492-2" data-name="Rectangle 401492" width="142.285" height="142.286" transform="translate(0.273 -0.368)" fill="#fffceb" stroke="#707070" stroke-width="1"/>
    </clipPath>
    <clipPath id="clip-path-4">
      <rect id="Rectangle_408845" data-name="Rectangle 408845" width="94.934" height="95.171" fill="#fff"/>
    </clipPath>
  </defs>
  <g id="Group_1118921" data-name="Group 1118921" transform="translate(-725.711 -21240)">
    <g id="Group_1118382" data-name="Group 1118382" transform="translate(412.711 13602)">
      <g id="Group_1115379" data-name="Group 1115379" transform="translate(313 7638)">
        <g id="Group_1115374" data-name="Group 1115374" transform="translate(0)">
          <g id="Group_1113673" data-name="Group 1113673">
            <g id="Group_1113672" data-name="Group 1113672" clip-path="url(#clip-path-2)">
              <path id="Path_886855" data-name="Path 886855" d="M110.448,130.863C185.956,123.305,143.5-7.491,68.54.338,36.748,3.658,10.66,28.5,2.7,60.516c-6.754,27.152-.753,57.981,17.2,78.7,23.729,27.379,56-4.893,90.549-8.351" transform="translate(0 0)" fill="#1e2ad5"/>
            </g>
          </g>
        </g>
        <g id="Group_1115378" data-name="Group 1115378" transform="translate(108.032 106.113)">
          <path id="Path_886575" data-name="Path 886575" d="M2.3.08A1.992,1.992,0,0,0,.007,1.718,1.959,1.959,0,0,0,1.932,3.745,1.956,1.956,0,0,0,3.825,1.69C3.707.655,3.31-.284,2.3.08" transform="translate(24.008 0) rotate(19)" fill="#ffc811"/>
          <path id="Path_886576" data-name="Path 886576" d="M3.331.074C-.965-.863-.081,7.339.469,9.4a3.178,3.178,0,0,0,.463,1.1,2.28,2.28,0,0,0,2.443.667A3.762,3.762,0,0,0,5.387,9.5C6.945,7.014,7.3.942,3.331.074" transform="translate(14.172 7.033) rotate(19)" fill="#ffc811"/>
          <path id="Path_886577" data-name="Path 886577" d="M2.762,4.49c2.919-1.363.3-6.145-1.969-3.9A2.874,2.874,0,0,0,0,2.7a2.273,2.273,0,0,0,.25,1.043,2,2,0,0,0,2.511.744" transform="translate(27.898 7.145) rotate(19)" fill="#ffc811"/>
          <path id="Path_886578" data-name="Path 886578" d="M3.921,7.266C5.3,6.007,7.039,2.479,5.533.831,4.12-.712,1.827.079.977,1.69A10.442,10.442,0,0,0,.07,5.136,2.417,2.417,0,0,0,.248,6.852a2.543,2.543,0,0,0,.636.584,2.862,2.862,0,0,0,1.11.577,2.362,2.362,0,0,0,1.926-.747" transform="translate(20.618 17.257) rotate(19)" fill="#ffc811"/>
          <path id="Path_886579" data-name="Path 886579" d="M1.044,4.482a1.9,1.9,0,0,0,2.38-.213C5.484,2.212,1.874-1.766.3.878a2.883,2.883,0,0,0,0,2.565,2.451,2.451,0,0,0,.74,1.04" transform="translate(36.058 16.485) rotate(19)" fill="#ffc811"/>
          <path id="Path_886580" data-name="Path 886580" d="M.027.846A1.715,1.715,0,0,0,.469,2.24a1.911,1.911,0,0,0,.745.593,1.394,1.394,0,0,0,1.452-.281C4.349.907.476-1.2.027.846" transform="translate(35.28 24.662) rotate(19)" fill="#ffc811"/>
          <path id="Path_886581" data-name="Path 886581" d="M1,.785A3.852,3.852,0,0,0,.114,2.918,5.435,5.435,0,0,0,.275,5.784a2.681,2.681,0,0,0,2.2,1.744A2.835,2.835,0,0,0,5.12,5.547C5.856,3.5,3.741-2.037,1,.785" transform="translate(27.712 28.297) rotate(19)" fill="#ffc811"/>
          <path id="Path_886582" data-name="Path 886582" d="M.617,2.99a1.852,1.852,0,0,0,2.149.042C5.156,1.315,1.484-1.5.174.97A1.654,1.654,0,0,0,.617,2.99" transform="translate(9.087 20.713) rotate(19)" fill="#ffc811"/>
          <path id="Path_886583" data-name="Path 886583" d="M1.875.187A2.421,2.421,0,0,0,.7.948,3.136,3.136,0,0,0,.173,2.5,19.859,19.859,0,0,0,0,4.65,4.8,4.8,0,0,0,.352,6.883,2.08,2.08,0,0,0,2.181,8.115,2.445,2.445,0,0,0,3.966,6.993C5.321,5.148,6.055-1.159,1.875.187" transform="translate(2.642 25.923) rotate(19)" fill="#ffc811"/>
          <path id="Path_886584" data-name="Path 886584" d="M4.874.8C3.853.1,2.108-.417,1.139.472.278,1.263.084,2.976.02,4.044A5.626,5.626,0,0,0,.581,7.208,2.9,2.9,0,0,0,3.337,8.724a3.144,3.144,0,0,0,1.57-.761C7.085,6.127,7.351,2.486,4.874.8" transform="translate(13.438 33.458) rotate(19)" fill="#ffc811"/>
        </g>
      </g>
    </g>
    <g id="Group_1118920" data-name="Group 1118920" transform="translate(752.711 21268)">
      <g id="Group_1118919" data-name="Group 1118919" clip-path="url(#clip-path-4)">
        <path id="Path_921645" data-name="Path 921645" d="M73.609,0V11.04A24.5,24.5,0,0,1,91.561,47.76,23.254,23.254,0,0,1,79.742,57.9v5.152l2.948.141,0,2.8-2.949.14,0,3.049,2.946,0v2.946H79.742V85.99c0,7.857-9.86,12.192-15.59,6.757-.586-.556-1.321-2.1-1.95-2.221H6.758A7.762,7.762,0,0,1,0,83.054L.013,7.241C-.04,4.037,3.539,0,6.756,0ZM70.42,3.189H6.51c-1,0-3.312,2.318-3.312,3.312V76.544l3.794-1.235,54.12-.1.231-3.084-3.195-.14,0-2.8c.694-.133,2.907.361,3.156-.4l.036-2.788-3.195-.14,0-2.8c.694-.133,2.907.361,3.156-.4-.092-.995.355-4-.208-4.63-.264-.295-2.5-1.21-3.112-1.55-.783-.438-1.4-1.084-2.209-1.479l-4.864,4.622-3.922-3.855-4.051,1.774v5.152l-.368.368h-11.9V57.408l-4.052-1.65L22.58,59.5,14,50.907l3.855-3.922-1.774-4.051H10.8V30.667h5.275l1.8-4.013L14,22.693l8.7-8.473,3.96,3.65,4.013-1.8V10.795H42.942v5.643l4.013,1.433,3.927-3.624,3.19,2.909A23.845,23.845,0,0,1,70.42,10.795ZM39.753,13.739H33.988l-.368.368v4.416c-1.185.553-2.581.792-3.847,1.305a34.523,34.523,0,0,0-3.639,1.949L22.7,18.4l-4.289,4.289,3.2,3.447c-1.237,2.483-2.611,4.9-2.957,7.716H13.748v6.133h4.907A23.9,23.9,0,0,0,21.6,47.478l-3.182,3.429,4.292,4.239,3.426-3.132a22.39,22.39,0,0,0,7.488,2.941v4.907h6.133V55.323c2.547-1,5.182-1.733,7.528-3.273L50.7,55.183,53.133,53c.235-.518-1.272-1.683-1.6-2.1a23.192,23.192,0,0,1-4.181-7.72c-5.209,8.438-18.083,7.719-21.876-1.551-5.034-12.3,9.967-22.687,19.805-13.672.336.308,1.081,1.809,1.462,1.24a16.585,16.585,0,0,0,.739-2.45A33.1,33.1,0,0,1,49.855,22c.745-1.215,2.85-2.544,1.061-3.593l-3.431,3.359a22.422,22.422,0,0,0-7.732-3.121Zm30.131.065C52.452,14.254,42.962,34.375,53.39,48.31c9.035,12.072,27.873,11.009,35.472-2.022C97.341,31.746,86.733,13.368,69.884,13.8M35.028,27.782C24.3,29.46,25.741,46.622,37.166,46.126c12.413-.539,11.14-20.421-2.138-18.344M76.553,59.126a26.457,26.457,0,0,1-12.267,0v3.557l.368.368h11.9Zm0,6.869H64.286v3.189H76.553Zm0,6.133H64.286v14.6a18.272,18.272,0,0,0,.692,2.007,6.169,6.169,0,0,0,10.552.651,10.764,10.764,0,0,0,1.022-2.412ZM61.342,78.262H7a16.943,16.943,0,0,0-1.57.638,4.606,4.606,0,0,0,.37,8.168,14.5,14.5,0,0,0,1.446.517h54.1Z" fill="#fff"/>
        <path id="Path_921646" data-name="Path 921646" d="M137.3,269c-.141,1.017.369,2.409-.368,3.189h-11.9V269Z" transform="translate(-94.36 -203.005)" fill="#fff"/>
        <path id="Path_921647" data-name="Path 921647" d="M190.223,268.995l-.108,2.961-2.852.123-.231-3.084Z" transform="translate(-141.146 -203.001)" fill="#fff"/>
        <rect id="Rectangle_408844" data-name="Rectangle 408844" width="2.946" height="3.192" transform="translate(24.541 65.994)" fill="#fff"/>
        <path id="Path_921648" data-name="Path 921648" d="M240.119,81.23c20.509-.741,20.992,30.748.616,30.753-19.825.005-20.387-30.039-.616-30.753m-.992,3.191c-15.256,1.726-13.513,25.439,2.382,24.461,16.243-1,14.415-26.361-2.382-24.461" transform="translate(-170.234 -61.292)" fill="#fff"/>
      </g>
    </g>
  </g>
</svg>
