<svg xmlns="http://www.w3.org/2000/svg" xmlns:xlink="http://www.w3.org/1999/xlink" width="99" height="99" viewBox="0 0 99 99">
  <defs>
    <clipPath id="clip-path">
      <rect id="Rectangle_401223" data-name="Rectangle 401223" width="99" height="99" transform="translate(0)" fill="#1e2ad5"/>
    </clipPath>
    <clipPath id="clip-path-2">
      <rect id="Rectangle_401223-2" data-name="Rectangle 401223" width="88.539" height="88.539" fill="#f3f9ff"/>
    </clipPath>
    <clipPath id="clip-path-3">
      <rect id="Rectangle_408902" data-name="Rectangle 408902" width="69.835" height="61.422" fill="#fffceb"/>
    </clipPath>
  </defs>
  <g id="Group_1118387" data-name="Group 1118387" transform="translate(-619.922 -5755.73)">
    <g id="Group_1100724" data-name="Group 1100724" transform="translate(619.922 5755.73)">
      <g id="Group_1099654" data-name="Group 1099654" transform="translate(0 0)">
        <g id="Group_1099652" data-name="Group 1099652" clip-path="url(#clip-path)">
          <path id="Path_873521" data-name="Path 873521" d="M99,77.066A22,22,0,0,1,77.066,99H21.934A22,22,0,0,1,0,77.066V21.933A22,22,0,0,1,21.934,0H77.066A22,22,0,0,1,99,21.934Z" transform="translate(0)" fill="#1e2ad5"/>
        </g>
      </g>
      <g id="Group_1099659" data-name="Group 1099659" transform="translate(4.77 5.723)">
        <g id="Group_1099652-2" data-name="Group 1099652" transform="translate(0 0)" clip-path="url(#clip-path-2)">
          <path id="Path_873521-2" data-name="Path 873521" d="M88.539,68.922A19.674,19.674,0,0,1,68.923,88.539H19.616A19.674,19.674,0,0,1,0,68.922V19.616A19.674,19.674,0,0,1,19.616,0H68.923A19.674,19.674,0,0,1,88.539,19.616Z" fill="#f3f9ff"/>
        </g>
      </g>
    </g>
    <g id="Group_1100725" data-name="Group 1100725" transform="translate(632.343 5767.293)">
      <rect id="Rectangle_401104" data-name="Rectangle 401104" width="75" height="75" transform="translate(-0.421 0.438)" fill="none"/>
      <g id="Group_1119016" data-name="Group 1119016" transform="translate(3.122 6.179)">
        <path id="Path_921908" data-name="Path 921908" d="M0,138.977l10.363,29.015,21.861-7.8-10.358-29.02Z" transform="translate(0 -122.158)" fill="#ffe9a2"/>
        <path id="Path_921909" data-name="Path 921909" d="M66.845,242.459l17.054-6.09.305.855-17.054,6.085Zm-2.816-7.9,17.049-6.09.306.855-17.049,6.086Zm1.411,3.946,17.049-6.085.305.85-17.053,6.09Zm5.637,15.8,17.048-6.09.306.855-17.049,6.085Zm-1.411-3.951,17.054-6.085.3.85-17.048,6.09Zm-1.41-3.947,17.054-6.09.305.855-17.054,6.091Z" transform="translate(-59.629 -212.772)" fill="#ccc" fill-rule="evenodd"/>
        <path id="Path_921910" data-name="Path 921910" d="M395.785,64.252h0l.021,45.219-34.067.015-.02-45.219Z" transform="translate(-336.863 -59.837)" fill="#fffceb" fill-rule="evenodd"/>
        <path id="Path_921911" data-name="Path 921911" d="M417.9,172.092l26.571-.01v1.329l-26.571.01Zm0-12.3,26.566-.015,0,1.329-26.571.015Zm0,6.152,26.566-.01v1.329l-26.566.01Zm.01,24.61,26.566-.015v1.334l-26.566.01Zm0-6.156,26.571-.01v1.329l-26.571.015Zm0-6.152,26.565-.01v1.329l-26.565.01Z" transform="translate(-389.176 -148.795)" fill="#ccc" fill-rule="evenodd"/>
        <rect id="Rectangle_408887" data-name="Rectangle 408887" width="18.037" height="19.855" transform="translate(2.893 35.06)" fill="#fefefe"/>
        <g id="Group_1119015" data-name="Group 1119015">
          <g id="Group_1119014" data-name="Group 1119014" clip-path="url(#clip-path-3)">
            <path id="Path_921912" data-name="Path 921912" d="M49.822,440.934H31.561a.658.658,0,0,1-.657-.657v-.968a.658.658,0,0,1,.657-.657H38.15a2.462,2.462,0,0,1-.015-.275,2.556,2.556,0,0,1,5.112,0,2.462,2.462,0,0,1-.015.275h6.589a.658.658,0,0,1,.657.657v.968a.658.658,0,0,1-.657.657m-9.13-3.539a.985.985,0,1,0,.983.983.984.984,0,0,0-.983-.983" transform="translate(-28.78 -405.874)" fill="#f16858" fill-rule="evenodd"/>
            <path id="Path_921913" data-name="Path 921913" d="M49.822,501.248H31.561a.658.658,0,0,1-.657-.657v-.005H50.478v.005a.658.658,0,0,1-.657.657" transform="translate(-28.78 -466.189)" fill="#c02729" fill-rule="evenodd"/>
            <path id="Path_921914" data-name="Path 921914" d="M261.674,759.139l2.949-2.953-2.949.041Z" transform="translate(-243.693 -704.225)" fill="#d0d2d4" fill-rule="evenodd"/>
            <path id="Path_921915" data-name="Path 921915" d="M121.831,560.17h-8.667a.443.443,0,0,0,0,.886h8.667a.443.443,0,1,0,0-.886" transform="translate(-104.975 -521.678)" fill="#7c7c7c" fill-rule="evenodd"/>
            <path id="Path_921916" data-name="Path 921916" d="M166.238,632.5h-7.429a.443.443,0,1,0,0,.886h7.429a.443.443,0,1,0,0-.886" transform="translate(-147.483 -589.038)" fill="#7c7c7c" fill-rule="evenodd"/>
            <path id="Path_921917" data-name="Path 921917" d="M69.483,536.9a2.039,2.039,0,1,1-2.042,2.042,2.041,2.041,0,0,1,2.042-2.042m-.122,1.186V540a.112.112,0,0,0,.224,0V537.89a.113.113,0,0,0-.112-.112.122.122,0,0,0-.067.021l-.534.371a.109.109,0,0,0-.046.092.111.111,0,0,0,.107.107.1.1,0,0,0,.066-.02Z" transform="translate(-62.807 -500.009)" fill="#1e2ad5" fill-rule="evenodd"/>
            <path id="Path_921918" data-name="Path 921918" d="M121.831,704.824h-8.667a.443.443,0,0,0,0,.886h8.667a.443.443,0,1,0,0-.886" transform="translate(-104.975 -656.392)" fill="#7c7c7c" fill-rule="evenodd"/>
            <path id="Path_921919" data-name="Path 921919" d="M110.606,609.227a2.04,2.04,0,1,1-2.037,2.042,2.045,2.045,0,0,1,2.037-2.042m-.672,1.294a.086.086,0,0,0-.01.035.108.108,0,0,0,.107.107.1.1,0,0,0,.1-.066.483.483,0,0,1,.484-.316.45.45,0,0,1,.5.458c0,.739-1.263.82-1.263,1.563a.108.108,0,0,0,.107.107h1.309a.107.107,0,0,0,0-.214h-1.186c0-.4,1.258-.642,1.258-1.457a.642.642,0,0,0-.723-.657.65.65,0,0,0-.677.438" transform="translate(-101.109 -567.364)" fill="#1e2ad5" fill-rule="evenodd"/>
            <path id="Path_921920" data-name="Path 921920" d="M69.484,681.557a2.039,2.039,0,1,1-2.042,2.042,2.037,2.037,0,0,1,2.042-2.042m.01,1.772.637-.723a.1.1,0,0,0,.026-.071.1.1,0,0,0-.1-.1h-1.1a.1.1,0,1,0,0,.2h.876l-.626.723a.111.111,0,0,0-.025.071.1.1,0,0,0,.1.1h.239c.382,0,.51.224.51.53s-.183.494-.56.494a.589.589,0,0,1-.55-.285.1.1,0,0,0-.091-.051.1.1,0,0,0-.087.158.8.8,0,0,0,.728.382c.514,0,.784-.255.784-.7a.656.656,0,0,0-.718-.734Z" transform="translate(-62.808 -634.724)" fill="#1e2ad5" fill-rule="evenodd"/>
            <path id="Path_921921" data-name="Path 921921" d="M165.869,787.933l2.755.7c2.128-1.192,2.378-2.378.1-3.549l-2.8.693c-5.2,1.288-5.077.845-.056,2.154" transform="translate(-150.928 -731.139)" fill="#fbc081" fill-rule="evenodd"/>
            <path id="Path_921922" data-name="Path 921922" d="M163.2,799.682c-3.407.8-3.346.708-.031,1.523a.976.976,0,0,0,.52-.759.921.921,0,0,0-.489-.764" transform="translate(-149.625 -744.732)" fill="#4d4d4d" fill-rule="evenodd"/>
            <path id="Path_921923" data-name="Path 921923" d="M271.225,782.7H269.56l-14.686-.031c-.754,0-1.365-.31-1.355-.687s.637-.677,1.39-.677l16.356.036c.061,0,.122,0,.178.005l1.68,0c.647,0,1.166.265,1.161.586l-.026.774Z" transform="translate(-236.099 -727.615)" fill="#b96f2d" fill-rule="evenodd"/>
            <path id="Path_921924" data-name="Path 921924" d="M270.741,798.253l-1.665-.005L254.39,798.2c-.754-.005-1.38.341-1.39.769s.6.774,1.355.774l14.686.046,1.665,0,3.035.01.036-1.543Z" transform="translate(-235.614 -743.354)" fill="#e4883a" fill-rule="evenodd"/>
            <path id="Path_921925" data-name="Path 921925" d="M270.185,819.176l-.657,0-15.694-.051c-.753,0-1.364-.357-1.355-.789s.632-.784,1.39-.784l14.686.05,1.665.005,3.035.01-.02.907c-.01.336-.454.616-1.024.662Z" transform="translate(-235.129 -761.37)" fill="#f99e3f" fill-rule="evenodd"/>
            <path id="Path_921926" data-name="Path 921926" d="M535.136,783.293l-.055,2.042a1.048,1.048,0,0,1-1.049,1.018l-2.653,0a.992.992,0,0,1-1-1.023l.056-2.042a1.055,1.055,0,0,1,1.049-1.019l2.658.005a.991.991,0,0,1,.993,1.024" transform="translate(-493.935 -728.512)" fill="#f1698d" fill-rule="evenodd"/>
            <path id="Path_921927" data-name="Path 921927" d="M529.861,782.854l-.1,3.213a.455.455,0,0,1-.453.439h-.876a.422.422,0,0,1-.422-.439l.1-3.213a.462.462,0,0,1,.453-.438h.876a.429.429,0,0,1,.428.438" transform="translate(-491.726 -728.653)" fill="#d85e7f" fill-rule="evenodd"/>
            <path id="Path_921928" data-name="Path 921928" d="M468.58,148.1l4.491-1c.27-.239.367-.53-.137-1a1.45,1.45,0,0,1-.6-.891,1.487,1.487,0,1,1,2.74.412c-.255.637-.046.861.3.962l4.491-1,1,4.491c.239.27.53.367,1-.137a1.469,1.469,0,0,1,.891-.6,1.487,1.487,0,1,1-.412,2.745c-.637-.26-.861-.051-.962.3l1,4.491-4.553,1.019c-.305-.112-.473-.346-.229-.942a1.486,1.486,0,1,0-2.149.484c.468.433.417.713.188.948l-4.552,1.013-1.013-4.553c.112-.305.346-.473.937-.229a1.488,1.488,0,0,0,2.189-1.614,1.484,1.484,0,0,0-1.772-1.13,1.516,1.516,0,0,0-.9.6c-.433.474-.718.423-.947.194Z" transform="translate(-436.382 -133.54)" fill="#f16858" fill-rule="evenodd"/>
            <path id="Path_921929" data-name="Path 921929" d="M304.283,184.707l4.492-1c.27-.234.366-.53-.138-.993a1.49,1.49,0,1,1,2.144-.479c-.26.637-.046.861.3.957l4.491-1,1,4.492c.239.27.53.366,1-.137a1.488,1.488,0,1,1,.479,2.144c-.642-.26-.86-.046-.962.3l1,4.492-4.552,1.013c-.306-.107-.474-.341-.234-.937a1.486,1.486,0,1,0-2.74-.412,1.452,1.452,0,0,0,.6.891c.469.438.418.718.188.947L306.8,196l-1.013-4.552c.112-.306.346-.474.937-.234a1.485,1.485,0,0,0,2.19-1.615,1.489,1.489,0,0,0-2.668-.53c-.433.469-.718.418-.947.189Z" transform="translate(-283.374 -167.633)" fill="#03386e" fill-rule="evenodd"/>
            <path id="Path_921930" data-name="Path 921930" d="M612.242,353.08l4.527.815c.341-.117.545-.346.26-.973a1.461,1.461,0,0,1-.2-1.059,1.488,1.488,0,1,1,2.368,1.446c-.484.488-.377.774-.1,1l4.532.81-.815,4.532c.117.341.346.545.973.26a1.484,1.484,0,1,1-.387,2.164c-.489-.489-.774-.377-1-.1l-.809,4.527-4.594-.82c-.239-.224-.3-.5.153-.957a1.488,1.488,0,1,0-2.373-1.441,1.513,1.513,0,0,0,.2,1.054c.27.586.112.825-.188.948l-4.594-.825.825-4.588c.219-.24.5-.306.957.148a1.453,1.453,0,0,0,.917.56,1.488,1.488,0,0,0,.525-2.928,1.474,1.474,0,0,0-1.055.2c-.585.265-.825.112-.947-.188Z" transform="translate(-568.266 -326.544)" fill="#1b8a75" fill-rule="evenodd"/>
            <path id="Path_921931" data-name="Path 921931" d="M358.75,418.508l4.471-1.11c.265-.244.352-.535-.163-.993a1.489,1.489,0,1,1,2.134-.53c-.245.647-.025.861.321.957l4.471-1.11,1.105,4.466c.244.27.54.356.993-.158a1.457,1.457,0,0,1,.881-.616,1.487,1.487,0,1,1-.352,2.749c-.647-.244-.861-.025-.952.321l1.1,4.471-4.527,1.12c-.311-.107-.478-.336-.255-.931a1.488,1.488,0,1,0-2.133.524c.479.428.438.708.214.947l-4.527,1.12-1.125-4.527c.107-.31.336-.479.937-.255a1.467,1.467,0,0,0,1.064.137,1.488,1.488,0,1,0-1.594-2.271c-.428.479-.708.438-.942.214Z" transform="translate(-334.099 -385.256)" fill="#ffc811" fill-rule="evenodd"/>
            <path id="Path_921932" data-name="Path 921932" d="M616.4,674.891h20.343a.787.787,0,0,1,.784.784v13.479a.788.788,0,0,1-.784.784H616.4a.789.789,0,0,1-.79-.784V675.675a.789.789,0,0,1,.79-.784" transform="translate(-573.305 -628.516)" fill="#fefefe" fill-rule="evenodd"/>
            <path id="Path_921933" data-name="Path 921933" d="M616.517,624.129H636.61a.917.917,0,0,1,.911.911V628.2a.913.913,0,0,1-.911.906H616.517a.913.913,0,0,1-.912-.906V625.04a.917.917,0,0,1,.912-.911" transform="translate(-573.304 -581.242)" fill="#ffc811" fill-rule="evenodd"/>
            <path id="Path_921934" data-name="Path 921934" d="M643.885,631.758a.7.7,0,1,0-.708-.7.7.7,0,0,0,.708.7" transform="translate(-598.981 -587.038)" fill="#686868" fill-rule="evenodd"/>
            <path id="Path_921935" data-name="Path 921935" d="M684.486,631.758a.7.7,0,1,0-.7-.7.7.7,0,0,0,.7.7" transform="translate(-636.797 -587.038)" fill="#686868" fill-rule="evenodd"/>
            <path id="Path_921936" data-name="Path 921936" d="M725.024,631.758a.7.7,0,1,0-.7-.7.7.7,0,0,0,.7.7" transform="translate(-674.551 -587.038)" fill="#686868" fill-rule="evenodd"/>
            <path id="Path_921937" data-name="Path 921937" d="M765.56,631.758a.7.7,0,1,0-.7-.7.7.7,0,0,0,.7.7" transform="translate(-712.3 -587.038)" fill="#686868" fill-rule="evenodd"/>
            <path id="Path_921938" data-name="Path 921938" d="M806.094,631.758a.7.7,0,1,0-.7-.7.7.7,0,0,0,.7.7" transform="translate(-750.049 -587.038)" fill="#686868" fill-rule="evenodd"/>
            <path id="Path_921939" data-name="Path 921939" d="M846.634,631.758a.7.7,0,1,0-.7-.7.706.706,0,0,0,.7.7" transform="translate(-787.803 -587.038)" fill="#686868" fill-rule="evenodd"/>
            <path id="Path_921940" data-name="Path 921940" d="M887.178,631.758a.7.7,0,1,0-.707-.7.7.7,0,0,0,.707.7" transform="translate(-825.558 -587.038)" fill="#686868" fill-rule="evenodd"/>
            <path id="Path_921941" data-name="Path 921941" d="M646.663,605.971h0a.527.527,0,0,1,.524.524v1.467a.525.525,0,0,1-1.049,0V606.5a.527.527,0,0,1,.525-.524" transform="translate(-601.739 -564.332)" fill="#fefefe" fill-rule="evenodd"/>
            <path id="Path_921942" data-name="Path 921942" d="M687.2,605.971h0a.527.527,0,0,1,.524.524v1.467a.524.524,0,0,1-1.049,0V606.5a.527.527,0,0,1,.524-.524" transform="translate(-639.494 -564.332)" fill="#fefefe" fill-rule="evenodd"/>
            <path id="Path_921943" data-name="Path 921943" d="M727.732,605.971h0a.527.527,0,0,1,.524.524v1.467a.525.525,0,0,1-1.049,0V606.5a.527.527,0,0,1,.525-.524" transform="translate(-677.237 -564.332)" fill="#fefefe" fill-rule="evenodd"/>
            <path id="Path_921944" data-name="Path 921944" d="M768.272,605.971h0a.531.531,0,0,1,.53.524v1.467a.527.527,0,0,1-1.054,0V606.5a.53.53,0,0,1,.524-.524" transform="translate(-714.993 -564.332)" fill="#fefefe" fill-rule="evenodd"/>
            <path id="Path_921945" data-name="Path 921945" d="M808.811,605.971h0a.53.53,0,0,1,.524.524v1.467a.527.527,0,0,1-1.054,0V606.5a.532.532,0,0,1,.53-.524" transform="translate(-752.74 -564.332)" fill="#fefefe" fill-rule="evenodd"/>
            <path id="Path_921946" data-name="Path 921946" d="M849.417,605.971h0a.53.53,0,0,1,.524.524v1.467a.525.525,0,0,1-1.049,0V606.5a.527.527,0,0,1,.525-.524" transform="translate(-790.561 -564.332)" fill="#fefefe" fill-rule="evenodd"/>
            <path id="Path_921947" data-name="Path 921947" d="M889.957,605.971h0a.527.527,0,0,1,.524.524v1.467a.524.524,0,0,1-1.049,0V606.5a.527.527,0,0,1,.524-.524" transform="translate(-828.316 -564.332)" fill="#fefefe" fill-rule="evenodd"/>
            <rect id="Rectangle_408888" data-name="Rectangle 408888" width="2.185" height="2.19" transform="translate(44.302 50.133)" fill="#a40f1e"/>
            <rect id="Rectangle_408889" data-name="Rectangle 408889" width="2.185" height="2.185" transform="translate(44.302 53.794)" fill="#a40f1e"/>
            <rect id="Rectangle_408890" data-name="Rectangle 408890" width="2.185" height="2.19" transform="translate(48.249 50.133)" fill="#808184"/>
            <rect id="Rectangle_408891" data-name="Rectangle 408891" width="2.185" height="2.185" transform="translate(48.249 53.794)" fill="#808184"/>
            <rect id="Rectangle_408892" data-name="Rectangle 408892" width="2.185" height="2.19" transform="translate(52.195 50.133)" fill="#808184"/>
            <rect id="Rectangle_408893" data-name="Rectangle 408893" width="2.185" height="2.185" transform="translate(52.195 53.794)" fill="#808184"/>
            <rect id="Rectangle_408894" data-name="Rectangle 408894" width="2.185" height="2.19" transform="translate(56.142 50.133)" fill="#808184"/>
            <rect id="Rectangle_408895" data-name="Rectangle 408895" width="2.185" height="2.185" transform="translate(56.142 53.794)" fill="#808184"/>
            <rect id="Rectangle_408896" data-name="Rectangle 408896" width="2.185" height="2.185" transform="translate(60.088 53.794)" fill="#808184"/>
            <rect id="Rectangle_408897" data-name="Rectangle 408897" width="2.185" height="2.185" transform="translate(44.302 57.455)" fill="#a40f1e"/>
            <rect id="Rectangle_408898" data-name="Rectangle 408898" width="2.185" height="2.185" transform="translate(48.249 57.455)" fill="#808184"/>
            <rect id="Rectangle_408899" data-name="Rectangle 408899" width="2.185" height="2.185" transform="translate(52.195 57.455)" fill="#808184"/>
            <rect id="Rectangle_408900" data-name="Rectangle 408900" width="2.185" height="2.185" transform="translate(56.142 57.455)" fill="#808184"/>
            <rect id="Rectangle_408901" data-name="Rectangle 408901" width="2.185" height="2.185" transform="translate(60.088 57.455)" fill="#808184"/>
            <path id="Path_921948" data-name="Path 921948" d="M864.35,713.138a2.118,2.118,0,1,0-2.118-2.118,2.12,2.12,0,0,0,2.118,2.118" transform="translate(-802.984 -660.189)" fill="#adecf7" fill-rule="evenodd"/>
            <path id="Path_921949" data-name="Path 921949" d="M876.016,700.84l1.1,1.879,2.6-4.262-2.536,2.908Z" transform="translate(-815.821 -650.463)" fill="#1e2ad5" fill-rule="evenodd"/>
            <path id="Path_921950" data-name="Path 921950" d="M172.156,27.692a.558.558,0,0,1-1.115,0V26.576a.558.558,0,1,1,1.115,0Zm0-4.461a.558.558,0,1,1-1.115,0V22.12a.558.558,0,1,1,1.115,0Zm0-4.456a.558.558,0,1,1-1.115,0v-1.11a.558.558,0,1,1,1.115,0Zm0-4.456a.558.558,0,1,1-1.115,0V13.2a.558.558,0,0,1,1.115,0Zm0-4.456a.558.558,0,0,1-1.115,0V8.749a.558.558,0,0,1,1.115,0Zm.01-4.42a.556.556,0,1,1-1.11-.076v-.05l.005-.036,0-.036V5.209l.005-.041.005-.035,0-.036V5.062l0-.035.005-.036.005-.036,0-.035.005-.036,0-.036.005-.036.01-.035.005-.036,0-.035.005-.036.01-.036.005-.036.01-.03.005-.036.01-.035,0-.036.01-.035.01-.036,0-.036.01-.03.01-.036.01-.036.005-.03.01-.036.01-.031a.557.557,0,0,1,1.069.311l-.005.025-.01.025,0,.03-.01.026,0,.03-.01.025-.005.03-.005.025-.01.026,0,.03-.005.025-.005.03,0,.031-.01.025,0,.03-.005.025,0,.031,0,.025-.005.03,0,.031,0,.025v.031l-.005.03,0,.025-.005.03V5.2l0,.025,0,.03v.031l-.005.025v.03l0,.031V5.4l-.005.025ZM174,2.052a.555.555,0,0,1-.779-.107.565.565,0,0,1,.112-.784l.02-.01.03-.025.025-.02.031-.021.025-.02.031-.015.025-.021.031-.02.025-.021.03-.02.031-.021.025-.015L173.7.911l.03-.02.03-.015.026-.021.031-.02.03-.016.031-.02.03-.015.031-.015.031-.021L174,.733l.031-.015.03-.021.031-.015.03-.015.031-.015.03-.021.03-.015L174.244.6l.031-.015L174.3.57l.036-.016.03-.015.021-.01a.558.558,0,0,1,.468,1.013l-.015,0-.026.015-.025.01-.025.015-.025.01-.025.01-.026.015-.025.01-.025.015-.025.015-.026.01-.021.015-.025.015-.026.01-.025.015-.026.015-.025.015-.021.01-.025.015-.026.016-.021.015-.025.015-.025.015-.021.015-.025.015-.02.015-.026.015-.021.015-.025.016-.021.015-.025.02-.02.015-.025.016-.021.015-.025.02Zm3.9-.937A.558.558,0,1,1,177.9,0h1.115a.558.558,0,0,1,0,1.115Zm4.455,0a.558.558,0,0,1,0-1.115h1.115a.558.558,0,0,1,0,1.115Zm4.456,0a.558.558,0,0,1,0-1.115h1.115a.558.558,0,0,1,0,1.115Zm4.456,0a.558.558,0,0,1,0-1.115h1.115a.558.558,0,1,1,0,1.115Zm4.456,0a.558.558,0,0,1,0-1.115h1.115a.558.558,0,1,1,0,1.115Zm4.461,0a.558.558,0,1,1,0-1.115h1.11a.558.558,0,1,1,0,1.115Zm4.456,0a.558.558,0,1,1,0-1.115h1.115a.558.558,0,0,1,0,1.115Zm4.455,0a.558.558,0,0,1,0-1.115h1.115a.558.558,0,0,1,0,1.115Zm4.456,0a.558.558,0,0,1,0-1.115h1.115a.558.558,0,0,1,0,1.115Zm4.456,0a.558.558,0,0,1,0-1.115h1.115a.558.558,0,1,1,0,1.115Zm4.461,0a.558.558,0,1,1,0-1.115h1.049l.035,0h.051a.561.561,0,0,1,.535.581.561.561,0,0,1-.581.535h-.01l-.03,0h-1.049ZM226.3,2.159A.555.555,0,1,1,227,1.3l.021.015.025.021.03.025.025.021.026.025.026.02.025.025.025.021.025.025.025.02.025.025.026.021.025.025.025.025.025.025.026.021.02.025.026.025.025.025.025.025.021.026.025.02.025.025.02.025.025.025.021.025.025.025.025.03.021.025.02.026.025.025.021.025.021.025.025.03.021.025.015.02a.556.556,0,1,1-.87.693l-.01-.015-.021-.02-.015-.021-.02-.02-.015-.025-.021-.021-.015-.02-.02-.021-.02-.02-.016-.02-.02-.02-.02-.021-.016-.025-.02-.02-.021-.021-.02-.015-.015-.021-.021-.02-.02-.02-.021-.02-.021-.021-.02-.02-.02-.021-.021-.015-.021-.02-.02-.021-.02-.015-.021-.021-.02-.02-.02-.015-.021-.021-.026-.02-.02-.015-.021-.021-.02-.015Zm1.711,3.458a.558.558,0,1,1,1.115-.025V6.717a.555.555,0,1,1-1.11,0V5.7l0-.031V5.617Zm0,4.445a.555.555,0,1,1,1.11,0v1.11a.555.555,0,1,1-1.11,0Zm0,4.456a.555.555,0,1,1,1.11,0v1.115a.555.555,0,0,1-1.11,0Zm0,4.456a.555.555,0,1,1,1.11,0v1.115a.555.555,0,0,1-1.11,0Zm0,4.456a.555.555,0,0,1,1.11,0v1.115a.555.555,0,0,1-1.11,0Zm0,4.456a.555.555,0,0,1,1.11,0V29a.555.555,0,1,1-1.11,0Zm0,4.44a.558.558,0,1,1,1.115.036v.066l-.005.035v.071l0,.036v.041l-.005.036v.035l-.005.036,0,.036v.036l0,.035-.005.041-.005.036,0,.036,0,.035-.005.036-.005.036,0,.035-.005.036,0,.036-.005.036-.005.035-.01.036-.005.035-.005.031-.01.035,0,.036-.01.036-.005.035-.01.036-.005.036-.01.03v.015a.56.56,0,0,1-1.085-.275l0,0,.005-.025,0-.031.01-.025,0-.03.005-.025,0-.03,0-.026.005-.03,0-.025,0-.03.005-.031,0-.025.005-.03,0-.031,0-.025.005-.031.005-.025v-.03l0-.03,0-.025v-.031l.005-.03,0-.031v-.025l0-.03v-.061L228,32.5v-.061l0-.03v-.087Zm-1.7,3.463a.558.558,0,1,1,.7.866l-.01.01-.025.021-.03.025-.025.021-.025.021-.03.02-.026.02-.026.02-.03.02-.026.021-.031.02-.025.021-.031.021-.03.02-.025.021-.031.02-.025.021-.031.015-.03.021-.03.02-.025.015-.03.02-.031.02-.03.015-.025.021-.03.015-.031.02-.031.015-.03.02-.03.015-.031.015-.031.021-.03.015-.031.015-.03.016-.03.015,0,0a.557.557,0,0,1-.5-.993l.025-.015.026-.01.025-.015.02-.01.026-.015.025-.016.025-.015.026-.01.021-.015.025-.015.025-.015.02-.015.025-.01.025-.016.025-.015.021-.015.025-.015.02-.015.026-.015.025-.015.021-.015.025-.021.021-.015.025-.015.021-.015.02-.015.025-.021.021-.015.025-.015.021-.015.02-.02.026-.015.021-.021.021-.015.025-.02Zm-3.829,1.059a.557.557,0,1,1,0,1.115h-1.115a.557.557,0,0,1,0-1.115Z" transform="translate(-159.288)" fill="#1e2ad5"/>
          </g>
        </g>
      </g>
    </g>
  </g>
</svg>
