<svg xmlns="http://www.w3.org/2000/svg" xmlns:xlink="http://www.w3.org/1999/xlink" width="99" height="99" viewBox="0 0 99 99">
  <defs>
    <clipPath id="clip-path">
      <rect id="Rectangle_401223" data-name="Rectangle 401223" width="99" height="99" transform="translate(0)" fill="#1e2ad5"/>
    </clipPath>
    <clipPath id="clip-path-2">
      <rect id="Rectangle_401223-2" data-name="Rectangle 401223" width="88.539" height="88.539" fill="#f3f9ff"/>
    </clipPath>
    <clipPath id="clip-path-3">
      <rect id="Rectangle_408922" data-name="Rectangle 408922" width="71.3" height="61.522" fill="none"/>
    </clipPath>
    <clipPath id="clip-path-5">
      <rect id="Rectangle_408915" data-name="Rectangle 408915" width="15.264" height="13.98" fill="none"/>
    </clipPath>
    <clipPath id="clip-path-6">
      <rect id="Rectangle_408917" data-name="Rectangle 408917" width="15.374" height="12.842" fill="none"/>
    </clipPath>
  </defs>
  <g id="Group_1118629" data-name="Group 1118629" transform="translate(-619.921 -5755.871)">
    <g id="Group_1100724" data-name="Group 1100724" transform="translate(619.921 5755.871)">
      <g id="Group_1099654" data-name="Group 1099654" transform="translate(0 0)">
        <g id="Mask_Group_1099652" data-name="Mask Group 1099652" clip-path="url(#clip-path)">
          <path id="Path_873521" data-name="Path 873521" d="M99,77.066A22,22,0,0,1,77.066,99H21.934A22,22,0,0,1,0,77.066V21.933A22,22,0,0,1,21.934,0H77.066A22,22,0,0,1,99,21.934Z" transform="translate(0)" fill="#1e2ad5"/>
        </g>
      </g>
      <g id="Group_1099659" data-name="Group 1099659" transform="translate(4.77 5.723)">
        <g id="Group_1099652" data-name="Group 1099652" transform="translate(0 0)" clip-path="url(#clip-path-2)">
          <path id="Path_873521-2" data-name="Path 873521" d="M88.539,68.922A19.674,19.674,0,0,1,68.923,88.539H19.616A19.674,19.674,0,0,1,0,68.922V19.616A19.674,19.674,0,0,1,19.616,0H68.923A19.674,19.674,0,0,1,88.539,19.616Z" fill="#f3f9ff"/>
        </g>
      </g>
    </g>
    <g id="Group_1100725" data-name="Group 1100725" transform="translate(632.343 5767.234)">
      <rect id="Rectangle_401104" data-name="Rectangle 401104" width="75" height="75" transform="translate(-0.421 0.497)" fill="none"/>
      <g id="Group_1119028" data-name="Group 1119028" transform="translate(0.597 6.829)">
        <g id="Group_1119027" data-name="Group 1119027" clip-path="url(#clip-path-3)">
          <g id="Group_1119026" data-name="Group 1119026">
            <g id="Group_1119025" data-name="Group 1119025" clip-path="url(#clip-path-3)">
              <path id="Path_921974" data-name="Path 921974" d="M371.906,288.211c7.039-2.411,13.471-2.3,19.374,0,5.908-2.3,12.34-2.411,19.379,0v30.22a36.386,36.386,0,0,0-19.379,0,36.369,36.369,0,0,0-19.374,0Z" transform="translate(-347.403 -267.573)" fill="#5d5d5d" fill-rule="evenodd"/>
              <path id="Path_921975" data-name="Path 921975" d="M338.672,259.939a32.4,32.4,0,0,1,21.005.064v29.823a43.2,43.2,0,0,0-21.005-.059Z" transform="translate(-316.359 -241.212)" fill="#a6a9ab" fill-rule="evenodd"/>
              <path id="Path_921976" data-name="Path 921976" d="M355.107,240.741c7.23-2.376,13.834-2.268,19.9,0v29.828a38.856,38.856,0,0,0-19.9,0Z" transform="translate(-331.711 -223.253)" fill="#e6e7e9" fill-rule="evenodd"/>
              <path id="Path_921977" data-name="Path 921977" d="M695.527,259.939a32.4,32.4,0,0,0-21.005.064v29.823a43.2,43.2,0,0,1,21.005-.059Z" transform="translate(-630.082 -241.212)" fill="#a1a1a1" fill-rule="evenodd"/>
              <path id="Path_921978" data-name="Path 921978" d="M694.791,240.741c-7.225-2.376-13.829-2.268-19.893,0v29.828a38.836,38.836,0,0,1,19.893,0Z" transform="translate(-630.433 -223.253)" fill="#e6e7e9" fill-rule="evenodd"/>
              <path id="Path_921979" data-name="Path 921979" d="M10.287,595.84A10.287,10.287,0,1,0,0,585.553,10.3,10.3,0,0,0,10.287,595.84" transform="translate(0 -537.365)" fill="#e5e6e7" fill-rule="evenodd"/>
              <g id="Group_1119021" data-name="Group 1119021" transform="translate(5.31 44.495)" opacity="0.1">
                <g id="Group_1119020" data-name="Group 1119020">
                  <g id="Group_1119019" data-name="Group 1119019" clip-path="url(#clip-path-5)">
                    <path id="Path_921980" data-name="Path 921980" d="M95.178,675.344a10.3,10.3,0,0,1-9.606,13.98,9.849,9.849,0,0,1-1.48-.108l-3.5-4.634,9.851-9.057Z" transform="translate(-80.595 -675.344)" fill-rule="evenodd"/>
                  </g>
                </g>
              </g>
              <path id="Path_921981" data-name="Path 921981" d="M46.771,619.257a7.455,7.455,0,0,1,8.823,1.019l2.351-1.357a1.9,1.9,0,0,1,1.9,3.282l-2.229,1.288a7.454,7.454,0,1,1-10.841-4.233" transform="translate(-40.207 -577.526)" fill="#fefefe" fill-rule="evenodd"/>
              <path id="Path_921982" data-name="Path 921982" d="M70.989,652.2a6.01,6.01,0,1,0-6.006-6.011,6.021,6.021,0,0,0,6.006,6.011" transform="translate(-60.702 -597.999)" fill="#f6ae5c" fill-rule="evenodd"/>
              <path id="Path_921983" data-name="Path 921983" d="M82.518,652.584a5.19,5.19,0,0,1,4.762,3.121,5.193,5.193,0,0,0-8.622,5.545,5.193,5.193,0,0,1,3.86-8.666" transform="translate(-72.231 -609.589)" fill="#ba885a" fill-rule="evenodd"/>
              <path id="Path_921984" data-name="Path 921984" d="M196.818,99.7a.7.7,0,1,1-1.4,0V83.235a.322.322,0,0,1,0-.069,2.59,2.59,0,0,0-.666-2.023,3.025,3.025,0,0,0-2.2-.539c-.01,0-.02.005-.034.005h-5.874a5.854,5.854,0,0,1-3.566-.578,2.911,2.911,0,0,1-1.352-2.577V77.41a3,3,0,0,0-.534-2.072,2.7,2.7,0,0,0-2.244-.627H167.931a.535.535,0,0,1-.083,0c-1.528-.059-2.3.181-2.66.578a2.4,2.4,0,0,0-.343,1.636c0,.118,0,1.715,0,3.258l0,.147a2.833,2.833,0,0,1,0,.294,2.944,2.944,0,0,1-1.043,2.268,4.281,4.281,0,0,1-2.611.9c-.172,0-.353.01-.544,0H150.173a.474.474,0,0,1-.083,0c-.137,0-.264,0-.392,0h-.005a2.581,2.581,0,0,0-1.724.632,2.123,2.123,0,0,0-.6,1.47c0,.1,0,.2,0,.3v9.3a2.054,2.054,0,0,0,.373,1.425,1.586,1.586,0,0,0,1.274.372h.019v0h6.319a.7.7,0,1,1,0,1.406h-6.319a2.866,2.866,0,0,1-2.332-.828,3.372,3.372,0,0,1-.735-2.39V86.233c0-.133,0-.265,0-.4A3.476,3.476,0,0,1,147,83.416a3.931,3.931,0,0,1,2.616-1.019l.019,0c.162-.005.333-.005.51,0h10.527c.157,0,.308,0,.465-.005a2.953,2.953,0,0,0,1.774-.568,1.61,1.61,0,0,0,.549-1.234c0-.054,0-.123,0-.191v-.215c-.005-1.529-.005-3.111-.01-3.233a3.522,3.522,0,0,1,.7-2.6c.627-.7,1.739-1.122,3.762-1.039h11.012a3.973,3.973,0,0,1,3.316,1.092,4.248,4.248,0,0,1,.887,3.023,1.607,1.607,0,0,0,.7,1.415,4.56,4.56,0,0,0,2.724.368c.029,0,.054-.005.078-.005h5.9v.005a4.25,4.25,0,0,1,3.169.891,3.884,3.884,0,0,1,1.132,3.082V99.7Z" transform="translate(-136.354 -68.471)" fill="#f6ae5c"/>
              <path id="Path_921985" data-name="Path 921985" d="M281.963,416.864l-1.91,1.1-1.906,1.1V414.66l1.906,1.1Z" transform="translate(-259.821 -387.341)" fill="#f6ae5c" fill-rule="evenodd"/>
              <path id="Path_921986" data-name="Path 921986" d="M893.184,583.459l1.078-1.866a1.083,1.083,0,0,1,1.469-.392l9.234,5.335a1.079,1.079,0,0,1,.4,1.47l-1.078,1.861a1.079,1.079,0,0,1-1.469.4l-9.234-5.335a1.079,1.079,0,0,1-.4-1.47" transform="translate(-834.204 -542.776)" fill="#050c68" fill-rule="evenodd"/>
              <path id="Path_921987" data-name="Path 921987" d="M911.9,588.838l.441-.769a.445.445,0,0,1,.6-.162l9.3,5.379a.625.625,0,0,1,.23.852l-.568.99-9.851-5.687a.445.445,0,0,1-.157-.6" transform="translate(-851.767 -549.12)" fill="#145c71" fill-rule="evenodd"/>
              <path id="Path_921988" data-name="Path 921988" d="M684.181,426.35a8.414,8.414,0,1,1,3.081,11.5,8.421,8.421,0,0,1-3.081-11.5" transform="translate(-638.05 -394.333)" fill="#050c68" fill-rule="evenodd"/>
              <path id="Path_921989" data-name="Path 921989" d="M704.805,446.437a7.044,7.044,0,1,1,2.577,9.626,7.041,7.041,0,0,1-2.577-9.626" transform="translate(-657.485 -413.733)" fill="#d0d2d4" fill-rule="evenodd"/>
              <path id="Path_921990" data-name="Path 921990" d="M133.28,26.242h0l3.507,9.822-7.4,2.641-3.507-9.822Z" transform="translate(-117.585 -24.513)" fill="#e6e6e6" fill-rule="evenodd"/>
              <path id="Path_921991" data-name="Path 921991" d="M160.822,94.777l5.771-2.062.1.289-5.771,2.062Z" transform="translate(-150.227 -86.606)" fill="#ccc" fill-rule="evenodd"/>
              <path id="Path_921992" data-name="Path 921992" d="M168.029,115.076l5.771-2.062.108.289-5.776,2.062Z" transform="translate(-156.959 -105.568)" fill="#ccc" fill-rule="evenodd"/>
              <path id="Path_921993" data-name="Path 921993" d="M175.322,135.375l5.771-2.062.1.289-5.77,2.062Z" transform="translate(-163.771 -124.529)" fill="#ccc" fill-rule="evenodd"/>
              <path id="Path_921994" data-name="Path 921994" d="M182.535,155.67l5.77-2.057.1.289-5.771,2.058Z" transform="translate(-170.509 -143.492)" fill="#ccc" fill-rule="evenodd"/>
              <path id="Path_921995" data-name="Path 921995" d="M153.609,74.549l5.771-2.057.1.284-5.771,2.062Z" transform="translate(-143.489 -67.716)" fill="#ccc" fill-rule="evenodd"/>
              <rect id="Rectangle_408916" data-name="Rectangle 408916" width="6.126" height="0.307" transform="translate(9.64 5.496) rotate(-19.625)" fill="#ccc"/>
              <path id="Path_921996" data-name="Path 921996" d="M242.384,40.162h0l-1.6,11.982-9.028-1.2,1.6-11.982Z" transform="translate(-216.485 -36.39)" fill="#e6e6e6" fill-rule="evenodd"/>
              <path id="Path_921997" data-name="Path 921997" d="M260.725,116.881l7.039.945-.044.353-7.044-.945Z" transform="translate(-243.501 -109.18)" fill="#ccc" fill-rule="evenodd"/>
              <path id="Path_921998" data-name="Path 921998" d="M257.448,141.641l7.044.941-.049.353-7.039-.941Z" transform="translate(-240.445 -132.309)" fill="#ccc" fill-rule="evenodd"/>
              <path id="Path_921999" data-name="Path 921999" d="M254.108,166.4l7.04.94-.044.353-7.044-.941Z" transform="translate(-237.32 -155.435)" fill="#ccc" fill-rule="evenodd"/>
              <path id="Path_922000" data-name="Path 922000" d="M250.835,191.158l7.044.941-.049.353-7.039-.941Z" transform="translate(-234.268 -178.564)" fill="#ccc" fill-rule="evenodd"/>
              <path id="Path_922001" data-name="Path 922001" d="M264.064,92.193l7.044.941-.049.353-7.04-.941Z" transform="translate(-246.625 -86.119)" fill="#ccc" fill-rule="evenodd"/>
              <path id="Path_922002" data-name="Path 922002" d="M267.344,67.433l7.039.941-.044.353-7.044-.941Z" transform="translate(-249.685 -62.991)" fill="#ccc" fill-rule="evenodd"/>
              <path id="Path_922003" data-name="Path 922003" d="M240.2,199.273l10.253-2.557a.174.174,0,0,0,.127-.211l-.26-1.038a.175.175,0,0,0-.211-.127L239.856,197.9a.178.178,0,0,0-.127.211l.26,1.039a.173.173,0,0,0,.211.127" transform="translate(-223.93 -182.466)" fill="#050c68" fill-rule="evenodd"/>
              <path id="Path_922004" data-name="Path 922004" d="M204.171,238.15l-1.9.328-.632.8,2.645-.661Z" transform="translate(-188.358 -222.46)" fill="gray" fill-rule="evenodd"/>
              <path id="Path_922005" data-name="Path 922005" d="M204.405,245.755l-1.832.6-.931-.411,2.645-.661Z" transform="translate(-188.357 -229.124)" fill="#b3b3b3" fill-rule="evenodd"/>
              <path id="Path_922006" data-name="Path 922006" d="M401.517,196.328h0a.245.245,0,0,1,.3.181l.137.539a.248.248,0,1,1-.48.123l-.138-.543a.251.251,0,0,1,.181-.3" transform="translate(-374.888 -183.386)" fill="#104b5c" fill-rule="evenodd"/>
              <path id="Path_922007" data-name="Path 922007" d="M367.843,206.92l-2.7.676.04.166,2.709-.671Z" transform="translate(-341.082 -193.287)" fill="#104b5c" fill-rule="evenodd"/>
              <path id="Path_922008" data-name="Path 922008" d="M340.088,208.975l.2-.049.274,1.112-.2.054Z" transform="translate(-317.682 -195.161)" fill="#e6e6e6" fill-rule="evenodd"/>
              <path id="Path_922009" data-name="Path 922009" d="M263.356,228.16l.186-.049.289,1.176-.181.044Z" transform="translate(-246.005 -213.083)" fill="#e6e6e6" fill-rule="evenodd"/>
              <path id="Path_922010" data-name="Path 922010" d="M649.339,10a5,5,0,1,0-5-5,5.013,5.013,0,0,0,5,5" transform="translate(-601.886)" fill="#afbefc" fill-rule="evenodd"/>
              <path id="Path_922011" data-name="Path 922011" d="M592.978,125.576a2.6,2.6,0,1,1,0,3.679,2.605,2.605,0,0,1,0-3.679" transform="translate(-553.197 -116.592)" fill="#afbefc" fill-rule="evenodd"/>
              <path id="Path_922012" data-name="Path 922012" d="M787.693,115.138a1.656,1.656,0,1,1-2.165-.892,1.654,1.654,0,0,1,2.165.892" transform="translate(-732.823 -106.6)" fill="#afbefc" fill-rule="evenodd"/>
              <g id="Group_1119024" data-name="Group 1119024" transform="translate(39.02 0.583)" opacity="0.1">
                <g id="Group_1119023" data-name="Group 1119023">
                  <g id="Group_1119022" data-name="Group 1119022" clip-path="url(#clip-path-6)">
                    <path id="Path_922013" data-name="Path 922013" d="M647,17.685a5,5,0,1,1,2.66-4.419A5,5,0,0,1,647,17.685" transform="translate(-640.906 -8.848)" fill-rule="evenodd"/>
                    <path id="Path_922014" data-name="Path 922014" d="M595.613,154.332a2.6,2.6,0,0,1-3.248-3.248,2.6,2.6,0,0,1,3.248,3.248" transform="translate(-592.251 -141.605)" fill-rule="evenodd"/>
                    <path id="Path_922015" data-name="Path 922015" d="M784.639,115.617a1.654,1.654,0,0,1,2.7-1.126,1.655,1.655,0,0,1-2.7,1.126" transform="translate(-771.964 -107.177)" fill-rule="evenodd"/>
                  </g>
                </g>
              </g>
              <path id="Path_922016" data-name="Path 922016" d="M454.529,767.91l8.759,2.17-2.175,8.759-8.759-2.175Zm1.063.793a.636.636,0,1,1-.769.465.636.636,0,0,1,.769-.465" transform="translate(-422.551 -717.317)" fill="#feca7e" fill-rule="evenodd"/>
              <path id="Path_922017" data-name="Path 922017" d="M474,770.918l8.759,2.175.749-3.013-8.759-2.17Zm1.812-2.214a.636.636,0,1,1-.769.465.636.636,0,0,1,.769-.465" transform="translate(-442.767 -717.317)" fill="#ffe5af" fill-rule="evenodd"/>
              <rect id="Rectangle_408918" data-name="Rectangle 408918" width="0.368" height="3.471" transform="matrix(0.24, -0.971, 0.971, 0.24, 35.006, 56.275)" fill="#3f3f41"/>
              <rect id="Rectangle_408919" data-name="Rectangle 408919" width="0.368" height="5.158" transform="translate(32.179 56.511) rotate(-76.092)" fill="#3f3f41"/>
              <rect id="Rectangle_408920" data-name="Rectangle 408920" width="0.368" height="3.972" transform="translate(33.443 57.76) rotate(-76.089)" fill="#3f3f41"/>
              <path id="Path_922018" data-name="Path 922018" d="M627.607,792.74l2.067,1.014,2.062,1.009.166-.456.167-.451-2.234-.558Z" transform="translate(-586.258 -740.511)" fill="#ccc" fill-rule="evenodd"/>
              <path id="Path_922019" data-name="Path 922019" d="M697.56,802.486l-.015.039-.5,1.367-.014.044-3.924-.872.377-1.034.137-.372.377-1.033Z" transform="translate(-647.442 -747.876)" fill="#afbefc" fill-rule="evenodd"/>
              <path id="Path_922020" data-name="Path 922020" d="M750.368,823.5l-.622,1.7a.294.294,0,0,1-.372.172l-.382-.142a.281.281,0,0,1-.171-.367l.617-1.7a.3.3,0,0,1,.372-.176l.382.142a.291.291,0,0,1,.176.372" transform="translate(-699.466 -768.749)" fill="#7f8fcf" fill-rule="evenodd"/>
              <path id="Path_922021" data-name="Path 922021" d="M681.584,790.132a2.135,2.135,0,0,0,1.465-4.007Z" transform="translate(-636.678 -734.332)" fill="#7f8fcf" fill-rule="evenodd"/>
              <path id="Path_922022" data-name="Path 922022" d="M687.171,792.6l-1.1,3.013a.187.187,0,0,1-.24.112.183.183,0,0,1-.112-.24l1.1-3.013a.19.19,0,0,1,.358.128" transform="translate(-640.526 -740.149)" fill="#01b9ad" fill-rule="evenodd"/>
              <path id="Path_922023" data-name="Path 922023" d="M645.973,893.283l2.273-.362,2.273-.357-.127-.465-.123-.466-2.15.823Z" transform="translate(-603.413 -832.888)" fill="#ccc" fill-rule="evenodd"/>
              <path id="Path_922024" data-name="Path 922024" d="M719.179,869.771l.009.044.378,1.406.009.039-3.713,1.543-.284-1.063-.1-.382-.284-1.063Z" transform="translate(-668.072 -812.467)" fill="#afbefc" fill-rule="evenodd"/>
              <path id="Path_922025" data-name="Path 922025" d="M772.974,861.672l.471,1.754a.292.292,0,0,1-.206.353l-.392.108a.293.293,0,0,1-.357-.206l-.471-1.754a.292.292,0,0,1,.206-.353l.392-.108a.3.3,0,0,1,.357.206" transform="translate(-721.147 -804.701)" fill="#7f8fcf" fill-rule="evenodd"/>
              <path id="Path_922026" data-name="Path 922026" d="M705.662,870.843a2.134,2.134,0,0,0-1.1-4.12Z" transform="translate(-658.141 -809.571)" fill="#7f8fcf" fill-rule="evenodd"/>
              <path id="Path_922027" data-name="Path 922027" d="M708.464,871.319l.833,3.1a.19.19,0,0,1-.367.1l-.828-3.1a.192.192,0,0,1,.132-.235.188.188,0,0,1,.23.137" transform="translate(-661.442 -813.779)" fill="#01b9ad" fill-rule="evenodd"/>
              <path id="Path_922028" data-name="Path 922028" d="M887.741,840.988l-2.273-.328-2.278-.328-.019.485-.015.485,2.292-.157Z" transform="translate(-824.97 -784.967)" fill="#ccc" fill-rule="evenodd"/>
              <path id="Path_922029" data-name="Path 922029" d="M814.973,829.608l.005-.044.054-1.455v-.044l4-.377-.039,1.1-.015.4-.039,1.1Z" transform="translate(-761.279 -773.156)" fill="#afbefc" fill-rule="evenodd"/>
              <path id="Path_922030" data-name="Path 922030" d="M803.074,828.809l.069-1.813a.286.286,0,0,1,.3-.279l.407.015a.289.289,0,0,1,.279.3l-.069,1.813a.29.29,0,0,1-.3.279l-.407-.015a.29.29,0,0,1-.279-.3" transform="translate(-750.164 -772.249)" fill="#7f8fcf" fill-rule="evenodd"/>
              <path id="Path_922031" data-name="Path 922031" d="M854.56,815.344a2.134,2.134,0,0,0-.162,4.262Z" transform="translate(-796.266 -761.626)" fill="#7f8fcf" fill-rule="evenodd"/>
              <path id="Path_922032" data-name="Path 922032" d="M875.272,823.707l.122-3.2a.185.185,0,0,1,.2-.181.194.194,0,0,1,.181.2l-.122,3.2a.191.191,0,0,1-.2.181.184.184,0,0,1-.181-.2" transform="translate(-817.605 -766.275)" fill="#01b9ad" fill-rule="evenodd"/>
            </g>
          </g>
        </g>
      </g>
    </g>
  </g>
</svg>
