<svg xmlns="http://www.w3.org/2000/svg" xmlns:xlink="http://www.w3.org/1999/xlink" width="99" height="99" viewBox="0 0 99 99">
  <defs>
    <clipPath id="clip-path">
      <rect id="Rectangle_401223" data-name="Rectangle 401223" width="99" height="99" transform="translate(0)" fill="#1e2ad5"/>
    </clipPath>
    <clipPath id="clip-path-2">
      <rect id="Rectangle_401223-2" data-name="Rectangle 401223" width="88.539" height="88.539" fill="#f3f9ff"/>
    </clipPath>
    <clipPath id="clip-path-3">
      <rect id="Rectangle_408914" data-name="Rectangle 408914" width="63.8" height="69.272" fill="none"/>
    </clipPath>
  </defs>
  <g id="Group_1118630" data-name="Group 1118630" transform="translate(-619.921 -5755.871)">
    <g id="Group_1100724" data-name="Group 1100724" transform="translate(619.921 5755.871)">
      <g id="Group_1099654" data-name="Group 1099654" transform="translate(0 0)">
        <g id="Group_1099652" data-name="Group 1099652" clip-path="url(#clip-path)">
          <path id="Path_873521" data-name="Path 873521" d="M99,77.066A22,22,0,0,1,77.066,99H21.934A22,22,0,0,1,0,77.066V21.933A22,22,0,0,1,21.934,0H77.066A22,22,0,0,1,99,21.934Z" transform="translate(0)" fill="#1e2ad5"/>
        </g>
      </g>
      <g id="Group_1099659" data-name="Group 1099659" transform="translate(4.77 5.723)">
        <g id="Group_1099652-2" data-name="Group 1099652" transform="translate(0 0)" clip-path="url(#clip-path-2)">
          <path id="Path_873521-2" data-name="Path 873521" d="M88.539,68.922A19.674,19.674,0,0,1,68.923,88.539H19.616A19.674,19.674,0,0,1,0,68.922V19.616A19.674,19.674,0,0,1,19.616,0H68.923A19.674,19.674,0,0,1,88.539,19.616Z" fill="#f3f9ff"/>
        </g>
      </g>
    </g>
    <g id="Group_1100725" data-name="Group 1100725" transform="translate(632.343 5767.234)">
      <rect id="Rectangle_401104" data-name="Rectangle 401104" width="75" height="75" transform="translate(-0.421 0.496)" fill="none"/>
      <g id="Group_1119018" data-name="Group 1119018" transform="translate(6.089 3.095)">
        <g id="Group_1119017" data-name="Group 1119017" clip-path="url(#clip-path-3)">
          <path id="Path_921951" data-name="Path 921951" d="M25.677,450.53q-.149-1.521-.221-3.075H83.483v3.075Z" transform="translate(-23.589 -414.642)" fill="#050c68" fill-rule="evenodd"/>
          <path id="Path_921952" data-name="Path 921952" d="M795.8,273.876V286.2a1.809,1.809,0,0,1-3.617,0V273.876a1.809,1.809,0,0,1,3.617,0" transform="translate(-734.094 -252.118)" fill="#050c68" fill-rule="evenodd"/>
          <path id="Path_921953" data-name="Path 921953" d="M3.617,449.872v12.319a1.809,1.809,0,0,1-3.617,0V449.872a1.809,1.809,0,1,1,3.617,0" transform="translate(0 -415.203)" fill="#050c68" fill-rule="evenodd"/>
          <path id="Path_921954" data-name="Path 921954" d="M83.976,160.766a27.5,27.5,0,1,1-38.624-38.624l1.263,1.257c-.57.449-1.13.92-1.673,1.418L81.3,161.17c.5-.537.97-1.1,1.413-1.667Zm-4.137,1.872L43.48,126.279a25.73,25.73,0,0,0,36.359,36.359" transform="translate(-32.341 -113.185)" fill="#634419" fill-rule="evenodd"/>
          <path id="Path_921955" data-name="Path 921955" d="M248.388,782.676h4.42v3.816h5.584a1.29,1.29,0,0,1,1.285,1.285v.515a1.285,1.285,0,0,1-1.285,1.279h3.522a1.288,1.288,0,0,1,1.279,1.285v.515a1.283,1.283,0,0,1-1.279,1.279H239.281A1.284,1.284,0,0,1,238,791.372v-.515a1.288,1.288,0,0,1,1.279-1.285H242.8a1.285,1.285,0,0,1-1.285-1.279v-.515a1.29,1.29,0,0,1,1.285-1.285h5.584Z" transform="translate(-220.549 -725.28)" fill="#634419" fill-rule="evenodd"/>
          <path id="Path_921956" data-name="Path 921956" d="M109.349,139.852a23.774,23.774,0,1,0-23.774-23.774,23.819,23.819,0,0,0,23.774,23.774" transform="translate(-79.299 -85.536)" fill="#afbefc" fill-rule="evenodd"/>
          <path id="Path_921957" data-name="Path 921957" d="M412.316,145.472a23.852,23.852,0,0,1,3.628,3.806H405.332a1.493,1.493,0,0,1-1.052.437,1.44,1.44,0,0,1-.465-.077v.066a2.534,2.534,0,1,1-4.742-1.246h-1.246a1.811,1.811,0,0,1-1.241-3.13,2.061,2.061,0,0,1,3.578-.493h1.352a2.057,2.057,0,0,1,3.711,0h1.457a1.809,1.809,0,0,1,1.374.637Z" transform="translate(-366.974 -133.131)" fill="#fff" fill-rule="evenodd"/>
          <path id="Path_921958" data-name="Path 921958" d="M109.294,227.422h2.647a1.324,1.324,0,1,1,0,2.647h-2.647a1.324,1.324,0,1,1,0-2.647m23.5-12.995a23.665,23.665,0,0,1-2.055,6.181H111.82a3.091,3.091,0,1,1,0-6.181Zm-1.872-14.5a23.668,23.668,0,0,1,2.271,10.153c0,.388-.011.77-.028,1.152a5.829,5.829,0,0,1-2.176.421H115.1a5.863,5.863,0,1,1,0-11.726ZM87.232,218.62a23.654,23.654,0,0,1-1.579-8.215H93.33a1.7,1.7,0,0,1,1.551,2.4h4.376a2.908,2.908,0,0,1,0,5.816Zm1.689-20.589a24.2,24.2,0,0,1,3.224-4.287h9.139a2.144,2.144,0,0,1,0,4.287Zm3.108,28.255a23.933,23.933,0,0,1-3.6-5.046h7.688a2.523,2.523,0,0,1,0,5.046Z" transform="translate(-79.372 -179.536)" fill="#685700" fill-rule="evenodd"/>
          <path id="Path_921959" data-name="Path 921959" d="M360.008,330.368a3.245,3.245,0,0,0,3.03-2.088,2.853,2.853,0,0,0-1.955-4.93h-1.966a3.952,3.952,0,0,0,.52-1.967,3.994,3.994,0,0,0-7.987,0v.106a2.3,2.3,0,0,0-.731-.117,2.344,2.344,0,0,0-2.315,1.978H347.13a2.853,2.853,0,1,0,0,5.705h2.3a3.241,3.241,0,0,0,5.849,0H357.4a3.224,3.224,0,0,0,2.6,1.313" transform="translate(-319.03 -294.115)" fill="#fff" fill-rule="evenodd"/>
          <path id="Path_921960" data-name="Path 921960" d="M115.382,416.222a.91.91,0,0,0,.853-.593.8.8,0,0,0-.548-1.385h-.554a1.123,1.123,0,1,0-2.1-.554v.028a.674.674,0,0,0-.205-.033.662.662,0,0,0-.653.559h-.415a.8.8,0,0,0,0,1.607h.648a.91.91,0,0,0,1.645,0h.6a.918.918,0,0,0,.731.371" transform="translate(-102.819 -382.311)" fill="#fff" fill-rule="evenodd"/>
          <path id="Path_921961" data-name="Path 921961" d="M121.689,224.773a2.861,2.861,0,0,1,1.2.266,2.76,2.76,0,0,1,1.041-.261,2.1,2.1,0,0,1-.094-.62,2.482,2.482,0,0,1,4.94,0,2.052,2.052,0,0,1-.415,1.241,1.72,1.72,0,0,1,1.363,1.568,1.466,1.466,0,0,1-.294.864c1.108.211,1.822.543,1.822.914,0,.643-2.138,1.163-4.78,1.163a16.461,16.461,0,0,1-2.908-.238,2.805,2.805,0,1,1-1.872-4.9" transform="translate(-110.168 -205.647)" fill="#fff" fill-rule="evenodd"/>
          <path id="Path_921962" data-name="Path 921962" d="M259.621,577.6a1.578,1.578,0,0,1,.665.144,1.521,1.521,0,0,1,.582-.144,1.051,1.051,0,0,1-.055-.349,1.387,1.387,0,0,1,2.759,0,1.156,1.156,0,0,1-.233.692,1.051,1.051,0,0,1,.687.554h2.033a.85.85,0,0,1,0,1.7h-1.629a7.408,7.408,0,0,1-2.144.261,9.131,9.131,0,0,1-1.623-.133,1.55,1.55,0,0,1-1.041.4,1.568,1.568,0,0,1-1.174-.526h-2.3a.85.85,0,0,1,0-1.7H258.2a1.563,1.563,0,0,1,1.418-.9" transform="translate(-236.579 -533.774)" fill="#fff" fill-rule="evenodd"/>
          <rect id="Rectangle_408903" data-name="Rectangle 408903" width="33.572" height="3.285" transform="translate(1.551 45.509)" fill="#050c68"/>
          <path id="Path_921963" data-name="Path 921963" d="M449.794,571.2l-4.115-2.842-4.116-2.842v11.361l4.116-2.842Z" transform="translate(-409.181 -524.044)" fill="#050c68" fill-rule="evenodd"/>
          <path id="Path_921964" data-name="Path 921964" d="M103.4,272.07h51.242v3.074H102.123a23.4,23.4,0,0,1,1.274-3.074" transform="translate(-94.634 -252.118)" fill="#050c68" fill-rule="evenodd"/>
          <rect id="Rectangle_408904" data-name="Rectangle 408904" width="2.393" height="13.072" transform="translate(58.265 54.416)" fill="#050c68"/>
          <rect id="Rectangle_408905" data-name="Rectangle 408905" width="8.726" height="2.104" transform="matrix(0.5, -0.866, 0.866, 0.5, 36.902, 66.436)" fill="#f6ae5c"/>
          <rect id="Rectangle_408906" data-name="Rectangle 408906" width="6.835" height="16.035" transform="translate(48.196 51.453)" fill="#afbefc"/>
          <rect id="Rectangle_408907" data-name="Rectangle 408907" width="6.835" height="3.783" transform="translate(48.196 57.579)" fill="#fffceb"/>
          <rect id="Rectangle_408908" data-name="Rectangle 408908" width="6.835" height="1.18" transform="translate(48.196 55.219)" fill="#fffceb"/>
          <rect id="Rectangle_408909" data-name="Rectangle 408909" width="6.835" height="1.18" transform="translate(48.196 62.73)" fill="#fffceb"/>
          <rect id="Rectangle_408910" data-name="Rectangle 408910" width="5.035" height="14.64" transform="translate(43.16 52.848)" fill="#050c68"/>
          <rect id="Rectangle_408911" data-name="Rectangle 408911" width="2.221" height="10.868" transform="translate(44.567 54.732)" fill="#f6ae5c"/>
          <rect id="Rectangle_408912" data-name="Rectangle 408912" width="3.14" height="14.141" transform="translate(55.03 53.346)" fill="#050c68"/>
          <rect id="Rectangle_408913" data-name="Rectangle 408913" width="3.14" height="9.837" transform="translate(55.03 55.496)" fill="#659690"/>
          <path id="Path_921965" data-name="Path 921965" d="M1.358,917.728H61.329a.832.832,0,0,1,.831.825v.321a.832.832,0,0,1-.831.826H1.358a.832.832,0,0,1-.831-.826v-.321a.832.832,0,0,1,.831-.825" transform="translate(-0.488 -850.428)" fill="#1b7d9a" fill-rule="evenodd"/>
          <path id="Path_921966" data-name="Path 921966" d="M538.1,0l11.045,2.487,11.039,2.482L554.6,10.723l-5.584,5.756-5.456-8.237Z" transform="translate(-498.639 0)" fill="#d9e6ff" fill-rule="evenodd"/>
          <path id="Path_921967" data-name="Path 921967" d="M538.1,0l8.757,4.841,8.763,4.836-.454,3.207-1.579-1.113-7.744-5.882Z" transform="translate(-498.639 0)" fill="#afbefc" fill-rule="evenodd"/>
          <path id="Path_921968" data-name="Path 921968" d="M732.856,227.888a.48.48,0,0,1-.67-.077.475.475,0,0,1,.077-.67l.005-.006.144-.116.138-.11.144-.117.139-.116.138-.116.011-.011a.478.478,0,1,1,.621.726l-.017.017-.144.117-.144.122-.144.116-.144.122-.15.116Zm2.864-2.62a.478.478,0,1,1-.7-.653l.028-.028.122-.128.122-.133.122-.133.117-.133.117-.133h.005a.475.475,0,0,1,.72.621l-.005.011-.122.138-.127.139-.122.133-.127.138-.122.133Zm2.437-3.019a.478.478,0,0,1-.665.122.472.472,0,0,1-.122-.659l.011-.022.1-.144.094-.144.1-.149.095-.149.094-.15.017-.022a.475.475,0,1,1,.809.5l-.017.028-.1.16-.1.15-.1.155-.1.155-.105.15Zm1.922-3.384a.476.476,0,1,1-.864-.4l.072-.16.072-.167.072-.16.072-.166.066-.166.017-.033a.476.476,0,0,1,.88.36l-.016.039-.073.172-.072.172-.072.171-.078.171Zm1.335-3.65a.475.475,0,0,1-.587.332.467.467,0,0,1-.332-.581l.012-.039.044-.178.044-.171.044-.178.044-.171.039-.172a.475.475,0,0,1,.925.216l-.039.177-.044.177-.044.183-.05.183-.044.183Zm.709-3.822a.479.479,0,0,1-.952-.094l.005-.056.017-.171.017-.178.011-.177.017-.177.011-.172a.474.474,0,1,1,.947.055l-.011.177-.012.189-.016.183-.011.182-.017.183Zm.066-3.889a.476.476,0,0,1-.443.5.47.47,0,0,1-.509-.443v-.028l-.011-.177-.017-.172-.011-.178-.017-.177-.017-.178-.006-.022a.473.473,0,0,1,.421-.521.468.468,0,0,1,.526.421l.006.028.017.183.017.183.016.182.011.183.017.183Zm-.548-3.844a.476.476,0,1,1-.931.2l-.006-.022-.039-.171-.039-.178-.044-.171-.039-.178-.044-.171-.006-.017a.476.476,0,0,1,.92-.243l.006.022.05.177.044.183.044.183.039.177.044.183Zm-1.1-3.717a.475.475,0,0,1-.277.614.484.484,0,0,1-.615-.277l-.028-.077-.066-.172-.067-.172-.066-.166-.067-.172-.05-.117a.483.483,0,0,1,.26-.626.475.475,0,0,1,.62.261l.05.122.072.177.072.177.067.172.066.177Zm-1.589-3.529a.476.476,0,0,1-.842.443l-.017-.033-.089-.166-.088-.161-.095-.166-.088-.166-.078-.127a.479.479,0,0,1,.831-.476l.077.138.094.166.094.171.088.172.094.172Zm-2.011-3.307a.476.476,0,1,1-.781.543l-.055-.078-.111-.16-.111-.155-.116-.16-.111-.155-.045-.055a.472.472,0,0,1,.106-.665.466.466,0,0,1,.664.1l.044.055.116.167.116.16.117.161.111.166Z" transform="translate(-678.396 -178.036)" fill="#fff"/>
          <path id="Path_921969" data-name="Path 921969" d="M53.974,837.207a5.533,5.533,0,0,1-.077.919,1.929,1.929,0,1,1-.958,2.338,5.648,5.648,0,0,1-10.264-3.257Zm.793,1.357a1.282,1.282,0,1,0,1.279,1.285,1.286,1.286,0,0,0-1.279-1.285" transform="translate(-39.546 -775.812)" fill="#634419" fill-rule="evenodd"/>
          <path id="Path_921970" data-name="Path 921970" d="M54.71,909.115h9.023a.332.332,0,0,1,.327.332v.327H54.383v-.327a.329.329,0,0,1,.327-.332" transform="translate(-50.395 -842.447)" fill="#634419" fill-rule="evenodd"/>
          <path id="Path_921971" data-name="Path 921971" d="M82.453,773.96h0a.431.431,0,0,0,.432-.426v-2.365a.429.429,0,0,0-.859,0v2.365a.43.43,0,0,0,.427.426" transform="translate(-76.011 -714.221)" fill="#634419" fill-rule="evenodd"/>
          <path id="Path_921972" data-name="Path 921972" d="M112.062,739.833h0a.431.431,0,0,0,.426-.427v-5.932a.427.427,0,1,0-.853,0v5.932a.431.431,0,0,0,.427.427" transform="translate(-103.448 -679.29)" fill="#634419" fill-rule="evenodd"/>
          <path id="Path_921973" data-name="Path 921973" d="M143.332,758.382h0a.433.433,0,0,0,.432-.432V754.4a.429.429,0,1,0-.859,0v3.545a.432.432,0,0,0,.427.432" transform="translate(-132.425 -698.682)" fill="#634419" fill-rule="evenodd"/>
        </g>
      </g>
    </g>
  </g>
</svg>
