<svg id="Group_1118654" data-name="Group 1118654" xmlns="http://www.w3.org/2000/svg" xmlns:xlink="http://www.w3.org/1999/xlink" width="121.646" height="125.361" viewBox="0 0 121.646 125.361">
  <defs>
    <clipPath id="clip-path">
      <rect id="Rectangle_408705" data-name="Rectangle 408705" width="121.646" height="125.362" fill="#afbefc"/>
    </clipPath>
    <clipPath id="clip-path-2">
      <rect id="Rectangle_408704" data-name="Rectangle 408704" width="121.646" height="125.362" fill="none"/>
    </clipPath>
    <clipPath id="clip-path-3">
      <rect id="Rectangle_408703" data-name="Rectangle 408703" width="32.915" height="36.116" fill="none"/>
    </clipPath>
  </defs>
  <g id="Group_1118653" data-name="Group 1118653" clip-path="url(#clip-path)">
    <g id="Group_1118652" data-name="Group 1118652">
      <g id="Group_1118651" data-name="Group 1118651" clip-path="url(#clip-path-2)">
        <path id="Path_920870" data-name="Path 920870" d="M3.639,125.362A3.638,3.638,0,0,1,0,121.723v-60.9a60.823,60.823,0,0,1,121.646,0v60.9a3.638,3.638,0,0,1-3.639,3.639Z" transform="translate(0 0)" fill="#fff"/>
        <path id="Path_920871" data-name="Path 920871" d="M120.39,124.171H6.021V63.27a57.185,57.185,0,0,1,114.369,0Z" transform="translate(-2.37 -2.395)" fill="#1e2ad5"/>
        <path id="Path_920872" data-name="Path 920872" d="M88,194.985a.178.178,0,0,1-.164-.11l-2.725-6.635a.178.178,0,1,1,.329-.135l2.725,6.635a.178.178,0,0,1-.1.232.175.175,0,0,1-.067.013" transform="translate(-33.491 -73.99)" fill="#fce8db"/>
        <path id="Path_920873" data-name="Path 920873" d="M90.767,193.848a.178.178,0,0,1-.164-.11L87.877,187.1a.178.178,0,0,1,.329-.135l2.725,6.635a.177.177,0,0,1-.1.232.165.165,0,0,1-.067.014" transform="translate(-34.581 -73.543)" fill="#fce8db"/>
        <path id="Path_920874" data-name="Path 920874" d="M93.538,192.71a.178.178,0,0,1-.164-.11l-2.725-6.635a.178.178,0,0,1,.329-.135l2.725,6.635a.178.178,0,0,1-.1.232.175.175,0,0,1-.067.013" transform="translate(-35.672 -73.095)" fill="#fce8db"/>
        <path id="Path_920875" data-name="Path 920875" d="M96.308,191.572a.178.178,0,0,1-.164-.11l-2.725-6.635a.178.178,0,0,1,.329-.135l2.725,6.635a.178.178,0,0,1-.1.232.175.175,0,0,1-.067.013" transform="translate(-36.762 -72.647)" fill="#fce8db"/>
        <path id="Path_920876" data-name="Path 920876" d="M99.078,190.435a.178.178,0,0,1-.164-.11l-2.725-6.635a.178.178,0,0,1,.329-.135l2.725,6.635a.177.177,0,0,1-.1.232.165.165,0,0,1-.067.014" transform="translate(-37.852 -72.199)" fill="#fce8db"/>
        <path id="Path_920877" data-name="Path 920877" d="M101.848,189.3a.178.178,0,0,1-.164-.11l-2.725-6.635a.178.178,0,0,1,.329-.135l2.725,6.635a.178.178,0,0,1-.1.232.175.175,0,0,1-.067.013" transform="translate(-38.942 -71.751)" fill="#fce8db"/>
        <path id="Path_920878" data-name="Path 920878" d="M104.618,188.159a.178.178,0,0,1-.164-.11l-2.725-6.635a.178.178,0,0,1,.329-.135l2.725,6.635a.178.178,0,0,1-.1.232.175.175,0,0,1-.067.013" transform="translate(-40.033 -71.303)" fill="#fce8db"/>
        <path id="Path_920879" data-name="Path 920879" d="M107.388,187.022a.178.178,0,0,1-.164-.11l-2.725-6.635a.178.178,0,0,1,.329-.135l2.725,6.635a.177.177,0,0,1-.1.232.165.165,0,0,1-.067.014" transform="translate(-41.123 -70.856)" fill="#fce8db"/>
        <path id="Path_920880" data-name="Path 920880" d="M110.02,185.941a.178.178,0,0,1-.164-.11l-2.725-6.635a.178.178,0,0,1,.329-.135l2.725,6.635a.178.178,0,0,1-.1.232.175.175,0,0,1-.067.013" transform="translate(-42.159 -70.43)" fill="#fce8db"/>
        <path id="Path_920881" data-name="Path 920881" d="M112.79,184.8a.178.178,0,0,1-.164-.11l-2.725-6.635a.178.178,0,0,1,.329-.135l2.725,6.635a.178.178,0,0,1-.1.232.175.175,0,0,1-.067.013" transform="translate(-43.249 -69.983)" fill="#fce8db"/>
        <path id="Path_920882" data-name="Path 920882" d="M115.56,183.666a.178.178,0,0,1-.164-.11l-2.725-6.635a.178.178,0,0,1,.329-.135l2.725,6.635a.178.178,0,0,1-.1.232.175.175,0,0,1-.067.013" transform="translate(-44.339 -69.535)" fill="#fce8db"/>
        <path id="Path_920883" data-name="Path 920883" d="M118.33,182.528a.178.178,0,0,1-.164-.11l-2.725-6.635a.178.178,0,0,1,.329-.135l2.725,6.635a.178.178,0,0,1-.1.232.175.175,0,0,1-.067.013" transform="translate(-45.429 -69.087)" fill="#fce8db"/>
        <path id="Path_920884" data-name="Path 920884" d="M121.1,181.39a.178.178,0,0,1-.164-.11l-2.725-6.635a.178.178,0,0,1,.329-.135l2.725,6.635a.177.177,0,0,1-.1.232.165.165,0,0,1-.067.014" transform="translate(-46.52 -68.639)" fill="#fce8db"/>
        <path id="Path_920885" data-name="Path 920885" d="M123.87,180.253a.178.178,0,0,1-.164-.11l-2.725-6.635a.178.178,0,0,1,.329-.135l2.725,6.635a.177.177,0,0,1-.1.232.165.165,0,0,1-.067.014" transform="translate(-47.61 -68.192)" fill="#fce8db"/>
        <path id="Path_920886" data-name="Path 920886" d="M126.64,179.115a.178.178,0,0,1-.164-.11l-2.725-6.635a.178.178,0,0,1,.329-.135l2.725,6.635a.178.178,0,0,1-.1.232.175.175,0,0,1-.067.013" transform="translate(-48.7 -67.744)" fill="#fce8db"/>
        <path id="Path_920887" data-name="Path 920887" d="M129.41,177.977a.178.178,0,0,1-.164-.11l-2.725-6.635a.178.178,0,1,1,.329-.135l2.725,6.635a.177.177,0,0,1-.1.232.165.165,0,0,1-.067.014" transform="translate(-49.79 -67.296)" fill="#fce8db"/>
        <path id="Path_920888" data-name="Path 920888" d="M132.042,176.9a.178.178,0,0,1-.164-.11l-2.725-6.635a.178.178,0,0,1,.329-.135l2.725,6.635a.177.177,0,0,1-.1.232.165.165,0,0,1-.067.014" transform="translate(-50.826 -66.871)" fill="#fce8db"/>
        <path id="Path_920889" data-name="Path 920889" d="M134.812,175.759a.178.178,0,0,1-.164-.11l-2.725-6.635a.178.178,0,0,1,.329-.135l2.725,6.635a.177.177,0,0,1-.1.232.165.165,0,0,1-.067.014" transform="translate(-51.916 -66.423)" fill="#fce8db"/>
        <path id="Path_920890" data-name="Path 920890" d="M137.582,174.621a.178.178,0,0,1-.164-.11l-2.725-6.635a.178.178,0,0,1,.329-.135l2.725,6.635a.178.178,0,0,1-.1.232.175.175,0,0,1-.067.013" transform="translate(-53.007 -65.975)" fill="#fce8db"/>
        <path id="Path_920891" data-name="Path 920891" d="M140.352,173.484a.178.178,0,0,1-.164-.11l-2.725-6.635a.178.178,0,0,1,.329-.135l2.725,6.635a.178.178,0,0,1-.1.232.175.175,0,0,1-.067.013" transform="translate(-54.097 -65.528)" fill="#fce8db"/>
        <path id="Path_920892" data-name="Path 920892" d="M143.122,172.346a.178.178,0,0,1-.164-.11l-2.725-6.635a.178.178,0,0,1,.329-.135l2.725,6.635a.178.178,0,0,1-.1.232.175.175,0,0,1-.067.013" transform="translate(-55.187 -65.08)" fill="#fce8db"/>
        <path id="Path_920893" data-name="Path 920893" d="M145.892,171.208a.178.178,0,0,1-.164-.11L143,164.463a.178.178,0,1,1,.329-.135l2.725,6.635a.178.178,0,0,1-.1.232.175.175,0,0,1-.067.013" transform="translate(-56.277 -64.632)" fill="#fce8db"/>
        <path id="Path_920894" data-name="Path 920894" d="M148.662,170.07a.178.178,0,0,1-.164-.11l-2.725-6.635a.178.178,0,1,1,.329-.135l2.725,6.635a.178.178,0,0,1-.1.232.175.175,0,0,1-.067.013" transform="translate(-57.367 -64.184)" fill="#fce8db"/>
        <path id="Path_920895" data-name="Path 920895" d="M151.432,168.933a.178.178,0,0,1-.164-.11l-2.725-6.635a.178.178,0,0,1,.329-.135l2.725,6.635a.178.178,0,0,1-.1.232.175.175,0,0,1-.067.013" transform="translate(-58.458 -63.737)" fill="#fce8db"/>
        <path id="Path_920896" data-name="Path 920896" d="M154.064,167.852a.178.178,0,0,1-.164-.11l-2.725-6.635a.178.178,0,0,1,.329-.135l2.725,6.635a.177.177,0,0,1-.1.232.165.165,0,0,1-.067.014" transform="translate(-59.493 -63.311)" fill="#fce8db"/>
        <path id="Path_920897" data-name="Path 920897" d="M156.7,166.772a.178.178,0,0,1-.164-.11l-2.725-6.635a.178.178,0,0,1,.329-.135l2.725,6.635a.177.177,0,0,1-.1.232.165.165,0,0,1-.067.014" transform="translate(-60.529 -62.886)" fill="#fce8db"/>
        <path id="Path_920898" data-name="Path 920898" d="M159.327,165.691a.178.178,0,0,1-.164-.11l-2.725-6.635a.178.178,0,1,1,.329-.135l2.725,6.635a.178.178,0,0,1-.1.232.175.175,0,0,1-.067.013" transform="translate(-61.565 -62.46)" fill="#fce8db"/>
        <path id="Path_920899" data-name="Path 920899" d="M161.958,164.61a.178.178,0,0,1-.164-.11l-2.725-6.635a.178.178,0,0,1,.329-.135l2.725,6.635a.178.178,0,0,1-.1.232.175.175,0,0,1-.067.013" transform="translate(-62.6 -62.035)" fill="#fce8db"/>
        <path id="Path_920900" data-name="Path 920900" d="M76.428,28.831l31.457,76.6L56.368,126.586,21.185,40.916,64.418,23.161a8.205,8.205,0,0,1,3.407-.616,9.861,9.861,0,0,1,8.6,6.286" transform="translate(-8.338 -8.872)" fill="#fff"/>
        <path id="Path_920901" data-name="Path 920901" d="M60.049,137l-3.681,1.512L21.184,52.844Z" transform="translate(-8.337 -20.798)" fill="#f9a99e"/>
        <rect id="Rectangle_408701" data-name="Rectangle 408701" width="3.45" height="92.614" transform="translate(49.691 16.913) rotate(-22.328)" fill="#ffb929"/>
        <rect id="Rectangle_408702" data-name="Rectangle 408702" width="3.45" height="92.614" transform="translate(52.882 15.602) rotate(-22.328)" fill="#475ecf"/>
        <path id="Path_920902" data-name="Path 920902" d="M95.845,22.545l34.908,85-3.191,1.31L92.379,23.184l.059-.024a8.219,8.219,0,0,1,3.407-.615" transform="translate(-36.358 -8.872)" fill="#fb5226"/>
        <path id="Path_920903" data-name="Path 920903" d="M116.746,93.8C86.427,93.967,82.8,68.487,85.941,55c2.674-11.457,9.46-14.3,11.43-14.89.192-.061.338-.1.432-.119a.214.214,0,0,1,.053-.009c.042-.008.068-.015.068-.015,5.132-10.1,14.757-9.94,14.757-9.94,7.808-.441,11.956,2.518,13.9,4.64a.757.757,0,0,1,.092.1c.005.005.012.01.012.015a8.6,8.6,0,0,1,1.35,1.918l.29-.019c.158-.011.317-.016.475-.022,9.99-.345,15.037,8.922,17.038,16.974,2.052,8.256,1.229,39.995-29.09,40.163" transform="translate(-33.461 -11.802)" fill="#fce8db"/>
        <g id="Group_1118650" data-name="Group 1118650" transform="translate(63.754 18.185)" opacity="0.34">
          <g id="Group_1118649" data-name="Group 1118649">
            <g id="Group_1118648" data-name="Group 1118648" clip-path="url(#clip-path-3)">
              <path id="Path_920904" data-name="Path 920904" d="M137.988,44.785c.757,11.139-5.972,20.671-15.031,21.287s-17.011-7.918-17.768-19.057a24.272,24.272,0,0,1,.531-7.021l.12-.024c5.132-10.1,14.757-9.94,14.757-9.94,12-.678,15.352,6.679,15.352,6.679l.079-.005a24.13,24.13,0,0,1,1.96,8.082" transform="translate(-105.131 -29.987)" fill="#ffd878"/>
            </g>
          </g>
        </g>
        <path id="Path_920905" data-name="Path 920905" d="M139.48,64.345c-1.2,4.807-5.241,15.89-16.993,16.689-.275.018-.555.032-.841.036-6.019.16-11.066-2.461-15.008-7.794a25.565,25.565,0,0,1-4.754-12.368,26.148,26.148,0,0,1-.17-3.357,36.231,36.231,0,0,1,2.227-13.1l.485-.129c-.418.946-2.234,5.44-2.32,13.236a27.59,27.59,0,0,0,.166,3.3,25.212,25.212,0,0,0,4.689,12.182c3.855,5.221,8.792,7.786,14.68,7.636.275-.008.545-.021.814-.04,11.5-.782,15.457-11.663,16.636-16.394a25.135,25.135,0,0,0,.35-10.456c-.033-.178-.055-.331-.086-.482-.631-3.272-1.981-8.706-4.462-12.282.158-.01.317-.016.475-.022,2.289,3.4,3.626,8.319,4.374,12.224.032.157.058.314.085.472a25.656,25.656,0,0,1-.347,10.646" transform="translate(-40.031 -16.138)" fill="#37004d"/>
        <path id="Path_920906" data-name="Path 920906" d="M124.512,91.94c-19.064,2.526-21.808-16.618-22.2-22.791a25.325,25.325,0,0,0,4.722,12.275c3.008,4.07,7.739,7.9,14.844,7.715,10.874-.278,15.816-9.264,17.642-16.58a25.533,25.533,0,0,0,.349-10.541l.115-.018s6.888,26.977-15.477,29.94" transform="translate(-40.269 -24.402)" fill="#37004d"/>
        <path id="Path_920907" data-name="Path 920907" d="M55.432,141.833c-5.052,0-10.079-1.842-14.868-3.8-8.506-3.478-18.18-7.8-25.328-15.144a25.243,25.243,0,0,1-6.048-9.219,15.051,15.051,0,0,1,.247-11.135,23.763,23.763,0,0,1,5.106-6.529c.726-.733,1.477-1.49,2.161-2.257a58.027,58.027,0,0,0,5.819-8.333,76.606,76.606,0,0,1,4.51-6.782c4.7-6.083,10.822-9.262,16.373-8.507l-.246,1.8c-4.9-.666-10.39,2.255-14.688,7.816a75.349,75.349,0,0,0-4.4,6.623,59.367,59.367,0,0,1-6.01,8.591c-.716.8-1.483,1.577-2.227,2.326a22.118,22.118,0,0,0-4.746,6.011,13.22,13.22,0,0,0-.181,9.773,23.462,23.462,0,0,0,5.634,8.549c6.9,7.09,16.376,11.321,24.713,14.729,5.932,2.426,12.228,4.67,18.243,3.185,5.194-1.281,9.4-5.276,12.491-8.615a89.992,89.992,0,0,0,15.9-23.928l1.656.753a91.834,91.834,0,0,1-16.219,24.41c-3.26,3.525-7.729,7.749-13.39,9.146a18.725,18.725,0,0,1-4.5.532" transform="translate(-3.245 -27.558)" fill="#37004d"/>
        <path id="Path_920908" data-name="Path 920908" d="M139.6,130.514s3.4-4.376.958-6.179-4.912.9-4.912.9Z" transform="translate(-53.386 -48.691)" fill="#ffb929"/>
        <path id="Path_920909" data-name="Path 920909" d="M54.113,71.213S30.771,92.424,38.819,105.58s30.128,26.863,40.12,20.976c11.782-6.942,20.373-20.45,20.373-20.45Z" transform="translate(-14.614 -28.028)" fill="#37004d"/>
        <path id="Path_920910" data-name="Path 920910" d="M103.766,112.05c-1.2,2.039-3.343,4.913-3.657,5.347l-.006.011c-.066.087-.13.184-.2.271-.284.41-.571.811-.863,1.209-.163.227-.326.455-.494.68-.226.31-.452.621-.683.928a45.584,45.584,0,0,1-6.769,7.452A24.635,24.635,0,0,1,84.6,132.28c-.188.079-.373.153-.565.216a11.2,11.2,0,0,1-2.91.631,22.1,22.1,0,0,1-8.472-1.27,48.686,48.686,0,0,1-8.714-3.873c-.2-.109-.384-.22-.572-.331a54.455,54.455,0,0,1-8.221-5.85c-.164-.139-.323-.275-.479-.417a47,47,0,0,1-9.044-10.592,12.964,12.964,0,0,1-1.288-9.78c.044-.206.094-.409.144-.612,1.28-5.154,4.636-10.434,7.981-14.718.173-.221.346-.443.525-.662.45-.558.894-1.106,1.332-1.621.054-.067.116-.136.17-.2l.2-.233c.22-.265.441-.521.657-.767.292-.327.579-.645.85-.948.871-.972,1.676-1.82,2.367-2.525.115-.122.229-.232.337-.343s.21-.213.313-.315c1.05-1.049,1.7-1.641,1.7-1.641L104.5,110c.243.186-.122,1.005-.732,2.047" transform="translate(-17.293 -30.079)" fill="#fb5226"/>
        <path id="Path_920911" data-name="Path 920911" d="M68.85,139.6s-7.19,3.032-9.017,8.248-.169,11.233-.169,11.233a16.067,16.067,0,0,0,9.658-5.53,23,23,0,0,0,4.662-10.465Z" transform="translate(-23.211 -54.942)" fill="#37004d"/>
        <path id="Path_920912" data-name="Path 920912" d="M69.267,140.744s-6.422,2.708-8.053,7.367-.151,10.033-.151,10.033a14.352,14.352,0,0,0,8.626-4.939,20.532,20.532,0,0,0,4.163-9.346Z" transform="translate(-23.791 -55.394)" fill="#fb5226"/>
        <path id="Path_920913" data-name="Path 920913" d="M109.3,113.115c-1.2,2.039-3.343,4.913-3.657,5.347l-.006.011c-.066.087-.13.184-.2.271-.284.41-.571.811-.863,1.209-.163.227-.326.455-.494.68-.226.31-.452.621-.683.928L58,86.747c.173-.221.346-.443.525-.662.45-.558.894-1.106,1.332-1.621.054-.067.116-.136.17-.2l.2-.233c.22-.265.441-.521.657-.767.292-.327.579-.645.85-.948.871-.972,1.676-1.82,2.367-2.525.115-.122.229-.232.337-.343s.21-.213.313-.315Z" transform="translate(-22.826 -31.144)" fill="#37004d"/>
        <path id="Path_920914" data-name="Path 920914" d="M65.094,128.3l-.583-.169a5.293,5.293,0,0,0,.13-.529,7.005,7.005,0,0,0-1.457-5.815c-1.606-1.93-4.273-3.056-8.15-3.434-.8-.078-1.622-.129-2.415-.181a24.756,24.756,0,0,1-6.856-1.083,7.548,7.548,0,0,1-1.163-.512c.044-.206.094-.409.144-.612a6.95,6.95,0,0,0,1.222.554,24.454,24.454,0,0,0,6.693,1.049c.8.052,1.624.1,2.434.186,4.045.392,6.843,1.582,8.554,3.645a7.614,7.614,0,0,1,1.531,6.584c-.021.107-.056.213-.082.318" transform="translate(-17.553 -45.64)" fill="#37004d"/>
        <path id="Path_920915" data-name="Path 920915" d="M100.882,156.812c-.188.079-.372.153-.565.216a17.193,17.193,0,0,1-.708-1.709,24.181,24.181,0,0,1-1.2-4.884c-.081-.661-.145-1.34-.2-2-.169-2.038-.351-4.147-1.42-5.842a7.37,7.37,0,0,0-4.851-3.152c-1.736-.329-3.951.4-5.742,1.084-.235.087-.464.176-.682.259l-.216-.564c.109-.042.21-.081.322-.127,1.911-.73,4.411-1.632,6.431-1.247a7.878,7.878,0,0,1,5.252,3.424c1.149,1.821,1.329,4.006,1.512,6.115.052.651.11,1.326.2,1.969a23.262,23.262,0,0,0,1.173,4.759,17.427,17.427,0,0,0,.7,1.7" transform="translate(-33.57 -54.611)" fill="#37004d"/>
        <path id="Path_920916" data-name="Path 920916" d="M75.323,134.711,81,138.745a1.222,1.222,0,0,1,.318,1.659l-.785,1.213a1.22,1.22,0,0,1-1.72.341l-5.891-4.078a1.22,1.22,0,0,1-.232-1.8l1-1.169a1.221,1.221,0,0,1,1.634-.2" transform="translate(-28.492 -52.93)" fill="#37004d"/>
        <path id="Path_920917" data-name="Path 920917" d="M104.083,125.147c-.226.31-.452.62-.683.928L58,91.261c.173-.221.346-.443.525-.662Z" transform="translate(-22.826 -35.658)" fill="#ffb929"/>
        <path id="Path_920918" data-name="Path 920918" d="M106.958,121.641l-.006.01c-.066.088-.13.184-.2.272a3.7,3.7,0,0,0-1.355-1.64,11.881,11.881,0,0,0-1.589-.863,9.947,9.947,0,0,1-1.885-1.065,5.185,5.185,0,0,1-2-4.032,5.144,5.144,0,0,1-5.361-1.121,9.871,9.871,0,0,1-1.369-1.9,15.205,15.205,0,0,0-.884-1.34c-.776-.987-2.064-1.8-3.214-1.38l-.17.061-.033-.182a3.613,3.613,0,0,0-2-2.346,14.345,14.345,0,0,0-1.415-.633,13.439,13.439,0,0,1-1.632-.754,6.94,6.94,0,0,1-3.252-4.425c-1.316.5-2.837-.29-3.791-1.334a15.709,15.709,0,0,1-1.148-1.489,11.3,11.3,0,0,0-1.5-1.838,5.412,5.412,0,0,0-3.946-1.369l-.139.009-.022-.14a4.4,4.4,0,0,0-2.463-3.078,19.093,19.093,0,0,0-1.938-.893,18.468,18.468,0,0,1-1.928-.873,9.594,9.594,0,0,1-2.375-1.856l.2-.233a9.379,9.379,0,0,0,2.326,1.82,17.968,17.968,0,0,0,1.886.862,18.2,18.2,0,0,1,1.981.9,4.8,4.8,0,0,1,2.6,3.172,5.709,5.709,0,0,1,4.03,1.454A11.372,11.372,0,0,1,75.9,97.3a15.691,15.691,0,0,0,1.129,1.463c.921,1,2.4,1.763,3.613,1.193l.177-.086.036.19a6.6,6.6,0,0,0,3.144,4.4,14.164,14.164,0,0,0,1.6.733,13.358,13.358,0,0,1,1.441.648,4.034,4.034,0,0,1,2.122,2.39,3.485,3.485,0,0,1,3.393,1.542,13.823,13.823,0,0,1,.9,1.366,9.717,9.717,0,0,0,1.322,1.839,4.808,4.808,0,0,0,5.238.971l.23-.1-.012.247a4.871,4.871,0,0,0,1.88,4.015,9.693,9.693,0,0,0,1.828,1.032,12.576,12.576,0,0,1,1.634.882,4.122,4.122,0,0,1,1.384,1.615" transform="translate(-24.142 -34.322)" fill="#ffb929"/>
        <path id="Path_920919" data-name="Path 920919" d="M61.172,72.293s2.2-5.085,4.955-3.815S67.7,73.216,67.7,73.216Z" transform="translate(-24.076 -26.871)" fill="#ffb929"/>
        <path id="Path_920920" data-name="Path 920920" d="M168.623,135.044l1.155-2.525a9.59,9.59,0,0,1,1.76-2.887A6.122,6.122,0,0,1,175.676,128a13.087,13.087,0,0,1,4.462.791c-.643,1.008-1.141,2.179-1.785,3.187a10.656,10.656,0,0,1-1.432,1.91,6.393,6.393,0,0,1-3.586,1.681,14.6,14.6,0,0,1-4.712-.527" transform="translate(-66.366 -50.377)" fill="#37004d"/>
        <path id="Path_920921" data-name="Path 920921" d="M169.744,147.85a4.955,4.955,0,1,1,6.213-3.239,4.955,4.955,0,0,1-6.213,3.239" transform="translate(-65.442 -54.38)" fill="#fb5226"/>
        <path id="Path_920922" data-name="Path 920922" d="M179.467,148.585c-.326-.1-.424-.715-.219-1.367s.636-1.1.962-1,.424.715.219,1.367-.636,1.1-.962,1" transform="translate(-70.506 -57.544)" fill="#37004d"/>
        <path id="Path_920923" data-name="Path 920923" d="M33.623,146.6a4.954,4.954,0,1,1-2.492-6.549,4.954,4.954,0,0,1,2.492,6.549" transform="translate(-9.504 -54.949)" fill="#fb5226"/>
        <path id="Path_920924" data-name="Path 920924" d="M35.206,142.211c-.14.312-.759.338-1.384.058s-1.016-.76-.876-1.072.759-.338,1.383-.058,1.017.76.877,1.072" transform="translate(-12.955 -55.473)" fill="#37004d"/>
        <path id="Path_920925" data-name="Path 920925" d="M60.733,26.294A4.955,4.955,0,1,1,54.06,28.43a4.954,4.954,0,0,1,6.673-2.136" transform="translate(-21.06 -10.132)" fill="#fb5226"/>
        <path id="Path_920926" data-name="Path 920926" d="M56.287,29.271c.3.156.3.777-.016,1.384s-.814.975-1.118.818-.3-.777.016-1.385.814-.974,1.118-.817" transform="translate(-21.619 -11.506)" fill="#37004d"/>
        <path id="Path_920927" data-name="Path 920927" d="M113.33,23.017l-1.55-2.3a9.587,9.587,0,0,1-1.543-3.008,6.124,6.124,0,0,1,.77-4.381,13.078,13.078,0,0,1,3-3.393c.524,1.075,1.263,2.112,1.787,3.186a10.639,10.639,0,0,1,.882,2.219,6.4,6.4,0,0,1-.438,3.936,14.611,14.611,0,0,1-2.91,3.744" transform="translate(-43.333 -3.909)" fill="#37004d"/>
        <path id="Path_920928" data-name="Path 920928" d="M25.867,172.184l2.544,1.111a9.588,9.588,0,0,1,2.917,1.71,6.123,6.123,0,0,1,1.7,4.109,13.071,13.071,0,0,1-.713,4.475c-1.019-.626-2.2-1.1-3.218-1.73a10.616,10.616,0,0,1-1.934-1.4,6.386,6.386,0,0,1-1.743-3.557,14.6,14.6,0,0,1,.445-4.72" transform="translate(-9.98 -67.768)" fill="#37004d"/>
        <path id="Path_920929" data-name="Path 920929" d="M21.911,86.936l-1.9.914a3.106,3.106,0,0,0-1.457,1.457l-.914,1.9a.278.278,0,0,1-.5,0l-.914-1.9a3.109,3.109,0,0,0-1.457-1.457l-1.9-.914a.278.278,0,0,1,0-.5l1.9-.914a3.114,3.114,0,0,0,1.457-1.457l.914-1.9a.278.278,0,0,1,.5,0l.914,1.9a3.111,3.111,0,0,0,1.457,1.457l1.9.914a.278.278,0,0,1,0,.5" transform="translate(-4.998 -32.274)" fill="#fff"/>
        <path id="Path_920930" data-name="Path 920930" d="M160.8,183.957l-1.9.914a3.106,3.106,0,0,0-1.457,1.457l-.914,1.9a.278.278,0,0,1-.5,0l-.914-1.9a3.109,3.109,0,0,0-1.457-1.457l-1.9-.914a.278.278,0,0,1,0-.5l1.9-.914a3.114,3.114,0,0,0,1.457-1.457l.914-1.9a.278.278,0,0,1,.5,0l.914,1.9a3.111,3.111,0,0,0,1.457,1.457l1.9.914a.278.278,0,0,1,0,.5" transform="translate(-59.664 -70.459)" fill="#fff"/>
        <path id="Path_920931" data-name="Path 920931" d="M185.06,96.638l-1.9.914a3.106,3.106,0,0,0-1.457,1.457l-.914,1.9a.278.278,0,0,1-.5,0l-.914-1.9a3.106,3.106,0,0,0-1.457-1.457l-1.9-.914a.278.278,0,0,1,0-.5l1.9-.914a3.111,3.111,0,0,0,1.457-1.457l.914-1.9a.278.278,0,0,1,.5,0l.914,1.9a3.111,3.111,0,0,0,1.457,1.457l1.9.914a.278.278,0,0,1,0,.5" transform="translate(-69.21 -36.092)" fill="#fff"/>
      </g>
    </g>
  </g>
</svg>
