<svg xmlns="http://www.w3.org/2000/svg" xmlns:xlink="http://www.w3.org/1999/xlink" width="56" height="56" viewBox="0 0 56 56">
  <defs>
    <clipPath id="clip-path">
      <rect id="Rectangle_408739" data-name="Rectangle 408739" width="29.065" height="35.333" fill="#050c68"/>
    </clipPath>
  </defs>
  <g id="Group_1118641" data-name="Group 1118641" transform="translate(0.361 0.383)">
    <circle id="Ellipse_5614" data-name="Ellipse 5614" cx="28" cy="28" r="28" transform="translate(-0.361 -0.382)" fill="#fff"/>
    <g id="Group_1118713" data-name="Group 1118713" transform="translate(15.542 10.285)">
      <g id="Group_1118712" data-name="Group 1118712" clip-path="url(#clip-path)">
        <path id="Path_921234" data-name="Path 921234" d="M24.549.129c-.068.313-.276.5-.382.834a7,7,0,0,0-.2,1.073l-.02,13.644L13.616,26.193C12.562,28.255,12.2,30.676,11.58,32.9H4.111c-.295,0-.624-1.106.354-1.267.433-.071,1.9.22,1.9-.528V27.92H8.4c.222,0,.391-.531.412-.746a34.587,34.587,0,0,0,0-4.992c-.025-.188-.265-.631-.411-.631H6.369V19H8.511a1.933,1.933,0,0,0,.289-.289V16.572h2.548V18.6c0,.146.443.386.631.411a35.546,35.546,0,0,0,5.107,0c.478-.063.594-.3.638-.752a32.98,32.98,0,0,0,0-4.758c-.05-.433-.189-.7-.634-.756a35.586,35.586,0,0,0-5.106,0c-.251.034-.631.293-.631.527V15.3H8.974L8.8,15.125V13.04a1.775,1.775,0,0,0-.405-.289H6.369V10.2H8.4a1.329,1.329,0,0,0,.347-.232L8.8,9.8c-.163-1.662.215-3.722,0-5.333-.062-.474-.209-.481-.635-.522a35.7,35.7,0,0,0-5.108,0c-.418.049-.472.248-.517.641a34.015,34.015,0,0,0,0,4.987c.025.188.265.631.411.631H5.1v2.548H2.953c-.339,0-.389.5-.41.748a34.1,34.1,0,0,0,0,4.871A.873.873,0,0,0,2.837,19H5.1v2.548H3.069c-.1,0-.549.344-.519.523.123,1.629-.171,3.5-.009,5.1.029.283.2.746.528.746H5.1v2.374L4.9,30.45c-2.663-.494-3.268,3.48-.683,3.729a55.347,55.347,0,0,0,7.984-.018,34.392,34.392,0,0,0,7.1-2.168c1.672-1.016,3.076-3.213,4.67-4.42v7.874H0V1.692C0,1.183.916.129,1.447.129Z" transform="translate(0 -0.114)" fill="#050c68"/>
        <rect id="Rectangle_408737" data-name="Rectangle 408737" width="3.821" height="3.821" transform="translate(12.622 13.911)" fill="#050c68"/>
        <rect id="Rectangle_408738" data-name="Rectangle 408738" width="3.821" height="3.821" transform="translate(3.821 22.711)" fill="#050c68"/>
        <path id="Path_921235" data-name="Path 921235" d="M36.821,46.95H33V43.129h3.648l.174.174Z" transform="translate(-29.179 -38.135)" fill="#050c68"/>
        <path id="Path_921236" data-name="Path 921236" d="M36.821,120.129v3.648l-.174.174H33v-3.821Z" transform="translate(-29.179 -106.218)" fill="#050c68"/>
        <path id="Path_921237" data-name="Path 921237" d="M156.479,180.205c.261-.068,1.149.79,1.026,1.029l-6.26,6.252c-.177-.266-1.085-.861-.933-1.155Z" transform="translate(-132.891 -159.335)" fill="#050c68"/>
        <path id="Path_921238" data-name="Path 921238" d="M221.821,3.836H218V1.578a6.76,6.76,0,0,1,.323-.719,1.91,1.91,0,0,1,3.271.135,4.084,4.084,0,0,1,.227.584Z" transform="translate(-192.756 0)" fill="#050c68"/>
        <path id="Path_921239" data-name="Path 921239" d="M120.267,229.147l3.883,3.874c.115.1.152.154.058.3a6.691,6.691,0,0,1-2.642.906l-2.378-2.45a7.535,7.535,0,0,1,1.078-2.626" transform="translate(-105.387 -202.612)" fill="#050c68"/>
        <path id="Path_921240" data-name="Path 921240" d="M210.993,141.968a1.934,1.934,0,0,1,1.46.224,12.041,12.041,0,0,1,2.431,2.664,1.678,1.678,0,0,1-.558,1.831l-4.059-4.051c-.155-.3.491-.618.727-.667" transform="translate(-185.897 -125.483)" fill="#050c68"/>
        <path id="Path_921241" data-name="Path 921241" d="M142.342,166.192c.174-.03.792.558.567.8l-6.314,6.089-.578-.586Z" transform="translate(-120.267 -146.947)" fill="#050c68"/>
        <path id="Path_921242" data-name="Path 921242" d="M172.342,196.192c.174-.03.792.558.567.8l-6.314,6.089-.578-.586Z" transform="translate(-146.793 -173.473)" fill="#050c68"/>
        <path id="Path_921243" data-name="Path 921243" d="M199.423,155.195c.274-.046,3.452,3.479,3.986,3.866.239.261.041.461-.181.64l-4.06-4.052c-.136-.162.153-.437.254-.454" transform="translate(-176.075 -137.223)" fill="#050c68"/>
        <path id="Path_921244" data-name="Path 921244" d="M113.742,267.31l-1.736.464.347-1.736c.14-.15,1.272,1.093,1.389,1.272" transform="translate(-99.036 -235.221)" fill="#050c68"/>
      </g>
    </g>
  </g>
</svg>
