<svg xmlns="http://www.w3.org/2000/svg" xmlns:xlink="http://www.w3.org/1999/xlink" width="53" height="53" viewBox="0 0 53 53">
  <defs>
    <clipPath id="clip-path">
      <rect id="Rectangle_408742" data-name="Rectangle 408742" width="34.142" height="34.17" fill="#050c68"/>
    </clipPath>
  </defs>
  <g id="Group_1119075" data-name="Group 1119075" transform="translate(-277.711 -26526)">
    <g id="Group_1118642" data-name="Group 1118642" transform="translate(3 24851.383)">
      <path id="Path_918845" data-name="Path 918845" d="M26.5,0A26.5,26.5,0,1,1,0,26.5,26.5,26.5,0,0,1,26.5,0Z" transform="translate(274.711 1674.617)" fill="#fff"/>
    </g>
    <g id="Group_1118719" data-name="Group 1118719" transform="translate(287.711 26535)">
      <g id="Group_1118718" data-name="Group 1118718" transform="translate(-1 0.001)" clip-path="url(#clip-path)">
        <path id="Path_921252" data-name="Path 921252" d="M119.576,119.215l-.782,10.3c-.067,2.74-2.426,2.655-4.545,2.5a2.128,2.128,0,0,1-2.071-1.641l-.9-11.159h-1.514c-.3,0-.882-.857-.736-1.216.535-2.441.451-5.3,1-7.7.378-1.639,1.948-1.958,3.436-1.728.7.108,1.407,1.225,1.96,1.652.684-.553,1.214-1.574,2.144-1.664,1.359-.132,2.8.1,3.211,1.585l1.051,7.943c.108.334-.467,1.124-.74,1.124Z" transform="translate(-98.354 -97.91)" fill="#050c68"/>
        <path id="Path_921253" data-name="Path 921253" d="M9.99,108.527c-.132.6-.362,1.1-.475,1.723-.457,2.533-.522,5.255-1,7.8a3.66,3.66,0,0,0,.932,2.3c.223.218.915.534.939.725l-.7,7.024a2.188,2.188,0,0,1-1.623,1.7,17.985,17.985,0,0,1-3.009.027,2.278,2.278,0,0,1-2-2.4l-.782-8.253H.759c-.3,0-.882-.858-.736-1.216.528-2.433.439-5.327.989-7.711.372-1.609,2-1.956,3.453-1.714.656.109,1.83,1.654,1.959,1.654.35-.275,1.493-1.659,1.856-1.659Z" transform="translate(0 -97.868)" fill="#050c68"/>
        <path id="Path_921254" data-name="Path 921254" d="M251.344,119.484l-.793,8.437a2.237,2.237,0,0,1-1.987,2.213,17.952,17.952,0,0,1-3.008-.027,2.381,2.381,0,0,1-1.721-2.382l-.6-6.418a3.307,3.307,0,0,0,1.868-2.946c-.485-2.539-.531-5.279-1-7.8a4.259,4.259,0,0,0-.533-1.522l.1-.2h1.66c.362,0,1.506,1.384,1.856,1.659.129,0,1.3-1.544,1.959-1.654a7.767,7.767,0,0,1,1.807.038,2.116,2.116,0,0,1,1.63,1.691c.554,2.4.486,5.249,1,7.7.146.359-.431,1.216-.736,1.216Z" transform="translate(-219.475 -98.179)" fill="#050c68"/>
        <path id="Path_921255" data-name="Path 921255" d="M135.3.04c5.77-.687,6.418,7.849,1.232,8.46-5.9.7-6.627-7.818-1.232-8.46" transform="translate(-118.79 -0.001)" fill="#050c68"/>
        <path id="Path_921256" data-name="Path 921256" d="M244.348.04c5.766-.686,6.426,7.848,1.232,8.46-5.9.695-6.62-7.819-1.232-8.46" transform="translate(-217.19 -0.001)" fill="#050c68"/>
        <path id="Path_921257" data-name="Path 921257" d="M26.289.039c5.778-.688,6.393,7.852,1.232,8.46-5.91.7-6.626-7.818-1.232-8.46" transform="translate(-20.423 0)" fill="#050c68"/>
      </g>
    </g>
  </g>
</svg>
