<svg xmlns="http://www.w3.org/2000/svg" xmlns:xlink="http://www.w3.org/1999/xlink" width="56" height="56" viewBox="0 0 56 56">
  <defs>
    <clipPath id="clip-path">
      <rect id="Rectangle_408740" data-name="Rectangle 408740" width="37.683" height="37.667" fill="#050c68"/>
    </clipPath>
  </defs>
  <g id="Group_1118639" data-name="Group 1118639" transform="translate(0.361 0.383)">
    <circle id="Ellipse_5614" data-name="Ellipse 5614" cx="28" cy="28" r="28" transform="translate(-0.361 -0.382)" fill="#fff"/>
    <g id="Group_1118715" data-name="Group 1118715" transform="translate(9.305 9.283)">
      <g id="Group_1118714" data-name="Group 1118714" clip-path="url(#clip-path)">
        <path id="Path_921245" data-name="Path 921245" d="M5,.306A1.161,1.161,0,0,1,5.665,0c2.4.471,5.1.4,7.466.951,1.653.382,3.254,1.818,5.078,1.907C20.18,2.953,22.183.51,24.1,1.1c1.086.333.851,2.1,1.056,2.953.206.561,4,2.582,4.729,2.77.744.192,1.493.158,2.251.335,1.939.453,5.387,3.774,5.538,5.847.156,2.136-2.563,4.273-3.654,5.916-1.909,2.876-1.845,5.136-2.458,8.274-.517,2.642-1.951,2.468-3.938,3.3-1.245.524-1.865,2.293-2.65,3.427a31.1,31.1,0,0,1-2.854,3.611c-1.031.417-3.555-.2-4.075-1.289-.624-1.306.28-5.151.1-6.952-.286-2.829-4.153-5.295-5.141-7.918-.278-.738-.376-1.508-.694-2.28-.628-1.526-2.416-4.492-3.742-5.438-1.809-1.29-3.861.956-6.07.381-1.093-.285-2.339-2.7-2.454-3.753A15.822,15.822,0,0,1,.1,7.241c.232-.741,2.282-.964,3.04-1.227,1.867-.648,2.064-.776,1.95-2.845C5.049,2.36,4.459.9,5,.306M26.941,19.53c2-3.145,3.654-7.713.32-10.6a5.608,5.608,0,0,0-8.075.71c-2.507,3.061-.792,6.834.906,9.821-3.685,1.883-2.259,4.944,1.288,5.695,2.05.434,5.006.306,6.728-1.033,1.993-1.549,1.011-3.976-1.167-4.6" transform="translate(0)" fill="#050c68"/>
        <path id="Path_921246" data-name="Path 921246" d="M159.659,74.084c2.652,2.722-.327,8.028-2.717,10.031-2.278-2-5.249-7.176-2.8-9.886a3.867,3.867,0,0,1,5.517-.145m-3.087-.143c-4.068.5-2.521,7.034,1.5,5.381a2.823,2.823,0,0,0-1.5-5.381" transform="translate(-133.411 -63.558)" fill="#050c68"/>
        <path id="Path_921247" data-name="Path 921247" d="M159.329,163.029c.33-.195,1.883.581,1.566,1.233-.491,1.012-3.383,1.28-4.368,1.2-1.623-.134-4.846-1.3-1.68-2.452.412.009,1.341,1.661,2.548,1.525a4.188,4.188,0,0,0,1.661-1.069c.13-.121.234-.413.273-.436" transform="translate(-133.658 -141.922)" fill="#050c68"/>
        <path id="Path_921248" data-name="Path 921248" d="M175.66,95c1.738-.377,1.489,2.228-.1,1.726a.92.92,0,0,1,.1-1.726" transform="translate(-152.375 -82.681)" fill="#050c68"/>
      </g>
    </g>
  </g>
</svg>
