<svg xmlns="http://www.w3.org/2000/svg" xmlns:xlink="http://www.w3.org/1999/xlink" width="294.007" height="361.912" viewBox="0 0 294.007 361.912">
  <defs>
    <clipPath id="clip-path">
      <rect id="Rectangle_408732" data-name="Rectangle 408732" width="294.007" height="361.912" transform="translate(0 0)" fill="none"/>
    </clipPath>
  </defs>
  <g id="Group_1118700" data-name="Group 1118700" transform="translate(0 0.004)">
    <g id="Group_1118699" data-name="Group 1118699" transform="translate(0 -0.004)" clip-path="url(#clip-path)">
      <path id="Path_921027" data-name="Path 921027" d="M329.8,273.923A122.377,122.377,0,1,1,207.421,151.546,122.377,122.377,0,0,1,329.8,273.923" transform="translate(-69.798 -124.378)" fill="#f8d2a8"/>
      <path id="Path_921028" data-name="Path 921028" d="M897.144,62.657a.178.178,0,0,1-.074-.016.181.181,0,0,1-.094-.1l-1.864-4.976a21.654,21.654,0,0,1-5.164-.174l-2.193,4.84a.179.179,0,0,1-.238.089L877.1,57.58a.179.179,0,0,1-.089-.237L879.2,52.5a21.728,21.728,0,0,1-3.53-3.781L870.7,50.59a.179.179,0,0,1-.231-.1L866.45,39.749a.18.18,0,0,1,.1-.231l4.966-1.868a21.768,21.768,0,0,1,.174-5.175l-4.831-2.2a.179.179,0,0,1-.089-.237L871.506,19.6a.179.179,0,0,1,.238-.089l4.83,2.2a21.721,21.721,0,0,1,3.773-3.537l-1.865-4.976a.179.179,0,0,1,.1-.231L889.3,8.931a.179.179,0,0,1,.231.1l1.865,4.975a21.652,21.652,0,0,1,5.164.174l2.193-4.84a.179.179,0,0,1,.237-.089L909.413,14a.179.179,0,0,1,.089.237l-2.193,4.841a21.749,21.749,0,0,1,3.53,3.781l4.965-1.868a.179.179,0,0,1,.231.1l4.024,10.736a.179.179,0,0,1-.1.231l-4.966,1.868a21.783,21.783,0,0,1-.174,5.175l4.831,2.2a.18.18,0,0,1,.089.237L915,51.979a.179.179,0,0,1-.237.089l-4.83-2.2a21.727,21.727,0,0,1-3.773,3.537l1.865,4.976a.18.18,0,0,1-.1.231l-10.715,4.032a.179.179,0,0,1-.063.011M895.232,57.2a.18.18,0,0,1,.168.116l1.849,4.935,10.379-3.906-1.85-4.936a.179.179,0,0,1,.063-.208,21.358,21.358,0,0,0,3.906-3.661.179.179,0,0,1,.212-.049l4.791,2.18,4.583-10.116-4.792-2.18a.179.179,0,0,1-.1-.192,21.424,21.424,0,0,0,.18-5.356.179.179,0,0,1,.115-.184l4.926-1.853-3.9-10.4-4.925,1.853a.18.18,0,0,1-.209-.063,21.371,21.371,0,0,0-3.654-3.914.18.18,0,0,1-.049-.212l2.175-4.8-10.1-4.592-2.175,4.8a.178.178,0,0,1-.192.1,21.3,21.3,0,0,0-5.346-.18.182.182,0,0,1-.184-.116L889.26,9.33l-10.379,3.905,1.85,4.936a.179.179,0,0,1-.063.208,21.368,21.368,0,0,0-3.906,3.661.179.179,0,0,1-.212.049l-4.791-2.179-4.583,10.116,4.792,2.18a.179.179,0,0,1,.1.191,21.428,21.428,0,0,0-.18,5.356.179.179,0,0,1-.115.184l-4.926,1.853,3.9,10.4,4.925-1.853a.18.18,0,0,1,.208.063,21.354,21.354,0,0,0,3.654,3.914.18.18,0,0,1,.049.212l-2.176,4.8,10.1,4.592,2.175-4.8a.18.18,0,0,1,.192-.1,21.289,21.289,0,0,0,5.345.18h.017m-1.983-9.285a12.12,12.12,0,1,1,4.257-.78,12.037,12.037,0,0,1-4.257.78m.011-23.885a11.755,11.755,0,1,0,4.837,1.054,11.708,11.708,0,0,0-4.837-1.054" transform="translate(-711.114 -7.32)" fill="#bc8271"/>
      <path id="Path_921029" data-name="Path 921029" d="M35.685,1001.658a.167.167,0,0,1-.07-.015.17.17,0,0,1-.089-.095l-2.18-5.816a25.168,25.168,0,0,1-6.056-.2l-2.564,5.658a.17.17,0,0,1-.225.084l-12.125-5.515a.17.17,0,0,1-.084-.225l2.564-5.658a25.235,25.235,0,0,1-4.14-4.434l-5.8,2.184a.17.17,0,0,1-.219-.1L.011,975.031a.17.17,0,0,1,.1-.219l5.8-2.184a25.31,25.31,0,0,1,.2-6.069L.472,963.99a.17.17,0,0,1-.085-.225l5.5-12.149a.17.17,0,0,1,.1-.089.168.168,0,0,1,.13,0l5.646,2.569a25.211,25.211,0,0,1,4.426-4.148l-2.18-5.816a.17.17,0,0,1,.1-.219l12.466-4.691a.17.17,0,0,1,.219.1l2.18,5.816a25.168,25.168,0,0,1,6.056.2l2.564-5.658a.17.17,0,0,1,.225-.085l12.125,5.516a.17.17,0,0,1,.084.225L47.464,951a25.247,25.247,0,0,1,4.14,4.434l5.8-2.184a.17.17,0,0,1,.219.1l4.681,12.491a.17.17,0,0,1-.1.219l-5.8,2.184a25.3,25.3,0,0,1-.2,6.069l5.647,2.568a.17.17,0,0,1,.084.225l-5.5,12.149a.17.17,0,0,1-.225.085l-5.646-2.568a25.22,25.22,0,0,1-4.425,4.148l2.18,5.816a.17.17,0,0,1-.1.219l-12.466,4.69a.171.171,0,0,1-.06.011m-2.225-6.277a.17.17,0,0,1,.159.111l2.165,5.778L47.932,996.7l-2.166-5.778a.17.17,0,0,1,.059-.2,24.892,24.892,0,0,0,4.551-4.266.17.17,0,0,1,.2-.046l5.61,2.552,5.364-11.839-5.61-2.552a.17.17,0,0,1-.1-.182,24.956,24.956,0,0,0,.209-6.241.17.17,0,0,1,.109-.175l5.767-2.17-4.562-12.172L51.6,955.8a.17.17,0,0,1-.2-.06,24.907,24.907,0,0,0-4.258-4.56.17.17,0,0,1-.046-.2l2.547-5.621-11.815-5.375L35.286,945.6a.169.169,0,0,1-.182.1,24.828,24.828,0,0,0-6.229-.21.17.17,0,0,1-.175-.11L26.535,939.6l-12.148,4.571,2.166,5.778a.17.17,0,0,1-.06.2,24.883,24.883,0,0,0-4.551,4.266.17.17,0,0,1-.2.046l-5.609-2.552L.767,963.751l5.61,2.552a.17.17,0,0,1,.1.182,24.958,24.958,0,0,0-.209,6.241.17.17,0,0,1-.11.175l-5.767,2.17,4.562,12.172,5.766-2.17a.17.17,0,0,1,.2.06,24.9,24.9,0,0,0,4.258,4.56.17.17,0,0,1,.046.2l-2.547,5.621,11.816,5.375,2.547-5.621a.17.17,0,0,1,.182-.1,24.813,24.813,0,0,0,6.229.21h.016M31.153,984.5a14.062,14.062,0,1,1,4.939-.9,13.968,13.968,0,0,1-4.939.9m.013-27.789a13.714,13.714,0,1,0,5.643,1.23,13.664,13.664,0,0,0-5.643-1.23" transform="translate(0 -770.844)" fill="#bc8271"/>
      <path id="Path_921030" data-name="Path 921030" d="M218.965,198s5.009,33.891-2.667,46.835A87.744,87.744,0,0,1,59.77,166.47c4.4-10.583,26.141-17.159,26.141-17.159s7.254-23.471,15.934-27.78a87.867,87.867,0,0,1,82.757,2.607c4.488,2.592,9.66,12.943,9.66,12.943s8.931,1.292,11.607,4.251a87.891,87.891,0,0,1,14.062,20.936c5.571,11.615-.966,35.729-.966,35.729" transform="translate(-43.556 -92.276)" fill="#afbefc"/>
      <path id="Path_921031" data-name="Path 921031" d="M157.173,183.056c-2.512,1.512-1.144,5.446-3.646,6.856-4.292,2.418-15.774-4.947-15.1-10.462.726-5.969,15.808-10.744,21.274-6.13,3.519,2.97,1.642,8.64,5.048,10.1,2.888,1.234,7.933-1.262,9.014-5.048,1.428-5-4.876-9.376-5.409-9.735-6.376-4.3-15.157-1.949-18.389-1.082-6.981,1.872-8.567,4.618-11.9,3.606-3.519-1.069-4.245-4.889-5.514-7.943A88.037,88.037,0,0,0,90.478,208.15c3.132,4.44,10.763,4.967,13.33,12.766,1.35,4.1.408,7.509,3.245,9.735,2.889,2.267,5.977.391,8.293,2.885,1.374,1.48.83,2.725,1.8,7.933.939,5.026,1.408,7.539,2.885,9.014,4.258,4.255,14.728,1,14.783-.721.037-1.143-4.517-.8-6.13-3.966-1.681-3.3,1.917-6.324.361-9.375-1.707-3.347-7.057-1.71-8.654-4.687-1.649-3.074,1.5-9.583,6.49-12.259,7.325-3.926,12.548,3.654,19.831.721,9.064-3.649,6.434-17.582,17.308-22.716,5.483-2.589,9.7-.72,10.457-2.885,1.436-4.094-12.324-14.54-17.308-11.538" transform="translate(-74.258 -133.954)" fill="#ffe9a2"/>
      <path id="Path_921032" data-name="Path 921032" d="M352.545,609.005a21.833,21.833,0,0,1,13.36-.461,22.965,22.965,0,0,1,9.39,4.528c5.912,4.868,4.174,8.9,9.151,12.2,5.379,3.566,11.284,1.422,12.2,4.194.5,1.5-1.215,2.189-2.669,5.719-2.579,6.265.059,10.787-2.669,12.583-1.49.981-4.576,1.144-4.576,1.144a18.169,18.169,0,0,1-.762,6.481c-.725,1.966-1.5,1.9-3.431,4.576-2.7,3.742-1.957,4.942-3.923,7.4-2.94,3.678-5.751,2.424-7.516,4.926-3.723,5.278,5.874,14.98,3.05,18.3-2.139,2.516-10.906.785-14.743-4.575-2.706-3.78-.706-6.217-2.288-15.505a79.2,79.2,0,0,0-5.084-16.776c-2.9-6.932-5.085-9.5-4.276-13.928.7-3.807,2.767-4.374,2.5-7.169-.514-5.323-8.266-5.773-9.151-10.676s5.755-10.742,11.439-12.964" transform="translate(-279.891 -498.76)" fill="#ffe9a2"/>
      <path id="Path_921033" data-name="Path 921033" d="M769.017,376.478c-12.212-2.936-15.385-3.814-20.693-2.36-4.591,1.258-8.278,3.61-15.653,8.316-7.032,4.487-8.27,6.4-8.805,7.338-3.039,5.337-1.576,11.245,0,17.61,1.376,5.557,2.879,11.629,6.848,12.719,1.9.522,2.907-.5,8.805-2.935,7.533-3.107,11.3-4.661,12.718-3.424,2.828,2.465-6.145,12.014-2.446,19.078,2.475,4.726,8.284,3.873,10.273,9.294,1.355,3.695-.825,5.5,0,9.294a14.081,14.081,0,0,0,5.319,7.631,87.832,87.832,0,0,0,3.635-82.56" transform="translate(-592.645 -306.484)" fill="#ffe9a2"/>
      <path id="Path_921034" data-name="Path 921034" d="M713.045,194.942a88.1,88.1,0,0,0-21.267-17.193,10.539,10.539,0,0,0,.449,6.907c1.35,2.736,4.155,3.806,3.913,6.359-.239,2.518-3.265,4.623-5.87,5.381-4.443,1.292-7.266-1.452-8.8,0-2.311,2.18,2.869,9.48.489,11.74-1.558,1.48-4.376-1.082-7.338.489-2.8,1.488-4.632,6.1-2.935,9.294,1.319,2.487,4.433,3.493,6.848,3.424,2.026-.058,4.746-.905,12.229-9.294,6.915-7.751,7.9-10.738,10.761-10.762,4.8-.039,8.375,8.343,9.294,7.827.854-.48-3.967-6.732-2.446-10.762.643-1.7,2.332-2.768,4.675-3.411" transform="translate(-550.734 -145.884)" fill="#ffe9a2"/>
      <path id="Path_921035" data-name="Path 921035" d="M124.278,285.149a87.438,87.438,0,1,1,34.142-6.893,87.548,87.548,0,0,1-34.142,6.893m0-175.142a87.429,87.429,0,1,0,87.429,87.429,87.528,87.528,0,0,0-87.429-87.429" transform="translate(-30.01 -90.052)" fill="#e2a18d"/>
      <path id="Path_921036" data-name="Path 921036" d="M97.434,137.612H64.805L48.491,165.87l16.314,28.257H97.434l16.314-28.257Z" transform="translate(-39.798 -112.942)" fill="#8b865c"/>
      <path id="Path_921037" data-name="Path 921037" d="M124.244,333.6l-23.791,4.739,8.3,14.382h30.02l8.316-14.4Z" transform="translate(-82.445 -273.792)" fill="#363e44"/>
      <path id="Path_921038" data-name="Path 921038" d="M199.323,173.4a10.113,10.113,0,1,1-10.113-10.113A10.113,10.113,0,0,1,199.323,173.4" transform="translate(-146.991 -134.015)" fill="#efbc73"/>
      <rect id="Rectangle_408729" data-name="Rectangle 408729" width="10.063" height="17.325" transform="translate(37.296 47.703)" fill="#e2a18d"/>
      <path id="Path_921039" data-name="Path 921039" d="M205.78,195.553c0,5.387-3.731,11.069-8.333,11.069s-8.334-5.682-8.334-11.069,3.731-9.754,8.334-9.754,8.333,4.367,8.333,9.754" transform="translate(-155.211 -152.49)" fill="#e2a18d"/>
      <path id="Path_921040" data-name="Path 921040" d="M213.608,290.337a6.878,6.878,0,0,1-4.76-2.122.144.144,0,0,1,.2-.208,6.6,6.6,0,0,0,4.559,2.041,6.754,6.754,0,0,0,4.893-2.38.144.144,0,1,1,.21.2,7.032,7.032,0,0,1-5.1,2.471" transform="translate(-171.372 -236.061)" fill="#363e44"/>
      <path id="Path_921041" data-name="Path 921041" d="M200.788,180.1l.565,3.481h4.473a8.29,8.29,0,0,0-16.58,0h11.1Z" transform="translate(-155.321 -143.88)" fill="#efbc73"/>
      <path id="Path_921042" data-name="Path 921042" d="M177.173,229.033c.753,1.649.463,3.4-.648,3.9s-2.62-.42-3.373-2.069-.463-3.4.648-3.9,2.621.42,3.373,2.069" transform="translate(-141.768 -186.162)" fill="#e2a18d"/>
      <path id="Path_921043" data-name="Path 921043" d="M178.7,237.066a.144.144,0,0,1-.094-.034,2.556,2.556,0,0,1-.652-.883,2.416,2.416,0,0,1-.214-1.374,1.181,1.181,0,0,1,.636-.933,1.085,1.085,0,0,1,.846-.005.144.144,0,1,1-.1.27.8.8,0,0,0-.625,0,.9.9,0,0,0-.472.718,2.125,2.125,0,0,0,.192,1.207,2.267,2.267,0,0,0,.576.783.144.144,0,0,1-.094.254" transform="translate(-145.857 -191.848)" fill="#363e44"/>
      <path id="Path_921044" data-name="Path 921044" d="M189.015,234.993a.144.144,0,0,1-.137-.1,11.33,11.33,0,0,1-.569-3.572,11.616,11.616,0,0,1,.143-1.819.144.144,0,1,1,.285.045,11.346,11.346,0,0,0-.139,1.774,11.041,11.041,0,0,0,.554,3.481.144.144,0,0,1-.137.19" transform="translate(-154.551 -188.26)" fill="#363e44"/>
      <path id="Path_921045" data-name="Path 921045" d="M271.287,229.033c-.753,1.649-.463,3.4.648,3.9s2.62-.42,3.373-2.069.463-3.4-.648-3.9-2.621.42-3.373,2.069" transform="translate(-222.31 -186.162)" fill="#e2a18d"/>
      <path id="Path_921046" data-name="Path 921046" d="M284.665,237.066a.144.144,0,0,1-.094-.254,2.267,2.267,0,0,0,.576-.783c.374-.82.249-1.684-.28-1.925a.8.8,0,0,0-.625,0,.144.144,0,1,1-.1-.27,1.084,1.084,0,0,1,.846.005c.673.307.863,1.342.422,2.307a2.556,2.556,0,0,1-.652.883.143.143,0,0,1-.094.034" transform="translate(-233.127 -191.848)" fill="#363e44"/>
      <path id="Path_921047" data-name="Path 921047" d="M277.8,234.993a.144.144,0,0,1-.137-.19,11.045,11.045,0,0,0,.554-3.481,11.311,11.311,0,0,0-.139-1.774.144.144,0,0,1,.285-.045,11.606,11.606,0,0,1,.143,1.819,11.331,11.331,0,0,1-.569,3.572.144.144,0,0,1-.137.1" transform="translate(-227.877 -188.26)" fill="#363e44"/>
      <path id="Path_921048" data-name="Path 921048" d="M235.866,250.113a.144.144,0,0,1-.077-.266,1,1,0,0,0,.484-.585,1.032,1.032,0,0,0-.144-.675,3.385,3.385,0,0,1-.257-.758,2.919,2.919,0,0,1,.044-1.262.144.144,0,1,1,.28.069,2.633,2.633,0,0,0-.041,1.137,3.132,3.132,0,0,0,.238.7,1.109,1.109,0,0,1-.449,1.62.145.145,0,0,1-.077.022" transform="translate(-193.464 -202.274)" fill="#363e44"/>
      <path id="Path_921049" data-name="Path 921049" d="M225.558,269.571a1.03,1.03,0,0,1-.854-.425,1.064,1.064,0,0,1-.017-1.135.144.144,0,1,1,.25.144.774.774,0,0,0,0,.826.8.8,0,0,0,1.05.187.144.144,0,1,1,.142.251,1.171,1.171,0,0,1-.575.152" transform="translate(-184.281 -219.905)" fill="#363e44"/>
      <path id="Path_921050" data-name="Path 921050" d="M211.569,110.086a5.719,5.719,0,1,1-5.719-5.719,5.719,5.719,0,0,1,5.719,5.719" transform="translate(-164.254 -85.657)" fill="#efbc73"/>
      <path id="Path_921051" data-name="Path 921051" d="M196.137,129.1c-3.54,0-6.421-2-6.421-4.451s2.88-4.451,6.421-4.451,6.421,2,6.421,4.451-2.881,4.451-6.421,4.451m0-8.613c-3.381,0-6.132,1.867-6.132,4.162s2.751,4.162,6.132,4.162,6.132-1.867,6.132-4.162-2.751-4.162-6.132-4.162" transform="translate(-155.706 -98.647)" fill="#efbc73"/>
      <path id="Path_921052" data-name="Path 921052" d="M202.056,130.031a3.58,3.58,0,0,1-3.575-5.194,8.046,8.046,0,0,1,2.974-3.638c2.906-2.023,6.41-2.03,7.812-.016a3.894,3.894,0,0,1,.248,3.683,8.581,8.581,0,0,1-7.418,5.165h-.041m3.885-10.071a8.289,8.289,0,0,0-7.19,4.979,3.3,3.3,0,0,0,3.344,4.8,8.294,8.294,0,0,0,7.15-4.979,3.295,3.295,0,0,0-3.3-4.8" transform="translate(-162.622 -98.222)" fill="#efbc73"/>
      <path id="Path_921053" data-name="Path 921053" d="M188.947,182.262h-.018a.144.144,0,0,1-.125-.161,8.391,8.391,0,0,1,7.455-7.328.143.143,0,0,1,.159.128.144.144,0,0,1-.128.159,8.1,8.1,0,0,0-7.2,7.077.144.144,0,0,1-.143.126" transform="translate(-154.956 -143.439)" fill="#e0aa63"/>
      <path id="Path_921054" data-name="Path 921054" d="M245.851,181.876a.144.144,0,0,1-.142-.122,8.1,8.1,0,0,0-7.436-6.836.144.144,0,0,1,.021-.288,8.39,8.39,0,0,1,7.7,7.079.144.144,0,0,1-.12.165l-.023,0" transform="translate(-195.449 -143.324)" fill="#e0aa63"/>
      <path id="Path_921055" data-name="Path 921055" d="M187.729,342.1c0,2.935-5.931,5.314-13.248,5.314s-13.247-2.379-13.247-5.314,5.931-5.314,13.247-5.314,13.248,2.379,13.248,5.314" transform="translate(-132.33 -276.41)" fill="#e2a18d"/>
      <path id="Path_921056" data-name="Path 921056" d="M248.923,232.379h0l-.022,0c-.011.045-.041.1-.089.1a1.374,1.374,0,0,0-.121.248c-.069.129-.265.014-.2-.115.046-.087-.262.08-.4.132-.431.166-.868.312-1.311.445-.206.062-.413.125-.621.18a5.381,5.381,0,0,1-.763.192,5.636,5.636,0,0,0-.873,1,5.8,5.8,0,0,0,1.849.413c0-.014.006-.028.009-.042a8.846,8.846,0,0,1,2.493-.6,5.791,5.791,0,0,0,1.6-1.563,5.761,5.761,0,0,0-1.562-.391" transform="translate(-200.694 -190.719)" fill="#fff"/>
      <path id="Path_921057" data-name="Path 921057" d="M251.163,232.388a4.63,4.63,0,0,0-1.758,1.041,1.878,1.878,0,0,0,.943,1.415,4.342,4.342,0,0,0,1.505-.16,4.122,4.122,0,0,0,1.012-.471,1.886,1.886,0,0,0,.036-1.965,4.463,4.463,0,0,0-1.739.141" transform="translate(-204.695 -190.589)" fill="#363e44"/>
      <path id="Path_921058" data-name="Path 921058" d="M196.143,233.287h0l.021,0c.012.045.042.1.089.1a1.374,1.374,0,0,1,.121.248c.069.129.265.014.2-.115-.046-.087.262.08.4.132.431.166.868.312,1.311.445.206.062.413.125.621.18a5.381,5.381,0,0,0,.763.192,5.636,5.636,0,0,1,.873,1,5.8,5.8,0,0,1-1.849.413c0-.014-.006-.028-.009-.042a8.839,8.839,0,0,0-2.493-.6,5.791,5.791,0,0,1-1.6-1.563,5.761,5.761,0,0,1,1.562-.391" transform="translate(-159.699 -191.464)" fill="#fff"/>
      <path id="Path_921059" data-name="Path 921059" d="M203.969,233.3a4.63,4.63,0,0,1,1.758,1.041,1.879,1.879,0,0,1-.943,1.415,4.334,4.334,0,0,1-1.505-.16,4.122,4.122,0,0,1-1.012-.471,1.886,1.886,0,0,1-.036-1.966,4.463,4.463,0,0,1,1.739.141" transform="translate(-165.764 -191.334)" fill="#363e44"/>
      <path id="Path_921060" data-name="Path 921060" d="M400.862,593.82H379.019L368.1,612.737l10.921,18.916h21.843l10.921-18.916Z" transform="translate(-302.11 -487.367)" fill="#8b865c"/>
      <path id="Path_921061" data-name="Path 921061" d="M418.81,725.018l-15.927,3.172,5.559,9.628h20.1l5.567-9.642Z" transform="translate(-330.659 -595.045)" fill="#efbc73"/>
      <path id="Path_921062" data-name="Path 921062" d="M461.308,731.273c0,1.965-3.97,3.558-8.868,3.558s-8.868-1.593-8.868-3.558,3.971-3.558,8.868-3.558,8.868,1.593,8.868,3.558" transform="translate(-364.053 -597.259)" fill="#e2a18d"/>
      <path id="Path_921063" data-name="Path 921063" d="M447.395,642.723a2.182,2.182,0,1,1-3.237-.751,2.365,2.365,0,0,1,3.237.751" transform="translate(-363.888 -526.582)" fill="#e2a18d"/>
      <path id="Path_921064" data-name="Path 921064" d="M521.276,638.815a2.182,2.182,0,1,0,3.144-1.076,2.365,2.365,0,0,0-3.144,1.076" transform="translate(-427.494 -523.196)" fill="#e2a18d"/>
      <path id="Path_921065" data-name="Path 921065" d="M471.914,673.859h0a4.524,4.524,0,0,1-4.312-4.727l.419-12.83,9.039.415-.419,12.83a4.524,4.524,0,0,1-4.727,4.312" transform="translate(-383.772 -538.647)" fill="#e2a18d"/>
      <path id="Path_921066" data-name="Path 921066" d="M466.284,658.587c-7.25.428-7.52-11.678-7.52-11.678l12.848-.435s1.7,11.7-5.328,12.112" transform="translate(-376.522 -530.582)" fill="#363e44"/>
      <path id="Path_921067" data-name="Path 921067" d="M456.156,608.231a4.61,4.61,0,1,1-4.61-4.61,4.61,4.61,0,0,1,4.61,4.61" transform="translate(-366.815 -495.41)" fill="#363e44"/>
      <path id="Path_921068" data-name="Path 921068" d="M472.787,624.726c.205,4.029-2.408,1.91-5.837,2.084s-6.374,2.576-6.579-1.452a5.808,5.808,0,0,1,5.837-6.5c3.428-.175,6.374,1.843,6.579,5.872" transform="translate(-377.831 -507.904)" fill="#e2a18d"/>
      <path id="Path_921069" data-name="Path 921069" d="M528.365,645.17l-.026,0a.144.144,0,0,1-.116-.168,8.466,8.466,0,0,0-.14-3.625.144.144,0,1,1,.279-.073,8.75,8.75,0,0,1,.145,3.75.144.144,0,0,1-.142.118" transform="translate(-433.41 -526.247)" fill="#363e44"/>
      <path id="Path_921070" data-name="Path 921070" d="M459.337,648.4a.144.144,0,0,1-.139-.1,8.749,8.749,0,0,1-.222-3.747.144.144,0,1,1,.285.046,8.468,8.468,0,0,0,.215,3.622.145.145,0,0,1-.1.178.153.153,0,0,1-.04.005" transform="translate(-376.608 -528.904)" fill="#363e44"/>
      <path id="Path_921071" data-name="Path 921071" d="M496.566,655.9a.144.144,0,0,1-.088-.259c.162-.125.246-.243.248-.352a.425.425,0,0,0-.116-.248,1.128,1.128,0,0,1-.219-.449,1.069,1.069,0,0,1,.047-.573.144.144,0,1,1,.272.095.786.786,0,0,0-.037.42.846.846,0,0,0,.17.339.673.673,0,0,1,.171.422.774.774,0,0,1-.361.575.143.143,0,0,1-.088.03" transform="translate(-407.388 -536.696)" fill="#363e44"/>
      <path id="Path_921072" data-name="Path 921072" d="M484.731,669.8a1.847,1.847,0,0,1-1-.29,1.829,1.829,0,0,1-.58-.607.144.144,0,0,1,.249-.146,1.535,1.535,0,0,0,.487.511,1.574,1.574,0,0,0,.968.239.144.144,0,0,1,.023.288c-.042,0-.09.006-.144.006" transform="translate(-396.519 -548.815)" fill="#fff"/>
      <path id="Path_921073" data-name="Path 921073" d="M455.851,600.2s3.319.492,6.762-3.565c0,0,6.393,8.36,11.311-1.721,0,0-2.88,1.271-4.426-.738-2.459-3.2-8.36-5.778-10.7.123Z" transform="translate(-374.132 -484.863)" fill="#363e44"/>
      <path id="Path_921074" data-name="Path 921074" d="M503.754,645.88h-.015c-.006.032-.025.073-.059.074a.979.979,0,0,0-.076.178c-.043.093-.185.02-.142-.073.029-.063-.181.065-.273.107-.3.132-.6.251-.9.361-.142.051-.285.1-.429.15a3.806,3.806,0,0,1-.527.163,3.952,3.952,0,0,0-.574.734,4.076,4.076,0,0,0,1.311.22c0-.01,0-.02,0-.03a6.217,6.217,0,0,1,1.724-.515.805.805,0,1,0-.044-1.37" transform="translate(-410.989 -530.093)" fill="#fff"/>
      <path id="Path_921075" data-name="Path 921075" d="M505.156,646.022a3.248,3.248,0,0,0-1.192.8,1.318,1.318,0,0,0,.714.956,3.046,3.046,0,0,0,1.049-.169,2.907,2.907,0,0,0,.691-.368,1.323,1.323,0,0,0-.049-1.378,3.127,3.127,0,0,0-1.213.164" transform="translate(-413.619 -530.071)" fill="#363e44"/>
      <path id="Path_921076" data-name="Path 921076" d="M466.507,648.983h0l.015,0c.01.031.033.07.066.067a.976.976,0,0,1,.094.169c.053.088.186,0,.133-.088-.036-.059.187.046.283.077.308.1.62.186.935.262.147.036.294.072.442.1a3.806,3.806,0,0,0,.541.106,3.963,3.963,0,0,1,.649.669,4.066,4.066,0,0,1-1.28.359c0-.01-.005-.019-.008-.029a6.2,6.2,0,0,0-1.769-.327.805.805,0,1,1-.1-1.367" transform="translate(-381.992 -532.639)" fill="#fff"/>
      <path id="Path_921077" data-name="Path 921077" d="M472.084,648.81a3.248,3.248,0,0,1,1.27.663,1.317,1.317,0,0,1-.607,1.027,3.049,3.049,0,0,1-1.061-.055,2.9,2.9,0,0,1-.727-.292,1.323,1.323,0,0,1-.1-1.375,3.129,3.129,0,0,1,1.224.033" transform="translate(-386.329 -532.435)" fill="#363e44"/>
      <path id="Path_921078" data-name="Path 921078" d="M529.708,645.465a.146.146,0,0,1-.052-.01.144.144,0,0,1-.082-.187c.019-.05.489-1.225,1.4-1.331a.144.144,0,1,1,.033.287c-.741.086-1.16,1.138-1.164,1.149a.144.144,0,0,1-.134.092" transform="translate(-434.63 -528.499)" fill="#363e44"/>
      <path id="Path_921079" data-name="Path 921079" d="M452.436,652.006a.144.144,0,0,1-.126-.074c-.168-.3-.714-1.078-1.219-1.093a.144.144,0,0,1,0-.288h0c.773.021,1.435,1.19,1.463,1.24a.144.144,0,0,1-.126.215" transform="translate(-370.11 -533.927)" fill="#363e44"/>
      <path id="Path_921080" data-name="Path 921080" d="M571.748,193.992H549.9a.144.144,0,0,1-.125-.072L538.858,175a.144.144,0,0,1,0-.144l10.921-18.916a.144.144,0,0,1,.125-.072h21.843a.144.144,0,0,1,.125.072l10.921,18.916a.144.144,0,0,1,0,.144L571.872,193.92a.144.144,0,0,1-.125.072m-21.759-.289h21.676L582.5,174.932l-10.838-18.772H549.988L539.15,174.932Z" transform="translate(-442.242 -127.928)" fill="#fff"/>
      <path id="Path_921081" data-name="Path 921081" d="M590.357,287.873l-15.927,3.173,5.559,9.628h20.1l5.567-9.642Z" transform="translate(-471.453 -236.266)" fill="#8b865c"/>
      <path id="Path_921082" data-name="Path 921082" d="M609.135,181.227c-10.143,1.909-21.7,2.926-33.189,0,0,0,1.249-18.879,14.214-18.491,10.81.324,17.63,10.378,18.975,18.491" transform="translate(-472.697 -133.557)" fill="#d87355"/>
      <path id="Path_921083" data-name="Path 921083" d="M608.756,144.423s-4.776-2.412-6.794-4.625-6.367-3.982-8.861-.661,5.182,5.476,5.182,5.476Z" transform="translate(-486.367 -112.684)" fill="#d87355"/>
      <path id="Path_921084" data-name="Path 921084" d="M662.559,132.943s-.947-11.687,5.105-7.937-1.921,9.688-5.105,7.937" transform="translate(-543.739 -101.986)" fill="#d87355"/>
      <path id="Path_921085" data-name="Path 921085" d="M666.411,137.106a3.917,3.917,0,0,1-2.821-.947.144.144,0,0,1-.037-.132c.061-.279,1.54-6.833,4.4-7.564.992-.253,2.021.222,3.061,1.413,1.723,1.973,1.765,3.975.115,5.494a7.253,7.253,0,0,1-4.718,1.736m-2.559-1.094c1.424,1.358,5.153.92,7.082-.854.892-.821,2.061-2.574-.137-5.092-.963-1.1-1.9-1.548-2.772-1.323-2.532.647-4,6.524-4.172,7.269" transform="translate(-544.596 -105.379)" fill="#d87355"/>
      <path id="Path_921086" data-name="Path 921086" d="M645.364,253.882l-2.18-9.518-6.131,2.345-.656,7.678Z" transform="translate(-522.311 -200.556)" fill="#e2a18d"/>
      <path id="Path_921087" data-name="Path 921087" d="M625.911,293.993c.145,1.063,3.2,1.524,6.819,1.028s6.438-1.758,6.292-2.822-3.2-1.523-6.819-1.028-6.438,1.758-6.292,2.822" transform="translate(-513.701 -238.81)" fill="#e2a18d"/>
      <path id="Path_921088" data-name="Path 921088" d="M616.831,177.041s-2.8,13.841,2.735,16.035c3.349,1.328,7.721-1.637,9.06-3.251s1.519-4.878,1.519-4.878-1.488.72-2.191-.281,1.761-5.147-2.366-6.232-5.1.5-8.756-1.394" transform="translate(-505.672 -145.303)" fill="#e2a18d"/>
      <path id="Path_921089" data-name="Path 921089" d="M642.83,259.4q-.1,0-.2,0a.144.144,0,0,1-.139-.149.148.148,0,0,1,.149-.139,9.308,9.308,0,0,0,5.575-2.059.144.144,0,1,1,.181.225,9.75,9.75,0,0,1-5.569,2.126" transform="translate(-527.316 -210.939)" fill="#363e44"/>
      <path id="Path_921090" data-name="Path 921090" d="M678.517,221.252c-.684.974-.962,3.05.012,3.734s2.832-.282,3.516-1.256a2.155,2.155,0,1,0-3.528-2.477" transform="translate(-556.372 -180.835)" fill="#e2a18d"/>
      <path id="Path_921091" data-name="Path 921091" d="M663.68,208.264c-.011.027,0,.054-.01.08l0,0a6.792,6.792,0,0,0-.008,1.228,3.769,3.769,0,0,0,.143.462c.028.121.055.237.088.355a5.7,5.7,0,0,0,1.811-1.754,6,6,0,0,0-2.022-.373" transform="translate(-544.667 -170.928)" fill="#fff"/>
      <path id="Path_921092" data-name="Path 921092" d="M644.888,208.471a5.32,5.32,0,0,0-2.56,2.067l.031.058a5.311,5.311,0,0,0,3.273.153,4.007,4.007,0,0,0,.764-.347,2.207,2.207,0,0,0-.2-2.128,4.23,4.23,0,0,0-1.3.2" transform="translate(-527.179 -170.936)" fill="#363e44"/>
      <path id="Path_921093" data-name="Path 921093" d="M618.9,207.733a1.906,1.906,0,0,0,.019,1.259,5.788,5.788,0,0,0,2.089.009,5.773,5.773,0,0,0-1.73-2.269,3.239,3.239,0,0,0-.379,1" transform="translate(-507.873 -169.67)" fill="#fff"/>
      <path id="Path_921094" data-name="Path 921094" d="M604,205.34a2.244,2.244,0,0,0,.381-2.253,3.853,3.853,0,0,0-.425-.273,5.363,5.363,0,0,0-3.3-.435,5.363,5.363,0,0,0,2.156,2.54,4.213,4.213,0,0,0,1.19.421" transform="translate(-492.976 -166.023)" fill="#363e44"/>
      <path id="Path_921095" data-name="Path 921095" d="M691.249,229.96a.144.144,0,0,1-.119-.226,1.122,1.122,0,0,0,.1-.168.865.865,0,0,0-.306-1.171.641.641,0,0,0-.293-.059.144.144,0,1,1-.009-.288.938.938,0,0,1,.423.085,1.151,1.151,0,0,1,.447,1.554,1.425,1.425,0,0,1-.12.211.144.144,0,0,1-.119.062" transform="translate(-566.698 -187.165)" fill="#363e44"/>
      <path id="Path_921096" data-name="Path 921096" d="M630.547,221.341a.144.144,0,0,1-.119-.063.8.8,0,0,1,.164-1.194,2.108,2.108,0,0,0,.33-.364,1.748,1.748,0,0,0,.275-.7.144.144,0,1,1,.285.048,2.034,2.034,0,0,1-.321.819,2.374,2.374,0,0,1-.372.412c-.141.131-.234.217-.258.357a.639.639,0,0,0,.137.463.144.144,0,0,1-.119.225" transform="translate(-517.253 -179.654)" fill="#363e44"/>
      <path id="Path_921097" data-name="Path 921097" d="M636.1,240.532a1.236,1.236,0,0,1-.7-.247.144.144,0,1,1,.164-.238.842.842,0,0,0,.708.173,1.181,1.181,0,0,0,.633-.6.144.144,0,1,1,.263.12,1.465,1.465,0,0,1-.819.757.937.937,0,0,1-.248.034" transform="translate(-521.44 -196.595)" fill="#363e44"/>
      <path id="Path_921098" data-name="Path 921098" d="M157.912,521.244H135.571a.145.145,0,0,1-.125-.072l-11.171-19.348a.144.144,0,0,1,0-.144l11.171-19.348a.145.145,0,0,1,.125-.072h22.341a.145.145,0,0,1,.125.072l11.171,19.348a.144.144,0,0,1,0,.144l-11.171,19.348a.145.145,0,0,1-.125.072m-22.258-.289h22.175l11.087-19.2-11.087-19.2H135.654l-11.087,19.2Z" transform="translate(-101.981 -395.805)" fill="#fff"/>
      <path id="Path_921099" data-name="Path 921099" d="M176.931,617.256l-16.29,3.245,5.685,9.848h20.555l5.694-9.862Z" transform="translate(-131.843 -506.601)" fill="#d87355"/>
      <path id="Path_921100" data-name="Path 921100" d="M278.367,567.773a3.446,3.446,0,1,1-3.446-3.446,3.446,3.446,0,0,1,3.446,3.446" transform="translate(-222.808 -463.161)" fill="#363e44"/>
      <path id="Path_921101" data-name="Path 921101" d="M283.438,589.321a3.446,3.446,0,1,1-3.446-3.446,3.446,3.446,0,0,1,3.446,3.446" transform="translate(-226.969 -480.846)" fill="#363e44"/>
      <path id="Path_921102" data-name="Path 921102" d="M214.858,496.654a5.21,5.21,0,0,1,4.862-.546c3.4,1.4,5.408,5.742,4.681,11.134l-16.057.3c-.757-3.408-1.089-6.937.682-9.165,2.287-2.878,5.473-1.711,5.832-1.726" transform="translate(-170.493 -406.87)" fill="#363e44"/>
      <path id="Path_921103" data-name="Path 921103" d="M233.871,584.665h0a4.07,4.07,0,0,0,4.331-3.791l.724-10.9-8.122-.54-.724,10.9a4.07,4.07,0,0,0,3.791,4.331" transform="translate(-188.826 -467.35)" fill="#9e6c5a"/>
      <path id="Path_921104" data-name="Path 921104" d="M216.182,521.989c.092,4.423,3.218,7.944,6.982,7.866s6.74-3.727,6.648-8.15-3.219-7.6-6.982-7.517-6.74,3.379-6.648,7.8" transform="translate(-177.426 -422.008)" fill="#9e6c5a"/>
      <path id="Path_921105" data-name="Path 921105" d="M283.48,542.144a2.393,2.393,0,1,0,3.482-1.076,2.594,2.594,0,0,0-3.482,1.076" transform="translate(-232.255 -443.808)" fill="#9e6c5a"/>
      <path id="Path_921106" data-name="Path 921106" d="M202.481,543.9a2.393,2.393,0,1,1-3.524-.93,2.594,2.594,0,0,1,3.524.93" transform="translate(-162.535 -445.332)" fill="#9e6c5a"/>
      <path id="Path_921107" data-name="Path 921107" d="M236.259,593.771a6.261,6.261,0,0,1-3.919-1.409.144.144,0,0,1,.18-.226,5.976,5.976,0,0,0,3.74,1.347h.121a5.972,5.972,0,0,0,3.862-1.559.144.144,0,1,1,.191.216,6.257,6.257,0,0,1-4.048,1.631h-.127" transform="translate(-190.645 -485.779)" fill="#363e44"/>
      <path id="Path_921108" data-name="Path 921108" d="M215.965,562.07a.144.144,0,0,1-.14-.108,9.434,9.434,0,0,1-.262-1.555.144.144,0,1,1,.287-.024,9.137,9.137,0,0,0,.254,1.507.144.144,0,0,1-.1.176.14.14,0,0,1-.036,0" transform="translate(-176.919 -459.815)" fill="#363e44"/>
      <path id="Path_921109" data-name="Path 921109" d="M290.491,559.2l-.03,0a.144.144,0,0,1-.112-.171,9.194,9.194,0,0,0,.191-1.751.141.141,0,0,1,.146-.143.144.144,0,0,1,.142.146,9.462,9.462,0,0,1-.2,1.806.145.145,0,0,1-.141.115" transform="translate(-238.297 -457.257)" fill="#363e44"/>
      <path id="Path_921110" data-name="Path 921110" d="M250.224,562.122a.144.144,0,0,1-.079-.024.834.834,0,0,1-.433-.59.728.728,0,0,1,.151-.467.956.956,0,0,0,.162-.389.873.873,0,0,0-.074-.463.144.144,0,1,1,.265-.114,1.155,1.155,0,0,1,.1.616,1.225,1.225,0,0,1-.2.5.475.475,0,0,0-.11.289c.011.123.114.249.305.376a.144.144,0,0,1-.08.265" transform="translate(-204.944 -459.599)" fill="#363e44"/>
      <path id="Path_921111" data-name="Path 921111" d="M257.638,574.132h-.012a.144.144,0,0,1,0-.289h.012a1.738,1.738,0,0,0,1.038-.34,1.7,1.7,0,0,0,.5-.6.144.144,0,0,1,.259.128,1.991,1.991,0,0,1-.582.7,2.029,2.029,0,0,1-1.211.4" transform="translate(-211.324 -470.132)" fill="#363e44"/>
      <path id="Path_921112" data-name="Path 921112" d="M215.68,547.127a5.488,5.488,0,0,1-2.187-.494c-1.877-.832-3-2.43-2.493-3.562a1.944,1.944,0,0,1,1.676-1.019,5.651,5.651,0,0,1,4.761,2.11,1.944,1.944,0,0,1,.371,1.926,2.18,2.18,0,0,1-2.126,1.039m-2.561-4.811a3.626,3.626,0,0,0-.411.023,1.674,1.674,0,0,0-1.445.849c-.437.987.615,2.414,2.347,3.181s3.5.589,3.933-.4a1.674,1.674,0,0,0-.342-1.641,4.926,4.926,0,0,0-2.005-1.54,5.22,5.22,0,0,0-2.077-.474" transform="translate(-173.076 -444.859)" fill="#363e44"/>
      <path id="Path_921113" data-name="Path 921113" d="M258.841,546.155a2.18,2.18,0,0,1-2.127-1.039c-.5-1.132.617-2.73,2.494-3.562a5.221,5.221,0,0,1,2.638-.474,1.719,1.719,0,0,1,1.305,2.945,5.221,5.221,0,0,1-2.123,1.636,5.488,5.488,0,0,1-2.187.493M256.978,545c.437.987,2.2,1.165,3.933.4a4.932,4.932,0,0,0,2.005-1.54,1.438,1.438,0,0,0-1.1-2.49,4.932,4.932,0,0,0-2.488.451c-1.731.767-2.784,2.194-2.347,3.181" transform="translate(-210.595 -444.061)" fill="#363e44"/>
      <path id="Path_921114" data-name="Path 921114" d="M250.059,559.9H248.7a.144.144,0,1,1,0-.289h1.36a.144.144,0,0,1,0,.289" transform="translate(-203.997 -459.288)" fill="#363e44"/>
      <path id="Path_921115" data-name="Path 921115" d="M290.712,611.036a2.948,2.948,0,1,1-2.948-2.948,2.948,2.948,0,0,1,2.948,2.948" transform="translate(-233.757 -499.077)" fill="#363e44"/>
      <path id="Path_921116" data-name="Path 921116" d="M295.782,632.584a2.948,2.948,0,1,1-2.948-2.948,2.948,2.948,0,0,1,2.948,2.948" transform="translate(-237.918 -516.762)" fill="#363e44"/>
      <path id="Path_921117" data-name="Path 921117" d="M300.239,654.056a2.411,2.411,0,1,1-2.411-2.411,2.411,2.411,0,0,1,2.411,2.411" transform="translate(-242.458 -534.825)" fill="#363e44"/>
      <path id="Path_921118" data-name="Path 921118" d="M288.49,662.634l-4.581,7.934h9.161Z" transform="translate(-233.013 -543.844)" fill="#363e44"/>
      <path id="Path_921119" data-name="Path 921119" d="M264.882,549.956h0l-.018,0c-.009.037-.034.084-.073.083a1.114,1.114,0,0,0-.1.2c-.057.106-.218.012-.162-.094.038-.072-.216.066-.327.108-.355.137-.715.258-1.08.367-.17.051-.34.1-.512.149a4.447,4.447,0,0,1-.628.158,4.638,4.638,0,0,0-.719.826,4.783,4.783,0,0,0,1.524.34c0-.011.005-.023.007-.034a7.285,7.285,0,0,1,2.054-.5,4.774,4.774,0,0,0,1.32-1.289,4.748,4.748,0,0,0-1.287-.321" transform="translate(-214.427 -451.365)" fill="#fff"/>
      <path id="Path_921120" data-name="Path 921120" d="M266.727,549.965a3.814,3.814,0,0,0-1.448.859,1.546,1.546,0,0,0,.528.99,1.566,1.566,0,0,0,.25.175,3.575,3.575,0,0,0,1.24-.133,3.4,3.4,0,0,0,.834-.388,1.555,1.555,0,0,0,.029-1.62,3.675,3.675,0,0,0-1.433.117" transform="translate(-217.723 -451.259)" fill="#363e44"/>
      <path id="Path_921121" data-name="Path 921121" d="M221.388,550.733h0l.018,0c.01.037.034.084.073.083a1.135,1.135,0,0,1,.1.2c.057.107.218.012.162-.095-.038-.072.216.065.327.108.355.136.716.257,1.08.366.17.051.34.1.512.148a4.43,4.43,0,0,0,.629.158,4.644,4.644,0,0,1,.72.825,4.78,4.78,0,0,1-1.523.341c0-.011-.005-.023-.007-.035a7.289,7.289,0,0,0-2.055-.494,4.772,4.772,0,0,1-1.322-1.287,4.743,4.743,0,0,1,1.287-.323" transform="translate(-180.644 -452.003)" fill="#fff"/>
      <path id="Path_921122" data-name="Path 921122" d="M227.838,550.739a3.815,3.815,0,0,1,1.449.857,1.547,1.547,0,0,1-.527.991,1.571,1.571,0,0,1-.25.175,3.576,3.576,0,0,1-1.241-.131,3.408,3.408,0,0,1-.834-.387,1.555,1.555,0,0,1-.031-1.62,3.671,3.671,0,0,1,1.433.115" transform="translate(-185.643 -451.895)" fill="#363e44"/>
      <path id="Path_921123" data-name="Path 921123" d="M649.318,445.448H630.079a.144.144,0,0,1-.125-.072l-9.62-16.662a.144.144,0,0,1,0-.144l9.62-16.662a.144.144,0,0,1,.125-.072h19.239a.145.145,0,0,1,.125.072l9.619,16.662a.144.144,0,0,1,0,.144l-9.619,16.662a.145.145,0,0,1-.125.072m-19.156-.289h19.073l9.536-16.518-9.536-16.517H630.162l-9.537,16.517Z" transform="translate(-509.112 -338.006)" fill="#fff"/>
      <path id="Path_921124" data-name="Path 921124" d="M665.788,528.2,651.759,531l4.9,8.481h17.7l4.9-8.493Z" transform="translate(-534.92 -433.511)" fill="#8b865c"/>
      <path id="Path_921125" data-name="Path 921125" d="M689.3,405.638a4.845,4.845,0,0,0-2.722.713l1.11,3.413-1.863-2.277c-1,2.521.235,6.818.567,7.838a9.424,9.424,0,0,0,3.522,5.284,7.344,7.344,0,0,0,7.738.48c3.289-1.964,3.306-6.041,3.309-6.778.017-4.144-6.086-8.672-11.662-8.672" transform="translate(-562.56 -332.919)" fill="#363e44"/>
      <path id="Path_921126" data-name="Path 921126" d="M712.243,510.932h0l3.793-4.553.344-7.472-8.127-.377-.339,7.481Z" transform="translate(-581.007 -409.159)" fill="#bc8271"/>
      <path id="Path_921127" data-name="Path 921127" d="M695.835,447.031c.16,3.4,2.179,8.689,6.564,8.483s5.9-5.665,5.737-9.062-3.071-5.129-6.468-4.969-5.994,2.152-5.833,5.548" transform="translate(-571.088 -362.33)" fill="#bc8271"/>
      <path id="Path_921128" data-name="Path 921128" d="M756.3,468.8c-.522,1.343-.219,2.714.677,3.062s2.044-.459,2.566-1.8.219-2.714-.677-3.062-2.044.459-2.566,1.8" transform="translate(-620.51 -383.209)" fill="#bc8271"/>
      <path id="Path_921129" data-name="Path 921129" d="M687.766,472.251c.646,1.288.473,2.681-.386,3.112s-2.078-.265-2.724-1.553-.473-2.681.386-3.112,2.078.265,2.724,1.553" transform="translate(-561.598 -386.211)" fill="#bc8271"/>
      <path id="Path_921130" data-name="Path 921130" d="M689.518,478.979a.144.144,0,0,1-.072-.019,2.077,2.077,0,0,1-.961-1.918.952.952,0,0,1,.486-.775.777.777,0,0,1,.176-.063.144.144,0,0,1,.064.281.486.486,0,0,0-.111.04.674.674,0,0,0-.329.553,1.791,1.791,0,0,0,.818,1.632.144.144,0,0,1-.071.27" transform="translate(-565.052 -390.832)" fill="#363e44"/>
      <path id="Path_921131" data-name="Path 921131" d="M766.982,475.43a.144.144,0,0,1-.083-.262,1.792,1.792,0,0,0,.661-1.7.674.674,0,0,0-.379-.519.5.5,0,0,0-.115-.029.144.144,0,0,1,.037-.286.774.774,0,0,1,.182.046.95.95,0,0,1,.557.726,2.077,2.077,0,0,1-.776,2,.143.143,0,0,1-.083.026" transform="translate(-629.368 -387.902)" fill="#363e44"/>
      <path id="Path_921132" data-name="Path 921132" d="M696.149,478.476a.144.144,0,0,1-.136-.1,13,13,0,0,1-.661-2.878.144.144,0,0,1,.128-.159.146.146,0,0,1,.159.128,12.7,12.7,0,0,0,.647,2.813.145.145,0,0,1-.088.184.148.148,0,0,1-.048.008" transform="translate(-570.697 -390.128)" fill="#363e44"/>
      <path id="Path_921133" data-name="Path 921133" d="M761.255,474.461a.152.152,0,0,1-.039-.005.144.144,0,0,1-.1-.178,12.678,12.678,0,0,0,.466-3.436.144.144,0,1,1,.289,0,12.975,12.975,0,0,1-.477,3.516.144.144,0,0,1-.139.105" transform="translate(-624.668 -386.315)" fill="#363e44"/>
      <path id="Path_921134" data-name="Path 921134" d="M697.94,470.436a4.7,4.7,0,0,0,.916.823,3.26,3.26,0,0,0,1.5.147,4.452,4.452,0,0,0,1.8.319,4.5,4.5,0,0,0,.829-.348,4.312,4.312,0,0,0-.518-.517c-.412-.353-1.993-.268-1.993-.268s-1.1-.678-1.589-.537a4.582,4.582,0,0,0-.938.381" transform="translate(-572.822 -385.773)" fill="#fff"/>
      <path id="Path_921135" data-name="Path 921135" d="M704.406,469.229a4.012,4.012,0,0,1,1.814.921,1.857,1.857,0,0,1-.305.869,3.926,3.926,0,0,1-1.872.153,3.74,3.74,0,0,1-1.429-.624,1.84,1.84,0,0,1,.027-1.2,3.854,3.854,0,0,1,1.764-.121" transform="translate(-576.587 -385.066)" fill="#363e44"/>
      <path id="Path_921136" data-name="Path 921136" d="M739.626,470.764a4.755,4.755,0,0,1-1.051.9c-.362.228-1.378-.062-1.378-.062s-1.21.593-1.7.445a4.557,4.557,0,0,1-.919-.384,4.3,4.3,0,0,1,.512-.5,4.627,4.627,0,0,1,1.922-.354s1.205-.572,1.694-.424a4.564,4.564,0,0,1,.918.383" transform="translate(-602.893 -386.036)" fill="#fff"/>
      <path id="Path_921137" data-name="Path 921137" d="M737.422,470.408a4.032,4.032,0,0,1,1.84-.921,3.863,3.863,0,0,1,1.771.139,1.84,1.84,0,0,1-.078,1.174c-.016.039-.035.075-.053.113a3.647,3.647,0,0,1-1.293.52,3.862,3.862,0,0,1-1.771-.139,1.858,1.858,0,0,1-.415-.886" transform="translate(-605.226 -385.283)" fill="#363e44"/>
      <path id="Path_921138" data-name="Path 921138" d="M713.13,509.4a6.138,6.138,0,0,1-3.922-1.868.144.144,0,0,1,.192-.216,5.671,5.671,0,0,0,3.95,1.788,5.818,5.818,0,0,0,3.776-2.243.144.144,0,0,1,.213.2,6.162,6.162,0,0,1-3.971,2.336c-.08.005-.159.007-.237.007" transform="translate(-582.031 -415.956)" fill="#363e44"/>
      <path id="Path_921139" data-name="Path 921139" d="M727.59,483.547a.142.142,0,0,1-.062-.014.922.922,0,0,1-.579-.595.772.772,0,0,1,.133-.539,1.868,1.868,0,0,0,.171-.4,1.551,1.551,0,0,0,0-.765.144.144,0,0,1,.281-.066,1.837,1.837,0,0,1-.005.906,2.13,2.13,0,0,1-.195.461c-.083.157-.126.244-.105.346.028.14.17.272.42.392a.144.144,0,0,1-.062.275" transform="translate(-596.622 -394.817)" fill="#363e44"/>
      <path id="Path_921140" data-name="Path 921140" d="M731.807,497.381a1.11,1.11,0,0,1-.464-.1.144.144,0,0,1,.12-.262.924.924,0,0,0,.841-.067.817.817,0,0,0,.335-.38.144.144,0,0,1,.267.11,1.108,1.108,0,0,1-.452.516,1.259,1.259,0,0,1-.647.179" transform="translate(-600.168 -407.481)" fill="#363e44"/>
      <path id="Path_921141" data-name="Path 921141" d="M374.472,13.626h-21.82l-10.91,18.9,10.91,18.9h21.82l10.91-18.9Z" transform="translate(-280.479 -11.182)" fill="#efbc73"/>
      <path id="Path_921142" data-name="Path 921142" d="M392.4,144.685l-15.91,3.169,5.553,9.618H402.12l5.561-9.632Z" transform="translate(-308.999 -118.747)" fill="#fff"/>
      <rect id="Rectangle_408730" data-name="Rectangle 408730" width="13.504" height="10.546" transform="translate(75.253 5.084) rotate(-5.88)" fill="#363e44"/>
      <path id="Path_921143" data-name="Path 921143" d="M442.859,115.313h0c2.257-.233,4.029-2.4,4.128-5.044l.307-8.222-8.943-.337-.3,8.231c-.115,3.133,2.137,5.648,4.81,5.372" transform="translate(-359.517 -83.476)" fill="#84524d"/>
      <path id="Path_921144" data-name="Path 921144" d="M424.119,44.923c.209,3.735,2.48,9.536,7.3,9.267s6.432-6.288,6.223-10.023-3.427-5.612-7.161-5.4-6.571,2.424-6.363,6.159" transform="translate(-348.079 -31.801)" fill="#84524d"/>
      <path id="Path_921145" data-name="Path 921145" d="M490.742,68.453c-.561,1.482-.214,2.987.774,3.361s2.244-.525,2.8-2.007.214-2.987-.774-3.361-2.244.525-2.8,2.007" transform="translate(-402.547 -54.464)" fill="#84524d"/>
      <path id="Path_921146" data-name="Path 921146" d="M415.329,72.96c.722,1.411.546,2.945-.395,3.426s-2.288-.271-3.011-1.682-.546-2.945.395-3.426,2.289.271,3.011,1.682" transform="translate(-337.713 -58.38)" fill="#84524d"/>
      <path id="Path_921147" data-name="Path 921147" d="M417.369,80.422a.144.144,0,0,1-.07-.018,2.128,2.128,0,0,1-.824-.895c-.424-.828-.3-1.742.275-2.037a.862.862,0,0,1,.19-.07.144.144,0,1,1,.067.281.563.563,0,0,0-.125.046c-.434.222-.5.962-.15,1.649a1.84,1.84,0,0,0,.708.774.144.144,0,0,1-.07.27" transform="translate(-341.607 -63.522)" fill="#363e44"/>
      <path id="Path_921148" data-name="Path 921148" d="M502.595,75.792a.144.144,0,0,1-.084-.262,1.985,1.985,0,0,0,.716-1.892.756.756,0,0,0-.431-.578.568.568,0,0,0-.13-.032.144.144,0,0,1,.035-.286.85.85,0,0,1,.2.049,1.032,1.032,0,0,1,.61.783,2.271,2.271,0,0,1-.829,2.192.144.144,0,0,1-.084.027" transform="translate(-412.377 -59.7)" fill="#363e44"/>
      <path id="Path_921149" data-name="Path 921149" d="M424.607,79.829a.144.144,0,0,1-.135-.095,14.285,14.285,0,0,1-.755-3.155.144.144,0,1,1,.287-.034,13.981,13.981,0,0,0,.739,3.091.144.144,0,0,1-.086.185.148.148,0,0,1-.049.009" transform="translate(-347.757 -62.718)" fill="#363e44"/>
      <path id="Path_921150" data-name="Path 921150" d="M496.332,74.766a.144.144,0,0,1-.139-.182,13.977,13.977,0,0,0,.48-3.788.144.144,0,0,1,.142-.147h0a.144.144,0,0,1,.144.142,14.261,14.261,0,0,1-.49,3.868.145.145,0,0,1-.139.106" transform="translate(-407.237 -57.984)" fill="#363e44"/>
      <path id="Path_921151" data-name="Path 921151" d="M443.565,113.328a6.773,6.773,0,0,1-4.284-2.013.144.144,0,1,1,.19-.217,6.26,6.26,0,0,0,4.372,1.932,6.411,6.411,0,0,0,4.141-2.509.144.144,0,1,1,.214.193,6.767,6.767,0,0,1-4.335,2.6c-.1.007-.2.01-.3.01" transform="translate(-360.491 -90.668)" fill="#363e44"/>
      <path id="Path_921152" data-name="Path 921152" d="M459.309,85.091a.142.142,0,0,1-.061-.014,1,1,0,0,1-.634-.639.838.838,0,0,1,.14-.584,2.052,2.052,0,0,0,.185-.446,1.718,1.718,0,0,0,0-.849.144.144,0,0,1,.281-.068,2,2,0,0,1,0,.99,2.328,2.328,0,0,1-.208.506c-.092.176-.138.274-.113.392.034.159.193.306.474.437a.144.144,0,0,1-.061.275" transform="translate(-376.389 -67.612)" fill="#363e44"/>
      <path id="Path_921153" data-name="Path 921153" d="M464.234,99.4h-.054a.144.144,0,0,1,.014-.288,1.035,1.035,0,0,0,.844-.418.912.912,0,0,0,.19-.533.144.144,0,0,1,.144-.143h0a.145.145,0,0,1,.143.146,1.206,1.206,0,0,1-.248.7,1.335,1.335,0,0,1-1.035.534" transform="translate(-380.855 -80.448)" fill="#363e44"/>
      <path id="Path_921154" data-name="Path 921154" d="M417.012,26.039a1.994,1.994,0,1,1-1.154-2.573,1.994,1.994,0,0,1,1.154,2.573" transform="translate(-339.088 -19.151)" fill="#363e44"/>
      <path id="Path_921155" data-name="Path 921155" d="M483.539,20.9a2.435,2.435,0,1,1-1.409-3.142,2.435,2.435,0,0,1,1.409,3.142" transform="translate(-392.989 -14.444)" fill="#363e44"/>
      <path id="Path_921156" data-name="Path 921156" d="M421.168,10.365a2.435,2.435,0,1,1-1.409-3.142,2.435,2.435,0,0,1,1.409,3.142" transform="translate(-341.799 -5.796)" fill="#363e44"/>
      <path id="Path_921157" data-name="Path 921157" d="M475.928,11.448a1.535,1.535,0,1,1-.888-1.981,1.535,1.535,0,0,1,.888,1.981" transform="translate(-388.172 -7.686)" fill="#363e44"/>
      <path id="Path_921158" data-name="Path 921158" d="M455.6,8.95a2.435,2.435,0,1,1-1.409-3.142A2.435,2.435,0,0,1,455.6,8.95" transform="translate(-370.061 -4.635)" fill="#363e44"/>
      <path id="Path_921159" data-name="Path 921159" d="M446.41,28.854A2.435,2.435,0,1,1,445,25.712a2.435,2.435,0,0,1,1.409,3.142" transform="translate(-362.516 -20.971)" fill="#363e44"/>
      <path id="Path_921160" data-name="Path 921160" d="M437.579,3.3A2.435,2.435,0,1,1,436.169.155,2.435,2.435,0,0,1,437.579,3.3" transform="translate(-355.268 0.004)" fill="#363e44"/>
      <path id="Path_921161" data-name="Path 921161" d="M434.266,43.1a1.535,1.535,0,1,1-.888-1.981,1.535,1.535,0,0,1,.888,1.981" transform="translate(-353.979 -33.668)" fill="#363e44"/>
      <path id="Path_921162" data-name="Path 921162" d="M472.564,69.613h-.018c-.007.039-.028.089-.068.091a1.161,1.161,0,0,0-.086.217c-.049.113-.222.03-.173-.084.033-.076-.215.084-.326.137-.352.168-.71.32-1.073.461-.169.066-.339.133-.511.193a4.55,4.55,0,0,1-.629.212,4.751,4.751,0,0,0-.668.9,4.891,4.891,0,0,0,1.583.226c0-.012,0-.024,0-.036a7.461,7.461,0,0,1,2.058-.669,4.888,4.888,0,0,0,1.246-1.421,4.857,4.857,0,0,0-1.34-.226" transform="translate(-384.934 -57.133)" fill="#fff"/>
      <path id="Path_921163" data-name="Path 921163" d="M474.155,69.841a3.908,3.908,0,0,0-1.41.992,1.586,1.586,0,0,0,.887,1.128,3.668,3.668,0,0,0,1.256-.234,3.494,3.494,0,0,0,.82-.463,1.592,1.592,0,0,0-.1-1.656,3.765,3.765,0,0,0-1.454.233" transform="translate(-387.997 -57.127)" fill="#363e44"/>
      <path id="Path_921164" data-name="Path 921164" d="M427.683,74.7h0l.018,0c.013.037.042.083.082.079a1.159,1.159,0,0,1,.118.2c.066.1.224-.005.158-.109-.045-.07.226.049.343.084.374.111.751.205,1.132.288.178.039.356.078.535.111a4.553,4.553,0,0,0,.654.111,4.757,4.757,0,0,1,.8.785,4.9,4.9,0,0,1-1.528.47c0-.012-.007-.023-.01-.035a7.468,7.468,0,0,0-2.137-.341,4.887,4.887,0,0,1-1.452-1.209,4.856,4.856,0,0,1,1.288-.432" transform="translate(-349.956 -61.306)" fill="#fff"/>
      <path id="Path_921165" data-name="Path 921165" d="M434.423,74.376a3.906,3.906,0,0,1,1.547.76,1.584,1.584,0,0,1-.7,1.252,3.66,3.66,0,0,1-1.277-.036,3.49,3.49,0,0,1-.883-.329,1.591,1.591,0,0,1-.16-1.651,3.763,3.763,0,0,1,1.472,0" transform="translate(-355.206 -60.98)" fill="#363e44"/>
      <path id="Path_921166" data-name="Path 921166" d="M856.289,961.205v-23h65.255v23a105.285,105.285,0,0,1,10.909,47.379v123.344H845.38V1008.584A105.285,105.285,0,0,1,856.289,961.205Z" transform="translate(-693.83 -770.016)" fill="#050c68"/>
      <path id="Path_921167" data-name="Path 921167" d="M925.657,348.337c1.355-8.038,7.973-13.867,12.494-17.849a65.281,65.281,0,0,0,6.032-5.561c3.776-4.081,4.265-6.094,7.85-6.933,7.133-1.67,14.266,4.172,15.469,5.156,7.054,5.776,5.957,11.73,10.709,13.287,5.367,1.759,9.177-5.046,18.245-8.924,9.728-4.161,24.863-4.677,34.111,3.372,6.408,5.577,9.237,14.612,8.981,23.5-2.5-3.259-7.042-7.716-13.578-8.491,0,0,10.265,5.178,12.541,16.3-1.376,5.681-4.072,10.813-7.944,14.307-1.6,1.44-5.713,4.7-25.583,5.751-10.81.573-13.294-.383-57.71-8.131-4.029-.7-9.585-1.667-14.364-6.07-4.884-4.5-8.52-12.191-7.253-19.711" transform="translate(-759.508 -260.742)" fill="#634419"/>
      <path id="Path_921168" data-name="Path 921168" d="M1146.542,429.514a8.479,8.479,0,0,1-6.3-2.457.179.179,0,0,1,.262-.245c2.443,2.608,6.543,2.776,9.523,1.785,3.247-1.08,5.9-3.316,8.562-5.708.934-.84,1.877-1.7,2.788-2.537a117.818,117.818,0,0,1,10.756-9.082c5.561-3.979,11.048-6.326,16.31-6.975,6.392-.788,12.634,1.057,16.7,4.936a.179.179,0,0,1-.247.259c-3.986-3.806-10.118-5.615-16.406-4.839-5.2.642-10.633,2.966-16.145,6.91a117.576,117.576,0,0,0-10.723,9.055c-.912.835-1.856,1.7-2.79,2.539-2.688,2.418-5.375,4.68-8.689,5.782a11.556,11.556,0,0,1-3.6.577" transform="translate(-935.797 -331.671)" fill="#fff"/>
      <path id="Path_921169" data-name="Path 921169" d="M1162.028,518.165a16.774,16.774,0,0,1-9.021-2.612.179.179,0,1,1,.194-.3,16.439,16.439,0,0,0,13.346,1.913c3.747-1.1,6.976-3.522,10.1-5.862.568-.426,1.155-.866,1.734-1.289,3.405-2.491,7.938-5.327,12.816-5.162a.179.179,0,1,1-.012.358c-4.742-.163-9.025,2.484-12.592,5.094-.578.423-1.164.862-1.731,1.287-3.148,2.359-6.4,4.8-10.212,5.919a16.388,16.388,0,0,1-4.619.657" transform="translate(-946.242 -414.34)" fill="#fff"/>
      <path id="Path_921170" data-name="Path 921170" d="M658.936,643.742v37.586c-20.426,4.667-46.9,8.486-51.177-6.1-4.265-14.529,31.477-25.611,51.177-31.488" transform="translate(-498.52 -528.339)" fill="#e2a18d"/>
      <path id="Path_921171" data-name="Path 921171" d="M458.021,460.829s0,0,0,0c-16.738-26.2-28.111-45.118-31.852-50.818a12.553,12.553,0,0,0-2.31-2.734c-4.562-4-9.291-1.915-16.009-3.936-7.623-2.293-10.617-7.9-12.319-6.788-1.184.773-.65,3.206,2.158,7.368h0c-2.5-2.917-6.055-6.724-7.663-5.34-1.771,1.7,1.884,6.662,4.243,9.558-2.854-3.5-5.421-4.514-6.125-3.519-1.108,1.567.472,4.8,4.425,9.285h0c-3.594-2.335-4.814-2.365-5.222-1.334-.745,1.883,2.574,5.51,6,8.266a25.38,25.38,0,0,0,10.5,4.784h0c9.82,19.569,16.994,31.773,23.719,48.131,4.286,10.425,29.056,4.074,30.451-12.923" transform="translate(-317.822 -325.343)" fill="#e2a18d"/>
      <path id="Path_921172" data-name="Path 921172" d="M751.1,705.724a.179.179,0,0,1-.151-.083c-2.284-3.577-4.625-7.264-6.958-10.96a.179.179,0,0,1,.3-.191c2.333,3.7,4.674,7.383,6.957,10.959a.179.179,0,0,1-.151.276" transform="translate(-610.591 -569.921)" fill="#363e44"/>
      <path id="Path_921173" data-name="Path 921173" d="M519.173,403.611c-3.807-6.895-3.719-10.189-2.606-10.757,1.87-.956,7.529,3.6,14.362,12.976-3.331-.325-8.425-1.895-11.756-2.219" transform="translate(-423.414 -322.324)" fill="#e2a18d"/>
      <path id="Path_921174" data-name="Path 921174" d="M489.22,501.585a.179.179,0,0,1-.157-.093A9.935,9.935,0,0,0,485,497.478a10.218,10.218,0,0,0-7.186-.8.179.179,0,0,1-.09-.347,10.582,10.582,0,0,1,7.443.83,10.294,10.294,0,0,1,4.209,4.158.179.179,0,0,1-.157.266" transform="translate(-391.974 -407.084)" fill="#363e44"/>
      <path id="Path_921175" data-name="Path 921175" d="M534.32,441.918a.177.177,0,0,1-.054-.008,22.044,22.044,0,0,0-5.182-.753c-.871-.059-1.771-.119-2.715-.224a.179.179,0,0,1-.158-.2.181.181,0,0,1,.2-.158c.936.1,1.833.165,2.7.223a22.3,22.3,0,0,1,5.266.769.179.179,0,0,1-.054.35" transform="translate(-431.877 -361.593)" fill="#363e44"/>
      <path id="Path_921176" data-name="Path 921176" d="M451.9,441.246a.181.181,0,0,1-.058-.01,15.723,15.723,0,0,1-5.991-3.745.179.179,0,1,1,.253-.254,15.37,15.37,0,0,0,5.854,3.659.179.179,0,0,1-.058.349" transform="translate(-365.883 -358.812)" fill="#363e44"/>
      <path id="Path_921177" data-name="Path 921177" d="M430.849,462.168a.18.18,0,0,1-.058-.01,15.731,15.731,0,0,1-5.99-3.745.179.179,0,1,1,.253-.254,15.368,15.368,0,0,0,5.854,3.659.179.179,0,0,1-.059.349" transform="translate(-348.604 -375.982)" fill="#363e44"/>
      <path id="Path_921178" data-name="Path 921178" d="M422.669,497.336a.18.18,0,0,1-.058-.01,15.728,15.728,0,0,1-5.991-3.745.179.179,0,1,1,.253-.254,15.369,15.369,0,0,0,5.854,3.659.179.179,0,0,1-.058.349" transform="translate(-341.89 -404.847)" fill="#363e44"/>
      <path id="Path_921179" data-name="Path 921179" d="M574.062,558.473l-28.511,10.345-16.263-23.97-27.293,12.735,17.672,37.163a25.033,25.033,0,0,0,26.913,13.91l40.309-7.039Z" transform="translate(-412.003 -447.174)" fill="#fff"/>
      <path id="Path_921180" data-name="Path 921180" d="M692.269,687.979a.179.179,0,0,1-.09-.334l7.8-4.507a.179.179,0,1,1,.179.31l-7.8,4.507a.18.18,0,0,1-.089.024" transform="translate(-568.02 -560.652)" fill="#363e44"/>
      <path id="Path_921181" data-name="Path 921181" d="M556.418,661.83A3.394,3.394,0,1,0,560.026,665a3.394,3.394,0,0,0-3.608-3.166" transform="translate(-454.066 -543.179)" fill="#f2e6dc"/>
      <path id="Path_921182" data-name="Path 921182" d="M534.261,615.21a3.394,3.394,0,1,0,3.608,3.166,3.394,3.394,0,0,0-3.608-3.166" transform="translate(-435.881 -504.916)" fill="#f2e6dc"/>
      <path id="Path_921183" data-name="Path 921183" d="M1358.111,730.624l-18.025-27.906L1357,668.1s35.178,39.048,36.536,59.413-35.424,3.115-35.424,3.115" transform="translate(-1099.852 -548.327)" fill="#fff"/>
      <path id="Path_921184" data-name="Path 921184" d="M974.075,625.247h0a36.846,36.846,0,0,0-23.609-9.359l-76.944.312,6.405,64.513,70.832,1.007Z" transform="translate(-716.927 -505.478)" fill="#fff"/>
      <path id="Path_921185" data-name="Path 921185" d="M938.98,825.3a12.633,12.633,0,0,1-10.9-6.293.179.179,0,1,1,.31-.18,12.225,12.225,0,0,0,21.177,0,.179.179,0,1,1,.31.18,12.633,12.633,0,0,1-10.9,6.293" transform="translate(-761.686 -671.96)" fill="#363e44"/>
      <path id="Path_921186" data-name="Path 921186" d="M1122.284,825.3a12.634,12.634,0,0,1-10.9-6.293.179.179,0,0,1,.31-.18,12.226,12.226,0,0,0,21.177,0,.179.179,0,1,1,.31.18,12.633,12.633,0,0,1-10.9,6.293" transform="translate(-912.129 -671.96)" fill="#363e44"/>
      <rect id="Rectangle_408731" data-name="Rectangle 408731" width="63.281" height="80.744" transform="matrix(0.847, -0.532, 0.532, 0.847, 174.262, 174.455)" fill="#f6ae5c"/>
      <path id="Path_921187" data-name="Path 921187" d="M1109.122,917.869a.179.179,0,0,1-.1-.331l20.879-13.116a.179.179,0,0,1,.191.3l-20.879,13.116a.179.179,0,0,1-.1.027" transform="translate(-910.145 -742.265)" fill="#363e44"/>
      <path id="Path_921188" data-name="Path 921188" d="M1142.808,971.493a.179.179,0,0,1-.1-.331l20.879-13.116a.179.179,0,1,1,.191.3L1142.9,971.466a.178.178,0,0,1-.1.027" transform="translate(-937.792 -786.276)" fill="#363e44"/>
      <path id="Path_921189" data-name="Path 921189" d="M1139.371,950.083a.179.179,0,0,1-.1-.331l16.073-10.1a.179.179,0,0,1,.191.3l-16.073,10.1a.178.178,0,0,1-.1.027" transform="translate(-934.971 -771.182)" fill="#363e44"/>
      <path id="Path_921190" data-name="Path 921190" d="M1126.759,958.343c-14.315,5.775-48.7,17.707-52.01,19.006-6.188,2.427-19.518,7.233-18.763,11.731a4.694,4.694,0,0,0,3.219,3.39,4.747,4.747,0,0,0-.025,5.25,4.965,4.965,0,0,0,4,2.015,3.982,3.982,0,0,0-.846,3.952,4.17,4.17,0,0,0,5.06,2.254,4.66,4.66,0,0,0,.542,3.329,4.892,4.892,0,0,0,4.971,2.056c5.5-2.152,14.62-4.105,25.386-7.107,25.286-7.049,36.266-11.253,47.864-16.87a20.82,20.82,0,0,0,11.665-19.379c-10.431-3.256-20.632-6.37-31.063-9.626" transform="translate(-866.656 -786.542)" fill="#e2a18d"/>
      <path id="Path_921191" data-name="Path 921191" d="M1102.583,1108.825a.18.18,0,0,1-.162-.1l-1.244-2.647a.179.179,0,1,1,.325-.152l1.244,2.647a.179.179,0,0,1-.086.238.175.175,0,0,1-.076.017" transform="translate(-903.757 -907.581)" fill="#363e44"/>
      <path id="Path_921192" data-name="Path 921192" d="M1120.141,1146.317a.179.179,0,0,1-.162-.1l-1.244-2.647a.179.179,0,0,1,.325-.153l1.244,2.647a.179.179,0,0,1-.162.255" transform="translate(-918.167 -938.352)" fill="#363e44"/>
      <path id="Path_921193" data-name="Path 921193" d="M1137.6,1184.691a.18.18,0,0,1-.163-.1l-1.244-2.647a.179.179,0,0,1,.325-.153l1.244,2.647a.179.179,0,0,1-.162.256" transform="translate(-932.496 -969.847)" fill="#363e44"/>
      <path id="Path_921194" data-name="Path 921194" d="M1154.149,1219.167a.18.18,0,0,1-.162-.1l-1.244-2.647a.179.179,0,1,1,.325-.152l1.244,2.647a.179.179,0,0,1-.086.238.177.177,0,0,1-.076.017" transform="translate(-946.079 -998.142)" fill="#363e44"/>
      <path id="Path_921195" data-name="Path 921195" d="M1306.136,934.974l13.526,34.7s50.837-11.766,46.01-36.2l-24.461-14.427Z" transform="translate(-1071.988 -754.283)" fill="#fff"/>
      <path id="Path_921196" data-name="Path 921196" d="M1437.965,1109.7a3.394,3.394,0,1,0,3.394-3.394,3.394,3.394,0,0,0-3.394,3.394" transform="translate(-1180.184 -907.982)" fill="#f2e6dc"/>
      <path id="Path_921197" data-name="Path 921197" d="M1390,1128.772a3.394,3.394,0,1,0,3.394-3.394,3.394,3.394,0,0,0-3.394,3.394" transform="translate(-1140.818 -923.633)" fill="#f2e6dc"/>
      <path id="Path_921198" data-name="Path 921198" d="M999.45,353.961a14.831,14.831,0,1,0,14.831-14.831,14.831,14.831,0,0,0-14.831,14.831" transform="translate(-820.281 -278.334)" fill="#634419"/>
      <path id="Path_921199" data-name="Path 921199" d="M1040.132,515.311l7.608.962,7.151-.962V489.9h-14.758Z" transform="translate(-853.67 -402.078)" fill="#e2a18d"/>
      <path id="Path_921200" data-name="Path 921200" d="M1013.875,386.45c0,7.9,5.472,16.234,12.222,16.234s12.222-8.334,12.222-16.234-5.472-14.3-12.222-14.3-12.222,6.4-12.222,14.3" transform="translate(-832.12 -305.431)" fill="#e2a18d"/>
      <path id="Path_921201" data-name="Path 921201" d="M1047.671,525.573a10.282,10.282,0,0,1-7.46-3.614.179.179,0,1,1,.261-.245,9.934,9.934,0,0,0,7.2,3.5,9.706,9.706,0,0,0,6.709-3,.179.179,0,1,1,.249.258,10.057,10.057,0,0,1-6.958,3.1" transform="translate(-853.694 -428.14)" fill="#363e44"/>
      <path id="Path_921202" data-name="Path 921202" d="M1135.119,435.551c-1.1,2.419-.679,4.983.949,5.725s3.843-.616,4.947-3.035.679-4.983-.95-5.725-3.843.616-4.947,3.035" transform="translate(-931.125 -354.812)" fill="#e2a18d"/>
      <path id="Path_921203" data-name="Path 921203" d="M1154.887,447.447a.179.179,0,0,1-.116-.316,3.352,3.352,0,0,0,.853-1.16,3.15,3.15,0,0,0,.284-1.789,1.355,1.355,0,0,0-.71-1.077,1.21,1.21,0,0,0-.941,0,.179.179,0,0,1-.126-.336,1.559,1.559,0,0,1,1.216.007,1.7,1.7,0,0,1,.915,1.345,3.516,3.516,0,0,1-.312,2A3.713,3.713,0,0,1,1155,447.4a.179.179,0,0,1-.116.043" transform="translate(-947.137 -363.299)" fill="#363e44"/>
      <path id="Path_921204" data-name="Path 921204" d="M1144.813,444.408a.176.176,0,0,1-.056-.009.179.179,0,0,1-.114-.227,16.228,16.228,0,0,0,.814-5.115,16.609,16.609,0,0,0-.2-2.607.179.179,0,1,1,.354-.056,17,17,0,0,1,.209,2.663,16.588,16.588,0,0,1-.832,5.228.179.179,0,0,1-.17.123" transform="translate(-939.438 -358.038)" fill="#363e44"/>
      <path id="Path_921205" data-name="Path 921205" d="M997.1,435.551c1.1,2.419.678,4.983-.95,5.725s-3.843-.616-4.947-3.035-.679-4.983.949-5.725,3.843.616,4.947,3.035" transform="translate(-813.005 -354.812)" fill="#e2a18d"/>
      <path id="Path_921206" data-name="Path 921206" d="M999.5,447.447a.179.179,0,0,1-.116-.043,3.719,3.719,0,0,1-.948-1.284c-.638-1.4-.367-2.9.6-3.341a1.558,1.558,0,0,1,1.216-.007.179.179,0,1,1-.126.336,1.21,1.21,0,0,0-.941,0c-.791.361-.983,1.647-.426,2.866a3.354,3.354,0,0,0,.853,1.16.179.179,0,0,1-.116.316" transform="translate(-819.164 -363.299)" fill="#363e44"/>
      <path id="Path_921207" data-name="Path 921207" d="M1014.608,444.408a.179.179,0,0,1-.17-.123,16.588,16.588,0,0,1-.832-5.228,17.015,17.015,0,0,1,.209-2.663.179.179,0,1,1,.354.056,16.624,16.624,0,0,0-.2,2.607,16.228,16.228,0,0,0,.814,5.115.179.179,0,0,1-.114.227.177.177,0,0,1-.056.009" transform="translate(-831.899 -358.038)" fill="#363e44"/>
      <path id="Path_921208" data-name="Path 921208" d="M1076.056,466.581a.178.178,0,0,1-.1-.028,1.595,1.595,0,0,1-.647-2.335,4.641,4.641,0,0,0,.351-1.029,3.893,3.893,0,0,0-.06-1.682.179.179,0,1,1,.348-.086,4.248,4.248,0,0,1,.064,1.836,4.937,4.937,0,0,1-.375,1.105,1.536,1.536,0,0,0-.213,1.01,1.5,1.5,0,0,0,.724.878.179.179,0,0,1-.1.331" transform="translate(-882.323 -378.59)" fill="#363e44"/>
      <path id="Path_921209" data-name="Path 921209" d="M1084.307,502.62a.179.179,0,0,1-.179-.176,1.212,1.212,0,0,1,.827-1.116,1.812,1.812,0,0,1,1.951.422.179.179,0,1,1-.273.233,1.456,1.456,0,0,0-1.546-.322.86.86,0,0,0-.6.775.179.179,0,0,1-.175.183h0" transform="translate(-889.778 -411.357)" fill="#363e44"/>
      <path id="Path_921210" data-name="Path 921210" d="M1022.53,440.458h0l.032,0c.017.066.061.15.13.148a2.015,2.015,0,0,1,.178.364c.1.19.388.021.288-.168-.068-.127.384.117.583.193.632.243,1.273.458,1.922.652.3.091.605.184.911.264a7.9,7.9,0,0,0,1.118.281,8.256,8.256,0,0,1,1.28,1.469,8.5,8.5,0,0,1-2.712.606c0-.021-.009-.041-.013-.061a12.964,12.964,0,0,0-3.657-.881,8.495,8.495,0,0,1-2.351-2.292,8.44,8.44,0,0,1,2.291-.573" transform="translate(-837.343 -361.495)" fill="#fff"/>
      <path id="Path_921211" data-name="Path 921211" d="M1034.008,440.471a6.789,6.789,0,0,1,2.578,1.527,2.754,2.754,0,0,1-1.383,2.075,6.369,6.369,0,0,1-2.208-.235,6.053,6.053,0,0,1-1.484-.691,2.765,2.765,0,0,1-.053-2.882,6.54,6.54,0,0,1,2.551.206" transform="translate(-846.239 -361.305)" fill="#363e44"/>
      <path id="Path_921212" data-name="Path 921212" d="M1099.936,441.789h0l-.032,0c-.017.066-.061.15-.13.148a1.992,1.992,0,0,0-.177.364c-.1.19-.389.021-.288-.168.068-.127-.385.117-.583.193-.632.243-1.273.458-1.922.653-.3.091-.606.184-.911.264a7.912,7.912,0,0,1-1.118.281,8.261,8.261,0,0,0-1.28,1.469,8.506,8.506,0,0,0,2.712.606c0-.021.009-.041.013-.061a12.964,12.964,0,0,1,3.657-.881,8.495,8.495,0,0,0,2.352-2.292,8.443,8.443,0,0,0-2.291-.573" transform="translate(-897.466 -362.587)" fill="#fff"/>
      <path id="Path_921213" data-name="Path 921213" d="M1103.223,441.8a6.788,6.788,0,0,0-2.578,1.527,2.752,2.752,0,0,0,1.383,2.075,6.362,6.362,0,0,0,2.208-.235,6.05,6.05,0,0,0,1.485-.69,2.767,2.767,0,0,0,.053-2.883,6.541,6.541,0,0,0-2.551.206" transform="translate(-903.335 -362.398)" fill="#363e44"/>
      <path id="Path_921214" data-name="Path 921214" d="M1003.535,320.484s-1.521-5.03-7.437-1.49-22.253,5.588-24.33-6.892,8.2-12.041,12.03-7.653,5.474,10.178,12.3,9.838,7.437,6.2,7.437,6.2" transform="translate(-797.337 -247.571)" fill="#634419"/>
      <path id="Path_921215" data-name="Path 921215" d="M984.034,371.505a15.368,15.368,0,0,1-3.7-.436c-3.881-.96-7.969-4.246-8.271-8.669a.18.18,0,0,1,.167-.191.177.177,0,0,1,.191.167c.291,4.251,4.244,7.416,8,8.345,3.593.889,7.766.384,12.4-1.5a.179.179,0,1,1,.135.332,23.879,23.879,0,0,1-8.919,1.951" transform="translate(-797.8 -297.275)" fill="#fff"/>
      <path id="Path_921216" data-name="Path 921216" d="M1097.671,596.611l-6.119-4.4-8.983,8.031,2.522,12.136Z" transform="translate(-888.499 -486.042)" fill="#f2e6dc"/>
      <path id="Path_921217" data-name="Path 921217" d="M997.555,596.611l6.119-4.4,8.983,8.031-2.522,12.136Z" transform="translate(-818.726 -486.042)" fill="#f2e6dc"/>
    </g>
  </g>
</svg>
